<svg width="487" height="326" viewBox="0 0 487 326" fill="none" xmlns="http://www.w3.org/2000/svg">
<mask id="mask0_62_2717" style="mask-type:alpha" maskUnits="userSpaceOnUse" x="0" y="0" width="487" height="326">
<rect x="0.499969" y="0.105225" width="486.316" height="325.224" rx="30.3947" fill="black"/>
</mask>
<g mask="url(#mask0_62_2717)">
<path fill-rule="evenodd" clip-rule="evenodd" d="M153.128 114.1C165.798 106.784 181.34 107.33 195.971 114.12L195.971 114.121C194.536 130.186 187.238 143.919 174.568 151.234C161.898 158.549 146.356 158.003 131.725 151.213L131.725 151.213C133.16 135.147 140.458 121.415 153.128 114.1Z" fill="white"/>
<path d="M174.352 151.286C168.52 141.184 155.632 137.728 145.533 143.559L145.417 143.357C155.516 137.527 158.967 124.638 153.134 114.536L153.348 114.412C159.181 124.514 172.068 127.97 182.167 122.139L182.284 122.341C172.185 128.171 168.734 141.06 174.566 151.163L174.352 151.286Z" fill="white"/>
<path d="M174.352 151.286C168.52 141.184 155.632 137.728 145.533 143.559L145.417 143.357C155.516 137.527 158.967 124.638 153.134 114.536L153.348 114.412C159.181 124.514 172.068 127.97 182.167 122.139L182.284 122.341C172.185 128.171 168.734 141.06 174.566 151.163L174.352 151.286Z" fill="#5200FF"/>
<path fill-rule="evenodd" clip-rule="evenodd" d="M303.319 27.3877C315.989 20.0727 331.53 20.6187 346.161 27.4084L281.915 64.5007C283.35 48.4354 290.649 34.7027 303.319 27.3877ZM324.758 64.5215C312.088 71.8365 296.546 71.2905 281.915 64.5008L346.161 27.4085C344.726 43.4738 337.428 57.2065 324.758 64.5215Z" fill="white"/>
<path d="M324.542 64.5744C318.71 54.4718 305.822 51.0162 295.723 56.8469L295.607 56.6456C305.706 50.8149 309.157 37.9262 303.324 27.8236L303.538 27.7C309.371 37.8026 322.258 41.2582 332.357 35.4275L332.474 35.6288C322.375 41.4595 318.924 54.3482 324.756 64.4508L324.542 64.5744Z" fill="white"/>
<path d="M324.542 64.5744C318.71 54.4718 305.822 51.0162 295.723 56.8469L295.607 56.6456C305.706 50.8149 309.157 37.9262 303.324 27.8236L303.538 27.7C309.371 37.8026 322.258 41.2582 332.357 35.4275L332.474 35.6288C322.375 41.4595 318.924 54.3482 324.756 64.4508L324.542 64.5744Z" fill="#5200FF"/>
<path fill-rule="evenodd" clip-rule="evenodd" d="M228.183 70.7665C240.853 63.4516 256.395 63.9975 271.026 70.7872L206.78 107.879C208.215 91.8141 215.514 78.0815 228.183 70.7665ZM249.623 107.9C236.953 115.215 221.411 114.669 206.78 107.879L271.026 70.7871C269.591 86.8525 262.293 100.585 249.623 107.9Z" fill="white"/>
<path d="M249.407 107.953C243.574 97.8505 230.687 94.3949 220.588 100.226L220.472 100.024C230.571 94.1935 234.022 81.3048 228.189 71.2023L228.403 71.0787C234.236 81.1812 247.123 84.6368 257.222 78.8062L257.339 79.0075C247.24 84.8382 243.788 97.7269 249.621 107.829L249.407 107.953Z" fill="white"/>
<path d="M249.407 107.953C243.574 97.8505 230.687 94.3949 220.588 100.226L220.472 100.024C230.571 94.1935 234.022 81.3048 228.189 71.2023L228.403 71.0787C234.236 81.1812 247.123 84.6368 257.222 78.8062L257.339 79.0075C247.24 84.8382 243.788 97.7269 249.621 107.829L249.407 107.953Z" fill="#5200FF"/>
<path fill-rule="evenodd" clip-rule="evenodd" d="M2.77916 200.904C15.4491 193.589 30.9911 194.135 45.6217 200.925L45.6215 200.925C44.1863 216.99 36.8882 230.723 24.2182 238.038C11.5483 245.353 -3.99362 244.807 -18.6242 238.017L-18.6241 238.017C-17.1889 221.951 -9.89081 208.219 2.77916 200.904Z" fill="white"/>
<path d="M24.0027 238.09C18.17 227.988 5.28244 224.532 -4.81658 230.363L-4.93283 230.162C5.16619 224.331 8.61731 211.442 2.7846 201.34L2.99866 201.216C8.83136 211.319 21.7189 214.774 31.8179 208.944L31.9342 209.145C21.8351 214.976 18.384 227.864 24.2167 237.967L24.0027 238.09Z" fill="white"/>
<path d="M24.0027 238.09C18.17 227.988 5.28244 224.532 -4.81658 230.363L-4.93283 230.162C5.16619 224.331 8.61731 211.442 2.7846 201.34L2.99866 201.216C8.83136 211.319 21.7189 214.774 31.8179 208.944L31.9342 209.145C21.8351 214.976 18.384 227.864 24.2167 237.967L24.0027 238.09Z" fill="#5200FF"/>
<path fill-rule="evenodd" clip-rule="evenodd" d="M378.453 -15.9914C391.123 -23.3064 406.665 -22.7605 421.296 -15.9708L357.05 21.1214C358.485 5.05615 365.783 -8.67646 378.453 -15.9914ZM399.893 21.1424C387.223 28.4574 371.681 27.9114 357.05 21.1216L421.296 -15.9708C419.861 0.0946345 412.562 13.8273 399.893 21.1424Z" fill="white"/>
<path d="M399.677 21.1952C393.844 11.0927 380.957 7.63707 370.858 13.4677L370.741 13.2664C380.84 7.43572 384.292 -5.45299 378.459 -15.5555L378.673 -15.6791C384.506 -5.57657 397.393 -2.12098 407.492 -7.95165L407.608 -7.75031C397.509 -1.91963 394.058 10.9691 399.891 21.0716L399.677 21.1952Z" fill="white"/>
<path d="M399.677 21.1952C393.844 11.0927 380.957 7.63707 370.858 13.4677L370.741 13.2664C380.84 7.43572 384.292 -5.45299 378.459 -15.5555L378.673 -15.6791C384.506 -5.57657 397.393 -2.12098 407.492 -7.95165L407.608 -7.75031C397.509 -1.91963 394.058 10.9691 399.891 21.0716L399.677 21.1952Z" fill="#5200FF"/>
<path fill-rule="evenodd" clip-rule="evenodd" d="M56.5102 194.638C56.5102 194.638 56.5102 194.638 56.5102 194.638L56.5103 194.638C71.1408 201.428 86.6827 201.974 99.3527 194.659C112.023 187.344 119.321 173.611 120.756 157.545L120.756 157.546C106.125 150.756 90.5833 150.21 77.9134 157.525C65.2435 164.84 57.9454 178.572 56.5102 194.638L56.5102 194.638C56.5102 194.638 56.5102 194.638 56.5102 194.638Z" fill="white"/>
<path d="M99.1374 194.711C93.3047 184.609 80.4172 181.153 70.3182 186.984L70.2019 186.783C80.3009 180.952 83.752 168.063 77.9193 157.961L78.1334 157.837C83.9661 167.94 96.8536 171.395 106.953 165.564L107.069 165.766C96.9699 171.596 93.5187 184.485 99.3514 194.588L99.1374 194.711Z" fill="white"/>
<path d="M99.1374 194.711C93.3047 184.609 80.4172 181.153 70.3182 186.984L70.2019 186.783C80.3009 180.952 83.752 168.063 77.9193 157.961L78.1334 157.837C83.9661 167.94 96.8536 171.395 106.953 165.564L107.069 165.766C96.9699 171.596 93.5187 184.485 99.3514 194.588L99.1374 194.711Z" fill="#5200FF"/>
<path fill-rule="evenodd" clip-rule="evenodd" d="M147.562 30.2741C132.932 23.4844 117.39 22.9385 104.72 30.2534C92.05 37.5684 84.7519 51.3011 83.3167 67.3664L83.3169 67.3663C97.9474 74.156 113.489 74.7019 126.159 67.387C138.829 60.072 146.127 46.3394 147.562 30.2741L147.562 30.2741Z" fill="white"/>
<path d="M125.944 67.4403C120.111 57.3378 107.224 53.8822 97.1245 59.7129L97.0083 59.5115C107.107 53.6808 110.558 40.7921 104.726 30.6896L104.94 30.566C110.772 40.6685 123.66 44.1241 133.759 38.2935L133.875 38.4948C123.776 44.3255 120.325 57.2142 126.158 67.3168L125.944 67.4403Z" fill="white"/>
<path d="M125.944 67.4403C120.111 57.3378 107.224 53.8822 97.1245 59.7129L97.0083 59.5115C107.107 53.6808 110.558 40.7921 104.726 30.6896L104.94 30.566C110.772 40.6685 123.66 44.1241 133.759 38.2935L133.875 38.4948C123.776 44.3255 120.325 57.2142 126.158 67.3168L125.944 67.4403Z" fill="#5200FF"/>
<path fill-rule="evenodd" clip-rule="evenodd" d="M179.855 -13.1258C192.525 -20.4408 208.067 -19.8948 222.697 -13.1051L158.452 23.9871C159.887 7.92179 167.185 -5.81082 179.855 -13.1258ZM201.294 24.008C188.624 31.323 173.082 30.777 158.451 23.9872L222.697 -13.1051C221.262 2.96028 213.964 16.693 201.294 24.008Z" fill="white"/>
<path d="M201.079 24.0607C195.246 13.9582 182.359 10.5026 172.26 16.3332L172.143 16.1319C182.242 10.3012 185.694 -2.58751 179.861 -12.6901L180.075 -12.8136C185.908 -2.71109 198.795 0.744499 208.894 -5.08618L209.01 -4.88483C198.911 0.945847 195.46 13.8346 201.293 23.9371L201.079 24.0607Z" fill="white"/>
<path d="M201.079 24.0607C195.246 13.9582 182.359 10.5026 172.26 16.3332L172.143 16.1319C182.242 10.3012 185.694 -2.58751 179.861 -12.6901L180.075 -12.8136C185.908 -2.71109 198.795 0.744499 208.894 -5.08618L209.01 -4.88483C198.911 0.945847 195.46 13.8346 201.293 23.9371L201.079 24.0607Z" fill="#5200FF"/>
<path fill-rule="evenodd" clip-rule="evenodd" d="M-45.5499 117.012C-32.88 109.697 -17.3381 110.243 -2.7076 117.032L-66.9531 154.125C-65.5179 138.059 -58.2198 124.327 -45.5499 117.012ZM-24.1106 154.146C-36.7805 161.461 -52.3225 160.915 -66.9531 154.125L-2.70731 117.032C-4.14244 133.098 -11.4406 146.831 -24.1106 154.146Z" fill="white"/>
<path fill-rule="evenodd" clip-rule="evenodd" d="M29.5852 73.6325C42.2552 66.3175 57.7971 66.8635 72.4277 73.6533L72.4276 73.6534C70.9924 89.7187 63.6943 103.451 51.0243 110.766C38.3543 118.081 22.8124 117.535 8.18179 110.746L8.18194 110.746C9.6171 94.6802 16.9152 80.9475 29.5852 73.6325Z" fill="white"/>
<path d="M50.809 110.819C44.9763 100.717 32.0887 97.2611 21.9897 103.092L21.8735 102.89C31.9725 97.0597 35.4236 84.171 29.5909 74.0685L29.805 73.9449C35.6377 84.0475 48.5252 87.503 58.6242 81.6724L58.7405 81.8737C48.6414 87.7044 45.1903 100.593 51.023 110.696L50.809 110.819Z" fill="white"/>
<path d="M50.809 110.819C44.9763 100.717 32.0887 97.2611 21.9897 103.092L21.8735 102.89C31.9725 97.0597 35.4236 84.171 29.5909 74.0685L29.805 73.9449C35.6377 84.0475 48.5252 87.503 58.6242 81.6724L58.7405 81.8737C48.6414 87.7044 45.1903 100.593 51.023 110.696L50.809 110.819Z" fill="#5200FF"/>
<path fill-rule="evenodd" clip-rule="evenodd" d="M166.491 50.4873C179.161 43.1723 194.703 43.7182 209.334 50.5081L209.333 50.5084C207.898 66.5735 200.6 80.3059 187.93 87.6209C175.26 94.9358 159.719 94.3899 145.088 87.6003L145.088 87.6004C145.088 87.6004 145.088 87.6003 145.088 87.6003C145.088 87.6003 145.088 87.6002 145.088 87.6002L145.088 87.6001C146.523 71.5349 153.822 57.8023 166.491 50.4873Z" fill="white"/>
<path d="M187.715 87.674C181.882 77.5714 168.995 74.1158 158.896 79.9465L158.78 79.7452C168.879 73.9145 172.33 61.0258 166.497 50.9232L166.711 50.7996C172.544 60.9022 185.431 64.3578 195.53 58.5271L195.647 58.7285C185.548 64.5591 182.096 77.4479 187.929 87.5504L187.715 87.674Z" fill="white"/>
<path d="M187.715 87.674C181.882 77.5714 168.995 74.1158 158.896 79.9465L158.78 79.7452C168.879 73.9145 172.33 61.0258 166.497 50.9232L166.711 50.7996C172.544 60.9022 185.431 64.3578 195.53 58.5271L195.647 58.7285C185.548 64.5591 182.096 77.4479 187.929 87.5504L187.715 87.674Z" fill="#5200FF"/>
<path fill-rule="evenodd" clip-rule="evenodd" d="M359.524 -36.2043L359.524 -36.2043C359.524 -36.2043 359.524 -36.2043 359.524 -36.2043C359.524 -36.2044 359.524 -36.2044 359.524 -36.2045L359.524 -36.2044C344.893 -42.9941 329.351 -43.5401 316.681 -36.2251C304.011 -28.9101 296.713 -15.1774 295.278 0.888013L295.278 0.887843C309.909 7.67753 325.451 8.22346 338.121 0.908492C350.791 -6.40648 358.089 -20.139 359.524 -36.2043Z" fill="white"/>
<path d="M337.905 0.961818C332.073 -9.14072 319.185 -12.5963 309.086 -6.76565L308.97 -6.967C319.069 -12.7977 322.52 -25.6864 316.687 -35.7889L316.901 -35.9125C322.734 -25.81 335.621 -22.3544 345.72 -28.1851L345.837 -27.9837C335.738 -22.153 332.287 -9.26431 338.119 0.838235L337.905 0.961818Z" fill="white"/>
<path d="M337.905 0.961818C332.073 -9.14072 319.185 -12.5963 309.086 -6.76565L308.97 -6.967C319.069 -12.7977 322.52 -25.6864 316.687 -35.7889L316.901 -35.9125C322.734 -25.81 335.621 -22.3544 345.72 -28.1851L345.837 -27.9837C335.738 -22.153 332.287 -9.26431 338.119 0.838235L337.905 0.961818Z" fill="#5200FF"/>
<path fill-rule="evenodd" clip-rule="evenodd" d="M241.546 7.15395C254.216 -0.16111 269.758 0.384932 284.389 7.17487L220.143 44.2674C221.578 28.2019 228.876 14.469 241.546 7.15395ZM262.986 44.2879C250.316 51.6029 234.774 51.057 220.143 44.2672L284.389 7.17493C282.954 23.2403 275.656 36.9729 262.986 44.2879Z" fill="white"/>
<path d="M262.77 44.3407C256.938 34.2382 244.05 30.7826 233.951 36.6133L233.835 36.4119C243.934 30.5812 247.385 17.6925 241.552 7.58998L241.766 7.46639C247.599 17.5689 260.487 21.0245 270.586 15.1939L270.702 15.3952C260.603 21.2259 257.152 34.1146 262.984 44.2171L262.77 44.3407Z" fill="white"/>
<path d="M262.77 44.3407C256.938 34.2382 244.05 30.7826 233.951 36.6133L233.835 36.4119C243.934 30.5812 247.385 17.6925 241.552 7.58998L241.766 7.46639C247.599 17.5689 260.487 21.0245 270.586 15.1939L270.702 15.3952C260.603 21.2259 257.152 34.1146 262.984 44.2171L262.77 44.3407Z" fill="#5200FF"/>
<path fill-rule="evenodd" clip-rule="evenodd" d="M58.9847 137.312C58.9848 137.312 58.9849 137.312 58.9849 137.312L58.9847 137.312C57.5494 153.378 50.2513 167.11 37.5815 174.425C24.9117 181.74 9.37 181.194 -5.26041 174.404L-5.26111 174.405C-3.82603 158.339 3.4721 144.606 16.1422 137.291C28.8121 129.976 44.354 130.522 58.9845 137.312L58.9847 137.312C58.9847 137.312 58.9847 137.312 58.9847 137.312Z" fill="white"/>
<path d="M37.3659 174.478C31.5332 164.376 18.6457 160.92 8.5467 166.751L8.43045 166.549C18.5295 160.719 21.9806 147.83 16.1479 137.727L16.3619 137.604C22.1946 147.706 35.0822 151.162 45.1812 145.331L45.2974 145.533C35.1984 151.363 31.7473 164.252 37.58 174.355L37.3659 174.478Z" fill="white"/>
<path d="M37.3659 174.478C31.5332 164.376 18.6457 160.92 8.5467 166.751L8.43045 166.549C18.5295 160.719 21.9806 147.83 16.1479 137.727L16.3619 137.604C22.1946 147.706 35.0822 151.162 45.1812 145.331L45.2974 145.533C35.1984 151.363 31.7473 164.252 37.58 174.355L37.3659 174.478Z" fill="#5200FF"/>
<path fill-rule="evenodd" clip-rule="evenodd" d="M91.277 93.9123C103.947 86.5973 119.489 87.1433 134.12 93.9331C132.684 109.999 125.386 123.731 112.716 131.046C100.046 138.361 84.5044 137.815 69.8738 131.025C71.3089 114.96 78.607 101.227 91.277 93.9123Z" fill="white"/>
<path d="M112.501 131.099C106.668 120.996 93.7805 117.541 83.6814 123.372L83.5652 123.17C93.6642 117.34 97.1153 104.451 91.2826 94.3483L91.4967 94.2247C97.3294 104.327 110.217 107.783 120.316 101.952L120.432 102.154C110.333 107.984 106.882 120.873 112.715 130.975L112.501 131.099Z" fill="white"/>
<path d="M112.501 131.099C106.668 120.996 93.7805 117.541 83.6814 123.372L83.5652 123.17C93.6642 117.34 97.1153 104.451 91.2826 94.3483L91.4967 94.2247C97.3294 104.327 110.217 107.783 120.316 101.952L120.432 102.154C110.333 107.984 106.882 120.873 112.715 130.975L112.501 131.099Z" fill="#5200FF"/>
<path fill-rule="evenodd" clip-rule="evenodd" d="M96.6802 3.75321L96.6796 3.75353C111.31 10.5435 126.852 11.0895 139.522 3.77444C152.192 -3.54062 159.491 -17.2734 160.926 -33.3389L160.925 -33.3388C146.295 -40.1283 130.753 -40.6742 118.083 -33.3593C105.414 -26.0444 98.1155 -12.3119 96.6802 3.75321Z" fill="white"/>
<path d="M139.307 3.8273C133.474 -6.27525 120.586 -9.73085 110.487 -3.90017L110.371 -4.10152C120.47 -9.9322 123.921 -22.8209 118.089 -32.9235L118.303 -33.047C124.135 -22.9445 137.023 -19.4889 147.122 -25.3196L147.238 -25.1182C137.139 -19.2876 133.688 -6.39883 139.521 3.70371L139.307 3.8273Z" fill="white"/>
<path d="M139.307 3.8273C133.474 -6.27525 120.586 -9.73085 110.487 -3.90017L110.371 -4.10152C120.47 -9.9322 123.921 -22.8209 118.089 -32.9235L118.303 -33.047C124.135 -22.9445 137.023 -19.4889 147.122 -25.3196L147.238 -25.1182C137.139 -19.2876 133.688 -6.39883 139.521 3.70371L139.307 3.8273Z" fill="#5200FF"/>
<path fill-rule="evenodd" clip-rule="evenodd" d="M-32.2665 53.445C-19.5965 46.13 -4.05449 46.676 10.5761 53.4659L-53.6697 90.5583C-52.2346 74.4928 -44.9365 60.7601 -32.2665 53.445ZM-10.8273 90.5788C-23.4972 97.8938 -39.039 97.3479 -53.6695 90.5582L10.5759 53.4661C9.14067 69.5313 1.84256 83.2639 -10.8273 90.5788Z" fill="white"/>
<path d="M-11.0427 90.6317C-16.8754 80.5292 -29.7629 77.0736 -39.8619 82.9043L-39.9781 82.7029C-29.8791 76.8722 -26.428 63.9835 -32.2607 53.881L-32.0467 53.7574C-26.214 63.86 -13.3264 67.3155 -3.2274 61.4849L-3.11115 61.6862C-13.2102 67.5169 -16.6613 80.4056 -10.8286 90.5082L-11.0427 90.6317Z" fill="white"/>
<path d="M-11.0427 90.6317C-16.8754 80.5292 -29.7629 77.0736 -39.8619 82.9043L-39.9781 82.7029C-29.8791 76.8722 -26.428 63.9835 -32.2607 53.881L-32.0467 53.7574C-26.214 63.86 -13.3264 67.3155 -3.2274 61.4849L-3.11115 61.6862C-13.2102 67.5169 -16.6613 80.4056 -10.8286 90.5082L-11.0427 90.6317Z" fill="#5200FF"/>
<path fill-rule="evenodd" clip-rule="evenodd" d="M42.8681 10.0659C55.5381 2.75088 71.08 3.29687 85.7106 10.0867L21.4648 47.179C22.9 31.1136 30.1981 17.3809 42.8681 10.0659ZM64.3074 47.1998C51.6374 54.5148 36.0955 53.9688 21.4649 47.179L85.7106 10.0868C84.2754 26.1521 76.9773 39.8848 64.3074 47.1998Z" fill="white"/>
<path d="M64.092 47.2526C58.2593 37.15 45.3718 33.6944 35.2727 39.5251L35.1565 39.3238C45.2555 33.4931 48.7066 20.6044 42.8739 10.5018L43.088 10.3783C48.9207 20.4808 61.8082 23.9364 71.9072 18.1057L72.0235 18.3071C61.9245 24.1377 58.4733 37.0265 64.306 47.129L64.092 47.2526Z" fill="white"/>
<path d="M64.092 47.2526C58.2593 37.15 45.3718 33.6944 35.2727 39.5251L35.1565 39.3238C45.2555 33.4931 48.7066 20.6044 42.8739 10.5018L43.088 10.3783C48.9207 20.4808 61.8082 23.9364 71.9072 18.1057L72.0235 18.3071C61.9245 24.1377 58.4733 37.0265 64.306 47.129L64.092 47.2526Z" fill="#5200FF"/>
</g>
</svg>
