<svg width="487" height="106" viewBox="0 0 487 106" fill="none" xmlns="http://www.w3.org/2000/svg">
<circle cx="242.645" cy="52.8947" r="52.6842" fill="#06FFB4"/>
<circle cx="130.184" cy="52.8947" r="39.5132" fill="white"/>
<circle cx="356.118" cy="52.8947" r="39.5132" fill="#EEF279"/>
<circle cx="456.421" cy="52.8947" r="39.5132" fill="#9F79F2"/>
<circle cx="29.8816" cy="52.8947" r="39.5132" fill="#5005F2"/>
<path d="M456.783 78.2236C456.783 64.5766 445.747 53.5372 432.105 53.5372V53.2652C445.747 53.2652 456.783 42.2259 456.783 28.5789H457.072C457.072 42.2259 468.108 53.2652 481.75 53.2652V53.5372C468.108 53.5372 457.072 64.5766 457.072 78.2236H456.783Z" fill="black"/>
<path d="M257.171 28.6573C251.534 28.1466 246.363 30.1645 242.645 33.7082C238.926 30.1707 233.755 28.1466 228.118 28.6573C219.353 29.4482 212.251 36.4797 211.339 45.2612C210.948 49.0603 211.699 52.6539 213.282 55.7555C214.058 57.2689 215.064 58.6515 216.262 59.8597L242.645 86.3289L269.028 59.8597C270.226 58.6577 271.232 57.2751 272.008 55.7555C273.591 52.6601 274.342 49.0665 273.951 45.2612C273.038 36.4797 265.936 29.4482 257.171 28.6573Z" fill="black"/>
<path d="M147.193 48.2178C146.847 47.5263 146.14 47.0895 145.367 47.0895H135.063L140.389 36.4362C140.706 35.8036 140.672 35.0521 140.3 34.4504C139.928 33.8488 139.271 33.4824 138.563 33.4824H126.317C125.544 33.4824 124.837 33.9192 124.491 34.6107L113.606 56.3821C113.289 57.0147 113.323 57.7663 113.695 58.368C114.067 58.9698 114.724 59.336 115.431 59.336H126.513L122.961 75.9172C122.76 76.8544 123.238 77.8051 124.11 78.2023C124.383 78.3263 124.671 78.3861 124.955 78.3861C125.582 78.3861 126.194 78.0967 126.589 77.5695L147 50.3552C147.464 49.7368 147.538 48.9092 147.193 48.2178Z" fill="black"/>
<path d="M20.7637 53.9079C25.8 53.9079 29.8828 49.8255 29.8828 44.7895C29.8828 39.7536 25.8 35.6711 20.7637 35.6711C15.7274 35.6711 11.6447 39.7536 11.6447 44.7895C11.6447 49.8255 15.7274 53.9079 20.7637 53.9079Z" fill="black"/>
<path d="M21.2058 35.6736H11.6548V45.2239H21.2058V35.6736Z" fill="black"/>
<path d="M29.8802 44.3575H20.3292V53.9079H29.8802V44.3575Z" fill="black"/>
<path d="M38.9991 53.9079C44.0354 53.9079 48.1182 49.8255 48.1182 44.7895C48.1182 39.7536 44.0354 35.6711 38.9991 35.6711C33.9628 35.6711 29.8801 39.7536 29.8801 44.7895C29.8801 49.8255 33.9628 53.9079 38.9991 53.9079Z" fill="black"/>
<path d="M48.1157 45.234V35.6837H38.5648V45.234H48.1157Z" fill="black"/>
<path d="M39.4312 53.9054V44.3551H29.8802V53.9054H39.4312Z" fill="black"/>
<path d="M38.9994 72.1448C44.0357 72.1448 48.1184 68.0623 48.1184 63.0264C48.1184 57.9904 44.0354 53.9079 38.9991 53.9079C33.9628 53.9079 29.8803 57.9904 29.8803 63.0264C29.8803 68.0623 33.9631 72.1448 38.9994 72.1448Z" fill="black"/>
<path d="M38.5571 72.1448H48.1081V62.5945H38.5571V72.1448Z" fill="black"/>
<path d="M29.8827 63.4582H39.4337V53.9079H29.8827V63.4582Z" fill="black"/>
<path d="M20.7637 72.1448C25.8 72.1448 29.8828 68.0623 29.8828 63.0264C29.8828 57.9904 25.8 53.9079 20.7637 53.9079C15.7274 53.9079 11.6447 57.9904 11.6447 63.0264C11.6447 68.0623 15.7274 72.1448 20.7637 72.1448Z" fill="black"/>
<path d="M11.6447 62.5817V72.132H21.1957V62.5817H11.6447Z" fill="black"/>
<path d="M20.3292 53.9079V63.4582H29.8802V53.9079H20.3292Z" fill="black"/>
<path d="M375.959 34.067C372.751 30.8591 364.92 33.2111 356.625 39.2987C348.33 33.2111 340.499 30.8591 337.291 34.067C334.083 37.2749 336.435 45.1064 342.522 53.4013C336.435 61.6962 334.083 69.5278 337.291 72.7357C340.499 75.9436 348.33 73.5915 356.625 67.5039C364.92 73.5915 372.751 75.9436 375.959 72.7357C379.167 69.5278 376.815 61.6962 370.728 53.4013C376.815 45.1064 379.167 37.2749 375.959 34.067Z" fill="black"/>
</svg>
