<svg width="220" height="238" viewBox="0 0 220 238" fill="none" xmlns="http://www.w3.org/2000/svg">
<path d="M57.609 237.91C57.609 207.941 33.625 183.699 3.97559 183.699V183.102C33.625 183.102 57.609 158.86 57.609 128.891H58.2374C58.2374 158.86 82.2215 183.102 111.871 183.102V183.699C82.2215 183.699 58.2374 207.941 58.2374 237.91H57.609Z" fill="#9F79F2"/>
<path d="M35.5899 71.7407C35.5899 52.1029 19.71 36.2174 0.0789795 36.2174V35.826C19.71 35.826 35.5899 19.9406 35.5899 0.302734H36.006C36.006 19.9406 51.8859 35.826 71.5169 35.826V36.2174C51.8859 36.2174 36.006 52.1029 36.006 71.7407H35.5899Z" fill="#9F79F2"/>
<path d="M138.525 176.433C138.525 131.944 102.549 95.9552 58.0747 95.9552V95.0685C102.549 95.0685 138.525 59.0799 138.525 14.5903H139.467C139.467 59.0799 175.444 95.0685 219.918 95.0685V95.9552C175.444 95.9552 139.467 131.944 139.467 176.433H138.525Z" fill="#9F79F2"/>
</svg>
