<svg width="202" height="110" viewBox="0 0 202 110" fill="none" xmlns="http://www.w3.org/2000/svg">
<path d="M0.893747 48.0893C0.268512 49.965 1.28223 51.9924 3.15795 52.6176C5.03366 53.2429 7.06109 52.2292 7.68632 50.3534L0.893747 48.0893ZM170.76 108.291L201.829 81.0228L162.68 67.7501L170.76 108.291ZM7.68632 50.3534C9.59342 44.6321 15.9809 36.7764 25.3174 29.175C34.5233 21.6798 46.0664 14.8656 57.5654 10.9968C69.1422 7.10171 80.1319 6.36447 88.6581 10.1976C96.9385 13.9201 103.801 22.3809 106.362 39.0255L113.438 37.9367C110.629 19.6763 102.724 8.67081 91.594 3.66715C80.7099 -1.22599 67.6465 0.0505536 55.2821 4.21055C42.8399 8.39676 30.5536 15.6789 20.7968 23.6225C11.1705 31.4599 3.46165 40.3855 0.893747 48.0893L7.68632 50.3534ZM106.362 39.0255C108.81 54.9416 101.646 68.7191 90.2106 79.54C78.7432 90.3912 63.3237 97.8931 50.4365 101.008C43.9726 102.57 38.4276 102.958 34.4825 102.302C30.4524 101.631 29.1286 100.129 28.7981 98.7906C28.361 97.0206 28.9604 93.4058 33.404 87.3078C37.7159 81.3904 45.1393 73.8408 56.6594 64.5361L52.1605 58.9661C40.4106 68.4564 32.4512 76.4574 27.6173 83.0911C22.9151 89.544 20.6057 95.4805 21.8468 100.507C23.1944 105.965 28.1356 108.504 33.3072 109.365C38.5638 110.24 45.1573 109.649 52.1184 107.967C66.0812 104.593 82.658 96.5442 95.1318 84.7407C107.638 72.9069 116.36 56.9256 113.438 37.9367L106.362 39.0255ZM56.6594 64.5361C91.7568 36.1882 121.252 31.6506 142.04 37.8547C162.943 44.0933 175.745 61.334 177.544 78.1621L184.663 77.4009C182.551 57.6497 167.704 38.0421 144.087 30.9937C120.355 23.9109 88.4593 29.6477 52.1605 58.9661L56.6594 64.5361Z" fill="#5005F2"/>
</svg>
