<svg width="151" height="151" viewBox="0 0 151 151" fill="none" xmlns="http://www.w3.org/2000/svg">
<path d="M75.5 0.200073L75.5145 75.426L104.316 5.93192L75.5419 75.4375L128.745 22.255L75.5625 75.4582L145.068 46.6839L75.574 75.4855L150.8 75.5001L75.574 75.5147L145.068 104.316L75.5625 75.542L128.745 128.745L75.5419 75.5626L104.316 145.068L75.5145 75.5742L75.5 150.8L75.4854 75.5742L46.6837 145.068L75.4581 75.5626L22.2548 128.745L75.4374 75.542L5.9318 104.316L75.4259 75.5147L0.199951 75.5001L75.4259 75.4855L5.9318 46.6839L75.4374 75.4582L22.2548 22.255L75.4581 75.4375L46.6837 5.93192L75.4854 75.426L75.5 0.200073Z" stroke="#5005F2" stroke-width="5.02"/>
</svg>
