<svg width="236" height="137" viewBox="0 0 236 137" fill="none" xmlns="http://www.w3.org/2000/svg">
<path fill-rule="evenodd" clip-rule="evenodd" d="M118 0C164.542 -2.70237e-06 206.492 26.2256 236 68.2037C206.492 110.182 164.542 136.407 118 136.407C71.4582 136.407 29.5079 110.182 0 68.2037C29.5079 26.2256 71.4582 4.07508e-06 118 0Z" fill="white"/>
<path d="M117.322 136.21C117.322 99.0996 87.3129 69.08 50.2151 69.08V68.3404C87.3129 68.3404 117.322 38.3208 117.322 1.21021H118.108C118.108 38.3208 148.117 68.3404 185.215 68.3404V69.08C148.117 69.08 118.108 99.0996 118.108 136.21H117.322Z" fill="white"/>
<path d="M117.322 136.21C117.322 99.0996 87.3129 69.08 50.2151 69.08V68.3404C87.3129 68.3404 117.322 38.3208 117.322 1.21021H118.108C118.108 38.3208 148.117 68.3404 185.215 68.3404V69.08C148.117 69.08 118.108 99.0996 118.108 136.21H117.322Z" fill="#5200FF"/>
</svg>
