<?xml version="1.0" standalone="no"?>
<!DOCTYPE svg PUBLIC "-//W3C//DTD SVG 1.1//EN" "http://www.w3.org/Graphics/SVG/1.1/DTD/svg11.dtd" >
<svg>
<metadata>
Created by FontForge 20090914 at Wed Jun 23 08:04:03 2021
 By www-data
Generated by Fontographer 3.5
</metadata>
<defs>
<font id="APS-DV-Vedic" horiz-adv-x="8" >
  <font-face 
    font-family="APS-DV-Vedic"
    font-weight="400"
    font-stretch="normal"
    units-per-em="1000"
    panose-1="2 0 5 3 0 0 0 0 0 0"
    ascent="800"
    descent="-200"
    x-height="424"
    cap-height="423.997"
    bbox="-418 -466.171 727 702"
    underline-thickness="20"
    underline-position="-133"
    unicode-range="U+0020-U+2212"
  />
<missing-glyph horiz-adv-x="280" 
 />
    <glyph glyph-name=".notdef" horiz-adv-x="280" 
 />
    <glyph glyph-name="space" unicode=" " horiz-adv-x="224" 
 />
    <glyph glyph-name="exclam" unicode="!" horiz-adv-x="240" 
d="M202 492l-9 -348l-65 45l-2 353zM230 54l-63 -64l-64 66l64 62z" />
    <glyph glyph-name="quotedbl" unicode="&#x22;" horiz-adv-x="386" 
d="M439 353l-144.999 0.000976562c6 -24 9 -39.333 9 -46c0 -16 -5 -34 -15 -54c52 -40.667 78 -79.667 78 -117c0 -34.667 -12.833 -64.334 -38.5 -89.001s-61.167 -37 -106.5 -37c-54.667 0 -99.334 18.5 -134.001 55.5s-52 76.5 -52 118.5c0 34 11.167 60.333 33.5 79
s61.5 28 117.5 28c26.667 0 40 11.667 40 35c0 10 -1.33301 19 -4 27l-226 1l-40 69l441 1zM294.001 162.001c0 19.333 -5.50098 34.834 -16.501 46.501s-26.833 17.5 -47.5 17.5c-49.333 0 -83.333 -6.5 -102 -19.5s-28 -33.5 -28 -61.5
c0 -22.667 7.33301 -40.834 22 -54.501s33.334 -20.5 56.001 -20.5c30.667 0 57.667 9.33301 81 28s35 40 35 64z" />
    <glyph glyph-name="numbersign" unicode="#" horiz-adv-x="314" 
d="M382 259l0.000976562 -86.9971c-36 -14.667 -67 -22 -93 -22c-22 0 -52 13.333 -90 40c-33.333 -16.667 -56 -31.167 -68 -43.5s-18 -25.833 -18 -40.5c0 -16.667 4.66699 -30.834 14 -42.501s20 -17.5 32 -17.5c15.333 0 26.833 3 34.5 9s11.5 12 11.5 18
c0 2 -2.5 7.33301 -7.5 16s-7.5 15 -7.5 19c0 5.33301 3.5 11 10.5 17s13.833 9 20.5 9c11.333 0 27.666 -7.33301 48.999 -22s32 -27.334 32 -38.001c0 -20 -9.66699 -37.333 -29 -52l66 -117l-37 -21l-58 124c-13.333 -6.66699 -32.333 -10 -57 -10
c-30.667 0 -63.667 15 -99 45s-53 60.333 -53 91c0 20 6.16699 37 18.5 51s37.833 30 76.5 48c-32 21.333 -54 39.5 -66 54.5s-18 31.833 -18 50.5c0 25.333 9 47.666 27 66.999s39.667 29 65 29c34 0 66.333 -14.667 97 -44s46 -60 46 -92c0 -34 -18.333 -63 -55 -87
c2.66699 -0.666992 8 -1 16 -1c20 0 43.333 4.16699 70 12.5s50 20.5 70 36.5zM216.001 333.003c0 11.333 -3.16699 20.167 -9.5 26.5s-14.5 9.5 -24.5 9.5c-16 0 -29.833 -5.5 -41.5 -16.5s-17.5 -22.5 -17.5 -34.5c0 -28.667 12.333 -50.334 37 -65.001
c17.333 8.66699 31 20.334 41 35.001s15 29.667 15 45z" />
    <glyph glyph-name="dollar" unicode="$" horiz-adv-x="219" 
d="M267 353l-269 1l-40 69l266 1zM277 155l-168.001 -119l-57 51l175 119c-17.333 18.667 -41.666 28 -72.999 28c-24.667 0 -49.667 -8 -75 -24l-44 64c35.333 21.333 67 32 95 32c16.667 0 35.5 -6.83301 56.5 -20.5s51.167 -39.167 90.5 -76.5v-54z" />
    <glyph glyph-name="percent" unicode="%" horiz-adv-x="250" 
d="M296 353l-298 1l-40 69l295 1zM309 190l-141.001 -0.00292969v1c49.333 -33.333 74 -65.666 74 -96.999c0 -21.333 -10.5 -38.333 -31.5 -51s-44.833 -21.667 -71.5 -27l70 -90l-38 -20c-8 10.667 -20.333 28.834 -37 54.501l-27 41.5c-4.66699 8 -14 12 -28 12
c-29.333 0 -44 17.333 -44 52c0 37.333 10.333 56 31 56c9.33301 0 16.833 -2.66699 22.5 -8s11.834 -16.333 18.501 -33c16.667 -1.33301 31.167 1.33398 43.5 8.00098s18.5 17.667 18.5 33c0 34 -41 69 -123 105l8 34l253 -1z" />
    <glyph glyph-name="ampersand" unicode="&#x26;" horiz-adv-x="5" 
d="M-96 416c-15.333 20 -28.999 43.1689 -40.999 69.502s-18.667 49.166 -20 68.499c-2 31.333 4.66699 55.666 20 72.999s35 25.333 59 24c28.667 -1.33301 53.667 -14 75 -38l-15 -31c-20.667 12.667 -39.334 13.167 -56.001 1.5s-25 -32.167 -25 -61.5
c0 -10.667 4 -27 12 -49s17.667 -41 29 -57h-38z" />
    <glyph glyph-name="quotesingle" unicode="'" horiz-adv-x="222" 
d="M225 495c0 -16.667 -19.667 -71.667 -59 -165l-28 34c13.333 44.667 20 70.667 20 78c0 9.33301 -3.33301 16 -10 20l-26 22l43 83l42 -41c12 -12 18 -22.333 18 -31z" />
    <glyph glyph-name="parenleft" unicode="(" horiz-adv-x="400" 
d="M209 -70l-31 -24.999c-62 44.667 -107.667 92 -137 142s-44 107.667 -44 173c0 112 60.333 211.667 181 299l31 -26c-50.667 -44.667 -84.667 -86.334 -102 -125.001s-26 -88 -26 -148c0 -68 8.5 -122 25.5 -162s51.167 -82.667 102.5 -128z" />
    <glyph glyph-name="parenright" unicode=")" horiz-adv-x="400" 
d="M402 220c0 -65.333 -14.833 -123.001 -44.5 -173.001s-75.5 -97.333 -137.5 -142l-30 26c50.667 45.333 84.667 88 102 128s26 93.667 26 161c0 60 -8.66699 109.333 -26 148s-51.333 80.334 -102 125.001l30 26c121.333 -87.333 182 -187 182 -299z" />
    <glyph glyph-name="asterisk" unicode="*" horiz-adv-x="432" 
d="M490 217l-63 -63l-64 64l64 63zM558 353h-225.001v-87c0 -14.667 -5.33301 -22 -16 -22h-112c-29.333 0 -44 -12.667 -44 -38c0 -12.667 6.33301 -19.667 19 -21c3.33301 -0.666992 22 2.16602 56 8.49902s53 9.5 57 9.5c14 0 25 -2.83301 33 -8.5s18.667 -18.5 32 -38.5
c18.667 -28 28 -50 28 -66c0 -24.667 -10.833 -47.167 -32.5 -67.5s-47.5 -30.5 -77.5 -30.5c-40 0 -77.667 9.83301 -113 29.5s-78.333 55.834 -129 108.501l31 25c56.667 -63.333 114.334 -95 173.001 -95c27.333 0 50.833 7.16699 70.5 21.5s29.5 27.833 29.5 40.5
c0 6.66699 -5.66699 10 -17 10c-7.33301 0 -24.333 -3 -51 -9s-45 -9 -55 -9c-24.667 0 -50.667 16.333 -78 49s-41 61.334 -41 86.001c0 19.333 6.16699 34.666 18.5 45.999s30.5 17 54.5 17h91v41h-262l-40 71h557z" />
    <glyph glyph-name="plus" unicode="+" horiz-adv-x="185" 
d="M233 353l-299 1l-40 69l296 1zM174 -27c-19.333 -11.333 -38 -16.999 -56 -16.999c-32 0 -62.333 12.833 -91 38.5s-43 52.167 -43 79.5c0 18 5.66699 33 17 45s36 26 74 42l-13 33c-21.333 -10.667 -41.333 -16 -60 -16c-28.667 0 -54.667 6.66699 -78 20l1 31
c5.33301 -2 20 -3 44 -3c11.333 0 23.5 3.66699 36.5 11s19.5 13 19.5 17c0 0.666992 -2.5 7.33398 -7.5 20.001s-7.5 20.667 -7.5 24c0 6 2.83301 11.333 8.5 16s11.5 7 17.5 7c14.667 0 43.334 -12 86.001 -36c15.333 -8.66699 23 -17.334 23 -26.001
c0 -4.66699 -3 -10.334 -9 -17.001s-12.667 -11.667 -20 -15l24 -47c12 -24 18 -40 18 -48c0 -9.33301 -20.333 -22.333 -61 -39c-22.667 -9.33301 -38 -17.333 -46 -24s-12 -15.334 -12 -26.001c0 -7.33301 3.16699 -13.666 9.5 -18.999s13.833 -8 22.5 -8
c25.333 0 48.666 8.66699 69.999 26z" />
    <glyph glyph-name="comma" unicode="," horiz-adv-x="222" 
d="M225 52c0 -11.333 -8.33301 -28.6641 -25 -51.9971l-77 -109l-23 39c7.33301 7.33301 17 21.666 29 42.999s18 34.666 18 39.999c0 7.33301 -13.333 25.666 -40 54.999l69 61c20.667 -24 34 -40.667 40 -50s9 -18.333 9 -27z" />
    <glyph glyph-name="hyphen" unicode="-" horiz-adv-x="341" 
d="M306 161l-259 1v74h256z" />
    <glyph glyph-name="period" unicode="." 
d="M202 59l-64 -64l-64 65l64 64z" />
    <glyph glyph-name="slash" unicode="/" horiz-adv-x="384" 
d="M377 409l-286 -411h-53l289 412z" />
    <glyph glyph-name="zero" unicode="0" horiz-adv-x="400" 
d="M354 210c0 -37.333 -16.499 -72.167 -49.499 -104.5s-67.833 -48.5 -104.5 -48.5c-34.667 0 -66.167 12.5 -94.5 37.5s-42.5 55.5 -42.5 91.5c0 42 16.5 79.333 49.5 112s66.5 49 100.5 49c39.333 0 72.666 -13 99.999 -39s41 -58.667 41 -98zM276.001 174.999
c0 28 -9.66797 52.833 -29.001 74.5s-42.333 32.5 -69 32.5c-14 0 -25.333 -4.83301 -34 -14.5s-13 -23.5 -13 -41.5c0 -26 11.5 -49.833 34.5 -71.5s44.833 -32.5 65.5 -32.5c12.667 0 23.334 4.66699 32.001 14s13 22.333 13 39z" />
    <glyph glyph-name="one" unicode="1" horiz-adv-x="400" 
d="M327 -27c0 -10 -4 -19.998 -12 -29.998s-18 -17 -30 -21l-74 51c21.333 10 32 19.667 32 29c0 10 -6.33301 20.667 -19 32l-122 121c18.667 14 41 34 67 60c-66 49.333 -99 89.333 -99 120c0 26 9.66699 49 29 69s43.333 30 72 30c36.667 0 70.334 -15.333 101.001 -46
s46 -62.334 46 -95.001c0 -20 -8.33301 -41.333 -25 -64s-51.334 -58.334 -104.001 -107.001c56 -48.667 93 -83.167 111 -103.5s27 -35.5 27 -45.5zM250 337.002c0 12.667 -3.66699 22.667 -11 30s-17 11 -29 11c-13.333 0 -26 -6.66699 -38 -20s-18 -28.333 -18 -45
c0 -19.333 14.667 -42.666 44 -69.999c13.333 10.667 25.333 25.667 36 45s16 35.666 16 48.999z" />
    <glyph glyph-name="two" unicode="2" horiz-adv-x="400" 
d="M349 275c0 -63.333 -38.335 -109.002 -115.002 -137.002l98 -167l-37 -23l-96 166c-4.66699 8 -11 12.667 -19 14c-2 0 -9.66699 1.16699 -23 3.5l-26 4.5c-16.667 2 -25 17.667 -25 47c0 47.333 12.667 71 38 71c14 0 30.333 -14.667 49 -44
c26.667 6.66699 49.334 19.667 68.001 39s28 40 28 62c0 19.333 -4.66699 33.833 -14 43.5s-20.333 14.5 -33 14.5c-11.333 0 -31.666 -5.16699 -60.999 -15.5s-56.333 -21.166 -81 -32.499l-52 73c62 26.667 109.667 40 143 40c42 0 78.833 -15.667 110.5 -47
s47.5 -68.666 47.5 -111.999z" />
    <glyph glyph-name="three" unicode="3" horiz-adv-x="400" 
d="M354 139c0 -24 -9.16992 -46.167 -27.5029 -66.5s-43.166 -34.166 -74.499 -41.499l68 -96l-40 -23l-68 104c-4.66699 7.33301 -10 11.333 -16 12c-24.667 3.33301 -43.334 7.66602 -56.001 12.999c-10 4 -17 9.5 -21 16.5s-6 19.167 -6 36.5
c0 20.667 2.66699 34.667 8 42s13.333 11 24 11s18.834 -2.66699 24.501 -8s13.834 -17 24.501 -35c10 -4 20.333 -6 31 -6c15.333 0 30 7.33301 44 22s21 30 21 46c0 11.333 -9.66699 26 -29 44c-10.667 -3.33301 -29 -7.16602 -55 -11.499s-45 -6.5 -57 -6.5
c-15.333 0 -25.333 4.66699 -30 14c-17.333 31.333 -26 50 -26 56c0 13.333 12.333 20 37 20c34.667 0 67.667 -2.33301 99 -7c24.667 16 37 32.333 37 49c0 19.333 -16 29 -48 29l-138 1l-34 69l136 1c42.667 0 77.334 -15.333 104.001 -46s40 -61.334 40 -92.001
c0 -25.333 -9.33301 -44.333 -28 -57c37.333 -31.333 56 -61.333 56 -90z" />
    <glyph glyph-name="four" unicode="4" horiz-adv-x="400" 
d="M398 356c-59.333 -55.333 -100.667 -97.3311 -124 -125.998c42.667 -34.667 70 -59.834 82 -75.501s18 -32.834 18 -51.501c0 -21.333 -10.667 -40.833 -32 -58.5s-47.333 -26.5 -78 -26.5c-35.333 0 -68.333 13.667 -99 41s-46 56.333 -46 87c0 26 19.667 59.667 59 101
l-175 139l47 40l160 -146l150 156zM289.999 133.002c0 16 -15.667 37.333 -47 64c-39.333 -38.667 -59 -68 -59 -88c0 -9.33301 3.66699 -17.5 11 -24.5s16.333 -10.5 27 -10.5c18 0 33.833 5.83301 47.5 17.5s20.5 25.5 20.5 41.5z" />
    <glyph glyph-name="five" unicode="5" horiz-adv-x="400" 
d="M376 -45l-46.002 -19.001l-72 176c-21.333 -12 -46.666 -18 -75.999 -18c-32 0 -66.167 17.5 -102.5 52.5s-54.5 75.833 -54.5 122.5s9.66699 99 29 157l78 -65c-22.667 -79.333 -34 -129 -34 -149c0 -17.333 5 -30.5 15 -39.5s23.333 -13.5 40 -13.5
c10.667 0 22.834 3.83301 36.501 11.5s24.5 16.834 32.5 27.501c-9.33301 22.667 -14 36.667 -14 42c0 6 3.5 12.333 10.5 19s13.5 10 19.5 10c20.667 0 43.667 -10.333 69 -31c15.333 -12 23 -24 23 -36c0 -9.33301 -3.83301 -20.333 -11.5 -33s-16.167 -23 -25.5 -31z" />
    <glyph glyph-name="six" unicode="6" horiz-adv-x="400" 
d="M364 -50l-38 -19.999l-54 109c-44 -5.33301 -88.667 7.33398 -134 38.001c-23.333 15.333 -42.666 33.333 -57.999 54s-23 39.334 -23 56.001c0 28 12.667 49.333 38 64c-42 33.333 -63 65.666 -63 96.999c0 23.333 10.167 41.833 30.5 55.5s49.5 20.5 87.5 20.5
c44 0 80 -1.66699 108 -5l27 -77c-28 7.33301 -65 11 -111 11c-49.333 0 -74 -14 -74 -42c0 -20.667 15 -33.334 45 -38.001c41.333 8.66699 69.333 13 84 13c27.333 0 44 -5.33301 50 -16c12.667 -23.333 19 -42 19 -56c0 -4.66699 -3 -9 -9 -13s-14 -6 -24 -6
c-24 0 -56.333 4.66699 -97 14c-22.667 -15.333 -34 -33.666 -34 -54.999c0 -14 5.66699 -27.5 17 -40.5s22.666 -19.5 33.999 -19.5c20 -0.666992 37.667 4.66602 53 15.999c-6 13.333 -9 24.666 -9 33.999c0 4.66699 3.5 9.5 10.5 14.5s13.167 7.5 18.5 7.5
c14.667 0 31.667 -7 51 -21s29 -27.333 29 -40c0 -20 -10 -36 -30 -48z" />
    <glyph glyph-name="seven" unicode="7" horiz-adv-x="400" 
d="M393 210c0 -58.667 -14.333 -104.336 -43 -137.003s-67.334 -49 -116.001 -49c-26 0 -50 6.66699 -72 20s-42.833 34.833 -62.5 64.5s-36.5 71.334 -50.5 125.001s-23.667 117.5 -29 191.5l37 8c6 -110.667 24.167 -194.167 54.5 -250.5s68.5 -84.5 114.5 -84.5
c28.667 0 51.834 8 69.501 24s28.5 38 32.5 66c-15.333 -9.33301 -31.333 -14 -48 -14c-30 0 -58.667 12 -86 36s-41 53 -41 87c0 26.667 8.5 50.334 25.5 71.001s37.167 31 60.5 31c40.667 0 76.5 -16.667 107.5 -50s46.5 -79.666 46.5 -138.999zM326 276.998
c0 38 -13.667 56.999 -41 56.999c-17.333 0 -31.5 -7 -42.5 -21s-16.5 -29.667 -16.5 -47c0 -12.667 2.83301 -23 8.5 -31s12.5 -12 20.5 -12c12.667 0 27.667 5.33301 45 16s26 23.334 26 38.001z" />
    <glyph glyph-name="eight" unicode="8" horiz-adv-x="400" 
d="M362 95c-26.667 -32.667 -53.0029 -56.332 -79.0029 -70.999s-57 -22 -93 -22c-32.667 0 -67.5 14 -104.5 42s-55.5 58.667 -55.5 92c0 13.333 6 28.666 18 45.999l214 254l33 -86l-163 -200c-22.667 -27.333 -34 -45.333 -34 -54c0 -10 5.83301 -18.833 17.5 -26.5
s26.834 -11.5 45.501 -11.5c22.667 0 47.834 9.5 75.501 28.5s54.834 46.5 81.501 82.5z" />
    <glyph glyph-name="nine" unicode="9" horiz-adv-x="400" 
d="M348 9c0 -20 -15.334 -42.666 -46.001 -67.999l-72 57c22.667 15.333 34 27.333 34 36c0 7.33301 -6.66699 19.333 -20 36c-36 44.667 -88.667 105.667 -158 183c-20.667 22.667 -31 46.667 -31 72c0 30.667 12.667 56.5 38 77.5s56.333 31.5 93 31.5
c32.667 0 64.834 -13.833 96.501 -41.5s47.5 -57.834 47.5 -90.501c0 -30.667 -12.833 -56.834 -38.5 -78.501s-51.5 -32.5 -77.5 -32.5c-6.66699 0 -15 1 -25 3h2l123 -124c22.667 -25.333 34 -45.666 34 -60.999zM252.999 338.001c0 10 -3.16699 17.668 -9.5 23.001
s-14.5 8 -24.5 8c-22.667 0 -42.667 -8.66699 -60 -26s-26 -35.666 -26 -54.999c0 -13.333 4 -27.333 12 -42c32 3.33301 58 14.166 78 32.499s30 38.166 30 59.499z" />
    <glyph glyph-name="colon" unicode=":" horiz-adv-x="222" 
d="M197 261l-63 -63l-64 64l64 63zM187 59l-63 -64l-64 66l64 62z" />
    <glyph glyph-name="semicolon" unicode=";" horiz-adv-x="222" 
d="M218 261l-63 -63l-64 64l64 63zM218 52c0 -11.333 -8.33301 -28.6641 -25 -51.9971l-77 -109l-23 39c6.66699 7.33301 16.167 21.666 28.5 42.999s18.5 34.666 18.5 39.999c0 7.33301 -13.333 25.666 -40 54.999l69 61c20.667 -24 34 -40.667 40 -50s9 -18.333 9 -27z
" />
    <glyph glyph-name="less" unicode="&#x3c;" horiz-adv-x="205" 
d="M267 353h-135v-5l130 -118l1 -102c-32.667 -24 -59.667 -36 -81 -36c-23.333 0 -50.5 12 -81.5 36s-46.5 49.667 -46.5 77v148l-56 1l-40 69l267 1zM238 201l-106 93v-118c0 -16 7 -24 21 -24c20.667 0 49 16.333 85 49z" />
    <glyph glyph-name="equal" unicode="=" 
d="M-38 -103c-30.667 -13.333 -57.999 -20.001 -81.999 -20.001c-28.667 0 -54.334 10.333 -77.001 31s-34 43.667 -34 69c0 12.667 1.66699 22.5 5 29.5s12.833 14.833 28.5 23.5s39.5 16.667 71.5 24l76 -51c-88 -15.333 -132 -34.666 -132 -57.999
c0 -8.66699 6.66699 -13 20 -13c16.667 0 42 6.33301 76 19z" />
    <glyph glyph-name="greater" unicode="&#x3e;" 
d="M-62 121l-120 -91.999c15.333 -22.667 23 -40.667 23 -54c0 -4.66699 -2 -9.33398 -6 -14.001s-8.33301 -7 -13 -7c-18.667 0 -43.5 7.66699 -74.5 23s-46.5 29 -46.5 41c0 12.667 10 24.667 30 36l205 123z" />
    <glyph glyph-name="question" unicode="?" horiz-adv-x="320" 
d="M318 387c0 -30.667 -8.66797 -60.833 -26.001 -90.5s-58 -81.5 -122 -155.5l-55 57c54.667 62 92.167 108.667 112.5 140s30.5 58.333 30.5 81c0 14 -3.16699 24.667 -9.5 32s-13.833 11 -22.5 11c-25.333 0 -65.666 -18.667 -120.999 -56l-51 64
c63.333 37.333 110 56 140 56c28 0 55.667 -14.5 83 -43.5s41 -60.833 41 -95.5zM234.999 54.001l-63 -64l-64 66l64 62z" />
    <glyph glyph-name="at" unicode="@" 
d="M42 558c-31.333 -62.667 -73.001 -94.001 -125.001 -94.001c-55.333 0 -100.666 35.333 -135.999 106l26 24c26.667 -46.667 57 -70 91 -70c16.667 0 33.667 6.83301 51 20.5s31 32.834 41 57.501z" />
    <glyph glyph-name="A" unicode="A" horiz-adv-x="5" 
d="M-44 617v-200h-75v200h75z" />
    <glyph glyph-name="B" unicode="B" 
d="M-37 596l-53 -54l-53 54l53 55zM52 550c-14.667 -27.333 -32.667 -48.5 -54 -63.5s-44 -22.5 -68 -22.5c-28 0 -55.833 10 -83.5 30s-50.167 46 -67.5 78l27 22c30.667 -50 66 -75 106 -75c15.333 0 31.833 6.5 49.5 19.5s31.5 29.833 41.5 50.5z" />
    <glyph glyph-name="C" unicode="C" horiz-adv-x="344" 
d="M387 353h-87v-199c0 -20.667 -9.16699 -39.167 -27.5 -55.5s-39.833 -24.5 -64.5 -24.5c-27.333 0 -59.833 15.667 -97.5 47s-56.5 61.333 -56.5 90v142l-56 1l-40 69l387 1zM222 202l0.00195312 150.999h-90v-175c0 -10 3.16699 -18.5 9.5 -25.5
s15.166 -10.5 26.499 -10.5c15.333 0 28.166 5.33301 38.499 16s15.5 25.334 15.5 44.001z" />
    <glyph glyph-name="D" unicode="D" horiz-adv-x="346" 
d="M402 353l-56 1l-38 69l51 1zM404 256l-0.998047 -98c-10 -3.33301 -20 -5 -30 -5c-4.66699 0 -15.667 3.16699 -33 9.5s-29.333 11.833 -36 16.5l1 -1c6 -16.667 9 -31.334 9 -44.001c0 -28 -11.5 -51.833 -34.5 -71.5s-52.5 -29.5 -88.5 -29.5
c-32.667 0 -66 15.167 -100 45.5s-62.333 68.833 -85 115.5l30 19c18 -36 38 -63.667 60 -83s44 -29 66 -29c23.333 0 43.166 6.16699 59.499 18.5s24.5 27.5 24.5 45.5c0 20 -5.33301 38.333 -16 55c-20.667 -13.333 -50 -24.666 -88 -33.999
c-9.33301 10.667 -19.166 23.167 -29.499 37.5s-15.5 22.833 -15.5 25.5c0 6 7 10 21 12c36.667 5.33301 64.5 14.833 83.5 28.5s28.5 29.834 28.5 48.501c0 18 -10.667 27 -32 27c-26.667 1.33301 -67.334 -9.33398 -122.001 -32.001l-38 72
c46.667 19.333 82.667 29 108 29c33.333 0 67 -15.5 101 -46.5s51 -60.833 51 -89.5c0 -22.667 -11.667 -41.667 -35 -57c20 -18.667 39.667 -28 59 -28c15.333 0 31.166 5.16699 47.499 15.5s26.5 19.833 30.5 28.5z" />
    <glyph glyph-name="E" unicode="E" horiz-adv-x="7" 
d="M-19 652l-48 -49l-48 49l48 50zM60 610c-27.333 -50.667 -64.001 -76.001 -110.001 -76.001c-24.667 0 -49.5 9 -74.5 27s-45.167 41 -60.5 69l23 20c28 -44.667 60 -67 96 -67c14.667 0 29.834 5.83301 45.501 17.5s28.167 26.834 37.5 45.501z" />
    <glyph glyph-name="F" unicode="F" horiz-adv-x="312" 
d="M354 353l-84.999 0.000976562v-88c0 -14.667 -5.33301 -22 -16 -22l-131 1c-9.33301 -0.666992 -17 -4.66699 -23 -12s-9 -16 -9 -26c0 -14 4 -21 12 -21c1.33301 0 17.5 3.5 48.5 10.5s49.5 10.5 55.5 10.5c21.333 0 35.666 -5.33301 42.999 -16
c30 -45.333 45 -79.333 45 -102c0 -19.333 -14.5 -41 -43.5 -65s-60.833 -38 -95.5 -42l59 -96l-35 -21c-32.667 60.667 -51.667 94.334 -57 101.001c-6.66699 8.66699 -16.667 13 -30 13c-8.66699 0.666992 -17.834 3.66699 -27.501 9s-16.167 11.666 -19.5 18.999
c-2.66699 5.33301 -4 23.666 -4 54.999c0 7.33301 2.83301 13.833 8.5 19.5s11.834 8.5 18.501 8.5c19.333 0 34.333 -14.333 45 -43c34 2 62.667 12.333 86 31s35 34.667 35 48c0 6.66699 -4 10 -12 10c-3.33301 0 -16 -3.5 -38 -10.5s-38.333 -10.5 -49 -10.5
c-20.667 0 -42.667 15 -66 45s-35 58 -35 84c0 22.667 5.16699 40 15.5 52s22.5 17.333 36.5 16h110v42l-201 1l-40 69l357 1z" />
    <glyph glyph-name="G" unicode="G" horiz-adv-x="358" 
d="M403 353l-132.001 0.000976562c29.333 -39.333 44 -66.333 44 -81c0 -9.33301 -4.16699 -19 -12.5 -29s-19.166 -18.333 -32.499 -25c28 -18 47.167 -34 57.5 -48s15.5 -31 15.5 -51c0 -28.667 -11.333 -52.667 -34 -72s-49 -29 -79 -29
c-36.667 0 -70.167 12.167 -100.5 36.5s-61.833 65.166 -94.5 122.499l30 21c24 -42.667 46 -72 66 -88s42.667 -24 68 -24c20 0 36.833 6.33301 50.5 19s20.5 27 20.5 43c0 20 -14.667 38 -44 54c-29.333 -10.667 -52 -16 -68 -16c-9.33301 0 -18.666 4 -27.999 12
c-6 6 -13 15 -21 27s-12 20.333 -12 25c0 10.667 6 16 18 16h60c19.333 3.33301 36.166 9.5 50.499 18.5s21.5 18.167 21.5 27.5s-9.66699 23 -29 41l-220 1l-40 69l403 1z" />
    <glyph glyph-name="H" unicode="H" horiz-adv-x="198" 
d="M258 353h-125.999v-171c0 -16 7 -24 21 -24c11.333 0 26.833 6.16699 46.5 18.5s38.5 29.166 56.5 50.499v-96c-9.33301 -9.33301 -21.333 -17.166 -36 -23.499s-27.334 -9.5 -38.001 -9.5c-23.333 0 -50.5 11.833 -81.5 35.5s-46.5 49.167 -46.5 76.5v143l-52 1l-40 69
l254 1z" />
    <glyph glyph-name="I" unicode="I" horiz-adv-x="254" 
d="M313 214l-1 -83.002c-46 -44 -87.667 -66 -125 -66c-32.667 0 -63 15.667 -91 47s-42 60.666 -42 87.999c0 31.333 18.667 54 56 68v-2c-26.667 8.66699 -46.167 19.667 -58.5 33s-17.833 31.333 -16.5 54l-37 1l-40 69l301 1l43 -71l-174 1c-6 -4.66699 -9 -16 -9 -34
c0 -6 2.66699 -13.5 8 -22.5s12.666 -15.833 21.999 -20.5c22 4.66699 38.333 6.33398 49 5.00098c4.66699 -5.33301 11.334 -15.666 20.001 -30.999s13 -24.666 13 -27.999c0 -8 -5.33301 -12 -16 -12c-36 0 -62.5 -4.83301 -79.5 -14.5s-25.5 -22.167 -25.5 -37.5
c0 -7.33301 4.5 -13.5 13.5 -18.5s21.833 -7.5 38.5 -7.5c40.667 0 91 27 151 81z" />
    <glyph glyph-name="J" unicode="J" horiz-adv-x="226" 
d="M274 353l-276 1l-40 69l272 1zM300 127c-50 -38 -90.999 -57 -122.999 -57c-33.333 0 -65.333 15.5 -96 46.5s-46 62.5 -46 94.5c0 29.333 12.167 54.5 36.5 75.5s54.166 31.5 89.499 31.5c30 0 51.333 -4.33301 64 -13c23.333 -16 48.333 -43 75 -81v-97zM281.001 197
l0.000976562 7c-27.333 28.667 -61 43 -101 43c-20.667 0 -37.834 -7.33301 -51.501 -22s-20.5 -32.667 -20.5 -54c0 -12.667 3.5 -22.667 10.5 -30s16.167 -11 27.5 -11c12.667 0 33.667 7.5 63 22.5s53.333 29.833 72 44.5z" />
    <glyph glyph-name="K" unicode="K" horiz-adv-x="411" 
d="M469 154c-14.667 -9.33301 -33.833 -18.335 -57.5 -27.002s-42.167 -13 -55.5 -13c-29.333 0 -55.5 11.333 -78.5 34s-34.5 49.334 -34.5 80.001c0 24.667 11.167 47 33.5 67s48.5 30 78.5 30c26 0 47 -5 63 -15c5.33301 -3.33301 14.333 -11.666 27 -24.999
s19.667 -20.333 21 -21l2 -1zM472.001 43.998c-62 -38 -120.668 -57.002 -176.001 -57.002c-67.333 0 -146.666 59.667 -237.999 179c-15.333 18.667 -23 33.334 -23 44.001c0 6 3 12.833 9 20.5s12 11.5 18 11.5c4 0 11.5 -2.5 22.5 -7.5s18.167 -7.5 21.5 -7.5
c4.66699 0 7 4.33301 7 13v113l-115 1l-40 69l464 1l42 -71h-274v-126c0 -19.333 -4.5 -35.666 -13.5 -48.999s-23.5 -26.333 -43.5 -39c42.667 -56 95 -84 157 -84c20.667 0 49.5 6.5 86.5 19.5s68.167 27.5 93.5 43.5zM466 221.996c-25.333 25.333 -56 38 -92 38
c-19.333 0 -36 -6.66699 -50 -20s-21 -27.333 -21 -42c0 -19.333 9 -29 27 -29c11.333 0 33.833 6.66699 67.5 20s56.5 24.333 68.5 33z" />
    <glyph glyph-name="L" unicode="L" horiz-adv-x="274" 
d="M335 353l-56 1l-40 69l53 1zM333 218l-1 -103.002c-47.333 -38.667 -87.333 -58 -120 -58c-14 0 -31.667 4.66699 -53 14s-40.666 21.666 -57.999 36.999c-16 14.667 -31 30.167 -45 46.5s-21 25.833 -21 28.5c0 4.66699 11.667 10.667 35 18
c21.333 6.66699 41.333 16.334 60 29.001c-32 18.667 -55.5 36.334 -70.5 53.001s-22.5 35 -22.5 55c0 26.667 9.66699 49.334 29 68.001s43 28 71 28c31.333 0 61.333 -15.833 90 -47.5s43 -63.167 43 -94.5c0 -52.667 -42.667 -99 -128 -139c-6 -24 4.33301 -36 31 -36
c20.667 0 47.167 10 79.5 30s59.166 43.667 80.499 71zM206 330.998c0 25.333 -13.333 38 -40 38c-15.333 0 -27.833 -5.33301 -37.5 -16s-14.5 -23.667 -14.5 -39c0 -22.667 16 -43 48 -61c29.333 19.333 44 45.333 44 78z" />
    <glyph glyph-name="M" unicode="M" horiz-adv-x="311" 
d="M352 353l-97.001 -0.00390625c28.667 -31.333 43 -61.666 43 -90.999c0 -35.333 -13.167 -71.166 -39.5 -107.499s-61.166 -65.5 -104.499 -87.5l71 -103l-35 -21c-30.667 46.667 -50 78.334 -58 95.001c-6 8.66699 -14.333 13 -25 13c-6 0 -15 1.5 -27 4.5
s-20.667 6.5 -26 10.5c-12.667 12.667 -19 39.334 -19 80.001c0 8.66699 3.83301 16.167 11.5 22.5s16.167 9.5 25.5 9.5c10.667 0 22 -12.333 34 -37c4 -7.33301 8 -11 12 -11c16 0 39.667 18 71 54c-54 20 -90.667 39.167 -110 57.5s-29 38.5 -29 60.5
c0 19.333 6.33301 36.333 19 51l-71 1l-40 69l352 1zM224.999 287.996c0 24.667 -4.66699 42.667 -14 54s-20.333 17 -33 17s-23.167 -4.66699 -31.5 -14s-12.5 -22.333 -12.5 -39c0 -17.333 6.16699 -34.333 18.5 -51s29.5 -30.667 51.5 -42c14 18 21 43 21 75z" />
    <glyph glyph-name="N" unicode="N" horiz-adv-x="154" 
d="M273 353l-268 1l-40 69l263 1zM212 196c-12 -6.66699 -27.334 -10 -46.001 -10c-41.333 0 -77.666 8.83301 -108.999 26.5s-53 35.167 -65 52.5l19 25c38 -24.667 90.667 -37 158 -37h3h4h3h3h3h4h9z" />
    <glyph glyph-name="O" unicode="O" horiz-adv-x="261" 
d="M318 353l-54 1l-40 69l50 1zM319 212l-1.00098 -90c-18.667 -15.333 -40.5 -28.5 -65.5 -39.5s-47.167 -16.5 -66.5 -16.5c-35.333 0 -67.333 13.667 -96 41s-43 54 -43 80c0 36.667 24.333 61.334 73 74.001l-1 -2c-23.333 6 -43.166 17.667 -59.499 35
s-24.5 36 -24.5 56c0 23.333 8.66699 43.166 26 59.499s40 24.5 68 24.5c22 0 42.333 -7.33301 61 -22s28 -34 28 -58c0 -20 -8.83301 -36.5 -26.5 -49.5s-38.834 -18.167 -63.501 -15.5c2 -4.66699 6.33301 -8.33398 13 -11.001c8 -2.66699 19 -4 33 -4
c16 0 28.333 -1 37 -3l38 -68h-10.5h-15.5h-13c-26 0 -47.5 -2.66699 -64.5 -8s-28.333 -11.166 -34 -17.499s-8.5 -12.833 -8.5 -19.5c0 -18.667 21 -28 63 -28c20 0 44.833 8.33301 74.5 25s55.834 35.667 78.501 57zM178.999 352c0 9.33301 -3.66699 17.167 -11 23.5
s-16 9.5 -26 9.5s-19 -3.83301 -27 -11.5s-12 -18.167 -12 -31.5c0 -11.333 2 -19 6 -23c7.33301 -3.33301 16 -5 26 -5c12.667 0 23.167 3.66699 31.5 11s12.5 16.333 12.5 27z" />
    <glyph glyph-name="P" unicode="P" horiz-adv-x="323" 
d="M382 254l-0.996094 -93.998c-18 -11.333 -35 -17 -51 -17c-10 0 -32.667 6.66699 -68 20h1c6.66699 -7.33301 13.5 -18.5 20.5 -33.5s10.5 -28.833 10.5 -41.5c0 -19.333 -14.333 -41 -43 -65s-60.334 -38 -95.001 -42l58 -96l-34 -21
c-6.66699 11.333 -14.167 24.833 -22.5 40.5l-21.5 40c-6 11 -10.333 18.167 -13 21.5c-6.66699 8 -16.667 12 -30 12c-8.66699 0.666992 -17.834 3.66699 -27.501 9s-16.167 11.666 -19.5 18.999c-2.66699 5.33301 -4 23.666 -4 54.999c0 7.33301 2.66699 13.833 8 19.5
s11.666 8.5 18.999 8.5c19.333 0 34.333 -14.333 45 -43c34 2 62.5 12.333 85.5 31s34.5 34.667 34.5 48c0 6.66699 -4 10 -12 10c-2.66699 0 -15 -3.5 -37 -10.5s-38.333 -10.5 -49 -10.5c-20.667 0 -42.667 15 -66 45s-35 58 -35 84c0 22 5.16699 39.167 15.5 51.5
s22.166 17.833 35.499 16.5h111v42l-198 1l-40 69l370 1l42 -71h-101v-88c0 -14.667 -5.33301 -22 -16 -22l-132 1c-8.66699 -0.666992 -16.167 -4.66699 -22.5 -12s-9.5 -16 -9.5 -26c0 -14 4.33301 -21 13 -21c1.33301 0 17.333 3.5 48 10.5s49 10.5 55 10.5
c16.667 0 27.667 -3.66699 33 -11c18 -0.666992 40.833 3.5 68.5 12.5s52.5 24.5 74.5 46.5z" />
    <glyph glyph-name="Q" unicode="Q" 
d="M-13 559l-57 -56l-58 56l58 57zM-71 390l-58.002 -0.996094c-5.33301 6 -12.5 13.667 -21.5 23s-24.667 21.666 -47 36.999s-41.166 23 -56.499 23c-17.333 0 -29.666 -1 -36.999 -3c-17.333 43.333 -26 69 -26 77c0 6.66699 1.5 11 4.5 13s8.83301 3 17.5 3
c15.333 0 31 -6.33301 47 -19c52 -44 94.333 -90 127 -138h15c-6.66699 20.667 -18 47.667 -34 81c-26 56 -61.667 86.667 -107 92c-0.666992 4 -2 10 -4 18s-3.66699 15.167 -5 21.5s-2 10.5 -2 12.5c0 13.333 4.66699 20 14 20c8.66699 0 15.667 -0.333008 21 -1
s12.333 -2.83398 21 -6.50098s17 -9.83398 25 -18.501s15.667 -20.334 23 -35.001z" />
    <glyph glyph-name="R" unicode="R" 
d="M-93 419l-34.999 -0.00292969c-14.667 71.333 -43.334 111 -86.001 119c-22.667 4.66699 -39.5 -2.16602 -50.5 -20.499s-11.5 -41.166 -1.5 -68.499l-44 -6c-8 8.66699 -15.333 20.834 -22 36.501s-10 28.5 -10 38.5c0 25.333 8.83301 47 26.5 65
s42.834 24.667 75.501 20c34 -4 65.167 -25.167 93.5 -63.5s46.166 -78.5 53.499 -120.5zM-12.999 558.997l-57 -56l-58 56l58 57z" />
    <glyph glyph-name="S" unicode="S" horiz-adv-x="372" 
d="M422 353h-105v-202c0 -20 -3.16699 -33.833 -9.5 -41.5s-16.5 -11.5 -30.5 -11.5c-16.667 0 -38.667 5.33301 -66 16l-30 54c12 -1.33301 23 -2 33 -2c16.667 0 25 12.333 25 37v150h-107v-209c0 -11.333 4.16699 -22.5 12.5 -33.5s26.166 -24.833 53.499 -41.5l179 -109
c24.667 -14 37 -32 37 -54c0 -17.333 -11.333 -38.333 -34 -63l-68 50c8.66699 11.333 13 22 13 32c0 11.333 -6.66699 21.666 -20 30.999c-7.33301 4.66699 -44.666 26.834 -111.999 66.501s-103.333 61.167 -108 64.5c-20.667 14 -31 30.333 -31 49v217l-56 1l-40 69
l422 1z" />
    <glyph glyph-name="T" unicode="T" horiz-adv-x="504" 
d="M554 353l-283.002 0.00292969c29.333 -39.333 44 -66.333 44 -81c0 -9.33301 -4.16699 -19 -12.5 -29s-19.166 -18.333 -32.499 -25l21 -14c38.667 33.333 69.667 50 93 50c24 0 47.167 -14.333 69.5 -43s33.5 -57.334 33.5 -86.001c0 -14.667 -4.66699 -35 -14 -61
s-18.666 -46.667 -27.999 -62l-68 52c10.667 16 20.834 35.667 30.501 59s14.5 40.666 14.5 51.999c0 19.333 -5 29 -15 29c-4.66699 0 -15.5 -5.5 -32.5 -16.5s-28.833 -20.833 -35.5 -29.5c2.66699 -8 4 -17.667 4 -29c0 -28.667 -11.333 -52.667 -34 -72s-49 -29 -79 -29
c-36.667 0 -70.167 12.167 -100.5 36.5s-61.833 65.166 -94.5 122.499l30 21c24 -42.667 46 -72 66 -88s42.667 -24 68 -24c20 0 36.833 6.33301 50.5 19s20.5 27 20.5 43c0 20 -14.667 38 -44 54c-29.333 -10.667 -52 -16 -68 -16c-12 0 -21.333 4 -28 12
c-6 6 -13 15 -21 27s-12 20.333 -12 25c0 10.667 6 16 18 16h60c19.333 3.33301 36.166 9.5 50.499 18.5s21.5 18.167 21.5 27.5s-9.66699 23 -29 41l-219 1l-40 69l552 1z" />
    <glyph glyph-name="U" unicode="U" horiz-adv-x="497" 
d="M548 353l-142 0.00195312v-65c23.333 -10.667 42 -27.334 56 -50.001c11.333 -20.667 17 -46 17 -76c0 -38 -12.333 -70.5 -37 -97.5s-52.667 -40.5 -84 -40.5c-19.333 0 -36 4.66699 -50 14s-29.333 26 -46 50c-22.667 -42.667 -54 -64 -94 -64
c-34.667 0 -65.5 14.667 -92.5 44s-40.5 62.666 -40.5 99.999c0 38 12 69.333 36 94s53.667 37 89 37c42 0 74.667 -19 98 -57c22 31.333 45.333 49 70 53v58l-331 1l-40 69l549 1zM419 194.002c0 30.667 -13 46 -39 46c-15.333 0 -30.833 -8.83301 -46.5 -26.5
s-33.5 -48.834 -53.5 -93.501c9.33301 -11.333 17.833 -18.833 25.5 -22.5s18.167 -5.5 31.5 -5.5c21.333 0 40.333 10.333 57 31s25 44.334 25 71.001zM241 213.002c-4.66699 4.66699 -12.334 8.83203 -23.001 12.499s-20 5.5 -28 5.5c-23.333 0 -45 -10.833 -65 -32.5
s-30 -43.5 -30 -65.5c0 -14.667 4.33301 -26.5 13 -35.5s20.334 -13.5 35.001 -13.5c14 0 27.833 8.33301 41.5 25s32.5 51.334 56.5 104.001z" />
    <glyph glyph-name="V" unicode="V" horiz-adv-x="266" 
d="M337 353l-338 1l-63 70h337zM323 147l-126.003 -68c8.66699 -26 13 -44.667 13 -56c0 -6 -2.33301 -11 -7 -15s-10 -6 -16 -6c-13.333 0 -35.166 9.66699 -65.499 29s-45.5 36 -45.5 50c0 12 4.66699 20.333 14 25l173 88c-10.667 12 -24.667 21.667 -42 29
s-33.666 11 -48.999 11c-17.333 0 -29.666 -0.666992 -36.999 -2c-2.66699 -18.667 -5.33398 -31.667 -8.00098 -39c-3.33301 -13.333 -11.666 -20 -24.999 -20c-9.33301 0 -22.833 13.5 -40.5 40.5s-26.5 46.5 -26.5 58.5c0 24.667 21.333 37 64 37
c48 0 85.333 -6.66699 112 -20s64 -45 112 -95v-47z" />
    <glyph glyph-name="W" unicode="W" 
d="M-22 567l-57 -56l-59 56l58 57zM-91 416l-24.001 -12c-32.667 64 -59 105.667 -79 125c-11.333 11.333 -24.666 17 -39.999 17c-19.333 0 -35 -2 -47 -6c-23.333 41.333 -35 65.333 -35 72c0 12 15 18 45 18c24.667 0 47.667 -9.33301 69 -28
c23.333 -21.333 60.333 -83.333 111 -186z" />
    <glyph glyph-name="X" unicode="X" horiz-adv-x="6" 
d="M-66 424v193h76v-193h17l43 -71h-231l-40 71h135zM-90 528l-52 -51l-52 52l52 51z" />
    <glyph glyph-name="Y" unicode="Y" horiz-adv-x="306" 
d="M366 353l-95 1l-40 69l92 1zM364 134h-138.003c-0.666992 -21.333 -2.66699 -36 -6 -44s-9.66602 -12 -18.999 -12c-13.333 0 -34.166 13.667 -62.499 41s-42.5 48 -42.5 62c0 16.667 8.33301 25 25 25h38l4 32c-42.667 10 -74.667 25.167 -96 45.5s-32 42.833 -32 67.5
c0 22.667 7.83301 42.167 23.5 58.5s36.5 24.5 62.5 24.5c38.667 0 67.334 -14.333 86.001 -43s28 -58.667 28 -90c0 -38 -1 -69.667 -3 -95l130 -1zM168.997 339c0.666992 15.333 -2.16797 26.833 -8.50098 34.5s-13.166 11.5 -20.499 11.5c-8 0 -16.167 -5 -24.5 -15
s-12.5 -20.667 -12.5 -32c0 -32 21 -52.333 63 -61z" />
    <glyph glyph-name="Z" unicode="Z" horiz-adv-x="6" 
d="M-98 424l0.00390625 224.999h75v-225h16l42 -71h-230l-40 71h23c-35.333 46 -54 89.333 -56 130c-2 31.333 4.66699 55.666 20 72.999s34.666 25.333 57.999 24c29.333 -1.33301 54.666 -14 75.999 -38l-15 -31c-20.667 12.667 -39.334 13.167 -56.001 1.5
s-25 -32.167 -25 -61.5c0 -11.333 3.16699 -26.666 9.5 -45.999s15.166 -36.666 26.499 -51.999h76z" />
    <glyph glyph-name="bracketleft" unicode="[" horiz-adv-x="419" 
d="M466 353l-109.998 0.000976562v-87c0 -14.667 -5.33301 -22 -16 -22h-134c-29.333 0 -44 -12.667 -44 -38c0 -12.667 6.33301 -19.667 19 -21c2.66699 0 21.667 3 57 9s56.666 9 63.999 9c14.667 0 26 -2.83301 34 -8.5s18.333 -18.5 31 -38.5
c19.333 -29.333 29 -51.333 29 -66c0 -24.667 -11 -47.167 -33 -67.5s-47.667 -30.5 -77 -30.5c-44.667 0 -85 9.66699 -121 29s-79.667 55.666 -131 108.999l32 25c56.667 -63.333 113.667 -95 171 -95c27.333 0 50.666 7.16699 69.999 21.5s29 27.833 29 40.5
c0 6.66699 -5.66699 10 -17 10c-6.66699 0 -23.334 -3 -50.001 -9s-45 -9 -55 -9c-23.333 0 -48.666 16.333 -75.999 49s-41 61.334 -41 86.001c0 19.333 6.16699 34.666 18.5 45.999s30.5 17 54.5 17h113v41l-285 1l-40 69l465 1z" />
    <glyph glyph-name="backslash" unicode="\" horiz-adv-x="87" 
d="M1 424v225h75v-225h16l42 -70l-182 -1l-40 71h89z" />
    <glyph glyph-name="bracketright" unicode="]" 
d="M146 16l-64 -64l-64 66l64 62z" />
    <glyph glyph-name="asciicircum" unicode="^" 
d="M21 -150l-30.999 -22l-74 102l-100 -88l-44 53l118 102c5.33301 4.66699 10.666 7 15.999 7s12.333 -6.66699 21 -20z" />
    <glyph glyph-name="underscore" unicode="_" horiz-adv-x="326" 
d="M370 353l-372 1l-40 69l369 1zM384 230l-1.99902 -75.0029c-28 -3.33301 -48.333 -4.66602 -61 -3.99902c-5.33301 -24.667 -17.833 -45.167 -37.5 -61.5s-43.5 -24.5 -71.5 -24.5c-59.333 0 -118.333 44.333 -177 133l27 20c24.667 -32.667 46 -55 64 -67
s36.333 -18 55 -18c22.667 0 42.334 7.83301 59.001 23.5s25 33.834 25 54.501c0 11.333 -2.83301 20.5 -8.5 27.5s-11.834 10.5 -18.501 10.5c-18.667 0 -40.334 -16.667 -65.001 -50l-56 71c26.667 22.667 52 34 76 34c30 0 55.5 -9.66699 76.5 -29
s35.833 -39.666 44.5 -60.999c12 0 35.333 5.33301 70 16z" />
    <glyph glyph-name="grave" unicode="`" horiz-adv-x="222" 
d="M97 423l-42 -83l-43 40c-11.333 11.333 -17 21.666 -17 30.999c0 18.667 19.667 74.334 59 167.001l28 -35c-13.333 -42 -20 -68.333 -20 -79c0 -9.33301 3 -16 9 -20z" />
    <glyph glyph-name="a" unicode="a" horiz-adv-x="5" 
d="M-104 516l-40 -42l-44 41l42 42zM-91 424l0.000976562 224.999h75v-225h16l42 -71h-230l-40 71h23c-34 44.667 -52.667 88 -56 130c-2 31.333 4.66699 55.666 20 72.999s35 25.333 59 24c28.667 -1.33301 53.667 -14 75 -38l-15 -31
c-20.667 12.667 -39.334 13.167 -56.001 1.5s-25 -32.167 -25 -61.5c0 -11.333 3.33301 -26.666 10 -45.999s15.667 -36.666 27 -51.999h75z" />
    <glyph glyph-name="b" unicode="b" 
d="M-26 528l-63 -63l-64 64l63 63z" />
    <glyph glyph-name="c" unicode="c" horiz-adv-x="224" 
d="M283 353h-127v-145l125 -1l1 -69l-126 -1v-34c0 -13.333 -7.66699 -20 -23 -20c-12 0 -31.333 14.333 -58 43s-40 50 -40 64c0 13.333 7.33301 20 22 20h21v143h-79l-40 71h282z" />
    <glyph glyph-name="d" unicode="d" 
d="M139 -151l-28.001 -30c-20 23.333 -41.667 45.666 -65 66.999c-16 15.333 -30.167 26.5 -42.5 33.5s-27.166 10.5 -44.499 10.5c-14 0 -32.333 -2 -55 -6c-22 32.667 -36.333 58.334 -43 77.001c16 2 29.667 3 41 3c39.333 0 71.333 -10.667 96 -32
c81.333 -69.333 128.333 -110.333 141 -123z" />
    <glyph glyph-name="e" unicode="e" horiz-adv-x="184" 
d="M230 353h-98v-363l-75 54v309h-58l-40 71h228z" />
    <glyph glyph-name="f" unicode="f" 
d="M210 473l-16.001 -31.002c-64.667 58.667 -124 88 -178 88c-25.333 0 -44.666 -7.66699 -57.999 -23s-20 -35.666 -20 -60.999c0 -16 0.333008 -25.333 1 -28l-42 1c-17.333 28.667 -26 56.334 -26 83.001c0 30 10.333 53.5 31 70.5s48.334 25.5 83.001 25.5
c32 0 70.667 -13.833 116 -41.5s81.666 -55.5 108.999 -83.5z" />
    <glyph glyph-name="g" unicode="g" 
d="M-16 -83c-1.33301 -25.333 -11.832 -45.667 -31.499 -61s-45.834 -23 -78.501 -23c-36 0 -72.667 10.167 -110 30.5s-70 47.5 -98 81.5l27 27c18.667 -25.333 42.834 -46.833 72.501 -64.5s54.167 -26.5 73.5 -26.5c42.667 0 72 11.333 88 34
c11.333 15.333 10 27.333 -4 36c-2.66699 1.33301 -5.66699 2.33301 -9 3c-6 2 -15.333 -0.333008 -28 -7s-24.667 -16.334 -36 -29.001l-57 52c25.333 22.667 53.5 34 84.5 34s56.667 -8.66699 77 -26s30.166 -37.666 29.499 -60.999z" />
    <glyph glyph-name="h" unicode="h" horiz-adv-x="198" 
d="M262 353h-129.999v-171c0 -16 7 -24 21 -24c11.333 0 27 6.16699 47 18.5s39.333 29.166 58 50.499l-2 -96c-9.33301 -9.33301 -21.333 -17.166 -36 -23.499s-27.334 -9.5 -38.001 -9.5c-23.333 0 -50.5 11.833 -81.5 35.5s-46.5 49.167 -46.5 76.5v143h-56l-40 71h262z
" />
    <glyph glyph-name="i" unicode="i" horiz-adv-x="225" 
d="M269 353h-90.999v-198c0 -26 -9.33301 -39 -28 -39c-8.66699 0 -30 13.667 -64 41s-51 49 -51 65c0 4 2.66699 8.5 8 13.5s10.666 7.5 15.999 7.5h41v110h-103l-40 71h269z" />
    <glyph glyph-name="j" unicode="j" horiz-adv-x="272" 
d="M322 353l-128 0.000976562v-139c0 -28 -17.333 -54.333 -52 -79c14.667 -22 49.334 -61 104.001 -117l-32 -32l-136 168c-28.667 35.333 -43 58.666 -43 69.999c-1.33301 5.33301 1 11.333 7 18s12 10 18 10c7.33301 0 17.166 -3.33301 29.499 -10s20.5 -10 24.5 -10
c4.66699 0 7 4.33301 7 13v108l-123 1l-40 69l321 1z" />
    <glyph glyph-name="k" unicode="k" horiz-adv-x="211" 
d="M274 353h-276l-40 71h273zM269 105c-12 -10 -26.332 -19.002 -42.999 -27.002s-31.334 -12 -44.001 -12c-33.333 0 -66.166 14.333 -98.499 43s-48.5 58.334 -48.5 89.001s11.167 56.834 33.5 78.501s51.166 32.5 86.499 32.5c25.333 0 45.666 -5 60.999 -15
c16.667 -10 33.334 -31.333 50.001 -64zM268.001 188.998c-12 16 -26.5 28.832 -43.5 38.499s-32.167 14.5 -45.5 14.5c-19.333 0 -36.666 -8.16699 -51.999 -24.5s-23 -34.166 -23 -53.499c0 -14 3.16699 -25.167 9.5 -33.5s13.833 -12.5 22.5 -12.5
c10 0 31.167 9.16699 63.5 27.5s55.166 32.833 68.499 43.5z" />
    <glyph glyph-name="l" unicode="l" horiz-adv-x="198" 
d="M262 353l-264 1l-40 69l260 1zM257 222h-83c-44 0 -66 -22.667 -66 -68c0 -36.667 23 -80.667 69 -132l-34 -25c-42 59.333 -70.5 103.333 -85.5 132s-22.5 55 -22.5 79c0 23.333 9.66699 43.5 29 60.5s47 25.5 83 25.5l108 -1z" />
    <glyph glyph-name="m" unicode="m" horiz-adv-x="276" 
d="M336 353l-145 0.000976562v-137c17.333 -4.66699 36.333 -7 57 -7c8.66699 0 23.667 3.33301 45 10s34.333 13 39 19l1 -84c-21.333 -10.667 -46 -16 -74 -16c-20 0 -44.333 13 -73 39c-4 -6 -8.5 -11.833 -13.5 -17.5s-9.5 -10.334 -13.5 -14.001l-14.5 -13
c-5.66699 -5 -9.5 -8.5 -11.5 -10.5c18.667 -25.333 54 -65.333 106 -120l-34 -33l-135 177c-23.333 34 -35 59.333 -35 76c0 8 3.5 15 10.5 21s14.167 9 21.5 9c6.66699 0 15.167 -3.83301 25.5 -11.5s16.5 -11.5 18.5 -11.5s3 2.66699 3 8v116l-116 1l-40 69l336 1z" />
    <glyph glyph-name="n" unicode="n" horiz-adv-x="336" 
d="M385 353l-123.002 -0.000976562v-88c0 -14.667 -5.33301 -22 -16 -22h-104c-29.333 0 -44 -10.333 -44 -31c0 -11.333 4 -20 12 -26c23.333 14.667 51 22 83 22c22.667 0 39.834 -3 51.501 -9s25.5 -19.667 41.5 -41c18 -22.667 27 -42.667 27 -60
c0 -22 -7.33301 -41.667 -22 -59s-30.667 -26 -48 -26l-44 65c36 12.667 54 32.667 54 60c0 3.33301 -2.33301 6.66602 -7 9.99902s-9.66699 5 -15 5c-29.333 0 -55 -8.5 -77 -25.5s-33 -36.167 -33 -57.5c0 -26 12.5 -48.167 37.5 -66.5s68.833 -34.833 131.5 -49.5
l-16 -32c-75.333 16.667 -132.666 39.834 -171.999 69.501s-59 61.834 -59 96.501c0 27.333 11.667 53 35 77c-11.333 12.667 -21.5 28 -30.5 46s-13.5 32.667 -13.5 44c0 37.333 24 56 72 56h83v42l-195 1l-40 69l388 1z" />
    <glyph glyph-name="o" unicode="o" horiz-adv-x="360" 
d="M403 353l-88.999 -0.000976562v-108c0 -14.667 -5.33301 -22 -16 -22h-136c-18.667 0 -33.667 -6.16699 -45 -18.5s-17 -29.166 -17 -50.499c0 -24 7.83301 -42.667 23.5 -56s31.5 -20 47.5 -20c12.667 0 24.334 2.83301 35.001 8.5s16 10.834 16 15.501
c0 2.66699 -2 7.66699 -6 15s-6 15.333 -6 24c0 4.66699 2.83301 9.5 8.5 14.5s12.167 7.5 19.5 7.5c13.333 0 32.166 -9.16699 56.499 -27.5s36.5 -34.833 36.5 -49.5c0 -16.667 -9.66699 -31.334 -29 -44.001l61 -106l-38 -19l-57 109
c-10.667 -5.33301 -27.334 -8 -50.001 -8c-48 0 -90.5 17.5 -127.5 52.5s-55.5 79.5 -55.5 133.5c0 58 33.667 87 101 87h105v62l-247 1l-40 69l407 1z" />
    <glyph glyph-name="p" unicode="p" horiz-adv-x="304" 
d="M362 353l-364 1l-40 69l361 1zM361 226l-110.001 -1c36.667 -43.333 55 -76.333 55 -99c0 -16.667 -6.66699 -31.667 -20 -45s-32.666 -20 -57.999 -20c-36 0 -70.667 17 -104 51s-63.333 83 -90 147l30 16c42.667 -90 84 -135 124 -135c12 0 22 3 30 9s12 13.333 12 22
c0 22 -23 57.333 -69 106l8 19l191 -1z" />
    <glyph glyph-name="q" unicode="q" 
d="M378 467l-23.998 -22.999c-39.333 22.667 -85.333 43 -138 61s-100.334 29.667 -143.001 35c-40.667 4.66699 -73.334 -1.83301 -98.001 -19.5s-37 -39.834 -37 -66.501c0 -20 0.666992 -32 2 -36l-42 1c-18.667 24.667 -28 51.667 -28 81c0 36.667 15 63.5 45 80.5
s71.667 22.833 125 17.5c48.667 -4.66699 107.167 -21 175.5 -49s122.5 -55.333 162.5 -82z" />
    <glyph glyph-name="r" unicode="r" 
d="M-93 419l-34.999 -0.00292969c-14.667 71.333 -43.334 111 -86.001 119c-22.667 4.66699 -39.5 -2.16602 -50.5 -20.499s-11.5 -41.166 -1.5 -68.499l-44 -6c-8 8.66699 -15.333 20.834 -22 36.501s-10 28.5 -10 38.5c0 25.333 8.83301 47 26.5 65
s42.834 24.667 75.501 20c34 -4 65.167 -25.167 93.5 -63.5s46.166 -78.5 53.499 -120.5z" />
    <glyph glyph-name="s" unicode="s" 
d="M-91 416l-24.001 -12c-32.667 64 -59 105.667 -79 125c-11.333 11.333 -24.666 17 -39.999 17c-19.333 0 -35 -2 -47 -6c-23.333 41.333 -35 65.333 -35 72c0 12 15 18 45 18c24.667 0 47.667 -9.33301 69 -28c23.333 -21.333 60.333 -83.333 111 -186z" />
    <glyph glyph-name="t" unicode="t" 
d="M68 -135l-29 -26.001c-58 74.667 -109.667 112 -155 112c-16.667 0 -32.334 -4.66699 -47.001 -14s-22 -21.333 -22 -36c0 -7.33301 2.83301 -13.166 8.5 -17.499s11.834 -6.5 18.501 -6.5c4.66699 0 12.5 4 23.5 12s19.5 16.333 25.5 25l43 -56
c-7.33301 -8 -15 -13.833 -23 -17.5s-14.833 -5.83398 -20.5 -6.50098s-14.5 -1 -26.5 -1c-24.667 0 -49 9 -73 27s-36 40 -36 66c0 24 9 42.333 27 55s41.333 19 70 19c20 0 38.5 -2 55.5 -6s40.5 -16.667 70.5 -38s60 -51.666 90 -90.999z" />
    <glyph glyph-name="u" unicode="u" horiz-adv-x="322" 
d="M379 353l-381 1l-40 69l378 1zM382 229c-6 1.33301 -12.999 1.99902 -20.999 1.99902c-46.667 0 -81 -31.333 -103 -94l-62 41c2.66699 12.667 7.66699 26 15 40c-10 16 -25.333 24 -46 24c-18 0 -32.833 -7.16699 -44.5 -21.5s-17.5 -31.833 -17.5 -52.5
c0 -23.333 9 -46.166 27 -68.499s46.667 -48.833 86 -79.5l-40 -34c-94 87.333 -141 159.333 -141 216c0 30 10.333 56 31 78s44 33 70 33c31.333 0 63.333 -21 96 -63c25.333 30.667 50.666 46 75.999 46c9.33301 0 21.5 -3.16699 36.5 -9.5s26.833 -13.5 35.5 -21.5z" />
    <glyph glyph-name="v" unicode="v" horiz-adv-x="192" 
d="M255 353l-258 1l-40 69l255 1zM255 210h-98c-8 0 -12 -4 -12 -12v-29c0 -14 -9 -21 -27 -21c-10.667 0 -27.167 14.5 -49.5 43.5s-33.5 51.167 -33.5 66.5c0 6 2.33301 11.5 7 16.5s10 7.5 16 7.5l196 -1z" />
    <glyph glyph-name="w" unicode="w" 
d="M-71 390l-58.002 -0.996094c-5.33301 6 -12.5 13.667 -21.5 23s-24.667 21.666 -47 36.999s-41.166 23 -56.499 23c-17.333 0 -29.666 -1 -36.999 -3c-17.333 43.333 -26 69 -26 77c0 6.66699 1.5 11 4.5 13s8.83301 3 17.5 3c15.333 0 31 -6.33301 47 -19
c52 -44 94.333 -90 127 -138h15c-6.66699 20.667 -18 47.667 -34 81c-26 56 -61.667 86.667 -107 92c-0.666992 4 -2 10 -4 18s-3.66699 15.167 -5 21.5s-2 10.5 -2 12.5c0 13.333 4.66699 20 14 20c8.66699 0 15.667 -0.333008 21 -1s12.333 -2.83398 21 -6.50098
s17 -9.83398 25 -18.501s15.667 -20.334 23 -35.001z" />
    <glyph glyph-name="x" unicode="x" 
d="M-30 424v225h75v-225h16l41 -70l-205 -1l-40 71h113zM-44 550c-19.333 -57.333 -54.667 -86.002 -106 -86.002c-29.333 0 -55.5 9.33301 -78.5 28s-39.167 45.334 -48.5 80.001l27 22c5.33301 -25.333 15.5 -44.166 30.5 -56.499s32.167 -18.5 51.5 -18.5
c17.333 0 33.833 6.16699 49.5 18.5s24.167 29.5 25.5 51.5zM-121.001 591.998l-51 -51l-52 52l51 51z" />
    <glyph glyph-name="y" unicode="y" horiz-adv-x="248" 
d="M310 353l-308 1l-40 69l304 1zM306 111c-40 -28 -80.667 -42 -122 -42c-44.667 0 -80.667 15.333 -108 46s-41 64 -41 100c0 29.333 11.833 54.5 35.5 75.5s56.167 31.5 97.5 31.5c31.333 0 57 -5 77 -15s38 -27.667 54 -53h6zM277 218
c0 12 -5.83301 22.332 -17.5 30.999s-25.834 13 -42.501 13c-17.333 0 -31.666 -2 -42.999 -6l61 -103c28 16.667 42 38.334 42 65.001zM199 133.999l-61 104c-12 -6 -22.167 -15.5 -30.5 -28.5s-12.5 -25.167 -12.5 -36.5c0 -14.667 4.83301 -26.5 14.5 -35.5
s24.167 -13.5 43.5 -13.5c14 0 29.333 3.33301 46 10z" />
    <glyph glyph-name="z" unicode="z" 
d="M-63 -6l-2 -52l-177 -147l-62 51z" />
    <glyph glyph-name="braceleft" unicode="{" horiz-adv-x="377" 
d="M429 353l-104.002 -0.00195312v-92c0 -14.667 -5.33301 -22 -16 -22h-131c-23.333 0 -42.166 -8.5 -56.499 -25.5s-21.5 -36.167 -21.5 -57.5c0 -20.667 5.16699 -37.167 15.5 -49.5s27.833 -22.833 52.5 -31.5c-5.33301 29.333 -8 50.333 -8 63c0 20.667 8 39 24 55
s37 24 63 24c38.667 0 66.334 -12.667 83.001 -38c5.33301 -7.33301 11.833 -20.666 19.5 -39.999s11.5 -34.333 11.5 -45c0 -22 -10.333 -42.833 -31 -62.5s-48.667 -29.5 -84 -29.5c-57.333 0 -106.833 21.833 -148.5 65.5s-62.5 89.834 -62.5 138.501
c0 30 11.167 54.333 33.5 73s50.5 28 84.5 28h99v46l-254 1l-40 69l428 1zM311.998 133.998c0 12 -13.667 18 -41 18c-18 0 -33.5 -8.5 -46.5 -25.5s-18.5 -35.833 -16.5 -56.5c26 -2 49.833 4.33301 71.5 19s32.5 29.667 32.5 45z" />
    <glyph glyph-name="braceright" unicode="}" horiz-adv-x="485" 
d="M536 353h-158v-51c27.333 -6.66699 49.333 -22 66 -46s25 -51.333 25 -82c0 -27.333 -8.33301 -54.833 -25 -82.5s-39 -50.834 -67 -69.501l-60 54c28 20.667 50.5 44 67.5 70s25.167 48.667 24.5 68c0 12.667 -3.33301 22.5 -10 29.5s-14.334 10.5 -23.001 10.5
c-20 0 -40.333 -12 -61 -36s-37 -53.333 -49 -88l-63 40c4.66699 16 10 29.667 16 41c-16.667 20.667 -34.667 31 -54 31c-18 0 -32.833 -7.16699 -44.5 -21.5s-17.5 -31.833 -17.5 -52.5c0 -23.333 9 -46.166 27 -68.499s46.667 -48.833 86 -79.5l-40 -34
c-94 87.333 -141 159.333 -141 216c0 30 10.333 56 31 78s44 33 70 33c30 0 65 -22.333 105 -67c7.33301 10.667 16.333 20.667 27 30s21.334 15.333 32.001 18v59l-304 1l-40 69l538 1z" />
    <glyph glyph-name="asciitilde" unicode="~" horiz-adv-x="304" 
d="M226 -10l-79 54l1 389l76 -51z" />
    <glyph glyph-name="uni007F" horiz-adv-x="378" 
d="M152 -10l-79 54l1 389l76 -51zM302 -10l-79 54l1 389l76 -51z" />
    <glyph glyph-name="nbspace" unicode="&#xa0;" horiz-adv-x="400" 
 />
    <glyph glyph-name="exclamdown" unicode="&#xa1;" horiz-adv-x="414" 
d="M471 158c-14 -8.66699 -33.3311 -17.501 -57.998 -26.501s-43.667 -13.5 -57 -13.5c-29.333 0 -55.5 11.333 -78.5 34s-34.5 49.667 -34.5 81c0 24.667 11.167 47 33.5 67s48.5 30 78.5 30c23.333 0 44.333 -5 63 -15c5.33301 -3.33301 14.666 -11.666 27.999 -24.999
s20.666 -20.333 21.999 -21l2 -1zM472.002 59.999l-293.999 -118l-58 55l88 32c-48 25.333 -98 72.333 -150 141c-15.333 20 -23 34.667 -23 44c0 6 3 13 9 21s12 12 18 12c4 0 11.5 -2.5 22.5 -7.5s18.167 -7.5 21.5 -7.5c4.66699 0 7 4.33301 7 13v108h-115l-40 71h466
l42 -71h-276v-121c0 -20 -4.5 -36.5 -13.5 -49.5s-23.5 -25.833 -43.5 -38.5c21.333 -28 43.666 -47.333 66.999 -58s52 -16 86 -16c20.667 0 49.667 6.66699 87 20s70.333 29.333 99 48v-78zM466.003 226.999c-26.667 25.333 -57.333 38.001 -92 38.001
c-19.333 0 -36 -6.83301 -50 -20.5s-21 -27.834 -21 -42.501c0 -18.667 9 -28 27 -28c11.333 0 33.833 6.66699 67.5 20s56.5 24.333 68.5 33z" />
    <glyph glyph-name="cent" unicode="&#xa2;" horiz-adv-x="338" 
d="M398 353l-108.002 0.00195312v-88c0 -14.667 -5.33301 -22 -16 -22h-131c-16 0 -27.167 -2.33301 -33.5 -7s-9.5 -12.667 -9.5 -24s3.66699 -20 11 -26c26.667 16.667 63.667 25 111 25c20 0 40.333 -12.167 61 -36.5s31 -42.5 31 -54.5c0 -10.667 -19 -27.667 -57 -51
c-6 -4 -9 -9 -9 -15c0 -8 8 -12 24 -12c12 0 30.667 7.5 56 22.5s48.333 32.833 69 53.5l-2 -84c-32 -31.333 -61.333 -47 -88 -47c-24.667 0 -51.167 10.667 -79.5 32s-47.5 45 -57.5 71c18.667 11.333 37.334 23.666 56.001 36.999s28 22 28 26s-1.5 7.33301 -4.5 10
s-6.16699 4 -9.5 4c-30.667 0 -58 -11.5 -82 -34.5s-36 -43.833 -36 -62.5c0 -55.333 54 -98 162 -128l-18 -36c-147.333 50.667 -221 110.667 -221 180c0 28.667 11.667 54.667 35 78c-11.333 13.333 -21.666 29.166 -30.999 47.499s-14 32.833 -14 43.5
c0 37.333 24 56 72 56h111v42l-220 1l-40 69l398 1z" />
    <glyph glyph-name="sterling" unicode="&#xa3;" horiz-adv-x="422" 
d="M470 353l-132.999 -0.00292969v-87c0 -6.66699 -1.83301 -12.167 -5.5 -16.5s-7.83398 -6.5 -12.501 -6.5h-145c-16 0 -27.167 -2.33301 -33.5 -7s-9.5 -12.667 -9.5 -24c0 -4 1.66699 -8.66699 5 -14c24 10.667 55 16 93 16c42 0 79.667 -8 113 -24
c16.667 -7.33301 30.5 -17.833 41.5 -31.5s16.5 -26.5 16.5 -38.5v-218l-73 51l3 21c-32 -16 -58 -24 -78 -24s-40.333 9.83301 -61 29.5s-31 40.167 -31 61.5c0 22.667 9.5 42.334 28.5 59.001s40.833 25 65.5 25c18 0 31.333 -2.33301 40 -7
c3.33301 -1.33301 7.16602 -3.66602 11.499 -6.99902s9 -7.5 14 -12.5s9.16699 -8.83301 12.5 -11.5v53c0 6.66699 -5.66699 12.667 -17 18s-24.666 8 -39.999 8c-54 0 -94.667 -12.833 -122 -38.5s-41 -57.167 -41 -94.5c0 -26.667 13.667 -53.167 41 -79.5
s61.333 -48.166 102 -65.499l-21 -30c-72 37.333 -123.333 72.333 -154 105s-46 65.667 -46 99c0 52.667 23 93 69 121c-24.667 27.333 -37 51.333 -37 72c0 37.333 24 56 72 56h126v42h-266l-40 71h469zM336.001 45.9971l0.000976562 3c-20.667 14 -41 21 -61 21
c-18.667 0 -34.334 -5.33301 -47.001 -16s-19 -20 -19 -28c0 -14 8 -21 24 -21c22 0 56.333 13.667 103 41z" />
    <glyph glyph-name="currency" unicode="&#xa4;" horiz-adv-x="472" 
d="M516 233l-54 -55l-52 56l53 54zM363 -26c-21.333 20.667 -46.668 31.1699 -76.001 31.5029s-44.333 -10.834 -45 -33.501c0 -10.667 6.33301 -18.834 19 -24.501s28.834 -6.33398 48.501 -2.00098s37.5 13.833 53.5 28.5zM281.998 -87.9971
c-19.333 -0.666992 -41.834 8.16797 -67.501 26.501s-36.5 36.833 -32.5 55.5c4 19.333 14.167 32.833 30.5 40.5s35.333 9.66699 57 6s40.167 -7.83398 55.5 -12.501s28 -9.33398 38 -14.001v49c-38.667 -7.33301 -75.667 -7.66602 -111 -0.999023s-64 17.667 -86 33v-63
c0 -41.333 -14 -69 -42 -83c6.66699 -17.333 16.834 -30.5 30.501 -39.5s28.667 -13.667 45 -14s31.333 1 45 4s26.167 7.16699 37.5 12.5zM108.997 -220.995l-51 40l123 45c-12 0.666992 -26.333 7.16699 -43 19.5s-30 24.5 -40 36.5l-16 18
c-32 23.333 -50.667 49.666 -56 78.999c-3.33301 20.667 3 31.667 19 33c11.333 0 26.333 -6.66699 45 -20c15.333 12.667 20.666 47.334 15.999 104.001c-22 24 -42.333 51.667 -61 83l29 20c26.667 -42.667 58 -74.667 94 -96s72.333 -32 109 -32c28 0 52 5.83301 72 17.5
s30 22.834 30 33.501c0 3.33301 -1.83301 7.16602 -5.5 11.499s-8.16699 6.5 -13.5 6.5s-23.666 -6 -54.999 -18s-52.333 -18 -63 -18c-23.333 0 -46.166 13.167 -68.499 39.5s-33.5 51.833 -33.5 76.5c0 42 21.333 63 64 63h126v32h-332l-40 71h571l42 -71h-168v-75
c0 -6.66699 -1.66699 -12 -5 -16s-7.33301 -6 -12 -6h-136c-15.333 0 -27.5 -2.5 -36.5 -7.5s-13.5 -11.167 -13.5 -18.5c0 -6 2.33301 -11.333 7 -16s9.66699 -7 15 -7c2 0 17.5 3.16699 46.5 9.5s47.833 9.5 56.5 9.5c29.333 0 58.666 -14 87.999 -42
c20.667 -20.667 31 -40 31 -58c0 -8 -5.33301 -18.333 -16 -31v-279l-68 37v33z" />
    <glyph glyph-name="yen" unicode="&#xa5;" horiz-adv-x="437" 
d="M486 353l-127.002 -0.00488281v-87c0 -13.333 -5 -20 -15 -20h-169c-30 0 -45 -11.333 -45 -34c0 -6 2 -11.667 6 -17c20.667 12 52 18 94 18c29.333 0 55.666 -4.5 78.999 -13.5s39.666 -19.167 48.999 -30.5c12.667 -15.333 24.834 -35.5 36.501 -60.5
s17.5 -45.167 17.5 -60.5c0 -26 -13.667 -56 -41 -90l-53 36c21.333 28.667 37.666 57 48.999 85c-18 1.33301 -33.333 -3.33398 -46 -14.001s-26.334 -31 -41.001 -61l-50 33c6.66699 16.667 14.334 30.334 23.001 41.001c-16 2 -29.333 -1.5 -40 -10.5
s-16 -21.167 -16 -36.5c0 -18.667 8.33301 -35.667 25 -51s46.334 -30.666 89.001 -45.999l-18 -28c-104.667 40.667 -157 85 -157 133c0 21.333 7.33301 40.666 22 57.999s32.334 26 53.001 26c4.66699 0 8.83398 -0.333008 12.501 -1s6.83398 -1.5 9.50098 -2.5
s5.66699 -2.66699 9 -5s5.66602 -4.16602 6.99902 -5.49902s4 -3.66602 8 -6.99902s6.66699 -5.66602 8 -6.99902c8.66699 10 15.834 16.5 21.501 19.5s13.5 4.5 23.5 4.5c11.333 0 29 -3.66699 53 -11c-6 11.333 -20.5 22.333 -43.5 33s-47.5 16 -73.5 16
c-48 0 -84.167 -10.5 -108.5 -31.5s-36.5 -47.5 -36.5 -79.5c0 -38 11.167 -68.667 33.5 -92s65.833 -50 130.5 -80l-19 -29c-76.667 36.667 -130.667 71.834 -162 105.501s-47 70.834 -47 111.501c0 52 23.333 92.333 70 121c-25.333 25.333 -38 49.333 -38 72
c0 36.667 23.333 55 70 55h151v43h-291l-40 71h487z" />
    <glyph glyph-name="brokenbar" unicode="&#xa6;" 
d="M-124 -128c-39.333 -25.333 -75.332 -36.999 -107.999 -34.999s-59.334 12.5 -80.001 31.5s-31 40.5 -31 64.5c0 4 -0.166992 7.66699 -0.5 11s-0.5 5.66602 -0.5 6.99902s0.166992 2.83301 0.5 4.5s1.5 4.16699 3.5 7.5h-37l-41 72h236l43 -71l-62 -1
c-48.667 -2 -73 -18 -73 -48c0 -19.333 9 -29 27 -29c26.667 0 67.667 25.333 123 76v134h75v-282l-75 53v5z" />
    <glyph glyph-name="section" unicode="&#xa7;" horiz-adv-x="355" 
d="M419 353l-79 1l-40 69l76 1zM422 18c-50 -41.333 -98.668 -62.002 -146.001 -62.002c-33.333 0 -61.666 8.16699 -84.999 24.5s-34.333 34.5 -33 54.5l-72 -37l-55 49l227 111l69 -39c-38.667 -14.667 -65.167 -29 -79.5 -43s-21.5 -29.333 -21.5 -46
c0 -10 2.66699 -18.333 8 -25s12.666 -10 21.999 -10c19.333 0 44.833 9.16699 76.5 27.5s57.5 40.833 77.5 67.5v48c-19.333 7.33301 -48.166 19.5 -86.499 36.5s-64.166 29.833 -77.499 38.5c-14 -9.33301 -38.5 -22 -73.5 -38s-63.167 -27 -84.5 -33l-60 52
c67.333 22.667 112.666 40.334 135.999 53.001c-22.667 10 -40 22.833 -52 38.5s-18 31.834 -18 48.501c0 25.333 9.66699 48.333 29 69s43 31 71 31s55 -14.5 81 -43.5s39 -58.167 39 -87.5c0 -22 -11.667 -42.667 -35 -62c12 -8 34.167 -19.5 66.5 -34.5
s57.833 -25.833 76.5 -32.5v-156zM253.999 337.998c0 9.33301 -2.66699 16.835 -8 22.502s-12.333 8.5 -21 8.5c-15.333 0 -28 -5.33301 -38 -16s-15 -24 -15 -40c0 -16.667 9.33301 -31.334 28 -44.001c14 5.33301 26.5 14.666 37.5 27.999s16.5 27 16.5 41z" />
    <glyph glyph-name="dieresis" unicode="&#xa8;" 
d="M-123 -108h-109v-42c0 -13.333 -7.66699 -20 -23 -20c-12 0 -31.333 15.667 -58 47s-40 54.333 -40 69c0 12.667 7.33301 19 22 19h21v119l78 -24v-97h109v97h75v-242l-75 53v21z" />
    <glyph glyph-name="copyright" unicode="&#xa9;" horiz-adv-x="296" 
d="M362 353l-71.9971 -0.000976562v-87c0 -15.333 -5.33301 -23 -16 -23h-131c-16 0 -27.167 -2.33301 -33.5 -7s-9.5 -12.667 -9.5 -24c0 -12 7.33301 -18 22 -18c4 0 16.667 2.33301 38 7s37.666 7 48.999 7c29.333 0 51.833 -9.5 67.5 -28.5s24.167 -43.833 25.5 -74.5
l58 -1l1 -62l-62 -1v-22c0 -5.33301 -2.83301 -10.166 -8.5 -14.499s-12.5 -6.5 -20.5 -6.5c-9.33301 0 -24.833 12 -46.5 36s-32.5 41.333 -32.5 52c0 4 2.66699 8.16699 8 12.5s12.666 6.5 21.999 6.5h27v39c0 6 -5 9 -15 9c-22 0 -40.833 -3.83301 -56.5 -11.5
s-29.834 -11.5 -42.501 -11.5c-24 0 -46.5 16.5 -67.5 49.5s-31.5 58.167 -31.5 75.5c0 37.333 24 56 72 56h111v42l-220 1l-40 69l362 1z" />
    <glyph glyph-name="ordfeminine" unicode="&#xaa;" horiz-adv-x="370" 
d="M418 353l-127.998 -0.000976562v-85c0 -10 -7.66699 -15.333 -23 -16l-82 -6c-31.333 -0.666992 -53 -3.5 -65 -8.5s-18 -12.833 -18 -23.5c0 -37.333 22.667 -56 68 -56c19.333 0 42.333 4.66699 69 14s49.667 20 69 32l34 -68c-21.333 -16 -40 -25.667 -56 -29
c2 -10 3 -16 3 -18c0 -10.667 -1.66699 -26 -5 -46c46.667 -36.667 70 -67.667 70 -93c0 -28 -13.833 -53 -41.5 -75s-61.834 -33 -102.501 -33c-48 0 -89.167 15 -123.5 45s-51.5 62.667 -51.5 98c0 19.333 6.16699 36 18.5 50s29.833 23 52.5 27c14 2.66699 43 4 87 4
c18.667 0 28 6.33301 28 19c0 2 -0.5 4.66699 -1.5 8s-1.5 5.33301 -1.5 6c-54.667 -1.33301 -96.834 11.5 -126.501 38.5s-44.5 56.833 -44.5 89.5c0 28.667 6.66699 49.167 20 61.5s34 19.5 62 21.5l72 5c14 0.666992 21 3.33398 21 8.00098v30l-224 1l-40 69l418 1z
M286.002 -31.001c0 19.333 -26.334 29.002 -79.001 29.002c-42.667 0 -72 -4.33301 -88 -13s-24 -22.334 -24 -41.001c0 -12.667 6.83301 -22.834 20.5 -30.501s31.834 -11.5 54.501 -11.5c32 0 59.333 7.5 82 22.5s34 29.833 34 44.5z" />
    <glyph glyph-name="guillemotleft" unicode="&#xab;" horiz-adv-x="483" 
d="M367 229c0 27.333 -8 40.999 -24 40.999c-12 0 -21.333 -5.33301 -28 -16s-10 -24 -10 -40c0 -25.333 13.667 -48.666 41 -69.999c6 7.33301 11 19.833 15 37.5s6 33.5 6 47.5zM290 5.99902l-204.003 -124.004l-74 65l147 61c-21.333 2.66699 -41.666 16 -60.999 40
s-29 45.667 -29 65s8 36.333 24 51c-12 10 -24.667 24.167 -38 42.5s-20 34.166 -20 47.499c0 19.333 8.33301 36 25 50s38.334 21 65.001 21c4.66699 0 16.334 -1.33301 35.001 -4l37 -69c-13.333 3.33301 -30.333 5 -51 5c-13.333 0 -24.333 -3.33301 -33 -10
s-13 -15.334 -13 -26.001c0 -11.333 8.33301 -22.666 25 -33.999c6.66699 4 17.667 7.33301 33 10s28 3 38 1l34 -74c-64 0 -96 -14.667 -96 -44c0 -9.33301 3.33301 -16.333 10 -21s18.667 -7 36 -7c24.667 0 51.167 6.33301 79.5 19s50.5 28.334 66.5 47.001
c-66 34 -99 72.667 -99 116c0 21.333 6.66699 39.833 20 55.5s32.666 25.5 57.999 29.5v34h-307l-40 71h528l42 -71h-150v-43c16 -11.333 29.5 -28.166 40.5 -50.499s16.5 -42.166 16.5 -59.499c0 -31.333 -7.33301 -60.666 -22 -87.999c36 -17.333 68 -42.333 96 -75
c8 -10.667 14.333 -24.167 19 -40.5s5.5 -34.333 2.5 -54s-11.167 -36.167 -24.5 -49.5l-66 40c12 9.33301 20.333 22.333 25 39s5.33398 32.334 2.00098 47.001s-12.5 28 -27.5 40s-29.833 20.333 -44.5 25c-26.667 -36 -61.667 -62 -105 -78z" />
    <glyph glyph-name="logicalnot" unicode="&#xac;" horiz-adv-x="328" 
d="M370 353l-91.0029 -0.00292969v-89c0 -8.66699 -1.33301 -14.334 -4 -17.001s-8.66699 -4 -18 -4h-97c-18 0 -32.333 -5.16699 -43 -15.5s-16 -23.5 -16 -39.5c0 -13.333 8.83301 -25 26.5 -35s38.834 -15 63.501 -15c8 4.66699 12 8.33398 12 11.001
c0 1.33301 -1.66699 6 -5 14s-5 13 -5 15c0 6 2.66699 11.167 8 15.5s12.333 6.5 21 6.5c12 0 28.5 -8 49.5 -24s31.5 -29 31.5 -39c0 -7.33301 -3.16699 -14.666 -9.5 -21.999s-14.166 -12.666 -23.499 -15.999l63 -98c-87.333 -15.333 -131 -35 -131 -59
c0 -4 2.33301 -7.5 7 -10.5s10 -4.5 16 -4.5c14 0 39.333 6.33301 76 19l45 -52c-31.333 -12 -57.666 -18 -78.999 -18c-28 0 -53.167 10 -75.5 30s-33.5 42.667 -33.5 68c0 12 1.66699 21.333 5 28s12.833 14.334 28.5 23.001s39.167 17 70.5 25l-23 36
c-26 -12.667 -57 -9 -93 11c-29.333 15.333 -54.333 35.5 -75 60.5s-31 48.167 -31 69.5c0 53.333 31.667 80 95 80h75v46h-210l-40 71h370z" />
    <glyph glyph-name="registered" unicode="&#xae;" horiz-adv-x="392" 
d="M445 353l-250.999 0.00195312v-84c22.667 12.667 45 19 67 19c26 0 51.333 -11.833 76 -35.5s37 -54.834 37 -93.501c0 -14.667 -4.33301 -35.167 -13 -61.5s-17.667 -47.166 -27 -62.499l-68 52c11.333 18.667 22.166 40.5 32.499 65.5s15.5 42.833 15.5 53.5
c0 14.667 -5.33301 22 -16 22c-8 0 -24.5 -5.33301 -49.5 -16s-46.5 -21.334 -64.5 -32.001c-9.33301 -17.333 -23.333 -32.333 -42 -45c14.667 -22 49.334 -61 104.001 -117l-32 -32l-136 168c-28.667 35.333 -43 58.666 -43 69.999c-1.33301 5.33301 1 11.333 7 18
s12 10 18 10c7.33301 0 17.166 -3.33301 29.499 -10s20.5 -10 24.5 -10c4.66699 0 7 4.33301 7 13v108l-122 1l-40 69l443 1z" />
    <glyph glyph-name="macron" unicode="&#xaf;" horiz-adv-x="579" 
d="M116 271c26.667 -10.667 48.666 -14.3311 65.999 -10.998s30.5 10.666 39.5 21.999s13.5 24.666 13.5 39.999c0 16.667 -5.33301 30 -16 40s-23.667 15 -39 15c-19.333 0 -35.166 -10.833 -47.499 -32.5s-17.833 -46.167 -16.5 -73.5zM472.999 271.003
c1.33301 28 -4.16797 52.6641 -16.501 73.9971s-28.166 32 -47.499 32c-15.333 0 -28.333 -5 -39 -15s-16 -23.333 -16 -40c0 -15.333 4.5 -28.666 13.5 -39.999s22.167 -18.666 39.5 -21.999s39.333 0.333984 66 11.001zM115.998 252
c0.666992 -58 19.001 -102.501 55.001 -133.501s77 -46.5 123 -46.5s87.333 15.667 124 47s55 75.666 55 132.999c-36.667 -31.333 -73.167 -38.5 -109.5 -21.5s-54.5 46.833 -54.5 89.5c0 34 9.5 60.333 28.5 79s42.833 28 71.5 28c23.333 0 43.666 -5.16699 60.999 -15.5
s30.666 -24 39.999 -41s16.333 -32.333 21 -46s8 -27.5 10 -41.5c10 -80.667 -9.66699 -148 -59 -202s-112 -81 -188 -81c-79.333 0 -143.666 25.333 -192.999 76s-67 119.667 -53 207c16 96 60 144 132 144c28.667 0 52.5 -9.33301 71.5 -28s28.5 -45 28.5 -79
c0 -27.333 -9 -50.666 -27 -69.999s-39.167 -29.166 -63.5 -29.499s-48.833 10.167 -73.5 31.5zM357.999 503.999l-63 -63l-64 64l63 63z" />
    <glyph glyph-name="degree" unicode="&#xb0;" horiz-adv-x="400" 
d="M230 -18c-38.667 -10.667 -76.168 -9.50781 -112.501 3.49219s-63.833 34.167 -82.5 63.5s-23.667 61 -15 95c5.33301 21.333 15.5 40 30.5 56s29.833 27.667 44.5 35c-42 30.667 -63 68.334 -63 113.001c0 40.667 19.833 71.834 59.5 93.501s100.5 28.167 182.5 19.5
l27 -77c-134 15.333 -201 -9 -201 -73c0 -11.333 3.83301 -22.666 11.5 -33.999s18.834 -18 33.501 -20c58 12.667 102.667 15.667 134 9l27 -79c-48.667 8 -91.834 6.33301 -129.501 -5s-65.167 -27.666 -82.5 -48.999c-12 -15.333 -19 -30.166 -21 -44.499
s0.666992 -26.166 8 -35.499s16.833 -16.5 28.5 -21.5s25.834 -6 42.501 -3s33 9.83301 49 20.5c-8 10.667 -9.5 22.334 -4.5 35.001s12.5 21.334 22.5 26.001c24 10 44.667 10 62 0s26 -25.333 26 -46c0 -20 -7.16699 -37 -21.5 -51s-32.833 -24.333 -55.5 -31z
M404.999 316.992l-63 -63l-64 64l63 63z" />
    <glyph glyph-name="plusminus" unicode="&#xb1;" horiz-adv-x="341" 
d="M314 162h-108v-111h-60v111h-107v60h107v112h60v-112h108v-60z" />
    <glyph glyph-name="twosuperior" unicode="&#xb2;" horiz-adv-x="341" 
d="M302 294l-85 -85l85 -84l-42 -43l-86 84l-84 -84l-44 42l85 85l-83 84l42 44l84 -86l85 85z" />
    <glyph glyph-name="threesuperior" unicode="&#xb3;" horiz-adv-x="419" 
d="M386 408l-285 -408h-48l285 408h48zM334 216c6 0 11.668 -0.833008 17.001 -2.5s12.166 -5.33398 20.499 -11.001s15 -15.667 20 -30s7.5 -32.5 7.5 -54.5c0 -41.333 -8.66699 -71.333 -26 -90s-34.666 -28 -51.999 -28s-33 7.5 -47 22.5s-21 41.5 -21 79.5
c0 38.667 8.16699 67.334 24.5 86.001s35.166 28 56.499 28zM118.001 408c6 0 11.668 -0.833008 17.001 -2.5s12.166 -5.33398 20.499 -11.001s15 -15.667 20 -30s7.5 -32.5 7.5 -54.5c0 -41.333 -8.66699 -71.333 -26 -90s-34.666 -28 -51.999 -28s-33 7.5 -47 22.5
s-21 41.5 -21 79.5c0 38.667 8.16699 67.334 24.5 86.001s35.166 28 56.499 28zM364.002 87c0 22 -4.83301 39.666 -14.5 52.999s-23.167 20 -40.5 20c-14 0 -21 -10.667 -21 -32c0 -23.333 4.66699 -41.166 14 -53.499s21.333 -18.5 36 -18.5c17.333 0 26 10.333 26 31z
M148.002 278.999c0 22 -4.83301 39.666 -14.5 52.999s-23.167 20 -40.5 20c-14 0 -21 -10.667 -21 -32c0 -23.333 4.66699 -41.166 14 -53.499s21.333 -18.5 36 -18.5c17.333 0 26 10.333 26 31z" />
    <glyph glyph-name="acute" unicode="&#xb4;" horiz-adv-x="328" 
d="M302 162h-272v65h272v-65zM228 325l-61 -62l-62 62l61 61zM228 71l-61 -61l-62 61l61 62z" />
    <glyph glyph-name="mu" unicode="&#xb5;" horiz-adv-x="400" 
d="M222 221v-7.00488c14 -7.33301 30 -12.666 48 -15.999s33 -5.16602 45 -5.49902s22.167 -3.66602 30.5 -9.99902s12.5 -16.5 12.5 -30.5c0 -10.667 -3.83301 -19.667 -11.5 -27s-17.167 -11 -28.5 -11c-17.333 0 -32 8.66699 -44 26c-16.667 24 -27.667 38.833 -33 44.5
s-14.666 11.834 -27.999 18.501l-6 -4c2.66699 -27.333 9.16699 -51 19.5 -71s15.5 -34 15.5 -42c0 -11.333 -3.83301 -21.166 -11.5 -29.499s-17.834 -12.5 -30.501 -12.5s-22.167 4.66699 -28.5 14s-9.5 19.333 -9.5 30c0 12 5.16699 26.667 15.5 44
s15.5 39.666 15.5 66.999l-6 4c-18.667 -12 -33.667 -26 -45 -42s-20.666 -28.333 -27.999 -37s-17.666 -13 -30.999 -13c-8 0 -16.167 3.5 -24.5 10.5s-12.5 16.5 -12.5 28.5c0 19.333 10.333 33 31 41c6.66699 2.66699 21 4.33398 43 5.00098s42 8 60 22l1 5
c-16 8 -33.5 13.667 -52.5 17s-33.833 5.16602 -44.5 5.49902s-19.834 3.5 -27.501 9.5s-11.5 16.333 -11.5 31c0 13.333 4 23.166 12 29.499s15.667 9.5 23 9.5c14 0 25.167 -3.33301 33.5 -10s14.333 -14.334 18 -23.001s10.334 -18.667 20.001 -30
s22.167 -20.333 37.5 -27l5 3c0.666992 24.667 -4.83301 47 -16.5 67s-17.5 36.333 -17.5 49c0 10.667 4 19.834 12 27.501s17.667 11.5 29 11.5c14.667 0 24.834 -4.83301 30.501 -14.5s8.5 -19.167 8.5 -28.5c0 -10.667 -5.5 -25.667 -16.5 -45
s-15.5 -41.666 -13.5 -66.999l6 -3c18 12.667 32.667 27.167 44 43.5s20.5 28.5 27.5 36.5s16.833 12 29.5 12c12 0 21.833 -4.66699 29.5 -14s11.5 -18.333 11.5 -27c0 -5.33301 -2.83301 -12.333 -8.5 -21s-13.834 -15 -24.501 -19
c-4.66699 -1.33301 -18.334 -2.66602 -41.001 -3.99902s-43.334 -8.33301 -62.001 -21z" />
    <glyph glyph-name="paragraph" unicode="&#xb6;" horiz-adv-x="632" 
d="M162 285c4.66699 19.333 3.66699 38.5 -3 57.5s-18 28.5 -34 28.5c-18 0 -30.5 -5.33301 -37.5 -16s-8.83301 -22.167 -5.5 -34.5s9 -21.166 17 -26.499c10 -6 19.5 -9.33301 28.5 -10s20.5 -0.333984 34.5 0.999023zM536 294c8 5.33301 13.6699 14.166 17.0029 26.499
s1.66602 23.833 -5.00098 34.5s-19.334 16 -38.001 16c-16 0 -27.333 -9.5 -34 -28.5s-7.33398 -38.167 -2.00098 -57.5c13.333 -1.33301 24.5 -1.66602 33.5 -0.999023s18.5 4 28.5 10zM398.003 282c-2.66699 30 -0.00390625 55.8311 7.99609 77.498
s19.167 37.334 33.5 47.001s28.333 16.5 42 20.5s27.5 6 41.5 6c20.667 0 40.334 -6.5 59.001 -19.5s28 -32.833 28 -59.5c0 -33.333 -12.333 -59.833 -37 -79.5s-57.667 -27.5 -99 -23.5c8 -84 -0.5 -148.167 -25.5 -192.5s-66.5 -66.166 -124.5 -65.499
c-55.333 0.666992 -98.166 23.167 -128.499 67.5s-41.833 107.833 -34.5 190.5c-41.333 -4 -74.166 3.83301 -98.499 23.5s-36.5 46.167 -36.5 79.5c0 22.667 8.16699 41.5 24.5 56.5s36.833 22.5 61.5 22.5c14 0 27.667 -1.83301 41 -5.5s27.5 -10.167 42.5 -19.5
s26.333 -24.833 34 -46.5s10.167 -48.167 7.5 -79.5c-6.66699 -78 -2 -132 14 -162s40.333 -45 73 -45c60.667 0 85.334 69 74.001 207zM365.999 527.998l-63 -63l-64 64l63 63z" />
    <glyph glyph-name="periodcentered" unicode="&#xb7;" horiz-adv-x="456" 
d="M430 319v-70h-404v70h404zM430 156v-70h-404v70h404z" />
    <glyph glyph-name="cedilla" unicode="&#xb8;" 
d="M-190 -115c-11.333 10 -20.668 22.835 -28.001 38.502s-11 29.834 -11 42.501c0 18 6.83301 33.5 20.5 46.5s42.834 25.167 87.501 36.5l69 -47c-82.667 -14.667 -125.667 -33.667 -129 -57c-1.33301 -10 2.5 -19.5 11.5 -28.5s21.5 -13.5 37.5 -13.5
c34 0 61 3.66699 81 11l42 -55c-40 -10 -75 -15.667 -105 -17c-34.667 -2.66699 -55 -14.334 -61 -35.001c-5.33301 -15.333 -2 -27.833 10 -37.5s25 -13.834 39 -12.501c22.667 1.33301 52 11.666 88 30.999l47 -55c-36.667 -16 -71.667 -24 -105 -24
c-29.333 0 -57.5 12.5 -84.5 37.5s-40.5 50.167 -40.5 75.5c0 29.333 10.333 50.333 31 63z" />
    <glyph glyph-name="onesuperior" unicode="&#xb9;" horiz-adv-x="141" 
d="M187 353h-253l-37 71h253zM121 203c0 -30 -6.00195 -53.001 -18.002 -69.001l-50 44c8.66699 22.667 13 40.334 13 53.001c0 18 -8.66699 27 -26 27c-9.33301 0 -27.166 -7.33301 -53.499 -22s-45.5 -28 -57.5 -40v77c35.333 25.333 62.333 38 81 38
c24.667 0 49.334 -10.5 74.001 -31.5s37 -46.5 37 -76.5zM120.998 56.999c0 -22.667 -16.333 -48.001 -49 -76.001l-54 44c30.667 22 47.667 43.667 51 65c1.33301 10.667 -0.333984 19.334 -5.00098 26.001s-9.5 10.667 -14.5 12s-10.167 2 -15.5 2
c-19.333 0 -54.333 -19.333 -105 -58v69c36.667 25.333 63.667 38 81 38c20.667 0 44.334 -14 71.001 -42s40 -54.667 40 -80z" />
    <glyph glyph-name="ordmasculine" unicode="&#xba;" horiz-adv-x="404" 
d="M462 353l-117.994 -0.00292969v-67c0 -7.33301 -1.83301 -13.166 -5.5 -17.499s-7.83398 -6.5 -12.501 -6.5h-129c-16 0 -26.833 -1.83301 -32.5 -5.5s-8.5 -11.167 -8.5 -22.5s9 -17 27 -17c2 0 17.667 3 47 9s47.666 9 54.999 9c18 0 31.333 -2.5 40 -7.5
s18 -16.5 28 -34.5c16.667 -28 25 -47.667 25 -59c0 -14 -7 -26.5 -21 -37.5s-26.667 -18.5 -38 -22.5l-1 -45c-4.66699 -12 -13.667 -18 -27 -18h-105c-16 0 -28 -5 -36 -15s-12 -20 -12 -30c0 -40.667 22.667 -67.334 68 -80.001c-4 12 -6 24 -6 36
c0 17.333 7.16699 32.833 21.5 46.5s32.166 20.5 53.499 20.5c24.667 0 47.834 -8.66699 69.501 -26s32.5 -37.333 32.5 -60c0 -23.333 -9.33301 -42.666 -28 -57.999s-43.334 -23 -74.001 -23c-46.667 0 -90.5 18.333 -131.5 55s-61.5 77 -61.5 121
c0 20 6.5 37.167 19.5 51.5s30.833 21.5 53.5 21.5h67c-68 18 -121.333 50.667 -160 98l24 24c29.333 -28.667 55.166 -48 77.499 -58s47.166 -15 74.499 -15c21.333 0 40.666 4.83301 57.999 14.5s26 19.834 26 30.501c0 8.66699 -5.66699 13 -17 13
c-6 0 -20.667 -3 -44 -9s-38.333 -9 -45 -9c-26.667 0 -52.5 12 -77.5 36s-37.5 47 -37.5 69c0 18.667 5 32.334 15 41.001s26.333 13 49 13h114v34l-283 1l-40 69l464 1zM328.006 -82.0029c0 12.667 -10 19 -30 19c-17.333 0 -31 -5 -41 -15s-14.667 -23.333 -14 -40
c26 -2 46.667 0.5 62 7.5s23 16.5 23 28.5z" />
    <glyph glyph-name="guillemotright" unicode="&#xbb;" horiz-adv-x="343" 
d="M401 353l-403 1l-40 69l400 1zM402 240l-160.999 -0.000976562c30.667 -23.333 46 -52.333 46 -87c0 -13.333 -7.33301 -25.166 -22 -35.499s-30.334 -15.5 -47.001 -15.5c-64.667 0 -126 55.667 -184 167l31 12c44.667 -76.667 84.667 -115 120 -115
c10.667 0 19.5 3 26.5 9s10.5 13.667 10.5 23c-4 28 -24.667 56 -62 84l9 24l232 -1zM402.001 157.999l-1 -57l-283 -167l-51 72z" />
    <glyph glyph-name="onequarter" unicode="&#xbc;" horiz-adv-x="462" 
d="M499 353l-149 -0.000976562v-37c20.667 -4.66699 40 -16 58 -34s28 -37.333 30 -58c3.33301 -31.333 -8.66699 -63.333 -36 -96c24 -16 36 -39.333 36 -70c0 -44 -25.333 -80.667 -76 -110l-56 34c55.333 41.333 82 76.333 80 105c0 10.667 -4.66699 19.334 -14 26.001
s-20.666 8 -33.999 4c-35.333 -12.667 -64.333 -47 -87 -103l-57 36c2.66699 6.66699 9.66699 19.667 21 39c-12.667 13.333 -29 21.833 -49 25.5s-38.333 1.16699 -55 -7.5s-26 -22.334 -28 -41.001c-2 -16 2.33301 -32.5 13 -49.5s27.334 -31.167 50.001 -42.5l-13 -16
c-61.333 30.667 -95.666 65.667 -102.999 105c-4 22.667 -1.66699 42.667 7 60s21 29.333 37 36l-9 9c-4.66699 4.66699 -8.33398 8.66699 -11.001 12s-6 7.83301 -10 13.5s-7.33301 11.834 -10 18.501s-4.33398 14 -5.00098 22c-4 34 4.5 59 25.5 75s47.167 21.667 78.5 17
c30.667 -4.66699 63 -22.667 97 -54c4 7.33301 11.167 14.833 21.5 22.5s19.166 12.167 26.499 13.5v45h-280l-38 71h502zM389 231.999c2 17.333 -1.99902 29.8359 -11.999 37.5029s-21 10.5 -33 8.5c-15.333 -2 -32.333 -12.5 -51 -31.5s-32.667 -40.833 -42 -65.5l-57 35
c2.66699 8 8 18 16 30c-10.667 16 -25.334 26.667 -44.001 32s-36 3 -52 -7s-25.333 -26.333 -28 -49c-0.666992 -4.66699 -0.666992 -9.33398 0 -14.001s1.66699 -8.5 3 -11.5s3 -6.5 5 -10.5s3.66699 -6.83301 5 -8.5s3.16602 -3.83398 5.49902 -6.50098
s3.5 -4.33398 3.5 -5.00098c20 0.666992 39.167 -2.5 57.5 -9.5s40.5 -21.833 66.5 -44.5c10 14 24.333 25.667 43 35s38.334 12 59.001 8c20 15.333 33.667 28 41 38s12 23 14 39z" />
    <glyph glyph-name="onehalf" unicode="&#xbd;" horiz-adv-x="354" 
d="M213 388l-53 -54l-54 54l54 55zM328 294c-31.333 -53.333 -82.667 -80.002 -154 -80.002c-29.333 0 -58.166 8.33301 -86.499 25s-50.5 40.334 -66.5 71.001l26 21c25.333 -40.667 62 -61 110 -61c19.333 0 40.166 5.33301 62.499 16s40.5 28.334 54.5 53.001z
M322.999 0.998047l-28.001 -30.001c-20 22.667 -41.667 45 -65 67c-16 15.333 -30.167 26.5 -42.5 33.5s-27.166 10.5 -44.499 10.5c-14 0 -32.333 -2 -55 -6c-22 32.667 -36.333 58.334 -43 77.001c16 2 29.667 3 41 3c39.333 0 71.333 -10.667 96 -32
c81.333 -69.333 128.333 -110.333 141 -123z" />
    <glyph glyph-name="threequarters" unicode="&#xbe;" horiz-adv-x="275" 
d="M249 251c0 -42.667 -16.833 -74.834 -50.5 -96.501s-75.167 -28.834 -124.5 -21.501l-46 80c49.333 -7.33301 87.333 -4.66602 114 8.00098s40 35 40 67c0 15.333 -10 35.333 -30 60s-47.667 47.667 -83 69l16 20c22 -14.667 40.833 -28 56.5 -40s32.667 -26.333 51 -43
s32.333 -33.667 42 -51s14.5 -34.666 14.5 -51.999zM152 291l-63 -62l-62 62l62 63zM155 48l-63 -62l-62 62l62 62z" />
    <glyph glyph-name="questiondown" unicode="&#xbf;" horiz-adv-x="505" 
d="M492 228l-54 -54l-52 53l53 55zM546 353l-167.001 0.00292969v-81c0 -14.667 -5.66699 -22 -17 -22h-155c-27.333 0 -41 -11 -41 -33c0 -3.33301 2.16699 -6.83301 6.5 -10.5s8.83301 -5.5 13.5 -5.5c2 0 17.5 3.16699 46.5 9.5s47.833 9.5 56.5 9.5
c34.667 -0.666992 64 -12 88 -34c20.667 -24 31 -43.333 31 -58c0 -22 -11.667 -40.833 -35 -56.5s-48.666 -24.167 -75.999 -25.5v-41c7.33301 4 19.166 8 35.499 12s28.166 6 35.499 6c30 0 56.5 -10.667 79.5 -32s30.167 -47 21.5 -77c-8 -28.667 -28 -55 -60 -79l-64 41
c40 18 64.667 36.333 74 55c6.66699 13.333 5.83398 24.166 -2.49902 32.499s-20.833 11.166 -37.5 8.49902c-13.333 -2.66699 -28.833 -8.16699 -46.5 -16.5s-29.5 -15.833 -35.5 -22.5v-107l-69 37l2 34c-13.333 -10 -29.5 -17.5 -48.5 -22.5s-36.167 -5.83301 -51.5 -2.5
c-22 5.33301 -41.833 17.333 -59.5 36s-26.5 38.667 -26.5 60c0 24.667 9.83301 43.5 29.5 56.5s40.167 16.833 61.5 11.5c36.667 -9.33301 68 -22.333 94 -39v49c-82 21.333 -147 66.666 -195 135.999l28 22c51.333 -66 111 -99 179 -99c28.667 0 53.334 5 74.001 15
s31 21 31 33c0 3.33301 -1.83301 6.33301 -5.5 9s-8.5 4 -14.5 4c-5.33301 0 -23.333 -5 -54 -15s-50 -14.667 -58 -14c-24 0 -47.167 12.833 -69.5 38.5s-33.5 51.167 -33.5 76.5c0 41.333 21.333 62 64 62h139v39l-318 1l-40 69l548 1zM224.999 -40.9971
c-13.333 9.33301 -31.667 16.667 -55 22c-18 4 -34.167 3 -48.5 -3s-21.833 -15.667 -22.5 -29c-0.666992 -9.33301 2 -16.5 8 -21.5s13.667 -7.5 23 -7.5c23.333 0 55 13 95 39z" />
    <glyph glyph-name="Agrave" unicode="&#xc0;" horiz-adv-x="367" 
d="M434 353l-438 1l-40 69l435 1zM427 284l-0.998047 -211.999l-104 -18c16.667 -20.667 25 -40.334 25 -59.001c0 -20 -7.33301 -36 -22 -48s-33.334 -18 -56.001 -18c-34.667 0 -68.5 12.333 -101.5 37s-67.5 66 -103.5 124l30 20c20.667 -35.333 42.5 -62 65.5 -80
s43.833 -27 62.5 -27c15.333 0 27.833 4.33301 37.5 13s14.5 18.334 14.5 29.001c0 20 -11.333 37.333 -34 52l9 21l171 23v55c-35.333 -2 -71 10.667 -107 38c1.33301 -5.33301 2 -10 2 -14c0 -21.333 -10.167 -41.333 -30.5 -60s-44.833 -28 -73.5 -28
c-32 0 -61.333 5.66699 -88 17s-56 30.333 -88 57l22 31c37.333 -30 71.666 -45 102.999 -45c23.333 0 44.166 7.66699 62.499 23s27.5 31.666 27.5 48.999c0 16.667 -5 25 -15 25c-15.333 0 -38.333 -19.667 -69 -59l-56 65c26.667 25.333 56 38 88 38
c19.333 0 34.5 -2.66699 45.5 -8s28.5 -17.333 52.5 -36c7.33301 -6.66699 19.333 -12.167 36 -16.5s30.667 -6.5 42 -6.5c14.667 0 32.334 6 53.001 18z" />
    <glyph glyph-name="Aacute" unicode="&#xc1;" horiz-adv-x="290" 
d="M238 376l-62 -62l-63 62l63 62zM247 133l-61 -63l-64 63l64 62zM247 211c-48.667 7.33301 -86.5 4.66602 -113.5 -8.00098s-40.5 -35 -40.5 -67c0 -15.333 10 -35.333 30 -60s47.667 -47.667 83 -69l-16 -20c-22 14.667 -40.833 28 -56.5 40s-32.667 26.333 -51 43
s-32.333 33.667 -42 51s-14.5 34.666 -14.5 51.999c0 42.667 16.833 74.834 50.5 96.501s75.5 28.834 125.5 21.501z" />
    <glyph glyph-name="Acircumflex" unicode="&#xc2;" horiz-adv-x="328" 
d="M370 353l-91.0029 -0.00292969v-89c0 -8.66699 -1.33301 -14.334 -4 -17.001s-8.66699 -4 -18 -4h-97c-18 0 -32.333 -5.16699 -43 -15.5s-16 -23.5 -16 -39.5c0 -13.333 8.83301 -25 26.5 -35s38.834 -15 63.501 -15c8 4.66699 12 8.33398 12 11.001
c0 1.33301 -1.66699 6 -5 14s-5 13 -5 15c0 6 2.66699 11.167 8 15.5s12.333 6.5 21 6.5c12 0 28.5 -8 49.5 -24s31.5 -29 31.5 -39c0 -7.33301 -3.16699 -14.666 -9.5 -21.999s-14.166 -12.666 -23.499 -15.999l63 -98c-87.333 -15.333 -131 -35 -131 -59
c0 -4 2.33301 -7.5 7 -10.5s10 -4.5 16 -4.5c14 0 39.333 6.33301 76 19l45 -52c-31.333 -12 -57.666 -18 -78.999 -18c-28 0 -53.167 10 -75.5 30s-33.5 42.667 -33.5 68c0 12 1.66699 21.333 5 28s12.833 14.334 28.5 23.001s39.167 17 70.5 25l-23 36
c-26 -12.667 -57 -9 -93 11c-29.333 15.333 -54.333 35.5 -75 60.5s-31 48.167 -31 69.5c0 53.333 31.667 80 95 80h75v46h-210l-40 71h370z" />
    <glyph glyph-name="Atilde" unicode="&#xc3;" horiz-adv-x="378" 
d="M451 353h-453l-40 71h450zM438 284l-3.00195 -86.998c-48.667 -2.66699 -91 9.66602 -127 36.999c1.33301 -5.33301 2 -10 2 -14c0 -21.333 -10.167 -41.333 -30.5 -60s-44.833 -28 -73.5 -28c-31.333 0 -59.666 5.66699 -84.999 17s-54.333 30.333 -87 57l22 31
c37.333 -30 70.333 -45 99 -45c23.333 0 44.333 7.66699 63 23s28 31.666 28 48.999c0 16.667 -5.33301 25 -16 25c-15.333 0 -38 -19.667 -68 -59l-57 65c26.667 25.333 56.334 38 89.001 38c18.667 0 33.5 -2.66699 44.5 -8s28.5 -17.333 52.5 -36
c7.33301 -6.66699 19.5 -12.167 36.5 -16.5s30.833 -6.5 41.5 -6.5c23.333 0 46.333 6 69 18zM465.998 20.002c-10 -12.667 -29.001 -26.499 -57.001 -41.499s-52.667 -22.5 -74 -22.5c-38.667 0 -69.5 7 -92.5 21s-36.5 32.333 -40.5 55l-65 -32l-55 52l276 113l56 -48
l-117 -52c-7.33301 -3.33301 -13 -9 -17 -17s-6 -15 -6 -21c0 -9.33301 2.83301 -17 8.5 -23s13.167 -9 22.5 -9c18.667 0 41.334 11.167 68.001 33.5s47 46.166 61 71.499z" />
    <glyph glyph-name="Adieresis" unicode="&#xc4;" horiz-adv-x="290" 
d="M167 24l-63 -62l-62 62l62 62zM254 301c0 -17.333 -4.83301 -34.666 -14.5 -51.999s-23.667 -34.333 -42 -51s-35.333 -31 -51 -43s-34.5 -25.333 -56.5 -40l-16 20c35.333 21.333 63 44.333 83 69s30 44.667 30 60c0 32 -13.5 54.333 -40.5 67
s-64.833 15.334 -113.5 8.00098l45 80c50 7.33301 91.833 0.166016 125.5 -21.501s50.5 -53.834 50.5 -96.501zM158 261l-64 -63l-61 63l61 62z" />
    <glyph glyph-name="Aring" unicode="&#xc5;" horiz-adv-x="293" 
d="M354 50l-4 -0.000976562c-18 -13.333 -41.167 -25.333 -69.5 -36s-50.5 -16 -66.5 -16c-33.333 0 -65.666 13.833 -96.999 41.5s-47 54.167 -47 79.5c0 18 5.33301 31.667 16 41c-34 34 -51 68 -51 102c0 37.333 24 56 72 56h91v35h-199l-40 71h351l42 -71h-86v-82
c0 -14 -5.33301 -21 -16 -21h-102c-35.333 0 -53 -10.333 -53 -31c0 -16.667 7.66699 -28 23 -34c14 7.33301 33.167 13.333 57.5 18s45.833 6 64.5 4c18.667 -24 28 -44.333 28 -61c0 -3.33301 -1.66699 -6.66602 -5 -9.99902s-9.33301 -6.33301 -18 -9
s-19.334 -4 -32.001 -4c-13.333 0 -29.333 2.33301 -48 7c-11.333 -4 -20.833 -10 -28.5 -18s-11.5 -15.333 -11.5 -22c0 -18.667 18.667 -28 56 -28c18.667 0 44.167 6.83301 76.5 20.5s64.5 31.167 96.5 52.5v-85z" />
    <glyph glyph-name="AE" unicode="&#xc6;" horiz-adv-x="562" 
d="M609 353l-86.999 0.00195312v-87c0 -14 -5.33301 -21 -16 -21h-148c-20.667 0 -36.167 -3.66699 -46.5 -11s-15.5 -21.333 -15.5 -42c0 -18 8.33301 -33.333 25 -46s32 -17.667 46 -15c34 6 51 14 51 24c0 2.66699 -2 7.66699 -6 15s-6 15.333 -6 24
c0 5.33301 2.83301 10.5 8.5 15.5s12.167 7.5 19.5 7.5c12.667 0 31.334 -9.33301 56.001 -28s37 -35.334 37 -50.001c0 -16.667 -9.66699 -31 -29 -43l72 -107l-38 -19l-70 106l-176 -73c12.667 -27.333 19 -43.333 19 -48c0 -8.66699 -3 -15 -9 -19s-12 -6 -18 -6
c-11.333 0 -36 6.83301 -74 20.5s-59.667 26.834 -65 39.501c-2.66699 7.33301 -0.333984 14.666 6.99902 21.999s15.5 13 24.5 17s19.5 8.33301 31.5 13l-7 22c-20 -13.333 -40.667 -20 -62 -20c-24.667 0 -46.834 9 -66.501 27s-30.167 37 -31.5 57
c-2.66699 29.333 6 51.666 26 66.999s43.667 20.5 71 15.5s49 -18.167 65 -39.5c17.333 -24 40.333 -60.333 69 -109c2.66699 1.33301 13.667 5.83301 33 13.5s31 12.5 35 14.5c-22 9.33301 -45.167 27.5 -69.5 54.5s-36.5 59.5 -36.5 97.5c0 21.333 6 37.5 18 48.5
s24.333 17.5 37 19.5s29 3 49 3h118v40h-454l-40 71h610zM185.001 89.002c-14 33.333 -24.665 55.5 -31.998 66.5s-16.333 17.167 -27 18.5c-9.33301 2 -16.833 -1.5 -22.5 -10.5s-6.83398 -18.833 -3.50098 -29.5c13.333 -34.667 33.333 -51.667 60 -51
c7.33301 0 15.666 2 24.999 6z" />
    <glyph glyph-name="Ccedilla" unicode="&#xc7;" 
d="M-63 178l-2 -52l-177 -147l-62 51z" />
    <glyph glyph-name="Egrave" unicode="&#xc8;" horiz-adv-x="290" 
d="M246 395l-62 -62l-63 62l63 63zM255 158l-61 -62l-64 62l64 63zM255 80l-45 -80.001c-50 -7.33301 -91.833 -0.166016 -125.5 21.501s-50.5 53.834 -50.5 96.501c0 17.333 4.83301 34.666 14.5 51.999s23.667 34.333 42 51s35.333 31 51 43s34.5 25.333 56.5 40l16 -20
c-35.333 -21.333 -63 -44.333 -83 -69s-30 -44.667 -30 -60c0 -31.333 13.333 -53.5 40 -66.5s64.667 -15.833 114 -8.5z" />
    <glyph glyph-name="Eacute" unicode="&#xc9;" horiz-adv-x="357" 
d="M401 353l-79 0.000976562v-87c0 -6 -1.66699 -11 -5 -15s-7 -6 -11 -6h-143c-16 0 -29.167 -0.666992 -39.5 -2s-20.333 -5.83301 -30 -13.5s-14.5 -18.167 -14.5 -31.5c0 -25.333 12 -43.5 36 -54.5s48.333 -15.5 73 -13.5s38.667 6.66699 42 14
c1.33301 3.33301 -0.333984 8.66602 -5.00098 15.999s-7 15 -7 23c0 5.33301 2.83301 10.5 8.5 15.5s12.167 7.5 19.5 7.5c12.667 0 31.334 -9.33301 56.001 -28s37 -35.334 37 -50.001c0 -16.667 -9.66699 -31 -29 -43l71 -107l-39 -20l-54 80c-20 -24 -45 -42.5 -75 -55.5
s-59 -19.5 -87 -19.5c-38 0 -68 10.833 -90 32.5s-33 44.5 -33 68.5c0 30 15 49.667 45 59c-10.667 12.667 -20.5 30.834 -29.5 54.501s-10.5 47.167 -4.5 70.5c7.33301 26.667 21 44.167 41 52.5s45 12.5 75 12.5h119v40h-253l-40 71h402zM217 70.001
c-16.667 -3.33301 -37.667 -3.33398 -63 -0.000976562s-42 8.66602 -50 15.999c-0.666992 0 -2.66699 -0.5 -6 -1.5s-6 -1.66699 -8 -2s-4.66699 -1.16602 -8 -2.49902s-5.83301 -2.66602 -7.5 -3.99902l-6.5 -5c-2.66699 -2 -4.66699 -4.16699 -6 -6.5
s-2.33301 -5.33301 -3 -9s-1 -7.5 -1 -11.5c0 -8 4.33301 -15.5 13 -22.5s19.667 -10.5 33 -10.5c26 0 49.667 6.33301 71 19s35.333 26 42 40z" />
    <glyph glyph-name="Ecircumflex" unicode="&#xca;" horiz-adv-x="387" 
d="M358 330c-34 56.667 -79.666 90.668 -136.999 102.001c-41.333 7.33301 -76.833 0.5 -106.5 -20.5s-47.167 -46.833 -52.5 -77.5c-4.66699 -26 -4 -51 2 -75s15.5 -44.5 28.5 -61.5s25.167 -30.667 36.5 -41s22.333 -18.833 33 -25.5l-72 -101l48 -30l88 133
c-33.333 15.333 -59.5 40 -78.5 74s-20.833 68 -5.5 102c16 34 44.667 52.667 86 56s75.666 -13.334 102.999 -50.001zM297.001 256.001l-63 -63l-64 64l63 63zM281.001 520.001l-63 -63l-64 64l63 63z" />
    <glyph glyph-name="Edieresis" unicode="&#xcb;" horiz-adv-x="5" 
d="M0 516l-40 -42l-44 41l42 42zM-96 416c-15.333 20 -28.999 43.1689 -40.999 69.502s-18.667 49.166 -20 68.499c-2 31.333 4.66699 55.666 20 72.999s35 25.333 59 24c28.667 -1.33301 53.667 -14 75 -38l-15 -31c-20.667 12.667 -39.334 13.167 -56.001 1.5
s-25 -32.167 -25 -61.5c0 -10.667 4 -27 12 -49s17.667 -41 29 -57h-38z" />
    <glyph glyph-name="Igrave" unicode="&#xcc;" 
d="M350 -85l-63 -64l-65 65l64 62z" />
    <glyph glyph-name="Iacute" unicode="&#xcd;" 
d="M130 -230l-28.001 -20.998c-43.333 45.333 -73.666 74.166 -90.999 86.499s-33.666 18.5 -48.999 18.5c-14 0 -26.833 -5 -38.5 -15s-17.5 -21 -17.5 -33c0 -15.333 4 -23 12 -23c4 0 12 5.16699 24 15.5s21.333 19.833 28 28.5l40 -48
c-24.667 -21.333 -48.334 -32 -71.001 -32c-21.333 0 -41.333 7.83301 -60 23.5s-28 34.167 -28 55.5c0 20 7.66699 36.333 23 49s35.333 19 60 19c6 0 11 -0.333008 15 -1l-33 37l-112 -82l-44 53l122 89c13.333 9.33301 22.333 13.333 27 12
c3.33301 -0.666992 13.666 -11 30.999 -31l66 -80l-16 -11c36.667 -16.667 83.334 -53.334 140.001 -110.001z" />
    <glyph glyph-name="Icircumflex" unicode="&#xce;" 
d="M35 -166c0 -18 -8.66602 -34.501 -25.999 -49.501s-39.666 -22.5 -66.999 -22.5c-71.333 0 -138 24.333 -200 73l25 22c42 -36.667 89.667 -55 143 -55c21.333 0 40.166 5.83301 56.499 17.5s24.5 22.834 24.5 33.501c0 14 -4.33301 21 -13 21c-14.667 0 -33 -13 -55 -39
l-52 43c30 21.333 55 32 75 32l-30 30l-109 -81l-44 55l121 86c9.33301 7.33301 16.666 10.333 21.999 9c4 -0.666992 11 -6 21 -16l79 -87l-13 -9c28 -16 42 -37 42 -63z" />
    <glyph glyph-name="Idieresis" unicode="&#xcf;" horiz-adv-x="0" 
d="M-42 -238c0 -17.333 -8.83398 -33.668 -26.501 -49.001s-40.167 -23 -67.5 -23c-54 0 -120.333 31.333 -199 94l25 22c26 -23.333 52.167 -41.833 78.5 -55.5s47.833 -20.5 64.5 -20.5c20.667 0 39.334 5.83301 56.001 17.5s25 22.834 25 33.501c0 14 -4.33301 21 -13 21
c-10.667 0 -29 -13 -55 -39l-52 42c22.667 22 47.667 33 75 33c22.667 0 43.167 -8 61.5 -24s27.5 -33.333 27.5 -52z" />
    <glyph glyph-name="Eth" unicode="&#xd0;" horiz-adv-x="387" 
d="M336 91c-5.33301 -30.667 -22.668 -56.332 -52.001 -76.999s-64.666 -27.334 -105.999 -20.001c-56 10 -102 44 -138 102l27 14c28 -36.667 62.5 -53.167 103.5 -49.5s69.5 22.5 85.5 56.5s14.5 68 -4.5 102s-45.5 58.667 -79.5 74l89 133l48 -31l-73 -101
c10.667 -6.66699 21.667 -15.167 33 -25.5s23.5 -23.833 36.5 -40.5s22.5 -37 28.5 -61s6.66699 -49.333 2 -76zM228.998 169.002l-63 -63l-64 64l63 63zM244.998 -94.998l-63 -63l-64 64l63 63z" />
    <glyph glyph-name="Ntilde" unicode="&#xd1;" horiz-adv-x="344" 
d="M386 353l-115.002 0.00390625v-71c0 -11.333 -9 -17 -27 -17h-105c-16 0 -28.167 -4 -36.5 -12s-12.5 -16.667 -12.5 -26c0 -40 23 -66.667 69 -80c-4 12 -6 24.333 -6 37c0 17.333 7 32.666 21 45.999s32 20 54 20c25.333 0 48.666 -8.5 69.999 -25.5
s32 -37.167 32 -60.5c0 -15.333 -5.16699 -29.5 -15.5 -42.5s-23.166 -22.833 -38.499 -29.5v-70c0 -11.333 -9.33301 -17 -28 -17h-105c-16 0 -28.167 -4 -36.5 -12s-12.5 -16.667 -12.5 -26c0 -40 23 -66.667 69 -80c-4 12 -6 24.333 -6 37c0 17.333 7 32.666 21 45.999
s32 20 54 20c24.667 0 47.834 -8.5 69.501 -25.5s32.5 -36.833 32.5 -59.5s-9.16699 -40.667 -27.5 -54s-43.166 -20 -74.499 -20c-47.333 0 -91.333 17.167 -132 51.5s-61 73.166 -61 116.499c0 19.333 6.5 35.166 19.5 47.499s30.833 18.5 53.5 18.5h81c10 0 15 3 15 9v11
c-50.667 10.667 -92.167 32.5 -124.5 65.5s-48.5 68.5 -48.5 106.5c0 20.667 6.33301 37.167 19 49.5s30.667 18.5 54 18.5h81c9.33301 0 14 3 14 9v19h-204l-40 71h385zM280.998 180.004c0 12 -10 18 -30 18c-18 0 -31.833 -4.83301 -41.5 -14.5
s-14.167 -23.167 -13.5 -40.5c26 -1.33301 46.667 1.5 62 8.5s23 16.5 23 28.5zM284.998 -79.9961c0 12 -10 18 -30 18c-18 0 -31.833 -4.83301 -41.5 -14.5s-14.167 -23.167 -13.5 -40.5c26 -1.33301 46.667 1.5 62 8.5s23 16.5 23 28.5z" />
    <glyph glyph-name="Ograve" unicode="&#xd2;" 
d="M6 -296l-28.002 -20.999c-43.333 45.333 -73.666 74.333 -90.999 87s-33.666 19 -48.999 19c-14 0 -26.833 -5 -38.5 -15s-17.5 -21.333 -17.5 -34c0 -14.667 4 -22 12 -22c4 0 12 5.16699 24 15.5s21.333 19.833 28 28.5l39 -48
c-23.333 -21.333 -46.666 -32 -69.999 -32c-21.333 0 -41.333 7.66699 -60 23s-28 33.666 -28 54.999c0 20 7.66699 36.5 23 49.5s35.333 19.5 60 19.5c49.333 0 114.666 -41.667 195.999 -125z" />
    <glyph glyph-name="Oacute" unicode="&#xd3;" horiz-adv-x="320" 
d="M324 353l-110.001 -0.00390625c-13.333 0 -24 -3.16699 -32 -9.5s-12 -14.166 -12 -23.499c0 -12 17.333 -36 52 -72c48 -49.333 72 -88 72 -116c0 -27.333 -10.167 -52.166 -30.5 -74.499s-44.166 -33.5 -71.499 -33.5c-57.333 0 -109.666 41.667 -156.999 125l28 18
c21.333 -30 38.166 -50 50.499 -60s26.5 -15 42.5 -15c17.333 0 32.5 5.5 45.5 16.5s19.5 23.833 19.5 38.5c0 28.667 -18.333 62.667 -55 102c-32.667 34.667 -53.167 57.834 -61.5 69.501s-12.5 23.834 -12.5 36.501c0 16 9.33301 31.5 28 46.5s42 22.5 70 22.5h92z" />
    <glyph glyph-name="Ocircumflex" unicode="&#xd4;" horiz-adv-x="727" 
d="M480 517l-54 -55l-52 56l53 54zM562 453c-14 -26.667 -31.833 -47.666 -53.5 -62.999s-44.5 -23 -68.5 -23c-27.333 0 -55 10.167 -83 30.5s-50.333 46.166 -67 77.499l27 22c30.667 -50 65.667 -75 105 -75c16 0 32.833 6.5 50.5 19.5s31.5 29.833 41.5 50.5z
M727 203.001c0 -32 -9.66895 -60.333 -29.002 -85s-43.333 -37 -72 -37c-38.667 0 -76 26.333 -112 79c-15.333 -24 -32 -43.5 -50 -58.5s-33.333 -22.5 -46 -22.5c-16.667 0 -41.667 16 -75 48c-1.33301 -26.667 -13.5 -49.334 -36.5 -68.001s-51.5 -28 -85.5 -28
c-33.333 0 -67 15.167 -101 45.5s-62.333 69.166 -85 116.499l31 18c36.667 -74.667 78.334 -112 125.001 -112c23.333 0 43.166 6.16699 59.499 18.5s24.5 27.5 24.5 45.5c0 22 -5 40.333 -15 55c-27.333 -15.333 -57 -26.333 -89 -33c-30 35.333 -45 56 -45 62
c0 6.66699 7.33301 10.667 22 12c36 5.33301 63.5 15 82.5 29s28.5 30 28.5 48c0 19.333 -10.667 29 -32 29c-8.66699 0.666992 -27.5 -3.16602 -56.5 -11.499s-50.5 -15.833 -64.5 -22.5l-39 72c48.667 19.333 84.667 29 108 29c34 0 67.833 -15.333 101.5 -46
s50.5 -60.667 50.5 -90c0 -20.667 -11.667 -40 -35 -58c12 -19.333 29 -38.166 51 -56.499s38.667 -27.5 50 -27.5c20 0 51.667 34.667 95 104c38.667 62 78.334 93 119.001 93c32.667 0 60.834 -13.5 84.501 -40.5s35.5 -62.833 35.5 -107.5zM671.998 242.001
c0 36 -12.665 54.001 -37.998 54.001c-12.667 0 -27.834 -9.66699 -45.501 -29s-34.834 -45.333 -51.501 -78c20 -24.667 41.333 -37 64 -37c19.333 0 36 8.66699 50 26s21 38.666 21 63.999z" />
    <glyph glyph-name="Otilde" unicode="&#xd5;" horiz-adv-x="314" 
d="M374 353l-65 1l-40 69l61 1zM372 17c-32 -27.333 -61.334 -41.002 -88.001 -41.002c-33.333 0 -63.5 12.333 -90.5 37s-40.5 50.334 -40.5 77.001c0 23.333 10.5 43.833 31.5 61.5s48.833 27.167 83.5 28.5h-1c-1.33301 0.666992 -17.666 10.667 -48.999 30
c-46 -31.333 -88.667 -51.666 -128 -60.999l-57 53c44.667 12.667 82 28.667 112 48c-22.667 10.667 -41.167 24 -55.5 40s-21.5 30.667 -21.5 44c0 25.333 9.66699 48.333 29 69s43 31 71 31c27.333 0 54 -14.5 80 -43.5s39 -58.167 39 -87.5
c0 -20.667 -11.667 -42 -35 -64c36 -25.333 75.667 -49 119 -71zM226.999 337.998c0 9.33301 -2.66699 16.8311 -8 22.498s-12.333 8.5 -21 8.5c-14.667 0 -27 -5.33301 -37 -16s-15 -24 -15 -40c0 -15.333 10.667 -28.666 32 -39.999c32.667 16.667 49 38.334 49 65.001z
M355.999 109.996l-0.000976562 6.00098c-10.667 10.667 -24.667 16 -42 16c-22 0 -43 -8.33301 -63 -25s-30 -33.334 -30 -50.001c0 -14 8 -21 24 -21c22.667 0 46.834 8 72.501 24s38.5 32.667 38.5 50z" />
    <glyph glyph-name="Odieresis" unicode="&#xd6;" horiz-adv-x="408" 
d="M448 353l-106 -0.00195312v-86c0 -13.333 -5 -20 -15 -20h-152c-30 0 -45 -11 -45 -33c0 -8 2.66699 -14.667 8 -20c21.333 10.667 50.666 16 87.999 16c27.333 0 55.333 -4.66699 84 -14s48.667 -21 60 -35c11.333 -12.667 17 -25.667 17 -39v-184l-66 48l4 100l-74 -42
c10 -17.333 15 -32.666 15 -45.999c0 -11.333 -8.66699 -17 -26 -17c-10 0 -26.5 8.33301 -49.5 25s-34.5 29 -34.5 37c0 9.33301 5.33301 17 16 23l148 88c-9.33301 7.33301 -26 11 -50 11c-44 0 -81.667 -13.5 -113 -40.5s-47 -56.5 -47 -88.5s10 -58.5 30 -79.5
s53 -41.5 99 -61.5l-19 -29c-65.333 34.667 -112.166 67.334 -140.499 98.001s-42.5 65.667 -42.5 105c0 17.333 6.66699 36.5 20 57.5s31 38.5 53 52.5c-27.333 31.333 -41 57.333 -41 78c0 36 23.333 54 70 54h135v42h-274l-40 71h448z" />
    <glyph glyph-name="multiply" unicode="&#xd7;" horiz-adv-x="178" 
d="M79 218c0 -20.667 15.667 -30.999 47 -30.999c17.333 0 37.833 5.16699 61.5 15.5s42.167 21.166 55.5 32.499v4c-6 8.66699 -18.333 15.667 -37 21s-36 8 -52 8c-50 0 -75 -16.667 -75 -50zM-1 353.001l-40 71h241l40 -71h-241zM243 170.001
c-33.333 -22.667 -64.0029 -34 -92.0029 -34c-12.667 0 -27.334 3.33301 -44.001 10c-19.333 -10 -28.666 -24.667 -27.999 -44c0.666992 -8 4.33398 -14.667 11.001 -20s14 -8 22 -8c44.667 0 88.334 20.333 131.001 61l2 -69c-12.667 -12.667 -29.167 -23.167 -49.5 -31.5
s-38.166 -12.5 -53.499 -12.5c-24 0 -49 12.5 -75 37.5s-39 48.167 -39 69.5c0 22 11.333 41 34 57c-27.333 24.667 -41 47.334 -41 68.001c0 19.333 10.333 36.666 31 51.999s47.667 23 81 23c25.333 0 45.333 -4 60 -12c7.33301 -4 16.5 -11.667 27.5 -23
s17.833 -20 20.5 -26h3z" />
    <glyph glyph-name="Oslash" unicode="&#xd8;" horiz-adv-x="414" 
d="M370 347l-7.00098 50.0059c-10.667 10 -30 22.667 -58 38s-54.333 25.666 -79 30.999c-51.333 10.667 -95 5.83398 -131 -14.499s-55 -49.833 -57 -88.5c-2 -40 9 -74.333 33 -103s55.333 -50.334 94 -65.001c-70 -10 -114.333 -36.667 -133 -80
c-16 -36 -14.333 -68.833 5 -98.5s49 -47.834 89 -54.501c21.333 -3.33301 43.333 -3.33301 66 0s43.834 12.666 63.501 27.999s31.5 35.333 35.5 60c4 23.333 -3 43.666 -21 60.999s-38.667 27.666 -62 30.999s-43.666 3 -60.999 -1c15.333 14 39.333 25 72 33l74 -19
l-8 45c-36.667 7.33301 -69.5 22.5 -98.5 45.5s-46.833 49.5 -53.5 79.5c-6 28.667 1.16699 51.667 21.5 69s47.166 23.666 80.499 18.999c42 -6 87 -28 135 -66zM137.999 118.006c16 1.33301 31 0.833008 45 -1.5s26.333 -7.33301 37 -15s16 -18.167 16 -31.5
c0 -16.667 -6.5 -29 -19.5 -37s-29.167 -12 -48.5 -12c-21.333 0 -37.5 5.83301 -48.5 17.5s-14.167 27.167 -9.5 46.5c2 10 11.333 21 28 33zM315.999 306.006l-64 -64l-65 64l64 64z" />
    <glyph glyph-name="Ugrave" unicode="&#xd9;" horiz-adv-x="254" 
d="M313 223l-1 -86.999c-46.667 -38 -86.334 -57 -119.001 -57c-35.333 0 -67.833 16.667 -97.5 50s-49.5 76 -59.5 128c9.33301 1.33301 24 5.5 44 12.5s34 12.833 42 17.5c11.333 6 17 12.667 17 20c0 14 -5.33301 29.333 -16 46h-124l-40 71h294l42 -71h-122
c23.333 -59.333 35 -93.333 35 -102c0 -8 -4.66699 -14.833 -14 -20.5s-26.666 -11.834 -51.999 -18.501c-21.333 -6 -32 -16 -32 -30c0 -23.333 17 -35 51 -35c18 0 41.667 7.5 71 22.5s56.333 32.833 81 53.5z" />
    <glyph glyph-name="Uacute" unicode="&#xda;" horiz-adv-x="483" 
d="M509 37c8 -10.667 14.332 -24.1709 18.999 -40.5039s5.5 -34.333 2.5 -54s-11.167 -36.167 -24.5 -49.5l-66 40c12 9.33301 20.333 22.333 25 39s5.33398 32.334 2.00098 47.001s-12.5 28 -27.5 40s-29.833 20.333 -44.5 25c-20.667 -28 -46.834 -50.333 -78.501 -67
s-62.5 -25 -92.5 -25c-35.333 0 -70 13.5 -104 40.5s-51 53.833 -51 80.5c0 19.333 8 36.333 24 51c-12 10 -24.667 24.167 -38 42.5s-20 34.166 -20 47.499c0 19.333 8.33301 36 25 50s38.334 21 65.001 21c4.66699 0 16.334 -1.33301 35.001 -4l37 -69
c-13.333 3.33301 -30.333 5 -51 5c-13.333 0 -24.333 -3.33301 -33 -10s-13 -15.334 -13 -26.001c0 -11.333 8.33301 -22.666 25 -33.999c6.66699 4 17.667 7.33301 33 10s28 3 38 1l34 -74c-64 0 -96 -14.667 -96 -44c0 -9.33301 3.33301 -16.333 10 -21s18.667 -7 36 -7
c24.667 0 51.167 6.33301 79.5 19s50.5 28.334 66.5 47.001c-66 34 -99 72.667 -99 116c0 21.333 6.66699 39.833 20 55.5s32.666 25.5 57.999 29.5v34h-307l-40 71h528l42 -71h-150v-43c16 -11.333 29.5 -28.166 40.5 -50.499s16.5 -42.166 16.5 -59.499
c0 -31.333 -7.33301 -60.666 -22 -87.999c36 -17.333 68 -42.333 96 -75zM366.999 228.996c0 27.333 -8 40.999 -24 40.999c-12 0 -21.333 -5.33301 -28 -16s-10 -24 -10 -40c0 -25.333 13.667 -48.666 41 -69.999c6 7.33301 11 19.833 15 37.5s6 33.5 6 47.5z" />
    <glyph glyph-name="Ucircumflex" unicode="&#xdb;" horiz-adv-x="322" 
d="M370 353h-372l-40 71h368zM382 232l-2.00195 -98.001c-57.333 -51.333 -103.333 -77 -138 -77c-31.333 0 -61.166 13.333 -89.499 40s-42.5 53 -42.5 79c0 18 3.66699 33.333 11 46l-45 1l-40 70l254 1l42 -72h-48c-31.333 0 -52 -2.66699 -62 -8
c-12 -6 -23 -16.667 -33 -32s-15 -29.666 -15 -42.999c0 -14.667 8.66699 -22 26 -22c50.667 0 111.334 38.333 182.001 115z" />
    <glyph glyph-name="Udieresis" unicode="&#xdc;" horiz-adv-x="403" 
d="M445 353h-120.999v-87c0 -13.333 -6 -20.666 -18 -21.999l-131 1c-28.667 0 -43 -11 -43 -33c0 -7.33301 2.33301 -13.333 7 -18c21.333 10.667 50.333 16 87 16c32 0 57 -4.33301 75 -13s33.667 -23.667 47 -45c28 -45.333 42 -82.666 42 -111.999
c0 -41.333 -33.667 -85.333 -101 -132l-56 46c72 52.667 108 91.667 108 117c0 6 -2 11 -6 15l-128 -88l-57 49l153 102c-6.66699 8 -17.667 12 -33 12c-43.333 0 -80.333 -13 -111 -39s-46 -55 -46 -87c0 -36.667 17.833 -69.834 53.5 -99.501
s83.167 -52.834 142.5 -69.501l-19 -29c-170 50 -255 127 -255 231c0 16.667 6.66699 35.667 20 57s30.666 39 51.999 53c-26.667 29.333 -40 55 -40 77c0 37.333 24 56 72 56h112v42h-255l-40 71h446z" />
    <glyph glyph-name="Yacute" unicode="&#xdd;" horiz-adv-x="392" 
d="M538 234l-56 -57l-56 58l56 58zM583 353l-158.996 -0.00390625v-73c0 -7.33301 -1.83301 -13.166 -5.5 -17.499s-7.83398 -6.5 -12.501 -6.5h-165c-32.667 0 -49 -8 -49 -24c0 -5.33301 2.16699 -10.166 6.5 -14.499s8.83301 -6.5 13.5 -6.5
c2.66699 0 18.5 3.16699 47.5 9.5s47.5 9.5 55.5 9.5c30 0 60 -14.333 90 -43l8.5 -8.5c4.33301 -4.33301 7 -7.16602 8 -8.49902l5.5 -7c2.66699 -3.33301 4.33398 -6.16602 5.00098 -8.49902l2.5 -8.5c1 -3.33301 1.5 -6.66602 1.5 -9.99902
c0 -17.333 -10.5 -33.5 -31.5 -48.5s-48.5 -23.5 -82.5 -25.5v-28c13.333 6 32.666 9 57.999 9c27.333 0 51.666 -10.833 72.999 -32.5s32 -48.834 32 -81.501c0 -20.667 -14.333 -51.334 -43 -92.001l-58 43c33.333 34 49 60.333 47 79c0 9.33301 -3 16.833 -9 22.5
s-14 8.5 -24 8.5c-22.667 0 -48 -7.66699 -76 -23v-140l-69 54l1 96h-57c-28.667 0 -43 -11.667 -43 -35c0 -18.667 19.667 -41 59 -67l-25 -25l-24.5 21l-21.5 18l-16.5 14.5c-6.33301 5.66699 -10.833 10.167 -13.5 13.5s-5.5 7.33301 -8.5 12s-5 9.16699 -6 13.5
s-1.5 9.16602 -1.5 14.499c0 11.333 0.333008 18 1 20h-30l-37 64h223v25c-0.666992 0 -8.83398 2.33301 -24.501 7s-30 9.83398 -43 15.501s-29 13.834 -48 24.501s-37.5 25 -55.5 43s-34.667 38.667 -50 62l34 25c49.333 -81.333 116.333 -122 201 -122
c28 0 51.667 4.33301 71 13s29 18 29 28c0 3.33301 -1.66699 6.83301 -5 10.5s-7.33301 5.5 -12 5.5c-5.33301 0 -23.5 -4.66699 -54.5 -14s-51.833 -14 -62.5 -14c-24.667 0 -48.334 12 -71.001 36s-34 48.667 -34 74c0 43.333 22 65 66 65h152v28h-350l-43 71h587z" />
    <glyph glyph-name="Thorn" unicode="&#xde;" horiz-adv-x="630" 
d="M641 99c10 -22 9.49902 -43.0059 -1.50098 -63.0059s-28.167 -34 -51.5 -42l-64 43c16 2 28.667 9.5 38 22.5s12 27.167 8 42.5c-4 18 -17 32.667 -39 44c-14.667 -32 -33.5 -59 -56.5 -81s-46.833 -37.833 -71.5 -47.5s-50.667 -16.667 -78 -21
s-52.666 -4.16602 -75.999 0.500977c-74 8.66699 -124.333 45.334 -151 110.001c-4.66699 12 -7.66699 22.167 -9 30.5s-1.33301 18.5 0 30.5s7.16602 23.5 17.499 34.5s24.833 21.167 43.5 30.5c-40 30.667 -62.667 65.667 -68 105c-5.33301 28.667 0.5 51.834 17.5 69.501
s39.167 26.5 66.5 26.5c23.333 0 45.666 -6.16699 66.999 -18.5s38 -28.166 50 -47.499s19.833 -39.833 23.5 -61.5s-0.833008 -43 -13.5 -64s-32.667 -37.833 -60 -50.5c-28 -13.333 -47.5 -26.166 -58.5 -38.499s-16.167 -27.166 -15.5 -44.499
c2.66699 -34.667 27.334 -55 74.001 -61c24.667 -3.33301 51 -1.66602 79 5.00098s55.667 20.5 83 41.5s47.333 47.5 60 79.5c-67.333 31.333 -101 73.666 -101 126.999c0 20 7.5 38.333 22.5 55s33.167 26.667 54.5 30c33.333 5.33301 62 -1.5 86 -20.5
s38.333 -45.5 43 -79.5s-2 -72.333 -20 -115c54.667 -20 88.334 -44 101.001 -72zM501.999 295.994c0 22.667 -8 36.667 -24 42c-12.667 3.33301 -23.667 -0.333984 -33 -11.001s-14 -26 -14 -46c0 -26 13 -52 39 -78c6.66699 8.66699 13.667 23.334 21 44.001s11 37 11 49z
M235.999 332.994c0 11.333 -3.16699 20.167 -9.5 26.5s-14.5 9.5 -24.5 9.5c-15.333 0 -26.833 -5.33301 -34.5 -16s-10.5 -22.334 -8.5 -35.001c3.33301 -26 10.333 -47.667 21 -65c17.333 8.66699 31 20.334 41 35.001s15 29.667 15 45zM397.999 503.995l-63 -63l-64 64
l63 63z" />
    <glyph glyph-name="germandbls" unicode="&#xdf;" horiz-adv-x="362" 
d="M421 134l-47 15.001l-208 -146l-61 51l186 126l-52 30c-57.333 -40 -106 -69 -146 -87l-59 52c52 20.667 92.667 42.667 122 66c-30 14.667 -50.667 29.167 -62 43.5s-17 30.833 -17 49.5c0 25.333 9.66699 48.333 29 69s43 31 71 31c27.333 0 53.833 -14.5 79.5 -43.5
s38.5 -58.167 38.5 -87.5c3.33301 -20.667 -5 -42.334 -25 -65.001c41.333 -24.667 91 -47.667 149 -69zM236 338.001c0 9.33301 -2.66699 16.834 -8 22.501s-12.333 8.5 -21 8.5c-15.333 0 -28 -5.33301 -38 -16s-15 -24 -15 -40c0 -17.333 11.667 -33 35 -47
c10.667 4 21.167 13.667 31.5 29s15.5 29.666 15.5 42.999z" />
    <glyph glyph-name="agrave" unicode="&#xe0;" horiz-adv-x="458" 
d="M503 353h-506l-40 71h503zM479 162c0 -38 -12.332 -70.499 -36.999 -97.499s-52.667 -40.5 -84 -40.5c-19.333 0 -36 4.66699 -50 14s-29.333 26 -46 50c-22.667 -42.667 -54 -64 -94 -64c-34.667 0 -65.5 14.667 -92.5 44s-40.5 62.666 -40.5 99.999
c0 38 12 69.333 36 94s53.667 37 89 37c42 0 74.667 -19 98 -57c25.333 38 60 57 104 57c43.333 0 76.666 -20.333 99.999 -61c11.333 -20.667 17 -46 17 -76zM419.001 194.001c0 30.667 -13 46 -39 46c-15.333 0 -30.833 -8.83301 -46.5 -26.5s-33.5 -48.834 -53.5 -93.501
c9.33301 -11.333 17.833 -18.833 25.5 -22.5s18.167 -5.5 31.5 -5.5c21.333 0 40.333 10.333 57 31s25 44.334 25 71.001zM241.001 213.001c-4.66699 4.66699 -12.334 8.83203 -23.001 12.499s-20 5.5 -28 5.5c-23.333 0 -45 -10.833 -65 -32.5s-30 -43.5 -30 -65.5
c0 -14.667 4.33301 -26.5 13 -35.5s20.334 -13.5 35.001 -13.5c14 0 27.833 8.33301 41.5 25s32.5 51.334 56.5 104.001z" />
    <glyph glyph-name="aacute" unicode="&#xe1;" horiz-adv-x="566" 
d="M344 520l-63 -63l-64 64l63 63zM570 99c10 -22 9.66406 -43.002 -1.00293 -63.002s-27.667 -34 -51 -42l-64 43c16 2 28.667 9.5 38 22.5s12 27.167 8 42.5c-5.33301 18.667 -18.333 33.334 -39 44.001c-19.333 -40.667 -47.166 -73.667 -83.499 -99
s-70.166 -41 -101.499 -47s-58.666 -7 -81.999 -3c-76.667 13.333 -126.667 50 -150 110c-4.66699 12 -7.66699 22.333 -9 31s-1.33301 18.834 0 30.501s7 23 17 34s24.333 21.167 43 30.5c-38 29.333 -60.667 64.333 -68 105c-0.666992 3.33301 -1 8.33301 -1 15h-21
l-40 71h584l42 -71h-121c13.333 -24.667 20.333 -52.5 21 -83.5s-6.33301 -63.833 -21 -98.5c54.667 -20.667 88 -44.667 100 -72zM430.997 309.998c0 28.667 -8.33301 44.332 -25 46.999c-12 1.33301 -22.5 -5.66699 -31.5 -21s-13.5 -33.666 -13.5 -54.999
c0 -25.333 12.667 -51.333 38 -78c6.66699 8 13.667 24.667 21 50s11 44.333 11 57zM181.997 332.996c0 6.66699 -1.66699 13.332 -5 19.999h-64c-7.33301 -11.333 -10 -23 -8 -35c3.33301 -26 10.333 -47.667 21 -65c17.333 8.66699 31 20.334 41 35.001s15 29.667 15 45z
M384.997 173.994c-68 31.333 -101.999 73.668 -101.999 127.001c0 14.667 5 32 15 52h-68c12.667 -18 20 -36.667 22 -56s-3.16699 -38.5 -15.5 -57.5s-31.833 -34.833 -58.5 -47.5c-28 -13.333 -47.5 -26.333 -58.5 -39s-15.833 -27.334 -14.5 -44.001
c1.33301 -30.667 25.666 -51 72.999 -61c16 -3.33301 37.167 -1.66602 63.5 5.00098s53.833 20.667 82.5 42s49 47.666 61 78.999z" />
    <glyph glyph-name="acircumflex" unicode="&#xe2;" horiz-adv-x="149" 
d="M188 353h-246l-40 71h243zM132 134c0 -16 -4.66699 -37.168 -14 -63.501s-19.666 -47.833 -30.999 -64.5l-69 50c13.333 22 25.666 46.167 36.999 72.5s17 44.5 17 54.5c0 6 -2.33301 11.333 -7 16s-9.66699 7 -15 7c-10.667 0 -31.167 -7.83301 -61.5 -23.5
s-51.5 -29.167 -63.5 -40.5v95c10 6.66699 26.5 13.834 49.5 21.501s39.167 11.5 48.5 11.5c28 0 53.167 -13.333 75.5 -40s33.5 -58.667 33.5 -96z" />
    <glyph glyph-name="atilde" unicode="&#xe3;" horiz-adv-x="366" 
d="M430 353l-159.994 0.000976562v-88c0 -14.667 -5.33301 -22 -16 -22l-132 1c-8.66699 -0.666992 -16.167 -4.66699 -22.5 -12s-9.5 -16 -9.5 -26c0 -14 4.33301 -21 13 -21c1.33301 0 17.333 3.5 48 10.5s49 10.5 55 10.5c16.667 0 27.667 -3.33301 33 -10
c25.333 -2 57.666 0 96.999 6s68.666 19.333 87.999 40l1 -168l-85 -113l-59 49l128 139c-16.667 -2.66699 -43 -4 -79 -4c-16 0 -30.667 3 -44 9s-22 9 -26 9h3c6.66699 -7.33301 13.5 -18.5 20.5 -33.5s10.5 -28.833 10.5 -41.5c0 -19.333 -14.333 -41 -43 -65
s-60.334 -38 -95.001 -42l58 -96l-34 -21c-32.667 60.667 -51.667 94.334 -57 101.001c-6.66699 8.66699 -16.667 13 -30 13c-8.66699 0.666992 -17.834 3.66699 -27.501 9s-16.167 11.666 -19.5 18.999c-2.66699 5.33301 -4 23.666 -4 54.999
c0 7.33301 2.66699 13.833 8 19.5s11.666 8.5 18.999 8.5c19.333 0 34.333 -14.333 45 -43c34 2 62.5 12.333 85.5 31s34.5 34.667 34.5 48c0 6.66699 -4 10 -12 10c-2.66699 0 -15 -3.5 -37 -10.5s-38.333 -10.5 -49 -10.5c-20.667 0 -42.667 15 -66 45s-35 58 -35 84
c0 22 5.16699 39.167 15.5 51.5s22.166 17.833 35.499 16.5h111v42h-199l-40 71h429z" />
    <glyph glyph-name="adieresis" unicode="&#xe4;" horiz-adv-x="17" 
d="M80 353h-157l-40 71h154zM63 175c-7.33301 4.66699 -19.667 7 -37 7c-8.66699 0 -25 -3 -49 -9s-41.667 -13.667 -53 -23v81c6.66699 5.33301 19.667 10.5 39 15.5s35 7.5 47 7.5c20 0 36 -2.66699 48 -8z" />
    <glyph glyph-name="aring" unicode="&#xe5;" horiz-adv-x="262" 
d="M366 353h-100.999v-88c0 -14.667 -5.33301 -22 -16 -22h-106c-16 0 -27.167 -2.33301 -33.5 -7s-9.5 -12.667 -9.5 -24s3.66699 -20 11 -26c8.66699 5.33301 23.5 10.833 44.5 16.5s38.833 8.5 53.5 8.5c51.333 0 95.666 -10.333 132.999 -31v-39
c-18.667 12 -53.334 18 -104.001 18c-29.333 0 -56 -9.5 -80 -28.5s-36 -39.167 -36 -60.5c0 -52 49.667 -90.667 149 -116l-17 -32c-66 15.333 -117.333 38.333 -154 69s-55 63 -55 97c0 27.333 11.667 53 35 77c-11.333 12.667 -21.666 28 -30.999 46s-14 32.667 -14 44
c0 37.333 24 56 72 56h85v42h-195l-40 71h367z" />
    <glyph glyph-name="ae" unicode="&#xe6;" horiz-adv-x="566" 
d="M621 353l-93.0029 -0.00488281v-87c0 -14 -5.33301 -21 -16 -21h-142c-18.667 0 -33.667 -6.16699 -45 -18.5s-17 -29.166 -17 -50.499c0 -24.667 7.83301 -43.667 23.5 -57s31.5 -20 47.5 -20c12.667 0 24.334 2.83301 35.001 8.5s16 10.834 16 15.501
c0 2.66699 -2 7.66699 -6 15s-6 15.333 -6 24c0 5.33301 2.83301 10.5 8.5 15.5s12.167 7.5 19.5 7.5c12.667 0 31.334 -9.33301 56.001 -28s37 -35.334 37 -50.001c0 -16.667 -9.66699 -31 -29 -43l85 -111l-38 -19l-77 100c-33.333 -65.333 -78.333 -98 -135 -98
c-12.667 0 -27.834 2.83301 -45.501 8.5s-35 16.334 -52 32.001s-25.5 34.167 -25.5 55.5c-20 -4 -40 -6 -60 -6c-6 0 -14.833 1.33301 -26.5 4s-25.667 7.33398 -42 14.001s-30.166 17.334 -41.499 32.001s-17 31.667 -17 51c0 22.667 8.5 42.5 25.5 59.5
s38.833 25.5 65.5 25.5c22.667 0 41.334 -7.33301 56.001 -22s22 -31 22 -49c0 -12.667 -4.5 -25 -13.5 -37s-20.5 -20.333 -34.5 -25h1c14.667 -6 32 -9 52 -9h18c3.33301 9.33301 10 17.833 20 25.5s21 12.5 33 14.5c-24.667 34.667 -37 73.334 -37 116.001
c0 58 33.667 87 101 87h111v40h-459l-40 71h622zM406.997 38.9951c-28 5.33301 -52 13.999 -72 25.999c-35.333 -14.667 -53 -32 -53 -52c0 -9.33301 3.16699 -17.166 9.5 -23.499s14.833 -9.5 25.5 -9.5c27.333 0 57.333 19.667 90 59zM164.997 139.994
c0 7.33301 -3 13.832 -9 19.499s-13 8.5 -21 8.5c-9.33301 0 -17 -3.16699 -23 -9.5s-9 -14.5 -9 -24.5c0 -19.333 7.33301 -32.666 22 -39.999c10.667 4.66699 20 11.5 28 20.5s12 17.5 12 25.5z" />
    <glyph glyph-name="ccedilla" unicode="&#xe7;" horiz-adv-x="310" 
d="M354 353h-150.001v-34c18 -1.33301 36 -12.333 54 -33s27 -43 27 -67c0 -23.333 -5 -45.333 -15 -66s-22.667 -37.834 -38 -51.501s-27.5 -23.834 -36.5 -30.501s-17.5 -12 -25.5 -16l55 -91l-35 -21c-30.667 46.667 -50 78.334 -58 95.001c-6 8.66699 -14.333 13 -25 13
c-6 0 -15 1.5 -27 4.5s-20.667 6.5 -26 10.5c-12.667 12.667 -19 39.334 -19 80.001c0 8.66699 3.83301 16.167 11.5 22.5s16.167 9.5 25.5 9.5c10.667 0 22 -12.333 34 -37c4 -7.33301 8 -11 12 -11c14.667 0 38.834 9 72.501 27s50.5 39.667 50.5 65
c0 11.333 -5.83301 20.5 -17.5 27.5s-22.167 10.5 -31.5 10.5c-13.333 0 -29.5 -3.33301 -48.5 -10s-34.833 -13.334 -47.5 -20.001l-18 -10l-43 74c36.667 14.667 71 24.334 103 29.001v30h-142l-40 71h355z" />
    <glyph glyph-name="egrave" unicode="&#xe8;" horiz-adv-x="483" 
d="M526 353l-156.001 0.000976562v-56c26.667 -6.66699 49.167 -21.667 67.5 -45s27.5 -46.666 27.5 -69.999c0 -11.333 -7.66699 -26.833 -23 -46.5s-46 -52.834 -92 -99.501c-8.66699 -8.66699 -13 -16.667 -13 -24c0 -5.33301 2.33301 -10.333 7 -15s10.667 -7 18 -7
c19.333 0 48 20.333 86 61l65 -42c-34 -44.667 -74.667 -67 -122 -67c-24.667 0 -51.167 10.833 -79.5 32.5s-42.5 42.834 -42.5 63.501c0 20 8.66699 38.667 26 56c28.667 26 52.834 51 72.501 75s29.5 41 29.5 51c-2 20 -12 30 -30 30c-28 0 -67 -41 -117 -123l-67 38
c14 29.333 23.333 47.333 28 54c-10 15.333 -25.333 23 -46 23c-18 0 -32.833 -7.33301 -44.5 -22s-17.5 -32.667 -17.5 -54c0 -19.333 9.5 -43.833 28.5 -73.5s38.5 -52.167 58.5 -67.5l-31 -28c-34.667 33.333 -64 69.166 -88 107.499s-36 69.833 -36 94.5
c0 31.333 10.167 58.166 30.5 80.499s43.833 33.5 70.5 33.5c31.333 0 63.333 -21 96 -63c22.667 25.333 43 41.333 61 48v55h-294l-40 71h525z" />
    <glyph glyph-name="eacute" unicode="&#xe9;" horiz-adv-x="354" 
d="M152 386c-15.333 -15.333 -24.832 -34.334 -28.499 -57.001s-0.5 -42.5 9.5 -59.5s26 -25.5 48 -25.5c28.667 0 49.834 11.667 63.501 35s20.5 51 20.5 83c0 6 -0.666992 11.833 -2 17.5s-2.5 9.83398 -3.5 12.501s-3.16699 7.16699 -6.5 13.5l-7 13.5l50 -50
c18.667 -18.667 28 -42.334 28 -71.001c0 -27.333 -9.33301 -51.666 -28 -72.999s-41.834 -32.833 -69.501 -34.5s-56.834 11.5 -87.501 39.5l-50 51c-22 26 -31 52.667 -27 80s17.333 52.333 40 75zM134.001 -24.001l-52 49.999c-12 13.333 -18 32.333 -18 57
c0 30.667 11.167 54.5 33.5 71.5s47.666 24.833 75.999 23.5s51.166 -10.666 68.499 -27.999l51 -51c23.333 -23.333 35.333 -48.833 36 -76.5s-10.666 -49.167 -33.999 -64.5l-50 50c14.667 9.33301 22.834 22.833 24.501 40.5s-3 33.667 -14 48s-26.167 21.5 -45.5 21.5
c-25.333 0 -47 -6.83301 -65 -20.5s-27 -35.5 -27 -65.5c0 -8.66699 2.66699 -20 8 -34s8 -21.333 8 -22z" />
    <glyph glyph-name="ecircumflex" unicode="&#xea;" 
d="M159 -95c0 -38 -22.667 -73.334 -68 -106.001l-37 35c20 14.667 33.667 27.667 41 39s11 24.666 11 39.999c0 12 -3.83301 21.833 -11.5 29.5s-18.167 11.5 -31.5 11.5s-29.666 -10.5 -48.999 -31.5s-33.666 -42.167 -42.999 -63.5l-60 37
c1.33301 2.66699 4.33301 7.83398 9 15.501s7.66699 12.5 9 14.5c-6 6.66699 -11.167 11.667 -15.5 15s-11.333 6.66602 -21 9.99902s-21.167 5 -34.5 5c-14.667 0 -29.667 -5.33301 -45 -16s-23 -24 -23 -40c0 -13.333 2.66699 -25.166 8 -35.499
s14.666 -24.166 27.999 -41.499l-26 -21l-25.5 25.5c-11 11 -18 18.333 -21 22s-7 9 -12 16s-8 13.833 -9 20.5s-1.5 14.667 -1.5 24c0 24.667 8.66699 47.334 26 68.001s43.666 31 78.999 31c22.667 0 45.167 -6 67.5 -18s37.5 -24.333 45.5 -37
c6 9.33301 18.333 19.666 37 30.999s38 17 58 17c30 0 56.667 -10.667 80 -32s35 -43 35 -65z" />
    <glyph glyph-name="edieresis" unicode="&#xeb;" horiz-adv-x="318" 
d="M385 353h-62l-40 71h59zM373 148c-48.667 16.667 -92.999 37.334 -132.999 62.001c-54.667 -38 -103.334 -67 -146.001 -87l-60 52c53.333 21.333 94.333 43.333 123 66c-30 14.667 -50.667 29.167 -62 43.5s-17 30.833 -17 49.5c0 25.333 9.66699 48.333 29 69
s43 31 71 31c27.333 0 53.833 -14.5 79.5 -43.5s38.5 -58.167 38.5 -87.5c3.33301 -20.667 -5 -42.334 -25 -65.001c19.333 -14.667 53.333 -31 102 -49v-41zM237.001 338c0 9.33301 -2.66699 16.834 -8 22.501s-12.333 8.5 -21 8.5c-15.333 0 -28 -5.33301 -38 -16
s-15 -24 -15 -40c0 -17.333 11.667 -33 35 -47c10.667 4 21.167 13.667 31.5 29s15.5 29.666 15.5 42.999z" />
    <glyph glyph-name="igrave" unicode="&#xec;" horiz-adv-x="58" 
d="M38 363l-39 51h57l41 -51h-59z" />
    <glyph glyph-name="iacute" unicode="&#xed;" horiz-adv-x="114" 
d="M38 363l-39 51h114l41 -51h-116z" />
    <glyph glyph-name="ntilde" unicode="&#xf1;" horiz-adv-x="403" 
d="M462 353l-117.997 0.000976562v-72c0 -6.66699 -1.83301 -12.167 -5.5 -16.5s-7.83398 -6.5 -12.501 -6.5h-129c-15.333 0 -26 -2.5 -32 -7.5s-9 -13.5 -9 -25.5s9 -18 27 -18c2 0 17.667 3.16699 47 9.5s47.666 9.5 54.999 9.5c18 0 31.333 -2.66699 40 -8
s18 -17 28 -35c16.667 -26.667 25 -46.334 25 -59.001c0 -18.667 -12.167 -37.167 -36.5 -55.5s-52.5 -27.5 -84.5 -27.5c-6.66699 0 -15.667 1 -27 3s-18.666 3 -21.999 3c-8.66699 0 -17 -3.5 -25 -10.5s-12 -14.5 -12 -22.5c0 -10.667 7 -16 21 -16
c0.666992 0 15.167 3 43.5 9s46.5 9 54.5 9c18 0 31.5 -2.66699 40.5 -8s18.833 -17 29.5 -35c14.667 -24 22 -43.667 22 -59c0 -23.333 -12.167 -43.5 -36.5 -60.5s-57.5 -25.5 -99.5 -25.5c-72 0 -143 46 -213 138l27 24c50.667 -68 102.334 -102 155.001 -102
c31.333 0 57.833 5.16699 79.5 15.5s32.5 21.5 32.5 33.5c0 9.33301 -5.66699 14 -17 14c-4.66699 0 -19 -2.83301 -43 -8.5s-40 -8.5 -48 -8.5c-26.667 0 -50.5 10.333 -71.5 31s-31.5 42 -31.5 64c0 18.667 8.33301 35.667 25 51c-30.667 18.667 -57 42 -79 70l24 24
c29.333 -28.667 55.166 -48 77.499 -58s47.166 -15 74.499 -15c21.333 0 40.666 5 57.999 15s26 20.333 26 31c0 9.33301 -5.66699 14 -17 14c-6 0 -20.667 -3.16699 -44 -9.5s-38.333 -9.5 -45 -9.5c-26.667 0 -52.5 14 -77.5 42s-37.5 53.333 -37.5 76
c0 41.333 21.333 62 64 62h114v31h-283l-40 71h464z" />
    <glyph glyph-name="ograve" unicode="&#xf2;" horiz-adv-x="288" 
d="M332 353h-334l-40 71h331zM390 294l-20 -70l-116 -1c-16 0 -30 -7.83301 -42 -23.5s-18 -33.167 -18 -52.5c0 -32.667 19 -71.667 57 -117l-28 -23c-64.667 73.333 -97 133.333 -97 180c0 9.33301 1.33301 21.333 4 36l-54 1l-40 70h354z" />
    <glyph glyph-name="oacute" unicode="&#xf3;" horiz-adv-x="343" 
d="M391 353l-113.001 -0.00390625v-93c0 -10 -7.66699 -15.333 -23 -16l-82 -6c-55.333 -2 -83 -15.333 -83 -40c0 -15.333 5.83301 -27.833 17.5 -37.5s28.5 -14.5 50.5 -14.5c20 0 43.333 4.5 70 13.5s49.334 19.5 68.001 31.5l34 -68
c-22 -16.667 -39.333 -25.667 -52 -27v-99c0 -10 -7.66699 -15.333 -23 -16l-82 -7c-16.667 -1.33301 -27.667 -2.16602 -33 -2.49902s-13.166 -1.66602 -23.499 -3.99902s-17.333 -5.5 -21 -9.5s-5.5 -9.33301 -5.5 -16c0 -15.333 5.83301 -27.833 17.5 -37.5
s28.5 -14.5 50.5 -14.5c20 0 43.333 4.5 70 13.5s49.334 19.833 68.001 32.5l34 -68c-11.333 -10 -29.333 -18.833 -54 -26.5s-49.334 -11.5 -74.001 -11.5c-48 0 -87.833 13.833 -119.5 41.5s-47.5 59.5 -47.5 95.5c0.666992 23.333 7.66699 40.5 21 51.5
s33.666 17.833 60.999 20.5l72 5c14 0.666992 21 3.33398 21 8.00098v34c-56 -1.33301 -99.167 13.834 -129.5 45.501s-45.5 64.5 -45.5 98.5c0 23.333 6.66699 40.666 20 51.999s34 18 62 20l72 5c14 0.666992 21 3.33398 21 8.00098v38h-211l-40 71h390z" />
    <glyph glyph-name="ocircumflex" unicode="&#xf4;" horiz-adv-x="357" 
d="M409 353l-87.0029 -0.00292969v-87c0 -6 -1.66699 -11 -5 -15s-7 -6 -11 -6h-143c-18.667 0 -33.5 -6 -44.5 -18s-16.5 -29 -16.5 -51c0 -24.667 7.66699 -43.667 23 -57s31.333 -20 48 -20c12.667 0 24.334 2.83301 35.001 8.5s16 10.834 16 15.501
c0 2.66699 -2 7.66699 -6 15s-6 15.333 -6 24c0 5.33301 2.66699 10.5 8 15.5s12 7.5 20 7.5c12.667 0 31.334 -9.5 56.001 -28.5s37 -35.5 37 -49.5c0 -17.333 -10 -31.666 -30 -42.999l62 -128l-39 -19l-36 88c4 -24 -8 -45.833 -36 -65.5s-56 -29.5 -84 -29.5
c-39.333 0 -71.333 11.167 -96 33.5s-37 45.5 -37 69.5c0 16.667 6 32.5 18 47.5s25 24.833 39 29.5l-4 4c-3.33301 2.66699 -5.66602 4.66699 -6.99902 6l-7 7c-3.33301 3.33301 -6 6.5 -8 9.5l-7.5 11.5c-3 4.66699 -5.5 9.33398 -7.5 14.001s-4 10.167 -6 16.5
s-3.66699 12.833 -5 19.5s-2.5 14.167 -3.5 22.5s-1.5 16.833 -1.5 25.5c0 58 33.667 87 101 87h111v40h-253l-40 71h410zM235.997 35.9971v2c0 0.666992 -0.666992 1 -2 1c-5.33301 -0.666992 -11 -1 -17 -1c-19.333 0 -36.333 3.66699 -51 11l35 -60
c9.33301 4.66699 17.5 11.667 24.5 21s10.5 18 10.5 26zM169.997 -27.0029l-38 65c-10 -4 -18.333 -10.5 -25 -19.5s-10 -17.833 -10 -26.5c0 -7.33301 3.66699 -13.5 11 -18.5s17 -7.5 29 -7.5c9.33301 0 20.333 2.33301 33 7z" />
    <glyph glyph-name="otilde" unicode="&#xf5;" horiz-adv-x="344" 
d="M393 353l-94.998 0.000976562v-91c0 -9.33301 -1.66699 -15.5 -5 -18.5s-10 -4.5 -20 -4.5h-97c-17.333 0 -31.166 -4.83301 -41.499 -14.5s-15.5 -22.5 -15.5 -38.5c0 -12.667 8.66699 -23.834 26 -33.501s37.666 -14.5 60.999 -14.5c8 4 12 7 12 9
s-1.83301 6.83301 -5.5 14.5s-5.5 12.834 -5.5 15.501c0 6.66699 2.83301 12.167 8.5 16.5s13.167 6.5 22.5 6.5c12 0 29 -8.33301 51 -25s33 -30 33 -40c0 -16 -11 -28.667 -33 -38l91 -93l-38 -19l-88 97c-5.33301 -2.66699 -11.333 -4 -18 -4l-168 -108l-62 49l162 71
c-0.666992 0 -1.83398 0.5 -3.50098 1.5s-2.83398 1.83301 -3.50098 2.5c-29.333 15.333 -54.5 35.666 -75.5 60.999s-31.5 49 -31.5 71c0 54 32.333 81 97 81h74v46h-226l-40 71h391z" />
    <glyph glyph-name="odieresis" unicode="&#xf6;" horiz-adv-x="322" 
d="M363 353l-82.999 0.000976562v-91c0 -12.667 -4.66699 -19 -14 -19h-123c-16.667 0 -28.334 -2.16699 -35.001 -6.5s-10 -11.833 -10 -22.5c0 -15.333 8 -25.666 24 -30.999c26 14.667 62 22 108 22c21.333 -22.667 32 -40.334 32 -53.001
c0 -6 -4.83301 -11.167 -14.5 -15.5s-23.167 -6.5 -40.5 -6.5h-41c-11.333 0 -20.166 -4.83301 -26.499 -14.5s-9.5 -20.834 -9.5 -33.501c0 -14 5.66699 -26.333 17 -37s24 -16 38 -16c22 0 38 7 48 21c-7.33301 17.333 -11 29.333 -11 36c0 4.66699 2 9.16699 6 13.5
s9.33301 6.5 16 6.5c10.667 0 26 -5.66699 46 -17s30 -21.666 30 -30.999c0 -18 -11.333 -35 -34 -51l59 -101l-34 -20l-51 109c-8 -4 -18.333 -6 -31 -6c-42.667 0 -81.334 13.167 -116.001 39.5s-52 52.166 -52 77.499s10.667 44.333 32 57
c-37.333 31.333 -56 61.333 -56 90c0 36 23.333 54 70 54h104v46h-211l-40 71h363z" />
    <glyph glyph-name="divide" unicode="&#xf7;" horiz-adv-x="464" 
d="M529 234l-58 -57l-56 57l56 59zM581 353l-162.003 0.00390625l-1 -73c0 -16 -6 -24 -18 -24h-160c-32.667 0 -49 -8 -49 -24c0 -4.66699 2.16699 -9.33398 6.5 -14.001s8.83301 -7 13.5 -7c2.66699 0 18.5 3.16699 47.5 9.5s47.5 9.5 55.5 9.5c30 0 60 -14.333 90 -43
c20.667 -22 31 -41.667 31 -59c0 -14 -5.33301 -27.333 -16 -40v-258l-74 45l2 112c-46.667 -22 -95.667 -19 -147 9c-26 -12 -44 -21.833 -54 -29.5s-15.333 -16.834 -16 -27.501c0 -6.66699 3.33301 -13.167 10 -19.5s14.334 -9.5 23.001 -9.5c24 0 39.667 4.66699 47 14
c-5.33301 12.667 -8.66602 21.334 -9.99902 26.001c-2 6.66699 -0.333008 12.167 5 16.5s12.333 5.16602 21 2.49902c9.33301 -2 21.5 -8.66699 36.5 -20s23.5 -21 25.5 -29c2 -10 -5.33301 -20.333 -22 -31l56 -54l-33 -20l-53 64c-16.667 -6 -34.667 -9 -54 -9
c-26.667 0 -52.667 10.667 -78 32s-38 43.666 -38 66.999c0 18.667 18 38 54 58c-30.667 21.333 -46 41.333 -46 60c0 4 0.333008 7.66699 1 11s1.33398 6.16602 2.00098 8.49902s2 4.66602 4 6.99902l5 6c1.33301 1.66699 3.33301 3.83398 6 6.50098s4.66699 5 6 7
c-30 32 -52.333 60.333 -67 85l34 25c52.667 -86.667 119.667 -130 201 -130c27.333 0 50.833 5.5 70.5 16.5s29.5 21.833 29.5 32.5c0 3.33301 -1.5 6.83301 -4.5 10.5s-6.83301 5.5 -11.5 5.5c-5.33301 0 -23.666 -4.66699 -54.999 -14s-52.333 -14 -63 -14
c-24.667 0 -48.334 12 -71.001 36s-34 48.667 -34 74c0 44 22.333 66 67 66h147v27h-344l-43 71h584zM345.997 46.0039l0.00195312 15.9971c-36.667 -10.667 -69 -12 -97 -4c10 -13.333 4.66699 -25.666 -16 -36.999c25.333 -9.33301 47.666 -10.666 66.999 -3.99902
s34.666 16.334 45.999 29.001zM189.999 72.001c0 7.33301 -2.83203 13.501 -8.49902 18.501s-12.834 7.5 -21.501 7.5c-7.33301 0 -13.5 -2.66699 -18.5 -8s-7.5 -11.333 -7.5 -18c0 -4.66699 8 -13.334 24 -26.001c21.333 7.33301 32 16 32 26z" />
    <glyph glyph-name="oslash" unicode="&#xf8;" horiz-adv-x="149" 
d="M113 353h-246l-40 71h243zM57 134c0 -16 -4.66699 -37.168 -14 -63.501s-19.666 -47.833 -30.999 -64.5l-69 50c13.333 22 25.666 46.167 36.999 72.5s17 44.5 17 54.5c0 6 -2.33301 11.333 -7 16s-9.66699 7 -15 7c-10.667 0 -31.167 -7.83301 -61.5 -23.5
s-51.5 -29.167 -63.5 -40.5v95c10 6.66699 26.5 13.834 49.5 21.501s39.167 11.5 48.5 11.5c28 0 53.167 -13.333 75.5 -40s33.5 -58.667 33.5 -96z" />
    <glyph glyph-name="ugrave" unicode="&#xf9;" horiz-adv-x="348" 
d="M397 353l-138 0.00195312v-87c0 -15.333 -5.33301 -23 -16 -23h-100c-16 0 -27.167 -2.16699 -33.5 -6.5s-9.5 -11.833 -9.5 -22.5c0 -10 3.66699 -18.667 11 -26c26.667 16.667 63.667 25 111 25c20 0 40.333 -12.333 61 -37s31 -42.667 31 -54
c0 -10.667 -16 -26.667 -48 -48c-12 -7.33301 -18 -14 -18 -20c0 -8 5.66699 -12 17 -12c9.33301 0 20.666 2.16699 33.999 6.5s22 9.16602 26 14.499l49 -57c-19.333 -13.333 -41.666 -20 -66.999 -20c-34.667 0 -65.334 10 -92.001 30s-40 40.667 -40 62
c0 10.667 5 18.667 15 24c42.667 31.333 64 48.333 64 51c0 4 -1.5 7.66699 -4.5 11s-6.16699 5 -9.5 5c-30 0 -57.167 -11.667 -81.5 -35s-36.5 -44 -36.5 -62c0 -14 3.16699 -26.833 9.5 -38.5s13.666 -21.5 21.999 -29.5s20.833 -16.167 37.5 -24.5
s30.834 -14.666 42.501 -18.999l50.5 -18.5l-18 -36c-22 8.66699 -38 15.167 -48 19.5l-47.5 21.5c-21.667 10 -38.167 19.167 -49.5 27.5s-23.833 18.5 -37.5 30.5s-23.5 25 -29.5 39s-9 28.667 -9 44c0 27.333 11.667 52.666 35 75.999
c-11.333 13.333 -21.666 29.166 -30.999 47.499s-14 32.833 -14 43.5c0 37.333 24 56 72 56h79v42h-188l-40 71h396z" />
    <glyph glyph-name="uacute" unicode="&#xfa;" horiz-adv-x="367" 
d="M418 353l-135.999 0.00195312c2 -10 3 -21.333 3 -34c0 -8.66699 -1.66699 -19.667 -5 -33c14 -12 24.667 -21.667 32 -29s14.333 -16.5 21 -27.5s10 -21.5 10 -31.5c0 -19.333 -6.5 -38.166 -19.5 -56.499s-28.5 -32.833 -46.5 -43.5c2 -12 3 -22 3 -30
c0 -14.667 -2 -27.334 -6 -38.001c45.333 -36.667 68 -67.334 68 -92.001c0 -28 -13.833 -53 -41.5 -75s-61.834 -33 -102.501 -33c-42.667 0 -80.667 15.167 -114 45.5s-50 62.833 -50 97.5c0 19.333 6 36 18 50s29.333 23 52 27c14.667 2.66699 43.667 4 87 4
c14 0 21 6 21 18v14c-52 0.666992 -94.5 15 -127.5 43s-49.5 59.333 -49.5 94c0 30 8.5 51.667 25.5 65s42.833 20 77.5 20h62c4.66699 0 8.66699 2.16699 12 6.5s5 9.16602 5 14.499c0 12 -0.666992 20 -2 24h-217l-40 71h418zM275.001 216.002
c0 11.333 -3.66699 18.166 -11 20.499s-28 3.5 -62 3.5c-36.667 0 -63.667 -3.66699 -81 -11s-26 -21 -26 -41c0 -13.333 7 -23.666 21 -30.999s31.333 -11 52 -11c30 0 55.333 7.16699 76 21.5s31 30.5 31 48.5zM274.001 -42.998c0 14 -4.33301 22.335 -13 25.002
s-30.667 4 -66 4c-38 0 -64.333 -4.33301 -79 -13s-22 -22.334 -22 -41.001c0 -12.667 6.16699 -22.834 18.5 -30.501s27.5 -11.5 45.5 -11.5c32 0 59.333 7.5 82 22.5s34 29.833 34 44.5z" />
    <glyph glyph-name="ucircumflex" unicode="&#xfb;" horiz-adv-x="392" 
d="M445 353h-93.002v-87c0 -14 -5.33301 -21 -16 -21h-158c-52 0 -78 -17.667 -78 -53c0 -24 9.83301 -41.5 29.5 -52.5s38.834 -16.5 57.501 -16.5c13.333 0 27.833 2.83301 43.5 8.5s23.5 10.834 23.5 15.501c0 2.66699 -2 7.66699 -6 15s-6 15.333 -6 24
c0 5.33301 2.83301 10.5 8.5 15.5s12.167 7.5 19.5 7.5c12.667 0 31.334 -9.33301 56.001 -28s37 -35.334 37 -50.001c0 -16.667 -9.66699 -31 -29 -43l61 -88l-38 -19l-59 89c-15.333 -6 -39 -9.5 -71 -10.5s-55.333 0.833008 -70 5.5v-114c0 -12.667 -7 -19 -21 -19
c-17.333 0 -40 7.83301 -68 23.5s-42 28.5 -42 38.5c0 10.667 4.66699 16 14 16h46v92c-44.667 30 -67 71.333 -67 124c0 34 10.833 57 32.5 69s55.167 18 100.5 18h127v40h-285l-40 71h448z" />
    <glyph glyph-name="udieresis" unicode="&#xfc;" 
d="M-65 126l-177 -144l-58 48l234 144z" />
    <glyph glyph-name="yacute" unicode="&#xfd;" horiz-adv-x="573" 
d="M622 353l-269.995 0.00585938v-140c22 -0.666992 38 11.666 48 36.999v33c0 14.667 8.66699 22 26 22c15.333 0 36.666 -11.667 63.999 -35c8 -6.66699 12 -14 12 -22c0 -7.33301 -5.33301 -16 -16 -26s-24.667 -18 -42 -24c10.667 -8.66699 40 -39.334 88 -92.001
c-6.66699 -4.66699 -20.5 -12 -41.5 -22s-37.667 -19.833 -50 -29.5s-18.5 -19.834 -18.5 -30.501c0 -6.66699 4.5 -11.834 13.5 -15.501s22.833 -3.83398 41.5 -0.500977s39 11.333 61 24l4 -11l9 -24.5c3.33301 -9 5.66602 -14.5 6.99902 -16.5
c-59.333 -22 -95 -38.333 -107 -49c-8.66699 -6.66699 -12.667 -13.667 -12 -21c1.33301 -12.667 13 -19 35 -19c15.333 0 32.166 3.33301 50.499 10s31.833 13 40.5 19l23 -57c-36 -16 -70 -24 -102 -24c-13.333 0 -33.666 8.33301 -60.999 25s-41.333 36 -42 58
c-0.666992 17.333 13.666 34.666 42.999 51.999c-12 2.66699 -24 10.167 -36 22.5s-18 29.166 -18 50.499c0 16.667 7 31.834 21 45.501s28 23.167 42 28.5l21 8c-12.667 15.333 -29.667 32.333 -51 51c-24.667 -4.66699 -42.334 -5.66699 -53.001 -3l-1 -183l-69 51l-2 96
l-170 -103l-52 47l197 120c-8 8.66699 -22.333 16.167 -43 22.5s-40 9.5 -58 9.5c-20 0 -44.333 -7.66699 -73 -23l-42 59c35.333 18.667 65.666 28 90.999 28c50 0 99.667 -25 149 -75l1 127h-280l-38 71h622z" />
    <glyph glyph-name="thorn" unicode="&#xfe;" horiz-adv-x="432" 
d="M486 353l-139.003 -0.00390625l-1 -88c0 -7.33301 -2 -13.166 -6 -17.499s-8.66699 -6.5 -14 -6.5h-151c-15.333 0 -26.666 -3.33301 -33.999 -10s-10.5 -14.167 -9.5 -22.5s3.16699 -16.166 6.5 -23.499c22 10 52.667 15 92 15c32.667 0 66 -5.5 100 -16.5
s57 -23.833 69 -38.5c12 -15.333 18 -29.333 18 -42v-221l-73 49l4 188c0 4.66699 -4.66699 8.83398 -14 12.501s-19.666 5.83398 -30.999 6.50098l-1 -114c0 -20 -4.5 -36.5 -13.5 -49.5s-21.833 -19.5 -38.5 -19.5c-20 0 -44 11.167 -72 33.5s-42 41.5 -42 57.5l-2 53
c-24.667 -22 -37 -47.333 -37 -76c0 -30 13.5 -56.833 40.5 -80.5s72.167 -48.834 135.5 -75.501l-26 -37c-65.333 28 -118.666 61.5 -159.999 100.5s-62 78.167 -62 117.5c0 46.667 24.667 86.667 74 120c-9.33301 11.333 -17.333 25.833 -24 43.5s-10 31.834 -10 42.501
c0 39.333 24.667 59 74 59l130 1v39h-272l-43 71h488zM242.997 41.9961l-1 98c-14 0 -29.667 -2.33301 -47 -7v-110c0 -4.66699 2.16699 -9.16699 6.5 -13.5s9.83301 -6.5 16.5 -6.5c16.667 0 25 13 25 39z" />
    <glyph glyph-name="ydieresis" unicode="&#xff;" horiz-adv-x="343" 
d="M410 40h-111.001v-21c0 -5.33301 -2.83301 -10.166 -8.5 -14.499s-12.5 -6.5 -20.5 -6.5c-9.33301 0 -24.833 12 -46.5 36s-32.5 41.333 -32.5 52c0 4 2.66699 8.16699 8 12.5s12.666 6.5 21.999 6.5h27v39c0 6 -5 9 -15 9c-29.333 0 -55.166 -8.5 -77.499 -25.5
s-33.5 -36.167 -33.5 -57.5c0 -55.333 54 -98 162 -128l-18 -36c-147.333 50.667 -221 110.667 -221 180c0 28.667 11.667 54.667 35 78c-11.333 13.333 -21.666 29.166 -30.999 47.499s-14 32.833 -14 43.5c0 37.333 24 56 72 56h111v42h-220l-40 71h408l43 -71h-119v-87
c0 -15.333 -5.33301 -23 -16 -23h-131c-16 0 -27.167 -2.33301 -33.5 -7s-9.5 -12.667 -9.5 -24s3.66699 -20 11 -26c23.333 14.667 51 22 83 22c68.667 0 104.667 -34.333 108 -103l106 -1z" />
    <glyph glyph-name="OE" unicode="&#x152;" horiz-adv-x="443" 
d="M506 353l-315.002 0.000976562v-81c29.333 30.667 77 46 143 46c44.667 0 81.834 -10.667 111.501 -32s48.5 -40.333 56.5 -57l-1 -97l-160 -139l-55 57c8.66699 5.33301 20.334 12 35.001 20l68.5 38l77.5 42.5c20.667 11 31 16.167 31 15.5
c-15.333 7.33301 -44.333 11 -87 11c-20.667 0 -42.5 -5.16699 -65.5 -15.5s-40.833 -20.833 -53.5 -31.5l-20 -15l-54 57c4.66699 4 11.5 9 20.5 15s26 14.167 51 24.5s49.167 15.5 72.5 15.5c48.667 0 89 -7.66699 121 -23c-42 30.667 -86 46 -132 46
c-62 0 -115.667 -20.667 -161 -62c-8.66699 -22.667 -24.667 -41.334 -48 -56.001c10 -18 45.667 -55.667 107 -113l-35 -33l-102 118c-51.333 60 -77 99.333 -77 118c0 8 3.5 15 10.5 21s14.167 9 21.5 9c6.66699 0 15.167 -3.83301 25.5 -11.5s16.5 -11.5 18.5 -11.5
s3 2.66699 3 8v116l-116 1l-40 69l508 1z" />
    <glyph glyph-name="oe" unicode="&#x153;" horiz-adv-x="382" 
d="M441 353h-250.001v-85c48.667 17.333 92.334 26 131.001 26c8 0 17.833 -2.66699 29.5 -8s21.167 -10.5 28.5 -15.5s18 -12.667 32 -23l25 -18.5l1 -95l-138 -68l-54 56l174 80c-24.667 14.667 -50.667 22 -78 22c-28.667 0 -59.167 -4.16699 -91.5 -12.5
s-52.5 -16.166 -60.5 -23.499c-8.66699 -22.667 -24.667 -41.334 -48 -56.001c10 -18 45.667 -55.667 107 -113l-35 -33l-102 118c-51.333 60 -77 99.333 -77 118c0 8 3.5 15 10.5 21s14.167 9 21.5 9c6.66699 0 15.167 -3.83301 25.5 -11.5s16.5 -11.5 18.5 -11.5
s3 2.66699 3 8v116l-115 1l-40 69l441 1z" />
    <glyph glyph-name="Scaron" unicode="&#x160;" 
d="M-10 -262c0 -28 -13.8311 -46.668 -41.498 -56.001s-52.5 -3 -74.5 19l-4 3c-10 -14.667 -23.167 -23 -39.5 -25s-31.833 3.66699 -46.5 17l-28 28c-14 14 -21 32.167 -21 54.5s7.66699 36.5 23 42.5l44 -42c-11.333 -9.33301 -16.833 -19.833 -16.5 -31.5
s5.5 -18.5 15.5 -20.5c12.667 -2.66699 23 3.66602 31 18.999s11.333 35.333 10 60l32 -31c5.33301 -5.33301 8.66602 -12.833 9.99902 -22.5s0.666016 -17.167 -2.00098 -22.5c10 -9.33301 22.167 -9.66602 36.5 -0.999023s21.5 22.334 21.5 41.001c0 13.333 -6 26 -18 38
l8 6l39 -29c14 -11.333 21 -27 21 -47z" />
    <glyph glyph-name="scaron" unicode="&#x161;" horiz-adv-x="376" 
d="M429 353h-144.001v-95c0 -13.333 -4.16699 -22.333 -12.5 -27s-33.166 -11.667 -74.499 -21c-38 -8 -63.833 -17.167 -77.5 -27.5s-20.5 -26.5 -20.5 -48.5c0 -16 5.66699 -28.333 17 -37s26.666 -13 45.999 -13c40.667 0 91 22 151 66l37 -72
c-18 -14 -39.833 -26.5 -65.5 -37.5s-48.167 -16.5 -67.5 -16.5c-51.333 0 -94.666 15.667 -129.999 47s-53 68.333 -53 111c0 24 7.83301 44.333 23.5 61s44.5 28.667 86.5 36c26.667 5.33301 43.667 10 51 14s11 9.33301 11 16v44l-208 1l-40 69l427 1z" />
    <glyph glyph-name="Ydieresis" unicode="&#x178;" horiz-adv-x="188" 
d="M250 353l-416 1l-40 69l412 1zM246 73c-8 -8 -21.1709 -15.665 -39.5039 -22.998s-34.5 -11 -48.5 -11c-33.333 0 -63.166 12.5 -89.499 37.5s-43.166 57.167 -50.499 96.5c27.333 4.66699 50.5 12.167 69.5 22.5s28.5 20.166 28.5 29.499
c0 4.66699 -2.16699 10.167 -6.5 16.5s-12.666 12.666 -24.999 18.999s-27.5 9.5 -45.5 9.5h-151l-16 60c28 0 59.667 0.166992 95 0.5s53.666 0.5 54.999 0.5c42.667 0 77.167 -14.167 103.5 -42.5s39.5 -60.5 39.5 -96.5c0 -17.333 -4.16699 -30.833 -12.5 -40.5
s-22.166 -17.5 -41.499 -23.5c-8 -2 -12 -8 -12 -18c0 -5.33301 2.83301 -10.333 8.5 -15s12.834 -7 21.501 -7c15.333 0 35 8.5 59 25.5s43.333 37.833 58 62.5v-103z" />
    <glyph glyph-name="florin" unicode="&#x192;" horiz-adv-x="6" 
d="M14 -171c-27.333 -20 -56.501 -32.168 -87.501 -36.501s-59.667 -1.66602 -86 8.00098s-49.833 24.5 -70.5 44.5l-55 53l31 19c10.667 -12.667 30.334 -27 59.001 -43c30.667 -14 60.5 -19.333 89.5 -16s53.5 12.333 73.5 27z" />
    <glyph glyph-name="circumflex" unicode="&#x2c6;" horiz-adv-x="6" 
d="M-21 -306h-236v129h88v-56h148v-73z" />
    <glyph glyph-name="tilde" unicode="&#x2dc;" horiz-adv-x="219" 
d="M267 353h-269l-40 70l266 1zM74 242l-48.001 80c25.333 8 48.5 11.333 69.5 10s44.833 -11 71.5 -29s63.334 -49.333 110.001 -94v-54l-171 -153l-65 56l194 123l-191 -51l-36 68l210 17c-13.333 15.333 -34.333 26.333 -63 33s-55.667 4.66699 -81 -6z" />
    <glyph glyph-name="endash" unicode="&#x2013;" horiz-adv-x="341" 
d="M320 162h-273v74h272z" />
    <glyph glyph-name="emdash" unicode="&#x2014;" horiz-adv-x="458" 
d="M427 162h-380v74h379z" />
    <glyph glyph-name="quoteleft" unicode="&#x2018;" horiz-adv-x="566" 
d="M165 140c0 7.33301 -3 13.832 -9 19.499s-13 8.5 -21 8.5c-9.33301 0 -17 -3.16699 -23 -9.5s-9 -14.5 -9 -24.5c0 -19.333 7.33301 -32.666 22 -39.999c10.667 4.66699 20 11.5 28 20.5s12 17.5 12 25.5zM407 38.999c-33.333 1.33301 -63 13.667 -89 37
c-13.333 -11.333 -22.5 -20.333 -27.5 -27s-7.66699 -11.334 -8 -14.001s-0.5 -10 -0.5 -22c0 -9.33301 3.16699 -17.166 9.5 -23.499s14.833 -9.5 25.5 -9.5c30 0 60 19.667 90 59zM222 32c-20 -4 -40.0049 -6.00879 -60.0049 -6.00879c-6 0 -14.833 1.33301 -26.5 4
s-25.667 7.33398 -42 14.001s-30.166 17.334 -41.499 32.001s-17 31.667 -17 51c0 22.667 8.5 42.5 25.5 59.5s38.833 25.5 65.5 25.5c22.667 0 41.334 -7.33301 56.001 -22s22 -31 22 -49c0 -12.667 -4.5 -25 -13.5 -37s-20.5 -20.333 -34.5 -25h1c14.667 -6 32 -9 52 -9
h18c6 16.667 21.667 34.334 47 53.001c-20.667 28 -31 62.333 -31 103c0 58 33.667 87 101 87h111v40h-459l-40 71h622l43 -71h-93v-87c0 -14 -5.33301 -21 -16 -21h-142c-18.667 0 -33.667 -6.16699 -45 -18.5s-17 -29.166 -17 -50.499c0 -24.667 7.83301 -43.667 23.5 -57
s31.5 -20 47.5 -20c12.667 0 24.334 2.83301 35.001 8.5s16 10.834 16 15.501c0 2.66699 -2 7.66699 -6 15s-6 15.333 -6 24c0 5.33301 2.83301 10.5 8.5 15.5s12.167 7.5 19.5 7.5c12.667 0 31.334 -9.33301 56.001 -28s37 -35.334 37 -50.001
c0 -16.667 -9.66699 -31 -29 -43l85 -111l-38 -19l-77 100c-2.66699 -5.33301 -5.66699 -10.666 -9 -15.999s-6.16602 -9.66602 -8.49902 -12.999s-5.5 -7.16602 -9.5 -11.499l-9 -10c-2 -2.33301 -5.66699 -5.66602 -11 -9.99902l-10.5 -8.5
c-1.66699 -1.33301 -5.83398 -4.5 -12.501 -9.5s-11 -8.16699 -13 -9.5l-144 -111l-59 47l100 70c-17.333 3.33301 -33.666 12.833 -48.999 28.5s-23 32.834 -23 51.501z" />
    <glyph glyph-name="quoteright" unicode="&#x2019;" horiz-adv-x="282" 
d="M302 198l-105.002 92.001c7.33301 -22 11 -35 11 -39c0 -8 -4.66699 -14.833 -14 -20.5s-26.666 -11.834 -51.999 -18.501c-21.333 -6 -32 -16 -32 -30c0 -23.333 17 -35 51 -35c14.667 0 35.834 5 63.501 15s53.5 22 77.5 36zM338.998 218.001l0.000976562 -82.001
c-18.667 -15.333 -42.334 -28.666 -71.001 -39.999s-53.667 -17 -75 -17c-35.333 0 -67.833 16.667 -97.5 50s-49.5 76 -59.5 128c9.33301 1.33301 24 5.5 44 12.5s34 12.833 42 17.5c11.333 6 17 12.667 17 20c0 14 -5.33301 29.333 -16 46h-124l-40 71h326l42 -71h-142z
" />
    <glyph glyph-name="quotesinglbase" unicode="&#x201a;" horiz-adv-x="6" 
d="M-19 -210h-236v130h88v-56h148v-74z" />
    <glyph glyph-name="quotedblleft" unicode="&#x201c;" horiz-adv-x="472" 
d="M516 233l-54 -55l-52 56l53 54zM571 353l-168 0.000976562v-75c0 -6.66699 -1.66699 -12 -5 -16s-7.33301 -6 -12 -6h-136c-15.333 0 -27.5 -2.5 -36.5 -7.5s-13.5 -11.167 -13.5 -18.5c0 -6 2.33301 -11.333 7 -16s9.66699 -7 15 -7c2 0 17.5 3.16699 46.5 9.5
s47.833 9.5 56.5 9.5c29.333 0 58.666 -14 87.999 -42c20.667 -20.667 31 -40 31 -58c0 -13.333 -5.33301 -26.333 -16 -39v-271l-68 37v25c-10.667 -11.333 -22.167 -21.333 -34.5 -30s-27.833 -15.334 -46.5 -20.001s-37.667 -5 -57 -1s-41.333 15.333 -66 34
s-49.334 44.334 -74.001 77.001c-7.33301 10 -17 24.333 -29 43s-18 29.667 -18 33c0 7.33301 1.66699 13.666 5 18.999s9.33301 8.83301 18 10.5s20.667 -2.83301 36 -13.5c11.333 31.333 15.333 66 12 104c-22 24 -42.333 51.667 -61 83l29 20
c26.667 -42.667 58 -74.667 94 -96s72.333 -32 109 -32c28 0 52 5.83301 72 17.5s30 22.834 30 33.501c0 3.33301 -1.83301 7.16602 -5.5 11.499s-8.16699 6.5 -13.5 6.5s-23.666 -6 -54.999 -18s-52.333 -18 -63 -18c-23.333 0 -46.166 13.167 -68.499 39.5
s-33.5 51.833 -33.5 76.5c0 42 21.333 63 64 63h126v32h-332l-40 71h571zM363 -49.999c-22.667 21.333 -43.002 34.6689 -61.002 40.002c-15.333 4 -29.166 1.5 -41.499 -7.5s-18.5 -20.5 -18.5 -34.5c0 -10.667 6.33301 -18.834 19 -24.501
s28.834 -6.33398 48.501 -2.00098s37.5 13.833 53.5 28.5zM281.998 -103.996c-19.333 -0.666992 -40.167 5.83398 -62.5 19.501s-34.833 31.834 -37.5 54.501c-3.33301 21.333 5.5 37.666 26.5 48.999s43.833 14.666 68.5 9.99902c14 -2.66699 42.667 -13 86 -31v57
c-16.667 -4 -37.667 -6 -63 -6c-39.333 0 -84 15.333 -134 46v-23c0 -10.667 -0.333008 -20.167 -1 -28.5s-1.83398 -16.166 -3.50098 -23.499s-3 -13 -4 -17s-3.33301 -9.16699 -7 -15.5s-6 -10.5 -7 -12.5s-4.16699 -6.5 -9.5 -13.5s-8.66602 -11.167 -9.99902 -12.5
c15.333 -26.667 34.333 -45.834 57 -57.501s43 -16.167 61 -13.5s31.333 8.66699 40 18z" />
    <glyph glyph-name="quotedblright" unicode="&#x201d;" horiz-adv-x="400" 
d="M470 215l-53 -54l-53 55l54 54zM506 353l-148.004 0.00195312v-81c0 -14.667 -5.66699 -22 -17 -22h-135c-10.667 0 -18.334 -0.333008 -23.001 -1s-9 -2.83398 -13 -6.50098s-6 -9.16699 -6 -16.5c0 -18.667 8 -28 24 -28c2.66699 0 19.834 2.16699 51.501 6.5
s51.5 6.5 59.5 6.5c22 0 43.333 -11.833 64 -35.5s31 -42.5 31 -56.5c0 -10.667 -3.5 -22.834 -10.5 -36.501s-15.167 -24.5 -24.5 -32.5v-220l-69 48l3 146c-11.333 -2 -20.666 -3 -27.999 -3c-23.333 0 -43.666 4.33301 -60.999 13v-115c0 -19.333 -7 -29 -21 -29
c-5.33301 0 -18.666 7.5 -39.999 22.5s-36 27.5 -44 37.5c-6.66699 8.66699 -10 16.667 -10 24c0 3.33301 2.16699 6.83301 6.5 10.5s8.83301 5.5 13.5 5.5h35v76c-45.333 27.333 -82 60 -110 98l28 22c50.667 -66.667 113.334 -100 188.001 -100c26 0 46.5 4.66699 61.5 14
s22.5 22 22.5 38c0 8.66699 -5.66699 13 -17 13c-6 0 -21.333 -3.5 -46 -10.5s-40.667 -10.5 -48 -10.5c-28 0 -54.833 14.167 -80.5 42.5s-38.5 53.833 -38.5 76.5c0 43.333 22.667 65 68 65h122v39h-296l-40 71h507z" />
    <glyph glyph-name="quotedblbase" unicode="&#x201e;" horiz-adv-x="377" 
d="M423 353l-93.999 -0.00292969v-123c0 -20.667 -12 -37.667 -36 -51s-50.167 -22.5 -78.5 -27.5s-54.5 -12.5 -78.5 -22.5s-36 -22.333 -36 -37c0 -23.333 13.5 -37.666 40.5 -42.999s58.167 -2.16602 93.5 9.50098s64.333 28.5 87 50.5l35 -62
c-17.333 -19.333 -41 -34.5 -71 -45.5s-58.333 -16.5 -85 -16.5c-44.667 0 -83.334 14.333 -116.001 43s-49 59.334 -49 92.001c0 14.667 5 26.667 15 36s26.667 18.333 50 27c-13.333 9.33301 -25.333 22 -36 38s-16 30.667 -16 44v88l-46 1l-40 69l419 1zM251.001 261.997
v91h-125v-1zM232.001 224.997l-106 76v-64c0 -18.667 5.33301 -31.667 16 -39c50.667 16 80.667 25 90 27z" />
    <glyph glyph-name="dagger" unicode="&#x2020;" 
d="M-10 -168c0 -28 -13.834 -46.666 -41.501 -55.999s-52.5 -3 -74.5 19l-4 3c-10 -14.667 -23.167 -23 -39.5 -25s-31.833 3.66699 -46.5 17l-28 28c-14 14 -21 32.167 -21 54.5s7.66699 36.5 23 42.5l44 -41c-11.333 -10 -16.833 -20.667 -16.5 -32s5.5 -18 15.5 -20
c12.667 -2.66699 23 3.5 31 18.5s11.333 35.167 10 60.5l32 -31c10.667 -10.667 13.334 -26 8.00098 -46c10 -10 21.833 -10.833 35.5 -2.5s20.5 21.5 20.5 39.5c0 14 -5.66699 26.667 -17 38l9 10l39 -30c14 -10.667 21 -26.334 21 -47.001z" />
    <glyph glyph-name="daggerdbl" unicode="&#x2021;" horiz-adv-x="6" 
d="M-42 -262h-236v73h236v-73z" />
    <glyph glyph-name="bullet" unicode="&#x2022;" 
d="M-134 -83l-22.001 7.50098l-26.5 9c-7 2.33301 -15.5 4.66602 -25.5 6.99902s-19 3.5 -27 3.5c-20.667 1.33301 -36.167 -0.166992 -46.5 -4.5s-15.833 -14.166 -16.5 -29.499s5.5 -26.5 18.5 -33.5s26.833 -9.83301 41.5 -8.5
c36.667 3.33301 71.334 19.666 104.001 48.999zM-133.001 -37.999v95.998h75v-227l-35 28c-14 -14 -33 -25 -57 -33s-48 -12 -72 -12c-31.333 0 -61.5 12.833 -90.5 38.5s-43.5 51.834 -43.5 78.501c0 26 9.16699 45 27.5 57s41.5 17.667 69.5 17
c44.667 -1.33301 86.667 -15.666 126 -42.999z" />
    <glyph glyph-name="ellipsis" unicode="&#x2026;" horiz-adv-x="377" 
d="M422 353l-81.999 -0.000976562v-55c2 -47.333 -15.667 -87.333 -53 -120c49.333 -24 74 -56.333 74 -97c0 -27.333 -14 -51.166 -42 -71.499s-67.667 -30.5 -119 -30.5c-48.667 0 -88.334 12.167 -119.001 36.5s-46 55.833 -46 94.5c0 12 3.5 21.833 10.5 29.5
s14.5 13.334 22.5 17.001s20.667 8.5 38 14.5c-15.333 5.33301 -27.833 14.666 -37.5 27.999s-14.5 26.333 -14.5 39v115l-60 1l-40 69l426 1zM268.001 321.999l-0.000976562 31h-136v-1l122 -97c10.667 10.667 15.334 33 14.001 67zM228 225.999l-96 66.999v-72
c0 -15.333 6 -27 18 -35c12.667 3.33301 26.667 9 42 17c18 8.66699 30 16.334 36 23.001zM293 100.998c0 4 -0.166992 7.66699 -0.5 11s-1.16602 6.33301 -2.49902 9l-3.5 7c-1 2 -2.66699 4.16699 -5 6.5l-5 5c-1 1 -3 2.5 -6 4.5s-5.16699 3.33301 -6.5 4
s-3.83301 1.83398 -7.5 3.50098s-5.83398 2.83398 -6.50098 3.50098l-122 -46c-12 -6 -19.667 -10.667 -23 -14s-5 -9 -5 -17c0 -22.667 16 -36.834 48 -42.501s64.167 -1.83398 96.5 11.499s48.5 31.333 48.5 54z" />
    <glyph glyph-name="perthousand" unicode="&#x2030;" horiz-adv-x="6" 
d="M14 -267c-27.333 -20 -56.501 -32.168 -87.501 -36.501s-59.667 -1.66602 -86 8.00098s-49.833 24.5 -70.5 44.5l-55 53l31 19c10.667 -12.667 30.334 -27 59.001 -43c30.667 -14 60.5 -19.333 89.5 -16s53.5 12.333 73.5 27z" />
    <glyph glyph-name="guilsinglleft" unicode="&#x2039;" horiz-adv-x="415" 
d="M484 226l-57 -56l-57 56l58 56zM538 353h-170v-81c0 -14.667 -5.66699 -22 -17 -22h-143c-27.333 0 -41 -11 -41 -33c0 -3.33301 2.16699 -6.83301 6.5 -10.5s8.5 -5.5 12.5 -5.5c2.66699 0 18.667 3.16699 48 9.5s48 9.5 56 9.5
c27.333 -0.666992 56.666 -14.667 87.999 -42c0.666992 -1.33301 2.5 -3.83301 5.5 -7.5s5 -6 6 -7s2.66699 -3.16699 5 -6.5s4 -5.83301 5 -7.5l4 -6.5c1.66699 -2.66699 2.66699 -5.16699 3 -7.5s0.833008 -4.83301 1.5 -7.5s1 -5.33398 1 -8.00098
c0 -21.333 -13 -40.666 -39 -57.999v-235l-67 28l4 39c-33.333 -18.667 -58.333 -28 -75 -28c-26 0 -52 9.83301 -78 29.5s-39 40.5 -39 62.5c0 18.667 14 33.667 42 45c-34 25.333 -51 49 -51 71c0 4 2.66699 10.667 8 20c-29.333 18 -56 44 -80 78l29 23
c51.333 -65.333 111 -98 179 -98c28 0 52 6 72 18s30 24.333 30 37c0 3.33301 -1.83301 6.33301 -5.5 9s-8.16699 4 -13.5 4c-6 0 -24 -4.83301 -54 -14.5s-49 -14.167 -57 -13.5c-23.333 0 -46.166 12.833 -68.499 38.5s-33.5 51.167 -33.5 76.5c0 41.333 21.333 62 64 62
h127v39h-303l-40 71h536zM306 -40l-0.000976562 81c-10.667 -2.66699 -20.334 -4 -29.001 -4c-29.333 0 -59.666 6 -90.999 18c-4.66699 -4.66699 -7 -9 -7 -13c0 -11.333 5.33301 -21.333 16 -30c18.667 2.66699 33.667 2.66699 45 0
c2.66699 -4.66699 6.33398 -9.5 11.001 -14.5l11 -12c2.66699 -3 4 -5.5 4 -7.5c0 -7.33301 -4 -11 -12 -11h-41c-12.667 0 -24 -3 -34 -9s-15 -12.667 -15 -20c0 -4.66699 4 -9.16699 12 -13.5s19.667 -6.5 35 -6.5c29.333 0 61 14 95 42z" />
    <glyph glyph-name="guilsinglright" unicode="&#x203a;" horiz-adv-x="192" 
d="M255 353l-258 1l-40 69l255 1zM254 258h-97c-8 0 -12 -4 -12 -12v-21c0 -14 -9 -21 -27 -21c-11.333 0 -28 11.833 -50 35.5s-33 43.167 -33 58.5c0 6 2.33301 11.5 7 16.5s10 7.5 16 7.5l196 -1v-63zM269 140v-70l-179 -104l-49 52l199 91
c-48 39.333 -102.333 33.333 -163 -18l-63 63c73.333 56 158.333 51.333 255 -14z" />
    <glyph glyph-name="trademark" unicode="&#x2122;" horiz-adv-x="516" 
d="M576 353h-381.998v-79l52 -15c26 36.667 58 55 96 55c37.333 0 68.166 -19 92.499 -57s48.5 -108.667 72.5 -212l-37 -13c-30.667 138 -76.334 207 -137.001 207c-16.667 0 -31.167 -5.16699 -43.5 -15.5s-18.5 -22.5 -18.5 -36.5c0 -21.333 8.33301 -32 25 -32
c19.333 0 37.333 7.66699 54 23l39 -73c-6 -5.33301 -15.5 -10.666 -28.5 -15.999s-24.5 -8 -34.5 -8c-60 0 -91.333 37.667 -94 113l-42 7c-2.66699 -12.667 -8.66699 -25.167 -18 -37.5s-19.333 -21.833 -30 -28.5c14.667 -22 49.334 -61 104.001 -117l-32 -32l-136 168
c-28.667 35.333 -43 58.666 -43 69.999c-1.33301 5.33301 1 11.333 7 18s12 10 18 10c7.33301 0 17.166 -3.33301 29.499 -10s20.5 -10 24.5 -10c4.66699 0 7 4.33301 7 13v108l-123 1l-40 69l576 1z" />
    <glyph glyph-name="minus" unicode="&#x2212;" horiz-adv-x="322" 
d="M360 353l-81.001 0.000976562l-1 -92c0 -12 -4 -18 -12 -18h-123c-31.333 0 -47 -11.667 -47 -35c0 -4.66699 2.16699 -10.5 6.5 -17.5s10.833 -11.833 19.5 -14.5c26 14.667 62 22 108 22c20 -24 30 -41.333 30 -52c0 -13.333 -17.667 -20 -53 -20h-41
c-11.333 0 -20.5 -5 -27.5 -15s-10.5 -21.333 -10.5 -34c0 -15.333 5.83301 -28.333 17.5 -39s24.834 -16 39.501 -16c20.667 0 37 7.33301 49 22c-7.33301 20.667 -11 33 -11 37s2 8 6 12s9 6 15 6c10 0 24.833 -5.5 44.5 -16.5s29.5 -21.167 29.5 -30.5
s-3.66699 -18.833 -11 -28.5s-15 -16.834 -23 -21.501l58 -100l-30 -19l-52 108l-34 -3l-127 -120l-48 38l124 88c-32 10 -58.833 25.667 -80.5 47s-32.5 41.333 -32.5 60c0 22.667 11.333 41.667 34 57c-38.667 30.667 -58 61.667 -58 93c0 35.333 23 53 69 53l105 1v48
h-211l-38 71h359z" />
    <glyph glyph-name=".null" horiz-adv-x="0" 
 />
    <glyph glyph-name="nonmarkingreturn" horiz-adv-x="333" 
 />
    <glyph glyph-name="c128" horiz-adv-x="2" 
d="M-196 -216c0 -8.66699 7 -15.334 21 -20.001s33.5 -4.5 58.5 0.5s49.833 15.5 74.5 31.5l48 -54c-33.333 -25.333 -67.666 -38 -102.999 -38c-42.667 0 -78.834 9.33301 -108.501 28s-44.5 40.667 -44.5 66c0 12.667 1.66699 22.334 5 29.001s13.5 14 30.5 22
s43.167 15.333 78.5 22l49 -38c-34.667 -6.66699 -60 -12.667 -76 -18s-25.5 -9.83301 -28.5 -13.5s-4.5 -9.5 -4.5 -17.5z" />
    <glyph glyph-name="c129" horiz-adv-x="6" 
d="M-19 -170h-236v74h236v-74z" />
    <glyph glyph-name="c141" horiz-adv-x="6" 
d="M-35 -398h-236v73h236v-73z" />
    <glyph glyph-name="c142" horiz-adv-x="6" 
d="M-21 -462h-236v130h88v-56h148v-74z" />
    <glyph glyph-name="c143" horiz-adv-x="6" 
d="M14 -382c-27.333 -20 -56.501 -32.1689 -87.501 -36.502s-59.667 -1.66602 -86 8.00098s-49.833 24.5 -70.5 44.5l-55 52l31 20c10.667 -13.333 30.334 -28 59.001 -44c30.667 -14 60.5 -19.167 89.5 -15.5s53.5 12.834 73.5 27.501z" />
    <glyph glyph-name="c144" 
d="M-2 -406c0 -28 -13.8311 -46.668 -41.498 -56.001s-52.5 -3 -74.5 19l-4 3c-10 -14.667 -23.167 -23 -39.5 -25s-31.833 3.66699 -46.5 17l-28 28c-14 14 -21 32.167 -21 54.5s7.66699 36.5 23 42.5l44 -42c-11.333 -9.33301 -16.833 -19.833 -16.5 -31.5
s5.5 -18.5 15.5 -20.5c12.667 -2.66699 23 3.66602 31 18.999s11.333 35.333 10 60l32 -31c5.33301 -5.33301 8.66602 -12.833 9.99902 -22.5s0.666016 -17.167 -2.00098 -22.5c10 -9.33301 22.167 -9.66602 36.5 -0.999023s21.5 22.334 21.5 41.001c0 13.333 -6 26 -18 38
l8 6l39 -29c14 -11.333 21 -27 21 -47z" />
    <glyph glyph-name="c157" horiz-adv-x="357" 
d="M217 70c-16.667 -3.33301 -37.667 -3.33398 -63 -0.000976562s-42 8.66602 -50 15.999c-0.666992 0 -2.66699 -0.5 -6 -1.5s-6 -1.66699 -8 -2s-4.66699 -1.16602 -8 -2.49902s-5.83301 -2.66602 -7.5 -3.99902l-6.5 -5c-2.66699 -2 -4.66699 -4.16699 -6 -6.5
s-2.33301 -5.33301 -3 -9s-1 -7.5 -1 -11.5c0 -8 4.33301 -15.5 13 -22.5s19.667 -10.5 33 -10.5c26 0 49.667 6.33301 71 19s35.333 26 42 40zM308 7.99902l-20 30.001c-20 -24 -45 -42.5 -75 -55.5s-59 -19.5 -87 -19.5c-38 0 -68 10.833 -90 32.5s-33 44.5 -33 68.5
c0 30 15 49.667 45 59c-10.667 12.667 -20.5 30.834 -29.5 54.501s-10.5 47.167 -4.5 70.5c7.33301 26.667 21 44.167 41 52.5s45 12.5 75 12.5h119v40h-253l-40 71h402l43 -71h-79v-87c0 -6 -1.66699 -11 -5 -15s-7 -6 -11 -6h-143c-16 0 -29.167 -0.666992 -39.5 -2
s-20.333 -5.83301 -30 -13.5s-14.5 -18.167 -14.5 -31.5c0 -25.333 12 -43.5 36 -54.5s48.333 -15.5 73 -13.5s38.667 6.66699 42 14c1.33301 3.33301 -0.333984 8.66602 -5.00098 15.999s-7 15 -7 23c0 5.33301 2.83301 10.5 8.5 15.5s12.167 7.5 19.5 7.5
c12.667 0 31.334 -9.33301 56.001 -28s37 -35.334 37 -50.001c0 -16.667 -9.66699 -31 -29 -43l77 -116c-58.667 -17.333 -96 -30.166 -112 -38.499s-19.667 -19.166 -11 -32.499c4.66699 -6.66699 14.5 -10.667 29.5 -12s32.833 1.16699 53.5 7.5
s39.334 16.166 56.001 29.499l48 -54c-36.667 -20.667 -74.334 -30.334 -113.001 -29.001c-36.667 0.666992 -66 9.16699 -88 25.5s-33 37.5 -33 63.5c0 15.333 6.5 28.5 19.5 39.5s36.833 24.167 71.5 39.5z" />
    <glyph glyph-name="c158" horiz-adv-x="638" 
d="M657 353l-78.998 0.000976562v-87c0 -6 -1.66699 -11 -5 -15s-7 -6 -11 -6h-143c-16 0 -29.167 -0.666992 -39.5 -2s-20.333 -5.83301 -30 -13.5s-14.5 -18.167 -14.5 -31.5c0 -25.333 12 -43.5 36 -54.5s48.333 -15.5 73 -13.5s38.667 6.66699 42 14
c1.33301 3.33301 -0.333984 8.66602 -5.00098 15.999s-7 15 -7 23c0 5.33301 2.83301 10.5 8.5 15.5s12.167 7.5 19.5 7.5c12.667 0 31.334 -9.33301 56.001 -28s37 -35.334 37 -50.001c0 -16.667 -9.66699 -31 -29 -43l71 -107l-39 -20l-57 88
c-44.667 -55.333 -93.667 -88.333 -147 -99c-30 -6 -58.833 -4 -86.5 6s-44.834 27 -51.501 51c-15.333 -8 -26.5 -13.667 -33.5 -17s-16.333 -6.66602 -28 -9.99902s-23.834 -5 -36.501 -5c-35.333 0 -64.666 11 -87.999 33s-35 46.333 -35 73c0 41.333 23.333 68 70 80
c-23.333 6.66699 -42.833 18.667 -58.5 36s-23.5 35.666 -23.5 54.999c0 22.667 8.5 40.834 25.5 54.501s39.833 20.5 68.5 20.5c23.333 0 44 -6 62 -18s27 -30 27 -54c0 -19.333 -8.83301 -35.666 -26.5 -48.999s-38.834 -18.666 -63.501 -15.999
c4 -8.66699 12.333 -15.167 25 -19.5s29.334 -3.5 50.001 2.5l30 -60c-82 6.66699 -123 -7.33301 -123 -42c0 -12.667 5.16699 -22.334 15.5 -29.001s24.166 -9.33398 41.499 -8.00098c34 4 65.667 18.333 95 43c-2 15.333 1.5 29.833 10.5 43.5s20.167 23.167 33.5 28.5
c-22 44 -30 78 -24 102c7.33301 26.667 21 44.167 41 52.5s45 12.5 75 12.5h119v40h-493l-40 71h642zM473.002 70.001c-16.667 -3.33301 -37.667 -3.33203 -63 0.000976562s-42 8.66602 -50 15.999c-22.667 8 -40.667 2.66699 -54 -16c-12 -17.333 -11.333 -33.333 2 -48
c11.333 -12.667 30.333 -19 57 -19c25.333 0 47.833 7.33301 67.5 22s33.167 29.667 40.5 45zM167.002 250.002c0 10 -3.66699 18.001 -11 24.001s-16 9 -26 9s-19 -3.83301 -27 -11.5s-12 -17.834 -12 -30.501c0 -12 2 -19.667 6 -23c7.33301 -3.33301 16 -5 26 -5
c12.667 0 23.167 3.5 31.5 10.5s12.5 15.833 12.5 26.5z" />
  </font>
</defs>
</svg>
