<?xml version="1.0" standalone="no"?>
<!DOCTYPE svg PUBLIC "-//W3C//DTD SVG 1.1//EN" "http://www.w3.org/Graphics/SVG/1.1/DTD/svg11.dtd" >
<svg xmlns="http://www.w3.org/2000/svg" xmlns:xlink="http://www.w3.org/1999/xlink" version="1.1">
<metadata>
Created by FontForge 20200511 at Wed Sep  9 07:13:46 2020
 By convertio
Copyright (c) 2020 by Okkhor52 Originals. All rights reserved.
</metadata>
<defs>
<font id="RuposhiBanglaUnicode-Italic" horiz-adv-x="0" >
  <font-face 
    font-family="Ruposhi Bangla Unicode"
    font-weight="400"
    font-style="italic"
    font-stretch="normal"
    units-per-em="1000"
    panose-1="2 0 6 0 0 0 0 0 0 0"
    ascent="800"
    descent="-200"
    x-height="393"
    cap-height="608"
    bbox="-467 -306 1464 1049"
    underline-thickness="40"
    underline-position="-120"
    unicode-range="U+0020-FDFA"
  />
<missing-glyph horiz-adv-x="719" 
d="M277 337q-15 16 -15 39q0 32 23 47.5t47 15.5q19 0 34.5 -8t27 -21.5t17.5 -30t6 -34.5q0 -23 -11 -42.5t-28 -34t-39 -23t-44 -8.5q-30 0 -56 13.5t-45 35.5t-30 50.5t-11 58.5q0 40 18 73.5t47 57t64.5 36.5t71.5 13q49 0 91 -21.5t73.5 -57t49.5 -81.5t18 -95
q0 -78 -40.5 -144.5t-113.5 -104.5l-11 -4q-58 -31 -128 -31q-60 0 -113.5 23t-93 63t-63 93.5t-23.5 114.5q0 58 20 108.5t55.5 89t84 63t104.5 31.5h375v-586l-97 75q80 91 80 209q0 57 -21 109.5t-57.5 93.5t-85.5 65.5t-104 24.5q-44 0 -86.5 -16.5t-77 -45.5t-55.5 -69
t-21 -86q0 -35 13 -70t37 -63.5t57.5 -46t73.5 -17.5q30 0 58.5 11t51 30.5t36 46t13.5 58.5q0 24 -8.5 47.5t-24.5 41.5t-38.5 29.5t-50.5 11.5q-20 0 -39.5 -7.5t-35 -20.5t-25 -31t-9.5 -39q0 -38 29 -67zM719 622v-622h-41v622h41zM0 179q38 -78 104.5 -124.5
t151.5 -54.5h-256v179zM451 39q31 15 63 45q32 -26 62.5 -48t45.5 -36h-295q56 6 113 32h2zM137 622q-90 -50 -137 -141v141h137z" />
    <glyph glyph-name="sallallahoualayhewasallam_arab.isol" unicode="&#xfdfa;" horiz-adv-x="1481" arabic-form="isolated" 
d="M368 763q24 -18 18 -50l-2 -10q17 17 33 17q20 0 37 -39l14 82h-100zM489 763l-43 -242l-19 29l21 110q-8 23 -24 23q-5 0 -6 -1l-9 -4l-11 -9q-4 -6 -17 -18l-36 -36q-11 -11 -20 -11q-6 0 -13 5l-21 31q-4 9 -5 18l17 12q4 -27 13 -27q4 0 12 7.5t16.5 16t14.5 15
t6 5.5q1 4 2.5 7.5t1.5 8.5q2 7 -1 14l-7 13q-11 9 -23 11t-22.5 3t-16.5 4t-4 15h-7l-16 21h243q20 0 27.5 -6t13.5 -19l6 -18l15 86l12 -15q-3 -14 2.5 -21t16.5 -7h241q20 0 30.5 -10t16.5 -33l15 86l12 -15q-2 -12 2.5 -20t15.5 -8h241q15 0 24 -5t17 -20l6 -18l15 86
l12 -15q-3 -14 2.5 -21t16.5 -7h173l16 -21h-195q-9 0 -15 2l-43 -244l-19 29l31 166q-18 47 -42 47h-26l-42 -241l-21 28q2 5 3 9t1 7l2 9q2 10 -3 17t-10.5 11t-10.5 5.5t-2 1.5q-8 0 -14.5 -8t-7.5 -15v-19l-12 8q-9 32 -49 32q-11 0 -22.5 -6.5t-13.5 -18.5q0 -3 1.5 -7
t3.5 -9l6 -5q3 -2 4 -2h3v-1q-4 5 -2 16q1 8 8 15t18 7q10 0 15 -7.5t3 -18.5q-5 -32 -39 -32q-18 0 -28 16t-7 32q4 22 18 35.5t34 13.5q33 0 47 -20q16 21 34 21q24 0 32 -33l14 82q-9 34 -25 34q-8 0 -13.5 -8t-7.5 -17q-2 -14 1 -24l-14 9q-5 23 -20 31t-38 8
q-30 0 -35 -31q-2 -13 6.5 -16.5t10.5 -3.5h3q-5 4 -3 16q2 9 10.5 17t18.5 8q11 0 17 -8t3 -21q-2 -13 -13.5 -23.5t-28.5 -10.5q-21 0 -32 13.5t-7 33.5q4 25 19.5 41.5t38.5 16.5q41 0 48 -27q14 27 34 27q22 0 33 -37l9 49h-197q-12 0 -15 3l-44 -245l-18 29l31 166
q-18 47 -43 47h-25l-42 -241l-21 28l5 25q2 10 -2.5 16.5t-10 10.5t-10 6t-3.5 2q-7 0 -14 -7.5t-8 -15.5q-1 -3 0 -6l1 -13l-13 8q-8 32 -49 32q-10 0 -21.5 -6.5t-13.5 -18.5q-1 -7 4 -16l7 -5q1 -2 4 -2t3 -1q-4 5 -2 16q1 8 8 15t18 7q10 0 15 -7.5t3 -18.5
q-5 -32 -39 -32q-12 0 -26 13.5t-10 34.5q4 22 18.5 35.5t34.5 13.5q33 0 47 -20q14 21 33 21q23 0 32 -31l15 80q-10 34 -25 34q-8 0 -13.5 -7.5t-7.5 -17.5q-2 -13 -2 -23l-12 8q-5 24 -20 31.5t-38 7.5q-29 0 -34 -31q-1 -5 0.5 -8.5t2.5 -5.5l8 -4q3 -2 6 -2h2
q-4 5 -2 16q2 10 10 17.5t18 7.5q11 0 17.5 -8t3.5 -21q-2 -12 -13.5 -23t-28.5 -11q-21 0 -32 13t-7 34q4 26 19 42t38 16q21 0 32 -5.5t17 -21.5q14 27 34 27q22 0 34 -36l8 48h-198q-12 0 -15 1l-43 -243l-19 29l31 166q-16 47 -42 47h-25zM402 -137l31 173h-80l43 -59
q-16 -11 -32.5 -23t-32.5 -23q5 -1 16 -8l20 -16l19 -22q9 -10 16 -22zM1283 36v-2l29 -32q16 -18 22.5 -34.5t4.5 -34.5q-1 -5 -4 -11q22 -26 28 -45l28 159h-108zM671 -23q19 16 34 16q21 0 36 -40l15 83h-100q24 -17 18 -50q-1 -7 -3 -9zM1183 14l15 87l13 -15
q-2 -12 2.5 -20t15.5 -8h207l15 -22h-37l-41 -232l-10 10q-2 64 -42 80q-19 -26 -47 -26q-19 0 -27.5 12.5t-5.5 30.5q3 17 17 27.5t33 10.5q10 0 17 -5q4 4 6 11q3 19 -9.5 28t-29 15.5t-29 14t-9.5 23.5h-14q-9 0 -15 2l-43 -244l-18 29l30 166q-18 47 -42 47h-26
l-43 -241l-20 28q2 5 3 9t1 7l2 9q1 7 -3 14t-8 11l-9 8q-5 3 -6 3q-8 0 -14.5 -8.5t-7.5 -14.5q0 -2 -0.5 -5.5t-0.5 -14.5l-11 8q-9 32 -49 32q-10 0 -22 -6.5t-14 -17.5q0 -4 2 -8l2 -8q3 -2 6.5 -4.5t5.5 -2.5h1q-3 4 -1 14q1 7 8.5 15t17.5 8q9 0 14.5 -8t3.5 -19
q-5 -31 -38 -31q-17 0 -28.5 13.5t-7.5 33.5q4 22 18 35.5t33 13.5q33 0 48 -20q16 21 34 21q24 0 31 -31l15 80q-9 34 -25 34q-8 0 -13 -7.5t-7 -16.5q-1 -8 -1.5 -13.5t-0.5 -10.5l-12 8q-5 23 -19.5 31.5t-38.5 8.5q-30 0 -35 -31q-1 -3 1 -7l4 -7l4.5 -4.5t7.5 -2.5h3
q-4 5 -2 17q2 10 10.5 17.5t17.5 7.5q11 0 17 -8t3 -21q-2 -14 -14 -24.5t-28 -10.5q-23 0 -32.5 14.5t-5.5 32.5q4 26 19.5 42.5t37.5 16.5q23 0 33 -7t16 -21q14 27 33 27q21 0 34 -38l9 50h-198q-9 0 -15 2l-43 -244l-19 29l31 166q-18 47 -43 47h-25l-43 -242l-18 29
l21 110q-8 24 -25 24q-8 1 -17 -7t-26 -25l-35 -37q-11 -11 -21 -11q-6 0 -12 6l-12 14l-9 17q-5 8 -8 17l19 12q5 -26 13 -26q3 0 9 4.5t12.5 10.5t12 11.5t7.5 8.5l9 9q3 8 4 15q2 7 -1 14l-7 13q-12 10 -25 12t-23 3t-15.5 3.5t-3.5 14.5h-13q-13 0 -16 3l-43 -245
l-18 29l31 166q-18 47 -43 47h-24l-41 -232l-10 10q-2 15 -11.5 31t-23.5 29t-31 21.5t-35 8.5l-21 30q29 21 49.5 36t32.5 23q-9 10 -17 14.5t-17 7.5t-18.5 4.5t-19.5 5.5q-4 1 -6.5 4.5t-1.5 6.5h-3l-17 22h217q21 0 31.5 -11t15.5 -33l15 87l12 -15q-2 -12 2.5 -20
t15.5 -8h229q19 0 29.5 -10t17.5 -34l15 87l12 -15q-3 -15 3 -21.5t15 -6.5h242q30 0 40 -26zM236 -52q21 -20 16 -48q-4 -24 -25.5 -43t-53.5 -19q-48 0 -82 49.5t-48 148.5l18 -11q14 -74 43 -112t71 -38q17 0 28.5 4.5t18 10t9 11.5t3.5 9q3 18 -10 26q-9 -10 -26 -10
q-11 0 -18 8.5t-4 21.5q2 13 12.5 22t21.5 9t17 -5q16 13 19 31q4 23 -26 23q-10 -1 -21 -3.5t-22 -9.5l-22 -13q-10 -9 -12 -13q18 -3 14 -26q-2 -11 -11 -19t-20 -8q-3 0 -8 1.5t-10 5t-7.5 11t-0.5 19.5q3 16 14 30t27 24.5t34 16.5t35 6q26 0 40.5 -16t9.5 -44t-24 -50z
M341 -143q10 0 16 -7t4 -17t-10.5 -17t-17.5 -7t-15 7.5t-4 16.5t9 16.5t18 7.5zM427 225l27 154h-114h-1q-1 -6 5 -10t15 -8t18.5 -9t15.5 -14q8 -12 11.5 -28.5t1.5 -31.5q15 -22 21 -53zM1272 217l16 -10l14 -10t15 -12l30 -27l23 -25l3 -28q-22 24 -41.5 41t-39 29
t-40.5 20.5t-46 14.5l-19 58q37 -23 57 -23q18 0 34 6t29 15t21.5 19t9.5 19q2 13 -7.5 20.5t-20.5 7.5q-12 0 -19.5 -7.5t-14 -16t-15 -16t-23.5 -7.5q-11 0 -19 8t-6 22q2 10 8 18l18 14q9 6 20 9t20 3q2 14 -15 20h-88l-42 -242l-18 29l37 213h-118q2 -14 4.5 -18t8.5 -5
t14 -3t20 -12q9 -8 12 -22t1 -25q-10 -56 -84 -77q6 -4 19.5 -12.5t25.5 -19.5l30 -27l23 -25l3 -28q-24 26 -44.5 43.5t-40 29.5t-40 19t-42.5 13l-19 58q37 -23 57 -23q15 0 31 5.5t29 13.5t22.5 18.5t11.5 21.5q2 13 -7 20.5t-22 7.5q-11 0 -18 -7.5t-14 -16t-15.5 -16
t-23.5 -7.5q-13 0 -20 8.5t-5 21.5q2 12 10 20t18 13.5t20 8t17 2.5q2 14 -15 20h-74q-9 0 -14 2l-43 -244l-19 29l30 166q-18 47 -42 47h-26l-42 -242l-18 29l22 121q-11 33 -26 33q-11 0 -17 -9.5t-8 -19.5t1 -18l-14 8q-10 39 -47 39q-20 0 -34 -12.5t-17 -29.5
q-3 -14 4 -26.5t21 -12.5h3q1 0 1 1h-2q-4 5 -2 18q2 11 11.5 19t21.5 8q13 0 20 -9.5t5 -22.5q-3 -15 -16 -26.5t-35 -11.5q-25 0 -41 19t-10 54q5 26 25.5 45.5t47.5 19.5q32 0 43 -28q14 27 36 27q23 0 35 -41l12 68h-204q-9 0 -14 2l-43 -244l-19 29l30 166
q-18 47 -42 47h-26l-41 -234l-10 12q0 11 -2.5 25t-5.5 27l-11 23q-3 6 -5 10.5t-6 6.5q-8 -18 -24 -30.5t-39 -12.5q-76 0 -115 167l20 -11q33 -120 91 -120q25 0 41 15.5t18 30.5q3 17 -1 27t-11 14.5t-13 5.5t-7 1q1 -6 0 -12q-3 -14 -13.5 -23.5t-24.5 -9.5
q-12 0 -21 11t-7 26q3 13 13.5 23t22.5 12q-7 10 -22 16h-79l-18 21h297q15 0 24 -5t18 -20l5 -18l16 86l11 -14q-2 -11 3 -20t16 -9h245q17 0 25.5 -5.5t16.5 -19.5l5 -18l16 86l11 -14q-2 -11 3 -20t16 -9h164q5 7 7 15q3 19 -29 19h-10q-11 -2 -25 -2.5t-19 -0.5
q-90 0 -80 53q3 20 19 33l10 -10q-12 -9 -13 -18q-3 -14 6.5 -19t30.5 -5h13q11 0 26.5 1.5t19.5 1.5h11t9 -1l15 -3q13 -6 24.5 -22.5t8.5 -36.5l-1 -5h35q-16 20 -13 39q2 12 12.5 24.5t26 22t34 16t36.5 6.5q31 0 63 -17.5t62 -53.5l-3 -17q-51 61 -114 61
q-17 0 -32.5 -5.5t-28.5 -14t-21 -19t-10 -20.5q-2 -13 6 -22h212l17 -21h-107q2 -15 5 -18.5t8.5 -4.5t13.5 -3t20 -12q9 -10 12 -22.5t1 -24.5q-10 -56 -84 -77zM1348 616l24 -12q13 -7 21.5 -15t17.5 -18l19 -20l5 -28q-5 6 -18 18t-31.5 24.5t-39 22t-40.5 9.5l-29 46
q11 -3 20 -3q22 0 42 4.5t35.5 12.5t25 18t11.5 22q3 17 -7 28q0 -1 -4 -5l-21 -23q-6 -9 -13 -24l-7 6q-1 21 -8 34t-18 13q-24 0 -29 -23q5 1 7 1.5t4 0.5q9 0 13.5 -6.5t2.5 -17.5q-4 -23 -29 -23q-14 0 -23 11t-5 33q4 21 20 36t34 15q12 0 19 -5l8 -11q2 -4 4.5 -7.5
t4.5 -7.5l21 24q4 4 8 7l6 8l7 -5l5 -11q5 -6 9.5 -15t7 -18t4 -17t0.5 -12q-2 -12 -11 -23.5t-21 -20.5t-26 -15.5t-26 -7.5z" />
    <glyph glyph-name=".notdef" horiz-adv-x="719" 
d="M277 337q-15 16 -15 39q0 32 23 47.5t47 15.5q19 0 34.5 -8t27 -21.5t17.5 -30t6 -34.5q0 -23 -11 -42.5t-28 -34t-39 -23t-44 -8.5q-30 0 -56 13.5t-45 35.5t-30 50.5t-11 58.5q0 40 18 73.5t47 57t64.5 36.5t71.5 13q49 0 91 -21.5t73.5 -57t49.5 -81.5t18 -95
q0 -78 -40.5 -144.5t-113.5 -104.5l-11 -4q-58 -31 -128 -31q-60 0 -113.5 23t-93 63t-63 93.5t-23.5 114.5q0 58 20 108.5t55.5 89t84 63t104.5 31.5h375v-586l-97 75q80 91 80 209q0 57 -21 109.5t-57.5 93.5t-85.5 65.5t-104 24.5q-44 0 -86.5 -16.5t-77 -45.5t-55.5 -69
t-21 -86q0 -35 13 -70t37 -63.5t57.5 -46t73.5 -17.5q30 0 58.5 11t51 30.5t36 46t13.5 58.5q0 24 -8.5 47.5t-24.5 41.5t-38.5 29.5t-50.5 11.5q-20 0 -39.5 -7.5t-35 -20.5t-25 -31t-9.5 -39q0 -38 29 -67zM719 622v-622h-41v622h41zM0 179q38 -78 104.5 -124.5
t151.5 -54.5h-256v179zM451 39q31 15 63 45q32 -26 62.5 -48t45.5 -36h-295q56 6 113 32h2zM137 622q-90 -50 -137 -141v141h137z" />
    <glyph glyph-name="NULL" 
 />
    <glyph glyph-name="NULL" 
 />
    <glyph glyph-name="nonmarkingreturn" 
 />
    <glyph glyph-name="space" unicode=" " horiz-adv-x="220" 
 />
    <glyph glyph-name="space" unicode="&#xa0;" horiz-adv-x="220" 
 />
    <glyph glyph-name="exclam" unicode="!" horiz-adv-x="322" 
d="M335 532l-101 -372l-18 19l33 353q0 6 1 11l2 10q12 69 56 69t33 -66q-2 -6 -3 -12t-3 -12zM267 65q-4 -24 -23.5 -41t-43.5 -17q-23 0 -37 17t-10 41t24 40.5t43 16.5q24 0 37.5 -16.5t9.5 -40.5z" />
    <glyph glyph-name="quotedbl" unicode="&#x22;" horiz-adv-x="419" 
d="M271 637q-4 -21 -59 -147l-17 21q-14 109 -12 122q10 56 53 56q44 0 35 -52zM404 637q-4 -21 -59 -147l-17 21q-14 109 -12 122q10 56 53 56q44 0 35 -52z" />
    <glyph glyph-name="numbersign" unicode="#" horiz-adv-x="640" 
d="M320 419l-70 -199h181l70 199h-181zM631 622l-53 -151h85l21 -52h-125l-70 -199h111l21 -53h-150l-58 -167h-59l59 167h-135h-46l-59 -167h-58l59 168h-85l-22 52h125l70 199h-111l-20 53h150l52 150h59l-53 -150h135h46l53 150h58z" />
    <glyph glyph-name="percent" unicode="%" horiz-adv-x="678" 
d="M705 605l-571 -588h-57l570 588h58zM407 493q-4 -25 -19.5 -47.5t-37 -40t-46.5 -27.5t-48 -10q-25 0 -45 9t-34 25t-19.5 37t-1.5 45q4 25 19 48t36 40.5t45 28t47 10.5q25 0 46.5 -10.5t35.5 -27t20 -37.5t2 -43zM630 139q-4 -25 -19.5 -47.5t-37.5 -40t-46.5 -27.5
t-47.5 -10q-24 0 -44.5 9.5t-34 25t-20 36.5t-2.5 45q5 25 20 48t36 40.5t45.5 28t47.5 10.5q26 0 46.5 -10.5t34.5 -27t20 -37.5t2 -43zM370 521q8 41 -43 41q-16 0 -38 -10t-42.5 -25t-35.5 -32.5t-18 -33.5q-3 -18 10.5 -31t36.5 -13q17 0 38.5 10.5t41 26.5t34 34
t16.5 33zM594 167q7 41 -44 41q-17 0 -38.5 -10t-42 -25t-35.5 -32.5t-18 -33.5q-3 -18 10.5 -31t37.5 -13q17 0 38.5 11t41 26.5t33.5 33.5t17 33z" />
    <glyph glyph-name="quotesingle" unicode="'" horiz-adv-x="286" 
d="M271 637q-4 -21 -59 -147l-17 21q-14 109 -12 122q10 56 53 56q44 0 35 -52z" />
    <glyph glyph-name="parenleft" unicode="(" horiz-adv-x="361" 
d="M272 -127h-5q-218 192 -175 437q44 249 334 450h2q-209 -168 -258 -443q-22 -128 0 -239.5t102 -204.5z" />
    <glyph glyph-name="parenright" unicode=")" horiz-adv-x="361" 
d="M44 -127q114 93 175 204.5t83 239.5q49 275 -100 443h2q218 -201 174 -450q-43 -245 -329 -437h-5z" />
    <glyph glyph-name="asterisk" unicode="*" horiz-adv-x="535" 
d="M484 422q-5 -29 -38 -29q-36 0 -110 97l-2 -2q12 -84 5 -123q-9 -53 -44 -53q-13 0 -20 15t-3 38q8 48 47 123l-2 2q-105 -97 -143 -97q-33 0 -28 29q3 16 21 29t43 22.5t52 16.5t48 11v3q-19 5 -43.5 11.5t-46 15.5t-35.5 21.5t-11 30.5q6 32 39 32q34 0 108 -99l3 3
q-12 72 -3 123t41 51q35 0 26 -51q-7 -39 -49 -123l1 -3q109 99 145 99q33 0 27 -32q-3 -16 -19.5 -28.5t-40.5 -22t-52 -16.5t-53 -12v-3q23 -4 48.5 -11t46 -17t33 -22.5t9.5 -28.5z" />
    <glyph glyph-name="plus" unicode="+" horiz-adv-x="535" 
d="M336 358h160l21 -52h-191l-31 -176h-52l31 176h-160l-22 52h192l31 176h52z" />
    <glyph glyph-name="comma" unicode="," horiz-adv-x="220" 
d="M183 21q-4 -22 -18.5 -45.5t-36 -44.5t-47.5 -37t-52 -23l-26 11q52 24 87.5 56t40.5 60q3 18 -7 40q-16 -15 -36 -15q-21 0 -35.5 14.5t-10.5 38.5q10 56 70 56q18 0 33 -9t24.5 -24.5t13.5 -35.5t0 -42z" />
    <glyph glyph-name="hyphenminus" unicode="-" horiz-adv-x="405" 
d="M421 292h-303l-23 52h304z" />
    <glyph glyph-name="period" unicode="." horiz-adv-x="259" 
d="M197 57q-5 -23 -24 -40t-44 -17q-23 0 -37.5 17t-9.5 40q4 24 24 40.5t43 16.5q25 0 38.5 -16.5t9.5 -40.5z" />
    <glyph glyph-name="slash" unicode="/" horiz-adv-x="403" 
d="M465 773l-441 -919h-49l440 919h50z" />
    <glyph glyph-name="colon" unicode=":" horiz-adv-x="259" 
d="M270 472q-5 -24 -24.5 -41t-44.5 -17q-23 0 -37 17t-9 41q4 24 24 40.5t43 16.5q25 0 38.5 -16.5t9.5 -40.5zM214 158q-4 -23 -23.5 -40t-44.5 -17q-23 0 -37 17t-10 40q5 24 24.5 40.5t42.5 16.5q25 0 39 -16.5t9 -40.5z" />
    <glyph glyph-name="semicolon" unicode=";" horiz-adv-x="259" 
d="M270 472q-5 -24 -24.5 -41t-44.5 -17q-23 0 -37 17t-9 41q4 24 24 40.5t43 16.5q25 0 38.5 -16.5t9.5 -40.5zM231 104q-4 -22 -19 -45.5t-37 -44.5t-47.5 -37t-51.5 -23l-27 11q53 24 88.5 56t40.5 60q3 18 -7 40q-17 -15 -37 -15t-35 14.5t-10 38.5q9 56 69 56
q18 0 33 -9t25.5 -24.5t14.5 -35.5t0 -42z" />
    <glyph glyph-name="less" unicode="&#x3c;" horiz-adv-x="575" 
d="M520 100l-440 194l7 35l508 196l-11 -60l-392 -153l339 -151z" />
    <glyph glyph-name="equal" unicode="=" horiz-adv-x="478" 
d="M511 352h-388l-23 52h389zM481 187h-388l-22 52h389z" />
    <glyph glyph-name="greater" unicode="&#x3e;" horiz-adv-x="575" 
d="M89 100l11 61l393 151l-340 153l11 60l440 -196l-7 -35z" />
    <glyph glyph-name="question" unicode="?" horiz-adv-x="429" 
d="M441 478q-14 -81 -103 -144q-118 -85 -121 -107q-4 -21 30 -73l-57 25q-27 47 -21 80q3 18 10.5 31.5t22.5 28t40.5 31.5t66.5 43q84 54 95 112q6 35 -15.5 56.5t-61.5 21.5q-74 0 -97 -60q59 0 51 -46q-4 -22 -24.5 -38.5t-40.5 -16.5q-69 0 -55 78q9 55 53 88.5
t107 33.5q31 0 56 -10.5t41 -29.5t22 -45.5t1 -58.5zM273 65q-4 -24 -23.5 -41t-44.5 -17q-23 0 -37 17t-10 41t24 40.5t43 16.5q25 0 38.5 -16.5t9.5 -40.5z" />
    <glyph glyph-name="at" unicode="@" horiz-adv-x="763" 
d="M557 489h90l-107 -227q-19 -39 -23 -58q-1 -11 5.5 -20t19.5 -9q27 0 58.5 19.5t60.5 51.5t50.5 73t29.5 84q9 51 -0.5 93.5t-35.5 73t-66.5 48t-92.5 17.5q-65 0 -127.5 -24t-115.5 -68.5t-90.5 -107t-50.5 -139.5q-11 -63 1 -116.5t43.5 -91.5t80.5 -59.5t112 -21.5
q51 0 100.5 14.5t93.5 41t80.5 63.5t61.5 83h22q-64 -109 -157.5 -166t-205.5 -57q-71 0 -126 24.5t-90.5 67.5t-49.5 102t-2 129q14 81 54.5 145.5t98 110t128.5 69.5t146 24q60 0 103.5 -20.5t70 -55t35.5 -79t1 -93.5q-11 -63 -39.5 -111.5t-66 -82t-79.5 -50.5t-81 -17
q-37 0 -53 18t-11 46q4 20 18 52q-28 -38 -49 -60.5t-38 -35t-31 -16.5t-29 -4q-26 0 -40 20.5t-7 60.5q7 41 26 80t45.5 73.5t59 63t67.5 46.5q18 10 40 10q20 0 31.5 -13t10.5 -45zM499 476q-17 0 -40 -27t-45 -64t-39 -75t-20 -60q-3 -16 2.5 -25t13.5 -9q13 0 35.5 20.5
t45 52t41 69t24.5 70.5q4 21 -1.5 34.5t-16.5 13.5z" />
    <glyph glyph-name="bracketleft" unicode="[" horiz-adv-x="285" 
d="M376 717h-105l-143 -808h105l-5 -32h-151l154 873h151z" />
    <glyph glyph-name="backslash" unicode="\" horiz-adv-x="278" 
d="M120 677h62l96 -692h-63z" />
    <glyph glyph-name="bracketright" unicode="]" horiz-adv-x="285" 
d="M161 717l6 33h151l-154 -873h-151l5 32h105l143 808h-105z" />
    <glyph glyph-name="asciicircum" unicode="^" horiz-adv-x="433" 
d="M102 385l218 291h34l111 -291h-63l-82 207l-155 -207h-63z" />
    <glyph glyph-name="underscore" unicode="_" horiz-adv-x="470" 
d="M442 0h-381l-23 52h382z" />
    <glyph glyph-name="grave" unicode="`" horiz-adv-x="333" 
d="M169 685h117l26 -170h-41z" />
    <glyph glyph-name="braceleft" unicode="{" horiz-adv-x="285" 
d="M94 310l11 5q15 8 34.5 23t29.5 38q2 8 11 56t25 138q12 66 46.5 94.5t107.5 28.5h3q-73 -15 -92 -123l-11 -65q-2 -26 -6 -47q-5 -31 -10.5 -52.5t-15 -37.5t-26.5 -29.5t-46 -28.5q24 -15 36 -28.5t16 -29.5t2 -37.5t-8 -52.5q-4 -22 -11 -47l-12 -65q-19 -108 49 -123
h-3q-73 0 -97.5 28.5t-13.5 94.5q16 90 24 138t9 56q-2 23 -16 38t-27 23z" />
    <glyph glyph-name="bar" unicode="|" horiz-adv-x="251" 
d="M62 -143l158 893h53l-158 -893h-53z" />
    <glyph glyph-name="braceright" unicode="}" horiz-adv-x="285" 
d="M299 310l-11 -5q-15 -8 -34 -23t-29 -38q-3 -8 -12 -56t-25 -138q-11 -66 -45.5 -94.5t-107.5 -28.5h-3q72 15 91 123l12 65q1 25 5 47q6 31 11 52.5t15 37.5t27 29.5t45 28.5q-23 15 -35 28.5t-16.5 29.5t-2 37.5t7.5 52.5q4 21 12 47l11 65q19 108 -48 123h3
q73 0 97.5 -28.5t12.5 -94.5q-16 -90 -24 -138t-8 -56q2 -23 15.5 -38t26.5 -23z" />
    <glyph glyph-name="asciitilde" unicode="~" horiz-adv-x="590" 
d="M603 401h28q-17 -78 -61.5 -118t-98.5 -40q-15 0 -25.5 1t-27 6.5t-44 17.5t-75.5 34q-67 29 -98 29q-33 0 -58.5 -19.5t-42.5 -67.5h-28q18 81 60.5 119.5t93.5 38.5q35 0 74.5 -14t102.5 -44q35 -17 55 -24.5t44 -7.5q34 0 62 23t39 66z" />
    <glyph glyph-name="periodcentered" unicode="&#xb7;" horiz-adv-x="263" 
d="M247 323q-4 -24 -24 -42t-45 -18q-26 0 -40 18t-10 42q5 25 25 42.5t46 17.5q25 0 39 -17.5t9 -42.5z" />
    <glyph glyph-name="multiply" unicode="&#xd7;" horiz-adv-x="432" 
d="M156 504l121 -148l174 147l33 -40l-174 -147l122 -148l-47 -40l-122 148l-172 -146l-33 40l172 146l-122 147z" />
    <glyph glyph-name="divide" unicode="&#xf7;" horiz-adv-x="493" 
d="M493 344l22 -52h-403l-23 52h404zM389 474q-4 -24 -24.5 -42t-45.5 -18q-26 0 -39.5 18t-9.5 42q4 25 24.5 42.5t46.5 17.5q25 0 38.5 -17.5t9.5 -42.5zM334 162q-4 -24 -24.5 -42t-45.5 -18q-26 0 -39.5 18t-9.5 42q4 25 24.5 42.5t46.5 17.5q25 0 38.5 -17.5t9.5 -42.5
z" />
    <glyph glyph-name="softhyphen" unicode="&#xad;" horiz-adv-x="393" 
d="M466 292h-303l-14 52h304z" />
    <glyph glyph-name="softhyphen" unicode="&#x2010;" horiz-adv-x="393" 
d="M466 292h-303l-14 52h304z" />
    <glyph glyph-name="endash" unicode="&#x2013;" horiz-adv-x="493" 
d="M515 292h-403l-23 52h404z" />
    <glyph glyph-name="emdash" unicode="&#x2014;" horiz-adv-x="593" 
d="M615 292h-503l-23 52h504z" />
    <glyph glyph-name="quoteleft" unicode="&#x2018;" horiz-adv-x="300" 
d="M351 699q-56 -27 -89.5 -59t-38.5 -57q-3 -20 6 -40q16 13 33 13q23 0 38.5 -14t10.5 -38q-10 -56 -69 -56q-19 0 -34 8.5t-24.5 23.5t-13.5 35.5t0 43.5q4 22 18.5 45.5t36 44.5t47 37.5t53.5 23.5z" />
    <glyph glyph-name="quoteright" unicode="&#x2019;" horiz-adv-x="300" 
d="M119 452q56 27 89.5 59t38.5 57q3 20 -6 40q-16 -13 -33 -13q-23 0 -38.5 14t-10.5 38q9 56 68 56q19 0 34 -8.5t25 -23.5t14 -35.5t0 -43.5q-4 -22 -18.5 -45.5t-36 -44.5t-48 -37.5t-52.5 -23.5z" />
    <glyph glyph-name="quotedblleft" unicode="&#x201c;" horiz-adv-x="492" 
d="M351 699q-56 -27 -89.5 -59t-38.5 -57q-3 -20 6 -40q16 13 33 13q23 0 38.5 -14t10.5 -38q-10 -56 -69 -56q-19 0 -34 8.5t-24.5 23.5t-13.5 35.5t0 43.5q4 22 18.5 45.5t36 44.5t47 37.5t53.5 23.5zM543 699q-56 -27 -89.5 -59t-38.5 -57q-3 -20 6 -40q16 13 32 13
q23 0 39 -14t11 -38q-10 -56 -70 -56q-18 0 -33 8.5t-24.5 23.5t-13.5 35.5t0 43.5q4 22 18.5 45.5t36 44.5t47 37.5t53.5 23.5z" />
    <glyph glyph-name="quotedblright" unicode="&#x201d;" horiz-adv-x="492" 
d="M308 452q56 27 89.5 59t38.5 57q3 20 -6 40q-16 -13 -33 -13q-23 0 -38.5 14t-10.5 38q9 56 68 56q19 0 34 -8.5t25 -23.5t14 -35.5t0 -43.5q-4 -22 -18.5 -45.5t-36 -44.5t-48 -37.5t-52.5 -23.5zM116 452q56 27 89.5 59t38.5 57q3 20 -6 40q-16 -13 -32 -13
q-23 0 -39 14t-11 38q9 56 69 56q18 0 33 -8.5t25 -23.5t14 -35.5t0 -43.5q-4 -22 -18.5 -45.5t-36 -44.5t-47.5 -37.5t-53 -23.5z" />
    <glyph glyph-name="a_beng" unicode="&#x985;" horiz-adv-x="761" 
d="M872 577h-82l-106 -604l-19 20q1 31 -5 66.5t-17 68.5t-27 62t-34 49q-25 -55 -69.5 -85.5t-96.5 -30.5q-196 0 -291 422l36 -22q88 -314 244 -314q30 0 57 9.5t49 26.5t36.5 40t18.5 49q6 31 -0.5 55.5t-21 41.5t-35 25.5t-42.5 8.5q8 -16 4 -38q-5 -30 -31 -54.5
t-62 -24.5q-33 0 -54.5 25.5t-14.5 64.5q5 29 31 56t67 34q-25 32 -66 49h-250l-37 45h781zM667 139q1 22 2 31l72 407h-316q4 -6 8.5 -17.5t10.5 -28.5q39 -2 71.5 -21t54.5 -50t31.5 -71t1.5 -85q42 -66 62 -167z" />
    <glyph glyph-name="aa_beng" unicode="&#x986;" horiz-adv-x="956" 
d="M667 139q1 22 2 31l72 407h-316q4 -6 8.5 -17.5t10.5 -28.5q39 -2 71.5 -21t54.5 -50t31.5 -71t1.5 -85q42 -66 62 -167zM790 577l-106 -604l-19 20q1 31 -5 66.5t-17 68.5t-27 62t-34 49q-25 -55 -69.5 -85.5t-96.5 -30.5q-196 0 -291 422l36 -22q88 -314 244 -314
q30 0 57 9.5t49 26.5t36.5 40t18.5 49q6 31 -0.5 55.5t-21 41.5t-35 25.5t-42.5 8.5q8 -16 4 -38q-5 -30 -31 -54.5t-62 -24.5q-33 0 -54.5 25.5t-14.5 64.5q5 29 31 56t67 34q-25 32 -66 49h-250l-37 45h783q43 0 65.5 -30.5t22.5 -96.5h2l41 232l22 -28q-3 -17 0 -31
t9 -24.5t14.5 -16t17.5 -5.5l36 -45h-37q-36 0 -40 13l-3 -2l-112 -634l-40 62l79 433q-7 128 -79 128h-45z" />
    <glyph glyph-name="i_beng" unicode="&#x987;" horiz-adv-x="497" 
d="M608 577h-262q7 -47 4 -62q37 0 68 -13t52 -35.5t30 -52.5t3 -65q-26 -146 -232 -199v-2q11 -4 32 -17t46.5 -32t53.5 -41.5t53.5 -46.5t47.5 -46.5t35 -40.5l6 -53q-52 55 -101 96.5t-100 73t-106.5 54.5t-119.5 40l-42 132q82 -51 137 -51q37 0 79 13.5t79 35.5
t63.5 50.5t32.5 59.5q6 34 -15.5 56.5t-63.5 22.5q-26 0 -54 -12q-19 -52 -56.5 -81t-77.5 -29q-30 0 -48 19t-12 53q4 23 21 43.5t40.5 35.5t52 23.5t55.5 8.5q8 44 -41 62h-177l-37 45h464q19 26 22 45q10 55 -81 55q-6 0 -20.5 -1.5t-30.5 -3t-30.5 -2.5t-20.5 -1
q-232 0 -208 133q8 47 42 78l23 -17q-29 -21 -34 -49q-12 -68 104 -68q8 0 41 3q32 3 52 4t22 1q32 0 54 -2t38 -9t29.5 -19t29.5 -32q18 -21 23 -45.5t2 -50.5q-3 -15 -5 -19h3z" />
    <glyph glyph-name="ii_beng" unicode="&#x988;" horiz-adv-x="622" 
d="M488 -34l-33 25q-6 13 -9.5 44t-5.5 66t-1.5 66.5t2.5 44.5q15 83 90 180l-2 5q-69 -50 -132 -125q-120 -143 -188 -143q-42 0 -64 35t-22 92q1 2 24 19q5 -60 45 -60q21 0 49.5 16.5t56 40.5t48 52t24.5 51q5 31 -12.5 51.5t-47.5 20.5q-25 0 -34 -8q-16 -91 -88 -91
q-32 0 -48.5 20.5t-10.5 51.5q11 66 104 91q-12 66 -81 66h-61l-35 45h515q20 14 24 36q9 54 -81 54q-4 0 -27 -1.5t-51 -3t-51.5 -2.5t-28.5 -1q-112 0 -165.5 38.5t-41.5 104.5q6 37 40 68l23 -17q-29 -21 -34 -49q-12 -68 104 -68q7 0 50 2t123 6q49 0 78 -7t46 -24
q64 -64 51 -136h69l34 -45h-482q15 -25 19 -58q33 0 59 -10.5t43.5 -28t25.5 -40.5t4 -47q-1 -7 -3 -13.5t-4 -12.5l2 -2q80 75 206 140l69 -55q-157 -96 -186 -261q-3 -18 -4.5 -50t-1 -66t2.5 -64t5 -43z" />
    <glyph glyph-name="u_beng" unicode="&#x989;" horiz-adv-x="630" 
d="M741 577h-340l-41 -233q-4 -21 18 -21q59 0 183 143q85 -62 62 -191q-9 -53 -32.5 -96.5t-56.5 -75t-75 -49t-88 -17.5q-272 0 -246 508l28 -17q9 -406 220 -406q40 0 76.5 14t66 37.5t49.5 54t26 62.5q8 45 -17 77q-130 -116 -199 -116q-14 0 -26.5 9t-21.5 24t-13 34
t-1 38l39 221h-261l-35 45h563q18 25 21 45q10 55 -80 55q-6 0 -26 -1.5t-42 -3t-42.5 -2.5t-28.5 -1q-231 0 -207 133q8 47 42 78l22 -17q-28 -21 -33 -49q-12 -68 104 -68q9 0 32.5 1t49.5 2.5t46.5 3t22.5 1.5q31 0 53.5 -2.5t38.5 -9t30 -19t29 -31.5q18 -21 22.5 -45.5
t1.5 -50.5q-3 -15 -5 -19h37z" />
    <glyph glyph-name="uu_beng" unicode="&#x98a;" horiz-adv-x="699" 
d="M423 37q-336 0 -298 513l28 -17q-4 -325 124 -402l9 6q-86 111 -65 411l28 -15q-12 -411 194 -411q38 1 75 15t66.5 37t50 53t26.5 63q8 45 -17 77q-130 -116 -200 -116q-12 0 -23.5 9t-19.5 24t-11.5 33.5t-0.5 38.5l39 221h-337l-35 45h602q20 14 24 36q9 54 -81 54
q-2 0 -19 -0.5t-42.5 -1.5t-55 -2t-55 -2t-43.5 -1.5t-20 -0.5q-112 0 -165.5 38.5t-41.5 104.5q6 37 40 68l23 -17q-29 -21 -34 -49q-12 -68 104 -68l250 8q48 0 77 -7t47 -24q64 -62 51 -136h58l35 -45h-333l-41 -233q-4 -21 12 -21q58 0 183 143q83 -65 60 -194
q-9 -52 -33 -95t-59 -74t-80 -48.5t-96 -17.5z" />
    <glyph glyph-name="vocalicr_beng" unicode="&#x98b;" horiz-adv-x="655" 
d="M402 123l55 309q-104 -33 -241 -110q110 -43 183 -199h3zM592 54l-18 19q-6 131 -101 182l-49 -282l-17 20q1 48 -23 96.5t-60 87t-78 63t-78 24.5h-11l-44 70q185 115 318 156q-8 19 -24.5 33.5t-28.5 14.5q-5 0 -26.5 -11t-50.5 -24.5t-61.5 -24.5t-60.5 -11
q-40 0 -60 21t-14 54q10 57 63 57q16 0 22.5 -9.5t10 -20.5t7.5 -20.5t14 -9.5q41 0 126 83q71 -41 111 -123l10 2l30 171l39 -50l-53 -301q58 -45 83 -115h2l92 521l27 -28q-3 -17 0 -31t9 -24.5t14.5 -16t17.5 -5.5l36 -45h-37q-36 0 -40 13l-3 -2z" />
    <glyph glyph-name="e_beng" unicode="&#x98f;" horiz-adv-x="641" 
d="M563 -34l-23 24q7 70 -12.5 98.5t-71.5 28.5q-19 0 -48 -2t-57 -4.5t-49 -4.5t-24 -2q-108 0 -160 53.5t-35 153.5q13 72 65 137l17 -21q-34 -41 -45 -99q-11 -67 22.5 -107t114.5 -40l65 3q24 3 49.5 4t35.5 1q24 0 42.5 -3.5t33.5 -11.5t28.5 -21.5t29.5 -32.5l73 414
q8 46 -33 46q-17 0 -50.5 -19t-67 -46.5t-59.5 -58t-30 -53.5q-2 -11 0 -19q28 17 45 17q26 0 40 -18t9 -43q-6 -34 -35 -54.5t-63 -20.5q-23 0 -40 9.5t-29 26t-16 38.5t1 47q7 41 40.5 84.5t77.5 79.5t90.5 59t79.5 23q20 0 37 -10.5t29.5 -26t18.5 -33t3 -30.5z" />
    <glyph glyph-name="ai_beng" unicode="&#x990;" horiz-adv-x="698" 
d="M769 571q-19 -111 -124 -139l-82 -466l-23 24q7 70 -12.5 98.5t-71.5 28.5q-19 0 -48 -2t-57 -4.5t-49 -4.5t-24 -2q-108 0 -160 53.5t-35 153.5q13 72 65 137l17 -21q-34 -41 -45 -99q-11 -67 22.5 -107t114.5 -40l65 3q24 3 49.5 4t35.5 1q24 0 42.5 -3.5t33.5 -11.5
t28.5 -21.5t29.5 -32.5l73 414q8 46 -33 46q-17 0 -50.5 -19t-67 -46.5t-59.5 -58t-30 -53.5q-2 -11 0 -19q28 17 45 17q26 0 40 -18t9 -43q-6 -34 -35 -54.5t-63 -20.5q-23 0 -40 9.5t-29 26t-16 38.5t1 47q7 41 40.5 84.5t77.5 79.5t90.5 59t79.5 23q20 0 37 -10.5
t29.5 -26t18.5 -33t3 -30.5l-6 -37q9 -3 19 -3q51 0 63 66q5 30 -2 53.5t-28.5 42t-60 32t-96.5 24.5q-49 9 -86 25.5t-61.5 39t-34.5 49.5t-5 57q11 63 89 95l12 -24q-64 -24 -71 -66q-5 -27 10 -40.5t48 -23.5t82.5 -22t115.5 -34q70 -25 100 -78.5t19 -116.5z" />
    <glyph glyph-name="o_beng" unicode="&#x993;" horiz-adv-x="682" 
d="M664 215q-6 -35 -24.5 -63.5t-45 -49t-61 -32t-71.5 -11.5q-124 0 -210 128.5t-125 372.5l37 -21q36 -191 114.5 -293t190.5 -102q28 0 55.5 7.5t48.5 20t35.5 30t18.5 38.5q9 54 -29 75q-29 -27 -68 -27q-28 0 -44.5 20.5t-11.5 52.5q6 31 30.5 54t55.5 23q29 0 43 -17
q46 43 55 90q11 66 -73 66q-24 0 -55 -10t-61.5 -26t-56 -36t-37.5 -40q50 -11 40 -65q-4 -25 -26.5 -45.5t-49.5 -20.5q-15 0 -27.5 7.5t-21.5 20.5t-13 30t-1 36q6 37 33 72t66 62t86.5 43.5t94.5 16.5q72 0 106.5 -40t22.5 -110q-12 -68 -64 -130q56 -54 43 -127z" />
    <glyph glyph-name="au_beng" unicode="&#x994;" horiz-adv-x="700" 
d="M770 565q-5 -27 -19 -58t-34 -61t-45 -57.5t-51 -46.5q56 -54 43 -127q-6 -35 -24.5 -63.5t-45 -49t-61 -32t-71.5 -11.5q-124 0 -210 128.5t-125 372.5l37 -21q36 -191 114.5 -293t190.5 -102q28 0 55.5 7.5t48.5 20t35.5 30t18.5 38.5q9 54 -29 75q-29 -27 -68 -27
q-28 0 -44.5 20.5t-11.5 52.5q6 31 30.5 54t55.5 23q29 0 43 -17q46 43 55 90q11 66 -73 66q-24 0 -55 -10t-61.5 -26t-56 -36t-37.5 -40q50 -11 40 -65q-4 -25 -26.5 -45.5t-49.5 -20.5q-15 0 -27.5 7.5t-21.5 20.5t-13 30t-1 36q6 37 33 72t66 62t86.5 43.5t94.5 16.5
q72 0 106.5 -40t22.5 -110q-2 -8 -11 -27l6 -2q48 52 58 110q5 29 -3 51.5t-32 40.5t-64 32t-99 25q-48 9 -85 25.5t-62 38.5t-35 49t-5 57q11 63 89 95l13 -24q-64 -23 -72 -66q-4 -26 17.5 -41t59 -27t85 -23t94.5 -27q156 -54 131 -194z" />
    <glyph glyph-name="ka_beng" unicode="&#x995;" horiz-adv-x="696" 
d="M807 577h-286l-8 -45q40 0 76.5 -19.5t62 -52.5t37.5 -75.5t4 -88.5q-5 -26 -16 -47.5t-26.5 -37.5t-33.5 -24.5t-36 -8.5q-14 0 -25.5 5.5t-19.5 15t-11 22t-1 25.5q4 25 24.5 44t44.5 19q45 0 55 -43q13 13 16 32q5 30 -5 59t-33 51.5t-55.5 36.5t-69.5 15l-86 -487
l-17 20q0 43 -18 89.5t-51 85.5t-79.5 66.5t-105.5 33.5l-54 83q245 160 375 178l8 48h-382l-37 45h719zM395 132l57 324q-100 -18 -258 -118q124 -52 198 -206h3z" />
    <glyph glyph-name="kha_beng" unicode="&#x996;" horiz-adv-x="548" 
d="M659 577h-41q-32 0 -36 13h-2l-109 -617l-18 20q0 55 -22.5 103.5t-59.5 84t-86.5 56t-104.5 20.5l-62 105q22 -3 41 -3q42 0 83.5 11.5t76 30.5t57.5 42t27 47q3 16 -5 32t-20 16t-29 -15q-93 -76 -175 -76q-39 0 -60 21.5t-15 53.5q10 59 66 59q16 0 24 -7.5t13.5 -17
t9 -17t9.5 -7.5q33 0 141 90q96 -72 80 -166q-5 -26 -19.5 -49t-36.5 -42t-50 -33t-59 -20l-1 -2q103 -43 172 -178h2l105 595l23 -28q-6 -34 9 -55.5t36 -21.5z" />
    <glyph glyph-name="ga_beng" unicode="&#x997;" horiz-adv-x="563" 
d="M674 577h-36q-37 0 -40 13l-4 -2l-112 -634l-40 62l70 376q-18 76 -60 120t-105 44q-26 0 -52.5 -9.5t-48 -25.5t-36 -35.5t-18.5 -38.5q46 15 85 15q55 0 81 -36t17 -90q-15 -85 -135 -210l-58 63q138 115 151 186q7 42 -39 42q-50 0 -124 -50q-18 -13 -29 -13
q-20 0 -30.5 25.5t-3.5 64.5q6 37 28.5 69.5t54 56.5t69 38t74.5 14q33 0 63 -13.5t55 -36.5t43.5 -54.5t29.5 -68.5h2l49 278l22 -28q-3 -17 0 -31t9 -24.5t14.5 -16t17.5 -5.5z" />
    <glyph glyph-name="gha_beng" unicode="&#x998;" horiz-adv-x="524" 
d="M635 577h-82l-106 -604l-18 20q-2 35 -21 74.5t-53 72.5t-80.5 55t-103.5 22l-47 65q36 36 134 116h-13q-4 -1 -10 -1q-29 0 -53 8.5t-39 24t-22 36t-3 44.5q7 35 33 67h-60l-37 45h546zM421 105l83 472h-224q-15 0 -29 -6.5t-26 -17t-20 -24t-10 -26.5q-5 -30 14 -52.5
t54 -22.5q34 0 108 58l45 -52q-54 -36 -102 -73.5t-89 -77.5q124 -33 194 -178h2z" />
    <glyph glyph-name="nga_beng" unicode="&#x999;" horiz-adv-x="606" 
d="M365 7q-272 0 -246 509l27 -17q11 -406 222 -406q32 0 63 10.5t55.5 28.5t41 42t21.5 52q13 70 -38 85q-21 -24 -44 -44.5t-45 -35.5t-41.5 -23t-32.5 -8q-12 0 -26 10t-25.5 24t-19 29.5t-9.5 26.5q-3 14 -2.5 35.5t6.5 52.5l20 90q-89 52 -136 147l79 17q7 -84 67 -128
q7 27 26 51t44.5 43t55 30t57.5 11q22 0 40.5 -7.5t29.5 -20t16 -29t2 -34.5q-4 -24 -19 -45t-37 -37t-50 -25.5t-58 -9.5q-38 0 -74 17q-3 -15 -7.5 -36t-8.5 -47q-18 -99 22 -99q11 0 29.5 12t39.5 31.5t41.5 44t37.5 49.5q119 -78 97 -200q-7 -41 -27 -76.5t-49.5 -62
t-66.5 -42t-78 -15.5zM394 476q21 0 45.5 7t46 18t36.5 24t17 25q6 32 -43 32q-18 0 -42.5 -9t-47.5 -23t-39.5 -31t-19.5 -33q19 -10 47 -10z" />
    <glyph glyph-name="ca_beng" unicode="&#x99a;" horiz-adv-x="477" 
d="M588 577h-367l-5 -28q2 -21 15.5 -43.5t36 -41.5t54 -31.5t68.5 -14.5q20 -1 35 -13q31 -22 44 -42t7 -54q-8 -44 -42.5 -95t-79.5 -95.5t-93 -74t-82 -29.5q-7 0 -22.5 10t-30.5 29t-23.5 47t-1.5 65l72 411h-82l-37 45h499zM397 301q5 28 -17 32q-34 7 -63.5 23
t-52.5 38t-37 49.5t-16 56.5h-3l-62 -347q-12 -72 28 -72q10 0 43.5 19.5t71 50.5t69.5 70.5t39 79.5z" />
    <glyph glyph-name="cha_beng" unicode="&#x99b;" horiz-adv-x="542" 
d="M572 -137q-57 65 -104.5 107.5t-94.5 68.5t-99.5 38t-118.5 16l-37 102q39 -25 103 -25q46 0 93.5 16.5t87 43t66 59.5t32.5 66q7 37 -9.5 57.5t-44.5 20.5q-15 0 -33 -5q2 -11 0 -23q-8 -31 -32 -61t-55.5 -54t-65 -38.5t-60.5 -14.5q-5 0 -18 5.5t-25.5 19t-20.5 36
t-2 55.5l39 224h-82l-37 45h564l35 -45h-431l-5 -30q28 -71 155 -71q1 0 10 1t20 2t21.5 2t14.5 1q22 0 43 -14.5t36.5 -37.5t23 -52t2.5 -58q-6 -36 -25.5 -67t-49 -56.5t-68 -44t-82.5 -28.5v-2q27 -6 62.5 -27t70.5 -50t66 -63t50 -65zM344 405v18q-54 0 -86 23.5
t-44 74.5l-2 -2l-34 -191q-7 -39 14 -39q45 0 132 81q17 17 20 35z" />
    <glyph glyph-name="ja_beng" unicode="&#x99c;" horiz-adv-x="711" 
d="M822 577h-332q-8 -1 -44 -22q-2 -20 5 -38t22.5 -31.5t37.5 -21.5t48 -8q45 0 132 37l62 -87q-121 -96 -148 -251q-15 -86 -7 -182l-25 18q-19 108 -2 207q23 128 95 214q-20 -5 -36 -6.5t-29 -1.5q-39 0 -71.5 9.5t-57 27.5t-39.5 42.5t-19 54.5q-28 -15 -53.5 -35
t-46 -41.5t-33 -42.5t-15.5 -37q-9 -50 40 -50q50 0 150 63q82 -56 64 -158q-6 -34 -22.5 -62.5t-40.5 -49t-54.5 -32t-65.5 -11.5q-63 0 -111.5 31t-77.5 87.5t-37.5 136t8.5 177.5l20 -14q-10 -72 -2 -133t33.5 -105.5t67 -69.5t98.5 -25q30 0 57 8t47 21t33.5 29.5
t16.5 34.5q7 35 -20 60q-83 -49 -140 -49q-27 0 -48.5 11.5t-34.5 30.5t-18 44.5t0 54.5q13 74 117 165h-255l-37 45h733z" />
    <glyph glyph-name="jha_beng" unicode="&#x99d;" horiz-adv-x="646" 
d="M757 577h-41q-32 0 -36 13h-2l-95 -536l-18 19q-6 131 -101 182l-49 -282l-18 20q1 43 -17 89.5t-51 85.5t-80 66.5t-105 33.5l-54 83q246 160 374 178l8 48h-381l-37 45h475l-53 -301q58 -45 83 -115h2l92 521l23 -28q-6 -34 9 -55.5t36 -21.5zM394 132l57 324
q-99 -18 -257 -118q124 -52 198 -206h2z" />
    <glyph glyph-name="nya_beng" unicode="&#x99e;" horiz-adv-x="931" 
d="M920 472q5 31 -15.5 51.5t-53.5 20.5q-31 0 -67 -17t-68 -42.5t-54.5 -56t-27.5 -56.5q-5 -29 5 -60t30.5 -57.5t49 -43.5t60.5 -17q18 0 35.5 6.5t31.5 17t23.5 23.5t12.5 27q6 38 -22 61q-35 -33 -71 -33q-28 0 -44 19t-11 46q2 13 10 26t19.5 23.5t24.5 16.5t27 6
q31 0 47 -26q49 18 58 65zM649 458q43 69 98.5 110.5t106.5 41.5q55 0 83.5 -36t17.5 -99q-10 -60 -67 -116q39 -69 28 -128q-4 -22 -16 -41.5t-29.5 -34.5t-39 -24t-43.5 -9q-28 0 -54.5 11.5t-49 32.5t-39.5 50t-27 65l-55 -315l-23 24q7 70 -12.5 98.5t-71.5 28.5
q-19 0 -48 -2t-57 -4.5t-49 -4.5t-24 -2q-108 0 -160 53.5t-35 153.5q13 72 65 137l17 -21q-34 -41 -45 -99q-11 -67 22.5 -107t114.5 -40l65 3q24 3 49.5 4t35.5 1q24 0 42.5 -3.5t33.5 -11.5t28.5 -21.5t29.5 -32.5l73 414q8 46 -33 46q-17 0 -50.5 -19t-67 -46.5
t-59.5 -58t-30 -53.5q-2 -11 0 -19q28 17 45 17q26 0 40 -18t9 -43q-6 -34 -35 -54.5t-63 -20.5q-23 0 -40 9.5t-29 26t-16 38.5t1 47q7 41 40.5 84.5t77.5 79.5t90.5 59t79.5 23q20 0 37 -10.5t29.5 -26t18.5 -33t3 -30.5z" />
    <glyph glyph-name="tta_beng" unicode="&#x99f;" horiz-adv-x="475" 
d="M508 622h45l33 -45h-364l-64 -367q-5 -24 -1.5 -44t10.5 -34.5t14.5 -22t11.5 -7.5q27 0 60.5 23t63.5 54t51 62.5t24 48.5q2 13 1 24q-11 -5 -22 -5q-67 0 -55 67q5 29 30 49t58 20q42 0 62 -33.5t10 -93.5q-9 -46 -42 -95.5t-76.5 -91t-88.5 -68t-77 -26.5
q-35 0 -76 94q-15 34 -9 73l66 373h-82l-37 45h396q26 12 30 34q9 50 -83 50q-21 0 -35.5 -0.5t-26.5 -1.5t-22 -1.5t-22 -0.5q-29 0 -57.5 7.5t-49.5 24t-32 42.5t-5 62q7 39 33 62l23 -17q-21 -18 -26 -44q-12 -68 85 -68q26 0 49.5 3.5t54.5 3.5q165 0 142 -156z" />
    <glyph glyph-name="ttha_beng" unicode="&#x9a0;" horiz-adv-x="469" 
d="M580 577h-198q103 -172 77 -318q-9 -50 -32 -93.5t-56.5 -75.5t-74.5 -50t-86 -18q-37 0 -67 13t-50 36t-28.5 54t-2.5 67q5 24 15 47q40 11 81.5 38.5t77.5 64t61.5 78.5t32.5 83q6 35 -4 74h-235l-37 45h258q-86 167 -73 245q14 75 77 99l47 -35q-76 -31 -86 -89
q-3 -18 -1 -36.5t11.5 -43t27 -58t45.5 -82.5h186zM412 294q5 25 4.5 54.5t-4.5 59t-12 55.5t-20 45l-2 -3q-1 -10 -2 -18.5t-2 -14.5q-8 -44 -30.5 -88t-54.5 -83t-73 -70t-86 -49q-9 -15 -13 -37q-6 -33 16 -58.5t65 -25.5q34 0 69 18.5t64.5 50.5t51 74t29.5 90z" />
    <glyph glyph-name="dda_beng" unicode="&#x9a1;" horiz-adv-x="630" 
d="M741 577h-340l-41 -233q-4 -21 18 -21q59 0 183 143q85 -62 62 -191q-9 -53 -32.5 -96.5t-56.5 -75t-75 -49t-88 -17.5q-272 0 -246 508l28 -17q9 -406 220 -406q40 0 76.5 14t66 37.5t49.5 54t26 62.5q8 45 -17 77q-130 -116 -199 -116q-14 0 -26.5 9t-21.5 24t-13 34
t-1 38l39 221h-261l-35 45h651z" />
    <glyph glyph-name="ddha_beng" unicode="&#x9a2;" horiz-adv-x="475" 
d="M553 622l33 -45h-364l-64 -367q-5 -24 -1.5 -44t10.5 -34.5t14.5 -22t11.5 -7.5q27 0 61 23t63.5 54t51 62.5t24.5 48.5q2 15 0 24q-11 -5 -22 -5q-67 0 -55 67q5 29 30 49t58 20q42 0 62 -33.5t10 -93.5q-6 -31 -23 -63.5t-41.5 -63.5t-53.5 -59t-59 -49t-57.5 -33.5
t-48.5 -12.5q-36 0 -77 94q-15 34 -9 73l66 373h-82l-37 45h499z" />
    <glyph glyph-name="nna_beng" unicode="&#x9a3;" horiz-adv-x="496" 
d="M607 577h-37q-36 0 -40 13l-3 -2l-112 -634l-40 62l69 376q-6 33 -19 61.5t-30.5 50t-38.5 34t-41 12.5q-26 0 -50 -11t-44 -29t-33 -41.5t-17 -48.5q-6 -33 5.5 -56.5t34.5 -26.5q-7 16 -4 36q5 25 26.5 42t48.5 17q28 0 43.5 -24t9.5 -57q-7 -40 -38 -63.5t-71 -23.5
q-32 0 -58 12.5t-42 34.5t-22 51.5t0 64.5q7 40 26.5 75.5t48 62t61.5 42t67 15.5q102 0 150 -173h2l49 278l22 -28q-3 -17 0 -31t9 -24.5t14.5 -16t17.5 -5.5z" />
    <glyph glyph-name="ta_beng" unicode="&#x9a4;" horiz-adv-x="678" 
d="M789 577h-698l-37 45h698zM670 271q-8 -47 -30 -88t-54.5 -71.5t-72.5 -48t-85 -17.5q-59 0 -106 29t-83.5 90.5t-64.5 156.5t-49 226l35 -21q75 -395 274 -395q38 0 73 13.5t62.5 36t46.5 52t25 61.5q5 31 0.5 60t-17.5 50.5t-33.5 34.5t-45.5 13q-28 0 -38 -11
q26 -27 18 -71q-7 -40 -37.5 -64.5t-72.5 -24.5q-20 0 -35.5 8t-25.5 22.5t-14 33.5t0 41q5 28 20 52t37.5 42t51.5 28t61 10q41 0 74.5 -20t55.5 -54t30.5 -79t-0.5 -95z" />
    <glyph glyph-name="tha_beng" unicode="&#x9a5;" horiz-adv-x="567" 
d="M678 577h-40q-32 0 -36 13h-3l-109 -617l-17 20q0 22 -3.5 40.5t-13.5 36.5t-27.5 37.5t-46.5 45.5q-90 81 -204 81l-68 106q10 -2 20 -3t21 -1q46 0 91.5 15t83.5 39.5t63.5 56t30.5 63.5q6 32 -16.5 54.5t-65.5 22.5q-69 0 -118 -62q44 -8 34 -61q-4 -26 -26.5 -45
t-50.5 -19q-15 0 -28 6.5t-22 17.5t-13 26t0 33q5 30 24 58t47.5 49.5t64 35t74.5 13.5q34 0 61.5 -13.5t46.5 -36.5t27.5 -53t2.5 -64q-22 -124 -197 -184q136 -57 197 -182h3l110 621l23 -28q-6 -34 8.5 -55.5t35.5 -21.5z" />
    <glyph glyph-name="da_beng" unicode="&#x9a6;" horiz-adv-x="490" 
d="M601 577h-379l-50 -287h2q20 25 55.5 56t76 62t82 58t74.5 44l77 -63q-122 -113 -148 -264q-9 -48 -11.5 -102t1.5 -115l-29 27q-13 174 1 251q16 93 68 160l-2 2q-36 -18 -73 -46t-70.5 -61t-61.5 -69t-46 -70q-36 33 -55 75l60 342h-82l-39 45h513z" />
    <glyph glyph-name="dha_beng" unicode="&#x9a7;" horiz-adv-x="496" 
d="M607 577h-82l-106 -604l-19 20q0 19 -9.5 46.5t-28.5 57t-49.5 58t-73.5 49.5q-32 16 -58.5 22t-51.5 7l-45 79q48 36 93.5 66.5t91.5 57.5l1 2q-51 0 -77.5 29.5t-17.5 77.5q3 21 14 38.5t27 29.5t34.5 19t36.5 7q15 0 27 -5t20.5 -14t12.5 -20.5t2 -23.5
q-4 -22 -20.5 -36.5t-37.5 -14.5q-45 0 -39 35q1 5 6 13q-39 -6 -44 -37q-3 -15 2 -28t15 -23.5t24 -16.5t30 -6t41.5 11t53 26t52.5 29.5t39 21.5l13 72h86zM392 100l65 366q-62 -27 -130 -68.5t-148 -98.5q134 -45 209 -199h4z" />
    <glyph glyph-name="na_beng" unicode="&#x9a8;" horiz-adv-x="519" 
d="M630 577h-82l-106 -604l-18 20q3 21 2.5 50t-2.5 59t-7 58.5t-12 48.5q-48 140 -150 141q-11 0 -22 -6q50 -23 41 -76q-8 -42 -37 -69.5t-74 -27.5q-48 0 -71 30t-14 78q5 30 20.5 55.5t37.5 43.5t50.5 28t58.5 10q149 0 189 -213h2l4 32l60 342h-409l-37 45h539z" />
    <glyph glyph-name="pa_beng" unicode="&#x9aa;" horiz-adv-x="621" 
d="M732 577h-37q-37 0 -40 13l-3 -2l-112 -634l-41 62l60 324q-6 22 -17.5 44.5t-25.5 47.5q-144 -114 -260 -226l-84 28l53 48q30 30 35 60q4 24 -6.5 43.5t-31.5 19.5q-7 0 -18 -5t-22.5 -11.5t-21.5 -11.5t-15 -5q-21 0 -33.5 14t-8.5 37q5 28 30 57t61.5 53t78.5 39.5
t81 15.5q43 0 75.5 -10t57.5 -32.5t45 -59t40 -89.5h3l58 330l21 -28q-6 -34 9 -55.5t33 -21.5zM472 484q-42 43 -102 43q-20 0 -42.5 -6.5t-44.5 -17t-41.5 -24.5t-31.5 -29h14q17 0 31 -10.5t24 -26.5t13.5 -36.5t0.5 -39.5z" />
    <glyph glyph-name="pha_beng" unicode="&#x9ab;" horiz-adv-x="673" 
d="M784 577h-537l115 -161q-38 -24 -81 -55.5t-92 -67.5q24 -6 50.5 -23.5t52 -43t49.5 -58t44 -68.5h3l75 422q31 6 55 6q91 0 133.5 -47t27.5 -132q-8 -48 -38 -79t-66 -31q-67 0 -56 65q10 57 63 57q35 0 42 -27q20 9 24 33q7 37 -19 60.5t-81 23.5q-28 0 -51 -3
l-83 -475l-19 20q1 19 -8.5 46.5t-28.5 56.5t-49.5 57.5t-73.5 50.5q-33 17 -60 22.5t-50 6.5l-43 71q70 52 124 90t90 64q-50 60 -110 69q-32 4 -52.5 9t-31.5 11t-15.5 13t-4.5 17l-38 45h706z" />
    <glyph glyph-name="ba_beng" unicode="&#x9ac;" horiz-adv-x="515" 
d="M626 577h-82l-106 -604l-18 20q-2 45 -23.5 91.5t-58.5 84.5t-87 64.5t-109 32.5l-53 78q269 175 399 193l7 40h-404l-37 45h538zM415 122l60 339q-98 -17 -287 -133q153 -57 225 -206h2z" />
    <glyph glyph-name="bha_beng" unicode="&#x9ad;" horiz-adv-x="700" 
d="M811 577h-720l-37 45h722zM694 282q-8 -48 -32.5 -90.5t-60.5 -75t-80.5 -51.5t-93.5 -19q-58 0 -105 29t-84 90.5t-65 156.5t-48 226l35 -21q75 -395 273 -395q37 0 76 14.5t71.5 39.5t55.5 57.5t30 68.5q9 55 -30 77q-108 -107 -210 -107q-66 0 -97.5 31t-22.5 82
q8 43 37.5 70t68.5 27q33 0 50.5 -21.5t12.5 -49.5q-6 -31 -31 -55q3 -7 10 -7q28 0 70.5 31t83.5 91q27 -10 46 -29.5t30.5 -45.5t13.5 -58t-4 -66z" />
    <glyph glyph-name="ma_beng" unicode="&#x9ae;" horiz-adv-x="513" 
d="M624 577h-82l-106 -604l-18 20q-3 170 -117 212q-47 -68 -118 -68q-45 0 -69.5 29t-16.5 77q7 40 42.5 68t81.5 28q30 0 47 -13q18 10 22 33q3 20 -4.5 40.5t-24.5 39t-42 34t-57 25.5q-25 7 -41 14t-24 16t-10 21t1 28h-7l-37 45h546zM415 135l78 442h-297q-1 -8 7 -15
q42 -46 72 -82t46.5 -66.5t22 -57.5t0.5 -55q-3 -16 -14 -29q71 -78 82 -137h3z" />
    <glyph glyph-name="ya_beng" unicode="&#x9af;" horiz-adv-x="491" 
d="M602 577h-82l-106 -604l-18 20q-2 45 -29.5 87.5t-67.5 76t-85.5 54t-83.5 20.5l-48 73q70 52 123.5 90t89.5 64q-50 60 -110 69q-31 4 -51 9t-32 11t-16.5 13t-3.5 17l-38 45h525zM388 105l83 472h-224l115 -161q-38 -24 -81 -55.5t-93 -67.5q23 -6 48.5 -23t51.5 -42
t51.5 -56.5t46.5 -66.5h2z" />
    <glyph glyph-name="ra_beng" unicode="&#x9b0;" horiz-adv-x="515" 
d="M626 577h-82l-106 -604l-18 20q-2 45 -23.5 91.5t-58.5 84.5t-87 64.5t-109 32.5l-53 78q269 175 399 193l7 40h-404l-37 45h538zM415 122l60 339q-98 -17 -287 -133q153 -57 225 -206h2zM251 79q-4 -25 -24 -41t-43 -16q-25 0 -38 16t-9 41q4 23 23 40t44 17
q23 0 37 -17t10 -40z" />
    <glyph glyph-name="la_beng" unicode="&#x9b2;" horiz-adv-x="621" 
d="M732 577h-82l-110 -623l-40 62l59 316q-27 91 -73 91q-25 0 -45 -23.5t-26 -57.5q-4 -23 -2 -38l-21 14q-30 104 -127 104q-26 0 -49.5 -8.5t-42.5 -24t-32 -37t-18 -46.5q-3 -22 0.5 -41.5t13 -33.5t24 -22.5t32.5 -8.5q2 0 7.5 0.5t13.5 2.5q-20 19 -15 52
q3 12 10 23.5t17.5 21t24.5 15.5t29 6q33 0 50 -23t11 -56q-7 -42 -39 -68t-86 -26q-35 0 -62 13.5t-44.5 37.5t-23.5 58t1 76q6 35 23 65t41.5 52.5t54.5 35.5t63 13q80 0 111 -82q41 78 95 78q60 0 93 -111h5l34 193h-516l-35 45h641z" />
    <glyph glyph-name="sha_beng" unicode="&#x9b6;" horiz-adv-x="584" 
d="M695 577h-37q-37 0 -40 13l-3 -2l-112 -634l-40 62l74 409q-41 125 -102 125q-38 0 -85 -57q102 -72 90 -140q-5 -28 -30 -51t-56 -23q-57 0 -83 91q-53 -91 -113 -91q-31 0 -51.5 23t-14.5 59q12 68 141 133q-10 83 -70 83h-72l-33 45h88q100 0 116 -113q98 113 160 113
q71 0 129 -146l45 251l22 -28q-3 -17 0 -31t9 -24.5t14.5 -16t17.5 -5.5zM549 475h2l-1 2z" />
    <glyph glyph-name="ssa_beng" unicode="&#x9b7;" horiz-adv-x="493" 
d="M440 387l33 190h-237v-2q46 -35 96.5 -81.5t107.5 -106.5zM390 105l43 246q-17 20 -35 37t-36 32q-36 -25 -78 -56.5l-94 -70.5q23 -6 48.5 -23.5t52 -42t51.5 -56t46 -66.5h2zM522 577l-106 -604l-19 20q-3 45 -30.5 88t-67 76t-85 53.5t-84.5 20.5l-48 73
q74 55 129 94.5t93 65.5q-28 24 -56.5 37t-52.5 20t-42 10t-27 6q-44 14 -43 40h-2l-37 45h524l36 -45h-82z" />
    <glyph glyph-name="sa_beng" unicode="&#x9b8;" horiz-adv-x="576" 
d="M687 577h-82l-110 -623l-40 62l53 285q-23 67 -68 67q-11 0 -19.5 -2.5t-21 -11.5t-30.5 -26t-47 -46l-95 -95q-25 -26 -47 -26q-14 0 -28.5 14t-28.5 34.5t-25 43.5t-18 41l38 26q10 -66 37 -66q8 0 28.5 17t43.5 38.5t41 40t21 21.5q4 10 7 20.5t6 23.5q3 19 -3 38
t-20 34t-34 24.5t-43 9.5q-61 0 -80.5 13.5t-14.5 42.5h-16l-34 45h596zM521 348l40 229h-281v-2q72 -47 56 -135q-5 -27 -10 -36l1 -3q55 53 96 53q50 0 92 -106h6z" />
    <glyph glyph-name="ha_beng" unicode="&#x9b9;" horiz-adv-x="468" 
d="M579 577h-262q7 -47 4 -62q37 0 68 -13t52 -35.5t30 -52.5t3 -65q-26 -146 -232 -199v-2q11 -4 32 -17t46.5 -32t53.5 -41.5t53.5 -46.5t47.5 -46.5t35 -40.5l6 -53q-52 55 -101 96.5t-100 73t-106.5 54.5t-119.5 40l-42 132q82 -51 137 -51q37 0 79 13.5t79 35.5
t63.5 50.5t32.5 59.5q6 34 -15.5 56.5t-63.5 22.5q-26 0 -54 -12q-19 -52 -56.5 -81t-77.5 -29q-30 0 -48 19t-12 53q4 23 21 43.5t40.5 35.5t52 23.5t55.5 8.5q8 44 -41 62h-148l-37 45h490z" />
    <glyph glyph-name="rra_beng" unicode="&#x9dc;" horiz-adv-x="630" 
d="M741 577h-340l-41 -233q-4 -21 18 -21q59 0 183 143q85 -62 62 -191q-9 -53 -32.5 -96.5t-56.5 -75t-75 -49t-88 -17.5q-272 0 -246 508l28 -17q9 -406 220 -406q40 0 76.5 14t66 37.5t49.5 54t26 62.5q8 45 -17 77q-130 -116 -199 -116q-14 0 -26.5 9t-21.5 24t-13 34
t-1 38l39 221h-261l-35 45h651zM415 -71q-4 -25 -24 -41t-43 -16q-25 0 -38 16t-9 41q4 23 23 40t44 17q23 0 37 -17t10 -40z" />
    <glyph glyph-name="rha_beng" unicode="&#x9dd;" horiz-adv-x="475" 
d="M256 -56q-5 -25 -24.5 -41t-42.5 -16q-25 0 -38.5 16t-8.5 41q4 23 23 40t44 17q23 0 37 -17t10 -40zM553 622l33 -45h-364l-64 -367q-5 -24 -1.5 -44t10.5 -34.5t14.5 -22t11.5 -7.5q27 0 61 23t63.5 54t51 62.5t24.5 48.5q2 15 0 24q-11 -5 -22 -5q-67 0 -55 67
q5 29 30 49t58 20q42 0 62 -33.5t10 -93.5q-6 -31 -23 -63.5t-41.5 -63.5t-53.5 -59t-59 -49t-57.5 -33.5t-48.5 -12.5q-36 0 -77 94q-15 34 -9 73l66 373h-82l-37 45h499z" />
    <glyph glyph-name="yya_beng" unicode="&#x9df;" horiz-adv-x="491" 
d="M602 577h-82l-106 -604l-18 20q-2 45 -29.5 87.5t-67.5 76t-85.5 54t-83.5 20.5l-48 73q70 52 123.5 90t89.5 64q-50 60 -110 69q-31 4 -51 9t-32 11t-16.5 13t-3.5 17h-17l-37 45h541zM388 105l83 472h-224l115 -161q-38 -24 -81 -55.5t-93 -67.5q23 -6 48.5 -23
t51.5 -42t51.5 -56.5t46.5 -66.5h2zM242 67q-4 -25 -24 -41t-43 -16q-25 0 -38 16t-9 41q4 23 23 40t44 17q23 0 37 -17t10 -40z" />
    <glyph glyph-name="khandata_beng" unicode="&#x9ce;" horiz-adv-x="441" 
d="M480 -20l-25 25q1 29 -5 49.5t-25 38.5t-53.5 35.5t-90.5 41.5q-104 44 -148.5 105t-29.5 145q6 36 28 70.5t53 61t69 42.5t77 16q67 0 100 -36.5t23 -96.5q-5 -24 -18.5 -45.5t-33 -37t-42.5 -25t-45 -9.5q-55 0 -82 35.5t-15 101.5q1 4 2 9t3 11q-68 -40 -80 -107
q-5 -27 1 -48t23 -38.5t47 -33t74 -30.5q51 -18 90.5 -46t65.5 -63t36.5 -75t2.5 -82zM418 472q5 31 -21 51.5t-74 20.5q-5 0 -16 -1t-23 -3t-21 -5.5t-10 -8.5q-3 -18 3.5 -36t20 -32.5t31.5 -23t39 -8.5q63 0 71 46z" />
    <glyph glyph-name="signanusvara_beng" unicode="&#x982;" horiz-adv-x="340" 
d="M379 514q-4 -25 -19.5 -47.5t-37 -40t-46.5 -27.5t-48 -10q-24 0 -44.5 9t-34 25t-20 37t-1.5 45q4 25 19 48t36 40.5t45.5 28t47.5 10.5q25 0 45.5 -10.5t34.5 -27t20.5 -37.5t2.5 -43zM344 -32l-21 -38q-35 88 -89.5 173t-130.5 169l40 72q30 -38 61 -85.5t57 -98
t47.5 -100.5t35.5 -92zM343 542q7 41 -45 41q-16 0 -37.5 -10t-42 -25t-35.5 -32.5t-18 -33.5q-3 -18 10.5 -31t36.5 -13q18 0 39.5 10.5t41 26.5t33.5 34t17 33z" />
    <glyph glyph-name="signvisarga_beng" unicode="&#x983;" horiz-adv-x="377" 
d="M378 514q-4 -25 -19.5 -47.5t-37 -40t-46.5 -27.5t-48 -10q-25 0 -45.5 9t-34 25t-19.5 37t-1 45q4 25 19 48t35.5 40.5t45 28t47.5 10.5q25 0 46 -10.5t35 -27t20.5 -37.5t2.5 -43zM323 160q-5 -25 -20.5 -47.5t-37 -40t-46 -27.5t-47.5 -10q-24 0 -44.5 9.5t-34.5 25
t-20 36.5t-2 45q5 25 20 48t36 40.5t45.5 28t47.5 10.5q26 0 46.5 -10.5t34.5 -27t20 -37.5t2 -43zM341 542q7 41 -44 41q-16 0 -37.5 -10t-42.5 -25t-36 -32.5t-18 -33.5q-3 -18 11 -31t37 -13q17 0 38 10.5t41 26.5t34 34t17 33zM287 188q7 41 -44 41q-17 0 -39 -10
t-42 -25t-35 -32.5t-18 -33.5q-3 -18 10 -31t37 -13q17 0 39 11t41.5 26.5t33.5 33.5t17 33z" />
    <glyph glyph-name="signcandrabinducomb_beng" unicode="&#x981;" 
d="M83 841q-4 -20 -20.5 -34t-35.5 -14q-21 0 -31.5 14t-6.5 34q3 20 18.5 33.5t36.5 13.5q19 0 30.5 -13.5t8.5 -33.5zM160 841q-13 -75 -52.5 -120t-93.5 -45q-51 0 -86 46t-38 134l28 -12q10 -31 20 -51.5t21.5 -33t26 -17.5t34.5 -5q93 0 120 117z" />
    <glyph glyph-name="vowelsignaa_beng" unicode="&#x9be;" horiz-adv-x="193" 
d="M315 577h-48q-36 0 -40 13l-3 -2l-112 -634l-40 62l79 433q-7 128 -79 128l-36 45h38q43 0 65.5 -30.5t22.5 -96.5h2l41 232l22 -28q-6 -34 9 -55.5t43 -21.5z" />
    <glyph glyph-name="vowelsigni_beng" unicode="&#x9bf;" horiz-adv-x="195" 
d="M743 692q-132 152 -295 152q-43 0 -85 -14.5t-76.5 -37t-58 -51.5t-28.5 -57q-6 -37 20 -62h73l34 -45h-103l-110 -623l-40 62l99 561h-99l-36 45h149q-51 58 -42 106q5 31 32 62.5t66.5 57t87 41.5t94.5 16q87 0 172.5 -49t150.5 -135z" />
    <glyph glyph-name="vowelsignii_beng" unicode="&#x9c0;" horiz-adv-x="196" 
d="M37 622h147q10 56 -7 102.5t-55.5 80t-96.5 52t-131 18.5q-186 0 -198 -69q-6 -33 46 -33q1 0 17 1.5t35.5 3t37 3t23.5 1.5q210 0 182 -160zM-6 622l6 32q9 56 -81 56q-3 0 -14 -1t-24 -1.5t-24.5 -1.5t-16.5 -1q-192 0 -174 103q10 57 72.5 88t162.5 31q160 0 245 -78
t87 -227h58l35 -45h-101l-110 -623l-41 62l99 561h-93z" />
    <glyph glyph-name="vowelsignucomb_beng" unicode="&#x9c1;" 
d="M73 -256q-104 116 -165 159q-37 -88 -129 -88q-19 0 -36 6.5t-28.5 18t-17 27t-2.5 32.5q3 20 14 37.5t27 30t34.5 20t36.5 7.5q46 0 73 -30q17 31 23 69q4 21 6 47q13 -7 20 -14.5t7.5 -22t-4 -39t-11.5 -65.5q86 -68 151 -141zM-130 -74q-20 16 -63 16q-76 0 -83 -43
q-6 -32 39 -32q17 0 34.5 5.5t32.5 13.5t26 18.5t14 21.5z" />
    <glyph glyph-name="vowelsignuucomb_beng" unicode="&#x9c2;" 
d="M75 -306l-129 123q-56 -23 -105 -23q-26 0 -47 7t-36 20t-22 30.5t-3 38.5q3 18 14 35t28 29.5t38 20.5t45 8q30 0 41 -12l2 9q2 13 4 31t4 43q44 -20 33 -127h-61q-22 0 -42 -4t-35 -10.5t-24.5 -14.5t-10.5 -15q-5 -26 36 -26q52 0 101 26l25 1l139 -127z" />
    <glyph glyph-name="vowelsignvocalicrcomb_beng" unicode="&#x9c3;" 
d="M-50 -306q-62 57 -120 103t-113 81l-2 9l174 92l17 27q1 7 2 18t0 26q23 -13 32.5 -44.5t-0.5 -86.5l-114 -63q24 -19 53.5 -45t66.5 -59q2 -21 3 -35.5t1 -22.5z" />
    <glyph glyph-name="vowelsigne_beng" unicode="&#x9c7;" horiz-adv-x="361" 
d="M363 62q-6 -39 -39.5 -64t-78.5 -25q-44 0 -78.5 21t-56 58.5t-28 89t3.5 111.5q9 49 28.5 97.5t47.5 91t63 77t75 56.5v2h-227l-37 45h409l27 -45h-21q-63 0 -155 -80q-134 -116 -163 -280q-8 -43 -4.5 -80.5t15 -65t30.5 -43.5t43 -16q17 0 34 15q-23 17 -17 47
q4 24 26 42.5t49 18.5q29 0 44.5 -20t9.5 -53z" />
    <glyph glyph-name="ekar_initial_bn" horiz-adv-x="361" 
d="M477 577h-46q-112 0 -189.5 -90.5t-108.5 -269.5q-8 -43 -4.5 -80.5t15 -65t30.5 -43.5t43 -16q17 0 34 15q-23 17 -17 47q4 24 26 42.5t49 18.5q29 0 44.5 -20t9.5 -53q-6 -39 -39.5 -64t-78.5 -25q-44 0 -78.5 21t-56 58.5t-28 89t3.5 111.5q15 84 45 152t71 116.5
t91 74.5t105 26h48z" />
    <glyph glyph-name="vowelsignai_beng" unicode="&#x9c8;" horiz-adv-x="361" 
d="M363 62q-6 -39 -39.5 -64t-78.5 -25q-44 0 -78.5 21t-56 58.5t-28 89t3.5 111.5q9 49 28.5 97.5t47.5 91t63 77t75 56.5v2h-227l-37 45h323q21 15 24 34q8 46 -62 46q-1 0 -14.5 -1t-31 -2.5t-34 -2.5t-22.5 -1q-94 0 -137.5 35t-32.5 98q8 40 34 60l23 -17
q-23 -18 -27 -41q-11 -61 71 -61q3 0 17.5 0.5t31 1t31.5 1t19 0.5q45 0 76.5 -7.5t52 -25.5t31 -46.5t11.5 -70.5h24l22 -45q-51 0 -105 -32t-101 -83.5t-81.5 -116t-45.5 -128.5q-8 -43 -4.5 -80.5t15 -65t30.5 -43.5t43 -16q17 0 34 15q-23 17 -17 47q4 24 26 42.5
t49 18.5q29 0 44.5 -20t9.5 -53z" />
    <glyph glyph-name="oikar_initial_bn" horiz-adv-x="361" 
d="M473 577h-41q-115 0 -192 -94t-107 -265q-8 -43 -5 -80.5t14.5 -65t31 -43.5t43.5 -16q17 0 34 15q-23 17 -17 48q4 23 26.5 42t49.5 19q29 0 44 -20.5t10 -53.5q-7 -39 -40.5 -64t-78.5 -25t-79.5 21.5t-55 59t-27.5 88.5t3 111q15 82 44 149.5t69 116t89 75.5t104 28
q8 15 10 27q9 49 -90 49q-6 0 -28.5 -2.5t-40.5 -2.5q-94 0 -137.5 34.5t-32.5 97.5q6 35 33 63l23 -17q-22 -19 -27 -45q-10 -61 71 -61q3 0 15.5 1t27 1.5t28 1.5t17.5 1q96 0 139 -40t31 -109h15z" />
    <glyph glyph-name="vowelsigno_beng" unicode="&#x9cb;" horiz-adv-x="1201" 
d="M363 62q-6 -39 -39.5 -64t-78.5 -25q-44 0 -78.5 21t-56 58.5t-28 89t3.5 111.5q9 49 28.5 97.5t47.5 91t63 77t75 56.5v2h-227l-37 45h409l27 -45h-21q-63 0 -155 -80q-134 -116 -163 -280q-8 -43 -4.5 -80.5t15 -65t30.5 -43.5t43 -16q17 0 34 15q-23 17 -17 47
q4 24 26 42.5t49 18.5q29 0 44.5 -20t9.5 -53zM487 266q-17 0 -27 12t-7 30q3 19 17.5 30.5t31.5 11.5q18 0 28 -11.5t7 -30.5q-3 -18 -17.5 -30t-32.5 -12zM947 266q-17 0 -27 12t-7 30q3 19 17.5 30.5t31.5 11.5t27.5 -11.5t7.5 -30.5q-3 -18 -18 -30t-32 -12zM722 538
q4 18 19 30.5t32 12.5t27 -12.5t6 -30.5q-3 -18 -17 -30t-31 -12t-28 12t-8 30zM641 78q3 18 18.5 30.5t32.5 12.5t26.5 -12.5t6.5 -30.5q-3 -17 -17 -29t-31 -12t-28 12t-8 29zM843 529q7 10 18 15.5t22 5.5q20 0 28 -13.5t5 -30.5q-4 -19 -18.5 -29.5t-29.5 -10.5
q-17 0 -28 11.5t-8 30.5q2 11 11 21zM542 131q7 9 18.5 15t21.5 6q18 0 27.5 -14t7.5 -30q-4 -19 -19.5 -30t-31.5 -11q-20 0 -28 13t-5 29q1 9 9 22zM929 459q12 7 22 7q18 0 28 -11.5t6 -30.5q-3 -18 -16 -30t-33 -12q-15 0 -26.5 11t-8.5 32q4 21 28 34zM490 230
q13 5 22 5q17 0 28 -12t8 -29t-18 -29.5t-32 -12.5t-27 12t-7 29q3 22 26 37zM931 230q18 -14 14 -36q-4 -19 -18 -30.5t-32 -11.5q-19 0 -28 12.5t-6 28.5q3 20 18.5 31t30.5 11q7 0 21 -5zM572 459q21 -10 16 -35q-3 -19 -18 -30.5t-32 -11.5t-27 12t-7 31q3 16 18 28.5
t32 12.5q13 0 18 -7zM846 131q2 -7 0 -21q-3 -16 -15.5 -29.5t-32.5 -13.5q-16 0 -28 11.5t-8 30.5q3 16 17.5 29.5t32.5 13.5q10 0 19.5 -5.5t14.5 -15.5zM686 529q2 -13 1 -20q-3 -17 -17 -30t-32 -13q-16 0 -27 11.5t-8 30.5q3 16 15.5 29t32.5 13q24 0 35 -21zM1311 577
h-48q-36 0 -40 13l-3 -2l-112 -634l-40 62l79 433q-7 128 -79 128l-36 45h38q43 0 65.5 -30.5t22.5 -96.5h2l41 232l22 -28q-6 -34 9 -55.5t43 -21.5z" />
    <glyph glyph-name="vowelsignau_beng" unicode="&#x9cc;" horiz-adv-x="1209" 
d="M363 62q-6 -39 -39.5 -64t-78.5 -25q-44 0 -78.5 21t-56 58.5t-28 89t3.5 111.5q9 49 28.5 97.5t47.5 91t63 77t75 56.5v2h-227l-37 45h409l27 -45h-21q-63 0 -155 -80q-134 -116 -163 -280q-8 -43 -4.5 -80.5t15 -65t30.5 -43.5t43 -16q17 0 34 15q-23 17 -17 47
q4 24 26 42.5t49 18.5q29 0 44.5 -20t9.5 -53zM487 266q-17 0 -27 12t-7 30q3 19 17.5 30.5t31.5 11.5q18 0 28 -11.5t7 -30.5q-3 -18 -17.5 -30t-32.5 -12zM947 266q-17 0 -27 12t-7 30q3 19 17.5 30.5t31.5 11.5t27.5 -11.5t7.5 -30.5q-3 -18 -18 -30t-32 -12zM722 538
q4 18 19 30.5t32 12.5t27 -12.5t6 -30.5q-3 -18 -17 -30t-31 -12t-28 12t-8 30zM641 78q3 18 18.5 30.5t32.5 12.5t26.5 -12.5t6.5 -30.5q-3 -17 -17 -29t-31 -12t-28 12t-8 29zM843 529q7 10 18 15.5t22 5.5q20 0 28 -13.5t5 -30.5q-4 -19 -18.5 -29.5t-29.5 -10.5
q-17 0 -28 11.5t-8 30.5q2 11 11 21zM542 131q7 9 18.5 15t21.5 6q18 0 27.5 -14t7.5 -30q-4 -19 -19.5 -30t-31.5 -11q-20 0 -28 13t-5 29q1 9 9 22zM929 459q12 7 22 7q18 0 28 -11.5t6 -30.5q-3 -18 -16 -30t-33 -12q-15 0 -26.5 11t-8.5 32q4 21 28 34zM490 230
q13 5 22 5q17 0 28 -12t8 -29t-18 -29.5t-32 -12.5t-27 12t-7 29q3 22 26 37zM931 230q18 -14 14 -36q-4 -19 -18 -30.5t-32 -11.5q-19 0 -28 12.5t-6 28.5q3 20 18.5 31t30.5 11q7 0 21 -5zM572 459q21 -10 16 -35q-3 -19 -18 -30.5t-32 -11.5t-27 12t-7 31q3 16 18 28.5
t32 12.5q13 0 18 -7zM846 131q2 -7 0 -21q-3 -16 -15.5 -29.5t-32.5 -13.5q-16 0 -28 11.5t-8 30.5q3 16 17.5 29.5t32.5 13.5q10 0 19.5 -5.5t14.5 -15.5zM686 529q2 -13 1 -20q-3 -17 -17 -30t-32 -13q-16 0 -27 11.5t-8 30.5q3 16 15.5 29t32.5 13q24 0 35 -21zM1304 577
h-83l-110 -623l-41 62l99 561h-86l-36 45h127q20 14 24 36q9 54 -81 54q-2 0 -19.5 -0.5t-43 -1.5t-54.5 -2t-54.5 -2t-43.5 -1.5t-20 -0.5q-112 0 -165 38.5t-41 104.5q6 37 40 68l22 -17q-28 -21 -33 -49q-12 -68 104 -68q2 0 21.5 0.5t48 1.5t60.5 2t58 2t44 1.5t16 0.5
q33 0 56 -3t39.5 -10t29.5 -19t27 -30q17 -24 22 -51t1 -54h37z" />
    <glyph glyph-name="signviramacomb_beng" unicode="&#x9cd;" 
d="M27 -284l-171 167l-5 85l174 -169z" />
    <glyph glyph-name="devanagaridanda" unicode="&#x964;" horiz-adv-x="389" 
d="M381 558l-101 -573l-41 49l101 572z" />
    <glyph glyph-name="devanagaridoubledanda" unicode="&#x965;" horiz-adv-x="538" 
d="M381 558l-101 -573l-41 49l101 572zM530 558l-101 -573l-41 49l101 572z" />
    <glyph glyph-name="aulength_beng" unicode="&#x9d7;" horiz-adv-x="196" 
d="M308 577h-83l-110 -623l-41 62l99 561h-86l-36 45h127q20 14 24 36q9 54 -81 54q-2 0 -19.5 -0.5t-43 -1.5t-54.5 -2t-54.5 -2t-43.5 -1.5t-20 -0.5q-112 0 -165 38.5t-41 104.5q6 37 40 68l22 -17q-28 -21 -33 -49q-12 -68 104 -68q2 0 21.5 0.5t48 1.5t60.5 2t58 2
t44 1.5t16 0.5q33 0 56 -3t39.5 -10t29.5 -19t27 -30q17 -24 22 -51t1 -54h37z" />
    <glyph glyph-name="signnuktacomb_beng" unicode="&#x9bc;" 
d="M-3 -53q-4 -25 -24 -41t-43 -16q-25 0 -38 16t-9 41q4 23 23 40t44 17q23 0 36.5 -17t10.5 -40z" />
    <glyph glyph-name="isshar_beng" unicode="&#x9fa;" horiz-adv-x="634" 
d="M270 576q5 26 26.5 44.5t47.5 18.5t41.5 -18.5t10.5 -44.5q-4 -24 -26 -43t-48 -19t-41 18.5t-11 43.5zM147 554l11 7q-3 -20 3 -47.5t22.5 -52.5t45 -42.5t69.5 -17.5q126 0 396 323l15 6q-266 -422 -438 -422q-39 0 -67 17t-44 49t-19.5 77.5t6.5 102.5z" />
    <glyph glyph-name="glyph112" unicode="&#x98d;" horiz-adv-x="381" 
d="M219 517q-20 0 -35.5 6.5t-25 17t-13.5 24t-1 26.5q3 18 13 33t24 26t30 17t31 6q20 0 33.5 -12.5t9.5 -35.5q-4 -22 -21 -34.5t-35 -12.5q-24 0 -37 23l-2 -9q-8 -45 55 -45h199l28 -30h-253zM404 577q-30 0 -49 7t-29.5 19t-13 28.5t0.5 35.5q3 15 12.5 30t23.5 26
t30 18t32 7q20 0 33 -12.5t9 -36.5q-4 -22 -20 -34t-34 -12q-24 0 -37 23l-2 -9q-3 -16 -1 -25t12.5 -13t30.5 -5t55 -2l35 -45h-88z" />
    <glyph glyph-name="glyph113" unicode="&#x98e;" horiz-adv-x="381" 
d="M124 517l-28 30h232q63 0 71 45v9q-21 -23 -45 -23q-18 0 -30 12.5t-8 34.5q4 23 21.5 35.5t37.5 12.5q15 0 29 -6t24 -17t15 -26t2 -33q-3 -13 -11 -26.5t-21.5 -24t-31 -17t-37.5 -6.5h-220zM91 577l-35 45h101q28 1 46 2t28.5 5.5t15.5 13.5t8 24l2 9q-21 -23 -45 -23
q-18 0 -30 12t-8 34q4 24 21 36.5t37 12.5q15 0 29 -7t24 -18t15 -26t2 -30q-3 -19 -11.5 -35.5t-23 -28.5t-36.5 -19t-52 -7h-88z" />
    <glyph glyph-name="zero_beng" unicode="&#x9e6;" horiz-adv-x="538" 
d="M539 323q-7 -42 -31 -78.5t-59 -64.5t-76.5 -44t-84.5 -16q-44 0 -80 15.5t-59.5 43.5t-34 66t-2.5 82t32 83t58 67.5t75.5 45t84.5 16.5q45 0 81 -17t60 -46.5t34 -68.5t2 -84zM485 376q4 22 -1 42t-17.5 35.5t-31 24.5t-42.5 9q-33 0 -69.5 -18t-69 -47t-56.5 -65.5
t-31 -73.5q-9 -51 18 -81t73 -30q35 0 72 18t69 47t55.5 65.5t30.5 73.5z" />
    <glyph glyph-name="one_beng" unicode="&#x9e7;" horiz-adv-x="434" 
d="M417 220q-7 -42 -30.5 -80.5t-56.5 -68t-73.5 -47t-82.5 -17.5t-64.5 18.5t-17.5 44.5q3 18 17.5 35.5t36 31.5t48.5 22.5t55 8.5q49 0 88 -17q37 16 44 58q15 84 -96 164q-53 38 -86 64t-50 46.5t-21.5 37t-0.5 35.5q4 27 27.5 46.5t52.5 19.5q24 0 37.5 -14t10.5 -35
q-4 -22 -25 -42q18 -33 123 -119q43 -35 58.5 -83.5t5.5 -108.5z" />
    <glyph glyph-name="two_beng" unicode="&#x9e8;" horiz-adv-x="469" 
d="M505 -90q-39 50 -77.5 90.5t-84.5 75t-103 66.5t-130 65l-21 136q93 -89 203 -89q29 0 54 6t44.5 16.5t32 24.5t15.5 30q12 67 -94 111q-44 18 -72.5 32.5t-44 28t-20 27.5t-1.5 30q11 62 72 62q54 0 46 -47q-3 -14 -9 -22q9 -8 29 -20.5t52 -29.5q97 -52 77 -167
q-6 -33 -21.5 -61.5t-37 -49t-48.5 -32t-56 -11.5q-12 0 -27 3l-3 -2q151 -96 221 -204z" />
    <glyph glyph-name="three_beng" unicode="&#x9e9;" horiz-adv-x="613" 
d="M609 293q-9 -50 -30 -90.5t-51 -69t-69 -44.5t-82 -16q-60 0 -107.5 31t-80.5 89t-51 141t-17 188l31 -17q3 -81 20.5 -145t47 -109t71 -68.5t94.5 -23.5q36 0 67.5 12.5t56.5 35t42 54t24 68.5q6 37 1.5 70.5t-18 59t-35 41t-47.5 15.5q-18 0 -32 -9q34 -34 23 -92
q-6 -36 -36.5 -62t-72.5 -26q-45 0 -69 31t-14 86q5 28 19.5 52.5t37 42.5t51 28t61.5 10q47 0 83 -21t57.5 -58.5t28.5 -89.5t-4 -114z" />
    <glyph glyph-name="four_beng" unicode="&#x9ea;" horiz-adv-x="498" 
d="M478 200q-7 -36 -27 -64.5t-50.5 -48.5t-70 -30.5t-85.5 -10.5q-82 0 -125.5 37t-32.5 100q14 82 156 139q-64 28 -84.5 60t-11.5 80q5 30 24 56.5t47.5 47t66 32.5t80.5 12q85 0 124.5 -36t29.5 -96q-13 -74 -145 -130q122 -46 104 -148zM453 468q4 22 -3.5 40.5
t-23 32.5t-38.5 22t-52 8q-24 0 -46.5 -7.5t-40.5 -20t-30 -29.5t-15 -35q-11 -64 136 -113q102 41 113 102zM412 182q12 71 -132 124q-117 -53 -127 -111q-4 -23 3.5 -41.5t24 -32.5t41.5 -21.5t55 -7.5q54 0 91 25.5t44 64.5z" />
    <glyph glyph-name="five_beng" unicode="&#x9eb;" horiz-adv-x="520" 
d="M567 433q-51 -26 -94.5 -57t-76 -63t-53 -64t-25.5 -59q-4 -23 1 -42t16 -33t27 -22t34 -8l54 -29q-72 -19 -161 -19q-120 0 -176.5 59.5t-37.5 168.5q21 117 154 235q123 110 194 110q21 0 51 -12q-65 -37 -72 -78q-5 -32 11 -45.5t42 -19.5t57 -9t55 -13zM437 421
q-83 18 -66 113q-217 -131 -244 -283q-7 -41 2.5 -75t32 -58t55.5 -37t74 -13q16 0 27 1t17 2v2q-99 40 -80 143q18 107 182 205z" />
    <glyph glyph-name="six_beng" unicode="&#x9ec;" horiz-adv-x="591" 
d="M609 270q-8 -47 -28 -85.5t-49 -66.5t-66.5 -43.5t-81.5 -15.5q-245 0 -263 468l31 -17q36 -366 239 -366q31 0 62.5 12t57.5 32.5t44.5 48t24.5 59.5q7 43 -24 87q-87 -108 -155 -108q-19 0 -38 9t-33.5 23.5t-23.5 34t-8 40.5l-1 139q-60 0 -50 52q8 49 62 49
q33 0 49 -21t12 -64q-6 -65 -12.5 -104.5t-8 -61t5 -28.5t24.5 -7q55 0 160 148q21 -14 36.5 -37.5t25 -52t12 -61t-3.5 -63.5z" />
    <glyph glyph-name="seven_beng" unicode="&#x9ed;" horiz-adv-x="469" 
d="M483 89q-9 -52 -69 -52q-65 0 -49 92l34 194q-30 -7 -115 -7q-33 0 -54 2.5t-35.5 9t-24.5 17.5t-21 27q-23 34 -14 84q5 27 25 54.5t47.5 49.5t59 36t58.5 14q35 0 64 -19t47.5 -53t25.5 -81.5t-3 -103.5l-40 -224q15 9 26 9q20 0 31 -14.5t7 -34.5zM409 388
q3 33 -0.5 65t-11 57t-19 40t-24.5 15q-18 0 -44 -14.5t-51 -36.5t-44 -47t-22 -46q-3 -13 -0.5 -20.5t13 -11.5t31 -5.5t55.5 -1.5q29 0 59 2t58 4z" />
    <glyph glyph-name="eight_beng" unicode="&#x9ee;" horiz-adv-x="590" 
d="M642 461q-12 -32 -23.5 -52.5t-25.5 -32.5t-33 -17t-44 -5q-86 0 -100 -21q10 -39 5 -69q-6 -32 -32.5 -65.5t-62.5 -61.5t-75.5 -46t-69.5 -18q-14 0 -27.5 8.5t-23.5 22.5t-15 31.5t-2 34.5l64 359q-26 -8 -28 -8q-19 0 -30 14.5t-7 35.5t22.5 36t44.5 15q66 0 50 -93
l-28 -158h3q16 23 27 36t21 19.5t22 8t30 1.5q64 0 104 -81q13 24 24.5 39t21.5 23t22 11t28 3h64q35 0 54 44zM383 320q8 44 -83 44q-22 0 -47 -3t-53 -8l-34 -194q-5 -25 14 -25q18 0 50.5 19.5t65 48t58 61t29.5 57.5z" />
    <glyph glyph-name="nine_beng" unicode="&#x9ef;" horiz-adv-x="531" 
d="M518 242q-30 -171 -225 -198q12 30 13 40q7 37 4.5 71.5t-13 61t-28 42.5t-40.5 16q-32 0 -56.5 -25.5t-31.5 -67.5q-7 -39 12 -62q17 17 43 17q22 0 33 -18t7 -40q-4 -24 -26.5 -40.5t-53.5 -16.5q-42 0 -63.5 36.5t-10.5 96.5q6 33 23 63t41 52.5t54 36t61 13.5
q30 0 54.5 -15t39.5 -41t21.5 -61.5t0.5 -76.5q90 18 104 97q10 57 -25.5 100t-117.5 78q-61 26 -103 47.5t-66.5 42t-33.5 40.5t-5 42q8 49 68 49q55 0 45 -55q-3 -22 -22 -33q33 -28 133 -61q194 -64 164 -231z" />
    <glyph glyph-name="rupeesign_beng" unicode="&#x9f3;" horiz-adv-x="543" 
d="M104 662q30 23 59.5 36t51.5 13q28 0 45.5 -16t27 -39t12 -48t-0.5 -43l-14 -79h71l35 -43h-113l-54 -303q-8 -47 27 -47q20 0 42.5 11t43 27t40 33.5t32.5 30.5q40 49 55 111q-31 -11 -39 -11q-24 0 -38.5 18t-9.5 48q5 29 31 50.5t61 21.5q39 0 61.5 -29.5t12.5 -89.5
q-8 -45 -39.5 -93.5t-73 -89t-86 -66.5t-77.5 -26q-16 0 -33 12t-30.5 30.5t-20.5 41t-3 42.5l49 278h-71l-35 43h113l22 124q9 48 -26 48q-19 -1 -42 -11t-43 -27l-11 -9z" />
    <glyph glyph-name="indianrupeesign" unicode="&#x20b9;" horiz-adv-x="645" 
d="M218 577l-37 45h458l35 -45h-145l3 -3q33 -35 36 -90h47l35 -45h-89q-34 -132 -228 -182l-1 -2q12 -4 33 -17t46 -32t53.5 -41.5t54 -46.5t47.5 -46.5t35 -40.5l6 -53q-52 55 -101 96.5t-100 73t-106.5 54.5t-119.5 40l-43 132q82 -51 137 -51q31 0 65 9t65.5 25t59.5 37
t46 45h-316l-37 45h372q3 24 -5 41.5t-22 29t-32.5 17t-36.5 5.5h-215z" />
    <glyph glyph-name="k_ko_bn" horiz-adv-x="680" 
d="M791 577h-276l-8 -45q42 -3 77 -20.5t59 -43.5t36 -57t6 -62q-3 -18 -12 -33.5t-21.5 -27t-26.5 -18t-29 -6.5l-2 -2q36 -40 26 -92q-3 -18 -11.5 -33.5t-21 -27.5t-27 -18.5t-29.5 -6.5q-24 0 -36.5 15.5t-9.5 35.5q4 22 20.5 36t35.5 14q30 0 42 -29q8 9 10 20
q2 16 -7 34t-27.5 34t-42.5 28.5t-52 16.5l-68 -391l-18 20q0 38 -16.5 74.5t-46 67t-69 52.5t-85.5 31l-38 64q12 8 35 22.5t57 34.5q-30 22 -75 24l-48 73q46 31 98 60t102.5 52t94 38t71.5 18l8 48h-375l-37 45h703zM657 355q3 18 -9.5 37.5t-35 36t-53 27t-63.5 10.5
l-20 -113q40 -8 73 -42l1 4q4 22 20.5 36t35.5 14q30 0 42 -29q7 7 9 19zM426 350l19 109q-54 -10 -120 -38.5t-145 -77.5q39 -21 76 -58q59 31 101.5 47t68.5 18zM371 38l44 250q-101 -28 -207 -98q100 -39 161 -152h2z" />
    <glyph glyph-name="k_tto_bn" horiz-adv-x="601" 
d="M712 577h-243l-7 -39q31 0 60 -15.5t50 -41t32 -57.5t5 -65q-8 -43 -35.5 -68.5t-64.5 -25.5q-24 0 -37.5 16.5t-10.5 35.5q4 23 20.5 39.5t37.5 16.5q37 0 49 -40q9 8 12 27q3 18 -8.5 37.5t-31 36t-43.5 27.5t-46 11q-16 -88 -31 -145t-40 -96.5t-66 -68.5t-108 -61
q-12 -3 -15 -17q-1 -7 5 -14.5t18 -14t28.5 -10.5t36.5 -4q24 0 48.5 6t45.5 16t36.5 22t22.5 24q-13 -3 -15 -3q-10 0 -20 13t-7 31q4 21 25 39t45 18q31 0 48 -21t10 -59q-5 -29 -27.5 -56t-53.5 -47t-68 -32t-72 -12t-64 13.5t-49 35.5t-29 49t-4 54t28 33q82 23 139 83
q-79 91 -173 98l-44 64q201 115 313 129l6 38h-329l-40 45h527q26 12 30 34q9 50 -83 50q-6 0 -31.5 -0.5t-55 -1.5t-52 -1.5l-22.5 -0.5q-109 0 -156.5 32t-35.5 104q7 39 33 62l23 -17q-21 -18 -26 -44q-12 -68 106 -68q5 0 29 1t51 2.5t51.5 2.5t29.5 1q190 0 167 -156
h43zM401 467q-92 -13 -197 -74q11 -6 29.5 -20.5t38.5 -32.5t38 -37t27 -35q36 43 64 199z" />
    <glyph glyph-name="k_tt_ro_bn" horiz-adv-x="601" 
d="M401 467q-92 -13 -197 -74q11 -6 29.5 -20.5t38.5 -32.5t38 -37t27 -35q36 43 64 199zM401 4q-22 -11 -51 -17.5t-53 -6.5q-35 0 -64 13.5t-49 35.5t-29 49t-4 54t28 33q82 23 139 83q-79 91 -173 98l-44 64q201 115 313 129l6 38h-329l-40 45h527q26 12 30 34
q9 50 -83 50q-4 0 -20.5 -0.5t-37.5 -1t-43 -1t-37 -0.5l-23 -1q-109 0 -156.5 32t-35.5 104q7 39 33 62l23 -17q-21 -18 -26 -44q-12 -68 106 -68q5 0 29 1t51 2.5t51.5 2.5t29.5 1q190 0 167 -156h43l33 -45h-243l-7 -39q31 0 60 -15.5t50 -41t32 -57.5t5 -65
q-8 -43 -35.5 -68.5t-64.5 -25.5q-24 0 -37.5 16.5t-10.5 35.5q4 23 20.5 39.5t37.5 16.5q37 0 49 -40q9 8 12 27q3 18 -8.5 37.5t-31 36t-43.5 27.5t-46 11q-16 -88 -31 -145t-40 -96.5t-66 -68.5t-108 -61q-12 -3 -15 -17q-1 -7 5 -14.5t18 -14t28.5 -10.5t36.5 -4
q24 0 48.5 6t45.5 16t36.5 22t22.5 24q-13 -3 -15 -3q-10 0 -20 13t-7 31q4 21 25 39t45 18q31 0 48 -21t10 -59q-5 -26 -24 -51.5t-47 -45.5l-43 -243l-28 24q6 82 -112 82l-127 -15q-32 0 -58.5 13.5t-44 37t-25 53.5t-2.5 63q5 25 18 49l20 -11q-2 -5 -8 -39
q-3 -19 4 -36t21 -30t34 -20.5t42 -7.5l110 4q73 0 129 -68l4 2z" />
    <glyph glyph-name="k_to_bn" horiz-adv-x="883" 
d="M91 577l-37 45h903l37 -45h-903zM658 329q-13 -29 -33 -53q11 -9 19 -23.5t13.5 -30t7 -32t-0.5 -30.5q-6 -32 -22.5 -60t-42 -48.5t-58.5 -32.5t-72 -12q-255 0 -343 546l36 -22q83 -438 313 -438q63 0 104.5 27.5t47.5 64.5q8 43 -26 64q-27 -27 -66 -27q-28 0 -46 20
t-13 52q6 32 29 53t56 21q34 0 41 -19q40 47 47 85q5 27 -12 44t-49 17q-28 0 -60 -9t-62 -23.5t-53 -32.5t-32 -35q54 -11 45 -64q-5 -28 -28.5 -47t-51.5 -19q-15 0 -28.5 7t-23.5 20t-14 30t0 37q6 36 33 69t66.5 58t86 39.5t93.5 14.5q143 0 117 -146l-1 -4l4 3
q10 10 24 22.5t31 23.5t34.5 19t32.5 8q24 0 42 -10.5t29.5 -27.5t15.5 -40t-1 -48q-4 -24 -14.5 -44.5t-25.5 -36t-34 -24.5t-38 -9q-28 0 -42.5 17t-9.5 41q8 50 56 50q41 0 48 -52q23 10 28 40q3 15 -2.5 30t-16.5 26.5t-26.5 19t-33.5 7.5q-24 0 -51.5 -14.5
t-54.5 -46.5z" />
    <glyph glyph-name="k_t_bo_bn" horiz-adv-x="883" 
d="M495 -137l27 150q-104 -39 -149 -68q80 -24 122 -82zM91 577l-37 45h903l37 -45h-903zM397 19q-195 69 -271 534l36 -22q83 -438 313 -438q63 0 104.5 27.5t47.5 64.5q8 43 -26 64q-27 -27 -66 -27q-28 0 -46 20t-13 52q6 32 29 53t56 21q34 0 41 -19q40 47 47 85
q5 27 -12 44t-49 17q-28 0 -60 -9t-62 -23.5t-53 -32.5t-32 -35q54 -11 45 -64q-5 -28 -28.5 -47t-51.5 -19q-15 0 -28.5 7t-23.5 20t-14 30t0 37q6 36 33 69t66.5 58t86 39.5t93.5 14.5q143 0 117 -146l-1 -4l4 3q10 10 24 22.5t31 23.5t34.5 19t32.5 8q24 0 42 -10.5
t29.5 -27.5t15.5 -40t-1 -48q-4 -24 -14.5 -44.5t-25.5 -36t-34 -24.5t-38 -9q-28 0 -42.5 17t-9.5 41q8 50 56 50q41 0 48 -52q23 10 28 40q3 15 -2.5 30t-16.5 26.5t-26.5 19t-33.5 7.5q-24 0 -51.5 -14.5t-54.5 -46.5l-12 -15q-13 -29 -33 -53q11 -9 19 -23.5t13.5 -30
t7 -32t-0.5 -30.5q-8 -41 -31 -73t-58 -52l-48 -270l-22 16q-1 20 -13 40t-34.5 36.5t-56 28.5t-78.5 17l-37 58q10 5 31.5 17t57.5 30z" />
    <glyph glyph-name="k_t_ro_bn" horiz-adv-x="883" 
d="M91 577l-37 45h903l37 -45h-903zM500 9q-8 -1 -15.5 -1.5t-15.5 -0.5q-255 0 -343 546l36 -22q83 -438 313 -438q63 0 104.5 27.5t47.5 64.5q8 43 -26 64q-27 -27 -66 -27q-28 0 -46 20t-13 52q6 32 29 53t56 21q34 0 41 -19q40 47 47 85q5 27 -12 44t-49 17
q-28 0 -60 -9t-62 -23.5t-53 -32.5t-32 -35q54 -11 45 -64q-5 -28 -28.5 -47t-51.5 -19q-15 0 -28.5 7t-23.5 20t-14 30t0 37q6 36 33 69t66.5 58t86 39.5t93.5 14.5q143 0 117 -146l-1 -4l4 3q10 10 24 22.5t31 23.5t34.5 19t32.5 8q24 0 42 -10.5t29.5 -27.5t15.5 -40
t-1 -48q-4 -24 -14.5 -44.5t-25.5 -36t-34 -24.5t-38 -9q-28 0 -42.5 17t-9.5 41q8 50 56 50q41 0 48 -52q23 10 28 40q3 15 -2.5 30t-16.5 26.5t-26.5 19t-33.5 7.5q-24 0 -51.5 -14.5t-54.5 -46.5l-12 -15q-13 -29 -33 -53q11 -9 19 -23.5t13.5 -30t7 -32t-0.5 -30.5
q-9 -47 -38.5 -83.5t-73.5 -53.5l-39 -218l-22 25q1 18 -2 32.5t-13.5 24.5t-29 15.5t-48.5 5.5l-13 -2t-38.5 -4t-61.5 -4t-80 -2q-35 0 -61 11t-42 31.5t-22 48t0 60.5q8 47 35 83l16 -20q-19 -44 -21 -57q-7 -37 11 -61t53 -24q26 0 46.5 1t39 2t36.5 2t39 1q31 0 54 -2
t40.5 -7.5t30.5 -16.5t24 -29z" />
    <glyph glyph-name="k_no_bn" horiz-adv-x="701" 
d="M812 577h-284l-6 -35q38 0 73.5 -19t61.5 -50.5t39 -72.5t5 -84q-4 -26 -15 -47t-26 -37t-33.5 -24.5t-37.5 -8.5q-29 0 -45.5 19.5t-10.5 51.5q4 22 25 40.5t43 18.5q42 0 57 -44q12 16 14 32q5 27 -6 54.5t-34 49.5t-55 35.5t-68 13.5l-92 -524l-19 22q2 29 -9.5 58
t-31 51.5t-43.5 36.5t-48 14q-7 0 -18 -5q21 -22 15 -57q-5 -27 -27.5 -45.5t-48.5 -18.5q-33 0 -52 23t-13 58q7 40 41 69t82 29q26 0 46.5 -5.5t39 -19t34.5 -35t32 -53.5l6 4q4 28 3 47.5t-8.5 36t-23.5 32t-42 35.5q-45 35 -92.5 54.5t-98.5 23.5l-46 75q23 15 56 33
t69.5 35t75 33.5t72.5 29.5t61.5 21.5t44.5 10.5l6 38h-389l-37 45h723zM411 187l49 278q-19 -4 -54.5 -16t-75 -27.5t-76.5 -32t-58 -28.5q32 -12 64 -32.5t60.5 -44.5t51.5 -49.5t36 -47.5h3z" />
    <glyph glyph-name="k_bo_bn" horiz-adv-x="681" 
d="M792 577h-277l-8 -45q43 -3 78 -22t58.5 -49.5t34 -69.5t2.5 -82q-9 -53 -42 -86t-70 -33q-28 0 -44.5 21t-11.5 48q4 24 24.5 43t43.5 19q45 0 56 -43q12 13 15 32q5 27 -6.5 53.5t-33 48t-52 35t-64.5 13.5l-94 -533l-18 19q0 25 -16.5 55.5t-46 58.5t-70.5 50.5
t-89 32.5l-38 64q12 8 35 22.5t57 34.5q-30 22 -75 24l-48 73q46 31 98 60t102.5 52t94 38t71.5 18l8 48h-375l-37 45h704zM426 350l19 109q-54 -10 -120 -38.5t-145 -77.5q39 -21 76 -58q59 31 101.5 47t68.5 18zM372 45l43 243q-101 -28 -207 -98q105 -40 162 -145h2z" />
    <glyph glyph-name="k_mo_bn" horiz-adv-x="695" 
d="M806 577h-82l-116 -658l-20 22q4 38 -9 79t-61 74q-34 23 -64 23q-5 0 -10.5 -0.5t-11.5 -1.5q-8 -45 -38.5 -69.5t-67.5 -24.5q-38 0 -59 25t-15 61q4 18 13.5 34t24.5 28t34 19.5t40 7.5l2 10q-13 28 -37.5 51.5t-55 40.5t-64 28.5t-64.5 15.5l-45 63q217 123 317 137
l6 35h-332l-35 45h714zM585 65l90 512h-203l-6 -37q28 0 53.5 -16t44 -42.5t27.5 -59.5t3 -66q-7 -42 -31.5 -69.5t-57.5 -27.5q-24 0 -35.5 17t-7.5 38q3 19 19 32.5t35 13.5q14 0 27.5 -13t13.5 -27h2q11 22 12 26q3 19 -8 42t-29 42t-40 32t-40 13l-42 -241q-2 -9 3 -40
q24 0 48.5 -10.5t47.5 -28.5t41.5 -41.5t30.5 -48.5h2zM366 250l38 220q-75 -9 -195 -81q104 -43 154 -139h3z" />
    <glyph glyph-name="k_ro_bn" horiz-adv-x="811" 
d="M91 577l-37 45h831l37 -45h-831zM560 294l-62 -355l-21 24q0 24 -3 44t-12.5 34.5t-27 22t-47.5 7.5q-7 0 -29 -1.5t-46.5 -3.5t-46.5 -3.5t-29 -1.5q-94 0 -136 52t-25 148q9 53 40 101l16 -20q-21 -46 -26 -72q-24 -137 133 -137q3 0 17.5 1.5t32.5 3.5t32.5 3.5
t16.5 1.5q29 0 48 -2.5t33.5 -10t26.5 -21.5t27 -36l66 374q9 47 -21 47q-16 0 -44.5 -15.5t-57 -38t-50.5 -48t-25 -44.5q-2 -9 2 -19q26 17 44 17q27 0 40.5 -16t8.5 -41q-5 -29 -32.5 -51t-65.5 -22q-46 0 -70.5 31t-16.5 79q6 36 35 75t68 71.5t81.5 53.5t77.5 21
q18 0 33 -10t25 -25t15 -31.5t3 -29.5l-17 -94q11 12 29 30.5t40 36t45.5 30t43.5 12.5q24 0 42 -10.5t29.5 -27.5t15.5 -40t-1 -48q-4 -24 -14.5 -44.5t-25.5 -36t-34 -24.5t-38 -9q-28 0 -42.5 17t-9.5 41q8 50 55 50q42 0 49 -52q22 11 27 40q3 15 -2 30t-16 26.5
t-26.5 19t-34.5 7.5q-31 0 -72 -30t-71 -81z" />
    <glyph glyph-name="k_lo_bn" horiz-adv-x="696" 
d="M395 132l57 324q-100 -18 -258 -118q124 -52 198 -206h3zM397 -127l-21 21q3 67 -15.5 102t-48.5 35q-42 0 -50 -46q-2 -13 -1 -36l-21 11q-35 84 -108 84q-18 0 -35 -6.5t-31 -17t-23 -23.5t-12 -27q-4 -22 9.5 -41t37.5 -22q-10 16 -6 37q8 46 57 46q17 0 28.5 -14.5
t7.5 -35.5q-10 -57 -85 -57q-48 0 -70.5 32.5t-13.5 83.5q4 23 16 44.5t30.5 37.5t41.5 25.5t49 9.5q49 0 92 -71q31 51 72 51q44 0 78 -77l9 53q-7 30 -29 63t-54.5 61.5t-73.5 48t-83 23.5l-54 83q245 160 375 178l8 48h-382l-37 45h719l34 -45h-286l-8 -45
q40 0 76.5 -19.5t62 -52.5t37.5 -75.5t4 -88.5q-5 -26 -16 -47.5t-26.5 -37.5t-33.5 -24.5t-36 -8.5q-14 0 -25.5 5.5t-19.5 15t-11 22t-1 25.5q4 25 24.5 44t44.5 19q45 0 55 -43q13 13 16 32q5 30 -5 59t-33 51.5t-55.5 36.5t-69.5 15z" />
    <glyph glyph-name="k_sso_bn" horiz-adv-x="789" 
d="M900 577h-276l-16 -90q18 5 40 5q38 0 68 -13t48.5 -35.5t25.5 -52.5t1 -65q-4 -21 -14.5 -41t-26 -36.5t-34.5 -26.5t-39 -10q-34 0 -51 19t-12 50q5 26 24.5 44t47.5 18q40 0 56 -38q18 12 23 38q13 72 -83 72q-19 0 -41 -1t-46 -3l-77 -438l-19 20q-2 52 -8 90.5
t-18.5 65.5t-32.5 45t-49 29q-44 -66 -94 -66q-32 0 -50 23.5t-12 56.5q5 29 31.5 51.5t66.5 22.5q5 0 8.5 -0.5t7.5 -1.5q17 17 21 40q3 16 -1 33t-13.5 31t-24 23t-33.5 9q-15 0 -28 -1.5t-14 -10.5q-8 -42 -32.5 -66.5t-57.5 -24.5q-15 0 -27.5 6t-21.5 16.5t-13 24.5
t-2 29q7 36 38.5 63t71.5 29q3 42 -42 67h-79l-37 45h812zM559 483l16 94h-140q-5 -14 -8 -30q-13 -72 73 -72q3 0 18 1.5t41 6.5zM501 154l44 252q-11 -3 -21 -3q-28 0 -56 19.5t-49 47t-32.5 57t-8.5 50.5h-139q9 -24 8 -66q35 0 68 -19t57 -50.5t35.5 -72.5t4.5 -85
q59 -32 87 -130h2z" />
    <glyph glyph-name="k_ss_nno_bn" horiz-adv-x="789" 
d="M505 -102l-19 21q2 29 -9 58t-31 51.5t-44 36.5t-47 14q-8 0 -18 -5q21 -22 14 -57q-4 -27 -27 -45t-49 -18q-33 0 -52 22.5t-13 57.5q8 40 42 69t82 29q52 0 85.5 -25t66.5 -87l6 3q3 44 -3 77.5t-19.5 57.5t-34 40t-44.5 25q-44 -66 -94 -66q-32 0 -50 23.5t-12 56.5
q5 29 31.5 51.5t66.5 22.5q5 0 8.5 -0.5t7.5 -1.5q17 17 21 40q3 16 -1 33t-13.5 31t-24 23t-33.5 9q-15 0 -28 -1.5t-14 -10.5q-8 -42 -32.5 -66.5t-57.5 -24.5q-15 0 -27.5 6t-21.5 16.5t-13 24.5t-2 29q7 36 38.5 63t71.5 29q3 42 -42 67h-79l-37 45h812l34 -45h-276
l-16 -90q18 5 40 5q38 0 68 -13t48.5 -35.5t25.5 -52.5t1 -65q-4 -21 -14.5 -41t-26 -36.5t-34.5 -26.5t-39 -10q-34 0 -51 19t-12 50q5 26 24.5 44t47.5 18q40 0 56 -38q18 12 23 38q13 72 -83 72q-19 0 -41 -1t-46 -3zM501 154l44 252q-11 -3 -21 -3q-28 0 -56 19.5
t-49 47t-32.5 57t-8.5 50.5h-139q9 -24 8 -66q35 0 68 -19t57 -50.5t35.5 -72.5t4.5 -85q59 -32 87 -130h2zM559 483l16 94h-140q-5 -14 -8 -30q-13 -72 73 -72q3 0 18 1.5t41 6.5z" />
    <glyph glyph-name="k_ss_bo_bn" horiz-adv-x="789" 
d="M900 577h-276l-16 -90q18 5 40 5q38 0 68 -13t48.5 -35.5t25.5 -52.5t1 -65q-4 -21 -14.5 -41t-26 -36.5t-34.5 -26.5t-39 -10q-34 0 -51 19t-12 50q5 26 24.5 44t47.5 18q40 0 56 -38q18 12 23 38q13 72 -83 72q-19 0 -41 -1t-46 -3l-105 -594l-21 16q-1 20 -13 40
t-35 36.5t-56.5 28.5t-77.5 17l-37 58q9 7 31 18t57 29l142 72l-10 24q-11 25 -33 40.5t-46 26.5q-44 -66 -94 -66q-32 0 -50 23.5t-12 56.5q5 29 31.5 51.5t66.5 22.5q5 0 8.5 -0.5t7.5 -1.5q17 17 21 40q3 16 -1 33t-13.5 31t-24 23t-33.5 9q-15 0 -28 -1.5t-14 -10.5
q-8 -42 -32.5 -66.5t-57.5 -24.5q-15 0 -27.5 6t-21.5 16.5t-13 24.5t-2 29q7 36 38.5 63t71.5 29q3 42 -42 67h-79l-37 45h812zM501 154l44 252q-11 -3 -21 -3q-28 0 -56 19.5t-49 47t-32.5 57t-8.5 50.5h-139q9 -24 8 -66q35 0 68 -19t57 -50.5t35.5 -72.5t4.5 -85
q59 -32 87 -130h2zM559 483l16 94h-140q-5 -14 -8 -30q-13 -72 73 -72q3 0 18 1.5t41 6.5zM459 -85l26 150q-105 -39 -148 -67q81 -26 122 -83z" />
    <glyph glyph-name="k_ss_mo_bn" horiz-adv-x="886" 
d="M997 577h-82l-137 -780l-22 22q2 23 -0.5 41.5t-11.5 36t-26.5 36t-46.5 41.5q-30 23 -50.5 35.5t-35.5 12.5q-5 0 -11.5 -13t-18.5 -28.5t-31 -28.5t-48 -13q-32 0 -50 23t-13 55q3 13 10.5 26.5t18 25t22.5 19t23 7.5q1 0 1 1q3 15 -5.5 36t-23 40t-33 33.5t-35.5 17.5
q-44 -66 -94 -66q-32 0 -50 23.5t-12 56.5q5 29 31.5 51.5t66.5 22.5q5 0 8.5 -0.5t7.5 -1.5q17 17 21 40q3 16 -1 33t-13.5 31t-24 23t-33.5 9q-15 0 -28 -1.5t-14 -10.5q-8 -42 -32.5 -66.5t-57.5 -24.5q-15 0 -27.5 6t-21.5 16.5t-13 24.5t-2 29q7 36 38.5 63t71.5 29
q3 42 -42 67h-79l-37 45h906zM559 483l16 94h-140q-5 -14 -8 -30q-13 -72 73 -72q3 0 18 1.5t41 6.5zM753 -63l113 640h-242l-16 -90q18 5 40 5q38 0 68 -13t48.5 -35.5t25.5 -52.5t1 -65q-4 -21 -14.5 -41t-26 -36.5t-34.5 -26.5t-39 -10q-34 0 -51 19t-12 50q5 26 24.5 44
t47.5 18q40 0 56 -38q18 12 23 38q13 72 -83 72q-19 0 -41 -1t-46 -3q-13 -66 -21.5 -116t-15.5 -88q-19 -107 -16 -108q16 -4 48 -23t65 -44t60.5 -51t34.5 -44h3zM501 154l44 252q-11 -3 -21 -3q-28 0 -56 19.5t-49 47t-32.5 57t-8.5 50.5h-139q9 -24 8 -66q35 0 68 -19
t57 -50.5t35.5 -72.5t4.5 -85q59 -32 87 -130h2z" />
    <glyph glyph-name="k_so_bn" horiz-adv-x="695" 
d="M806 577h-82l-112 -638l-41 48l18 102q-29 64 -69 64q-43 0 -185 -118q-17 -14 -30.5 -19.5t-24.5 -5.5q-15 0 -30 11.5t-28 29.5t-23.5 40t-14.5 43l33 27q10 -66 44 -66q17 0 45.5 19.5t72.5 50.5q-5 33 -27.5 63.5t-55.5 54.5t-73 39.5t-78 19.5l-45 63
q217 123 317 137l6 35h-332l-37 45h716zM596 129l79 448h-203l-6 -37q28 0 53.5 -16t44 -42.5t27.5 -59.5t3 -66q-7 -42 -31.5 -69.5t-57.5 -27.5q-24 0 -35.5 17t-7.5 38q3 19 19 32.5t35 13.5q14 0 27.5 -13t13.5 -27h2q11 22 12 26q3 19 -8 42t-29 42t-40 32t-40 13
l-52 -296q65 45 99 45q41 0 93 -95h2zM366 250l38 220q-75 -9 -195 -81q104 -43 154 -139h3z" />
    <glyph glyph-name="kh_bo_bn" horiz-adv-x="548" 
d="M450 -146l-23 15q0 21 -12 41t-34.5 36.5t-56.5 28.5t-78 16l-38 59q10 6 32 17t57 29l104 53l-2 2q-37 52 -96.5 79t-122.5 27l-62 105q22 -3 41 -3q42 0 83.5 11.5t76 30.5t57.5 42t27 47q3 16 -5 32t-20 16t-29 -15q-93 -76 -175 -76q-39 0 -60 21.5t-15 53.5
q10 59 66 59q16 0 24 -7.5t13.5 -17t9 -17t9.5 -7.5q33 0 141 90q96 -72 80 -166q-5 -26 -19.5 -49t-36.5 -42t-50 -33t-59 -20l-1 -2q90 -39 153 -147l29 14l97 550l23 -28q-6 -34 9 -55.5t36 -21.5l36 -45h-41q-32 0 -36 13h-2zM418 -49l26 150q-107 -40 -149 -67
q79 -24 123 -83z" />
    <glyph glyph-name="kh_ro_bn" horiz-adv-x="548" 
d="M440 76q-16 41 -42.5 74.5t-60.5 57t-74 36.5t-83 13l-62 105q22 -3 41 -3q42 0 83.5 11.5t76 30.5t57.5 42t27 47q3 16 -5 32t-20 16t-29 -15q-93 -76 -175 -76q-39 0 -60 21.5t-15 53.5q10 59 66 59q16 0 24 -7.5t13.5 -17t9 -17t9.5 -7.5q33 0 141 90q96 -72 80 -166
q-5 -26 -19.5 -49t-36.5 -42t-50 -33t-59 -20l-1 -2q103 -43 172 -178h2l105 595l23 -28q-6 -34 9 -55.5t36 -21.5l36 -45h-41q-32 0 -36 13h-2l-119 -672l-23 25q2 18 -1 32.5t-13.5 24.5t-29 15.5t-48.5 5.5q-3 0 -22 -2t-41 -4t-41 -4t-23 -2q-35 0 -61 11t-42 31.5
t-22 48t0 60.5q8 47 35 83l16 -20q-19 -44 -21 -57q-7 -37 11 -61t53 -24h72q26 0 41.5 0.5t23.5 0.5q43 0 66.5 -9.5t40.5 -40.5z" />
    <glyph glyph-name="g_ukar_bn" horiz-adv-x="677" 
d="M708 373q-5 -30 -24 -57.5t-40 -38.5q21 -44 13 -88q-6 -33 -22.5 -60.5t-42 -48t-58.5 -32t-72 -11.5q-71 0 -123.5 26t-92 86.5t-68.5 159t-52 244.5l25 -15q27 -120 56 -200t66.5 -128t84.5 -68t110 -20t104.5 27.5t47.5 65.5q6 30 0 47q-23 -22 -63 -22
q-31 0 -49 20.5t-13 50.5q12 66 78 66q33 0 52 -23q34 19 41 58q6 32 -13 72l-29 59q-17 -39 -37.5 -75t-30.5 -61l-14 13l-11 30q-12 60 -48 93t-85 33q-15 0 -31 -7t-30 -17t-23.5 -21t-10.5 -20q33 11 71 11q80 0 66 -77q-11 -61 -111 -123l-61 39q28 12 54 27t45.5 30
t31 28t13.5 22q4 24 -25 24q-7 0 -27.5 -8.5t-42 -18.5t-39.5 -18.5t-19 -8.5q-35 0 -25 61q5 25 19 48.5t35 40.5t47 27.5t54 10.5q104 0 145 -116q30 40 61 129l17 -14q8 -25 21 -51.5t32 -56.5q53 -87 43 -144z" />
    <glyph glyph-name="g_go_bn" horiz-adv-x="484" 
d="M595 577h-41q-32 0 -36 13h-2l-114 -646l-21 22q13 75 7.5 129.5t-23.5 90t-45.5 52.5t-58.5 17q-18 0 -36.5 -7.5t-34.5 -18.5t-28 -25t-16 -27q60 15 77 15q49 0 71.5 -25t16.5 -58q-9 -52 -63 -105l-86 27q18 9 36.5 22.5t34 27t25.5 25.5t12 20q4 27 -33 27
q-33 0 -112 -51q-23 -15 -36 -15q-37 0 -27 57q6 33 23 62.5t42 52t55 35.5t61 13q100 0 151 -115h2l43 244q-26 130 -132 130q-19 0 -38 -6.5t-34.5 -17t-26.5 -23t-14 -24.5q36 10 76 10q48 0 71 -26.5t16 -68.5q-8 -47 -55 -93l-95 25q16 7 35.5 20.5t36.5 28.5
t28.5 28.5t12.5 20.5q5 26 -32 26q-21 0 -49.5 -11.5t-64.5 -32.5q-26 -16 -38 -17q-36 0 -26 57q6 35 22.5 66t40.5 54t54.5 36.5t63.5 13.5q25 0 49 -10.5t45 -28.5t37.5 -43t25.5 -55l2 -1l41 233l23 -28q-6 -34 9 -55.5t36 -21.5z" />
    <glyph glyph-name="g_do_bn" horiz-adv-x="884" 
d="M995 577h-379l-50 -287h2q20 25 55.5 56t76.5 62t82 58t74 44l77 -63q-122 -113 -148 -264q-9 -48 -11.5 -102t1.5 -115l-29 27q-13 174 1 251q16 93 68 160l-2 2q-36 -18 -73 -46t-70.5 -61t-61 -69t-46.5 -70q-37 35 -55 75l26 148q-87 186 -212 186q-18 0 -38.5 -9
t-38.5 -21.5t-30 -27t-14 -25.5q42 15 88 15q51 0 72.5 -26.5t14.5 -69.5q-14 -80 -143 -156l-76 46q35 15 67 34.5t57 39t40.5 37t17.5 28.5q5 28 -33 28q-14 0 -39.5 -11t-51.5 -23.5t-47 -23.5t-24 -11q-18 0 -28 21.5t-3 57.5q5 32 23.5 61t45.5 51.5t59.5 36t68.5 13.5
q145 0 231 -214l30 173l-25 29h414z" />
    <glyph glyph-name="g_dho_bn" horiz-adv-x="683" 
d="M794 577h-185q-32 0 -36 13h-3l-39 -220q77 37 98 37q5 0 12 -8t15 -19t15.5 -24t14.5 -23q-15 -52 -26.5 -97.5t-18.5 -82.5q-21 -122 -6 -174l-4 -24q-9 8 -20.5 21t-25.5 30q-19 23 2 144q19 110 47 182q-2 10 -9 10q-25 0 -107 -44l-63 -359l-19 20q0 22 -16.5 51
t-44.5 56t-67.5 46t-86.5 21l-31 55q77 48 148 88t140 74l11 61q-15 73 -60 115.5t-108 42.5q-18 0 -38.5 -9t-38.5 -21.5t-30 -27t-14 -25.5q42 15 88 15q51 0 72.5 -26.5t14.5 -69.5q-14 -80 -143 -156l-76 46q35 15 67 34.5t57 39t40.5 37t17.5 28.5q5 28 -32 28
q-14 0 -40 -11t-52 -23.5t-47 -23.5t-24 -11q-18 0 -28 21.5t-3 57.5q5 32 23.5 61t45.5 51.5t59.5 36t68.5 13.5q66 0 116 -43t72 -121h2l46 257l23 -28q-6 -34 9 -55.5t43 -21.5h139zM425 50l40 227q-85 -38 -179 -100q86 -32 137 -127h2z" />
    <glyph glyph-name="g_dh_ro_bn" horiz-adv-x="683" 
d="M425 50l40 227q-85 -38 -179 -100q86 -32 137 -127h2zM439 -149l-22 25q3 45 -20 61.5t-73 16.5l-63 -6q-24 -2 -40 -4.5t-24 -1.5q-35 0 -61 11t-42 31.5t-22 48t0 60.5q8 47 36 83l15 -20q-19 -44 -21 -57q-7 -37 11 -61t53 -24h82.5t38.5 1l14 1q44 0 68 -10.5
t41 -40.5l9 47q-12 20 -31 41t-44.5 38t-56 28.5t-66.5 13.5l-31 55q158 98 288 162l11 61q-15 73 -60 115.5t-108 42.5q-15 0 -35 -8t-38 -20.5t-32 -27t-16 -27.5q42 15 88 15q51 0 72.5 -26.5t14.5 -69.5q-14 -80 -143 -156l-76 46q29 13 60.5 31.5t57.5 38.5t44 38.5
t20 30.5q5 28 -32 28q-29 0 -139 -58q-22 -11 -24 -11q-18 0 -28 21.5t-3 57.5q5 32 24 61t46 51.5t59.5 36t67.5 13.5q66 0 116 -43t72 -121h2l46 257l23 -28q-6 -34 9 -55.5t43 -21.5h139l35 -45h-185q-32 0 -36 13h-3l-39 -220q77 37 98 37q10 0 24 -23.5t33 -50.5
q-17 -57 -28 -101.5t-17 -78.5q-21 -122 -6 -174l-4 -24q-9 8 -20.5 21t-25.5 30q-19 23 2 144q19 110 47 182q-2 10 -9 10q-25 0 -107 -44z" />
    <glyph glyph-name="g_no_bn" horiz-adv-x="548" 
d="M659 577h-41q-32 0 -36 13h-2l-115 -651l-19 22q1 57 -10 98t-30 67.5t-44 38.5t-54 12q-14 0 -22 -4q30 -17 22 -60q-5 -31 -30.5 -51.5t-56.5 -20.5q-17 0 -32 7t-25 19t-14.5 27.5t-1.5 32.5q8 45 44 73.5t91 28.5q105 0 162 -114h2l57 324q-77 130 -183 130
q-18 0 -38.5 -9t-38.5 -21.5t-30 -27t-14 -25.5q42 15 88 15q51 0 72.5 -26.5t14.5 -69.5q-14 -80 -143 -156l-76 46q35 15 67 34.5t57 39t40.5 37t17.5 28.5q5 28 -33 28q-14 0 -39.5 -11t-51.5 -23.5t-47 -23.5t-24 -11q-18 0 -28 21.5t-3 57.5q5 32 23.5 61t45.5 51.5
t59.5 36t68.5 13.5q119 0 202 -152l5 1l43 244l19 -28q-6 -34 9 -55.5t36 -21.5z" />
    <glyph glyph-name="g_bo_bn" horiz-adv-x="558" 
d="M669 577h-41q-32 0 -36 13h-2l-116 -658l-18 23q-1 21 -17.5 49t-45.5 54.5t-68.5 45.5t-85.5 22l-31 55q76 48 147.5 88t141.5 74l15 83q-80 143 -191 143q-18 0 -38.5 -9t-38.5 -21.5t-30 -27t-14 -25.5q42 15 88 15q51 0 72.5 -26.5t14.5 -69.5q-14 -80 -143 -156
l-76 46q35 15 67 34.5t57 39t40.5 37t17.5 28.5q5 28 -33 28q-14 0 -39.5 -11t-51.5 -23.5t-47 -23.5t-24 -11q-18 0 -28 21.5t-3 57.5q5 32 23.5 61t45.5 51.5t59.5 36t68.5 13.5q126 0 210 -167l2 3l46 257l21 -28q-6 -34 9 -55.5t36 -21.5zM444 43l40 227
q-86 -38 -180 -100q86 -31 137 -127h3z" />
    <glyph glyph-name="g_mo_bn" horiz-adv-x="736" 
d="M847 577h-82l-111 -633l-21 22q1 40 -10 73t-27.5 56t-36 36t-37.5 14q-3 -18 -13 -32.5t-24.5 -25t-31.5 -16t-35 -5.5q-36 0 -57.5 23t-14.5 60q6 38 36 65.5t75 27.5q12 0 33 -8l31 175q-84 160 -200 160q-18 0 -38.5 -9t-38.5 -21.5t-30 -27t-14 -25.5q42 15 88 15
q51 0 72.5 -26.5t14.5 -69.5q-14 -80 -143 -156l-76 46q35 15 67 34.5t57 39t40.5 37t17.5 28.5q5 28 -33 28q-14 0 -39.5 -11t-51.5 -23.5t-47 -23.5t-24 -11q-18 0 -28 21.5t-3 57.5q5 32 23.5 61t45.5 51.5t59.5 36t68.5 13.5q135 0 219 -185l49 278l23 -28
q-6 -34 9 -55.5t43 -21.5h159zM630 90l86 487h-76q-32 0 -36 13h-2l-66 -374q56 -35 91 -126h3z" />
    <glyph glyph-name="g_ro_bn" horiz-adv-x="550" 
d="M505 436q-76 133 -184 133q-18 0 -38.5 -9t-38.5 -21.5t-30 -27t-14 -25.5q42 15 88 15q51 0 72.5 -26.5t14.5 -69.5q-14 -80 -143 -156l-74 46q33 15 65 34.5t57 39t40.5 37t17.5 28.5q5 28 -33 28q-14 0 -39.5 -11t-51.5 -23.5t-47 -23.5t-24 -11q-18 0 -28 21.5
t-3 57.5q5 32 23.5 61t45.5 51.5t59.5 36t68.5 13.5q123 0 204 -156l44 249l24 -28q-6 -34 8.5 -55.5t35.5 -21.5l36 -45h-40q-32 0 -36 13h-3l-115 -651l-21 24q0 24 -3 44t-12.5 34.5t-27 22t-47.5 7.5q-7 0 -29 -1.5t-46.5 -3.5t-46.5 -3.5t-29 -1.5q-91 0 -133.5 52
t-25.5 148q9 53 40 101l16 -20q-21 -46 -26 -72q-24 -137 131 -137q4 0 18 1.5t31 3.5t34 3.5t26 1.5q21 0 38.5 -2.5t32 -10t28 -21t26.5 -36.5z" />
    <glyph glyph-name="g_lo_bn" horiz-adv-x="547" 
d="M504 444q-82 125 -183 125q-18 0 -38.5 -9t-38.5 -21.5t-30 -27t-14 -25.5q42 15 88 15q51 0 72.5 -26.5t14.5 -69.5q-14 -80 -143 -156l-76 46q35 15 67 34.5t57 39t40.5 37t17.5 28.5q5 28 -33 28q-14 0 -39.5 -11t-51.5 -23.5t-47 -23.5t-24 -11q-18 0 -28 21.5
t-3 57.5q5 32 23.5 61t45.5 51.5t59.5 36t68.5 13.5q118 0 203 -148l2 1l43 240l21 -28q-6 -34 8.5 -55.5t35.5 -21.5l36 -45h-40q-32 0 -36 13h-3l-115 -651l-19 22q1 35 -2 71.5t-11 66.5t-20.5 49t-30.5 19q-9 0 -17.5 -5.5t-16 -14t-13 -19t-6.5 -19.5q-3 -13 -2 -43
l-20 11q-35 84 -108 84q-18 0 -35 -6.5t-31 -17t-23.5 -23.5t-11.5 -27q-4 -22 9 -41t38 -22q-9 16 -6 37q8 46 56 46q17 0 29 -14.5t9 -35.5q-10 -57 -86 -57q-48 0 -71 32.5t-14 83.5q4 23 16.5 44.5t30.5 37.5t41.5 25.5t49.5 9.5q46 0 88 -66q43 66 80 66q42 0 80 -99h2
z" />
    <glyph glyph-name="gh_no_bn" horiz-adv-x="524" 
d="M553 577l-130 -740l-20 21q2 58 -9 99t-30 67t-44 38t-54 12q-14 0 -22 -3q30 -17 22 -60q-5 -32 -30.5 -52t-56.5 -20q-17 0 -32 7t-25 19t-14.5 27.5t-1.5 31.5q8 46 44 74.5t91 28.5q106 0 162 -115h2l7 44q-34 78 -93 119.5t-147 41.5l-48 65q36 36 134 116h-13
q-4 -1 -10 -1q-29 0 -53 8.5t-39 24t-22 36t-3 44.5q7 36 34 67h-61l-38 45h547l35 -45h-82zM421 105l83 472h-224q-15 0 -29 -6.5t-26 -17t-20 -24t-10 -26.5q-5 -30 14 -52.5t54 -22.5q36 0 108 58l45 -52q-54 -36 -101.5 -73.5t-89.5 -77.5q126 -33 194 -178h2z" />
    <glyph glyph-name="gh_bo_bn" horiz-adv-x="524" 
d="M430 -124l-22 15q-1 21 -13 41t-34.5 36.5t-56.5 28.5t-78 16l-38 59q9 7 31.5 17.5t57.5 28.5l68 35q-67 64 -173 64l-48 65q36 36 134 116h-13q-4 -1 -10 -1q-29 0 -53 8.5t-39 24t-22 36t-3 44.5q7 36 34 67h-61l-38 45h547l35 -45h-82zM504 577h-224q-15 0 -29 -6.5
t-26 -17t-20 -24t-10 -26.5q-5 -30 14 -52.5t54 -22.5q36 0 108 58l45 -52q-54 -36 -101.5 -73.5t-89.5 -77.5q92 -24 156 -112l57 28zM398 -27l26 150q-105 -39 -148 -67q79 -24 122 -83z" />
    <glyph glyph-name="gh_ro_bn" horiz-adv-x="524" 
d="M421 105l83 472h-224q-15 0 -29 -6.5t-26 -17t-20 -24t-10 -26.5q-5 -30 14 -52.5t54 -22.5q36 0 108 58l45 -52q-54 -36 -101.5 -73.5t-89.5 -77.5q126 -33 194 -178h2zM436 -90l-23 24q3 47 -18.5 62.5t-73.5 15.5q-5 0 -26 -2t-44 -4t-40.5 -4t-15.5 -2
q-35 0 -61.5 11t-42.5 31.5t-22.5 48t-0.5 60.5q9 48 36 83l15 -19q-8 -22 -13.5 -36t-7.5 -22q-6 -36 11.5 -60.5t53.5 -24.5h82t39 1l15 1q43 0 66.5 -10t41.5 -41l6 35q-34 76 -98.5 117.5t-142.5 41.5l-48 65q36 36 134 116l-23 -1q-29 0 -53 8.5t-39 24t-22 36t-3 44.5
q7 36 34 67h-61l-38 45h547l35 -45h-82z" />
    <glyph glyph-name="ng_ko_bn" horiz-adv-x="610" 
d="M721 577h-103q5 -23 1 -45q-6 -34 -29 -56t-55 -22q-80 0 -128 123h-168v-2q17 -10 20 -44q19 3 31 3q33 0 61.5 -11.5t49.5 -31t32 -46t11 -55.5q29 -1 57.5 -18.5t50 -45t32.5 -62t5 -68.5q-15 -87 -87 -87q-25 0 -40.5 14.5t-11.5 36.5q9 50 54 50q35 0 51 -38
q10 10 12 21q3 20 -8 42.5t-30.5 42t-44.5 33t-51 14.5l-66 -371l-17 19q2 33 -14.5 66.5t-45.5 62.5t-69 50.5t-85 30.5l-37 63q219 131 287 141q3 21 0.5 40.5t-10.5 34.5t-21.5 24t-32.5 9q-3 0 -12.5 -2t-19 -5.5t-18 -10t-10.5 -15.5q-4 -22 -14.5 -41.5t-25 -34
t-31.5 -23t-33 -8.5q-67 0 -56 61q3 16 14 33.5t27 32.5t37 26t44 15q-5 37 -78 54h-55l-37 45h632zM590 559q1 7 -3 18h-148q5 -14 13.5 -26.5t20.5 -22.5t25.5 -16t26.5 -6q22 0 41.5 15.5t23.5 37.5zM341 84l42 237q-81 -21 -188 -92q74 -28 144 -145h2z" />
    <glyph glyph-name="ng_k_ro_bn" horiz-adv-x="610" 
d="M525 506q22 0 41.5 15.5t23.5 37.5q1 7 -3 18h-148q5 -14 13.5 -26.5t20.5 -22.5t25.5 -16t26.5 -6zM356 -109l-22 25q3 45 -20 61.5t-73 16.5q-26 0 -58.5 -6t-68.5 -6q-17 0 -35.5 11t-33 31t-21.5 48t-1 61q8 47 36 83l15 -20q-19 -44 -21 -57q-7 -37 11 -61t53 -24
q22 0 52 4t64 4q18 0 31 -2.5t23.5 -9.5t19.5 -18t20 -27l7 37q-12 24 -31.5 46t-44.5 41t-56 33t-66 21l-37 63q219 130 287 141q4 22 1 41.5t-11.5 34.5t-22 23.5t-31.5 8.5q-19 0 -38.5 -10.5t-21.5 -22.5q-4 -22 -14.5 -41.5t-25 -34t-31.5 -23t-33 -8.5q-67 0 -56 61
q3 17 14 34.5t27.5 32.5t37.5 25.5t43 14.5q-5 37 -78 54h-55l-37 45h632l35 -45h-103q5 -23 1 -45q-6 -34 -29 -56t-55 -22q-80 0 -128 123h-168v-2q17 -10 20 -44q19 3 31 3q32 0 60.5 -11.5t49 -31t32.5 -46t12 -55.5q28 -1 57 -19t50 -45.5t32.5 -62t5.5 -67.5
q-15 -87 -87 -87q-25 0 -40.5 14.5t-11.5 36.5q9 50 54 50q35 0 51 -38q10 10 12 21q3 19 -6.5 41t-28.5 41.5t-45 33.5t-54 16zM341 84l42 237q-81 -21 -188 -92q74 -28 144 -145h2z" />
    <glyph glyph-name="ng_kho_bn" horiz-adv-x="750" 
d="M505 549q6 32 -37 32q-20 0 -49 -18.5t-47 -42.5q25 -20 56 -20q13 0 26 4.5t24 12t18.5 16t8.5 16.5zM757 727l23 -28q-6 -34 9 -55.5t34 -21.5l38 -45h-41q-32 0 -36 13h-2l-130 -734l-21 27q0 25 -18 51t-50.5 46t-80 33t-105.5 13l-48 85q31 -9 40 -9q30 0 65.5 13
t66.5 32.5t53.5 42t25.5 41.5q3 17 -5 31t-17 14t-31 -19l-34 -29q-9 -13 -25 -27.5t-35 -26.5t-39 -20t-37 -8q-54 0 -98.5 28t-76 77t-48 116.5t-15.5 146.5l28 -22q5 -60 22 -111.5t44 -89t63.5 -58.5t78.5 -21q21 0 43 8.5t40.5 22.5t31.5 30.5t16 33.5q2 11 -5 29
t-19 26q-84 -78 -131 -78q-22 0 -39.5 10t-28 27t-14 40t1.5 49q15 85 96 167h-256l-39 45h422q12 -4 25 -12t22 -20.5t13 -29t1 -37.5q-6 -33 -32 -50.5t-58 -17.5q-61 0 -88 39q-53 -53 -64 -118q-8 -47 19 -47q32 0 113 96q41 -11 66.5 -38t28.5 -66q15 10 29 10
q11 0 20 -7q58 -51 45 -124t-135 -130q91 -33 144 -102z" />
    <glyph glyph-name="ng_go_bn" horiz-adv-x="621" 
d="M732 577h-143q5 -23 1 -45q-6 -34 -29 -56t-55 -22q-82 0 -128 123h-127q15 -25 19 -58q34 0 60.5 -10.5t43.5 -28.5t24.5 -40.5t3.5 -46.5q-5 -30 -18 -57l1 -3q46 34 212 121l64 -60q-151 -110 -175 -243q-21 -119 -5 -212l-32 26q-25 112 -8 209q16 92 84 166l-2 6
q-77 -44 -125 -83t-81 -69t-56.5 -47.5t-51.5 -17.5q-42 0 -64 35t-22 92q1 2 24 19q5 -60 45 -60q21 0 50 16t56 40t47 52t25 52q5 31 -12.5 51.5t-47.5 20.5q-25 0 -34 -8q-16 -91 -88 -91q-32 0 -48.5 20.5t-10.5 51.5q11 66 104 91q-12 66 -81 66h-61l-34 45h640z
M560 559q1 7 -3 18h-147q4 -14 13 -26.5t21 -22.5t25.5 -16t25.5 -6q22 0 41.5 15.5t23.5 37.5z" />
    <glyph glyph-name="ng_mo_bn" horiz-adv-x="652" 
d="M763 577h-82l-126 -714l-19 22q8 70 -17.5 104.5t-77.5 34.5q-6 -35 -35.5 -58t-67.5 -23q-31 0 -48.5 23t-12.5 55q5 28 30.5 51.5t59.5 23.5q19 0 22 -1q-3 37 -32 51q-54 0 -98.5 28t-76 77t-48 116.5t-15.5 146.5l29 -22q4 -60 21 -111.5t44 -89t63.5 -58.5t78.5 -21
q21 0 43 8.5t40.5 22.5t31.5 30.5t16 33.5q2 11 -5 29t-19 26q-84 -78 -131 -78q-22 0 -39.5 10t-28 27t-14 40t1.5 49q15 85 96 167h-256l-40 45h676zM505 549q5 28 -37 28q-21 0 -49.5 -16.5t-46.5 -40.5q25 -20 56 -20q13 0 26 4.5t24.5 12t18.5 16t8 16.5zM531 2
l101 575h-103q12 -20 6 -54q-6 -33 -32 -50.5t-58 -17.5q-59 0 -88 39q-53 -53 -64 -118q-8 -47 19 -47q32 0 113 96q50 -13 76 -48.5t17 -86.5q-16 -91 -116 -131q41 -36 48 -76q9 -4 21 -13t23.5 -20.5t21 -24t13.5 -23.5h2z" />
    <glyph glyph-name="ng_ro_bn" horiz-adv-x="606" 
d="M394 476q21 0 45.5 7t46 18t36.5 24t17 25q6 32 -43 32q-18 0 -42.5 -9t-47.5 -23t-39.5 -31t-19.5 -33q19 -10 47 -10zM438 20q-32 -13 -73 -13q-272 0 -246 509l27 -17q11 -406 222 -406q32 0 63 10.5t55.5 28.5t41 42t21.5 52q13 70 -38 85q-21 -24 -44 -44.5
t-45 -35.5t-41.5 -23t-32.5 -8q-12 0 -26 10t-25.5 24t-19 29.5t-9.5 26.5q-3 14 -2.5 35.5t6.5 52.5l20 90q-89 52 -136 147l79 17q7 -84 67 -128q7 27 26 51t44.5 43t55 30t57.5 11q22 0 40.5 -7.5t29.5 -20t16 -29t2 -34.5q-4 -24 -19 -45t-37 -37t-50 -25.5t-58 -9.5
q-38 0 -74 17q-3 -15 -7.5 -36t-8.5 -47q-18 -99 22 -99q11 0 29.5 12t39.5 31.5t41.5 44t37.5 49.5q119 -78 97 -200q-8 -41 -26 -76.5t-50 -62.5l-18 -15l-43 -244l-22 25q1 18 -2 32.5t-13.5 24.5t-29 15.5t-48.5 5.5q-11 0 -31.5 -2t-43.5 -4t-45 -4t-36 -2
q-35 0 -61 11t-42 31.5t-22 48t0 60.5q8 47 35 83l16 -20q-19 -44 -21 -57q-7 -40 12 -62.5t57 -22.5q32 0 64 4.5t67 4.5q54 0 86.5 -13t50.5 -45z" />
    <glyph glyph-name="c_nyo_bn" horiz-adv-x="855" 
d="M966 577h-703q1 -19 13 -34.5t30 -26.5t38 -17t38 -6q-1 0 7.5 -2.5t17.5 -8.5t16.5 -17t4.5 -27q71 56 108 56q14 0 28 -10t25.5 -24.5t18 -31.5t4.5 -31l-13 -72h2q97 135 179 135q98 0 76 -122q-8 -48 -58 -93q34 -60 25 -113q-16 -92 -104 -92q-110 0 -142 148h-2
l-48 -269l-22 25q1 22 -1.5 41t-12 32.5t-28 21t-49.5 7.5q-6 0 -32.5 -2t-57.5 -4t-58 -4t-34 -2q-94 0 -136.5 53.5t-25.5 149.5q9 50 41 102l16 -22q-20 -42 -25 -72q-24 -134 133 -134q4 0 22.5 1t41 2.5t41.5 2.5t23 1q29 0 48 -2t33.5 -9t27 -20.5t29.5 -36.5l63 355
q6 37 -17 37q-19 0 -48 -16.5t-57.5 -40t-49.5 -48t-24 -39.5q-2 -14 7 -26q25 21 52 21q47 0 38 -51q-11 -64 -86 -64q-86 0 -71 83q-49 -41 -78 -41q-7 0 -17.5 9t-20 22t-15.5 28t-3 28l47 270h-130l-37 45h877zM827 343q9 51 -50 51q-29 0 -60.5 -14.5t-58.5 -36
t-46.5 -46.5t-22.5 -47q-4 -21 5.5 -46t27 -47t41 -36.5t47.5 -14.5q31 0 56 18.5t29 40.5q2 12 -7.5 28t-23.5 21q-18 -26 -48 -26q-22 0 -35 16.5t-8 40.5q11 65 64 65q22 0 39 -22q17 5 32.5 22t18.5 33zM374 407q5 26 -14 29q-71 9 -98 81h-3l-39 -221q-5 -24 10 -24
q12 0 35 17t46.5 39.5t42 45t20.5 33.5z" />
    <glyph glyph-name="c_ro_bn" horiz-adv-x="477" 
d="M397 301q5 28 -17 32q-34 7 -63.5 23t-52.5 38t-37 49.5t-16 56.5h-3l-62 -347q-12 -72 28 -72q10 0 43.5 19.5t71 50.5t69.5 70.5t39 79.5zM354 119q-45 -45 -93 -74.5t-82 -29.5q-7 0 -22.5 10t-30.5 29t-23.5 47t-1.5 65l72 411h-82l-37 45h499l35 -45h-367l-5 -28
q2 -21 15.5 -43.5t36 -41.5t54 -31.5t68.5 -14.5q20 -1 35 -13q31 -22 44 -42t7 -54q-5 -22 -14 -45.5t-28 -48.5l-18 -26l-64 -363l-23 25q1 18 -1.5 32.5t-13 24.5t-29 15.5t-48.5 5.5q-13 0 -38 -6t-62 -6q-35 0 -61 11t-42 31.5t-22 48t-1 60.5q9 47 36 83l16 -20
q-19 -44 -21 -57q-7 -37 11 -61t53 -24q54 0 82.5 1t32.5 0q40 0 62 -10t40 -40z" />
    <glyph glyph-name="ch_bo_bn" horiz-adv-x="542" 
d="M192 289q45 0 132 81q17 17 20 35v18q-106 0 -130 98l-2 -2l-34 -191q-7 -39 14 -39zM486 -209l-23 25q2 14 0 30.5t-12 31t-29.5 24t-53.5 9.5q-44 -5 -82.5 -9t-72.5 -4q-47 0 -84.5 13.5t-62 37.5t-35 57.5t-3.5 73.5q5 28 18 55l19 -18q-2 -6 -4 -14.5t-4 -19.5
q-4 -24 5.5 -43.5t29.5 -34t47.5 -22.5t60.5 -8q16 -1 45 1.5t71 4.5l23 1q21 0 36.5 -3t28.5 -10.5t25 -20t27 -32.5l3 3l9 52q-36 32 -71 54t-72 36t-79 21.5t-91 10.5l-37 102q39 -25 103 -25q45 0 92 16t86.5 42.5t67 59.5t33.5 67q7 37 -9.5 57.5t-44.5 20.5
q-15 0 -33 -5q2 -11 0 -23q-7 -30 -31.5 -60t-55.5 -54t-65 -39t-61 -15q-14 0 -27.5 9.5t-24 26t-14.5 37t0 43.5l39 224h-82l-37 45h564l35 -45h-431l-5 -30q28 -71 155 -71q1 0 10 1t20 2t21.5 2t14.5 1q22 0 43 -15t36.5 -38t23 -52t2.5 -57q-6 -36 -25.5 -67t-49 -56.5
t-68 -44t-82.5 -28.5v-2q25 -6 60.5 -28t71.5 -52t67.5 -63.5t49.5 -61.5l5 -54q-16 19 -31.5 35.5t-30.5 31.5z" />
    <glyph glyph-name="ch_ro_bn" horiz-adv-x="542" 
d="M344 405v18q-54 0 -86 23.5t-44 74.5l-2 -2l-34 -191q-7 -39 14 -39q45 0 132 81q17 17 20 35zM468 -29q-36 32 -71 54t-72 36t-79 21.5t-91 10.5l-37 102q39 -25 103 -25q46 0 93.5 16.5t87 43t66 59.5t32.5 66q7 37 -9.5 57.5t-44.5 20.5q-15 0 -33 -5q2 -11 0 -23
q-8 -31 -32 -61t-55.5 -54t-65 -38.5t-60.5 -14.5q-5 0 -18 5.5t-25.5 19t-20.5 36t-2 55.5l39 224h-82l-37 45h564l35 -45h-431l-5 -30q28 -71 155 -71q1 0 10 1t20 2t21.5 2t14.5 1q22 0 43 -14.5t36.5 -37.5t23 -52t2.5 -58q-6 -36 -25.5 -67t-49 -56.5t-68 -44
t-82.5 -28.5v-2q27 -6 62.5 -27t70.5 -50t66 -63t50 -65l5 -54q-16 19 -31.5 35.5t-30.5 31.5l-24 -139l-23 25q2 14 0 30.5t-12 31t-29.5 24t-53.5 9.5q-44 -5 -82.5 -9t-72.5 -4q-47 0 -84.5 13.5t-62 37.5t-35 57.5t-3.5 73.5q5 28 18 55l19 -18q-2 -6 -4 -14.5t-4 -19.5
q-4 -24 5.5 -43.5t29.5 -34t47.5 -22.5t60.5 -8q11 0 35 1t80 5q6 1 12 1h11q22 0 38.5 -3.5t29 -11t24.5 -20t26 -31.5l3 3z" />
    <glyph glyph-name="ch_ro_alt_bn" horiz-adv-x="542" 
d="M344 405v18q-54 0 -86 23.5t-44 74.5l-2 -2l-34 -191q-7 -39 14 -39q45 0 132 81q17 17 20 35zM-134 46l-3 -17q-23 -127 162 -127q27 0 67.5 6t79.5 13.5t68.5 14t34.5 6.5q9 1 15 1h8q31 0 53 -2t38.5 -9t30.5 -21t31 -38l17 98q-36 32 -71 54t-72 36t-79 21.5
t-91 10.5l-37 102q39 -25 103 -25q46 0 93.5 16.5t87 43t66 59.5t32.5 66q7 37 -9.5 57.5t-44.5 20.5q-15 0 -33 -5q2 -11 0 -23q-8 -31 -32 -61t-55.5 -54t-65 -38.5t-60.5 -14.5q-5 0 -18 5.5t-25.5 19t-20.5 36t-2 55.5l39 224h-82l-37 45h564l35 -45h-431l-5 -30
q28 -71 155 -71q1 0 10 1t20 2t21.5 2t14.5 1q22 0 43 -14.5t36.5 -37.5t23 -52t2.5 -58q-6 -36 -25.5 -67t-49 -56.5t-68 -44t-82.5 -28.5v-2q27 -6 62.5 -27t70.5 -50t66 -63t50 -65l5 -54q-16 19 -31.5 35.5t-30.5 31.5l-36 -204l-26 24q1 36 -2.5 59t-14.5 37
t-30.5 19.5t-51.5 5.5q-36 -3 -80.5 -10.5t-91 -15.5t-91.5 -14t-81 -6q-47 0 -83 14.5t-58.5 40t-31.5 61t-1 77.5q4 24 11 43z" />
    <glyph glyph-name="j_jo_bn" horiz-adv-x="1005" 
d="M1116 577h-660l-31 -17q-1 -26 27 -47t75 -21q74 0 174 47q52 -118 150 -118q33 0 129 39l62 -85q-124 -110 -150 -257q-13 -73 -5 -179l-25 18q-19 114 -3 204q21 122 95 218q-21 -11 -64 -11q-64 0 -109.5 26t-63.5 64q-26 -14 -50 -33t-43 -39t-31.5 -39t-14.5 -32
q-6 -36 38 -36q36 0 136 67q14 -9 27 -27.5t22.5 -40t13.5 -43.5t1 -40q-6 -32 -21.5 -58t-39 -45t-52 -29.5t-60.5 -10.5q-36 0 -68 14.5t-56 40t-39.5 61t-18.5 78.5h-2q-6 -20 -20.5 -38.5t-35 -32.5t-45 -22t-48.5 -8q-53 0 -94.5 28.5t-67 80.5t-32.5 123.5t7 158.5
l25 -22q-9 -77 2 -132t35 -90.5t56 -52.5t64 -17q58 0 97 24.5t45 58.5q6 32 -22 48l-62 -35q-29 -12 -60 -12q-22 0 -39.5 10.5t-29.5 28t-17 39t-1 43.5q2 14 11.5 33t23 39.5t31 40.5t36.5 37h-227l-37 45h1029zM786 217q5 32 -21 53q-33 -20 -52.5 -30.5t-32.5 -15.5
t-22.5 -5.5t-23.5 -0.5q-22 0 -40 9.5t-29.5 26.5t-16 40t0.5 50q11 61 62 100l-3 3q-27 -8 -48 -8q-60 0 -104.5 29t-62.5 77q-26 -14 -50.5 -34t-43.5 -41t-31.5 -41t-15.5 -34q-2 -14 6 -25t22 -11q46 0 135 70q26 -24 41.5 -55t19.5 -69q5 -47 20 -80.5t37 -54.5t49 -31
t56 -10q25 0 50.5 7.5t46 19.5t34.5 28t17 33z" />
    <glyph glyph-name="j_j_bo_bn" horiz-adv-x="1000" 
d="M1111 577h-656l-29 -15q16 -59 99 -59q75 0 171 47q55 -113 152 -113q45 0 129 35l62 -86q-30 -27 -51.5 -53t-37.5 -55t-26.5 -63.5t-18.5 -79.5q-1 -8 -3.5 -29.5t-5.5 -50t-6.5 -60.5t-6 -60t-4 -48.5t-1.5 -26.5l-20 9q-7 19 -24.5 34.5t-40.5 26t-50 16t-54 5.5
l-32 58q114 78 211 117q1 6 3 23t4.5 35.5t4.5 34.5t3 20q15 87 61 148q-27 -11 -57 -11q-58 0 -105.5 26t-67.5 66q-25 -10 -50 -27t-45.5 -36.5t-33.5 -38.5t-16 -33q-6 -35 38 -35q37 0 137 67q14 -10 27 -28.5t22 -39.5t13 -43t1 -40q-5 -32 -21 -58.5t-39 -45t-52 -29
t-61 -10.5q-145 0 -174 175h-2q-5 -22 -21.5 -40.5t-37 -32t-44.5 -21t-44 -7.5q-55 0 -96 29t-65.5 81t-32 124t5.5 158l26 -22q-10 -77 1 -132t35 -91t56 -53t64 -17q60 0 98 24.5t44 58.5q6 31 -21 48l-62 -35q-29 -12 -61 -12q-22 0 -39.5 10.5t-29.5 28t-16.5 39
t-0.5 43.5q2 14 11 33t22.5 39t31 40.5t36.5 37.5h-227l-37 45h1022zM777 235q6 32 -20 53q-33 -20 -53 -30.5t-33 -15t-22.5 -5t-22.5 -0.5q-22 0 -39.5 9.5t-29.5 26.5t-16.5 39.5t-0.5 49.5q8 44 53 91l-2 2q-16 -5 -34 -5q-112 0 -163 95q-27 -14 -51 -34t-43.5 -41
t-32 -41t-15.5 -34q-2 -14 6.5 -25t21.5 -11q45 0 136 70q58 -52 62 -124q8 -48 22.5 -78.5t34.5 -48t44 -24t51 -6.5q25 0 50 7.5t45.5 19.5t34.5 27.5t17 32.5zM853 -71q-2 17 2 50t10 84q-55 -13 -130 -67q56 -7 116 -69z" />
    <glyph glyph-name="j_jho_bn" horiz-adv-x="741" 
d="M852 577h-82l-122 -693l-18 23q-2 49 -34 76t-80 27l-27 -156l-19 19q0 19 -14 40t-36.5 39t-50 29.5t-52.5 11.5h-12l-37 57q51 42 230 126l47 272q-26 0 -50 8.5t-44.5 22t-35.5 31t-22 35.5q-26 -14 -50.5 -34t-44 -41t-32 -41t-15.5 -34q-2 -14 6.5 -25t21.5 -11
q47 0 136 70q15 -12 27.5 -31t21 -40t12.5 -41.5t1 -35.5q-5 -30 -21.5 -55t-39.5 -43t-50.5 -28t-55.5 -10q-53 0 -94.5 28.5t-67 80.5t-32.5 123.5t7 158.5l25 -22q-9 -77 2 -132t35 -90.5t55.5 -52.5t63.5 -17q60 0 98 24.5t44 58.5q6 31 -21 48l-62 -35q-29 -12 -61 -12
q-22 0 -39.5 10.5t-29.5 28t-16.5 39t-0.5 43.5q2 14 11.5 33t23 39.5t31 40.5t35.5 37h-226l-37 45h763zM620 5l101 572h-266l-31 -17q9 -60 106 -60q38 0 75 12l-80 -455q73 -9 93 -55zM459 -44l28 160q-83 -37 -145 -77q15 -5 33.5 -15t35 -22t28.5 -24.5t17 -21.5h3z
" />
    <glyph glyph-name="j_nyo_bn" horiz-adv-x="778" 
d="M889 577h-419q-6 -1 -59 -29q9 -40 27.5 -86.5t44.5 -101.5q19 39 44 72.5t53 58.5t59 39.5t61 14.5q52 0 74.5 -32t13.5 -86q-11 -63 -66 -115q46 -56 34 -123q-4 -20 -14.5 -37t-25.5 -30.5t-34.5 -21t-40.5 -7.5q-96 0 -141 124h-3q-6 -32 -22 -58.5t-40 -45.5
t-53.5 -29.5t-60.5 -10.5q-63 0 -108.5 32t-72 91t-32 142t12.5 185l25 -20q-11 -89 -2.5 -153.5t32.5 -107t61.5 -63t85.5 -20.5q28 0 53.5 8.5t45 22.5t33 32.5t17.5 38.5q5 32 -15 55q-85 -48 -148 -48q-26 0 -46.5 12t-34 31.5t-19 45.5t-0.5 55q13 74 117 165h-235
l-37 45h801zM721 227q5 32 -28 58q-32 -30 -63 -30q-9 0 -18.5 5t-16 14t-9.5 21t-1 26q4 24 24 44.5t45 20.5q30 0 43 -20q50 22 56 57q4 25 -11.5 40.5t-44.5 15.5q-27 0 -58.5 -14.5t-60 -36.5t-48.5 -48t-24 -49q-5 -28 4 -57.5t26.5 -53.5t42.5 -39.5t52 -15.5
q18 0 33.5 5.5t27.5 14.5t19.5 20t9.5 22zM436 392q-41 75 -52 139q-29 -16 -52.5 -35t-41.5 -39t-29.5 -39.5t-14.5 -35.5q-4 -22 9 -37.5t35 -15.5q58 0 146 63z" />
    <glyph glyph-name="j_bo_bn" horiz-adv-x="677" 
d="M788 577h-325q-13 -1 -29 -11q-4 -43 29.5 -70.5t99.5 -27.5q36 0 96 26l61 -84q-98 -68 -134 -273q-14 -75 -20.5 -140.5t-6.5 -125.5l-20 13q-3 17 -18.5 34t-40.5 31t-58 23.5t-69 10.5l-30 55q138 86 230 117q1 24 3.5 44.5t5.5 35.5q22 124 65 176q-10 -2 -20 -3
t-19 -1q-35 0 -67.5 10.5t-59 29.5t-44.5 44t-21 54q-137 -77 -150 -153q-3 -15 7.5 -26t29.5 -11q50 0 146 61q87 -55 70 -150q-6 -35 -23.5 -63.5t-43 -48.5t-56.5 -31t-64 -11q-61 0 -104 30t-68 85.5t-29.5 134t12.5 176.5l26 -21q-20 -166 22.5 -242.5t140.5 -76.5
q63 0 106 25t50 65q5 28 -26 52q-12 -8 -30 -16t-37.5 -15t-37.5 -11t-30 -4q-23 0 -42.5 10.5t-33.5 28t-20.5 40.5t-1.5 49q13 76 103 155h-221l-37 45h700zM533 -52q1 40 4.5 71t8.5 55l3 18q-67 -23 -140 -66q36 -10 66.5 -30t57.5 -48z" />
    <glyph glyph-name="j_ro_bn" horiz-adv-x="687" 
d="M571 -110l-30 22q1 16 -1.5 30.5t-12 25t-27 16.5t-46.5 6l-228 -13q-47 0 -84 13.5t-61.5 37.5t-35.5 57.5t-3 73.5q4 28 18 55l19 -18q-2 -6 -4 -14.5t-4 -19.5q-4 -24 5.5 -43.5t29.5 -34t47.5 -22.5t60.5 -8q10 0 37 1t57.5 2.5t57.5 3t37 1.5q28 0 48 -3t35.5 -10.5
t28 -20.5t27.5 -33l3 3q-14 106 3 202q23 130 86 206q-5 -1 -12 -1.5t-15 -0.5q-39 0 -75.5 11t-66 30.5t-48.5 45t-21 54.5q-137 -77 -150 -153q-3 -15 8 -26t29 -11q50 0 146 61q87 -55 70 -150q-6 -35 -23.5 -63t-42.5 -48.5t-56 -31.5t-65 -11q-61 0 -104 30.5t-67.5 86
t-29.5 134t12 175.5l27 -21q-38 -319 162 -319q63 0 106.5 25t50.5 65q5 28 -27 52q-10 -7 -28.5 -15t-38 -15t-38.5 -11.5t-30 -4.5q-23 0 -42.5 10t-33 27.5t-20 41t-1.5 49.5q13 75 102 155h-221l-37 45h709l35 -45h-342l-27 -15q-3 -19 7 -36.5t28 -31t43 -21.5t52 -8
q41 0 109 30l62 -85q-122 -101 -148 -251q-22 -124 -11 -269z" />
    <glyph glyph-name="jh_ro_bn" horiz-adv-x="646" 
d="M394 132l57 324q-99 -18 -257 -118q124 -52 198 -206h2zM384 74q-1 3 -4 9q-13 33 -35.5 64.5t-52.5 57t-67 42t-81 21.5l-54 83q246 160 374 178l8 48h-381l-37 45h475l-53 -301q58 -45 83 -115h2l92 521l23 -28q-6 -34 9 -55.5t36 -21.5l36 -45h-41q-32 0 -36 13h-2
l-95 -536l-18 19q-6 131 -101 182l-60 -344l-23 24q1 19 -1.5 33.5t-13 24.5t-29 15t-48.5 5q-3 0 -22.5 -2t-41.5 -4t-40.5 -4t-21.5 -2q-35 0 -61 11.5t-42.5 31.5t-22.5 48t-1 61q9 47 36 82l16 -19q-20 -46 -21 -57q-7 -37 10.5 -61.5t53.5 -24.5q30 0 69 3t70 3
q38 0 62 -13t43 -42z" />
    <glyph glyph-name="ny_co_bn" horiz-adv-x="760" 
d="M748 244q-8 -45 -43.5 -73t-84.5 -28q-25 0 -49.5 12.5t-45 33.5t-35.5 49t-20 60h-4l-57 -325l-19 20q-8 80 -43.5 129.5t-98.5 81.5q-23 11 -43 17.5t-39 7.5l-44 77q101 54 177 98t129 79q-43 78 -131 78q-37 0 -67 -17t-35 -41q64 0 55 -52q-10 -57 -71 -57
q-81 0 -65 89q5 31 22 56.5t41.5 44t53 28.5t58.5 10t53 -9t41.5 -24.5t33.5 -36.5t31 -46h6l29 165l40 -49l-26 -150h4q39 66 93 104t100 38q24 0 42.5 -9.5t31 -26.5t17.5 -41t0 -53q-11 -59 -66 -111q39 -72 29 -129zM749 482q3 13 -0.5 25t-12 21t-20 14.5t-25.5 5.5
q-30 0 -65 -16.5t-65.5 -41t-52.5 -53t-26 -51.5q-5 -24 5.5 -53.5t29 -56t43 -44t49.5 -17.5q40 0 69 20t34 47q6 32 -21 61q-32 -31 -67 -31q-22 0 -37 19t-10 44q12 68 76 68q27 0 41 -21q48 15 55 60zM385 116l53 302q-92 -70 -225 -133q91 -32 170 -169h2z" />
    <glyph glyph-name="ny_cho_bn" horiz-adv-x="640" 
d="M643 331q-3 -15 -13 -29t-23.5 -24.5t-30.5 -17t-33 -6.5q-30 0 -56.5 13.5t-46.5 36.5t-32 54t-13 67h-4q-1 -5 -7.5 -12.5t-13.5 -16t-13 -17t-7 -14.5q-6 -34 8 -56.5t34.5 -41.5t41 -37t26.5 -42q6 -32 2 -55q-10 -55 -55 -88.5t-115 -37.5l-1 -2q26 -6 59 -26
t66.5 -47.5t64 -60.5t51.5 -66l4 -54q-51 59 -99 101t-97.5 69t-101.5 41t-108 17l-38 103q52 -26 117 -26q91 0 146 30t64 82q1 7 -5 15t-14 15.5t-17 13.5t-14 9q-7 -43 -43.5 -68t-96.5 -25q-33 0 -60 11t-45 31t-26 47.5t-2 60.5q3 18 18.5 32t40 27t55.5 27.5t67 32.5
q103 55 115 122q11 61 -54 61q-20 0 -41 -7t-40.5 -18.5t-34.5 -27t-23 -32.5q39 -12 33 -44q-8 -48 -64 -48q-68 0 -57 67q6 31 27.5 60t51.5 51.5t65 36.5t67 14q23 0 43 -9t34 -24t23 -34t10 -38q80 101 161 101q38 0 58 -28t12 -74q-8 -49 -51 -88q40 -55 31 -107z
M616 372q5 26 -28 40q-32 -30 -59 -30q-46 0 -36 57q4 22 21 36.5t36 14.5q25 0 39 -18q38 17 43 48q8 47 -47 47q-22 0 -49 -12t-51.5 -30.5t-43 -40t-21.5 -40.5q-4 -23 3.5 -45.5t23 -41.5t37 -30.5t45.5 -11.5q32 0 57.5 16.5t29.5 40.5zM326 248q3 17 -2.5 39t0.5 55
q1 7 4 15h-4q-22 -22 -55 -39.5t-63 -31.5t-52 -26.5t-24 -24.5q-3 -18 19.5 -32t67.5 -14q19 0 38 5t34 13t25 19t12 22z" />
    <glyph glyph-name="ny_jo_bn" horiz-adv-x="659" 
d="M650 231q-96 -57 -122 -204q-12 -67 -8 -164l-29 25q-3 63 -1.5 111t7.5 82q19 111 76 176q-144 0 -165 175q-31 -26 -61.5 -52.5t-56 -51t-42 -44t-18.5 -30.5q-4 -27 27 -27q55 0 142 62q80 -62 65 -147q-6 -32 -23 -60t-41 -49t-53.5 -33t-60.5 -12q-57 0 -99.5 30.5
t-67 85.5t-30 132t10.5 170l25 -22q-17 -152 25 -231.5t142 -79.5q22 0 45.5 7t43.5 19t34.5 28.5t17.5 35.5q6 31 -23 52q-78 -49 -125 -49q-21 0 -40 13t-32.5 32.5t-20 42t-2.5 41.5q2 14 8 26.5t20 27.5t37.5 35t60.5 48q100 76 106 108q7 40 -53 40q-20 0 -41.5 -7
t-41 -18.5t-34.5 -27t-23 -32.5q40 -12 34 -44q-8 -48 -64 -48q-69 0 -58 67q6 31 27.5 60t52 51.5t65 36.5t66.5 14q19 0 38 -8t33.5 -21.5t24 -30.5t10.5 -35q82 95 154 95q38 0 58 -27.5t12 -75.5q-9 -47 -51 -87q41 -55 31 -108q-8 -45 -46 -61zM635 376q4 25 -28 40
q-32 -30 -59 -30q-46 0 -36 57q3 22 20.5 36.5t37.5 14.5q24 0 37 -18q39 16 45 47q8 48 -47 48q-22 0 -49 -12t-52 -30.5t-43 -40t-22 -40.5q-4 -23 3.5 -46t23 -41.5t37 -30.5t46.5 -12q31 0 56 16.5t30 41.5z" />
    <glyph glyph-name="ny_jho_bn" horiz-adv-x="766" 
d="M440 -137l-20 24q-2 21 -21 47t-47 49t-62.5 39.5t-65.5 18.5l-36 65q91 56 268 120q-21 19 -63 19l-79 -6q-33 -4 -53.5 -5.5t-28.5 -1.5q-35 0 -62.5 12t-46 34t-25 52.5t0.5 67.5q10 56 32 94l18 -20q-13 -24 -19 -60q-8 -48 23 -78t101 -30q17 0 41.5 1t56.5 1
q59 0 108 -57l56 316q5 29 -21 29q-14 0 -40.5 -15t-54 -36.5t-49 -44t-23.5 -37.5q-3 -14 12 -18q16 22 44 22q18 0 29 -16.5t7 -36.5q-4 -25 -30 -43.5t-60 -18.5q-43 0 -61.5 28t-10.5 71q5 32 31 65.5t61 61.5t72 45.5t64 17.5l14 -5q33 -17 49.5 -38t12.5 -45l-10 -56
h3q15 27 35.5 50t43.5 40.5t46.5 27t43.5 9.5q37 0 55 -28.5t10 -76.5q-11 -63 -55 -103q39 -59 30 -109q-3 -17 -13 -31t-24 -25t-30.5 -17t-33.5 -6l-53 -304l-21 21q-19 128 -107 158zM651 288q68 0 78 56q5 28 -22 45q-25 -25 -48 -25q-21 0 -34.5 16.5t-9.5 44.5
q4 22 21.5 37.5t37.5 15.5q23 0 37 -20q17 7 34.5 24t20.5 29q3 21 -11.5 35.5t-38.5 14.5q-21 0 -49.5 -13.5t-56 -34t-47.5 -43.5t-23 -41q-3 -19 5.5 -43.5t25 -46t37.5 -36.5t43 -15zM583 51l33 186q-59 25 -85 124h-3l-36 -206q9 -5 22 -17.5t26 -28t23.5 -31.5
t14.5 -27h5zM410 -35l35 196q-66 -22 -171 -74q12 -5 31.5 -19t39.5 -32t37 -37t25 -34h3z" />
    <glyph glyph-name="tt_tto_bn" horiz-adv-x="498" 
d="M527 622h45l37 -45h-364l-59 -337q-4 -24 -0.5 -43.5t10.5 -33.5t14.5 -22t11.5 -8q27 0 60.5 22.5t63 53.5t51 62.5t24.5 49.5q3 14 0 23q-9 -5 -22 -5q-67 0 -55 67q5 30 30 50t58 20q42 0 62 -34.5t10 -92.5q-17 -95 -107 -182q42 -44 31 -105q-11 -66 -63 -104.5
t-125 -38.5q-49 0 -89 23t-68 63.5t-42.5 97t-12.5 123.5l28 -10q9 -225 184 -225q28 0 55.5 7.5t49 20.5t36 30t17.5 36q8 42 -32 53q-96 -71 -145 -71q-36 0 -77 94q-15 34 -8 73l60 343h-105l-37 45h415q26 12 30 34q9 50 -83 50q-42 0 -71.5 -2t-53.5 -2
q-29 0 -57.5 7.5t-49.5 24t-32 42.5t-5 62q7 39 33 62l23 -17q-21 -18 -26 -44q-12 -68 85 -68q14 0 25.5 1t24.5 2.5t30 2.5t43 1q165 0 142 -156z" />
    <glyph glyph-name="tt_bo_bn" horiz-adv-x="498" 
d="M180 -143l31 177q-88 -30 -165 -72q16 -5 36 -16.5t39 -26t34.5 -31t22.5 -31.5h2zM527 622h46l36 -45h-364l-64 -367q-5 -24 -1.5 -44t10.5 -34.5t14.5 -22t11.5 -7.5q27 0 61 23t63.5 54t51 62.5t24.5 48.5q2 15 0 24q-11 -5 -22 -5q-67 0 -55 67q5 29 30 49t58 20
q42 0 62 -33.5t10 -93.5q-7 -36 -27 -73t-50.5 -72.5t-71.5 -67.5t-87 -56l-52 -298l-22 23q-1 27 -20 52.5t-48 46t-64 32.5t-66 12l-35 57q59 34 112.5 59.5t101.5 43.5q-7 9 -16 21t-15.5 27.5t-9.5 35t1 43.5l66 373h-105l-37 45h415q26 12 30 34q9 50 -83 50
q-42 0 -71.5 -2t-53.5 -2q-29 0 -57.5 7.5t-49.5 24t-32 42.5t-5 62q7 39 33 62l23 -17q-21 -18 -26 -44q-12 -68 85 -68q14 0 25.5 1t24.5 2.5t30 2.5t43 1q165 0 142 -156z" />
    <glyph glyph-name="tt_mo_bn" horiz-adv-x="597" 
d="M476 2l101 575h-355l-56 -318q-3 -17 0 -35.5t8 -34.5t12.5 -26.5t15.5 -10.5q27 0 60.5 22.5t63 53.5t51 62.5t24.5 49.5q3 14 1 23q-9 -5 -22 -5q-67 0 -56 67q6 30 31 50t58 20q42 0 62 -34.5t9 -92.5q-7 -48 -34.5 -92.5t-72.5 -89.5l-29 -29q40 -36 47 -74
q9 -3 20.5 -12t23 -20.5t21.5 -24.5t14 -24h2zM508 622h164l36 -45h-82l-126 -714l-19 22q15 139 -95 139q-6 -35 -35.5 -58t-67.5 -23q-31 0 -48.5 23t-12.5 55q6 32 32.5 53.5t57.5 21.5q19 0 22 -1q-2 21 -17 41q-73 -50 -115 -50q-36 0 -78 94q-15 34 -8 73l57 324h-82
l-37 45h396q26 12 30 34q9 50 -83 50q-21 0 -35.5 -0.5t-26.5 -1.5t-22 -1.5t-22 -0.5q-29 0 -57.5 7.5t-49.5 24t-32 42.5t-5 62q7 39 33 62l23 -17q-21 -18 -26 -44q-12 -68 85 -68q26 0 49.5 3.5t54.5 3.5q165 0 142 -156z" />
    <glyph glyph-name="tt_ro_bn" horiz-adv-x="497" 
d="M527 622h48l33 -45h-363l-59 -337q-4 -24 -0.5 -43.5t10 -33.5t14 -22t11.5 -8q28 0 61.5 22.5t63 53.5t50.5 62.5t24 49.5q2 12 1 23q-11 -5 -22 -5q-67 0 -55 67q5 30 30 50t58 20q42 0 61.5 -34.5t9.5 -92.5q-16 -92 -100 -176l-56 -319l-23 24q1 18 -2 32.5t-13 24.5
t-28.5 15.5t-48.5 5.5q-4 0 -19 -2t-32 -4t-31.5 -4t-19.5 -2q-35 0 -61 11t-42.5 31.5t-22.5 48t-1 60.5q9 48 36 83l17 -19q-9 -22 -14.5 -36t-7.5 -22q-6 -36 11.5 -60.5t52.5 -24.5q5 0 34 0.5t83 0.5q45 0 69.5 -14t42.5 -53h3l32 183q-93 -66 -142 -66q-17 0 -37 23
t-40 71q-14 34 -7 73l60 343h-105l-37 45h415q26 12 30 34q9 50 -83 50q-42 0 -71.5 -2t-53.5 -2q-29 0 -57.5 7.5t-49.5 24t-32 42.5t-5 62q7 39 33 62l23 -17q-21 -18 -26 -44q-12 -68 85 -68q14 0 25.5 1t24.5 2.5t30 2.5t43 1q165 0 142 -156z" />
    <glyph glyph-name="tt_ro_alt_bn" horiz-adv-x="497" 
d="M527 622h48l33 -45h-363l-59 -337q-4 -24 -0.5 -43.5t10 -33.5t14 -22t11.5 -8q28 0 61.5 22.5t63 53.5t50.5 62.5t24 49.5q2 12 1 23q-11 -5 -22 -5q-67 0 -55 67q5 30 30 50t58 20q42 0 61.5 -34.5t9.5 -92.5q-16 -92 -100 -176l-64 -363l-11 24q1 36 -6 59.5t-21 37
t-35.5 19t-51.5 5.5q-11 0 -31 -1.5t-43 -4t-45.5 -4t-39.5 -1.5q-54 0 -92.5 14t-61.5 39.5t-31.5 61t-0.5 78.5q6 34 21 64l19 -17q-2 -6 -4 -15t-4 -21q-23 -127 162 -127l36 2q24 2 40 3.5t24 0.5q126 0 168 -70l31 176q-93 -66 -142 -66q-17 0 -37 23t-40 71
q-14 34 -7 73l60 343h-105l-37 45h415q26 12 30 34q9 50 -83 50q-42 0 -71.5 -2t-53.5 -2q-29 0 -57.5 7.5t-49.5 24t-32 42.5t-5 62q7 39 33 62l23 -17q-21 -18 -26 -44q-12 -68 85 -68q14 0 25.5 1t24.5 2.5t30 2.5t43 1q165 0 142 -156z" />
    <glyph glyph-name="tth_ro_bn" horiz-adv-x="469" 
d="M412 294q5 25 4.5 54.5t-4.5 59t-12 55.5t-20 45l-2 -3q-1 -10 -2 -18.5t-2 -14.5q-8 -44 -30.5 -88t-54.5 -83t-73 -70t-86 -49q-9 -15 -13 -37q-6 -33 16 -58.5t65 -25.5q34 0 69 18.5t64.5 50.5t51 74t29.5 90zM352 74q-34 -25 -69.5 -38.5t-72.5 -13.5t-67 13t-50 36
t-28.5 54t-2.5 67q5 24 15 47q40 11 81.5 38.5t77.5 64t61.5 78.5t32.5 83q6 35 -4 74h-235l-37 45h258q-86 167 -73 245q14 75 77 99l47 -35q-76 -31 -86 -89q-3 -18 -1 -36.5t11.5 -43t27 -58t45.5 -82.5h186l34 -45h-198q103 -172 77 -318q-7 -41 -24 -78t-42 -67
l-54 -302l-22 24q1 18 -2 32.5t-13.5 24.5t-29 15.5t-48.5 5.5q-4 0 -18.5 -2t-31.5 -4t-32 -4t-20 -2q-35 0 -61 11t-42.5 31.5t-22 48t0.5 60.5q7 48 34 83l17 -19q-9 -22 -14.5 -36t-6.5 -22q-6 -36 11.5 -60.5t52.5 -24.5q5 0 34 0.5t83 0.5q45 0 69 -14t42 -53h3z" />
    <glyph glyph-name="dd_ddo_bn" horiz-adv-x="961" 
d="M1072 577h-327l-39 -222q-4 -21 18 -21q59 0 173 133q80 -61 57 -191q-8 -47 -29.5 -86.5t-52 -68.5t-69.5 -45.5t-82 -16.5q-158 0 -197 203h-3q-9 -32 -28 -58t-44 -45.5t-54.5 -30t-57.5 -10.5q-109 0 -165 109.5t-47 317.5l27 -17q3 -161 52 -242.5t134 -81.5
q29 0 57.5 10t52 27.5t39.5 41t21 50.5q7 38 -13 70q-91 -91 -155 -91q-13 0 -25 9t-20 23.5t-11.5 33t-0.5 36.5l29 163h-221l-36 45h982zM923 292q9 53 -14 76q-115 -106 -189 -106q-13 0 -25.5 9.5t-21.5 24.5t-13 33.5t-1 36.5l37 211h-336l-30 -174q-5 -25 13 -25
q10 0 26 8.5t35 23.5t40.5 36t40.5 46q51 -39 54 -119q32 -229 183 -229q34 0 67.5 12.5t62 33.5t47.5 47.5t24 54.5z" />
    <glyph glyph-name="dd_ro_bn" horiz-adv-x="630" 
d="M475 -156l-28 24q2 19 -1 34.5t-13.5 26t-30.5 16t-51 5.5l-160 -15q-32 0 -58.5 13.5t-44 37t-25 53.5t-2.5 63l18 49l20 -11q-2 -5 -8 -39q-3 -19 4 -36t20.5 -30t33.5 -20.5t43 -7.5q20 0 38.5 0.5t34.5 1.5l70 2q74 0 113 -68l4 2l27 155q-51 -22 -102 -22
q-266 0 -252 469l27 -18q16 -366 228 -366q35 0 71.5 14t67 37t52 51.5t26.5 57.5q8 43 -18 66q-130 -116 -200 -116q-14 0 -26.5 9.5t-21 24.5t-12.5 34t-1 37l35 199h-262l-36 45h651l35 -45h-339l-37 -211q-4 -21 18 -21q58 0 183 143q84 -62 63 -181q-20 -112 -104 -181
z" />
    <glyph glyph-name="ddh_ro_bn" horiz-adv-x="491" 
d="M602 577h-380l-59 -337q-4 -24 -0.5 -43.5t10 -33.5t14 -22t11.5 -8q28 0 61.5 22.5t63 53.5t50.5 62.5t24 49.5q2 12 1 23q-11 -5 -22 -5q-67 0 -55 67q5 30 30 50t58 20q42 0 61.5 -34.5t9.5 -92.5q-16 -92 -100 -176l-56 -319l-23 24q1 18 -2 32.5t-13 24.5
t-28.5 15.5t-48.5 5.5q-4 0 -19 -2t-32 -4t-31.5 -4t-19.5 -2q-35 0 -61 11t-42 31.5t-22.5 48t-0.5 60.5q9 48 35 83l17 -19q-9 -22 -14.5 -36t-7.5 -22q-6 -36 11.5 -60.5t52.5 -24.5q5 0 34 0.5t83 0.5q45 0 69.5 -14t42.5 -53h3l32 183q-93 -66 -142 -66q-17 0 -37 23
t-40 71q-14 34 -7 73l60 343h-82l-37 45h515z" />
    <glyph glyph-name="nn_tto_bn" horiz-adv-x="786" 
d="M897 577h-364l-64 -367q-5 -24 -1.5 -44t10.5 -34.5t14.5 -22t11.5 -7.5q27 0 61 23t63.5 54t51 62.5t24.5 48.5q2 15 0 24q-11 -5 -22 -5q-67 0 -55 67q5 29 30 49t58 20q42 0 62 -33.5t10 -93.5q-6 -31 -23 -63.5t-41.5 -63.5t-53.5 -59t-59 -49t-57.5 -33.5
t-48.5 -12.5q-36 0 -77 94q-15 34 -9 73l33 185l-8 22q-55 144 -138 144q-24 0 -45.5 -9t-39.5 -25.5t-30.5 -39.5t-17.5 -50q-11 -65 39 -74q-5 23 -2 40q4 23 24 40.5t47 17.5t41 -22t9 -52q-15 -85 -104 -85q-33 0 -58 11t-40.5 30t-21 45.5t-0.5 57.5q7 40 25 74.5
t44 59.5t57.5 39t65.5 14q90 0 151 -163l11 -27l26 149l-29 36h305q25 12 29 34q9 50 -83 50q-7 0 -27 -0.5t-42 -1.5t-39.5 -1.5t-19.5 -0.5q-109 0 -156.5 32t-35.5 104q7 39 33 62l23 -17q-21 -18 -26 -44q-12 -68 106 -68q5 0 23.5 1t39.5 2.5t40 2.5t25 1
q190 0 167 -156h45z" />
    <glyph glyph-name="nn_ttho_bn" horiz-adv-x="524" 
d="M635 577h-182q18 -30 32 -71t22.5 -85t10.5 -86.5t-4 -75.5q-9 -54 -33.5 -97.5t-58.5 -74.5t-74 -48t-82 -17q-35 0 -63 13t-46.5 35t-26.5 51.5t-2 63.5q4 24 14 47q32 7 69.5 33t71.5 60.5t59 72t32 67.5q-10 46 -39.5 74t-67.5 28q-32 0 -58 -25t-33 -64
q-12 -64 32 -64q2 0 13 2q-10 23 -7 39q7 39 52 39q18 0 30.5 -16t8.5 -40q-3 -15 -13 -27.5t-24.5 -22t-30.5 -15t-31 -5.5q-23 0 -41.5 9.5t-31 26.5t-17.5 40t0 50q4 26 17.5 50.5t34 43t47.5 29.5t59 11q16 0 33.5 -13.5t33.5 -33t28 -41.5t18 -40h3q14 81 -12 134
q-79 158 -66 233q14 75 77 99l46 -35q-75 -32 -85 -89q-3 -18 -1 -36.5t11.5 -43t27 -58t45.5 -82.5h167zM466 294q5 27 5 59.5t-4 64t-12 59t-17 45.5l-2 -1q0 -10 -2 -22t-4 -27q-8 -45 -30.5 -90t-54 -85t-70.5 -72t-79 -49q-9 -15 -13 -38q-6 -34 12.5 -55.5t56.5 -21.5
q35 0 70 18.5t64 50.5t50.5 74t29.5 90z" />
    <glyph glyph-name="nn_ddo_bn" horiz-adv-x="710" 
d="M720 373q-5 -30 -24 -57.5t-40 -38.5q21 -44 13 -88q-6 -33 -22.5 -60.5t-42 -48t-58.5 -32t-72 -11.5q-254 0 -343 545l36 -22q83 -438 313 -438q63 0 104.5 27.5t47.5 65.5q6 30 0 47q-23 -22 -63 -22q-31 0 -49 20.5t-13 50.5q12 66 78 66q33 0 52 -23q34 19 41 58
q6 32 -13 72l-29 59q-17 -39 -37.5 -75t-30.5 -61l-14 13q-31 136 -125 136q-18 0 -37 -7t-34 -19t-26 -28.5t-15 -36.5q-4 -27 6 -44.5t27 -17.5q7 0 12 3q-10 12 -6 32q9 54 59 54q24 0 38 -18t9 -48q-14 -76 -105 -76q-55 0 -82 38.5t-17 98.5q5 29 20.5 54t38.5 43
t51 28t59 10q23 0 41 -9.5t32.5 -25t26 -35.5t22.5 -41q17 25 31 57t27 71l17 -14q8 -25 21 -51.5t32 -56.5q53 -87 43 -144z" />
    <glyph glyph-name="nn_dd_ro_bn" horiz-adv-x="710" 
d="M543 47q-31 -10 -69 -10q-254 0 -343 545l36 -22q83 -438 313 -438q63 0 104.5 27.5t47.5 65.5q6 30 0 47q-23 -22 -63 -22q-31 0 -49 20.5t-13 50.5q12 66 78 66q33 0 52 -23q34 19 41 58q6 32 -13 72l-29 59q-17 -39 -37.5 -75t-30.5 -61l-14 13q-31 136 -125 136
q-18 0 -37 -7t-34 -19t-26 -28.5t-15 -36.5q-4 -27 6 -44.5t27 -17.5q7 0 12 3q-10 12 -6 32q9 54 59 54q24 0 38 -18t9 -48q-14 -76 -105 -76q-55 0 -82 38.5t-17 98.5q5 29 20.5 54t38.5 43t51 28t59 10q23 0 41 -9.5t32.5 -25t26 -35.5t22.5 -41q17 25 31 57t27 71
l17 -14q8 -25 21 -51.5t32 -56.5q53 -87 43 -144q-5 -30 -24 -57.5t-40 -38.5q21 -44 13 -88q-7 -36 -28 -69.5t-52 -50.5l-43 -241l-27 25q0 19 -3.5 34.5t-13.5 26t-29.5 16t-50.5 5.5l-207 -15q-32 0 -58.5 13.5t-44.5 36.5t-25 53.5t-1 63.5l17 49l21 -11q-4 -10 -9 -39
q-4 -20 3 -37t21.5 -29.5t34 -20t42.5 -7.5q41 0 85.5 2t104.5 2q75 0 114 -69l2 3z" />
    <glyph glyph-name="nn_ddho_bn" horiz-adv-x="786" 
d="M864 622l33 -45h-364l-64 -367q-5 -24 -1.5 -44t10.5 -34.5t14.5 -22t11.5 -7.5q27 0 61 23t63.5 54t51 62.5t24.5 48.5q2 15 0 24q-11 -5 -22 -5q-67 0 -55 67q5 29 30 49t58 20q42 0 62 -33.5t10 -93.5q-6 -31 -23 -63.5t-41.5 -63.5t-53.5 -59t-59 -49t-57.5 -33.5
t-48.5 -12.5q-36 0 -77 94q-15 34 -9 73l33 185l-8 22q-55 144 -138 144q-24 0 -45.5 -9t-39.5 -25.5t-30.5 -39.5t-17.5 -50q-11 -65 39 -74q-5 23 -2 40q4 23 24 40.5t47 17.5t41 -22t9 -52q-15 -85 -104 -85q-33 0 -58 11t-40.5 30t-21 45.5t-0.5 57.5q7 40 25 74.5
t44 59.5t57.5 39t65.5 14q90 0 151 -163l11 -27l26 149l-29 36h407z" />
    <glyph glyph-name="nn_nno_bn" horiz-adv-x="483" 
d="M594 577h-64q-32 0 -36 13h-2l-114 -646l-18 19q4 74 -2.5 127t-22 87.5t-38.5 51t-51 16.5q-45 0 -79.5 -28.5t-43.5 -76.5q-13 -75 39 -75q-8 17 -4 39q4 23 23.5 39t40.5 16q24 0 38.5 -21t9.5 -50q-6 -33 -33.5 -54.5t-72.5 -21.5q-25 0 -46.5 10.5t-35.5 29
t-20 43.5t-1 55t21 59t40 51.5t54 36.5t63 14q79 0 128 -135h3l42 242q-6 28 -18 53.5t-27.5 44t-34 29.5t-37.5 11q-23 0 -44 -9t-37.5 -24t-28 -35.5t-15.5 -44.5q-14 -76 39 -76q-6 28 -4 39q4 25 23.5 40t40.5 15q25 0 39.5 -20.5t8.5 -50.5q-6 -35 -36 -55t-69 -20
q-27 0 -48.5 10.5t-36 28.5t-19.5 43.5t0 55.5q7 35 24.5 66t42.5 54t54 36t59 13q94 0 130 -155h3l46 260l23 -28q-6 -34 8.5 -55.5t59.5 -21.5z" />
    <glyph glyph-name="nn_bo_bn" horiz-adv-x="539" 
d="M650 577h-64q-32 0 -36 13h-2l-116 -658l-18 23q-1 21 -17.5 49t-45 54.5t-68 45.5t-86.5 22l-31 55q149 93 289 162l4 25l-16 43q-55 144 -138 144q-24 0 -45.5 -9t-39.5 -25.5t-30.5 -39.5t-17.5 -50q-11 -65 39 -74q-5 23 -2 40q4 23 24 40.5t47 17.5t41 -22t9 -52
q-15 -85 -104 -85q-33 0 -58 11t-40.5 30t-21 45.5t-0.5 57.5q7 40 25 74.5t44 59.5t57.5 39t65.5 14q90 0 151 -163l19 -49l3 2l55 310l20 -28q-6 -34 8.5 -55.5t59.5 -21.5zM402 43l40 227q-86 -38 -180 -100q85 -31 138 -127h2z" />
    <glyph glyph-name="nn_mo_bn" horiz-adv-x="705" 
d="M816 577h-105l-111 -633l-21 22q1 40 -10 73t-27.5 56t-36 36t-37.5 14q-3 -18 -13 -32.5t-24.5 -25t-31.5 -16t-34 -5.5q-37 0 -58.5 23t-14.5 60q6 38 36 65.5t75 27.5q12 0 33 -8l23 134l-16 43q-55 144 -138 144q-24 0 -45.5 -9t-39.5 -25.5t-30.5 -39.5t-17.5 -50
q-11 -65 39 -74q-5 23 -2 40q4 23 24 40.5t47 17.5t41 -22t9 -52q-15 -85 -104 -85q-33 0 -58 11t-40.5 30t-21 45.5t-0.5 57.5q7 40 25 74.5t44 59.5t57.5 39t65.5 14q90 0 151 -163l19 -49l55 312l23 -28q-6 -34 9 -55.5t43 -21.5h182zM576 90l86 487h-76q-32 0 -36 13h-2
l-66 -374q56 -34 92 -126h2z" />
    <glyph glyph-name="nn_ro_bn" horiz-adv-x="516" 
d="M459 368l-16 43q-55 144 -138 144q-24 0 -45.5 -9t-39.5 -25.5t-30.5 -39.5t-17.5 -50q-11 -65 39 -74q-5 23 -2 40q4 23 24 40.5t47 17.5t41 -22t9 -52q-15 -85 -104 -85q-33 0 -58 11t-40.5 30t-21 45.5t-0.5 57.5q7 40 25 74.5t44 59.5t57.5 39t65.5 14q90 0 151 -163
l19 -49l55 312l23 -28q-6 -34 9 -55.5t36 -21.5l36 -45h-41q-32 0 -36 13h-2l-115 -651l-21 24q0 24 -3 44t-12.5 34.5t-27 22t-47.5 7.5q-4 0 -11 -0.5t-18 -1.5l-58 -5q-37 -3 -44 -3q-41 0 -72 13.5t-51.5 39t-27.5 62.5t2 85q7 41 26 76l21 -14q-7 -17 -11 -30t-6 -23
q-24 -138 124 -138q5 0 15 1.5t23.5 3.5t27 3.5t24.5 2.5q17 0 32 -1.5t30 -8.5t29.5 -21t29.5 -39z" />
    <glyph glyph-name="t_to_bn" horiz-adv-x="691" 
d="M658 331q-13 -31 -33 -55q11 -9 19 -23.5t13.5 -30t7 -32t-0.5 -30.5q-6 -32 -22.5 -60t-42 -48.5t-58.5 -32.5t-72 -12q-255 0 -343 546l36 -22q83 -438 313 -438q63 0 104.5 27.5t47.5 64.5q8 43 -26 64q-27 -27 -66 -27q-28 0 -46 20t-13 52q6 32 29 53t56 21
q34 0 41 -19q40 47 47 85q5 27 -12 44t-49 17q-28 0 -60 -9t-62 -23.5t-53 -32.5t-32 -35q54 -11 45 -64q-5 -28 -28.5 -47t-51.5 -19q-15 0 -28.5 7t-23.5 20t-14 30t0 37q6 36 33 69t66.5 58t86 39.5t93.5 14.5q143 0 117 -146q-6 -32 -18 -63zM802 577h-711l-37 45h711z
" />
    <glyph glyph-name="t_t_bo_bn" horiz-adv-x="612" 
d="M723 577h-632l-37 45h632zM595 221q-12 -68 -60 -94l-45 -256q-12 7 -17.5 15.5t-9.5 18.5t-9.5 21t-16.5 23q-55 56 -138 56h-15l-32 58q78 40 110 52v2q-43 7 -81 42t-69.5 92t-53.5 133t-33 166l37 -21q27 -168 98 -259.5t176 -91.5q52 0 88.5 19.5t41.5 50.5
q6 32 -21 46q-24 -27 -57 -27q-24 0 -38 19t-9 46q4 25 27 45.5t48 20.5q20 0 33 -16q33 41 39 76q8 42 -42 42q-26 0 -56 -8t-57.5 -20.5t-48 -27.5t-27.5 -29q47 -9 39 -55q-5 -27 -26.5 -43.5t-42.5 -16.5q-31 0 -48.5 22t-9.5 64q5 33 29.5 62t59 50.5t76.5 34t84 12.5
q58 0 83.5 -33.5t15.5 -91.5q-12 -66 -49 -100q39 -33 27 -99zM464 -41l27 151q-63 -17 -149 -58q63 -19 122 -93z" />
    <glyph glyph-name="t_tho_bn" horiz-adv-x="617" 
d="M728 577h-40q-32 0 -36 13h-3l-109 -617l-18 20q1 22 -3 40t-14 36.5t-27.5 38.5t-45.5 45q-90 81 -205 81l-67 106q10 -2 20 -3t20 -1q48 0 95 13t85.5 34.5t64.5 49.5t31 57q8 48 -25 81q-4 -8 -14.5 -17t-24.5 -24t-30 -37.5t-31 -55.5l-11 8q-2 60 -24 93.5t-51 33.5
q-68 0 -81 -74q23 10 34 10q21 0 31 -17.5t6 -41.5q-10 -55 -70 -55q-37 0 -57 29.5t-10 81.5q4 28 17.5 51.5t31.5 40.5t40 26.5t45 9.5q15 0 26 -3t20.5 -12t20 -26t24.5 -45q25 29 40 45t24.5 25.5l16 16t14.5 17.5l12 -8q2 -7 14.5 -29t26 -50t22.5 -58t6 -52
q-20 -112 -198 -171v-2q26 -9 54 -27t53.5 -41.5t46.5 -51t36 -55.5h3l110 621l23 -28q-3 -17 0.5 -31t10.5 -24.5t16 -16t18 -5.5z" />
    <glyph glyph-name="t_no_bn" horiz-adv-x="622" 
d="M733 577h-642l-37 45h642zM624 328q-13 -78 -70 -134l-56 -316l-21 21q0 36 -12.5 63t-32 45.5t-42 27.5t-40.5 9q-9 0 -18 -5q20 -23 14 -57q-4 -27 -27 -45.5t-49 -18.5q-33 0 -52 22.5t-13 58.5q7 40 41 68.5t82 28.5q90 0 145 -103h3l30 166q-36 -28 -96 -28
q-226 0 -284 424l37 -21q56 -318 247 -318q35 0 66 10t55.5 28t41 43t21.5 54q10 55 -12.5 90t-67.5 35q-17 0 -30 -11q18 -25 13 -55q-7 -38 -36 -63.5t-62 -25.5q-39 0 -59 27t-12 72q9 51 49 84t104 33q39 0 69.5 -16t49 -44.5t25.5 -66.5t-1 -82z" />
    <glyph glyph-name="t_bo_bn" horiz-adv-x="622" 
d="M733 577h-642l-37 45h642zM625 329q-14 -78 -71 -134l-54 -305l-22 15q-1 27 -20.5 50.5t-48 41.5t-61.5 28t-63 10h-14l-32 60q30 17 54.5 28.5t44.5 20.5q-165 63 -211 412l36 -20q56 -319 247 -319q35 0 66 10t56 28t41 43t22 55q5 27 1 49.5t-14.5 39t-27.5 26
t-39 9.5q-17 0 -30 -11q17 -25 12 -55q-7 -38 -36 -63.5t-62 -25.5q-39 0 -59 27t-12 72q9 51 49 84t104 33q39 0 69.5 -16t49.5 -44.5t25.5 -66.5t-0.5 -82zM473 -23l32 179q-80 -22 -165 -73q64 -18 133 -106z" />
    <glyph glyph-name="t_lo_bn" horiz-adv-x="622" 
d="M733 577h-642l-37 45h642zM506 159q-36 -28 -96 -28q-226 0 -284 424l37 -21q56 -318 247 -318q35 0 66 10t55.5 28t41 43t21.5 54q10 55 -12.5 90t-67.5 35q-17 0 -30 -11q18 -25 13 -55q-7 -38 -36 -63.5t-62 -25.5q-39 0 -59 27t-12 72q9 51 49 84t104 33
q39 0 69.5 -16t49 -44.5t25.5 -66.5t-1 -82q-13 -78 -70 -134l-69 -391l-12 22q1 36 -2.5 72.5t-11.5 66t-20 48.5t-30 19t-34 -19.5t-19 -38.5q-3 -13 -2 -43l-20 11q-35 84 -108 84q-18 0 -35 -6.5t-31 -17t-23.5 -23.5t-11.5 -27q-4 -22 9 -41t37 -22q-9 16 -6 37
q8 46 57 46q17 0 28.5 -14.5t8.5 -35.5q-10 -57 -86 -57q-48 0 -71 32.5t-14 83.5q4 23 16.5 44.5t30.5 37.5t42 25.5t50 9.5q46 0 88 -66q42 66 80 66q42 0 80 -99h2z" />
    <glyph glyph-name="t_mo_bn" horiz-adv-x="697" 
d="M808 577h-82l-117 -667l-22 22q1 40 -7 68.5t-22 46t-32.5 26t-38.5 9.5q-6 -36 -35 -59t-67 -23q-31 0 -49 23t-13 55q3 14 10.5 27.5t19.5 24.5t27.5 17.5t33.5 6.5q19 0 21 -1q8 45 -30 59q-19 -5 -38 -5q-175 0 -239 357l35 -22q59 -249 216 -249q54 0 93.5 28
t47.5 73q4 21 1 38.5t-10 31t-18 21t-22 7.5q-18 0 -26 -9q15 -20 9 -54q-5 -29 -28.5 -48t-53.5 -19q-32 0 -48.5 24.5t-10.5 61.5q17 96 125 96q30 0 54 -12.5t39 -35t20.5 -54t-1.5 -69.5q-18 -103 -104 -146q25 -12 39.5 -38.5t10.5 -48.5q47 -16 85 -91h3l93 528h-586
l-37 45h717z" />
    <glyph glyph-name="t_ro_bn" horiz-adv-x="581" 
d="M692 577h-601l-37 45h601zM498 -61l-21 24q0 24 -3 44t-12.5 34.5t-27 22t-47.5 7.5q-7 0 -29 -1.5t-46.5 -3.5t-46.5 -3.5t-29 -1.5q-94 0 -136 52t-25 148q9 53 40 101l16 -20q-21 -46 -26 -72q-24 -137 133 -137q3 0 17.5 1.5t32.5 3.5t32.5 3.5t16.5 1.5
q29 0 48 -2.5t33.5 -10t26.5 -21.5t27 -36l66 374q9 47 -21 47q-16 0 -44.5 -15.5t-57 -38t-50.5 -48t-25 -44.5q-2 -9 2 -19q26 17 44 17q27 0 40.5 -16t8.5 -41q-5 -29 -32.5 -51t-65.5 -22q-46 0 -70.5 31t-16.5 79q6 36 35 75t68 71.5t81.5 53.5t77.5 21q18 0 33 -10
t25 -25t15 -31.5t3 -29.5z" />
    <glyph glyph-name="th_bo_bn" horiz-adv-x="529" 
d="M640 577h-41q-32 0 -36 13h-2l-124 -700l-17 25q-4 29 -21.5 55t-45 46t-63.5 33t-77 16l-29 55q56 31 108.5 57t104.5 44q-18 15 -49.5 29t-66 25t-68.5 17.5t-56 6.5l-51 80q22 -3 41 -3q34 0 75 12.5t78 32t63.5 44t30.5 47.5q6 36 -13.5 59t-57.5 23q-71 0 -108 -52
q17 -3 25.5 -19.5t5.5 -34.5q-5 -27 -27.5 -44t-48.5 -17t-42 22t-11 51q5 30 23 56.5t44 47t57 32t61 11.5q32 0 58.5 -12.5t44.5 -33t25.5 -47.5t2.5 -57q-20 -115 -164 -157v-2q89 -29 163 -104l18 6l86 487l23 -28q-6 -34 9 -55.5t36 -21.5zM409 0l31 178
q-92 -30 -161 -69q76 -29 130 -109z" />
    <glyph glyph-name="th_ro_bn" horiz-adv-x="567" 
d="M575 727l23 -28q-6 -34 8.5 -55.5t35.5 -21.5l36 -45h-40q-32 0 -36 13h-3l-123 -695l-23 24q2 19 -0.5 33.5t-13 24.5t-29 15.5t-49.5 5.5q-1 0 -27 -2t-57 -4.5t-57.5 -4.5t-27.5 -2q-35 0 -61 11.5t-42 31.5t-22 48t0 61q8 46 34 83l17 -20q-19 -46 -21 -57
q-7 -37 11 -61.5t53 -24.5q30 3 55.5 3h50.5q48 0 78.5 -1.5t50 -7t31 -15.5t21.5 -28l10 57q-10 19 -27.5 39.5t-48.5 48.5q-90 81 -204 81l-68 106q10 -2 20 -3t21 -1q46 0 91.5 15t83.5 39.5t63.5 56t30.5 63.5q6 32 -16.5 54.5t-65.5 22.5q-69 0 -118 -62q44 -8 34 -61
q-4 -26 -26.5 -45t-50.5 -19q-15 0 -28 6.5t-22 17.5t-13 26t0 33q5 30 24 58t47.5 49.5t64 35t74.5 13.5q34 0 61.5 -13.5t46.5 -36.5t27.5 -53t2.5 -64q-22 -124 -197 -184q136 -57 197 -182h3z" />
    <glyph glyph-name="th_lo_bn" horiz-adv-x="567" 
d="M575 727l23 -28q-6 -34 8.5 -55.5t35.5 -21.5l36 -45h-40q-32 0 -36 13h-3l-127 -717l-21 21q3 67 -15.5 102t-48.5 35q-42 0 -50 -46q-2 -13 -1 -36l-21 11q-35 84 -108 84q-18 0 -35 -6.5t-31 -17t-23 -23.5t-12 -27q-4 -22 9.5 -41t37.5 -22q-10 16 -6 37q8 46 57 46
q17 0 28.5 -14.5t7.5 -35.5q-10 -57 -85 -57q-48 0 -71 32.5t-14 83.5q4 23 16.5 44.5t31 37.5t41.5 25.5t49 9.5q49 0 92 -71q31 51 72 51t78 -77l8 47q-17 31 -48 61t-68.5 54t-79.5 38.5t-84 14.5l-68 106q10 -2 20 -3t21 -1q46 0 91.5 15t83.5 39.5t63.5 56t30.5 63.5
q6 32 -16.5 54.5t-65.5 22.5q-69 0 -118 -62q44 -8 34 -61q-4 -26 -26.5 -45t-50.5 -19q-15 0 -28 6.5t-22 17.5t-13 26t0 33q5 30 24 58t47.5 49.5t64 35t74.5 13.5q34 0 61.5 -13.5t46.5 -36.5t27.5 -53t2.5 -64q-22 -124 -197 -184q136 -57 197 -182h3z" />
    <glyph glyph-name="d_do_bn" horiz-adv-x="689" 
d="M800 577h-579l-42 -241h3q16 24 48 54t70.5 58.5t79.5 52.5t77 36q43 -28 66 -61q-38 -32 -65.5 -61.5t-45.5 -61.5t-30 -69.5t-21 -85.5h2q25 35 58.5 70.5t72 66t80 55.5t81.5 39q35 -18 69 -65q-112 -92 -139 -246q-6 -35 -8 -81.5t-1 -109.5l-26 17q-11 148 2 226
q18 102 60 163l-2 3q-176 -98 -234 -255q-15 13 -25.5 26t-19.5 27q-12 19 4 109q22 120 76 201l-3 3q-28 -14 -62 -42t-66.5 -61.5t-60.5 -70t-43 -67.5q-25 22 -40.5 46.5t-9.5 56.5l47 268h-82l-40 45h714z" />
    <glyph glyph-name="d_d_bo_bn" horiz-adv-x="689" 
d="M800 577h-579l-42 -241h3q16 24 48 54t70.5 58.5t79.5 52.5t77 36q43 -28 66 -61q-38 -32 -65.5 -61.5t-45.5 -61.5t-30 -69.5t-21 -85.5h2q25 35 58.5 70.5t72 66t80 55.5t81.5 39q35 -18 69 -65q-112 -92 -139 -246q-1 -7 -4 -29t-6 -50.5t-6 -60.5t-6 -60t-4.5 -48.5
t-1.5 -25.5l-18 10q-8 19 -25.5 34.5t-41 25.5t-50.5 15.5t-54 5.5l-31 58q113 78 210 117q2 22 3 36.5t2 23.5q18 102 60 163l-2 3q-176 -98 -234 -255q-15 13 -25.5 26t-19.5 27q-12 19 4 109q22 120 76 201l-3 3q-28 -14 -62 -42t-66.5 -61.5t-60.5 -70t-43 -67.5
q-25 22 -40.5 46.5t-9.5 56.5l47 268h-82l-40 45h713zM533 -87q-2 17 1.5 50.5t10.5 84.5q-57 -15 -131 -68q58 -8 116 -69z" />
    <glyph glyph-name="d_dho_bn" horiz-adv-x="667" 
d="M778 577h-557l-37 -211h3q18 26 48.5 52t65 47t70 34t63.5 13q10 0 25.5 -13t29 -32t23 -39t7.5 -34l-4 -24q77 37 97 37q6 0 12.5 -8t14 -19.5t15.5 -24t16 -22.5q-15 -52 -26.5 -97.5t-18.5 -82.5q-21 -122 -6 -174l-4 -24q-17 15 -46 51q-19 23 2 144q19 110 47 182
q-2 10 -9 10q-25 0 -107 -44l-63 -359l-19 20q0 22 -16.5 51t-44.5 56t-67.5 46t-87.5 21l-30 55q148 93 288 162l11 64q3 13 -7.5 23t-27.5 10q-27 0 -65.5 -18t-77.5 -47t-73 -65t-51 -72q-19 19 -32.5 40t-7.5 54l42 238h-82l-40 45h691zM409 50l40 227
q-85 -38 -179 -100q84 -31 137 -127h2z" />
    <glyph glyph-name="d_dh_bo_bn" horiz-adv-x="683" 
d="M794 577h-572l-33 -190h3q15 22 47.5 47.5t71 47.5t77.5 36.5t66 14.5q10 0 26 -13.5t30 -32.5t23 -39t7 -33l-2 -10q66 31 97 31q5 0 13 -10t16 -22.5t15.5 -25t11.5 -17.5q-32 -116 -45 -190q-28 -157 -13 -205l-5 -23q-8 8 -19.5 20.5t-26.5 29.5q-18 21 9 175
q23 130 49 192q-2 10 -10 10q-31 0 -105 -37l-74 -423l-21 16q-8 51 -52.5 81t-113.5 37l-37 61q13 8 32 18t42 23q-16 8 -34 10.5t-38 2.5q-8 0 -14 -2l-44 60q72 52 150.5 95t164.5 77l8 45q2 14 -8 23.5t-27 9.5q-29 0 -68 -17t-78.5 -44.5t-75 -61t-55.5 -66.5
q-27 27 -38.5 47t-5.5 51l35 201h-82l-41 45h708zM458 231l15 85q-57 -25 -110.5 -53t-104.5 -60q42 -8 68 -40q10 7 43 23.5zM419 6l27 157q-36 -13 -72 -31.5t-72 -42.5q67 -19 117 -83z" />
    <glyph glyph-name="d_no_bn" horiz-adv-x="531" 
d="M528 394l-85 -484l-20 22q1 56 -8 97t-25.5 67.5t-38 39t-43.5 12.5q-14 0 -22 -4q30 -17 22 -60q-5 -32 -30.5 -52t-57.5 -20q-16 0 -31 7t-25.5 19t-15 27.5t-1.5 32.5q8 45 44.5 73.5t90.5 28.5q105 0 139 -115h3l58 329q3 13 -8 23t-28 10q-27 0 -67 -21.5t-81.5 -54
t-77 -71.5t-52.5 -73q-19 18 -32.5 39.5t-7.5 54.5l45 256h-82l-41 45h556l36 -45h-420l-40 -227l2 -2q18 28 51 57t70.5 53t74.5 39t62 15q10 0 26 -13t29.5 -32t23 -39t7.5 -34z" />
    <glyph glyph-name="d_bo_bn" horiz-adv-x="531" 
d="M642 577h-420l-40 -227l2 -2q18 28 51 57t70.5 53t74.5 39t62 15q10 0 26 -13t29.5 -32t23 -39t7.5 -34l-80 -455l-19 20q0 15 -16.5 41t-45 52t-68.5 46t-88 23l-30 55q75 48 146.5 88t141.5 74l13 76q3 13 -8 23t-28 10q-27 0 -67 -21.5t-81.5 -54t-77 -71.5t-52.5 -73
q-19 18 -32.5 39.5t-7.5 54.5l45 256h-82l-41 45h556zM416 38l40 227q-41 -19 -86.5 -43.5t-93.5 -56.5q86 -32 137 -127h3z" />
    <glyph glyph-name="d_bho_bn" horiz-adv-x="611" 
d="M722 577h-377l-34 -194l2 -2q15 23 43 47.5t63.5 46.5t75 39.5t78.5 27.5q34 -17 60 -49q-33 -26 -57 -54t-41 -61.5t-28.5 -76t-21.5 -98.5q46 34 69 68q64 -62 49 -150q-7 -41 -26.5 -74.5t-48.5 -57.5t-65 -37t-77 -13q-66 0 -115 31t-82.5 98t-51 173t-21.5 256
l20 -16q6 -119 24 -205.5t49 -142.5t76.5 -82.5t107.5 -26.5q36 0 66.5 9t54 25.5t39 39.5t20.5 50q4 24 -6 44q-87 -90 -186 -90q-103 0 -86 92q4 26 24.5 45.5t47.5 19.5q22 0 35 -15.5t9 -36.5q-5 -28 -21 -40q2 -4 10 -4q29 0 63 26q-6 44 4 105q18 102 64 171
q-34 -12 -67 -33.5t-63 -48t-53.5 -55t-36.5 -55.5q-25 22 -40.5 46.5t-9.5 56.5l35 201h-205l-39 45h634z" />
    <glyph glyph-name="d_bh_ro_bn" horiz-adv-x="501" 
d="M612 577h-391l-34 -194l3 -2q15 23 43 47.5t63.5 46t75 39.5t78.5 28q34 -17 60 -49q-34 -29 -58 -57.5t-41 -62.5t-28.5 -76.5t-21.5 -98.5q51 33 73 63q49 -49 40 -98l-60 -341l-23 24q1 89 -91 89q-15 0 -46.5 -4.5t-69.5 -4.5t-68.5 14t-51 38.5t-28.5 58t-1 73.5
q9 51 40 102l17 -22q-20 -42 -26 -72q-5 -28 2.5 -50t21.5 -37.5t34 -24t40 -8.5t45 4.5t41 4.5q29 0 48 -2t33.5 -9.5t27 -21t27.5 -36.5l40 229q-92 -69 -168 -69q-103 0 -87 91q4 26 24.5 45.5t47.5 19.5q22 0 35 -15.5t9 -35.5q-5 -29 -21 -41q3 -3 11 -3q30 0 62 25
q-4 63 4 110q18 99 65 171q-34 -12 -67 -33.5t-63 -48t-53.5 -55t-36.5 -55.5q-25 22 -40.5 46.5t-9.5 56.5l35 201h-82l-39 45h524z" />
    <glyph glyph-name="d_mo_bn" horiz-adv-x="614" 
d="M725 577h-82l-116 -658l-21 24q3 36 -7 67t-27.5 55t-39.5 38.5t-44 16.5q-4 -18 -14 -33t-24.5 -25.5t-31 -16t-33.5 -5.5t-31 6.5t-23.5 17.5t-13.5 26t-1 33q7 38 36 65.5t71 27.5q19 0 41 -10q-9 66 1 122q13 69 39 116l-3 3q-153 -93 -225 -241q-25 22 -40.5 46.5
t-9.5 56.5l47 268h-82l-40 45h638zM504 65l90 512h-372l-42 -241h2q20 27 51 57.5t66.5 59t72.5 52t68 34.5q18 -8 35 -21.5t34 -31.5q-91 -98 -111 -209q-7 -43 -2 -83q74 -40 105 -129h3z" />
    <glyph glyph-name="d_ro_bn" horiz-adv-x="530" 
d="M456 -56l-29 22q0 29 -6 47.5t-18 29t-32 14.5t-48 4l-161 -12q-35 0 -61 11.5t-43 31.5t-23 48.5t0 62.5q8 44 35 86l18 -19q-17 -33 -20 -54q-9 -49 12.5 -69.5t84.5 -20.5l143 7q65 0 109 -73v2q-21 126 -12 177q24 136 60 182l-2 2q-185 -91 -266 -217q-37 35 -54 71
l53 300h-105l-39 45h553l36 -45h-396l-43 -246q131 120 307 189l73 -60q-106 -94 -139 -283q-4 -16 -3 -43.5t5 -68.5z" />
    <glyph glyph-name="d_ro_alt_bn" horiz-adv-x="530" 
d="M93 41q-49 0 -84.5 14.5t-58 40t-31 61t-0.5 77.5q6 34 21 64l19 -17q-2 -6 -4 -15t-4 -21q-23 -127 162 -127q10 0 29.5 2t42 4t44 4t36.5 2q31 0 52.5 -2t38 -9t31 -20.5t30.5 -36.5q-21 126 -12 177q24 136 60 182l-2 2q-185 -91 -266 -217q-37 35 -54 71l53 300h-105
l-39 45h553l36 -45h-396l-43 -246q131 120 307 189l73 -60q-106 -94 -139 -283q-4 -16 -3 -43.5t5 -68.5l11 -121l-29 22q-3 32 -13 50.5t-25 27.5t-34 11.5t-39 2.5l-137 -11q-52 -5 -86 -6z" />
    <glyph glyph-name="d_r_ukar_bn" horiz-adv-x="761" 
d="M834 622l38 -45h-627l-43 -246q131 120 307 189l73 -60q-19 -17 -35.5 -36.5t-30.5 -42.5q32 -61 56 -92.5t47 -31.5q16 0 32 5.5t29.5 16t23.5 25.5t13 33q4 25 -5 42t-20 17h-5q-1 -1 -4 -1q7 -11 5 -22q-8 -46 -56 -46q-22 0 -34.5 17.5t-7.5 41.5q3 22 23.5 40.5
t48.5 18.5q19 0 36.5 -9.5t29.5 -26.5t17 -40t0 -51q-5 -26 -17 -48.5t-29.5 -39.5t-40 -26.5t-47.5 -9.5q-12 0 -27.5 6.5t-32.5 22t-32.5 42t-29.5 65.5q-31 -64 -46 -153q-4 -16 -3 -43.5t5 -68.5l11 -121l-29 22q0 29 -6 47.5t-18 29t-32 14.5t-48 4l-161 -12
q-35 0 -61 11.5t-43 31.5t-23 48.5t0 62.5q8 44 35 86l18 -19q-17 -33 -20 -54q-9 -49 12.5 -69.5t84.5 -20.5l143 7q65 0 109 -73v2q-21 126 -12 177q24 136 60 182l-2 2q-185 -91 -266 -217q-37 35 -54 71l53 300h-105l-39 45h782z" />
    <glyph glyph-name="d_r_ookar_bn" horiz-adv-x="668" 
d="M744 622l35 -45h-534l-43 -246q131 120 307 189l73 -60q-40 -35 -69 -82q78 42 88 42q7 0 13.5 -8.5t13 -20.5t14 -25t14.5 -21q-12 -43 -20 -70.5t-10 -40.5q-25 -143 -11 -192l-5 -25l-44 52q-19 21 1 134q15 84 37 141q-2 10 -9 10q-8 0 -124 -65q-18 -51 -28 -112
q-4 -16 -3 -43.5t5 -68.5l11 -121l-29 22q0 29 -6 47.5t-18 29t-32 14.5t-48 4l-161 -12q-35 0 -61 11.5t-43 31.5t-23 48.5t0 62.5q8 44 35 86l18 -19q-17 -33 -20 -54q-9 -49 12.5 -69.5t84.5 -20.5l143 7q65 0 109 -73v2q-21 126 -12 177q24 136 60 182l-2 2
q-185 -91 -266 -217q-37 35 -54 71l53 300h-105l-39 45h692z" />
    <glyph glyph-name="dh_no_bn" horiz-adv-x="496" 
d="M525 577l-130 -740l-20 21q2 58 -9 99t-30 67t-44 38t-54 12q-14 0 -22 -3q30 -17 22 -60q-5 -32 -30.5 -52t-56.5 -20q-17 0 -32 7t-25 19t-14.5 27.5t-1.5 31.5q8 46 44 74.5t91 28.5q106 0 162 -115h2l7 44q-12 24 -35.5 54.5t-56.5 57.5t-74 46t-89 19l-45 79
q48 36 93.5 66.5t91.5 57.5l1 2q-51 0 -77.5 29.5t-17.5 77.5q3 21 14 38.5t27 29.5t34.5 19t36.5 7q15 0 27 -5t20.5 -14t12.5 -20.5t2 -23.5q-4 -22 -20.5 -36.5t-37.5 -14.5q-45 0 -39 35q1 5 6 13q-39 -6 -44 -37q-3 -15 2 -28t15 -23.5t24 -16.5t30 -6t41.5 11t53 26
t52.5 29.5t39 21.5l13 72h86l37 -45h-82zM392 100l65 366q-62 -27 -130 -68.5t-148 -98.5q134 -45 209 -199h4z" />
    <glyph glyph-name="dh_mo_bn" horiz-adv-x="665" 
d="M525 577l-91 -515q14 -20 18 -42q9 -4 20.5 -13t23 -20t21.5 -24t14 -24h2l112 638h-120zM392 100l65 366q-62 -27 -130 -68.5t-148 -98.5q134 -45 209 -199h4zM740 622l36 -45h-82l-137 -777l-19 22q15 139 -95 139q-7 -35 -36 -58t-67 -23q-31 0 -49 23t-12 55
t32.5 53.5t57.5 21.5q19 0 22 -1q-2 10 -6 20t-10 20l-26 39q-17 22 -40 44t-51.5 39t-61 28t-67.5 11l-45 79q48 36 93.5 66.5t91.5 57.5l1 2q-51 0 -77.5 29.5t-17.5 77.5q3 21 14 38.5t27 29.5t34.5 19t36.5 7q15 0 27 -5t20.5 -14t12.5 -20.5t2 -23.5
q-4 -22 -20.5 -36.5t-37.5 -14.5q-45 0 -39 35q1 5 6 13q-39 -6 -44 -37q-3 -15 2 -28t15 -23.5t24 -16.5t30 -6t41.5 11t53 26t52.5 29.5t39 21.5l13 72h256z" />
    <glyph glyph-name="dh_ro_bn" horiz-adv-x="496" 
d="M392 100l65 366q-114 -51 -278 -167q134 -45 209 -199h4zM408 -89l-23 24q3 45 -19 61.5t-73 16.5q-5 0 -26 -2t-44 -4t-40.5 -4t-15.5 -2q-35 0 -61 11.5t-42.5 31.5t-22.5 48t-1 61q9 47 36 82l16 -19q-20 -46 -21 -57q-7 -37 10.5 -61.5t53.5 -24.5q32 0 63.5 3
t56.5 3q47 0 75.5 -11t48.5 -44l5 31q-19 42 -49 75t-64 56t-70.5 35t-71.5 12l-45 79q85 65 185 124l1 2q-51 0 -77.5 29.5t-17.5 77.5q3 21 14 38.5t27 29.5t34.5 19t36.5 7q15 0 27 -5t20.5 -14t12.5 -20.5t2 -23.5q-4 -22 -20.5 -36.5t-37.5 -14.5q-45 0 -39 35
q1 5 6 13q-39 -6 -44 -37q-3 -15 2.5 -28.5t15.5 -23.5t24 -16t29 -6q33 0 148 67l38 21l13 72h86l37 -45h-82z" />
    <glyph glyph-name="n_jo_bn" horiz-adv-x="804" 
d="M437 459l21 118h-367l-37 45h826l35 -45h-408l-7 -39q39 -80 163 -80q57 0 114 18l66 -90q-24 -19 -45.5 -48t-39.5 -62.5t-31.5 -69.5t-18.5 -69q-15 -83 -10 -183l-24 18q-17 111 0 207q23 130 90 219q-48 -6 -60 -6q-149 0 -206 113h-3l-37 -206q-3 -18 15 -18
q42 0 121 81q64 -56 46 -163q-15 -81 -66.5 -124t-129.5 -43q-67 0 -124.5 37.5t-100.5 104.5t-68 159.5t-28 202.5l29 -17q6 -86 30.5 -159.5t64 -127.5t90.5 -84.5t110 -30.5q28 0 56 8.5t50 22.5t37 31.5t18 35.5q8 41 -8 64q-73 -64 -128 -64q-40 0 -55.5 17.5
t-10.5 49.5l22 121q-15 38 -36.5 54t-48.5 16q23 -25 17 -61q-6 -34 -29 -51t-50 -17q-34 0 -54.5 24t-14.5 60q3 20 14 39t27.5 34t38 24t44.5 9q65 0 101 -75z" />
    <glyph glyph-name="n_ttho_bn" horiz-adv-x="526" 
d="M637 577h-185q92 -161 64 -318q-9 -50 -34 -93.5t-61 -75.5t-80 -50t-90 -18q-36 0 -66 11t-50.5 31.5t-29.5 50t-3 66.5q5 26 14 46q152 51 231 149q-39 102 -98 102q-7 0 -18 -6q21 -22 15 -57q-5 -27 -28 -45.5t-49 -18.5q-33 0 -51.5 23t-12.5 58q3 20 14 38t27 31.5
t37 21.5t45 8q53 0 84.5 -29.5t54.5 -101.5q31 46 41 103q5 30 -8 74h-309l-37 45h340q-77 175 -65 245q14 75 77 99l46 -35q-75 -32 -85 -89q-10 -54 74 -220h161zM469 294q24 137 -21 214l-1 -2q-4 -31 -6 -48t-2 -20q-28 -158 -269 -267q-7 -12 -10 -26
q-6 -33 15.5 -57.5t64.5 -24.5q36 0 73 18.5t69 50t55.5 73.5t31.5 89z" />
    <glyph glyph-name="n_ddo_bn" horiz-adv-x="746" 
d="M857 577h-334l-41 -233q-4 -21 12 -21q59 0 184 143q45 -32 58.5 -80t1.5 -114q-9 -53 -35 -99t-62.5 -79.5t-80 -52.5t-87.5 -19q-287 0 -348 523l28 -17q33 -204 117.5 -312.5t207.5 -108.5q40 0 79 15t70 40t52.5 58t28.5 70q9 52 -18 77q-133 -116 -185 -116
q-57 0 -68 94q-6 51 -23 84t-38 33q-8 0 -16 -4q22 -14 16 -47q-5 -28 -25.5 -45t-47.5 -17q-33 0 -54 20.5t-14 57.5q3 18 13.5 34t25.5 28t33 19t37 7q66 0 99 -105h2l29 167h-383l-37 45h769z" />
    <glyph glyph-name="n_dd_ro_bn" horiz-adv-x="746" 
d="M518 27q-24 -5 -45 -5q-287 0 -348 523l28 -17q33 -204 117.5 -312.5t207.5 -108.5q40 0 79 15t70 40t52.5 58t28.5 70q9 52 -18 77q-133 -116 -185 -116q-57 0 -68 94q-6 51 -23 84t-38 33q-8 0 -16 -4q22 -14 16 -47q-5 -28 -25.5 -45t-47.5 -17q-33 0 -54 20.5
t-14 57.5q3 18 13.5 34t25.5 28t33 19t37 7q66 0 99 -105h2l29 167h-383l-37 45h769l34 -45h-334l-41 -233q-4 -21 12 -21q59 0 184 143q45 -32 58.5 -80t1.5 -114q-7 -41 -23.5 -76.5t-40 -65t-52.5 -52t-60 -37.5l-37 -206l-27 24q2 38 -24 60t-89 22l-168 -15
q-32 0 -58.5 13.5t-43.5 37t-25 53.5t-2 63q4 25 18 49l20 -11q-2 -5 -8 -39q-4 -19 3 -36t21 -30t33.5 -20.5t42.5 -7.5q20 0 38.5 0.5t35.5 1.5l78 2q73 0 129 -68l3 2z" />
    <glyph glyph-name="n_to_bn" horiz-adv-x="688" 
d="M664 179q-8 -45 -27.5 -82t-46.5 -63t-61.5 -40t-71.5 -14q-66 0 -122 35t-99 101.5t-73.5 163.5t-45.5 221l29 -15q59 -420 317 -420q30 0 58 9t52 27t40 43.5t21 58.5q4 22 0 44t-12.5 40t-20 29t-23.5 11q-24 0 -33 -7q22 -27 15 -71q-3 -15 -12 -28t-21.5 -23.5
t-27 -16.5t-29.5 -6q-37 0 -57.5 26t-13.5 68q11 61 79 90q-5 6 -10.5 15t-13.5 26q-51 100 -87 100q-13 0 -21 -3q36 -20 27 -69q-5 -28 -32 -50t-58 -22q-36 0 -56.5 26.5t-12.5 71.5q7 40 40 66t79 26q75 0 123 -81q25 -44 44 -44q9 0 22.5 8.5t26.5 22t23 29t13 30.5
q7 39 -33 65h-461l-38 45h709l37 -45h-194q36 -50 26 -107q-7 -44 -44 -78l-22 -20q29 -2 50.5 -18.5t34.5 -43t17 -60.5t-3 -71z" />
    <glyph glyph-name="n_t_bo_bn" horiz-adv-x="688" 
d="M346 8q-4 3 -11 7q-85 53 -140 175.5t-78 310.5l29 -15q59 -420 317 -420q30 0 58 9t52 27t40 43.5t21 58.5q4 22 0 44t-12.5 40t-20 29t-23.5 11q-24 0 -33 -7q22 -27 15 -71q-3 -15 -12 -28t-21.5 -23.5t-27 -16.5t-29.5 -6q-37 0 -57.5 26t-13.5 68q11 61 79 90
q-5 6 -10.5 15t-13.5 26q-51 100 -87 100q-13 0 -21 -3q36 -20 27 -69q-5 -28 -32 -50t-58 -22q-36 0 -56.5 26.5t-12.5 71.5q7 40 40 66t79 26q75 0 123 -81q25 -44 44 -44q9 0 22.5 8.5t26.5 22t23 29t13 30.5q7 39 -33 65h-461l-38 45h709l37 -45h-194q36 -50 26 -107
q-7 -44 -44 -78l-22 -20q29 -2 50.5 -18.5t34.5 -43t17 -60.5t-3 -71q-13 -76 -56 -126.5t-100 -65.5l-42 -238l-22 16q0 20 -12 40t-35 36.5t-56.5 28.5t-77.5 17l-38 58q10 6 32 17t57 30zM458 -20h-1q-8 0 -17 0.5t-17 1.5q-74 -29 -111 -53q80 -24 123 -82z" />
    <glyph glyph-name="n_t_ro_bn" horiz-adv-x="523" 
d="M634 577h-134q36 -50 26 -107q-10 -56 -69 -99q11 -5 19.5 -15.5t15 -22.5t9 -24.5t0.5 -19.5l-73 -417l-23 24q2 19 -1 36t-13.5 29.5t-29 20t-49.5 7.5q-8 0 -29.5 -2t-45.5 -4t-46 -4t-29 -2q-36 0 -64.5 14t-46.5 39t-25 59t0 74q9 52 42 103l16 -22q-21 -42 -26 -72
q-10 -55 20 -86.5t87 -31.5q1 0 15.5 1t32 2.5t32 2.5t16.5 1q28 0 47.5 -2.5t35 -10t28.5 -21.5t28 -36l53 302q8 47 -21 47q-11 0 -35.5 -14.5t-50 -35t-45.5 -42t-23 -34.5q0 -4 3 -19q22 19 51 19q49 0 40 -51q-11 -64 -88 -64q-43 0 -63.5 28.5t-12.5 71.5
q3 22 17.5 47t37 48.5t49.5 42t57 28.5l-2 2q-22 33 -36 58t-24.5 42t-20.5 25.5t-24 8.5t-22 -3q36 -20 27 -69q-2 -14 -10.5 -27t-20.5 -23t-27.5 -16t-31.5 -6q-35 0 -55.5 26.5t-12.5 71.5q7 40 40 66t78 26q76 0 124 -81q25 -44 43 -44q9 0 22.5 8.5t27 22t23.5 29
t13 30.5q7 39 -33 65h-356l-37 45h544z" />
    <glyph glyph-name="n_tho_bn" horiz-adv-x="551" 
d="M662 577h-162q36 -50 26 -107q-2 -15 -10 -31.5t-19.5 -31.5t-26 -27t-29.5 -19q116 -15 96 -128q-24 -131 -199 -178v-3q59 -26 117.5 -72t118.5 -112l5 -53q-34 31 -75.5 65t-90.5 65t-105 56.5t-118 39.5l-44 126q12 -7 32 -15t40 -15t37.5 -11.5t25.5 -4.5
q34 0 72 13t70.5 33t56 43.5t27.5 45.5q11 62 -61 62q-22 0 -41 -11q-6 -23 -19 -43t-30 -35t-35.5 -24t-35.5 -9q-62 0 -52 59q4 19 16 37t30.5 32.5t42 24t49.5 12.5l-3 6q-22 33 -36 58t-25 42t-21 25.5t-24 8.5q-13 0 -21 -3q36 -20 27 -69q-5 -28 -32 -50t-58 -22
q-36 0 -56.5 26.5t-12.5 71.5q7 40 40 66t79 26q75 0 123 -81q25 -44 44 -44q9 0 22.5 8.5t26.5 22t23 29t13 30.5q7 39 -33 65h-356l-37 45h572z" />
    <glyph glyph-name="n_dho_bn" horiz-adv-x="628" 
d="M739 577h-226l-32 -184q68 30 97 30q5 0 13 -9.5t16.5 -22.5t16 -25t11.5 -17q-18 -60 -28.5 -104t-15.5 -74q-24 -135 -7 -181l-4 -24q-9 8 -20 21t-27 30q-10 11 -9 47.5t13 102.5q10 55 21.5 100t24.5 81q-2 9 -11 9q-31 0 -104 -36l-66 -377l-17 22q-4 31 -25 62.5
t-51.5 57t-67.5 42t-74 18.5l-41 71q87 54 157 90.5t128 59.5q-13 23 -32 43.5t-38.5 35.5t-39.5 23.5t-36 8.5q-15 0 -23 -3q17 -8 24.5 -29t4.5 -40q-3 -15 -12 -29t-22.5 -25.5t-28.5 -18t-29 -6.5q-39 0 -61 28t-14 71q8 45 45 75t86 30q31 0 60.5 -10t54.5 -28.5
t45.5 -45t33.5 -59.5h3l33 189h-374l-37 45h651zM374 62l43 239q-58 -28 -106.5 -53.5t-89.5 -48.5q90 -32 150 -137h3z" />
    <glyph glyph-name="n_dh_ro_bn" horiz-adv-x="629" 
d="M740 577h-226l-29 -166q66 31 97 31q5 0 13 -10t16.5 -22.5t15.5 -25t11 -17.5q-28 -92 -50 -216q-23 -132 -9 -180l-4 -25l-46 52q-9 11 -8 47.5t13 103.5q27 155 53 217q-2 10 -10 10q-31 0 -105 -37l-77 -441l-22 29q4 34 -15.5 53t-71.5 19q-3 0 -19 -1t-35 -2
t-35.5 -2t-19.5 -1q-72 0 -105.5 39t-21.5 108q3 18 19 45l19 -20q-8 -26 -8 -28q-13 -72 99 -72q2 0 16 1t31 2t30.5 2t14.5 1q66 0 102 -78l4 2q0 23 -2.5 39.5t-8.5 30t-16.5 25.5t-27.5 26q-64 49 -151 55l-42 71q75 46 145 82.5t136 62.5q-55 97 -145 97q-13 0 -23 -3
q17 -8 25 -29t5 -40q-2 -15 -11.5 -29.5t-22.5 -25.5t-28.5 -17.5t-30.5 -6.5q-39 0 -60.5 28t-13.5 71q8 45 44.5 75t85.5 30q137 0 197 -140h2l31 180h-374l-37 45h652zM380 95l40 227q-41 -17 -89.5 -41.5t-106.5 -56.5q94 -26 154 -129h2z" />
    <glyph glyph-name="n_no_bn" horiz-adv-x="519" 
d="M433 211q-16 106 -60.5 158t-104.5 52q-11 0 -22 -6q50 -23 40 -76q-7 -43 -36.5 -70t-74.5 -27q-48 0 -70.5 30t-14.5 78q6 30 21 55.5t37.5 43.5t50.5 28t58 10q149 0 190 -214l53 304h-409l-37 45h539l37 -45h-82l-119 -675l-19 22q2 58 -8 99t-29.5 67t-45.5 38
t-54 12q-14 0 -21 -3q30 -17 22 -60q-6 -32 -31.5 -52t-57.5 -20q-16 0 -30.5 7t-25 19t-15 27.5t-2.5 31.5q8 45 45 74t91 29q106 0 161 -115h3l22 122z" />
    <glyph glyph-name="n_bo_bn" horiz-adv-x="519" 
d="M425 -124l-19 20q-4 35 -23 67t-49.5 57t-68 40.5t-78.5 17.5l-38 64q69 52 202 113l65 29q-47 137 -148 137q-11 0 -22 -6q50 -23 40 -76q-7 -43 -36.5 -70t-74.5 -27q-48 0 -70.5 30t-14.5 78q6 30 21 55.5t37.5 43.5t50.5 28t58 10q140 0 185 -192l9 4l49 278h-409
l-37 45h539l37 -45h-82zM398 -5l41 233q-125 -59 -187 -97q80 -27 143 -136h3z" />
    <glyph glyph-name="n_mo_bn" horiz-adv-x="698" 
d="M614 -67l-19 22q-1 38 -10.5 70t-25 56t-34 38.5t-34.5 17.5q-27 -82 -110 -82q-38 0 -61.5 23.5t-16.5 59.5q7 39 38.5 66t77.5 27q18 0 27 -4q3 20 1 35l-52 84q-29 52 -66 82.5t-69 30.5q-14 0 -22 -4q17 -7 25 -28.5t5 -39.5q-3 -16 -12 -30.5t-22 -25.5t-28 -17.5
t-30 -6.5q-39 0 -61 28.5t-15 70.5q8 45 45.5 75t85.5 30q129 0 185 -154l3 3l1 29l33 188h-362l-37 45h722l33 -45h-82zM678 577h-176l-45 -257q2 -2 3 -2q13 -11 24 -25.5t17.5 -30.5t9 -32.5t-0.5 -31.5q47 -29 78 -120h2z" />
    <glyph glyph-name="n_ro_bn" horiz-adv-x="519" 
d="M430 -93l-34 38q3 45 -19.5 61.5t-72.5 16.5q1 0 -8.5 -1t-23.5 -2.5t-31.5 -3t-32 -3t-24 -2.5t-8.5 -1q-35 0 -61 11.5t-42 31.5t-22 48t0 61q8 47 36 83l15 -20q-19 -46 -21 -57q-6 -37 11.5 -61.5t52.5 -24.5q52 0 82.5 0.5t38.5 1.5l14 1q25 0 43.5 -3.5t32.5 -11
t24 -21t18 -32.5h3l33 186q0 51 -13 93t-35.5 73t-52 48t-63.5 17q-11 0 -22 -6q50 -23 41 -76q-8 -43 -37.5 -70.5t-74.5 -27.5q-48 0 -70.5 30.5t-13.5 78.5q5 30 20.5 55.5t37.5 43.5t50.5 28t58.5 10q149 0 189 -214h2l4 33l45 258h-409l-37 45h539l37 -45h-82z" />
    <glyph glyph-name="n_so_bn" horiz-adv-x="642" 
d="M753 577h-82l-110 -623l-40 62l57 306q-19 57 -57 57q-20 0 -36 -11.5t-35 -34t-43.5 -56t-62.5 -77.5q-25 -29 -49 -29q-11 0 -25.5 6.5t-29.5 17.5t-30 25t-27 29l20 38q30 -44 54 -44q10 0 23.5 12t25 26.5t19 27t7.5 14.5q-6 26 -16.5 49t-23 39.5t-26.5 26t-27 9.5
q-16 0 -22 -5q37 -19 29 -65q-5 -27 -28.5 -47.5t-49.5 -20.5q-18 0 -32 8t-23.5 20.5t-13 29t-0.5 33.5q3 19 14.5 37t28 32t36.5 22t43 8q96 0 131 -148l41 47q2 7 3.5 15.5t3.5 18.5q3 19 -3.5 37t-21 31.5t-36.5 23t-48 12.5q-30 2 -48.5 4.5t-28 7t-12 11.5t-0.5 18
h-111l-35 45h662zM591 368l37 209h-252v-2q70 -47 56 -124q-1 -3 -2.5 -10t-4.5 -16l2 -3q37 43 76 43q45 0 83 -97h5z" />
    <glyph glyph-name="p_tto_bn" horiz-adv-x="880" 
d="M991 577h-363l-64 -367q-5 -24 -1.5 -44t10.5 -34.5t14.5 -22t10.5 -7.5q28 0 62 23t63.5 54t50.5 62.5t24 48.5q2 13 1 24q-11 -5 -22 -5q-67 0 -55 67q5 29 30 49t58 20q42 0 61.5 -33.5t9.5 -93.5q-9 -46 -42 -95.5t-76 -91t-88 -68t-77 -26.5q-35 0 -76 94
q-15 34 -9 73l37 208q-10 21 -21 39.5t-24 34.5q-22 -18 -77.5 -68t-143.5 -135l-84 28q55 49 59 72q7 38 2 58t-37 20q-7 0 -16.5 -3.5t-19 -8t-18 -8t-13.5 -3.5q-22 0 -34.5 13t-9.5 30q4 23 28.5 50t59 50.5t74.5 39t76 15.5q32 0 58.5 -9t51.5 -30t48.5 -54.5
t49.5 -81.5l22 125l-30 36h305q26 12 30 34q9 50 -83 50q-8 0 -28 -0.5t-42 -1.5t-39 -1.5t-19 -0.5q-109 0 -156.5 32t-35.5 104q7 39 33 62l23 -17q-21 -18 -26 -44q-12 -68 106 -68q5 0 23.5 1t39.5 2.5t40 2.5t25 1q190 0 167 -156h42zM458 538q-34 37 -92 37
q-85 0 -146 -69h15q13 0 27 -9t24.5 -23t15.5 -31.5t2 -35.5l-1 -7z" />
    <glyph glyph-name="p_to_bn" horiz-adv-x="736" 
d="M847 577h-87q-32 0 -36 13h-3l-61 -345q13 -11 21.5 -27.5t13.5 -36t6 -39.5t-2 -38q-7 -37 -25 -67.5t-45.5 -52t-61.5 -33.5t-72 -12q-144 0 -240 151t-132 447l24 -16q39 -244 131 -370.5t226 -126.5q31 0 59.5 8t50 22t36.5 33t19 41q10 55 -26 73q-49 -75 -121 -75
q-33 0 -49.5 18.5t-10.5 49.5q6 38 36 61.5t78 23.5q22 0 40 -7l25 139q-9 24 -21 46.5t-28 42.5q-50 -38 -107 -89t-124 -117l-90 21q82 69 89 105q7 45 -38 45q-8 0 -17.5 -3.5t-18.5 -8t-18 -8t-14 -3.5q-22 0 -34 12.5t-9 29.5q4 24 28.5 51t59 50.5t74 38.5t75.5 15
q63 0 115.5 -48t83.5 -130h3l48 273l23 -28q-6 -35 9 -59.5t42 -24.5h42zM540 549q-24 29 -76 29q-85 0 -147 -68h15q13 0 25 -9t20.5 -22.5t13.5 -28.5t3 -27l2 -2z" />
    <glyph glyph-name="p_t_ro_bn" horiz-adv-x="661" 
d="M583 -128l-23 24q2 19 -1 36t-13.5 29.5t-29.5 20t-49 7.5q-8 0 -29.5 -2t-45.5 -4t-46 -4t-29 -2q-36 0 -64.5 14t-46.5 39t-25 59t0 74q9 51 41 103l17 -22q-21 -42 -26 -72q-10 -55 20 -86.5t87 -31.5q1 0 15.5 1t32 2.5t32 2.5t16.5 1q28 0 47.5 -2.5t35 -10
t28.5 -21.5t28 -36l53 302q8 47 -21 47q-11 0 -35.5 -14.5t-50 -35t-45.5 -42t-23 -34.5q0 -4 3 -19q22 19 51 19q49 0 40 -51q-11 -64 -88 -64q-43 0 -63.5 28.5t-12.5 71.5q3 22 19 49t40 51.5t53 43t61 25.5l8 43q-9 24 -21 46.5t-28 42.5q-50 -38 -107 -89t-124 -117
l-90 21q82 69 89 105q7 45 -39 45q-7 0 -16.5 -3.5t-18.5 -8t-18 -8t-14 -3.5q-22 0 -34 12.5t-9 29.5q4 24 28.5 51t59 50.5t74 38.5t75.5 15q63 0 115.5 -48t83.5 -130h3l48 273l23 -28q-6 -35 9 -59.5t42 -24.5h65l32 -45h-109q-32 0 -36 13h-3l-38 -214h7q13 0 25.5 -9
t21.5 -22.5t14 -28.5t2 -27zM443 549q-24 29 -77 29q-84 0 -146 -68h15q13 0 25 -9t20.5 -22.5t13.5 -28.5t3 -27l2 -2z" />
    <glyph glyph-name="p_no_bn" horiz-adv-x="627" 
d="M738 577h-41q-32 0 -36 13h-2l-115 -651l-20 22q2 57 -8.5 98t-30 67.5t-45 38.5t-53.5 12q-14 0 -22 -4q30 -17 22 -60q-5 -31 -30.5 -51.5t-57.5 -20.5q-16 0 -31 7t-25.5 19t-15 27.5t-1.5 32.5q8 45 44.5 73.5t91.5 28.5q104 0 161 -114h3l44 251q-14 35 -29.5 65
t-35.5 55q-22 -18 -77.5 -68t-143.5 -135l-84 28q55 49 59 72q7 38 2 58t-37 20q-7 0 -16.5 -3.5t-19 -8t-18 -8t-13.5 -3.5q-22 0 -34.5 13t-9.5 30q4 23 28.5 50t59 50.5t74.5 39t76 15.5t64 -10.5t53 -35t51 -63.5t55 -96l6 -11l3 1l54 306l20 -28q-6 -34 9 -55.5
t36 -21.5zM458 538q-34 37 -92 37q-85 0 -146 -69h15q13 0 27 -9t24.5 -23t15.5 -31.5t2 -35.5l-1 -7z" />
    <glyph glyph-name="p_po_bn" horiz-adv-x="561" 
d="M672 577h-41q-32 0 -36 13h-2l-115 -651l-19 22q4 50 6 86t0 63.5t-10 48t-23 40.5q-81 -61 -137 -106.5t-90 -76.5l-74 25q79 65 85 97q7 39 -31 39q-9 0 -19.5 -3.5t-20 -7t-16.5 -7t-10 -3.5q-16 0 -25.5 11t-7.5 25q4 19 25 42.5t52 44.5t68 35.5t71 14.5
q27 0 52.5 -11t48 -30.5t40 -45t27.5 -55.5h2l43 240q-12 40 -41 77q-60 -46 -95.5 -73.5t-59 -46t-39 -32t-33.5 -30.5l-72 24q72 60 78 92q8 46 -29 46q-9 0 -19.5 -4t-20 -9t-18 -9t-12.5 -4q-45 0 -38 39q4 22 28 46.5t56 45t67.5 34t63.5 13.5q127 0 190 -161h2l45 252
l23 -28q-6 -34 9 -55.5t36 -21.5zM429 549q-28 34 -80 34q-64 0 -129 -60q14 0 26.5 -7t22 -17.5t14 -23.5t2.5 -26l-3 -15zM390 245q-30 32 -81 32q-52 0 -126 -61q31 0 50.5 -19t14.5 -47q0 -2 -5 -12l2 -3z" />
    <glyph glyph-name="p_ro_bn" horiz-adv-x="612" 
d="M458 538q-36 37 -92 37q-85 0 -146 -69h15q13 0 27 -9t24 -23t15 -31.5t2 -35.5l-1 -7zM559 390q-12 29 -25 52.5t-29 43.5q-17 -14 -58 -50.5t-99 -91.5l-64 -61l-94 28q65 50 69 72q7 38 2 58t-37 20q-7 0 -16.5 -3.5t-19 -8t-18 -8t-13.5 -3.5q-22 0 -34.5 13t-9.5 30
q4 23 28.5 50t59 50.5t74.5 39t75 15.5q34 0 61.5 -10t53 -32.5t50.5 -59.5t53 -92l51 285l23 -28q-6 -34 9 -55.5t36 -21.5l36 -45h-41q-32 0 -36 13h-2l-115 -651l-21 24q0 24 -3 44t-12.5 34.5t-27 22t-47.5 7.5q-5 0 -29 -1.5t-51.5 -3.5t-51.5 -3.5t-29 -1.5
q-91 0 -133.5 52t-25.5 148q9 53 40 101l16 -20q-21 -46 -26 -72q-24 -137 131 -137q4 0 16 1.5t28.5 3.5t36 3.5t38.5 1.5q21 0 38.5 -2.5t32 -10t28 -21t26.5 -36.5z" />
    <glyph glyph-name="p_ro_alt_bn" horiz-adv-x="612" 
d="M458 538q-36 37 -92 37q-85 0 -146 -69h15q13 0 27 -9t24 -23t15 -31.5t2 -35.5l-1 -7zM534 -34l-26 24q0 36 -3.5 59t-14.5 37t-30.5 19.5t-51.5 5.5l-137 -11q-9 -1 -44 -6t-80.5 -11t-95 -11t-85.5 -5q-49 0 -85 14.5t-58.5 40t-30.5 61t-1 77.5q6 34 22 64l19 -17
q-2 -6 -4.5 -15t-4.5 -21q-22 -127 164 -127q35 0 84.5 5t96 11.5t82 12t43.5 6.5q24 2 42 3t23 1q31 0 52.5 -2t38.5 -9t31 -21t30 -38l49 277q-12 29 -25 52.5t-29 43.5q-17 -14 -58 -50.5t-99 -91.5l-64 -61l-84 28q55 49 59 72q7 38 2 58t-37 20q-7 0 -16.5 -3.5t-19 -8
t-18 -8t-13.5 -3.5q-22 0 -34.5 13t-9.5 30q4 23 28.5 50t59 50.5t74.5 39t75 15.5q34 0 61.5 -10t53 -32.5t50.5 -59.5t53 -92l51 285l23 -28q-6 -34 9 -55.5t36 -21.5l36 -45h-41q-32 0 -36 13h-2z" />
    <glyph glyph-name="p_lo_bn" horiz-adv-x="612" 
d="M723 577h-41q-32 0 -36 13h-2l-115 -651l-19 22q1 36 -2.5 72.5t-11.5 66t-20 48.5t-30 19t-34 -19.5t-19 -38.5q-3 -13 -2 -43l-20 11q-35 84 -108 84q-18 0 -35 -6.5t-31 -17t-23.5 -23.5t-11.5 -27q-4 -22 9 -41t37 -22q-9 16 -6 37q8 46 57 46q17 0 28.5 -14.5
t8.5 -35.5q-10 -57 -86 -57q-48 0 -71 32.5t-14 83.5q4 23 16.5 44.5t30.5 37.5t42 25.5t50 9.5q46 0 88 -66q42 66 80 66q42 0 80 -99h2l45 256q-12 29 -25 52.5t-29 43.5q-22 -18 -77.5 -68t-143.5 -135l-84 28q55 49 59 72q7 38 2 58t-37 20q-7 0 -16.5 -3.5t-19 -8
t-18 -8t-13.5 -3.5q-22 0 -34.5 13t-9.5 30q4 23 28.5 50t59 50.5t74.5 39t75 15.5q34 0 61.5 -10t53 -32.5t50.5 -59.5t53 -92l3 1l50 284l21 -28q-6 -34 9 -55.5t36 -21.5zM458 538q-36 37 -92 37q-85 0 -146 -69h15q13 0 27 -9t24 -23t15 -31.5t2 -35.5l-1 -7z" />
    <glyph glyph-name="p_so_bn" horiz-adv-x="754" 
d="M865 577h-82l-110 -623l-41 62l57 306q-16 57 -55 57q-46 0 -105 -97q-44 -72 -74.5 -108t-58.5 -36q-6 0 -20 6t-30.5 16t-33 23t-28.5 26l22 39q26 -38 55 -38q13 0 32.5 23t54.5 78q-2 16 -9.5 34.5t-19.5 41.5q-92 -62 -196 -156l-75 23q62 47 69 89q6 33 -32 33
q-4 0 -11 -4t-14 -8.5t-14 -8.5t-11 -4q-45 0 -37 41q3 22 23 43t48 38t60 27.5t61 10.5q117 0 180 -172q9 15 15.5 23.5t11.5 17t9 20t8 32.5q3 19 -3.5 37t-21.5 31.5t-36.5 23t-47.5 12.5q-31 2 -49.5 4.5t-28 7t-12 11.5t-0.5 18h-224l-34 45h774zM702 368l37 209h-249
v-2q70 -47 57 -121l-11 -37l3 -2q41 50 77 50q45 0 83 -97h3zM376 432q-25 27 -68 27q-63 0 -123 -52q31 0 48.5 -18.5t12.5 -44.5q-2 -10 -3 -11l2 -2z" />
    <glyph glyph-name="ph_tto_bn" horiz-adv-x="772" 
d="M498 451l-70 -399q-4 -20 0.5 -36.5t12 -28.5t15.5 -18.5t11 -6.5q19 0 50 15q118 55 137 111q2 12 -1 19q-9 -3 -20 -3q-68 0 -58 56q4 24 28.5 41t57.5 17q42 0 63 -29t12 -78q-8 -43 -40.5 -80.5t-74 -65t-84 -43.5t-69.5 -16q-4 0 -21 10t-33.5 28t-28.5 44.5
t-6 59.5l1 8q-12 24 -36 54.5t-57 57.5t-74 46t-88 19l-43 71q70 52 124 90t90 64q-50 60 -110 69q-32 4 -52.5 9t-31.5 11t-15.5 13t-4.5 17l-38 45h705q25 12 29 34q9 50 -82 50q-8 0 -28 -0.5t-42 -1.5t-39 -1.5t-19 -0.5q-109 0 -156.5 32t-35.5 104q7 39 33 62l23 -17
q-22 -18 -27 -44q-12 -68 107 -68q5 0 23.5 1t39.5 2.5t39.5 2.5t24.5 1q192 0 167 -156h43l34 -45h-636l115 -161q-38 -24 -81 -55.5t-92 -67.5q24 -6 50.5 -23.5t52 -43t49.5 -58t44 -68.5h3l75 422q31 6 55 6q91 0 134 -45.5t28 -126.5q-8 -46 -37.5 -76t-65.5 -30
q-67 0 -56 62q9 55 62 55q34 0 43 -25q19 7 23 31q7 36 -19 58.5t-81 22.5q-13 0 -26.5 -0.5t-24.5 -2.5z" />
    <glyph glyph-name="ph_ro_bn" horiz-adv-x="673" 
d="M403 -88l-23 25q4 46 -18.5 62t-73.5 16q1 0 -8 -1t-23.5 -2.5t-31.5 -3t-31.5 -3t-24 -2.5t-7.5 -1q-35 0 -61 11.5t-42.5 31.5t-22.5 48t0 61q8 47 35 83l17 -20q-19 -46 -21 -57q-7 -37 11 -61.5t53 -24.5q103 3 135 3q25 0 43.5 -3.5t31.5 -11t23 -21t20 -32.5h2
l4 20q-13 38 -40.5 74.5t-63.5 65.5t-78 46.5t-83 17.5l-43 71q70 52 124 90t90 64q-52 60 -110 69q-32 5 -52 9.5t-31.5 10t-16 13t-4.5 17.5l-38 45h706l34 -45h-537l115 -161q-24 -15 -67 -45.5t-106 -77.5q23 -6 49.5 -25t53.5 -45.5t51 -58.5t42 -64h3l75 422
q31 6 55 6q91 0 133.5 -47t27.5 -132q-8 -48 -38 -79t-66 -31q-67 0 -56 65q10 57 63 57q35 0 42 -27q20 9 24 33q7 37 -19 60.5t-81 23.5q-28 0 -51 -3z" />
    <glyph glyph-name="ph_lo_bn" horiz-adv-x="673" 
d="M396 -127l-21 21q3 67 -15.5 102t-48.5 35q-42 0 -50 -46q-2 -13 -1 -36l-21 11q-35 84 -108 84q-18 0 -35 -6.5t-31 -17t-23 -23.5t-12 -27q-4 -22 9.5 -41t37.5 -22q-10 16 -6 37q8 46 57 46q17 0 28.5 -14.5t7.5 -35.5q-10 -57 -85 -57q-48 0 -70.5 32.5t-13.5 83.5
q4 23 16 44.5t30.5 37.5t41.5 25.5t49 9.5q49 0 92 -71q31 51 72 51q44 0 78 -78l6 35q-7 17 -28.5 47t-54.5 59.5t-76.5 51.5t-95.5 22l-43 71q70 52 124 90t90 64q-50 60 -110 69q-32 4 -52.5 9t-31.5 11t-15.5 13t-4.5 17l-38 45h706l34 -45h-537l115 -161
q-38 -24 -81 -55.5t-92 -67.5q24 -6 50.5 -23.5t52 -43t49.5 -58t44 -68.5h3l75 422q31 6 55 6q91 0 133.5 -47t27.5 -132q-8 -48 -38 -79t-66 -31q-67 0 -56 65q10 57 63 57q35 0 42 -27q20 9 24 33q7 37 -19 60.5t-81 23.5q-28 0 -51 -3z" />
    <glyph glyph-name="b_jo_bn" horiz-adv-x="804" 
d="M915 577h-408l-7 -39q39 -80 163 -80q57 0 114 18l66 -90q-24 -19 -45.5 -48t-39.5 -62.5t-31.5 -69.5t-18.5 -69q-15 -83 -10 -183l-24 18q-17 111 0 207q23 130 90 219q-48 -6 -60 -6q-149 0 -206 113h-3l-37 -206q-3 -18 15 -18q42 0 121 81q64 -56 46 -163
q-15 -81 -66.5 -124t-129.5 -43q-67 0 -124.5 37.5t-100.5 104.5t-68 159.5t-28 202.5l29 -17q6 -86 30.5 -159.5t64 -127.5t90.5 -84.5t110 -30.5q28 0 56 8.5t50 22.5t37 31.5t18 35.5q8 41 -8 64q-73 -64 -128 -64q-30 0 -44 9q-7 24 -23.5 47t-39 41t-50.5 29.5
t-58 13.5l-49 70q130 83 245 124l5 28h-367l-37 45h826zM411 309l31 174q-79 -25 -156 -79q74 -32 125 -95z" />
    <glyph glyph-name="b_do_bn" horiz-adv-x="685" 
d="M796 577h-350l-48 -271h3q84 112 256 199l77 -58q-121 -110 -148 -264q-22 -121 -17 -217l-29 27q-12 141 8 251q16 93 68 160l-2 2q-209 -144 -232 -274q-16 9 -29.5 28.5t-28.5 49.5q-15 27 -37 49.5t-47.5 38t-52.5 24.5t-52 9l-36 66q165 116 293 151l5 29h-306
l-40 45h709zM337 235l43 244q-88 -21 -192 -96q96 -37 147 -148h2z" />
    <glyph glyph-name="b_dho_bn" horiz-adv-x="631" 
d="M742 577h-226l-34 -194q60 31 96 31q5 0 12.5 -8.5t14.5 -20.5t15 -25t15 -21q-17 -63 -27.5 -107t-15.5 -73q-25 -140 -11 -188l-4 -25q-18 16 -46 52q-18 22 6 157q10 60 21.5 105t24.5 78q-1 10 -9 10q-39 0 -105 -37l-67 -384l-19 19q-4 27 -22.5 58t-48 59.5
t-68.5 50t-82 29.5l-38 64q12 8 35 22.5t57 34.5q-32 22 -76 24l-48 73q46 31 98.5 60t102.5 52t93.5 38t72.5 18l8 48h-376l-37 45h654zM430 367l16 92q-54 -10 -120 -38.5t-145 -77.5q40 -21 75 -58q62 31 105 51.5t69 30.5zM372 38l44 250q-101 -28 -207 -98
q100 -39 161 -152h2z" />
    <glyph glyph-name="b_ro_bn" horiz-adv-x="515" 
d="M427 -89l-23 24q1 19 -1.5 33.5t-13 24.5t-29 15t-48.5 5q-3 0 -22.5 -2t-41.5 -4t-40.5 -4t-21.5 -2q-35 0 -61 11.5t-42.5 31.5t-22.5 48t-1 61q9 47 36 82l16 -19q-20 -46 -21 -57q-7 -37 10.5 -61.5t53.5 -24.5q37 0 65.5 0.5t48.5 0.5q30 0 51.5 -2t37.5 -8.5
t27.5 -20t22.5 -36.5h3l5 28q-11 45 -36 85t-61 71t-80.5 50.5t-95.5 24.5l-53 78q269 175 399 193l7 40h-404l-37 45h538l34 -45h-82zM415 122l60 339q-98 -17 -287 -133q153 -57 225 -206h2z" />
    <glyph glyph-name="b_lo_bn" horiz-adv-x="515" 
d="M420 -129l-23 20q4 69 -14.5 103t-49.5 34q-41 0 -48 -45q-3 -14 -2 -37l-20 11q-35 84 -108 84q-18 0 -35.5 -6.5t-31 -17t-23 -23.5t-11.5 -27q-4 -22 9 -41t37 -21q-9 16 -6 36q8 47 57 47q17 0 28.5 -14.5t8.5 -35.5q-11 -58 -87 -58q-48 0 -70.5 32.5t-13.5 83.5
q4 24 16 45t30.5 37t41.5 25.5t49 9.5q50 0 93 -70q31 51 73 51q44 0 84 -93l5 53q-29 89 -100 145.5t-167 66.5l-53 78q269 175 399 193l7 40h-404l-37 45h538l34 -45h-82zM415 122l60 339q-98 -17 -287 -133q153 -57 225 -206h2z" />
    <glyph glyph-name="bh_ro_bn" horiz-adv-x="586" 
d="M697 577h-606l-37 45h609zM508 -34l-23 24q0 32 -2 55.5t-10.5 39t-25 23t-43.5 7.5q-8 0 -32 -2t-50.5 -4.5t-50.5 -4.5t-31 -2q-42 0 -74.5 15.5t-54 42.5t-29 64t-0.5 81q6 34 38 96l21 -17q-21 -36 -28 -73q-5 -28 1.5 -52t22.5 -42t39 -28t53 -10q5 0 22.5 1
t38.5 2.5t39 3t23 1.5q27 0 45.5 -2.5t33 -10t26 -21.5t25.5 -38h3l58 332h-3q-25 -30 -53.5 -54t-59 -41.5t-60.5 -26.5t-57 -9q-26 0 -46.5 9t-33.5 24t-19 34.5t-3 41.5q7 40 35 65t67 25q12 0 23.5 -5.5t19.5 -14.5t12 -20.5t2 -23.5q-5 -31 -30 -53q4 -5 10 -5
q28 0 74 35t89 101q15 -7 30 -19t27 -25.5t18 -28.5t4 -28z" />
    <glyph glyph-name="bh_r_ukar_bn" horiz-adv-x="799" 
d="M91 577l-37 45h818l38 -45h-819zM556 241l-48 -275l-23 24q0 32 -2 55.5t-10.5 39t-25 23t-43.5 7.5q-8 0 -32 -2t-50.5 -4.5t-50.5 -4.5t-31 -2q-42 0 -74.5 15.5t-54 42.5t-29 64t-0.5 81q6 34 38 96l21 -17q-21 -36 -28 -73q-5 -28 1.5 -52t22.5 -42t39 -28t53 -10
q5 0 22.5 1t38.5 2.5t39 3t23 1.5q27 0 45.5 -2.5t33 -10t26 -21.5t25.5 -38h3l58 332h-3q-25 -30 -53.5 -54t-59 -41.5t-60.5 -26.5t-57 -9q-26 0 -46.5 9t-33.5 24t-19 34.5t-3 41.5q7 40 35 65t67 25q12 0 23.5 -5.5t19.5 -14.5t12 -20.5t2 -23.5q-5 -31 -30 -53
q4 -5 10 -5q28 0 74 35t89 101q15 -7 30 -19t27 -25.5t18 -28.5t4 -28l-19 -105l7 -11q17 -37 41.5 -55t35.5 -18q16 0 32 5.5t29.5 16t23.5 25.5t13 33q4 25 -5 42t-20 17h-5q-1 -1 -4 -1q7 -11 5 -22q-8 -46 -56 -46q-22 0 -34.5 17.5t-8.5 41.5q4 22 24.5 40.5t48.5 18.5
q19 0 36 -9.5t29 -26.5t17 -40t0 -51q-4 -26 -16 -48.5t-29.5 -39.5t-40 -26.5t-47.5 -9.5q-8 0 -19.5 3.5t-23.5 11.5t-24.5 20.5t-22.5 29.5z" />
    <glyph glyph-name="bh_r_ookar_bn" horiz-adv-x="719" 
d="M91 577l-37 45h741l35 -45h-739zM572 331l-64 -365l-23 24q0 32 -2 55.5t-10.5 39t-25 23t-43.5 7.5q-8 0 -32 -2t-50.5 -4.5t-50.5 -4.5t-31 -2q-42 0 -74.5 15.5t-54 42.5t-29 64t-0.5 81q6 34 38 96l21 -17q-21 -36 -28 -73q-5 -28 1.5 -52t22.5 -42t39 -28t53 -10
q5 0 22.5 1t38.5 2.5t39 3t23 1.5q27 0 45.5 -2.5t33 -10t26 -21.5t25.5 -38h3l58 332h-3q-25 -30 -53.5 -54t-59 -41.5t-60.5 -26.5t-57 -9q-26 0 -46.5 9t-33.5 24t-19 34.5t-3 41.5q7 40 35 65t67 25q12 0 23.5 -5.5t19.5 -14.5t12 -20.5t2 -23.5q-5 -31 -30 -53
q4 -5 10 -5q28 0 74 35t89 101q15 -7 30 -19t27 -25.5t18 -28.5t4 -28l-4 -24q61 32 69 32q7 0 13.5 -8.5t13.5 -20.5t14.5 -25t14.5 -21q-12 -43 -21.5 -78.5t-14.5 -64.5q-25 -143 -11 -192l-4 -25l-45 52q-18 21 1 134q21 116 43 173q-2 10 -9 10q-6 0 -77 -39z" />
    <glyph glyph-name="bh_lo_bn" horiz-adv-x="700" 
d="M515 -205l-22 21q4 67 -14.5 101.5t-49.5 34.5q-41 0 -49 -45q-2 -14 -1 -36l-20 11q-35 84 -108 84q-18 0 -35.5 -6.5t-31 -17t-23 -24t-12.5 -27.5q-4 -22 9.5 -40.5t36.5 -21.5q-9 16 -5 37q8 46 57 46q17 0 28.5 -14.5t7.5 -35.5q-10 -57 -86 -57q-48 0 -70.5 32.5
t-13.5 83.5q4 23 16 44.5t30.5 37.5t42 25.5t49.5 9.5q48 0 92 -71q31 51 73 51q44 0 83 -92l13 135q-41 -15 -85 -15q-58 0 -105 29t-84 90.5t-65 156.5t-48 226l35 -21q75 -395 273 -395q37 0 76 14.5t71.5 39.5t55.5 57.5t30 68.5q9 55 -30 77q-108 -107 -210 -107
q-66 0 -97.5 31t-22.5 82q8 43 37.5 70t68.5 27q33 0 50.5 -21.5t12.5 -49.5q-6 -31 -31 -55q3 -7 10 -7q28 0 70.5 31t83.5 91q27 -10 46 -29.5t30.5 -45.5t13.5 -58t-4 -66q-10 -57 -42 -106.5t-85 -85.5zM811 577h-720l-37 45h722z" />
    <glyph glyph-name="m_no_bn" horiz-adv-x="534" 
d="M451 -57l-18 22q1 66 -14.5 111.5t-38.5 74t-49 41.5t-46 13q-15 0 -23 -4q17 -7 24.5 -28.5t4.5 -39.5q-3 -16 -12 -30.5t-22 -25t-28 -17t-30 -6.5q-39 0 -60.5 28t-14.5 71q8 45 45 74.5t86 29.5q131 0 179 -147l2 2l3 31l33 189q-7 -1 -13 -2t-12 -1q-44 0 -71 15
t-42 45q-17 37 -34.5 56t-30.5 22q1 -27 0 -34q-7 -38 -35 -62.5t-61 -24.5t-53.5 26t-13.5 65q6 38 38.5 61.5t84.5 23.5q4 7 6 22q2 9 -6 21t-21 12h-117l-37 45h554l37 -45h-88q25 -48 13 -116q-9 -47 -39 -86l-4 -5zM535 499q10 54 -52 78h-211q7 -24 1 -58
q17 -13 33.5 -31t35.5 -34t40 -27.5t46 -11.5q18 0 36 7t33 18.5t25 26.5t13 32z" />
    <glyph glyph-name="m_pho_bn" horiz-adv-x="959" 
d="M557 577q25 -48 13 -116q-7 -40 -28 -69h2q38 -35 62 -59.5t32 -38.5q-38 -27 -74 -52.5t-69 -51.5q19 -5 44.5 -20.5t49.5 -35t44.5 -41t30.5 -39.5l83 467q32 6 56 6q91 0 134 -47t28 -132q-9 -48 -39 -79t-66 -31q-67 0 -55 65q10 57 63 57q33 0 42 -27q20 9 24 33
q7 37 -19 60.5t-81 23.5q-28 0 -51 -3l-91 -520l-18 19q-1 31 -18 64t-48.5 60.5t-75.5 46t-97 21.5l-43 65l171 123l-40 40q-34 -37 -76 -37q-44 0 -71 15t-42 45q-17 37 -34.5 56t-30.5 22q1 -27 0 -34q-7 -38 -35 -62.5t-61 -24.5t-53.5 26t-13.5 65q6 38 38.5 61.5
t84.5 23.5q4 7 6 22q2 9 -6 21t-21 12h-117l-37 45h981l35 -45h-513zM272 577q7 -24 1 -58q17 -13 33.5 -31t35.5 -34t40 -27.5t46 -11.5q18 0 36 7t33 18.5t25 26.5t13 32q10 54 -52 78h-211z" />
    <glyph glyph-name="m_bo_bn" horiz-adv-x="532" 
d="M451 -51l-19 21q-5 34 -24.5 66t-49 57t-66.5 40.5t-79 17.5l-39 64q70 52 203 113l18 9q-41 12 -61 52q-37 74 -65 78q1 -27 0 -34q-7 -38 -35 -62.5t-61 -24.5t-53.5 26t-13.5 65q6 38 38.5 61.5t84.5 23.5q4 7 6 22q2 7 -5.5 19t-18.5 14h-120l-37 45h556l33 -45h-86
q25 -48 13 -116q-9 -47 -39 -86l-7 -8zM535 499q10 54 -52 78h-211q7 -24 1 -58q17 -13 33.5 -31t35.5 -34t40 -27.5t46 -11.5q18 0 36 7t33 18.5t25 26.5t13 32zM422 68l42 233q-126 -61 -187 -97q81 -27 143 -136h2z" />
    <glyph glyph-name="m_b_ro_bn" horiz-adv-x="532" 
d="M535 499q10 54 -52 78h-211q7 -24 1 -58q17 -13 33.5 -31t35.5 -34t40 -27.5t46 -11.5q18 0 36 7t33 18.5t25 26.5t13 32zM415 24l-7 12q-14 24 -35 44.5t-46 35.5t-54 24t-60 11l-39 64q70 52 203 113l18 9q-41 12 -61 52q-37 74 -65 78q1 -27 0 -34q-7 -38 -35 -62.5
t-61 -24.5t-53.5 26t-13.5 65q6 38 38.5 61.5t84.5 23.5q4 7 6 22q2 7 -5.5 19t-18.5 14h-120l-37 45h556l33 -45h-86q25 -48 13 -116q-9 -47 -39 -86l-7 -8l-85 -486l-23 25q1 18 -2 32.5t-13 24.5t-28.5 15.5t-48.5 5.5q-13 0 -38 -6t-62 -6q-35 0 -61.5 11t-42 31.5
t-22 48t-0.5 60.5q8 47 36 83l15 -20q-18 -44 -21 -57q-6 -37 11.5 -61t52.5 -24q54 0 83 1t32 0q40 0 62.5 -10t40.5 -40zM464 301q-126 -61 -187 -97q81 -27 143 -136h2z" />
    <glyph glyph-name="m_bho_bn" horiz-adv-x="631" 
d="M742 577h-103q24 -44 12 -113q-13 -77 -90 -105q66 -65 48 -169q-7 -42 -28 -78.5t-52 -62.5t-70 -41t-82 -15q-65 0 -110.5 27.5t-76.5 87.5t-48.5 156t-25.5 233l25 -19q6 -107 22.5 -182.5t45.5 -124t72 -71t103 -22.5q35 0 68 11.5t60 30.5t45 44t23 53q6 37 -6 56
q-21 -21 -45 -38.5t-50 -30.5t-51.5 -20.5t-47.5 -7.5q-55 0 -78 26t-16 68q6 33 28.5 53.5t52.5 20.5q25 0 37.5 -19t8.5 -43q-3 -18 -16 -29q2 -5 8 -5q12 0 33 11t43.5 27.5t42 35.5t27.5 35q-40 0 -62 15t-44 51q-37 58 -69 66q1 -26 0 -31q-6 -33 -30.5 -55t-52.5 -22
q-30 0 -48 22t-12 51q14 80 106 80q4 7 6 19q4 24 -18 24h-236l-37 45h655zM610 508q8 45 -38 69h-192q7 -21 2 -45q23 -12 41.5 -27.5t35.5 -29t33.5 -23t36.5 -9.5q31 0 53.5 18t27.5 47z" />
    <glyph glyph-name="m_bh_ro_bn" horiz-adv-x="553" 
d="M664 577h-106q24 -46 13 -110q-14 -80 -91 -108q54 -58 42 -126l-61 -343l-22 25q1 19 -2 35.5t-13.5 29t-29 20t-48.5 7.5q-8 0 -29.5 -2t-46 -4t-46 -4t-28.5 -2q-36 0 -64.5 14t-47 39t-25 59t1.5 75q8 50 41 102l15 -22q-21 -42 -26 -72q-10 -55 20 -86.5t87 -31.5
q1 0 16 1t32.5 2.5t32 2.5t15.5 1q28 0 48 -2.5t35 -10t28 -21t28 -35.5l44 249q-18 -18 -40 -33t-46 -26t-48 -17.5t-44 -6.5q-55 0 -78 26t-16 68q6 33 28.5 53.5t52.5 20.5q25 0 37 -19t8 -43q-3 -18 -16 -29q4 -5 9 -5q12 0 33 11t43.5 27.5t42 35.5t27.5 35
q-40 0 -62 15t-44 51q-37 58 -69 66q1 -26 0 -31q-6 -33 -30.5 -55t-52.5 -22q-30 0 -48.5 22t-12.5 51q14 80 107 80q3 10 5 19q4 24 -17 24h-155l-37 45h577zM529 508q8 45 -38 69h-192q7 -21 2 -45q22 -12 41 -27.5t36 -29t34 -23t36 -9.5q31 0 53.5 18t27.5 47z" />
    <glyph glyph-name="m_mo_bn" horiz-adv-x="761" 
d="M872 577h-82l-107 -611l-20 22q1 38 -9.5 70t-25.5 56t-33.5 38.5t-34.5 17.5q-27 -82 -110 -82q-37 0 -60.5 23.5t-16.5 59.5q7 39 37.5 66t78.5 27q18 0 26 -4q9 50 -20 83q-22 -14 -48 -14q-44 0 -71 15t-42 45q-17 37 -34.5 56t-30.5 22q1 -27 0 -34
q-7 -38 -35 -62.5t-61 -24.5t-53.5 26t-13.5 65q6 38 38.5 61.5t84.5 23.5q4 7 6 22q2 7 -5.5 19t-18.5 14h-120l-37 45h784zM570 461q-5 -23 -14.5 -45.5t-24.5 -40.5l-16 -18l13 -6q14 -11 25 -25.5t18 -30.5t9 -32.5t-1 -31.5q47 -29 78 -120h2l82 466h-184
q25 -48 13 -116zM535 499q10 54 -52 78h-211q7 -24 1 -58q17 -13 34 -30.5t35.5 -34t39.5 -28t46 -11.5q18 0 36 7t33 18.5t25 26.5t13 32z" />
    <glyph glyph-name="m_ro_bn" horiz-adv-x="558" 
d="M481 -27l-27 20q4 38 2 63.5t-11.5 41t-27.5 22t-47 6.5q-7 0 -29.5 -2t-48.5 -4.5t-49 -4.5t-30 -2q-39 0 -69.5 14t-50.5 38t-28.5 55t-2.5 65q7 40 25 70l19 -17q-8 -20 -12 -43q-4 -20 4 -39t25.5 -33.5t42 -23.5t53.5 -9q2 0 15.5 1t30.5 2.5t32 3t21 1.5
q30 0 50 -2.5t34.5 -9.5t27 -20t30.5 -35l35 200q-6 -2 -16 -2q-44 0 -71 15t-42 45q-17 37 -34.5 56t-30.5 22q1 -27 0 -34q-7 -38 -35 -62.5t-61 -24.5t-53.5 26t-13.5 65q6 38 38.5 61.5t84.5 23.5q4 7 6 22q2 9 -6.5 21t-20.5 12h-149l-37 45h580l35 -45h-80
q25 -48 13 -116q-9 -50 -39 -86l-14 -16zM567 499q10 54 -52 78h-211q7 -24 1 -58q17 -13 34 -30.5t35.5 -34t39.5 -28t46 -11.5q18 0 36 7t33 18.5t25 26.5t13 32z" />
    <glyph glyph-name="m_lo_bn" horiz-adv-x="534" 
d="M456 -34l-22 22q1 39 -2 74t-10 62t-17.5 42.5t-24.5 15.5q-19 0 -34 -16.5t-19 -36.5q-1 -8 0 -42l-20 11q-35 84 -108 84q-18 0 -35.5 -6t-31 -16t-23.5 -24t-13 -29q-4 -22 10 -40t38 -22q-10 16 -6 37q8 46 57 46q18 0 29 -15t7 -35q-10 -58 -85 -58q-48 0 -71 34
t-14 83q4 23 16 44.5t30 37.5t41.5 25.5t50.5 9.5q46 0 89 -65q36 59 77 59q40 0 72 -97h2l32 181l-12 -2t-12 -1q-44 0 -71 15t-42 45q-17 37 -34.5 56t-30.5 22q1 -27 0 -34q-7 -38 -35 -62.5t-61 -24.5t-53.5 26t-13.5 65q6 38 38.5 61.5t84.5 23.5q4 7 6 22q2 9 -6.5 21
t-20.5 12h-117l-37 45h556l35 -45h-88q25 -48 13 -116q-9 -47 -39 -86l-4 -5zM535 499q10 54 -52 78h-211q7 -24 1 -58q17 -13 34 -30.5t35.5 -34t39.5 -28t46 -11.5q18 0 36 7t33 18.5t25 26.5t13 32z" />
    <glyph glyph-name="z_ro_bn" horiz-adv-x="491" 
d="M388 105l83 472h-224l115 -161q-18 -11 -61.5 -41.5t-112.5 -81.5q20 -5 44.5 -20.5t51 -40t53 -56.5t49.5 -71h2zM403 -89l-23 24q3 47 -18.5 62.5t-73.5 15.5q-5 0 -26 -2t-44 -4t-40.5 -4t-15.5 -2q-35 0 -61 11.5t-42.5 31.5t-22.5 48t-1 61q9 47 36 82l17 -19
q-20 -46 -21 -57q-7 -37 10.5 -61.5t52.5 -24.5q6 0 29 0.5t48.5 1.5t47 1.5t23.5 0.5q65 0 96 -52l6 35q-15 33 -44.5 64t-65.5 55t-73 38t-67 14l-48 73q70 52 123.5 90t89.5 64q-50 61 -111 70q-60 9 -81.5 19t-20.5 30l-38 45h525l33 -45h-82z" />
    <glyph glyph-name="l_ko_bn" horiz-adv-x="745" 
d="M473 63l41 232q-128 -31 -205 -81q90 -34 161 -151h3zM575 365q34 -4 63.5 -22t49 -45t29 -60t3.5 -67q-16 -88 -88 -88q-26 0 -41 14.5t-11 36.5q9 50 54 50q35 0 51 -38q10 10 12 21q3 19 -7.5 41.5t-29.5 42t-44.5 33.5t-52.5 15l-63 -360l-19 21q0 25 -14.5 57.5
t-44.5 63.5t-75.5 56t-109.5 36l-35 54q202 119 324 137l1 8q-23 92 -65 92q-52 0 -63 -66q-2 -10 -2 -19v-19l-20 15q-28 85 -126 85q-42 0 -75 -22.5t-40 -59.5q-4 -24 8.5 -41t33.5 -17q2 0 7 0.5t12 1.5q-11 10 -7 35q9 49 61 49q20 0 32 -16.5t9 -36.5q-7 -36 -33 -54
t-64 -18q-51 0 -78 34.5t-17 89.5q5 27 20.5 51t37 42t47.5 28.5t51 10.5q77 0 110 -71q33 63 84 63q52 0 84 -102h3l26 150h-472l-34 45h765l34 -45h-244z" />
    <glyph glyph-name="l_go_bn" horiz-adv-x="583" 
d="M694 577h-82l-111 -633l-22 22q13 75 7.5 129.5t-23.5 90t-45.5 52.5t-58.5 17q-18 0 -36.5 -7.5t-34.5 -18.5t-28 -25t-16 -27q60 15 77 15q49 0 71.5 -25t16.5 -58q-9 -52 -63 -105l-86 27q18 9 36.5 22.5t34 27t25.5 25.5t12 20q4 27 -33 27q-33 0 -112 -51
q-23 -15 -36 -15q-37 0 -27 57q6 33 23 62.5t42 52t55 35.5t61 13q100 0 151 -115h3l32 180q-23 92 -64 92q-53 0 -64 -66q-2 -10 -2 -19v-19l-20 15q-28 85 -125 85q-43 0 -75.5 -22.5t-39.5 -59.5q-4 -24 8 -41t33 -17q2 0 7 0.5t12 1.5q-11 10 -7 35q9 49 61 49
q20 0 32 -16.5t9 -36.5q-7 -36 -33 -54t-64 -18q-51 0 -78 34.5t-17 89.5q5 27 20.5 51t37 42t47.5 28.5t51 10.5q77 0 110 -71q33 63 84 63q53 0 85 -102h2l26 150h-472l-34 45h604z" />
    <glyph glyph-name="l_ddo_bn" horiz-adv-x="843" 
d="M565 577h-474l-34 45h863l34 -45h-340l-41 -233q-4 -21 18 -21q59 0 183 143q85 -62 62 -191q-9 -53 -32.5 -96.5t-56.5 -75t-75 -49t-88 -17.5q-203 0 -223 267l33 -17q12 -78 63 -121.5t130 -43.5q39 0 75.5 14t66 37.5t49.5 54t26 62.5q8 45 -17 77
q-130 -116 -199 -116q-14 0 -26.5 9t-21.5 24t-13 34t-1 38l3 14l-2 2q-23 92 -65 92q-52 0 -63 -66q-2 -10 -2 -19v-19l-20 15q-28 85 -126 85q-42 0 -75 -22.5t-40 -59.5q-4 -24 8.5 -41t32.5 -17q3 0 8 0.5t12 1.5q-11 10 -7 35q9 49 61 49q20 0 32 -16.5t9 -36.5
q-7 -36 -33 -54t-64 -18q-51 0 -78 34.5t-17 89.5q5 27 20.5 51t37 42t47.5 28.5t51 10.5q77 0 110 -71q33 63 84 63q52 0 84 -102l4 -2z" />
    <glyph glyph-name="l_po_bn" horiz-adv-x="583" 
d="M694 577h-82l-111 -633l-22 22q22 165 -31 233q-81 -61 -137 -106.5t-90 -76.5l-74 25q79 65 85 97q7 39 -31 39q-9 0 -19.5 -3.5t-20 -7t-16.5 -7t-10 -3.5q-16 0 -25.5 11t-7.5 25q9 48 83 90q-44 3 -69.5 35.5t-15.5 87.5q5 27 20.5 51t37 42t47.5 28.5t51 10.5
q77 0 110 -71q33 63 84 63q52 0 84 -102h3l26 150h-472l-35 45h605zM495 192l32 180q-23 92 -65 92q-52 0 -63 -66q-2 -10 -2 -19v-19l-20 15q-28 85 -126 85q-42 0 -75 -22.5t-40 -59.5q-4 -24 8.5 -41t33.5 -17q2 0 7 0.5t12 1.5q-11 10 -7 35q9 49 61 49q20 0 32 -16.5
t9 -36.5q-3 -15 -8 -24h33q27 0 53 -11t48.5 -30.5t40 -45t26.5 -55.5q2 0 6 5h4zM406 245q-30 32 -82 32q-51 0 -125 -61q31 0 50 -19t14 -47q0 -1 -1 -4t-3 -8l1 -3z" />
    <glyph glyph-name="l_pho_bn" horiz-adv-x="995" 
d="M1106 577h-494l-32 -185q38 -35 62 -59.5t32 -38.5q-38 -27 -73.5 -52.5t-68.5 -51.5q18 -5 43.5 -20.5t49.5 -35t44.5 -41t30.5 -39.5l84 467q31 6 55 6q91 0 134 -47t28 -132q-9 -48 -39 -79t-66 -31q-67 0 -55 65q10 57 63 57q35 0 42 -27q20 9 24 33q7 37 -19 60.5
t-81 23.5q-28 0 -51 -3l-91 -520l-17 19q-2 31 -19.5 64t-48.5 60.5t-75 46t-97 21.5l-42 65q27 20 69.5 50.5t100.5 72.5q-14 20 -64 62q-30 76 -73 76q-52 0 -63 -66q-2 -10 -2 -19v-19l-20 15q-28 85 -126 85q-42 0 -75 -22.5t-40 -59.5q-4 -24 8.5 -41t33.5 -17
q2 0 7 0.5t12 1.5q-11 10 -7 35q9 49 61 49q20 0 32 -16.5t9 -36.5q-7 -36 -33 -54t-64 -18q-51 0 -78 34.5t-17 89.5q5 27 20.5 51t37 42t47.5 28.5t51 10.5q77 0 110 -71q33 63 84 63q52 0 84 -102h3l26 150h-472l-34 45h1016z" />
    <glyph glyph-name="l_bo_bn" horiz-adv-x="583" 
d="M693 577h-81l-110 -628l-19 21q-5 34 -25 66t-49.5 57t-66.5 40.5t-79 17.5l-39 64q22 16 56 36t74.5 41t85 41.5t87.5 38.5q-23 92 -65 92q-52 0 -63 -66q-2 -10 -2 -19v-19l-20 15q-28 85 -126 85q-42 0 -75 -22.5t-40 -59.5q-4 -24 8.5 -41t33.5 -17q2 0 7 0.5t12 1.5
q-11 10 -7 35q9 49 61 49q20 0 32 -16.5t9 -36.5q-7 -36 -33 -54t-64 -18q-51 0 -78 34.5t-17 89.5q5 27 20.5 51t37 42t47.5 28.5t51 10.5q77 0 110 -71q33 63 84 63q52 0 84 -102h3l26 150h-472l-35 45h604zM473 68l42 233q-63 -30 -109.5 -54t-78.5 -43q81 -27 143 -136
h3z" />
    <glyph glyph-name="l_bho_bn" horiz-adv-x="583" 
d="M563 577h-472l-35 45h604l33 -45h-81l-51 -293q36 -52 24 -122q-7 -41 -26.5 -74.5t-48 -57.5t-65 -37t-77.5 -13q-98 0 -159 70.5t-88 226.5l34 -25q36 -95 87 -141t133 -46q36 0 66.5 9t54 25.5t39 39.5t20.5 50q4 24 -5 44q-87 -90 -186 -90q-103 0 -87 92
q5 26 25 45.5t47 19.5q22 0 35 -15.5t9 -36.5q-5 -28 -21 -40q2 -4 10 -4q9 0 24 5.5t32.5 15.5t36.5 24.5t36 32.5l16 91q-23 91 -65 91q-52 0 -63 -66q-2 -10 -2 -19v-19l-20 15q-28 85 -126 85q-42 0 -75 -22.5t-40 -59.5q-4 -24 8.5 -41t33.5 -17q2 0 7 0.5t12 1.5
q-11 10 -7 35q9 49 61 49q20 0 32 -16.5t9 -36.5q-7 -36 -33 -54t-64 -18q-51 0 -78 34.5t-17 89.5q5 27 20.5 51t37 42t47.5 28.5t51 10.5q77 0 110 -71q33 63 84 63q52 0 84 -102h3z" />
    <glyph glyph-name="l_mo_bn" horiz-adv-x="767" 
d="M567 320q13 -21 17.5 -45.5t0.5 -43.5q47 -29 78 -120h2l82 466h-135zM844 622l34 -45h-82l-107 -611l-20 22q1 38 -9.5 70t-25.5 56t-34 38.5t-35 17.5q-26 -82 -109 -82q-38 0 -61.5 23.5t-16.5 59.5q7 39 38 66t79 27q18 0 25 -4q3 6 5 17q3 15 0 38.5t-11.5 46
t-23 39t-36.5 16.5q-52 0 -64 -66q-1 -9 -1 -18v-19l-21 14q-29 86 -126 86q-42 0 -75 -23t-39 -59q-4 -25 8.5 -42t33.5 -17q2 0 7 1t12 2q-11 10 -7 35q9 49 61 49q20 0 32 -16.5t8 -37.5q-6 -35 -32 -53.5t-64 -18.5q-51 0 -78 35t-17 90q5 27 20.5 51t37 41.5t47.5 28
t51 10.5q77 0 110 -70q33 63 84 63q52 0 84 -102h3l34 196h-472l-35 45h788z" />
    <glyph glyph-name="l_ro_bn" horiz-adv-x="622" 
d="M524 -146l-38 34q1 44 -18.5 60t-71.5 16q-15 0 -34 -2t-45.5 -5t-61 -5t-81.5 -2q-35 0 -61 11t-42.5 31.5t-23 48t-0.5 60.5q9 48 36 83l16 -19q-9 -22 -14.5 -36t-7.5 -22q-6 -36 11.5 -60.5t53.5 -24.5q61 4 103 5.5t67 1.5q49 0 78.5 -2.5t47.5 -9.5t28.5 -21
t21.5 -36h3l68 372q-27 91 -73 91q-24 0 -44 -23.5t-26 -57.5q-4 -23 -2 -38l-22 14q-29 104 -127 104q-26 0 -49.5 -8.5t-42.5 -24t-32 -37t-18 -46.5q-3 -22 0.5 -41.5t13 -33.5t24 -22.5t32.5 -8.5q6 0 21 3q-19 20 -14 52q3 12 10 23.5t17.5 21t24 15.5t28.5 6
q33 0 50.5 -23t11.5 -56q-7 -42 -39 -68t-87 -26q-35 0 -62 13.5t-44.5 38t-23.5 58.5t1 75q7 36 24 66.5t42 52.5t55 34.5t62 12.5q79 0 110 -82q41 78 96 78q61 0 92 -111h5l34 193h-516l-35 45h642l35 -45h-82z" />
    <glyph glyph-name="l_lo_bn" horiz-adv-x="592" 
d="M535 370q-26 94 -70 94q-21 0 -38.5 -19.5t-22.5 -49.5q-7 -41 -6 -51l-18 13q-14 58 -50.5 81.5t-106.5 23.5q-83 0 -98 -85q-2 -11 1.5 -21.5t10.5 -19t16.5 -14t20.5 -5.5q9 0 18 3q-15 18 -10 46q4 21 23 40.5t44 19.5q27 0 41 -21t9 -50q-6 -35 -35 -59.5t-69 -24.5
q-55 0 -81 33t-17 84q12 66 50.5 107.5t93.5 41.5q28 0 49 -4t36 -13t25.5 -24.5t18.5 -39.5q38 80 87 80q57 0 88 -110l5 7l25 144h-484l-35 45h613l34 -45h-82l-110 -623l-44 62q5 14 7 26t3 20l3 17q4 21 -6 39t-23 31t-26 20.5t-16 7.5q-10 0 -20.5 -6t-20 -15.5
t-16 -21t-8.5 -22.5q-1 -6 -1 -16.5v-24.5l-20 13q-25 87 -133 87q-15 0 -31.5 -5t-30 -14t-23.5 -22t-13 -29q-2 -11 2 -23t11 -21.5t16 -15.5t17 -6q9 0 15 2q-14 17 -10 42q4 19 21 36.5t41 17.5t36 -19.5t7 -45.5q-13 -77 -96 -77q-19 0 -37 10t-31 26.5t-19 38t-2 45.5
q9 51 44.5 86.5t86.5 35.5q85 0 124 -55q43 59 87 59q66 0 84 -99q1 -2 1 -4z" />
    <glyph glyph-name="l_so_bn" horiz-adv-x="819" 
d="M551 377l19 21q2 7 3.5 15.5t3.5 18.5q3 19 -3.5 37t-21 31.5t-36.5 23t-48 12.5q-30 2 -48.5 4.5t-28 7t-12 11.5t-0.5 18h-288l-35 45h839l35 -45h-82l-110 -623l-40 62l57 306q-19 57 -57 57q-20 0 -36 -11.5t-35 -34t-43.5 -56t-62.5 -77.5q-25 -29 -49 -29
q-11 0 -25.5 6.5t-29.5 17.5t-30 25t-27 29l20 38q30 -44 54 -44q10 0 23.5 12t25 26.5t19 27t7.5 14.5l9 13q-12 32 -29.5 56t-34.5 24q-52 0 -64 -66q-3 -16 -1 -38l-21 15q-28 85 -126 85q-42 0 -75 -22.5t-39 -58.5q-5 -25 7.5 -42t33.5 -17q2 0 7.5 0.5t12.5 2.5
q-11 10 -7 35q9 49 61 49q20 0 32 -16.5t8 -37.5q-6 -35 -32 -53.5t-64 -18.5q-51 0 -78 35t-18 89q5 27 21 51t37.5 42t47.5 28.5t51 10.5q77 0 109 -71q33 64 84 64q56 0 90 -110l3 -15zM804 577h-251v-2q70 -47 56 -124q-1 -3 -2.5 -10t-4.5 -16l2 -3q37 43 76 43
q43 0 83 -97h4z" />
    <glyph glyph-name="sh_ukar_bn" horiz-adv-x="700" 
d="M710 373q-5 -30 -24 -57.5t-40 -38.5q21 -44 13 -88q-6 -33 -22.5 -60.5t-42 -48t-58.5 -32t-72 -11.5q-285 0 -338 516l23 -10q41 -428 320 -428q30 0 56 7.5t46.5 21t34 32t16.5 39.5q6 30 0 47q-23 -22 -63 -22q-31 0 -49 20.5t-13 50.5q12 66 78 66q33 0 52 -23
q34 19 41 58q6 32 -13 72l-29 59q-17 -39 -37.5 -75t-30.5 -61l-14 13l-13 58q-11 48 -27.5 70.5t-35.5 22.5q-28 0 -60 -43q73 -51 64 -100q-4 -21 -21.5 -36.5t-41.5 -15.5q-39 0 -59 64q-36 -64 -81 -64q-22 0 -36.5 16.5t-10.5 41.5q8 48 101 95q-12 48 -53 48h-179
l-35 45h205q72 0 83 -82q71 82 116 82q15 0 24 -3t17 -14.5t17 -33.5t24 -60q28 55 55 128l17 -14q8 -25 21 -51.5t32 -56.5q53 -87 43 -144z" />
    <glyph glyph-name="sh_co_bn" horiz-adv-x="868" 
d="M788 301q5 28 -17 32q-34 7 -63.5 23t-52 38.5t-36.5 49.5t-17 56h-2l-62 -347q-12 -72 27 -72q7 0 25 9t41 24.5t48.5 36.5t48 45.5t39 51t21.5 53.5zM538 426q-43 124 -103 124q-38 0 -85 -57q102 -72 90 -140q-5 -28 -30 -51t-56 -23q-57 0 -83 91q-53 -91 -113 -91
q-31 0 -51.5 23t-14.5 59q12 68 141 133q-9 83 -70 83h-72l-34 45h89q100 0 116 -113q98 113 160 113q71 0 126 -136l19 106l-9 30h387l34 -45h-366l-5 -28q2 -21 15 -43.5t35.5 -41.5t54 -31.5t68.5 -14.5q20 -1 35 -13q31 -22 44 -42t7 -54q-5 -29 -23 -62t-43 -65.5
t-55.5 -63t-62 -53.5t-61 -36.5t-52.5 -13.5q-7 0 -22 10t-30 29t-24 47t-2 65z" />
    <glyph glyph-name="sh_cho_bn" horiz-adv-x="902" 
d="M538 426q-43 124 -103 124q-38 0 -85 -57q102 -72 90 -140q-5 -28 -30 -51t-56 -23q-57 0 -83 91q-53 -91 -113 -91q-31 0 -51.5 23t-14.5 59q12 68 141 133q-9 83 -70 83h-72l-31 45h86q100 0 116 -113q98 113 160 113q71 0 126 -136l19 106l-16 30h427l35 -45h-399
l-2 -13q21 -65 127 -65q3 0 10.5 1.5t16.5 3t17 3t14 1.5q21 0 43 -14.5t38.5 -37t25.5 -50t5 -53.5q-12 -64 -69 -114t-155 -73l-1 -3q28 -3 64.5 -23t73.5 -49t71 -63t56 -66l5 -53q-58 61 -105.5 101.5t-91.5 65.5t-87.5 36t-93.5 12l-36 103q30 -18 67 -18q38 0 79 17
t76.5 43t59.5 57t30 60q5 30 -7 48.5t-32 20.5q1 -1 -32 -5q-1 -10 -1 -14.5v-6.5q-4 -25 -25 -52.5t-48 -50t-57 -37t-52 -14.5q-5 0 -18 5.5t-25.5 19t-21 35.5t-2.5 55zM711 428q0 3 0.5 7.5t0.5 11.5q-87 0 -105 72h-4l-27 -153q-7 -39 14 -39q10 0 31 11q82 45 90 90z
" />
    <glyph glyph-name="sh_no_bn" horiz-adv-x="584" 
d="M538 426q-43 124 -103 124q-38 0 -85 -57q102 -72 90 -140q-5 -28 -30 -51t-56 -23q-57 0 -83 91q-53 -91 -113 -91q-31 0 -51.5 23t-14.5 59q12 68 141 133q-9 83 -70 83h-72l-34 45h89q100 0 116 -113q98 113 160 113q71 0 126 -136l4 1l43 240l19 -28q-6 -34 9 -55.5
t36 -21.5l36 -45h-41q-32 0 -36 13h-2l-115 -651l-19 22q1 57 -10 98t-30 67.5t-44 38.5t-54 12q-14 0 -22 -4q30 -17 22 -60q-5 -31 -30.5 -51.5t-56.5 -20.5q-17 0 -32 7t-25 19t-14.5 27.5t-1.5 32.5q8 45 44 73.5t91 28.5q105 0 162 -114h2z" />
    <glyph glyph-name="sh_bo_bn" horiz-adv-x="603" 
d="M714 577h-40q-32 0 -36 13h-3l-116 -658l-18 23q0 21 -16.5 49t-45.5 54.5t-69 45.5t-85 22l-31 55q152 96 288 162l10 57l-17 31q-23 39 -37.5 62.5t-25.5 36t-19.5 16.5t-18.5 4q-37 0 -84 -57q102 -72 90 -140q-3 -14 -10.5 -27t-19.5 -23.5t-26.5 -17t-30.5 -6.5
q-56 0 -82 91q-53 -91 -113 -91q-32 0 -52 23t-14 59q12 68 141 133q-9 83 -70 83h-72l-36 45h91q100 0 116 -113q98 113 160 113q16 0 35 -11.5t37.5 -34t35.5 -57.5t29 -81l3 1l51 288l21 -28q-6 -34 8.5 -55.5t35.5 -21.5zM489 43l40 227q-86 -38 -180 -100
q87 -32 138 -127h2z" />
    <glyph glyph-name="sh_mo_bn" horiz-adv-x="776" 
d="M887 577h-82l-111 -633l-20 22q1 40 -9.5 73t-27.5 56t-37 36t-38 14q-3 -18 -13 -32.5t-24.5 -25t-31.5 -16t-34 -5.5q-36 0 -58 23t-15 60q6 38 36.5 65.5t75.5 27.5q12 0 33 -8l27 155q-27 48 -46.5 79.5t-26.5 41.5q-29 40 -51 40q-37 0 -84 -57q102 -72 90 -140
q-3 -14 -10.5 -27t-19.5 -23.5t-26.5 -17t-30.5 -6.5q-56 0 -82 91q-53 -91 -113 -91q-32 0 -52 23t-14 59q12 68 141 133q-9 83 -70 83h-72l-35 45h90q100 0 116 -113q98 113 160 113q17 0 37 -12.5t39 -37.5t36.5 -63t29.5 -89l54 307l23 -28q-6 -34 9 -55.5t43 -21.5h159
zM671 90l86 487h-76q-32 0 -36 13h-2l-66 -374q56 -35 91 -126h3z" />
    <glyph glyph-name="sh_ro_bn" horiz-adv-x="639" 
d="M561 -34l-23 27q1 37 -2 60.5t-12.5 36.5t-27.5 17.5t-46 4.5l-217 -13q-105 0 -151.5 52.5t-29.5 146.5q7 40 29 81l19 -17q-13 -30 -17 -55q-23 -131 152 -131l71 4q35 2 57.5 3t35.5 1q26 0 45 -2t34.5 -9t29.5 -20t31 -35l58 329q-49 103 -100 103q-40 0 -81 -49
q96 -73 86 -131q-6 -31 -31 -54t-53 -23q-58 0 -83 89q-50 -87 -110 -87q-17 0 -30 6.5t-21 17.5t-11.5 25t-1.5 29q13 71 138 133q-11 71 -109 71h-99l-34 45h150q97 0 123 -105q90 105 155 105q62 0 117 -133h3l42 238l21 -28q-6 -34 9 -55.5t37 -21.5l36 -45h-41
q-37 0 -40 13l-4 -2q4 -8 2 -17z" />
    <glyph glyph-name="sh_lo_bn" horiz-adv-x="592" 
d="M703 577h-40q-32 0 -36 13h-3l-115 -651l-19 22q1 35 -2 71.5t-11 66.5t-20.5 49t-30.5 19q-9 0 -17.5 -5.5t-16 -14t-13 -19t-6.5 -19.5q-3 -13 -2 -43l-20 11q-35 84 -108 84q-18 0 -35 -6.5t-31 -17t-23.5 -23.5t-11.5 -27q-4 -22 9 -41t38 -22q-9 16 -6 37
q8 46 56 46q17 0 29 -14.5t9 -35.5q-10 -57 -86 -57q-48 0 -71 32.5t-14 83.5q4 23 16.5 44.5t30.5 37.5t41.5 25.5t49.5 9.5q46 0 88 -66q43 66 80 66q42 0 80 -99h2l49 275l3 3q-17 39 -36.5 65.5t-24.5 32.5q-29 40 -51 40q-37 0 -84 -57q102 -72 90 -140
q-3 -14 -10.5 -27t-19.5 -23.5t-26.5 -17t-30.5 -6.5q-56 0 -82 91q-53 -91 -113 -91q-32 0 -52 23t-14 59q12 68 141 133q-9 83 -70 83h-72l-35 45h90q100 0 116 -113q98 113 160 113t122 -134l9 -29l48 268l22 -28q-6 -34 8.5 -55.5t35.5 -21.5z" />
    <glyph glyph-name="ss_ko_bn" horiz-adv-x="613" 
d="M514 454q-12 -63 -65 -112q33 -6 60 -25t45.5 -46t26.5 -59t3 -63q-16 -88 -88 -88q-26 0 -41 14.5t-11 36.5q9 50 54 50q34 0 50 -38q11 9 13 21q3 19 -7.5 41.5t-30 42t-45 33.5t-52.5 15l-63 -360l-18 21q-1 25 -15.5 57.5t-44.5 63.5t-75.5 56t-109.5 36l-35 54
q84 50 151 80q-51 19 -72.5 58.5t-13.5 84.5q14 81 86 149h-125l-37 45h634l36 -45h-230l9 -18q13 -25 13 -51.5t-2 -53.5zM382 368q70 37 85 120q14 83 -70 89h-8q-43 0 -101 -29zM352 353l-89 173q-73 -62 -82 -112q-15 -86 80 -86q34 0 52.5 8t38.5 17zM336 41l41 232
q-128 -31 -205 -81q91 -34 162 -151h2z" />
    <glyph glyph-name="ss_k_ro_bn" horiz-adv-x="764" 
d="M740 177q-5 -24 -15.5 -45t-25.5 -36.5t-34 -24.5t-38 -9q-28 0 -42.5 17t-9.5 42q9 50 56 50q41 0 48 -53q22 11 28 41q2 15 -3 30t-15.5 26.5t-26.5 19t-34 7.5q-56 0 -107 -61l-68 -388l-22 24q8 107 -88 107q-9 0 -27.5 -2t-38 -4t-37.5 -4t-27 -2q-93 0 -137 53.5
t-27 149.5q8 44 44 101l15 -21q-18 -38 -24 -72q-23 -134 132 -134q3 0 14.5 1t24.5 2.5t24.5 2.5t14.5 1q25 0 43 -3.5t32.5 -11.5t28 -21.5t31.5 -32.5l65 373q9 48 -23 48q-11 0 -23.5 -6t-26 -15t-28 -18.5t-27.5 -16.5q-64 -49 -71 -91q-2 -9 0 -18q29 17 46 17
q59 0 49 -57q-6 -30 -33.5 -51.5t-63.5 -21.5q-48 0 -72 30.5t-16 78.5q8 46 46 93q-31 4 -58 18t-45.5 34.5t-26.5 47t-3 56.5q14 81 85 149h-112l-38 45h785l37 -45h-393l9 -18q12 -23 13.5 -50.5t-2.5 -54.5q-5 -28 -21 -56q35 -13 50.5 -41.5t11.5 -51.5l-13 -76
q36 31 65.5 52.5t57.5 21.5q24 0 42 -10.5t29.5 -27.5t15.5 -40t0 -48zM454 488q15 89 -77 89h-10q-45 -5 -92 -29l95 -178l17 8q54 38 67 110zM340 353l-89 173q-74 -62 -83 -112q-15 -86 80 -86q35 0 53.5 8t38.5 17z" />
    <glyph glyph-name="ss_tto_bn" horiz-adv-x="574" 
d="M646 622l39 -45h-217l2 -4q46 -53 35 -114q-7 -41 -68 -103l-32 -30q-23 -21 -50.5 -42.5t-53 -40t-44.5 -31.5t-26 -18q-42 -40 -49 -76q-4 -23 18 -37t52 -14q35 0 73 9.5t70 24t54 31.5t24 31q1 2 -2.5 2.5t-16.5 0.5q-67 0 -57 60q13 70 80 70q94 0 74 -109
q-6 -34 -32.5 -63t-64.5 -50.5t-84.5 -34t-92.5 -12.5q-102 0 -116 25q-38 58 -28 113q8 45 89 111h-5q-16 0 -37 12.5t-40 33.5t-30 48.5t-6 57.5q14 81 86 149h-99l-37 45h592zM353 375l18 13q32 23 47.5 44t22.5 56q15 89 -78 89q-44 0 -102 -29zM322 351l3 3l-88 172
q-74 -62 -83 -112q-15 -86 81 -86q33 0 51 7t36 16zM481 622q26 12 30 34q9 50 -83 50q-42 0 -77.5 -2t-59.5 -2q-29 0 -57.5 7.5t-49.5 24t-32 42.5t-5 62q7 39 33 62l23 -17q-21 -18 -26 -44q-12 -68 85 -68q12 0 30 1t37 2.5t37.5 2.5t30.5 1q165 0 142 -156h-58z" />
    <glyph glyph-name="ss_tt_ro_bn" horiz-adv-x="574" 
d="M353 375l18 13q32 23 47.5 44t22.5 56q15 89 -78 89q-44 0 -102 -29zM322 351l3 3l-88 172q-74 -62 -83 -112q-15 -86 81 -86q33 0 51 7t36 16zM487 95l-47 -270l-28 24q5 82 -113 82l-126 -15q-32 0 -59 13.5t-44 37t-25 53.5t-2 63q5 25 18 49l20 -11q-2 -5 -8 -39
q-3 -19 4 -36t20.5 -30t33 -20.5t42.5 -7.5l111 4q73 0 129 -68l3 2l25 140q-36 -18 -79.5 -28.5t-84.5 -10.5q-102 0 -116 25q-38 58 -28 113q8 45 89 111h-5q-16 0 -37 12.5t-40 33.5t-30 48.5t-6 57.5q14 81 86 149h-99l-37 45h427q26 12 30 34q9 50 -83 50
q-42 0 -77.5 -2t-59.5 -2q-29 0 -57.5 7.5t-49.5 24t-32 42.5t-5 62q7 39 33 62l23 -17q-21 -18 -26 -44q-12 -68 85 -68q12 0 30 1t37 2.5t37.5 2.5t30.5 1q165 0 142 -156h107l39 -45h-217l2 -4q46 -53 35 -114q-7 -41 -68 -103l-32 -30q-23 -21 -50.5 -42.5t-53 -40
t-44.5 -31.5t-26 -18q-42 -40 -49 -76q-4 -23 18 -37t52 -14q34 0 72.5 9.5t70.5 24t54 31.5t24 31q0 1 -3 2t-16 1q-67 0 -57 60q13 70 80 70q94 0 74 -109q-4 -26 -21 -50t-43 -42z" />
    <glyph glyph-name="ss_ttho_bn" horiz-adv-x="583" 
d="M694 577h-182q18 -30 31.5 -71t22.5 -85t11 -86.5t-4 -75.5q-9 -54 -33.5 -97.5t-58 -74.5t-74.5 -48t-83 -17q-35 0 -63 13t-46.5 35t-26.5 51.5t-2 63.5q4 24 14 47l70 34q-6 -1 -11 -1h-11q-28 0 -53 9t-42.5 23.5t-27 31.5t-7.5 32q1 7 19 28.5t39.5 45t39 43.5
t18.5 25q2 8 -15.5 18t-41.5 20q-24 9 -49 22t-42 14h-5l-29 45h396q-111 51 -77 245q14 75 77 99l46 -35q-76 -31 -86 -89q-3 -18 -1 -36.5t12 -43t27.5 -58t44.5 -82.5h168zM525 294q5 27 5 59.5t-4 64t-12 59.5t-18 45l-2 -1q0 -10 -1.5 -22t-3.5 -27q-8 -45 -30.5 -90
t-54.5 -85t-70.5 -72t-78.5 -49q-9 -15 -13 -38q-6 -34 12.5 -55.5t56.5 -21.5q34 0 69 18.5t64.5 50.5t51 74t29.5 90zM452 577h-238l203 -155q23 39 32 89q6 39 3 66zM394 386l-100 68l-47 -40q-17 -15 -26.5 -29t-11.5 -24q-2 -15 3 -28.5t15.5 -23.5t25.5 -16t32 -6
q2 0 5 0.5t6 0.5l46 37q46 42 52 61z" />
    <glyph glyph-name="ss_nno_bn" horiz-adv-x="783" 
d="M640 122q-28 0 -54.5 11.5t-49.5 32.5t-39.5 50t-26.5 65l-54 -308l-19 20q-3 45 -30.5 88t-67 76t-85 53.5t-84.5 20.5l-48 73q74 55 129 94.5t93 65.5q-28 24 -56.5 37t-52.5 20t-42 10t-27 6q-44 14 -43 40h-2l-37 45h486l-29 -164q42 69 98 110.5t107 41.5
q55 0 83 -36t17 -99q-11 -61 -66 -116q39 -69 28 -128q-4 -22 -16 -41.5t-29.5 -34.5t-39 -24t-43.5 -9zM631 194q18 0 35.5 6.5t31.5 17t23.5 23.5t12.5 27q6 38 -22 61q-35 -33 -71 -33q-28 0 -44 19t-11 46q2 13 10 26t19.5 23.5t24.5 16.5t26 6q32 0 48 -26q49 18 58 65
q2 15 -2 28.5t-14 23t-23.5 15t-29.5 5.5q-29 0 -64 -16.5t-67 -41.5t-56 -54.5t-29 -54.5l-1 -5q-5 -29 5 -60t30 -57.5t48.5 -43.5t61.5 -17zM390 105l43 246q-17 20 -35 37t-36 32q-36 -25 -78 -56.5l-94 -70.5q23 -6 48.5 -23.5t52 -42t51.5 -56t46 -66.5h2zM440 387
l33 190h-237v-2q46 -35 96.5 -81.5t107.5 -106.5z" />
    <glyph glyph-name="ss_pho_bn" horiz-adv-x="878" 
d="M884 348q-9 -48 -39 -79t-66 -31q-67 0 -55 65q10 57 63 57q33 0 42 -27q20 9 24 33q7 37 -19 60.5t-81 23.5q-28 0 -51 -3l-91 -520l-18 19q-1 31 -18 64t-48.5 60.5t-75.5 46t-97 21.5l-43 65l171 123q-6 7 -15.5 16t-22.5 22q-38 -48 -86 -70t-100 -22q-33 0 -63.5 12
t-52.5 33t-33 49.5t-5 61.5q14 81 86 149h-99l-37 45h903l32 -45h-521l9 -18q12 -23 13.5 -50.5t-2.5 -54.5q-6 -32 -25 -64q76 -68 94 -96q-38 -27 -74 -52.5t-69 -51.5q19 -5 44.5 -20.5t49.5 -35t44.5 -41t30.5 -39.5l83 467q32 6 56 6q91 0 134 -47t28 -132zM356 368
q70 37 85 120q14 83 -70 89h-18q-20 -2 -43.5 -9t-48.5 -20zM326 353l-89 173q-74 -62 -83 -112q-15 -86 81 -86q34 0 52.5 8t38.5 17z" />
    <glyph glyph-name="ss_bo_bn" horiz-adv-x="450" 
d="M363 -81l-18 21q-5 35 -25 67t-49.5 57t-66.5 40.5t-79 17.5l-39 63q26 20 62.5 41.5t86.5 46.5q-30 4 -56 18t-44 34.5t-27 47t-4 55.5q14 81 85 149h-98l-37 45h474l33 -45h-93l9 -18q12 -23 13.5 -50.5t-2.5 -54.5q-10 -53 -47 -95zM356 368q69 38 84 120
q15 89 -77 89h-10q-45 -5 -92 -29zM326 353l-89 173q-74 -62 -83 -112q-15 -86 81 -86q34 0 52.5 8t38.5 17zM335 39l41 233q-63 -30 -109 -54t-78 -44q81 -26 143 -135h3z" />
    <glyph glyph-name="ss_mo_bn" horiz-adv-x="639" 
d="M750 577h-82l-117 -667l-22 22q1 40 -7 68.5t-22 46t-32.5 26t-38.5 9.5q-6 -36 -35 -59t-67 -23q-31 0 -49 23t-13 55q3 14 10.5 27.5t19.5 24.5t27.5 17.5t33.5 6.5q19 0 21 -1q8 42 -2 72t-48 59q-14 -12 -70 -12q-34 0 -64 12t-52 33t-32.5 49.5t-4.5 61.5
q14 82 85 149h-98l-37 45h659zM356 368q69 38 84 120q15 89 -77 89q-44 0 -102 -29zM526 49l93 528h-155l18 -28q15 -40 6 -95q-19 -107 -133 -156q19 -4 35.5 -23.5t28 -44.5t17 -50t2.5 -40q47 -16 85 -91h3zM326 353l-90 173q-73 -62 -82 -112q-15 -86 80 -86
q35 0 53.5 8t38.5 17z" />
    <glyph glyph-name="ss_ro_bn" horiz-adv-x="489" 
d="M423 368q69 38 84 120q14 83 -69 89q-52 0 -110 -29zM301 328q34 0 52.5 8t39.5 17l-90 173q-73 -62 -82 -112q-15 -86 80 -86zM412 -27l-26 20q4 42 1 68t-13 40.5t-28 19.5t-45 5q-5 0 -28.5 -2t-66.5 -6l-21 -1q-30 0 -57.5 13t-46.5 35.5t-28 53.5t-3 66q6 38 24 70
l19 -17q-8 -20 -12 -43q-4 -19 3.5 -37t23 -32.5t37.5 -23t49 -8.5q5 0 13 0.5t16.5 1.5t16 1.5t10.5 0.5q32 0 53 -2.5t35 -10t25.5 -20.5t27.5 -34l28 161q-46 -20 -95 -20q-37 0 -67.5 13.5t-51.5 35.5t-30.5 50t-4.5 57q14 81 86 149h-165l-37 45h512l34 -45h-66l9 -18
q10 -23 13.5 -48.5t-1.5 -56.5q-12 -68 -81 -126z" />
    <glyph glyph-name="s_ko_bn" horiz-adv-x="717" 
d="M794 622l34 -45h-211q45 -43 30 -127q-3 -15 -10.5 -30t-18.5 -28.5t-24.5 -25t-28.5 -17.5q32 -7 57 -26.5t42 -46t24 -57t2 -60.5q-16 -88 -88 -88q-25 0 -40.5 14.5t-11.5 36.5q9 50 54 50q35 0 51 -38q10 10 12 21q3 19 -7.5 41.5t-29.5 42t-44.5 33t-52.5 15.5
l-63 -360l-19 21q0 25 -14.5 57.5t-44.5 63.5t-75.5 56t-109.5 36l-36 54q195 115 309 134q-24 10 -44.5 35t-35 54.5t-21.5 58t-4 45.5q-63 -192 -157 -192q-81 0 -105 131l26 13q22 -82 57 -82q76 0 140 165h-245l-41 45h744zM608 489q14 82 -77 88h-130q-3 -21 4.5 -49
t24 -53.5t39 -43t49.5 -17.5q29 0 56.5 20t33.5 55zM442 51l41 232q-64 -16 -115 -36.5t-89 -45.5q90 -34 161 -150h2z" />
    <glyph glyph-name="s_k_ro_bn" horiz-adv-x="826" 
d="M647 450q-4 -23 -19.5 -47t-38.5 -41q21 -29 16 -57l-13 -76q36 31 65.5 52.5t57.5 21.5q24 0 42 -10.5t29.5 -27.5t15.5 -40t0 -48q-5 -24 -15.5 -45t-25.5 -36.5t-34 -24.5t-38 -9q-28 0 -42.5 17t-9.5 42q9 50 56 50q41 0 48 -53q22 11 28 41q2 15 -3 30t-15.5 26.5
t-26.5 19t-34 7.5q-56 0 -107 -61l-68 -388l-22 24q8 107 -88 107q-9 0 -27.5 -2t-38 -4t-37.5 -4t-27 -2q-93 0 -137 53.5t-27 149.5q8 44 44 101l15 -21q-18 -38 -24 -72q-23 -134 132 -134q3 0 14.5 1t24.5 2.5t24.5 2.5t14.5 1q25 0 43 -3.5t32.5 -11.5t28 -21.5
t31.5 -32.5l65 373q6 33 -10 44q-6 -1 -12 -1.5t-12 -0.5h-13q-26 -10 -52 -27.5t-47.5 -38t-35.5 -40.5t-17 -35q-2 -9 0 -18q29 17 46 17q59 0 49 -57q-6 -30 -33.5 -51.5t-63.5 -21.5q-48 0 -72 30.5t-16 78.5q9 51 53 102.5t121 93.5q-19 19 -32.5 43t-21.5 47.5t-11 44
t-1 32.5q-63 -192 -157 -192q-81 0 -105 131l26 13q22 -82 57 -82q76 0 140 165h-245l-41 45h850l37 -45h-320q45 -43 30 -127zM608 489q15 88 -86 88h-121q-3 -21 4.5 -49t24 -53.5t39 -43t49.5 -17.5q29 0 56.5 20t33.5 55z" />
    <glyph glyph-name="s_k_lo_bn" horiz-adv-x="717" 
d="M608 489q14 82 -77 88h-130q-3 -21 4.5 -49t24 -53.5t39 -43t49.5 -17.5q29 0 56.5 20t33.5 55zM442 51l41 232q-64 -16 -115 -36.5t-89 -45.5q90 -34 161 -150h2zM436 7q-10 23 -29.5 47t-48 45t-66.5 37.5t-85 24.5l-36 54q195 115 309 134q-24 10 -44.5 35t-35 54.5
t-21.5 58t-4 45.5q-63 -192 -157 -192q-81 0 -105 131l26 13q22 -82 57 -82q76 0 140 165h-245l-41 45h744l34 -45h-211q45 -43 30 -127q-3 -15 -10.5 -30t-18.5 -28.5t-24.5 -25t-28.5 -17.5q32 -7 57 -26.5t42 -46t24 -57t2 -60.5q-16 -88 -88 -88q-25 0 -40.5 14.5
t-11.5 36.5q9 50 54 50q35 0 51 -38q10 10 12 21q3 19 -7.5 41.5t-29.5 42t-44.5 33t-52.5 15.5l-81 -461l-21 21q2 67 -16 102t-48 35q-42 0 -50 -46q-3 -13 -2 -36l-20 11q-35 84 -108 84q-18 0 -35 -6.5t-31 -17t-23.5 -23.5t-11.5 -27q-4 -22 9 -41t38 -22q-10 16 -7 37
q8 46 57 46q17 0 28.5 -14.5t8.5 -35.5q-10 -57 -85 -57q-48 0 -71 32.5t-14 83.5q4 23 16.5 44.5t30.5 37.5t41.5 25.5t49.5 9.5q49 0 92 -71q31 51 72 51q44 0 78 -77z" />
    <glyph glyph-name="s_kho_bn" horiz-adv-x="721" 
d="M832 577h-41q-32 0 -36 13h-2l-126 -712l-21 27q0 25 -18 51t-51 46t-80 33t-105 13l-48 85q31 -9 40 -9q30 0 65.5 13t66.5 32.5t53.5 42t25.5 41.5q3 17 -5 31t-17 14t-31 -19l-72 -61q-53 -45 -97 -45q-22 0 -36 18.5t-10 42.5q11 61 96 61l21 -22l43 32
q10 8 20.5 17.5t26.5 20.5q-25 5 -49.5 28.5t-42.5 54t-27.5 62.5t-5.5 54q-63 -192 -157 -192q-70 0 -103 106l29 14q29 -58 52 -58q76 0 140 165h-239l-41 45h427q88 0 133.5 -43.5t30.5 -128.5q-14 -76 -97 -104q58 -51 45 -124t-135 -130q91 -33 144 -102l130 737
l23 -28q-6 -34 9 -55.5t36 -21.5zM602 489q15 88 -87 88h-120q-3 -21 4.5 -49t24 -53.5t39 -43t49.5 -17.5q29 0 56.5 20t33.5 55z" />
    <glyph glyph-name="s_tto_bn" horiz-adv-x="878" 
d="M989 577h-383l-69 -392q-4 -25 0.5 -45t11.5 -34t15 -21.5t11 -7.5q11 0 31 10t43 26.5t47.5 37t44.5 41t34 39.5t16 33q2 12 1 23q-11 -5 -22 -5q-67 0 -55 67q5 29 30 49t57 20q42 0 62 -34t10 -92q-5 -30 -23.5 -62.5t-44.5 -63.5t-58 -59t-63.5 -49t-60.5 -33.5
t-51 -12.5q-36 0 -78 94q-15 34 -8 73l22 122q-23 67 -69 67q-11 0 -19.5 -2.5t-21 -11.5t-30.5 -26t-47 -46l-95 -95q-25 -26 -47 -26q-14 0 -28.5 14t-28.5 34.5t-25 43.5t-18 41l38 26q10 -66 37 -66q8 0 28.5 17t43.5 38.5t41 40t21 21.5q4 10 7 20.5t6 23.5q3 19 -3 38
t-20 34t-34 24.5t-43 9.5q-61 0 -80.5 13.5t-14.5 42.5h-16l-34 45h778q25 12 29 34q9 50 -83 50q-7 0 -27 -0.5t-42 -1.5t-39.5 -1.5t-18.5 -0.5q-109 0 -156.5 32t-35.5 104q7 39 33 62l22 -17q-21 -18 -26 -44q-12 -68 106 -68q6 0 24.5 1t39 2.5t39.5 2.5t25 1
q190 0 167 -156h63zM521 348l40 229h-281v-2q72 -47 56 -135q-5 -27 -10 -36l1 -3q55 53 96 53q50 0 92 -106h6z" />
    <glyph glyph-name="s_tt_ro_bn" horiz-adv-x="878" 
d="M521 348l40 229h-281v-2q72 -47 56 -135q-5 -27 -10 -36l1 -3q55 53 96 53q50 0 92 -106h6zM666 46q-11 -9 -24 -15.5t-26.5 -10.5t-24.5 -6t-18 -2q-36 0 -78 94q-15 34 -8 73l22 122q-23 67 -69 67q-11 0 -19.5 -2.5t-21 -11.5t-30.5 -26t-47 -46l-95 -95
q-25 -26 -47 -26q-14 0 -28.5 14t-28.5 34.5t-25 43.5t-18 41l38 26q10 -66 37 -66q8 0 28.5 17t43.5 38.5t41 40t21 21.5q4 10 7 20.5t6 23.5q3 19 -3 38t-20 34t-34 24.5t-43 9.5q-61 0 -80.5 13.5t-14.5 42.5h-16l-34 45h778q25 12 29 34q9 50 -83 50q-7 0 -27 -0.5
t-42 -1.5t-39.5 -1.5t-18.5 -0.5q-109 0 -156.5 32t-35.5 104q7 39 33 62l22 -17q-21 -18 -26 -44q-12 -68 106 -68q6 0 24.5 1t39 2.5t39.5 2.5t25 1q190 0 167 -156h63l34 -45h-383l-69 -392q-4 -25 0.5 -45t11.5 -34t15 -21.5t11 -7.5q11 0 31 10t43 26.5t47.5 37
t44.5 41t34 39.5t16 33q2 12 1 23q-11 -5 -22 -5q-67 0 -55 67q5 29 30 49t57 20q42 0 62 -34t10 -92q-5 -27 -20 -56t-37 -57t-49 -54t-56 -47l-44 -252l-28 24q6 82 -112 82l-127 -15q-32 0 -58.5 13.5t-44 37t-25.5 53.5t-2 63q5 25 18 49l20 -11q-2 -5 -8 -39
q-3 -19 4 -36t20.5 -30t33.5 -20.5t43 -7.5l110 4q73 0 129 -68l4 2z" />
    <glyph glyph-name="s_to_bn" horiz-adv-x="688" 
d="M664 181q-8 -46 -27.5 -83t-46.5 -62.5t-61.5 -39.5t-71.5 -14q-66 0 -122.5 34.5t-100 101t-73.5 163.5t-44 222l28 -16q61 -420 318 -420q30 0 58 9t51.5 27t39.5 43.5t22 58.5q4 22 0 44t-12.5 40t-20 29t-23.5 11q-24 0 -33 -7q21 -28 14 -71q-3 -15 -11.5 -28
t-21 -23.5t-27 -16.5t-29.5 -6q-37 0 -57.5 26t-13.5 68q7 39 35.5 64.5t70.5 34.5q-20 17 -35 41.5t-24 50t-12.5 47.5t-1.5 33q-63 -192 -157 -192q-81 0 -105 131l26 13q22 -82 57 -82q76 0 140 165h-302l-34 45h704l38 -45h-125q45 -43 30 -127q-3 -15 -10.5 -30
t-18.5 -28.5t-24.5 -25t-28.5 -17.5q31 -24 41 -71t1 -97zM665 489q15 88 -86 88h-121q-3 -21 4.5 -49t24 -53.5t39 -43t49.5 -17.5q30 0 57 20t33 55z" />
    <glyph glyph-name="s_t_ro_bn" horiz-adv-x="601" 
d="M506 -128l-23 24q2 19 -1 36t-13.5 29.5t-29 20t-49.5 7.5q-8 0 -29.5 -2t-45.5 -4t-46 -4t-29 -2q-36 0 -64.5 14t-46.5 39t-25 59t0 74q9 52 42 103l16 -22q-21 -42 -26 -72q-10 -55 20 -86.5t87 -31.5q1 0 15.5 1t32 2.5t32 2.5t16.5 1q28 0 47.5 -2.5t35 -10
t28.5 -21.5t28 -36l53 302q8 47 -21 47q-11 0 -35.5 -14.5t-50 -35t-45.5 -42t-23 -34.5q0 -4 3 -19q22 19 51 19q49 0 40 -51q-11 -64 -88 -64q-43 0 -63.5 28.5t-12.5 71.5q3 22 18 47.5t37.5 48.5t50 42t58.5 29q-20 16 -34.5 41t-24.5 50.5t-14 48.5t-2 36
q-63 -192 -157 -192q-81 0 -105 131l26 13q22 -82 57 -82q76 0 140 165h-245l-41 45h624l38 -45h-95q45 -43 30 -127q-3 -15 -10.5 -30.5t-19 -29.5t-26 -25t-30.5 -17q6 -4 10 -12.5t6 -17.5t2.5 -17t-0.5 -12zM608 489q15 88 -87 88h-120q-3 -21 4.5 -49t24 -53.5t39 -43
t49.5 -17.5q29 0 56.5 20t33.5 55z" />
    <glyph glyph-name="s_tho_bn" horiz-adv-x="612" 
d="M640 -185q-34 31 -75.5 65t-90.5 65t-105 56.5t-118 39.5l-44 126q12 -7 32 -15t40 -15t37.5 -11.5t25.5 -4.5q34 0 72 13t70.5 33t56 43.5t27.5 45.5q11 62 -61 62q-22 0 -41 -11q-6 -23 -19 -43t-30 -35t-35.5 -24t-35.5 -9q-62 0 -52 59q4 22 18.5 41t36.5 33t49 23.5
t57 11.5q-21 14 -36.5 39t-26 51.5t-15 51t-2.5 36.5q-63 -192 -157 -192q-81 0 -105 131l26 13q22 -82 57 -82q76 0 140 165h-245l-41 45h639l34 -45h-106q45 -43 30 -127q-6 -32 -32 -62.5t-59 -41.5q56 -32 42 -113q-24 -131 -199 -178v-3q59 -26 117.5 -72t118.5 -112z
M608 489q14 82 -77 88h-130q-3 -21 4.5 -49t24 -53.5t39 -43t49.5 -17.5q30 0 57 20t33 55z" />
    <glyph glyph-name="s_no_bn" horiz-adv-x="571" 
d="M489 -56l-18 22q0 66 -16 111.5t-39 74t-49 41.5t-46 13q-13 0 -23 -3q18 -8 25.5 -29t4.5 -40q-3 -16 -12 -30.5t-22 -25t-28 -17t-30 -6.5q-39 0 -61 28t-14 71q8 45 44.5 75t85.5 30q132 0 179 -148l3 2l2 31l35 198q-31 3 -57 26.5t-44.5 55t-28 64t-5.5 54.5
q-63 -192 -157 -192q-81 0 -105 131l26 13q22 -82 57 -82q76 0 140 165h-245l-41 45h595l37 -45h-65q45 -43 30 -127q-6 -32 -30.5 -61t-56.5 -41zM608 489q15 88 -86 88h-121q-3 -21 4.5 -49t24 -53.5t39 -43t49.5 -17.5q30 0 57 20t33 55z" />
    <glyph glyph-name="s_pho_bn" horiz-adv-x="1025" 
d="M1031 348q-9 -48 -39 -79t-67 -31q-67 0 -55 65q10 57 64 57q34 0 41 -27q20 9 24 33q7 37 -18.5 60.5t-80.5 23.5q-28 0 -51 -3l-91 -520l-18 19q-1 31 -18.5 64t-49 60.5t-75.5 46t-96 21.5l-43 65q27 20 70 50.5t101 72.5l-38 38q-32 -22 -69 -22q-32 0 -60 22
t-49.5 53t-31.5 65.5t-6 59.5q-63 -192 -157 -192q-81 0 -105 131l26 13q22 -82 57 -82q76 0 140 165h-245l-41 45h1054l32 -45h-519q45 -43 30 -127q-6 -35 -33 -63q37 -32 59 -56t30 -37q-38 -27 -73.5 -52.5t-68.5 -51.5q20 -5 45 -20.5t49 -35t44 -41t31 -39.5l83 467
q31 6 56 6q91 0 134 -47t28 -132zM608 489q14 82 -77 88h-130q-3 -21 4.5 -49t24 -53.5t39 -43t49.5 -17.5q29 0 56.5 20t33.5 55z" />
    <glyph glyph-name="s_bo_bn" horiz-adv-x="588" 
d="M503 -72l-18 21q-5 35 -24.5 67t-49 56.5t-67.5 40t-79 18.5l-39 63q19 14 49.5 32.5t67 38.5t78 40t85.5 37q-30 3 -55 27.5t-43.5 56t-27 64t-5.5 52.5q-63 -192 -157 -192q-81 0 -105 131l26 13q22 -82 57 -82q76 0 140 165h-245l-41 45h613l36 -45h-82
q45 -43 30 -127q-10 -57 -69 -94zM608 489q14 82 -77 88h-130q-3 -21 4.5 -49t24 -53.5t39 -43t49.5 -17.5q30 0 57 20t33 55zM475 48l41 233l-109 -54.5t-78 -43.5q80 -27 144 -135h2z" />
    <glyph glyph-name="s_mo_bn" horiz-adv-x="773" 
d="M884 577h-82l-107 -611l-20 22q1 38 -9.5 70t-25.5 56t-33.5 38.5t-34.5 17.5q-27 -82 -110 -82q-37 0 -60.5 23.5t-16.5 59.5q7 39 37.5 66t78.5 27q18 0 26 -4q9 50 -20 82q-30 3 -55.5 27t-43.5 55.5t-27 64.5t-6 53q-63 -192 -157 -192q-81 0 -105 131l26 13
q22 -82 57 -82q76 0 140 165h-245l-36 45h795zM647 450q-6 -34 -33.5 -65t-64.5 -41q22 -22 34.5 -55t7.5 -58q47 -29 78 -120h2l82 466h-136q45 -43 30 -127zM608 489q14 82 -77 88h-130q-3 -21 4.5 -49t24 -53.5t39 -43t49.5 -17.5q30 0 57 20t33 55z" />
    <glyph glyph-name="s_ro_bn" horiz-adv-x="573" 
d="M496 -27l-26 20q3 38 1.5 63.5t-11 41t-27.5 22t-48 6.5q-7 0 -29.5 -2t-48 -4.5t-48.5 -4.5t-30 -2q-39 0 -69.5 14t-50.5 38t-28.5 55t-2.5 65q6 38 24 70l19 -17q-8 -20 -12 -43q-4 -20 4 -39t25.5 -33.5t42 -23.5t53.5 -9q2 0 15.5 1t30.5 2.5t32.5 3t21.5 1.5
q29 0 49 -2t34.5 -9t27.5 -20.5t30 -35.5l37 211q-31 2 -57.5 25.5t-45 55t-28.5 64.5t-6 55q-63 -192 -157 -192q-81 0 -105 131l26 13q22 -82 57 -82q76 0 140 165h-245l-41 45h598l36 -45h-67q45 -43 30 -127q-3 -15 -10.5 -30.5t-19 -29.5t-25.5 -25t-30 -17zM608 489
q15 88 -86 88h-121q-3 -21 4.5 -49t24 -53.5t39 -43t49.5 -17.5q30 0 57 20t33 55z" />
    <glyph glyph-name="s_lo_bn" horiz-adv-x="573" 
d="M608 489q15 88 -86 88h-121q-3 -21 4.5 -49t24 -53.5t39 -43t49.5 -17.5q30 0 57 20t33 55zM512 342q-31 2 -57.5 25.5t-45 55t-28.5 64.5t-6 55q-63 -192 -157 -192q-81 0 -105 131l26 13q22 -82 57 -82q76 0 140 165h-245l-41 45h598l36 -45h-67q45 -43 30 -127
q-3 -15 -10.5 -30.5t-19 -29.5t-25.5 -25t-30 -17l-66 -375l-19 22q1 36 -2.5 72.5t-11.5 66t-20 48.5t-30 19t-34 -19.5t-19 -38.5q-3 -13 -2 -43l-20 11q-35 84 -108 84q-18 0 -35 -6.5t-31 -17t-23.5 -23.5t-11.5 -27q-4 -22 9 -41t37 -22q-9 16 -6 37q8 46 57 46
q17 0 28.5 -14.5t8.5 -35.5q-11 -57 -87 -57q-48 0 -70.5 32.5t-13.5 83.5q4 23 16.5 44.5t30.5 37.5t42 25.5t50 9.5q46 0 88 -66q42 66 80 66q42 0 80 -99h2z" />
    <glyph glyph-name="h_ukar_bn" horiz-adv-x="494" 
d="M605 577h-514l-40 45h520zM506 -35q-18 22 -123 106q-103 72 -202 72l-67 106q10 -2 19.5 -3.5t20.5 -1.5q56 0 108.5 12t94.5 32.5t69.5 49t33.5 61.5q8 48 -25 80q-4 -7 -14.5 -16.5t-24.5 -24.5t-30 -37.5t-32 -55.5l-10 9q-3 58 -24.5 92.5t-50.5 34.5q-68 0 -81 -75
q23 10 34 10q21 0 31 -17t5 -42q-9 -54 -69 -54q-37 0 -57 28.5t-11 82.5q5 27 18.5 50.5t31.5 40.5t40 27t45 10q15 0 26 -3t20.5 -12.5t20 -26.5t24.5 -45q25 29 39.5 45t24.5 26l16.5 16.5t14.5 17.5l12 -9q1 -7 14 -29t26.5 -50t22.5 -58t5 -52q-5 -30 -27.5 -59.5
t-55 -53.5t-70.5 -39.5t-75 -17.5v-3q43 -21 74 -39.5t55.5 -38t46 -43.5t47.5 -55z" />
    <glyph glyph-name="h_rikar_bn" horiz-adv-x="632" 
d="M708 622l35 -45h-426q7 -47 4 -62q53 0 93 -26t54 -66q94 52 106 52q7 0 13.5 -8.5t13.5 -20.5t14 -25t15 -21q-13 -43 -24 -90.5t-20 -99.5q-26 -143 -11 -192l-5 -25l-45 52q-18 21 2 134q29 163 51 220q-2 10 -9 10q-8 0 -93 -48l-2 -12q-26 -146 -232 -199v-2
q11 -4 32 -17t46.5 -32t53.5 -41.5t53.5 -46.5t47.5 -46.5t35 -40.5l6 -53q-52 55 -101 96.5t-100 73t-106.5 54.5t-119.5 40l-42 132q82 -51 137 -51q37 0 79 13.5t79 35.5t63.5 50.5t32.5 59.5q6 34 -15.5 56.5t-63.5 22.5q-26 0 -54 -12q-19 -52 -56.5 -81t-77.5 -29
q-30 0 -48 19t-12 53q4 23 21 43.5t40.5 35.5t52 23.5t55.5 8.5q8 44 -41 62h-148l-37 45h654z" />
    <glyph glyph-name="h_nno_bn" horiz-adv-x="468" 
d="M516 -129l-51 51l-39 -221l-22 22q4 48 -7 90t-31 73.5t-45.5 50t-49.5 18.5q-14 0 -23 -4q17 -7 25 -28.5t5 -39.5q-3 -16 -12 -30.5t-22.5 -25t-28.5 -17t-30 -6.5q-39 0 -60.5 28t-14.5 70q8 46 45 75.5t86 29.5q107 0 164 -136h2l16 90q-149 132 -334 174l-42 132
q82 -51 137 -51q37 0 79 13.5t79 35.5t63.5 50.5t32.5 59.5q6 34 -15.5 56.5t-63.5 22.5q-26 0 -54 -12q-19 -52 -56.5 -81t-77.5 -29q-30 0 -48 19t-12 53q4 23 21 43.5t40.5 35.5t52 23.5t55.5 8.5q8 44 -41 62h-148l-37 45h491l34 -45h-262q7 -47 4 -62q37 0 68 -13
t52 -35.5t30 -52.5t3 -65q-26 -146 -232 -199v-2q11 -4 32 -17t46.5 -32t53.5 -41.5t53.5 -46.5t47.5 -46.5t35 -40.5z" />
    <glyph glyph-name="h_no_bn" horiz-adv-x="701" 
d="M705 340q-4 -24 -14.5 -44.5t-25 -36t-33.5 -24.5t-38 -9q-28 0 -43 17t-10 41q8 50 56 50q41 0 48 -52q23 10 28 40q3 15 -2.5 30t-16.5 26.5t-26.5 19t-33.5 7.5q-28 0 -62 -22t-65 -65q-43 -120 -225 -168v-2q11 -4 32 -17t46.5 -32t53.5 -41.5t53.5 -46.5t47.5 -46.5
t35 -40.5l6 -53q-52 55 -101 96.5t-100 73t-106.5 54.5t-119.5 40l-42 132q82 -51 137 -51q37 0 79 13.5t79 35.5t63.5 50.5t32.5 59.5q6 34 -15.5 56.5t-63.5 22.5q-26 0 -54 -12q-19 -52 -56.5 -81t-77.5 -29q-30 0 -48 19t-12 53q4 23 21 43.5t40.5 35.5t52 23.5
t55.5 8.5q8 44 -41 62h-148l-37 45h721l37 -45h-495q7 -47 4 -62q32 0 61 -10t50 -28.5t33 -45t11 -58.5l21 20q10 10 24.5 22.5t31 23.5t34 19t33.5 8q23 0 41 -10.5t29.5 -27.5t15.5 -40t-1 -48z" />
    </font>
</defs>
</svg>
