<?xml version="1.0" standalone="no"?>
<!DOCTYPE svg PUBLIC "-//W3C//DTD SVG 1.1//EN" "http://www.w3.org/Graphics/SVG/1.1/DTD/svg11.dtd" >
<svg xmlns="http://www.w3.org/2000/svg" xmlns:xlink="http://www.w3.org/1999/xlink" version="1.1">
<metadata>
Created by FontForge 20200511 at Wed Sep  9 06:58:30 2020
 By convertio
Copyright (c) 2020 by Okkhor52 Originals. All rights reserved.
</metadata>
<defs>
<font id="RuposhiBanglaUnicode-Bold" horiz-adv-x="0" >
  <font-face 
    font-family="Ruposhi Bangla Unicode"
    font-weight="700"
    font-stretch="normal"
    units-per-em="1000"
    panose-1="2 0 6 0 0 0 0 0 0 0"
    ascent="800"
    descent="-200"
    x-height="393"
    cap-height="614"
    bbox="-499 -280 1360 1057"
    underline-thickness="40"
    underline-position="-120"
    unicode-range="U+0020-FDFA"
  />
<missing-glyph horiz-adv-x="719" 
d="M277 337q-15 16 -15 39q0 32 23 47.5t47 15.5q19 0 34.5 -8t27 -21.5t17.5 -30t6 -34.5q0 -23 -11 -42.5t-28 -34t-39 -23t-44 -8.5q-30 0 -56 13.5t-45 35.5t-30 50.5t-11 58.5q0 40 18 73.5t47 57t64.5 36.5t71.5 13q49 0 91 -21.5t73.5 -57t49.5 -81.5t18 -95
q0 -78 -40.5 -144.5t-113.5 -104.5l-11 -4q-58 -31 -128 -31q-60 0 -113.5 23t-93 63t-63 93.5t-23.5 114.5q0 58 20 108.5t55.5 89t84 63t104.5 31.5h375v-586l-97 75q80 91 80 209q0 57 -21 109.5t-57.5 93.5t-85.5 65.5t-104 24.5q-44 0 -86.5 -16.5t-77 -45.5t-55.5 -69
t-21 -86q0 -35 13 -70t37 -63.5t57.5 -46t73.5 -17.5q30 0 58.5 11t51 30.5t36 46t13.5 58.5q0 24 -8.5 47.5t-24.5 41.5t-38.5 29.5t-50.5 11.5q-20 0 -39.5 -7.5t-35 -20.5t-25 -31t-9.5 -39q0 -38 29 -67zM719 622v-622h-41v622h41zM0 179q38 -78 104.5 -124.5
t151.5 -54.5h-256v179zM451 39q31 15 63 45q32 -26 62.5 -48t45.5 -36h-295q56 6 113 32h2zM137 622q-90 -50 -137 -141v141h137z" />
    <glyph glyph-name="sallallahoualayhewasallam_arab.isol" unicode="&#xfdfa;" horiz-adv-x="1395" arabic-form="isolated" 
d="M399 -103l-2 18q-1 5 -1.5 9t-0.5 7v115h-67q33 -34 53 -59q-17 -13 -28 -22t-17 -15q3 0 10 -4l18 -12q5 -4 9.5 -8t9.5 -9zM271 684v66h-75q14 -11 14 -34q0 -10 -1 -14q14 14 26 14q21 0 36 -32zM1295 -91v137h-84q2 -6 10 -13t19 -19l13 -14l9 -16q5 -8 6.5 -15.5
t1.5 -13.5q0 -8 -1 -12q1 -1 3 -2.5t4 -4.5l10 -14zM627 -2q14 14 27 14q19 0 36 -32l-1 66h-77q17 -9 17 -34q0 -6 -2 -14zM1100 32q-3 16 -3 32v58l17 -16q1 -30 21 -30h195l30 -30h-34v-213l-15 14q-15 56 -52 68q-14 -24 -41 -24q-19 0 -31 12t-12 30q0 19 11.5 29.5
t28.5 10.5q8 0 20 -5q3 1 3 10q0 4 -3 10l-8 10l-11 9q-14 8 -26 11t-21 6t-14.5 7t-5.5 15h-12q-11 0 -15 4v-228l-27 33v134q0 24 -12.5 40.5t-26.5 16.5h-13v-251l-31 33l1 34q0 13 -10 20t-18 7t-17 -7t-9 -16q0 -8 4 -17l-15 11q-5 11 -18 18t-27 7q-9 0 -22 -7
t-13 -27q0 -18 13 -18h1q-5 7 -5 15q0 10 6 18t17 8q9 0 16.5 -9t7.5 -23q0 -8 -9 -18t-22 -10q-23 0 -37 17t-14 38q0 54 55 54q3 0 6 -0.5t7 -1.5l13 -6l14 -13v-5q0 9 6 17.5t18 8.5q40 0 55 -42q1 -1 1 32l-3 -25v7t-1 17v62q-14 27 -28 27q-11 0 -18.5 -6t-7.5 -17
q0 -8 4 -17l-15 10q-5 13 -18 19.5t-27 6.5q-9 0 -22 -7t-13 -27q0 -18 13 -18h1q-5 7 -5 15q0 10 6 18t17 8q9 0 16.5 -9t7.5 -23q0 -8 -9 -18t-22 -10q-23 0 -37 17t-14 38q0 54 55 54q3 0 6 -0.5t7 -1.5l13 -6l14 -13v-5q0 9 6 17.5t18 8.5q35 0 52 -35l1 46h-203
q-11 0 -15 4v-228l-27 33v134q0 24 -12.5 40.5t-26.5 16.5h-12v-216l-29 31l1 93q-7 16 -19 16q-6 0 -16 -11.5t-21 -25t-21.5 -24.5t-16.5 -11q-28 0 -53 54l18 16q6 -24 14 -24q2 0 6 4l10 11q3 4 6 7t5 7l9 12q2 4 2 8q0 16 -12 21.5t-26.5 7.5t-26.5 6t-12 18h-15
q-11 0 -15 4v-228l-27 33v134q0 24 -12.5 40.5t-26.5 16.5h-12v-213l-16 14q-2 16 -12 29t-24.5 22.5t-31.5 14.5t-32 5l-36 44q11 11 25 23.5t33 26.5q-12 11 -24.5 13t-22.5 2.5t-16.5 3.5t-6.5 16l-28 29h195q23 0 34.5 -12t18.5 -34q-3 18 -3 34v58l17 -16q1 -30 21 -30
h205l11 -2q17 -2 25.5 -14t13.5 -30q-3 18 -3 34v58l17 -16q1 -30 21 -30h239q34 0 45 -28zM1288 530l8 -31q-17 14 -30.5 24t-26 17t-24.5 11.5t-26 8.5l-47 13l-47 56l19 -3h16q18 0 35.5 3.5t31.5 10.5t22.5 17t8.5 22l-1.5 3.5t-4 8.5t-6 9t-7.5 4q-6 0 -11 -8l-17 -19
q-6 -10 -9 -24l-12 10q-3 15 -13 28l-9 9q-5 3 -10 3q-16 0 -16 -12l1 -3q23 0 23 -22q0 -11 -7.5 -18t-20.5 -7q-20 0 -29.5 16t-9.5 29q0 21 13 35t33 14q22 0 40 -27l8 8q5 5 13 16t22 13q7 -4 19 -17l15 -17l18 -27q6 -12 6 -25q0 -24 -15.5 -39.5t-50.5 -24.5
q37 -20 61.5 -36t36.5 -29zM248 16q0 -23 -11 -43q19 -19 19 -49q0 -29 -19 -45t-46 -16q-97 0 -154 189l22 -15q49 -124 128 -124q18 0 31.5 7.5t13.5 20.5q0 11 -9 17q-9 -10 -22 -10q-14 0 -22.5 9t-8.5 22q0 14 8.5 23t21.5 9q3 0 14 -3q10 7 10 24q0 15 -18 15
q-7 0 -16.5 -3t-16.5 -7l-15 -12q-9 -7 -10 -11q11 -5 11 -22q0 -11 -8 -19t-21 -8q-16 0 -25.5 10.5t-9.5 27.5q0 15 8.5 28t22 22.5t30 15t33.5 5.5q27 0 43 -15.5t16 -42.5zM343 -111q11 0 18.5 -7t7.5 -18t-7.5 -18t-18.5 -7t-17.5 7t-6.5 18t6.5 18t17.5 7zM378 754
v-227l-27 32v135q0 19 -11 37.5t-28 18.5h-12v-215l-29 31v93q-6 16 -18 16q-6 0 -16.5 -11.5t-22 -25t-21.5 -24.5t-16 -11q-27 0 -52 54l18 16q4 -24 14 -24q2 0 6 4l10 11q8 10 14.5 19.5t7.5 14.5q0 16 -12 21t-27 7.5t-27 7t-12 21.5l-25 26l214 -1q17 0 27.5 -7.5
t15.5 -19.5l8 -20q-4 17 -4 36l-1 58l18 -16q1 -30 21 -30h238l14 -2q17 -2 25.5 -15t13.5 -29q-3 18 -3 34v58l17 -16q1 -30 21 -30h239l13 -2q23 -4 32 -26l7 -16q-3 16 -3 32v58l17 -16q1 -30 21 -30h224l30 -31h-252q-11 0 -15 4v-227l-27 32v135q0 10 -3 21l-9 19
q-10 16 -27 16h-13v-250l-31 33l1 34q0 13 -9.5 19.5t-18.5 6.5t-17.5 -7t-8.5 -15t4 -17l-15 10q-5 13 -18 19.5t-27 6.5t-24.5 -9.5t-10.5 -24.5q0 -18 12 -18h2q-5 7 -5 15q0 10 6 18t17 8q9 0 16.5 -9t7.5 -23q0 -7 -9 -17.5t-22 -10.5q-19 0 -35 13.5t-16 41.5
q0 54 55 54q3 0 6 -0.5t7 -1.5l12 -6q4 -2 6.5 -4.5l4.5 -4.5l4 -4v-6q0 11 6 18.5t17 7.5q37 0 54 -35l-1 87q-14 26 -28 26q-13 0 -19.5 -7t-6.5 -15t4 -17l-15 10q-5 13 -18 19.5t-27 6.5t-24.5 -9.5t-10.5 -24.5q0 -18 12 -18h2q-5 5 -5 15t6 18t17 8q9 0 16.5 -9
t7.5 -23q0 -11 -10.5 -19.5t-20.5 -8.5q-19 0 -35 13.5t-16 41.5q0 54 55 54q3 0 6 -0.5t7 -1.5l12 -6q4 -2 6.5 -4.5l4.5 -4.5l4 -4v-6q0 11 6 18.5t17 7.5q37 0 53 -34l1 45h-203q-11 0 -15 4v-227l-27 32v135q0 10 -3 21l-9 19q-10 16 -27 16h-13v-250l-31 33l1 34
q0 13 -10 19.5t-18 6.5q-9 0 -17.5 -7t-8.5 -15t4 -17l-15 10q-5 13 -18 19.5t-27 6.5q-10 0 -23 -8t-13 -26t13 -18h2q-6 6 -6 15t6 17.5t17 8.5q10 0 17.5 -9t7.5 -23q0 -4 -3 -10l-7 -8q-10 -10 -21 -10q-19 0 -35 13.5t-16 41.5q0 54 55 54q3 0 6 -0.5t7 -1.5l12 -6
l11 -9q3 -3 4 -3v-7q0 11 6 18.5t17 7.5q37 0 54 -35v1q-1 1 -1.5 24t-0.5 62q-14 26 -28 26q-11 0 -18 -6.5t-7 -15.5q0 -8 4 -17l-15 10q-5 13 -18 19.5t-27 6.5q-10 0 -23 -8t-13 -26t13 -18h2q-6 4 -6 15q0 9 6 17.5t17 8.5q10 0 17.5 -9t7.5 -23t-11.5 -21t-19.5 -7
q-19 0 -35 13.5t-16 41.5q0 54 55 54q3 0 6 -0.5t7 -1.5l12 -6l11 -9q3 -3 4 -3v-7q0 11 6 18.5t17 7.5q37 0 53 -34v45h-202q-11 0 -15 4zM1189 274q10 7 17.5 15.5t7.5 19.5q0 8 -6 13.5t-17 5.5q-14 0 -16 -4t-2 -10t-4.5 -13.5t-24.5 -15.5q-7 -4 -17 -4q-13 0 -22.5 8
t-9.5 22q0 15 17 30.5t40 15.5q-2 8 -14 13h-92v-223l-31 34v189h-108q3 -9 10 -11t16 -4t19 -9.5t19 -27.5q5 -13 5 -27q0 -53 -59 -68q53 -31 92 -75l9 -31q-26 23 -46.5 38.5t-39 26t-39 18t-46.5 13.5l-36 69q43 -24 62 -24q15 0 29 4.5t25.5 12t18 16.5t6.5 18
q0 8 -6 13.5t-17 5.5t-13 -1t-3 -4.5t-3.5 -10.5t-13.5 -18q-16 -13 -32 -13q-12 0 -21.5 8t-9.5 22q0 17 16.5 31.5t40.5 14.5q-2 8 -14 13h-82q-12 0 -16 6v-229l-27 32v135q0 21 -11 38.5t-28 17.5h-11v-216l-29 32v103q-12 26 -24 26q-15 0 -19 -15l3 -12q0 -2 0.5 -5.5
t1.5 -9.5l-17 10q-11 29 -40 29q-17 0 -30.5 -11t-13.5 -28q0 -11 7 -19t14 -8h3v1l-1 -1q-7 6 -7 17t8 19.5t22 8.5t22.5 -10t8.5 -25q0 -17 -12.5 -25.5t-29.5 -8.5q-32 0 -49.5 21t-17.5 49t19 45t42 17q28 0 43 -28q9 27 29 27q22 0 40 -37q-1 3 -1 12v42h-203
q-11 0 -16 5v-228l-26 32v135q0 22 -12.5 39t-26.5 17h-20v-213l-17 17q-10 42 -43 67q-12 -33 -54 -33q-83 0 -129 162l19 -13q45 -99 100 -99q19 0 32.5 10.5t13.5 30.5q0 14 -10 22.5t-22 7.5q2 -8 2 -12q0 -14 -9 -22t-22 -8q-16 0 -26.5 10t-10.5 27q0 14 9 24t21 12
q-6 10 -30 10h-60l-30 31h270l21 -2q11 -2 19.5 -9t12.5 -17l8 -21q-4 15 -4 37l-1 57l18 -15q1 -30 20 -30l240 -1q16 0 25.5 -6.5t17.5 -20.5l8 -22q-4 15 -4 38l-1 57l18 -15q1 -30 20 -30h148q3 3 3 7q0 13 -24 13h-9t-16.5 -0.5t-18.5 -1t-15 -1.5h-15q-73 0 -73 53
q0 16 11 29l15 -9q-10 -7 -10 -15q0 -21 34 -21l36 2h11.5t10.5 1l9 1q38 0 54.5 -15t21.5 -43h52l-13 13q-11 14 -11 25q0 18 10.5 31t25 21.5t30 12.5t25.5 4q40 0 77.5 -22.5t62.5 -52.5v-20q-60 62 -119 62q-12 0 -25 -5t-24 -13.5t-18 -19t-7 -21.5q0 -10 11 -15h192
l30 -31h-93q3 -9 14 -12.5t23.5 -9.5t22 -18.5t9.5 -38.5q0 -53 -60 -68q54 -30 93 -75l8 -31q-26 24 -47 40t-40.5 26.5t-39.5 17t-44 12.5l-35 69q43 -24 62 -24q27 0 53 16zM339 235l-2 12q-1 4 -1 6.5v3.5v113h-95l5 -8q12 -2 24.5 -7.5t23 -16t17 -26.5t6.5 -38
q6 -8 13 -21z" />
    <glyph glyph-name=".notdef" horiz-adv-x="719" 
d="M277 337q-15 16 -15 39q0 32 23 47.5t47 15.5q19 0 34.5 -8t27 -21.5t17.5 -30t6 -34.5q0 -23 -11 -42.5t-28 -34t-39 -23t-44 -8.5q-30 0 -56 13.5t-45 35.5t-30 50.5t-11 58.5q0 40 18 73.5t47 57t64.5 36.5t71.5 13q49 0 91 -21.5t73.5 -57t49.5 -81.5t18 -95
q0 -78 -40.5 -144.5t-113.5 -104.5l-11 -4q-58 -31 -128 -31q-60 0 -113.5 23t-93 63t-63 93.5t-23.5 114.5q0 58 20 108.5t55.5 89t84 63t104.5 31.5h375v-586l-97 75q80 91 80 209q0 57 -21 109.5t-57.5 93.5t-85.5 65.5t-104 24.5q-44 0 -86.5 -16.5t-77 -45.5t-55.5 -69
t-21 -86q0 -35 13 -70t37 -63.5t57.5 -46t73.5 -17.5q30 0 58.5 11t51 30.5t36 46t13.5 58.5q0 24 -8.5 47.5t-24.5 41.5t-38.5 29.5t-50.5 11.5q-20 0 -39.5 -7.5t-35 -20.5t-25 -31t-9.5 -39q0 -38 29 -67zM719 622v-622h-41v622h41zM0 179q38 -78 104.5 -124.5
t151.5 -54.5h-256v179zM451 39q31 15 63 45q32 -26 62.5 -48t45.5 -36h-295q56 6 113 32h2zM137 622q-90 -50 -137 -141v141h137z" />
    <glyph glyph-name=".null" 
 />
    <glyph glyph-name="nonmarkingreturn" 
 />
    <glyph glyph-name="NULL" 
 />
    <glyph glyph-name="NULL" 
 />
    <glyph glyph-name="space" unicode=" " horiz-adv-x="220" 
 />
    <glyph glyph-name="space" unicode="&#xa0;" horiz-adv-x="220" 
 />
    <glyph glyph-name="exclam" unicode="!" horiz-adv-x="342" 
d="M263 560q0 -1 -3 -25t-7 -61t-9 -81.5t-9 -86t-7 -74.5t-3 -47l-38 39q0 16 -3.5 57t-8 89.5t-9.5 94.5t-9 71l-2 21q0 82 53 82q54 0 55 -79zM267 103q0 -25 -17.5 -43t-42.5 -18t-42.5 18t-17.5 43t17.5 42t42.5 17t42.5 -17t17.5 -42z" />
    <glyph glyph-name="quotedbl" unicode="&#x22;" horiz-adv-x="467" 
d="M131 493h-17l-35 132q-3 12 -5 23t-2 22q0 21 15 35.5t35 14.5q24 0 37.5 -15.5t13.5 -33.5q0 -7 -2 -18.5t-6 -28.5zM278 493h-17l-34 131q-5 16 -6.5 27.5t-1.5 19.5q0 19 15 34t36 15q24 0 37 -16t13 -32q0 -12 -9 -48z" />
    <glyph glyph-name="numbersign" unicode="#" horiz-adv-x="676" 
d="M273 409l-31 -179h161l31 179h-161zM123 0l28 158h-79l-43 72h135l31 179h-105l-41 73h159l24 140h79l-25 -140h161l25 140h78l-25 -141h79l43 -72h-135l-31 -179h105l41 -73h-159l-27 -157h-79l28 157h-133h-28l-28 -157h-78z" />
    <glyph glyph-name="dollar" unicode="$" horiz-adv-x="492" 
d="M258 -110h-41v100q-45 7 -76.5 17t-48.5 10q-12 0 -26 -14h-14l-4 20q-11 55 -15 93t-5 59h28q52 -144 161 -150v245l-20 11q-31 17 -60.5 35.5t-53 40.5t-38 49.5t-14.5 63.5q0 69 51 109.5t135 44.5v28h41v-29q19 -2 39 -6.5t40 -9.5l31 -7l31 8h12l14 -146h-26
q-16 49 -50 84t-91 42v-192q45 -25 82.5 -47t64.5 -47.5t42 -58t15 -77.5t-18 -77.5t-47 -54.5t-65.5 -33.5t-73.5 -12.5v-98zM258 29q38 9 62.5 34.5t24.5 63.5q0 40 -25 68.5t-62 51.5v-218zM217 419v170q-45 -5 -63 -26t-18 -44q0 -32 22.5 -56t58.5 -44z" />
    <glyph glyph-name="percent" unicode="%" horiz-adv-x="699" 
d="M630 615l-482 -608h-82l481 608h83zM342 493q0 -27 -12.5 -51t-32 -43t-44.5 -30t-50 -11q-27 0 -51 10t-41.5 27t-28 40t-10.5 49q0 27 11.5 52t30.5 44t43.5 30t49.5 11q28 0 52.5 -11t43 -29t29 -41t10.5 -47zM627 139q0 -27 -12.5 -51t-32 -43t-44.5 -30t-50 -11
q-26 0 -50 10t-42 27t-28.5 40t-10.5 49q0 27 11.5 52t31 44t43.5 30t50 11q28 0 52.5 -11t42.5 -29t28.5 -41t10.5 -47zM280 521q0 31 -41 31q-14 0 -32 -9.5t-34.5 -23t-28 -29.5t-11.5 -29t13 -23.5t32 -10.5q15 0 32.5 10t33 24.5t26 30.5t10.5 29zM566 167q0 31 -41 31
q-14 0 -32.5 -9.5t-35 -23t-27.5 -29.5t-11 -29t12.5 -23.5t32.5 -10.5q15 0 33 10t33 24.5t25.5 31t10.5 28.5z" />
    <glyph glyph-name="ampersand" unicode="&#x26;" horiz-adv-x="699" 
d="M525 -12q-42 0 -70 22t-59 64q-52 -37 -99.5 -61.5t-95.5 -24.5q-35 0 -66 12t-54 34t-36.5 53.5t-13.5 71.5q0 30 7 51.5t22.5 40t41 35.5t62.5 37l20 12q-34 36 -51 64.5t-17 60.5q0 54 40 85t115 31q67 0 103.5 -28t36.5 -70q0 -65 -86 -115l12 -10q30 -26 60 -59.5
t62 -74.5l7 -9q17 27 29.5 50.5t23.5 43.5l20 39q8 14 8 25q0 3 -1 8t-6.5 9t-18 7t-35.5 3v27h183v-27q-21 0 -35.5 -2.5t-25 -9.5t-19.5 -20t-20 -33l-85 -156q10 -23 23.5 -46.5t28.5 -42t30.5 -30.5t28.5 -12t24 4.5t28 17.5l12 -26q-68 -51 -134 -51zM296 386
q12 11 20.5 20.5t13 19.5t6.5 22.5t2 29.5q0 32 -20 52t-47 20q-15 0 -26.5 -6.5t-18.5 -16t-10.5 -20.5t-3.5 -20q0 -44 84 -101zM264 52q18 0 34.5 5.5t31.5 14t27 19t20 21.5q-12 25 -33 56t-44 60t-46.5 51.5t-40.5 30.5l-3 2q-69 -45 -69 -115q0 -35 11.5 -62
t29.5 -45.5t40 -28t42 -9.5z" />
    <glyph glyph-name="quotesingle" unicode="'" horiz-adv-x="320" 
d="M131 493h-17l-35 132q-3 12 -5 23t-2 22q0 21 15 35.5t35 14.5q24 0 37.5 -15.5t13.5 -33.5q-1 -7 -2 -18.5t-6 -28.5z" />
    <glyph glyph-name="parenleft" unicode="(" horiz-adv-x="363" 
d="M339 -94h-44q-245 188 -245 423q0 239 246 436h42q-189 -177 -189 -429q0 -65 10.5 -122t33 -109t58.5 -101t88 -98z" />
    <glyph glyph-name="parenright" unicode=")" horiz-adv-x="363" 
d="M24 -94q52 49 88 98t58.5 101t33 109t10.5 122q0 252 -189 429h42q246 -197 246 -436q0 -235 -245 -423h-44z" />
    <glyph glyph-name="asterisk" unicode="*" horiz-adv-x="558" 
d="M283 661q0 -45 -30 -114l3 -2q64 96 116 96q40 0 40 -35q0 -57 -146 -81v-3q63 -2 102.5 -21.5t39.5 -51.5q0 -35 -40 -35q-22 0 -54 25t-57 64l-3 -2q29 -73 29 -103q0 -25 -12 -42t-29 -17t-29 17t-12 42q0 35 28 104l-2 2q-25 -39 -56.5 -64.5t-54.5 -25.5
q-40 0 -40 36q0 31 39.5 51t102.5 22v3q-146 23 -146 81q0 34 41 34q53 0 115 -96l2 2q-28 63 -28 114q0 24 11.5 41.5t29.5 17.5q17 0 28.5 -18t11.5 -41z" />
    <glyph glyph-name="plus" unicode="+" horiz-adv-x="503" 
d="M287 354h146l41 -70h-187v-167h-70v167h-147l-41 70h188v168h70v-168z" />
    <glyph glyph-name="comma" unicode="," horiz-adv-x="208" 
d="M179 77q0 -56 -36 -93.5t-90 -49.5l-26 9q95 57 95 122q-13 -7 -32 -7q-24 0 -42.5 18t-18.5 41q0 26 17.5 43.5t44.5 17.5q35 0 61.5 -26.5t26.5 -74.5z" />
    <glyph glyph-name="hyphenminus" unicode="-" horiz-adv-x="405" 
d="M376 301h-306l-41 70h306z" />
    <glyph glyph-name="period" unicode="." horiz-adv-x="263" 
d="M191 60q0 -24 -17 -42t-42 -18q-26 0 -43 18t-17 42q0 25 17 42.5t43 17.5q25 0 42 -17.5t17 -42.5z" />
    <glyph glyph-name="slash" unicode="/" horiz-adv-x="422" 
d="M322 768l-261 -865h-61l262 865h60z" />
    <glyph glyph-name="zero" unicode="0" horiz-adv-x="456" 
d="M228 -12q-38 0 -73.5 19t-63 58.5t-44 99.5t-16.5 142q0 81 16.5 141t44 99t63 58.5t73.5 19.5q39 0 74.5 -19.5t63 -58.5t44 -99t16.5 -141q0 -82 -16.5 -142t-44 -99.5t-63 -58.5t-74.5 -19zM228 15q33 0 57 27.5t24 95.5v337q0 68 -24 96t-57 28q-16 0 -30.5 -6.5
t-26 -21.5t-18 -38.5t-6.5 -57.5v-337q0 -34 6.5 -57.5t18 -38t26 -21t30.5 -6.5z" />
    <glyph glyph-name="one" unicode="1" horiz-adv-x="456" 
d="M379 0h-300v23q27 0 45.5 4.5t29.5 17t16 33.5t5 54v385l-42 -18q-20 -8 -39 -15.5t-38 -13.5l-8 15q26 14 48 27t44 29t45.5 36t53.5 48h44v-493q0 -33 5 -54t16 -33.5t29.5 -17t45.5 -4.5v-23z" />
    <glyph glyph-name="two" unicode="2" horiz-adv-x="456" 
d="M395 0h-371v32l129 146q49 55 76 91.5t40 63.5t16 49.5t3 49.5t-8 49.5t-22.5 39.5t-34 26.5t-41.5 9.5q-42 0 -75 -30.5t-45 -78.5h-26q7 31 20 62.5t35.5 57t56 41.5t80.5 16q38 0 68.5 -14t52 -38t33 -55t11.5 -65q0 -31 -7.5 -56t-26.5 -52t-51.5 -61t-83.5 -83
l-79 -76q-15 -14 -15 -20q1 -7 27 -7h164q29 0 46.5 15t27.5 61h19z" />
    <glyph glyph-name="three" unicode="3" horiz-adv-x="456" 
d="M149 -12q-57 0 -92.5 23.5t-35.5 54.5q0 23 13 34.5t33 11.5q23 0 36 -14t26 -31t29.5 -31t45.5 -14q16 0 31.5 7.5t27.5 25t19 45t7 67.5q0 67 -28.5 106t-79.5 39q-5 0 -11 -0.5t-12 -1.5l-11 22l10 9q19 17 34.5 32t26.5 30t17.5 32t6.5 38q0 12 -4 27.5t-13.5 29
t-24 22.5t-35.5 9q-28 0 -49.5 -15.5t-47.5 -54.5l-15 9q27 65 70.5 95t87.5 30q33 0 58 -8.5t42 -23t25.5 -33t8.5 -39.5q0 -34 -20 -66.5t-74 -69.5l1 -3q140 -18 140 -164q0 -56 -19.5 -99t-52.5 -72t-77 -44t-94 -15z" />
    <glyph glyph-name="four" unicode="4" horiz-adv-x="456" 
d="M228 224v218q0 18 -5 18q-4 0 -13 -15l-142 -221h160zM337 0h-109v167h-203v43l270 421h42v-406h78v-55h-78v-170z" />
    <glyph glyph-name="five" unicode="5" horiz-adv-x="456" 
d="M161 -12q-30 0 -54.5 7t-42 18.5t-26.5 25t-9 27.5q0 19 15 32.5t32 13.5q24 0 36.5 -14t23 -30.5t22 -30t33.5 -13.5q98 0 98 141q0 39 -9.5 67t-25 46t-36 26.5t-41.5 8.5q-32 0 -83 -17l-25 14v304h230q13 0 20 4t13 14h23l-18 -105h-230l-3 -128q41 7 77 7
q48 0 87.5 -13.5t68 -39t44.5 -62.5t16 -83q0 -49 -17 -89.5t-47.5 -69.5t-74 -45t-97.5 -16z" />
    <glyph glyph-name="six" unicode="6" horiz-adv-x="456" 
d="M240 -12q-43 0 -81 16t-67 48.5t-46 82t-17 116.5q0 55 19.5 114.5t60 111.5t101.5 91t145 54l14 -17q-47 -21 -81.5 -44.5t-59 -52.5t-40.5 -65.5t-25 -84.5l-3 -14q58 33 109 33q31 0 59.5 -12t50.5 -35t35.5 -56.5t13.5 -77.5q0 -99 -50.5 -153.5t-137.5 -54.5z
M240 12q15 0 28.5 7t24 25t16.5 49.5t6 80.5q0 50 -6 82.5t-16.5 51.5t-25.5 26.5t-32 7.5q-40 0 -78 -29q-4 -10 -7 -33t-3 -49q0 -67 6.5 -109.5t19 -67t29.5 -33.5t38 -9z" />
    <glyph glyph-name="seven" unicode="7" horiz-adv-x="456" 
d="M201 0h-85l212 513h-202q-32 0 -48 -11t-27 -42h-22l13 154h372v-41z" />
    <glyph glyph-name="eight" unicode="8" horiz-adv-x="456" 
d="M225 -12q-43 0 -79 12t-62 33.5t-40.5 51t-14.5 63.5q0 51 27.5 83.5t82.5 68.5q-50 41 -75.5 78t-25.5 85q0 36 13.5 65.5t38 51t58 33.5t73.5 12q41 0 74 -11.5t56.5 -31t36.5 -45t13 -52.5q0 -46 -28.5 -77t-77.5 -58q35 -20 58.5 -40t37.5 -42t20 -46.5t6 -52.5
q0 -41 -15 -74.5t-41.5 -57t-61.5 -36.5t-74 -13zM268 366q47 44 47 113q0 58 -27 89.5t-67 31.5q-48 0 -72 -26t-24 -65q0 -18 6 -36.5t22 -36.5t43.5 -35.5t71.5 -34.5zM225 17q45 0 74 26t29 74q0 51 -39.5 93t-114.5 70q-51 -35 -51 -123q0 -73 29.5 -106.5t72.5 -33.5z
" />
    <glyph glyph-name="nine" unicode="9" horiz-adv-x="456" 
d="M103 -9l-14 17q47 21 81.5 44.5t59.5 53t40.5 66.5t24.5 84l3 13q-59 -32 -110 -32q-30 0 -58.5 11.5t-50.5 34.5t-35.5 56.5t-13.5 78.5q0 97 51 152t136 55q43 0 81.5 -16t67.5 -48.5t46 -82t17 -116.5q0 -56 -19.5 -115t-60 -110.5t-101.5 -90.5t-145 -55zM223 271
q40 0 78 29q4 10 7 33t3 49q0 67 -7 109.5t-19.5 67t-29.5 34t-38 9.5q-15 0 -28.5 -7t-23.5 -25t-16 -49.5t-6 -80.5q0 -50 6 -83t16.5 -52t25.5 -26.5t32 -7.5z" />
    <glyph glyph-name="colon" unicode=":" horiz-adv-x="263" 
d="M191 155q0 -24 -17 -42t-42 -18q-26 0 -43 18t-17 42q0 25 17 42.5t43 17.5q25 0 42 -17.5t17 -42.5zM191 471q0 -25 -17 -42.5t-42 -17.5q-26 0 -43 17.5t-17 42.5t17 42t43 17q25 0 42 -17t17 -42z" />
    <glyph glyph-name="semicolon" unicode=";" horiz-adv-x="263" 
d="M191 471q0 -25 -17 -42.5t-42 -17.5q-26 0 -43 17.5t-17 42.5t17 42t43 17q25 0 42 -17t17 -42zM51 -11q95 57 95 122q-11 -8 -31 -8q-25 0 -43.5 18t-18.5 42q0 26 17 43.5t45 17.5q39 0 64 -29.5t25 -71.5q0 -55 -36 -94t-91 -49z" />
    <glyph glyph-name="less" unicode="&#x3c;" horiz-adv-x="595" 
d="M523 85l-494 202v49l494 204v-82l-350 -146l350 -144v-83z" />
    <glyph glyph-name="equal" unicode="=" horiz-adv-x="523" 
d="M453 423l41 -70h-424l-41 70h424zM453 238l41 -70h-424l-41 70h424z" />
    <glyph glyph-name="greater" unicode="&#x3e;" horiz-adv-x="595" 
d="M72 85v83l350 144l-350 146v82l494 -204v-49z" />
    <glyph glyph-name="question" unicode="?" horiz-adv-x="441" 
d="M369 455q0 -29 -5 -49.5t-19 -39.5t-40.5 -40t-69.5 -51q-47 -33 -47 -57q0 -14 10 -28t18 -18l-12 -11q-92 24 -92 99q0 43 51 84l95 66q52 40 52 88q0 33 -25 55.5t-60 22.5q-52 0 -77 -46q47 -11 47 -58q0 -20 -16 -36.5t-41 -16.5q-30 0 -48 21.5t-18 56.5
q0 22 10.5 44t28.5 40t43 29.5t54 11.5q33 0 62.5 -12.5t51 -35t34.5 -53t13 -66.5zM254 68q0 -25 -17.5 -42t-42.5 -17t-42 17t-17 42q0 26 17 43.5t42 17.5t42.5 -17.5t17.5 -43.5z" />
    <glyph glyph-name="at" unicode="@" horiz-adv-x="783" 
d="M343 226q10 0 26.5 19t32.5 49t28 65.5t12 68.5q0 18 -5.5 28t-10.5 10q-11 0 -27.5 -24.5t-31.5 -59t-25.5 -71.5t-10.5 -61t12 -24zM379 192q-22 -29 -44 -41t-47 -12q-31 0 -51 23t-20 68q0 51 19.5 101.5t49.5 91t65 65.5t66 25q10 0 18.5 -4t15.5 -8.5t12 -8t7 -3.5
t2 3l1 7h111q-82 -279 -82 -295q0 -7 5.5 -13t14.5 -6q26 0 52.5 19.5t47.5 51t34.5 70.5t13.5 77q0 48 -17 89t-47 70.5t-71 46t-90 16.5q-65 0 -122.5 -24.5t-100 -68.5t-67.5 -104.5t-25 -131.5q0 -62 21 -113t58.5 -88t88.5 -57.5t110 -20.5q49 0 95 14t84.5 40t68 63.5
t46.5 84.5h44q-101 -243 -339 -243q-72 0 -133.5 25.5t-106.5 70t-70 105.5t-25 132q0 77 27.5 142.5t77 113.5t118.5 75.5t152 27.5q57 0 105.5 -19.5t83.5 -54t55 -82t20 -102.5q0 -59 -18.5 -108.5t-50 -85.5t-73.5 -56.5t-88 -20.5q-42 0 -63.5 21t-21.5 53q0 7 -1 7
q-2 0 -6.5 -10.5t-9.5 -17.5z" />
    <glyph glyph-name="A" unicode="A" horiz-adv-x="698" 
d="M695 0h-306v30h12q40 0 58 9.5t18 32.5q0 16 -9 39l-48 121h-213l-49 -141q-6 -17 -6 -29q0 -5 1 -11t7 -10.5t19 -7.5t38 -3h36v-30h-249v30q37 0 57.5 14t34.5 52q88 250 134 373t45 131q0 2 -1.5 6.5t-6.5 12.5h139l208 -527q14 -36 32 -49t49 -13v-30zM400 284
l-92 233l-82 -233h174z" />
    <glyph glyph-name="B" unicode="B" horiz-adv-x="646" 
d="M330 367q54 0 86 27t32 82q0 26 -10.5 47.5t-29 37t-44 24t-55.5 8.5h-63v-226h84zM353 43q24 0 45.5 8t37.5 25.5t25.5 44t9.5 63.5q0 67 -39 108t-111 41h-75v-220q0 -70 66 -70h41zM359 0h-328v30q86 0 86 63v421q0 38 -20 54t-66 16v30q48 5 119 8t168 3
q69 0 119 -14t82.5 -36.5t48 -50t15.5 -54.5q0 -84 -105 -118q72 -32 104.5 -73.5t32.5 -95.5q0 -40 -17 -73.5t-49.5 -58t-80 -38t-109.5 -13.5z" />
    <glyph glyph-name="C" unicode="C" horiz-adv-x="688" 
d="M380 -12q-78 0 -142.5 25t-110.5 67.5t-71 100.5t-25 124q0 72 32 131t83.5 101t117.5 65t135 23q63 0 107.5 -11t87.5 -28l26 16h9l11 -168h-27q-13 30 -29 57.5t-39 48.5t-55 33.5t-78 12.5q-60 0 -105 -21t-74 -58.5t-43.5 -89t-14.5 -112.5q0 -67 22 -119.5t58 -88.5
t81 -55t90 -19q72 0 126 37.5t80 106.5h25q0 -17 -3.5 -37.5t-9.5 -43.5t-14 -46.5t-17 -44.5q-29 8 -52 8q-29 0 -75 -7.5t-106 -7.5z" />
    <glyph glyph-name="D" unicode="D" horiz-adv-x="793" 
d="M368 0h-337v30q86 0 86 63v421q0 38 -20 54t-66 16v30h348q87 0 158 -17t121.5 -52.5t77.5 -91t27 -132.5q0 -80 -28.5 -140t-80 -100t-124.5 -60.5t-162 -20.5zM345 31q80 0 134 22.5t87 61.5t47.5 91t14.5 110t-18 107t-53.5 84t-87.5 55t-119 20h-104v-484
q0 -37 22 -52t77 -15z" />
    <glyph glyph-name="E" unicode="E" horiz-adv-x="609" 
d="M579 0h-548v30q86 0 86 63v421q0 38 -20 54t-66 16v30h523v-130h-19q-4 26 -11 43t-19.5 26.5t-31 13t-45.5 3.5h-182v-232h164q72 0 72 57v8h30v-187h-30q0 40 -16.5 56t-55.5 16h-164v-189q0 -30 14 -41.5t48 -11.5h139q28 0 47 4t31.5 14.5t20.5 30t15 51.5h28z" />
    <glyph glyph-name="F" unicode="F" horiz-adv-x="549" 
d="M332 0h-301v30q86 0 86 63v421q0 38 -20 54t-66 16v30h496v-130h-19q-4 26 -11 43t-19.5 26.5t-31.5 13t-46 3.5h-154v-232h157q72 0 72 57v8h30v-187h-30q0 40 -17 56t-55 16h-157v-189q0 -69 79 -69h7v-30z" />
    <glyph glyph-name="G" unicode="G" horiz-adv-x="748" 
d="M385 -12q-84 0 -149.5 24t-111 66.5t-69.5 101.5t-24 129q0 66 23 123.5t67 100t107.5 67.5t144.5 25q106 0 198 -30q21 -7 32 -7q19 0 30 14h17v-170h-31q-27 84 -77 124.5t-135 40.5q-56 0 -99.5 -21.5t-74 -59t-46.5 -88.5t-16 -110q0 -63 17.5 -116.5t49 -93t75 -62
t95.5 -22.5q56 0 113 23v142q0 35 -19 52.5t-65 17.5h-37v30h318v-30q-38 0 -53 -16t-15 -54v-147q-119 -54 -265 -54z" />
    <glyph glyph-name="H" unicode="H" horiz-adv-x="817" 
d="M787 0h-301v30q86 0 86 63v202h-326v-195q0 -37 20 -53.5t66 -16.5v-30h-301v30q86 0 86 63v421q0 38 -20 54t-66 16v30h301v-30q-86 0 -86 -63v-175h326v168q0 38 -20 54t-66 16v30h301v-30q-86 0 -86 -63v-421q0 -37 20 -53.5t66 -16.5v-30z" />
    <glyph glyph-name="I" unicode="I" horiz-adv-x="362" 
d="M332 0h-301v30q86 0 86 63v421q0 38 -20 54t-66 16v30h301v-30q-86 0 -86 -63v-421q0 -37 20 -53.5t66 -16.5v-30z" />
    <glyph glyph-name="J" unicode="J" horiz-adv-x="362" 
d="M11 -222q-54 0 -78 16t-24 37q0 10 5.5 20.5t14.5 19t21 13.5t25 5q15 0 27.5 -9t23.5 -19.5t22 -19t24 -8.5q16 0 30.5 16t14.5 52v613q0 38 -20 54t-66 16v30h301v-30q-86 0 -86 -63v-431q0 -64 -12 -120.5t-39.5 -99t-72.5 -67.5t-111 -25z" />
    <glyph glyph-name="K" unicode="K" horiz-adv-x="727" 
d="M724 0h-318v30q61 0 61 30q0 17 -19 42l-46 60q-47 58 -63 75l-35 35q-13 12 -24.5 17t-33.5 5v-194q0 -37 20 -53.5t66 -16.5v-30h-301v30q86 0 86 63v421q0 38 -20 54t-66 16v30h301v-30q-86 0 -86 -63v-201h10q28 0 53.5 9t49.5 30t47.5 54t48.5 81q11 21 14.5 31
t3.5 21q0 38 -65 38v30h249v-30q-23 0 -40.5 -3.5t-35 -15t-37.5 -33.5t-47 -59l-42 -58q-14 -20 -28.5 -37t-29.5 -30q28 -24 63.5 -67.5t73.5 -91.5l35 -48q25 -34 44 -55.5t36.5 -33.5t35 -17t39.5 -5v-30z" />
    <glyph glyph-name="L" unicode="L" horiz-adv-x="595" 
d="M548 0h-517v30q86 0 86 63v421q0 38 -20 54t-66 16v30h301v-30q-86 0 -86 -63v-422q0 -30 14 -41.5t48 -11.5h108q28 0 50 4.5t41.5 16.5t38 33t39.5 54h30z" />
    <glyph glyph-name="M" unicode="M" horiz-adv-x="925" 
d="M892 0h-301v30q56 0 75 17t19 48l-25 426l-226 -521h-21l-227 508l-27 -410q0 -35 16.5 -51.5t63.5 -16.5v-30h-209v30q42 0 60.5 17t21.5 69l25 411q0 57 -63 57v30h196l195 -435l188 435h198v-30q-38 0 -52 -15t-14 -46l23 -411q2 -48 21.5 -65t62.5 -17v-30z" />
    <glyph glyph-name="N" unicode="N" horiz-adv-x="809" 
d="M693 0h-52l-474 509v-409q0 -37 20 -53.5t66 -16.5v-30h-222v30q86 0 86 63v470q-14 11 -32 16t-54 5v30h211l401 -430v330q0 38 -20 54t-66 16v30h222v-30q-86 0 -86 -63v-521z" />
    <glyph glyph-name="O" unicode="O" horiz-adv-x="774" 
d="M388 -12q-81 0 -147 25t-112.5 68.5t-72 101.5t-25.5 124q0 67 26 125t73.5 101t114.5 67.5t149 24.5q79 0 143.5 -26t110.5 -69.5t71 -101t25 -121.5q0 -66 -25.5 -124t-72 -101.5t-112 -68.5t-146.5 -25zM406 17q40 0 76.5 16t64 49t43.5 83.5t16 120.5q0 77 -19 135
t-51 97t-75 58.5t-92 19.5q-41 0 -77 -15.5t-63.5 -48.5t-43.5 -83.5t-16 -120.5q0 -78 19 -136.5t51 -97t75.5 -58t91.5 -19.5z" />
    <glyph glyph-name="P" unicode="P" horiz-adv-x="636" 
d="M327 288q66 0 103.5 38t37.5 116q0 75 -37.5 112.5t-103.5 37.5q-40 0 -81 -10v-284q36 -10 81 -10zM350 0h-319v30q86 0 86 63v421q0 38 -20 54t-66 16v30l116 4q73 2 116 3t57 1q76 0 130 -14.5t88.5 -39t51 -58t16.5 -72.5q0 -84 -61.5 -136t-185.5 -52
q-21 0 -43.5 1.5t-45.5 5.5l-24 2v-159q0 -37 21.5 -53.5t82.5 -16.5v-30z" />
    <glyph glyph-name="Q" unicode="Q" horiz-adv-x="774" 
d="M406 17q40 0 76.5 16t64 49t43.5 83.5t16 120.5q0 77 -19 135t-51 97t-75 58.5t-92 19.5q-41 0 -77 -15.5t-63.5 -48.5t-43.5 -83.5t-16 -120.5q0 -78 19 -136.5t51 -97t75.5 -58t91.5 -19.5zM696 -220q-119 0 -234 84q-54 44 -79.5 65.5t-38.5 32t-23 17t-33 20.5
q-59 14 -106.5 43t-81 69t-51.5 90t-18 106q0 67 26 125t73.5 101t114.5 67.5t149 24.5q79 0 143.5 -26t110.5 -69.5t71 -101t25 -121.5q0 -55 -18 -104.5t-51.5 -90t-81.5 -70t-108 -43.5q18 -21 45 -46.5t55.5 -48.5t53 -41.5t37.5 -26.5q33 -21 82 -31l-19 -22
q-23 -3 -43 -3z" />
    <glyph glyph-name="R" unicode="R" horiz-adv-x="680" 
d="M307 299q169 0 169 148v5q0 67 -40.5 104.5t-122.5 37.5q-19 0 -35.5 -1.5t-31.5 -3.5v-290h61zM677 0h-73q-39 0 -64.5 3.5t-44 15t-33.5 32.5t-34 57l-93 160h-89v-168q0 -37 20 -53.5t66 -16.5v-30h-301v30q86 0 86 63v421q0 38 -20 54t-66 16v30l116 4q74 2 120.5 3
t66.5 1q77 0 130.5 -13.5t86.5 -36.5t48 -54t15 -66q0 -63 -41.5 -102.5t-114.5 -58.5q8 -9 22 -27.5t31 -47.5l31 -56q26 -41 44.5 -66.5t33 -39.5t28 -19t29.5 -5v-30z" />
    <glyph glyph-name="S" unicode="S" horiz-adv-x="492" 
d="M249 -12q-26 0 -55 4.5t-61 15.5q-13 4 -23 6.5t-18 2.5q-12 0 -26 -14h-14l-4 20q-11 55 -15 93t-5 59h28q55 -150 166 -150q52 0 87.5 28t35.5 74q0 38 -23.5 65.5t-58 50t-75.5 43.5t-75.5 46.5t-58 58.5t-23.5 79q0 36 15 64.5t42 49t64.5 31t82.5 10.5q32 0 105 -19
l28 -6l31 8h12l14 -146h-26q-18 54 -57.5 91t-106.5 37q-27 0 -46 -6.5t-31 -16.5t-17 -23t-5 -25q0 -33 24 -57t60.5 -45t78.5 -42.5t78.5 -50t60.5 -66.5t24 -92q0 -45 -19 -78.5t-49.5 -55.5t-68.5 -33t-76 -11z" />
    <glyph glyph-name="T" unicode="T" horiz-adv-x="650" 
d="M494 0h-337v30q62 0 83 16.5t21 53.5v474h-95q-35 0 -58.5 -4.5t-38.5 -17.5t-24 -36t-14 -60h-26l13 173h20l18 -15h539l17 15h20l14 -173h-26q-5 36 -13.5 59t-24 36t-39 18t-58.5 5h-96v-474q0 -37 22 -53.5t83 -16.5v-30z" />
    <glyph glyph-name="U" unicode="U" horiz-adv-x="795" 
d="M399 -12q-136 0 -209 61t-73 175v290q0 38 -20 54t-66 16v30h301v-30q-86 0 -86 -63v-315q0 -81 50.5 -120.5t141.5 -39.5q192 0 192 204v264q0 38 -20.5 54t-66.5 16v30h222v-30q-86 0 -86 -63v-271q0 -59 -15.5 -107.5t-49.5 -83t-87 -53t-128 -18.5z" />
    <glyph glyph-name="V" unicode="V" horiz-adv-x="716" 
d="M388 -5h-53l-235 519q-10 24 -18 37.5t-18 21t-24 9.5t-36 2v30h325v-30h-27q-65 0 -65 -45q0 -8 2 -18.5t7 -21.5l154 -350l151 351q5 11 7.5 20.5t2.5 17.5q0 6 -1 13.5t-8.5 15t-25 12.5t-50.5 5v30h237v-30q-36 0 -61 -20t-48 -72z" />
    <glyph glyph-name="W" unicode="W" horiz-adv-x="875" 
d="M612 -5h-88l-86 254l-87 -254h-88l-166 484q-19 59 -40 82t-53 23v30h644v-30q-21 0 -43 -17t-38 -56l-54 -132l92 -270l141 402q3 10 5 18.5t2 16.5q0 6 -1 12.5t-6 12.5t-15 9.5t-28 3.5v30h169v-30q-47 0 -77 -82zM347 112l69 200l-60 172q-9 28 -18.5 47.5t-21 31
t-26.5 16.5t-36 5q-53 0 -53 -32q0 -18 10 -44zM487 433l41 109q5 13 5 20q0 9 -7 15.5t-43 6.5q-24 0 -34 -4.5t-10 -15.5q0 -8 4 -17z" />
    <glyph glyph-name="X" unicode="X" horiz-adv-x="767" 
d="M763 0h-333v30q62 0 62 30q0 15 -18 38l-122 154l-126 -134q-39 -41 -39 -61q0 -3 5 -16q5 -11 70 -11v-30h-258v30q20 0 37 3.5t36 15.5t43 34t59 59l142 149l-155 196q-22 28 -41 46.5t-37 30t-37.5 16t-43.5 4.5v30q5 1 20.5 1h43.5l298 -1v-30q-41 0 -59.5 -9.5
t-18.5 -27.5q0 -20 21 -45l97 -119l119 127q18 19 18 37q0 2 -0.5 8t-6.5 12.5t-20.5 11.5t-42.5 5v30h253v-30q-36 0 -60 -11t-52 -41l-177 -188l183 -231q21 -27 38 -43t32.5 -25t32 -12t37.5 -3v-30z" />
    <glyph glyph-name="Y" unicode="Y" horiz-adv-x="716" 
d="M531 0h-320v30q51 0 73.5 16.5t22.5 53.5v154l-196 261q-18 24 -29.5 37.5t-22.5 20.5t-23.5 9t-31.5 2v30h307v-30q-59 0 -59 -28q0 -15 19 -40l149 -199l120 177q9 13 12.5 25t4.5 22q0 4 -1.5 11.5t-7.5 14.5t-19.5 12t-37.5 5v30h222v-30q-17 0 -30 -3t-26 -11.5
t-25.5 -23t-27.5 -36.5l-169 -252v-158q0 -37 22.5 -53.5t73.5 -16.5v-30z" />
    <glyph glyph-name="Z" unicode="Z" horiz-adv-x="671" 
d="M639 0h-624v37l442 533h-251q-31 0 -52 -4.5t-34.5 -16.5t-21.5 -33.5t-13 -55.5h-27v154h562v-50l-433 -519h288q31 1 50.5 4.5t34 18t26 42.5t26.5 78h27v-188z" />
    <glyph glyph-name="bracketleft" unicode="[" horiz-adv-x="285" 
d="M270 717h-105v-808h105v-52h-191v913h191v-53z" />
    <glyph glyph-name="backslash" unicode="\" horiz-adv-x="407" 
d="M32 768h60l262 -865h-61z" />
    <glyph glyph-name="bracketright" unicode="]" horiz-adv-x="285" 
d="M0 717v53h191v-913h-191v52h105v808h-105z" />
    <glyph glyph-name="asciicircum" unicode="^" horiz-adv-x="433" 
d="M18 375l177 311h46l174 -311h-85l-114 197l-112 -197h-86z" />
    <glyph glyph-name="underscore" unicode="_" horiz-adv-x="629" 
d="M600 0h-527l-44 72h528z" />
    <glyph glyph-name="grave" unicode="`" horiz-adv-x="333" 
d="M19 685h147l56 -170h-41z" />
    <glyph glyph-name="a" unicode="a" horiz-adv-x="464" 
d="M330 -12q-22 0 -39 12t-28 46l-10 -8q-31 -25 -57.5 -37.5t-53.5 -12.5q-48 0 -80 25.5t-32 67.5q0 26 6 46t22 35.5t43.5 28t70.5 24.5q49 13 93 43v35q0 85 -62 85q-60 0 -60 -76l-103 -36q-1 5 -1.5 10.5t-0.5 10.5q0 23 12 44.5t35 38t56 26.5t75 10q40 0 70.5 -10
t50.5 -26.5t30.5 -38t10.5 -45.5v-204q0 -16 8 -24.5t19 -8.5t19 5l3 2l10 -15q-67 -53 -107 -53zM193 35q14 0 34.5 12t37.5 32v146l-6 -4q-14 -9 -32 -17q-42 -18 -62.5 -39t-20.5 -58q0 -41 16.5 -56.5t32.5 -15.5z" />
    <glyph glyph-name="b" unicode="b" horiz-adv-x="556" 
d="M275 -12q-91 0 -181 29v512q0 22 -14.5 35.5t-57.5 19.5v23l167 45h16v-328q39 28 65.5 44.5t44.5 25t30 10.5t24 2q30 0 58 -13.5t50 -37.5t35.5 -57.5t13.5 -74.5q0 -115 -66.5 -175t-184.5 -60zM298 18q22 0 42 9t35.5 28.5t25 50t9.5 72.5q0 40 -9.5 70t-25 49.5
t-36 29t-41.5 9.5q-25 0 -46.5 -13t-46.5 -35v-179q0 -45 27.5 -68t65.5 -23z" />
    <glyph glyph-name="c" unicode="c" horiz-adv-x="454" 
d="M238 -12q-44 0 -82 13t-66 38t-43.5 60.5t-15.5 79.5q0 51 19 93t50.5 71.5t73.5 46t88 16.5q79 0 122 -22.5t43 -54.5q0 -18 -13.5 -31.5t-32.5 -13.5q-25 0 -41.5 13.5t-30.5 29.5t-30 29.5t-41 13.5q-31 0 -56.5 -36t-25.5 -116q0 -50 10.5 -85.5t27.5 -58t39.5 -33
t46.5 -10.5q15 0 28.5 3t28 10t31 19.5t37.5 32.5l16 -10q-75 -98 -183 -98z" />
    <glyph glyph-name="d" unicode="d" horiz-adv-x="552" 
d="M257 54q21 0 41 11t51 43v219q-32 50 -98 50q-48 0 -76 -36t-28 -114q0 -48 9 -81t24 -53.5t35 -29.5t42 -9zM197 -12q-30 0 -60 12t-53.5 35.5t-38 59t-14.5 82.5q0 52 17 94.5t47 72.5t70.5 46t86.5 16q37 0 96 -12v135q0 22 -14.5 35.5t-57.5 19.5v23l167 45h16v-546
q0 -34 13.5 -45t49.5 -11v-19l-160 -37h-13v67q-29 -23 -49.5 -37t-37 -22t-32 -11t-33.5 -3z" />
    <glyph glyph-name="e" unicode="e" horiz-adv-x="437" 
d="M204 -12q-35 0 -66.5 12.5t-55 37t-37.5 61t-14 84.5q0 58 17 100.5t46 69.5t67.5 40t81.5 13q53 0 84 -25t48.5 -56t24 -57.5t10.5 -29.5v-24h-266q0 -83 38.5 -123.5t96.5 -40.5q28 0 52 16t63 55l15 -15q-94 -118 -205 -118zM290 237q0 132 -74 132q-70 0 -73 -132
h147z" />
    <glyph glyph-name="f" unicode="f" horiz-adv-x="318" 
d="M268 0h-237v23q32 0 47.5 14t15.5 51v270h-78v12l78 23v20q0 43 6 73.5t18.5 54t32 41t46.5 33.5q38 22 71 33.5t65 11.5q74 0 130 -53q0 -6 -7 -16.5t-16.5 -21.5t-19 -19t-13.5 -9q-9 1 -23 12.5t-30.5 24.5t-35 23.5t-37.5 10.5q-76 0 -76 -122v-97h91v-35h-91v-270
q0 -37 15 -51t48 -14v-23z" />
    <glyph glyph-name="g" unicode="g" horiz-adv-x="507" 
d="M217 -226q-100 0 -150 28t-50 66q0 20 19 42t71 49q-42 22 -62 41t-20 47q0 44 111 88q-105 52 -105 133q0 28 14 53.5t40 44t61.5 29.5t79.5 11q45 0 78.5 -10t65.5 -27l118 30v-87q-14 3 -34 9t-46 11l-15 3l1 -4q14 -40 14 -68q0 -31 -16 -56t-42.5 -43t-60.5 -28
t-70 -10q-20 0 -36.5 -4.5t-29 -12t-19.5 -16.5t-7 -18q0 -29 96 -32h79q92 0 135.5 -31t43.5 -78q0 -33 -17 -62t-50.5 -50.5t-83 -34.5t-113.5 -13zM221 159q32 0 55 21.5t23 72.5q0 53 -21 89.5t-62 36.5q-37 0 -56 -28t-19 -71q0 -22 4.5 -43.5t14 -39t24.5 -28
t37 -10.5zM263 -194q33 0 58.5 7.5t43.5 19.5t27.5 27.5t9.5 31.5q0 26 -23.5 41t-81.5 15h-69q-69 0 -84 3q-32 -21 -32 -54q0 -19 11.5 -35.5t31.5 -29t48 -19.5t60 -7z" />
    <glyph glyph-name="h" unicode="h" horiz-adv-x="583" 
d="M553 0h-236v23q32 0 47 14t15 51v149q0 55 -21 80t-47 25q-44 0 -106 -50v-204q0 -37 15 -51t48 -14v-23h-237v23q32 0 47.5 14t15.5 51v441q0 22 -14.5 35.5t-57.5 19.5v23l167 45h16v-320q48 30 93.5 52t87.5 22q48 0 76 -34t28 -106v-178q0 -37 15.5 -51t47.5 -14v-23
z" />
    <glyph glyph-name="i" unicode="i" horiz-adv-x="298" 
d="M146 519q-30 0 -51 18.5t-21 43.5q0 26 21 44.5t51 18.5t50.5 -18.5t20.5 -44.5q0 -25 -20.5 -43.5t-50.5 -18.5zM268 0h-237v23q32 0 47.5 14t15.5 51v210q0 21 -14.5 35t-57.5 20v23l167 45h16v-333q0 -37 15 -51t48 -14v-23z" />
    <glyph glyph-name="j" unicode="j" horiz-adv-x="297" 
d="M-7 -217q-45 0 -70 18t-25 40q0 20 17.5 35.5t48.5 15.5q7 0 17.5 -10t22.5 -22t24 -22t23 -10q15 0 29 18.5t14 66.5v385q0 21 -14.5 35t-57.5 20v23l167 45h16v-362q-1 -19 -2 -46.5t-7.5 -58t-19.5 -61t-36 -55t-59 -40t-88 -15.5zM146 519q-30 0 -51 18.5t-21 43.5
q0 26 21 44.5t51 18.5t50.5 -18.5t20.5 -44.5q0 -25 -20.5 -43.5t-50.5 -18.5z" />
    <glyph glyph-name="k" unicode="k" horiz-adv-x="539" 
d="M540 0h-218v23q25 0 25 13q0 11 -17 34l-93 127q-13 19 -22 19q-10 0 -10 -7v-121q0 -37 15 -51t48 -14v-23h-237v23q32 0 47.5 14t15.5 51v441q0 22 -14.5 35.5t-57.5 19.5v23l167 45h16v-414q0 -8 11 -8l133 108q11 10 11 19q0 3 -3.5 8t-17.5 5h-25v23h191v-23
q-54 -2 -102 -39l-84 -67l129 -170q17 -22 29.5 -36t22.5 -22t19.5 -10.5t20.5 -2.5v-23z" />
    <glyph glyph-name="l" unicode="l" horiz-adv-x="298" 
d="M268 0h-237v23q32 0 47.5 14t15.5 51v441q0 22 -14.5 35.5t-57.5 19.5v23l167 45h16v-564q0 -37 15 -51t48 -14v-23z" />
    <glyph glyph-name="m" unicode="m" horiz-adv-x="930" 
d="M900 0h-237v23q32 0 47.5 14t15.5 51v154q0 49 -21 74t-51 25q-29 0 -59 -17t-74 -49v-187q0 -37 15.5 -51t47.5 -14v-23h-236v23q32 0 47 14t15 51v154q0 100 -62 100q-61 0 -143 -67v-187q0 -37 15 -51t48 -14v-23h-237v23q32 0 47.5 14t15.5 51v210q0 21 -14.5 35
t-57.5 20v23l167 45h16v-109q42 26 72 44t54 29t45 16t45 5q39 0 66 -23t34 -72l14 9q38 25 65.5 41.5t50 26.5t43.5 14t47 4q45 0 70.5 -33.5t25.5 -99.5v-185q0 -37 15.5 -51t47.5 -14v-23z" />
    <glyph glyph-name="n" unicode="n" horiz-adv-x="583" 
d="M553 0h-236v23q32 0 47 14t15 51v149q0 55 -21 80t-47 25q-44 0 -106 -50v-204q0 -37 15 -51t48 -14v-23h-237v23q32 0 47.5 14t15.5 51v210q0 21 -14.5 35t-57.5 20v23l167 45h16v-89q48 30 93.5 52t87.5 22q48 0 76 -34t28 -106v-178q0 -37 15.5 -51t47.5 -14v-23z" />
    <glyph glyph-name="o" unicode="o" horiz-adv-x="530" 
d="M266 -12q-53 0 -96.5 15.5t-74.5 43t-47.5 66t-16.5 84.5q0 45 17.5 83t48.5 66t74.5 44t94.5 16q56 0 99.5 -16t73.5 -43.5t46 -66t16 -83.5t-17.5 -83.5t-49 -66.5t-74.5 -43.5t-94 -15.5zM282 18q48 0 73 30.5t25 92.5q0 57 -10.5 101t-28.5 74t-41 45t-47 15
q-46 0 -72 -30.5t-26 -92.5q0 -57 10.5 -101t28 -74t40.5 -45t48 -15z" />
    <glyph glyph-name="p" unicode="p" horiz-adv-x="554" 
d="M303 -225h-272v23q32 0 47.5 14t15.5 52v434q0 21 -14.5 35t-57.5 20v23l167 45h16v-92l9 6q48 34 80 52.5t67 18.5t64.5 -13t51 -36t33.5 -56t12 -72q0 -56 -16.5 -100.5t-45.5 -76t-70 -48t-90 -16.5q-30 0 -51 4.5t-44 14.5v-137q0 -39 25 -55.5t73 -16.5v-23zM301 16
q109 0 109 152q0 47 -9.5 80.5t-25.5 55t-35.5 31.5t-39.5 10q-22 0 -44 -14.5t-51 -41.5v-223q48 -50 96 -50z" />
    <glyph glyph-name="q" unicode="q" horiz-adv-x="554" 
d="M524 -225h-272v23q48 0 73 16.5t25 55.5v189q-54 -40 -89.5 -55.5t-68.5 -15.5q-31 0 -60 11t-51.5 33.5t-36 57t-13.5 80.5q0 53 18.5 96.5t50 74.5t73 48t88.5 17q40 0 71.5 -8.5t73.5 -26.5l45 35h17q-2 -6 -3.5 -7t-2 -11.5t-1 -37.5t-0.5 -85.5v-155v-245.5
q0 -38 15.5 -52t47.5 -14v-23zM259 55q28 0 48.5 13t42.5 38v168q0 48 -25 74.5t-64 26.5q-52 0 -84.5 -39t-32.5 -123q0 -39 9.5 -68.5t25.5 -49.5t36.5 -30t43.5 -10z" />
    <glyph glyph-name="r" unicode="r" horiz-adv-x="394" 
d="M303 0h-272v23q32 0 47.5 14t15.5 51v210q0 21 -14.5 35t-57.5 20v23l167 45h16v-123q34 51 56.5 79.5t37.5 28.5q35 0 90 -31l-36 -89l-2 1q-44 21 -76 21q-40 0 -70 -53v-160q0 -39 25 -55.5t73 -16.5v-23z" />
    <glyph glyph-name="s" unicode="s" horiz-adv-x="340" 
d="M179 -12q-41 0 -59.5 6.5t-27.5 6.5q-15 0 -31 -10h-20l-8 114h22q29 -49 53.5 -65.5t56.5 -16.5q20 0 34.5 13t14.5 34q0 16 -13.5 31t-34 30t-44 31.5t-44 35t-34 40t-13.5 47.5q0 52 36 86.5t105 34.5q53 0 112 -22l4 -92h-22q-6 16 -14.5 31t-20 27t-26.5 19t-34 7
q-22 0 -37.5 -11t-15.5 -32q0 -20 14 -35.5t35.5 -30t46.5 -29.5t46.5 -33t35.5 -40.5t14 -53.5q0 -58 -34 -90.5t-97 -32.5z" />
    <glyph glyph-name="t" unicode="t" horiz-adv-x="343" 
d="M197 -12q-48 0 -80 27t-32 78v265h-50v19q28 13 49.5 28t39 33t31.5 39t26 47h15v-131h124l-11 -35h-113v-248q0 -38 13.5 -51t32.5 -13q37 0 77 40l9 -18q-39 -47 -69.5 -63.5t-61.5 -16.5z" />
    <glyph glyph-name="u" unicode="u" horiz-adv-x="549" 
d="M364 -12h-12v75l-36 -22q-86 -53 -139 -53q-48 0 -78.5 32.5t-30.5 92.5v206q0 15 -7.5 22t-31.5 12v23l135 45h15v-274q0 -48 20.5 -72t49.5 -24q42 0 104 50v202q0 19 -17 30.5t-62 19.5v23l175 45h15v-355q0 -11 7 -19t24 -8q10 0 24 3v-19z" />
    <glyph glyph-name="v" unicode="v" horiz-adv-x="497" 
d="M278 -12h-61l-140 319q-15 34 -35 48.5t-38 14.5v23h239v-23q-32 0 -45 -5t-13 -18q0 -9 6 -22l99 -226l83 199q7 15 7 29q0 6 -1.5 13t-8.5 14t-21.5 11.5t-39.5 4.5v23h185v-23q-23 0 -45.5 -17t-38.5 -54z" />
    <glyph glyph-name="w" unicode="w" horiz-adv-x="756" 
d="M541 -12h-43l-120 274l-117 -274h-44l-140 319q-15 34 -35 48.5t-38 14.5v23h222v-23q-41 0 -41 -24q0 -9 6 -21l88 -211l80 189l-10 26q-7 23 -18 32t-30 9v23h205v-23q-40 0 -40 -23q0 -9 5 -22l89 -211l72 184q7 15 7 30q0 5 -1 12t-7 14t-19 11.5t-37 4.5v23h178v-23
q-24 0 -47 -17t-38 -54z" />
    <glyph glyph-name="x" unicode="x" horiz-adv-x="502" 
d="M499 0h-242v23q38 0 38 20q0 8 -8 21l-70 85l-60 -66q-10 -11 -13 -20t-3 -18q0 -3 1 -6.5t4.5 -7t10.5 -6t20 -2.5v-23h-166v23q38 0 94 57l92 95l-122 150q-38 45 -71 45v23h225v-23q-31 0 -31 -16q0 -7 8 -20l62 -79l57 63q16 17 16 30q0 22 -42 22v23h171v-23
q-45 -2 -95 -52l-84 -90l129 -158q10 -12 18 -20.5t17 -13.5t19.5 -8t24.5 -5v-23z" />
    <glyph glyph-name="y" unicode="y" horiz-adv-x="496" 
d="M108 -231q-24 0 -39.5 14.5t-15.5 36.5q0 21 8 31.5t21 16t29 8t32 7t30 13t23 25.5l37 81l-134 277q-12 25 -23 42t-22 27.5t-23 15.5t-27 6v23h244v-23q-46 0 -46 -34q0 -16 10 -36l82 -169l73 154q12 24 12 43q0 4 -0.5 11t-5.5 14t-17 12t-35 5v23h172v-23
q-13 0 -23.5 -3.5t-20.5 -13t-20 -26t-22 -42.5l-194 -411q-15 -32 -28 -52t-25 -32t-24.5 -16.5t-27.5 -4.5z" />
    <glyph glyph-name="z" unicode="z" horiz-adv-x="496" 
d="M420 0h-391v23l265 325h-146q-46 0 -68 -46l-22 -40h-21l32 154h17q5 -13 15.5 -18t35.5 -5h313v-20l-268 -328h142q17 0 32 2.5t29 11t28.5 24.5t31.5 43h23z" />
    <glyph glyph-name="braceleft" unicode="{" horiz-adv-x="394" 
d="M352 754v-22q-49 -9 -72.5 -34t-23.5 -58q0 -14 3.5 -35t8 -44.5t8.5 -46t4 -40.5q0 -51 -37.5 -93t-121.5 -65q88 -28 124 -70t36 -90q0 -13 -4 -34t-8.5 -44.5t-8 -46t-3.5 -38.5q0 -35 22 -60t73 -35v-23h-26q-36 0 -68 14t-56 35.5t-38 47.5t-14 51q0 12 4 34t9 47
t9 50.5t4 45.5q0 38 -24.5 65t-70.5 35v30q46 8 70.5 35.5t24.5 69.5q0 19 -4 42.5t-9 47t-9 43t-4 30.5q0 38 18.5 67t47.5 49t65 30t71 10z" />
    <glyph glyph-name="bar" unicode="|" horiz-adv-x="251" 
d="M78 -143v893h63v-893h-63z" />
    <glyph glyph-name="braceright" unicode="}" horiz-adv-x="394" 
d="M42 754q35 0 71 -10t65 -30t47.5 -49t18.5 -67q0 -11 -4 -30.5t-9 -43t-9 -47t-4 -42.5q0 -42 24.5 -69.5t70.5 -35.5v-30q-46 -8 -70.5 -35t-24.5 -65q0 -20 4 -45.5t9 -50.5t9 -47t4 -34q0 -25 -14 -51t-38 -47.5t-56 -35.5t-68 -14h-26v23q51 10 73 35t22 60
q0 16 -4 38.5t-8.5 46t-8 44.5t-3.5 34q0 48 36 90t124 70q-84 23 -121.5 65t-37.5 93q0 18 3.5 40.5t8 46t8.5 44.5t4 35q0 33 -23.5 58t-72.5 34v22z" />
    <glyph glyph-name="asciitilde" unicode="~" horiz-adv-x="590" 
d="M533 401h28q-3 -78 -40.5 -118t-91.5 -40q-15 0 -26 1t-28.5 6.5t-47 17.5t-81.5 34q-72 29 -103 29q-33 0 -55 -19.5t-31 -67.5h-28q4 81 40 119.5t87 38.5q35 0 77 -14t110 -44q38 -17 59 -24.5t45 -7.5q34 0 58 23t28 66z" />
    <glyph glyph-name="softhyphen" unicode="&#xad;" horiz-adv-x="405" 
d="M376 301h-306l-41 70h306z" />
    <glyph glyph-name="softhyphen" unicode="&#x2010;" horiz-adv-x="405" 
d="M376 301h-306l-41 70h306z" />
    <glyph glyph-name="periodcentered" unicode="&#xb7;" horiz-adv-x="263" 
d="M191 323q0 -24 -17 -42t-42 -18q-26 0 -43 18t-17 42q0 25 17 42.5t43 17.5q25 0 42 -17.5t17 -42.5z" />
    <glyph glyph-name="multiply" unicode="&#xd7;" horiz-adv-x="462" 
d="M84 518l147 -147l148 146l54 -54l-147 -147l147 -148l-54 -54l-148 147l-146 -145l-54 54l145 146l-147 147z" />
    <glyph glyph-name="divide" unicode="&#xf7;" horiz-adv-x="503" 
d="M433 354l41 -70h-404l-41 70h404zM311 164q0 -24 -17 -42t-42 -18q-26 0 -43 18t-17 42q0 25 17 42.5t43 17.5q25 0 42 -17.5t17 -42.5zM311 474q0 -24 -17 -42t-42 -18q-26 0 -43 18t-17 42q0 25 17 42.5t43 17.5q25 0 42 -17.5t17 -42.5z" />
    <glyph glyph-name="om_deva" unicode="&#x950;" horiz-adv-x="645" 
d="M590 226q0 -34 -12 -62.5t-33.5 -49t-52 -32t-66.5 -11.5q-251 0 -397 479l46 -29q131 -329 339 -329q27 0 49.5 6t39.5 16.5t26.5 25.5t9.5 33q0 31 -32 49q-24 -26 -56 -26q-33 0 -54.5 21.5t-21.5 53.5q0 36 22 57t52 21q7 0 37 -8q31 25 31 70q0 46 -51 46
q-21 0 -45 -8.5t-46.5 -22t-41 -30.5t-28.5 -34q32 -15 32 -56q0 -29 -19 -47t-52 -18q-37 0 -61.5 25t-24.5 68q0 36 19.5 69t52.5 58t76.5 40t91.5 15q69 0 110 -39t41 -108q0 -62 -31 -114q50 -50 50 -129zM408 840q0 -19 -14 -33t-33 -14t-33 14.5t-14 32.5
q0 20 14 33.5t33 13.5t33 -13.5t14 -33.5zM479 832q0 -75 -28.5 -118t-80.5 -43q-107 0 -154 185l34 -17q45 -94 113 -94q40 0 65.5 28.5t25.5 74.5z" />
    <glyph glyph-name="devanagaridanda" unicode="&#x964;" horiz-adv-x="389" 
d="M310 567v-577l-76 75v577z" />
    <glyph glyph-name="devanagaridoubledanda" unicode="&#x965;" horiz-adv-x="506" 
d="M310 567v-577l-76 75v577zM449 567v-577l-75 75v577z" />
    <glyph glyph-name="anji_beng" unicode="&#x980;" horiz-adv-x="488" 
d="M356 346q0 66 -10.5 108.5t-25 67.5t-29.5 34.5t-23 9.5q-23 0 -46.5 -16.5t-43 -40.5t-32 -51t-12.5 -48q0 -24 78 -24h71l34 -83h-91q-35 0 -67 14t-56 35t-38.5 46.5t-14.5 49.5q0 33 13.5 64.5t36.5 55.5t54 39t66 15q25 0 56 -11.5t59.5 -33.5t51 -52.5t31.5 -67.5
q7 -28 11 -70.5t4 -100.5q0 -12 -1.5 -45t-3.5 -88q62 0 62 -55q0 -19 -16 -35t-41 -16q-27 0 -43 15.5t-23.5 36.5t-9.5 43.5t-2 37.5v52q0 14 1 42.5t0 71.5z" />
    <glyph glyph-name="signcandrabinducomb_beng" unicode="&#x981;" 
d="M-61 840q0 -19 -14 -33t-33 -14t-33 14.5t-14 32.5q0 20 14 33.5t33 13.5t33 -13.5t14 -33.5zM10 832q0 -75 -28.5 -118t-80.5 -43q-107 0 -154 185l34 -17q45 -94 113 -94q40 0 65.5 28.5t25.5 74.5z" />
    <glyph glyph-name="signanusvara_beng" unicode="&#x982;" horiz-adv-x="356" 
d="M306 485q0 -23 -9.5 -43.5t-25.5 -36t-38 -25t-47 -9.5q-28 0 -52.5 10.5t-43 28.5t-29.5 42t-11 52q0 24 9 45.5t25 37.5t39 25.5t50 9.5q26 0 50 -11t42.5 -30t29.5 -43.5t11 -52.5zM373 31l-14 -50q-104 122 -277 249l40 129q69 -69 131 -150t120 -178zM247 526
q0 31 -34 31q-13 0 -30.5 -9.5t-33.5 -23.5t-27 -30.5t-11 -29.5q0 -27 31 -27q14 0 32.5 9.5t34.5 23t27 29t11 27.5z" />
    <glyph glyph-name="signvisarga_beng" unicode="&#x983;" horiz-adv-x="359" 
d="M306 485q0 -23 -9 -43.5t-25 -36t-38 -25t-48 -9.5q-27 0 -51 10t-43 28t-30 42t-11 53q0 24 9 45.5t25 37.5t38.5 25.5t49.5 9.5t51 -11t42 -30t29 -43.5t11 -52.5zM315 168q0 -25 -9.5 -45.5t-26 -35.5t-38.5 -23.5t-46 -8.5q-27 0 -51 10t-43 28t-30 42.5t-11 53.5
q0 24 9 45.5t25.5 37.5t39.5 25t50 9q25 0 49 -10.5t42 -29t29 -44t11 -54.5zM248 526q0 31 -35 31q-12 0 -29.5 -9.5t-33.5 -23.5t-27 -30.5t-11 -29.5q0 -27 32 -27q13 0 31.5 10t34.5 24t27 29t11 26zM257 209q0 31 -35 31q-12 0 -29 -9.5t-33 -23.5t-27.5 -30.5
t-11.5 -29.5q0 -26 32 -26q14 0 32 10t34 23.5t27 28.5t11 26z" />
    <glyph glyph-name="a_beng" unicode="&#x985;" horiz-adv-x="725" 
d="M735 552h-82v-552l-36 34q-28 112 -119 183q-34 -91 -139 -91q-213 0 -330 408l37 -25q117 -262 265 -262q58 0 92.5 32t34.5 80q0 18 -6.5 33.5t-18 27.5t-26 18.5t-30.5 6.5q-9 0 -16 -4q7 -17 7 -33q0 -33 -20.5 -53.5t-54.5 -20.5q-39 0 -66 25t-27 67q0 33 23.5 59
t59.5 30q-22 37 -88 37h-205l-67 70h741zM586 175q-4 31 -6.5 49.5t-2.5 25.5v302h-266l22 -33q36 -1 69 -18.5t58 -47.5t40 -71.5t15 -90.5q19 -25 35.5 -54t32.5 -64z" />
    <glyph glyph-name="aa_beng" unicode="&#x986;" horiz-adv-x="930" 
d="M858 -25l-61 72v351q0 28 -8.5 55.5t-23 49.5t-34 35.5t-41.5 13.5h-37v-552l-36 34q-28 112 -119 183q-34 -91 -139 -91q-213 0 -330 408l37 -25q117 -262 265 -262q58 0 92.5 32t34.5 80q0 18 -6.5 33.5t-17.5 27t-26 18.5t-31 7q-9 0 -16 -4q7 -17 7 -33
q0 -33 -20.5 -53.5t-54.5 -20.5q-39 0 -66 25t-27 67q0 34 24.5 59.5t58.5 29.5q-22 37 -88 37h-205l-67 70h703q49 0 77.5 -5t47 -20.5t31.5 -45t30 -77.5l5 3q-14 70 -14 119l-1 139l35 -32q6 -81 60 -81l70 -70h-63q-30 0 -44 20l-2 -3v-594zM583 173l3 2l-7 49
q-1 5 -1 45l-1 283h-266l22 -33q38 -1 71.5 -20t58 -50.5t38.5 -72t14 -85.5q17 -23 34 -52.5t34 -65.5z" />
    <glyph glyph-name="i_beng" unicode="&#x987;" horiz-adv-x="493" 
d="M543 -102q-56 51 -106.5 89t-102 66t-107 48.5t-121.5 36.5l-83 164q97 -55 150 -55q35 0 72.5 11.5t68 31t50.5 44t20 51.5q0 24 -17 40.5t-48 16.5q-28 0 -56 -15q0 -22 -9.5 -41.5t-25 -34.5t-36 -23.5t-42.5 -8.5q-35 0 -56.5 20t-21.5 52q0 24 13.5 45.5t35 37
t48.5 24.5t54 9q-8 28 -42 45h-191l-65 70h424q11 11 11 25q0 39 -69 39l-12 -1.5t-28.5 -3t-34.5 -3t-29 -1.5q-187 0 -187 136q0 42 26 68l30 -17q-23 -17 -23 -41q0 -59 93 -59q22 0 41 5t46 5q87 0 132 -34.5t63 -117.5h25l70 -70h-249q8 -17 9 -41q35 0 67 -12.5
t56 -35.5t38 -54.5t14 -69.5q0 -137 -165 -177q151 -83 253 -200z" />
    <glyph glyph-name="ii_beng" unicode="&#x988;" horiz-adv-x="594" 
d="M477 -13l-44 27q-50 109 -50 212q0 86 47 151l-4 6q-45 -38 -94 -119q-80 -131 -155 -131q-37 0 -68 35.5t-44 98.5l30 29q7 -55 47 -55q18 0 41 17t43.5 41t34 49.5t13.5 42.5q0 48 -54 48q-16 0 -29 -12q0 -86 -72 -86q-73 0 -73 80q0 32 21.5 57.5t58.5 33.5
q-22 40 -81 40h-55l-65 70h500q20 17 20 32q0 39 -69 39l-188 -9q-188 0 -188 136q0 42 27 68l29 -17q-23 -17 -23 -41q0 -60 93 -60q5 0 23.5 1t43.5 2.5t52.5 3.5t51.5 4l16 1q31 0 59.5 -7.5t52.5 -25.5t41.5 -49t26.5 -78h42l69 -70h-450q13 -16 14 -32q63 0 102 -32
t42 -98q70 76 151 117q55 -23 105 -75q-37 -36 -61.5 -65.5t-39.5 -57.5t-21 -58t-6 -68q0 -82 37 -196z" />
    <glyph glyph-name="u_beng" unicode="&#x989;" horiz-adv-x="595" 
d="M605 552h-314v-183q0 -18 14 -18q44 0 132 127q103 -75 103 -212q0 -44 -13.5 -83t-39 -67.5t-61.5 -45t-80 -16.5q-132 0 -212.5 119t-104.5 355l36 -25q36 -176 102 -254t165 -78q31 0 60.5 12t52.5 31.5t37 44t14 48.5q0 32 -28 53q-35 -49 -76.5 -76.5t-71.5 -27.5
q-17 0 -35 11.5t-33.5 31t-25.5 46t-10 57.5v150h-226l-64 70h522q11 11 11 25q0 39 -69 39q-5 0 -32.5 -1.5t-60.5 -3t-63 -3t-39 -1.5q-187 0 -187 136q0 42 26 68l30 -17q-23 -17 -23 -41q0 -59 93 -59q4 0 25 1.5t48 3t53 3t40 1.5l12 1q87 0 132 -34.5t63 -117.5h28z
" />
    <glyph glyph-name="uu_beng" unicode="&#x98a;" horiz-adv-x="651" 
d="M661 552h-303v-177q0 -18 12 -18q45 0 127 121q99 -71 99 -212q0 -46 -16 -84.5t-45 -66t-69.5 -43t-89.5 -15.5q-313 0 -347 471l35 -25q45 -263 168 -346l8 5q-29 30 -49.5 63.5t-35 77t-24.5 98.5t-17 127l36 -25q17 -92 38.5 -154.5t49.5 -101.5t64 -56t83 -17
q31 0 61 11.5t53 30t37.5 42.5t14.5 49q0 37 -22 53q-32 -45 -72 -72t-72 -27q-16 0 -34 11t-33.5 31t-25.5 46.5t-10 58.5v144h-292l-65 70h564q15 15 15 35q0 38 -75 38q-3 0 -18 -0.5t-36.5 -1.5t-46.5 -2.5t-47.5 -2.5t-39.5 -1.5t-23 -0.5q-198 0 -198 136q0 46 27 73
l30 -17q-24 -20 -24 -46q0 -56 100 -56q2 0 17.5 1t36.5 2t45.5 3t44.5 3t33 2t12 1q97 0 148 -39t67 -127h34z" />
    <glyph glyph-name="vocalicr_beng" unicode="&#x98b;" horiz-adv-x="691" 
d="M368 160q-3 34 -3 63v162q-39 -18 -78.5 -38.5t-79.5 -45.5q85 -16 159 -143zM437 290v-290l-31 29q-31 94 -95 147t-149 53l-90 107q66 45 129 79t124 60q-25 31 -57 31q-21 -9 -44.5 -18.5t-45 -17t-41 -12.5t-33.5 -5q-43 0 -70.5 24.5t-27.5 61.5q0 30 18 50t46 20
q15 0 26 -10t19 -21.5t14.5 -21.5t11.5 -10q26 0 97 78q11 -8 28 -25t34.5 -37.5t34 -42t25.5 -37.5h5v206l72 -71v-232q66 -62 110 -145h2v500l36 -38q8 -80 55 -80l71 -70h-60q-19 0 -32 9v-490l-26 25q-2 9 -13 34.5t-31 56t-48 59.5t-64 44z" />
    <glyph glyph-name="glyph112" unicode="&#x98d;" horiz-adv-x="543" 
d="M176 459q-18 0 -41.5 7t-44.5 21t-35.5 36t-14.5 52q0 28 12 52t31 40.5t42 26t45 9.5q31 0 55.5 -19.5t24.5 -56.5q0 -34 -22.5 -53t-49.5 -19q-18 0 -34.5 8t-30.5 27q-1 -1 -1 -14q0 -39 27.5 -54.5t70.5 -15.5h281l52 -47h-367zM485 622l68 -70h-104q-76 0 -121 37
t-45 103q0 25 11.5 48t29.5 40.5t41.5 28t47.5 10.5q31 0 55 -19.5t24 -56.5q0 -34 -22 -53t-49 -19q-38 0 -64 35q-2 -2 -2 -13q0 -22 8.5 -35.5t22.5 -21.5t31.5 -11t35.5 -3h32z" />
    <glyph glyph-name="glyph113" unicode="&#x98e;" horiz-adv-x="543" 
d="M52 459l-52 47h333q43 0 70.5 15.5t27.5 54.5q0 13 -1 14q-14 -19 -30.5 -27t-34.5 -8q-27 0 -49.5 19t-22.5 53q0 37 24.5 56.5t55.5 19.5q22 0 45 -9.5t42 -26t31 -40.5t12 -52q0 -30 -14.5 -52t-35.5 -36t-44.5 -21t-41.5 -7h-315zM90 622q18 0 35.5 3t31.5 11
t22.5 21.5t8.5 35.5q0 11 -2 13q-26 -35 -64 -35q-27 0 -49 19t-22 53q0 37 24 56.5t55 19.5q24 0 47.5 -10.5t41.5 -28t29.5 -40.5t11.5 -48q0 -66 -45 -103t-121 -37h-104l-68 70h168z" />
    <glyph glyph-name="e_beng" unicode="&#x98f;" horiz-adv-x="624" 
d="M552 -6l-38 36q-21 99 -101 99q-20 0 -47.5 -2.5t-54 -6t-47.5 -6t-29 -2.5q-97 0 -151.5 52t-54.5 149q0 95 49 156l26 -24q-29 -44 -29 -99q0 -132 147 -132q5 0 22 0.5t36 1.5t36 1.5t23 0.5q82 0 142 -73h3q-8 43 -8 69v317q0 21 -11 21q-7 0 -21 -6.5t-31 -18
t-34.5 -26t-32 -30t-24 -32t-9.5 -30.5q28 4 28 5q56 -2 56 -63q0 -31 -25.5 -55t-67.5 -24q-48 0 -78.5 33t-30.5 87q0 92 97 171q82 67 138 67q16 0 37.5 -9.5t40 -28.5t31.5 -47.5t13 -65.5v-485z" />
    <glyph glyph-name="ai_beng" unicode="&#x990;" horiz-adv-x="668" 
d="M642 575q0 -60 -24.5 -101.5t-66.5 -54.5v-425l-37 36q-21 99 -101 99q-20 0 -47.5 -2.5t-54 -6t-47.5 -6t-29 -2.5q-97 0 -151.5 52t-54.5 149q0 95 49 156l25 -24q-29 -44 -29 -99q0 -132 148 -132q5 0 22 0.5t36 1.5t36 1.5t23 0.5q82 0 142 -73h3q-8 43 -8 69v317
q0 21 -11 21q-7 0 -21 -6.5t-31 -18t-34.5 -26t-32 -30t-24 -32t-9.5 -30.5q28 4 28 5q24 0 40 -18t16 -45q0 -31 -26 -55t-68 -24q-48 0 -78 33t-30 87q0 92 97 171q82 67 138 67q17 0 37 -10.5t38 -27.5t30.5 -39t14.5 -46q52 0 52 62q0 24 -10.5 42t-33.5 32.5t-60 26
t-91 22.5q-208 40 -208 168q0 69 71 98l30 -25q-61 -19 -61 -60q0 -54 156 -79q247 -40 247 -219z" />
    <glyph glyph-name="o_beng" unicode="&#x993;" horiz-adv-x="645" 
d="M590 226q0 -34 -12 -62.5t-33.5 -49t-52 -32t-66.5 -11.5q-251 0 -397 479l46 -29q131 -329 339 -329q27 0 49.5 6t39.5 16.5t26.5 25.5t9.5 33q0 31 -32 49q-24 -26 -56 -26q-33 0 -54.5 21.5t-21.5 53.5q0 36 22 57t52 21q7 0 37 -8q31 25 31 70q0 46 -51 46
q-21 0 -45 -8.5t-46.5 -22t-41 -30.5t-28.5 -34q32 -15 32 -56q0 -29 -19 -47t-52 -18q-37 0 -61.5 25t-24.5 68q0 36 19.5 69t52.5 58t76.5 40t91.5 15q69 0 110 -39t41 -108q0 -62 -31 -114q50 -50 50 -129z" />
    <glyph glyph-name="au_beng" unicode="&#x994;" horiz-adv-x="656" 
d="M630 570q0 -26 -6.5 -56.5t-18.5 -60t-28 -56.5t-34 -46q47 -47 47 -125q0 -34 -12 -62.5t-33.5 -49t-52 -32t-66.5 -11.5q-251 0 -397 479l46 -29q131 -329 339 -329q27 0 49.5 6t39.5 16.5t26.5 25.5t9.5 33q0 31 -32 49q-24 -26 -56 -26q-33 0 -54.5 21.5t-21.5 53.5
q0 36 22 57t52 21q7 0 37 -8q31 25 31 70q0 46 -51 46q-21 0 -45 -8.5t-46.5 -22t-41 -30.5t-28.5 -34q32 -15 32 -56q0 -29 -19 -47t-52 -18q-37 0 -61.5 25t-24.5 68q0 36 19.5 69t52.5 58t76.5 40t91.5 15q63 0 101 -32.5t38 -87.5q0 -16 -3 -31l7 -3q27 42 27 104
q0 22 -10 39t-33 31t-62 25.5t-97 23.5q-106 21 -157 61.5t-51 106.5q0 69 71 99l30 -25q-61 -19 -61 -59q0 -55 154 -80q256 -43 256 -218z" />
    <glyph glyph-name="ka_beng" unicode="&#x995;" horiz-adv-x="674" 
d="M684 552h-269v-40q42 0 79 -16t64.5 -44t44 -66t16.5 -81q0 -55 -25.5 -89.5t-68.5 -34.5q-30 0 -51.5 19t-21.5 49q0 26 17.5 48t44.5 22q45 0 64 -37q7 10 7 20q0 22 -14 42t-37 35.5t-54 25t-65 9.5v-414l-29 25q-11 43 -36.5 80t-61.5 65t-79.5 46t-90.5 22l-89 111
q201 147 313 162v41h-352l-65 70h688zM354 145q-12 49 -12 63v194q-15 -2 -39 -11.5t-49.5 -22t-48.5 -27t-37 -26.5q30 -10 53.5 -23.5t44.5 -33.5t41 -48t44 -67z" />
    <glyph glyph-name="kha_beng" unicode="&#x996;" horiz-adv-x="576" 
d="M586 552h-52q-20 0 -30 10v-564l-31 31q-30 94 -105.5 149.5t-187.5 62.5l-108 135q16 -2 29.5 -3.5t26.5 -1.5q40 0 78 10.5t67 27t46.5 36.5t17.5 40q0 25 -17 25l-69 -38q-34 -19 -66 -28t-60 -9q-42 0 -69 22t-27 62q0 73 68 73q19 0 29.5 -10t16 -21.5t9.5 -21.5
t11 -10q16 0 40.5 24t69.5 73q57 -30 89 -79.5t32 -103.5q0 -51 -31 -87.5t-83 -49.5v-3q19 -6 39 -18t39 -29.5t36.5 -39t31.5 -45.5h2v569l41 -37q9 -81 47 -81z" />
    <glyph glyph-name="ga_beng" unicode="&#x997;" horiz-adv-x="544" 
d="M554 552h-45q-27 0 -34 15l-3 -2v-573l-66 72l1 293q0 33 -13.5 65t-36 57t-51.5 40.5t-60 15.5q-45 0 -74 -22t-34 -57q34 9 65 9q114 0 114 -130q0 -89 -95 -205l-99 91q25 21 48.5 46t42 48.5t29.5 43.5t11 32q0 23 -22 23q-17 0 -40 -11.5t-44.5 -25t-38.5 -24.5
t-21 -11q-22 0 -40.5 29.5t-18.5 77.5q0 34 14.5 66t38.5 57t56 39.5t67 14.5q37 0 68 -9.5t56.5 -30.5t47.5 -55t42 -83l8 2q-19 44 -19 144l-1 141l36 -33q5 -80 42 -80z" />
    <glyph glyph-name="gha_beng" unicode="&#x998;" horiz-adv-x="530" 
d="M540 552h-82v-554l-31 29q-12 36 -36 67.5t-55 55.5t-67.5 38t-72.5 14q-5 0 -13.5 -0.5t-21.5 -1.5l-85 89l117 106l-3 3q-25 -5 -41 -5q-55 0 -87.5 31t-32.5 79q0 16 14 49h-53l-67 70h547zM393 143q-5 23 -8 46t-3 46v317h-114q-113 0 -113 -70q0 -50 54 -50
q35 0 69 34l75 -72l-130 -114q93 -20 165 -141z" />
    <glyph glyph-name="nga_beng" unicode="&#x999;" horiz-adv-x="579" 
d="M524 210q0 -81 -46 -126.5t-128 -45.5q-64 0 -118 32.5t-95.5 94.5t-69 152.5t-38.5 207.5l35 -26q73 -346 272 -346q28 0 54 8t45.5 21.5t31 31t11.5 37.5q0 31 -26 54q-88 -82 -138 -82q-17 0 -35 9.5t-33 24t-26.5 30t-15.5 27.5q-6 17 -9.5 38t-3.5 51q0 12 1.5 27.5
t3.5 35.5q-55 29 -95 64t-69 75l106 24q17 -67 67 -117q14 57 50.5 90.5t87.5 33.5q22 0 41.5 -8t33.5 -21t22 -30.5t8 -35.5q0 -23 -9.5 -42.5t-26 -33.5t-38.5 -22t-47 -8q-22 0 -60 7q-1 -18 -2 -31t-1 -22q0 -24 1 -39t4 -22.5t8 -10t13 -2.5q46 0 118 99
q116 -68 116 -204zM398 536q0 24 -36 24q-15 0 -30 -6t-27 -16.5t-20.5 -24.5t-10.5 -30q57 0 90.5 15.5t33.5 37.5z" />
    <glyph glyph-name="ca_beng" unicode="&#x99a;" horiz-adv-x="473" 
d="M483 552h-336q11 -49 52 -78.5t94 -33.5q12 -1 33.5 -9t41.5 -23t35 -36.5t15 -49.5q0 -45 -24 -94.5t-59.5 -90.5t-77 -68t-75.5 -27q-20 0 -39.5 14t-35.5 35.5t-25.5 46.5t-9.5 48v366h-82l-70 70h493zM315 305q0 15 -10 22.5t-25.5 14t-34.5 16t-37 29.5
q-41 44 -58 100h-3v-351q0 -17 13 -17q14 0 29.5 10t31.5 25.5t30.5 34t26.5 34.5q37 52 37 82z" />
    <glyph glyph-name="cha_beng" unicode="&#x99b;" horiz-adv-x="563" 
d="M594 -122q-56 49 -106.5 84.5t-101.5 59.5t-106.5 36.5t-121.5 15.5l-71 133q61 -26 121 -26q40 0 81 15.5t74 39.5t54 54t21 60q0 58 -55 58q-12 0 -32 -5q5 -13 5 -19q0 -26 -18 -53t-45 -48.5t-58 -35.5t-58 -14q-17 0 -35.5 10.5t-34 28.5t-25.5 40.5t-10 46.5v193
h-82l-66 70h579l70 -70h-433q10 -29 46 -47.5t87 -18.5h79q17 0 43.5 -14.5t51.5 -40t43 -61t18 -76.5q0 -32 -13 -62t-35.5 -54t-53 -40t-64.5 -20v-3q110 -40 242 -184zM258 393q0 2 -0.5 5.5t-1.5 9.5q-67 10 -114 104l-2 -2q4 -24 6 -41.5t2 -28.5v-112q0 -26 14 -26
q13 0 29.5 10t31.5 24.5t25 30t10 26.5z" />
    <glyph glyph-name="ja_beng" unicode="&#x99c;" horiz-adv-x="689" 
d="M699 552h-308q-13 -5 -24.5 -10.5t-22.5 -12.5q25 -58 90 -58q31 0 126 33q43 -25 103 -112q-103 -88 -103 -242q0 -37 5 -80.5t17 -92.5l-46 37q-35 134 -35 221q0 102 43 166q-13 -4 -40 -4q-122 0 -201 109q-21 -11 -39 -27.5t-32 -34t-22 -34t-8 -28.5q0 -38 39 -38
q42 0 113 56q101 -66 101 -176q0 -75 -40 -118.5t-106 -43.5q-65 0 -116.5 31.5t-88 89.5t-56 140t-19.5 183l34 -27q11 -145 68.5 -222.5t157.5 -77.5q52 0 86 22t34 57q0 20 -18 38q-46 -37 -105 -37q-32 0 -58.5 13t-46 34.5t-30.5 50t-11 59.5q0 82 60 136h-210l-65 70
h704z" />
    <glyph glyph-name="jha_beng" unicode="&#x99d;" horiz-adv-x="661" 
d="M408 290v-290l-31 25q-13 42 -38.5 80.5t-60 68t-76.5 47.5t-88 18l-85 107q207 151 305 168v38h-344l-65 70h482l1 -238q65 -59 109 -144h2v500l36 -38q8 -80 55 -80l71 -70h-60q-19 0 -32 9v-490l-26 25q-2 8 -14 34.5t-32 57t-47.5 59.5t-61.5 43zM336 160
q-1 19 -1.5 30.5t-0.5 16.5v194q-55 -9 -166 -88q25 -6 44.5 -15.5t38 -27t38 -44.5t45.5 -68z" />
    <glyph glyph-name="nya_beng" unicode="&#x99e;" horiz-adv-x="884" 
d="M552 458l5 13q20 66 63 104t94 38q105 0 105 -132q0 -15 -3.5 -31t-8.5 -31t-12.5 -27t-14.5 -18q49 -58 49 -126q0 -45 -27 -75.5t-75 -30.5q-109 0 -174 149l-1 4v-301l-38 36q-21 99 -101 99q-20 0 -47.5 -2.5t-54 -6t-47.5 -6t-29 -2.5q-97 0 -151.5 52t-54.5 149
q0 95 49 156l26 -24q-29 -44 -29 -99q0 -132 147 -132q5 0 22 0.5t36 1.5t36 1.5t23 0.5q82 0 142 -73h3q-8 43 -8 69v317q0 21 -11 21q-7 0 -21 -6.5t-31 -18t-34.5 -26t-32 -30t-24 -32t-9.5 -30.5q28 4 28 5q56 -2 56 -63q0 -31 -25.5 -55t-67.5 -24q-48 0 -78.5 33
t-30.5 87q0 92 97 171q82 67 138 67q16 0 37.5 -9.5t40 -28.5t31.5 -47.5t13 -65.5v-21zM784 477q0 44 -60 44q-32 0 -63 -12.5t-55 -32.5t-39 -44t-15 -47q0 -28 14 -55t35.5 -48.5t48.5 -34.5t54 -13q32 0 52.5 18.5t20.5 41.5q0 33 -31 42q-17 -23 -49 -23
q-28 0 -45.5 19.5t-17.5 48.5q0 27 17 44t45 17q24 0 41 -11q47 11 47 46z" />
    <glyph glyph-name="tta_beng" unicode="&#x99f;" horiz-adv-x="472" 
d="M411 622l71 -70h-335v-382q0 -29 19 -29q14 0 31 9t33 22.5t30.5 29.5t24.5 29q15 20 20.5 38t8.5 35q-9 -3 -19 -3q-30 0 -50 21t-20 55t25 58t63 24q45 0 74.5 -32.5t29.5 -93.5q0 -45 -22.5 -93t-56 -88t-73.5 -65.5t-75 -25.5q-19 0 -40 17t-38 41t-28.5 50t-11.5 44
v339h-82l-70 70h413q17 15 17 35q0 32 -57 32q-7 0 -35.5 -2.5t-70.5 -2.5q-187 0 -187 136q0 41 26 70l31 -17q-24 -20 -24 -42q0 -60 104 -60q17 0 34 3.5t43 3.5q166 0 180 -156h17z" />
    <glyph glyph-name="ttha_beng" unicode="&#x9a0;" horiz-adv-x="459" 
d="M469 552h-179q114 -159 114 -289q0 -48 -15 -88.5t-42 -70.5t-63 -47t-78 -17q-38 0 -70 14t-56 37.5t-37.5 55t-13.5 66.5q0 45 13 72q36 8 68.5 30.5t57.5 53t39.5 66t14.5 69.5q0 18 -8 48h-224l-71 70h265q-104 164 -104 230t56 101l95 -63q-99 0 -99 -72
q0 -54 108 -196h159zM343 306q0 26 -6 55t-15 57t-20.5 52.5t-22.5 40.5v-2q10 -39 10 -72q0 -43 -13 -83.5t-35.5 -74t-53 -57t-65.5 -32.5q-11 -17 -11 -39q0 -26 20 -44.5t52 -18.5q31 0 60 17.5t51.5 47.5t35.5 69.5t13 83.5z" />
    <glyph glyph-name="dda_beng" unicode="&#x9a1;" horiz-adv-x="595" 
d="M605 552h-314v-183q0 -18 14 -18q44 0 132 127q103 -75 103 -212q0 -44 -13.5 -83t-39 -67.5t-61.5 -45t-80 -16.5q-132 0 -212.5 119t-104.5 355l36 -25q36 -176 102 -254t165 -78q31 0 60.5 12t52.5 31.5t37 44t14 48.5q0 32 -28 53q-35 -49 -76.5 -76.5t-71.5 -27.5
q-17 0 -35 11.5t-33.5 31t-25.5 46t-10 57.5v150h-226l-64 70h609z" />
    <glyph glyph-name="ddha_beng" unicode="&#x9a2;" horiz-adv-x="472" 
d="M411 622l71 -70h-335v-382q0 -29 19 -29q14 0 31 9t33 22.5t30.5 29.5t24.5 29q15 20 20.5 38t8.5 35q-9 -3 -19 -3q-30 0 -50 21t-20 55t25 58t63 24q45 0 74.5 -32.5t29.5 -93.5q0 -45 -22.5 -93t-56 -88t-73.5 -65.5t-75 -25.5q-19 0 -40 17t-38 41t-28.5 50t-11.5 44
v339h-82l-70 70h491z" />
    <glyph glyph-name="nna_beng" unicode="&#x9a3;" horiz-adv-x="501" 
d="M511 552h-44q-26 0 -35 16l-3 -2v-573l-65 72l1 306q0 31 -10 59.5t-27.5 50.5t-41.5 34.5t-52 12.5q-48 0 -80 -33t-32 -85q0 -40 22 -64.5t61 -24.5l3 4q-37 16 -37 50q0 24 16 42t47 18q32 0 52.5 -25t20.5 -59q0 -45 -32 -71t-83 -26q-35 0 -64.5 13t-51.5 36.5
t-34.5 56t-12.5 72.5q0 41 13 75.5t35.5 59.5t52.5 39t63 14q36 0 62 -7.5t47 -27t40 -52t42 -82.5l5 3q-23 55 -23 142l-1 139l36 -32q4 -81 41 -81z" />
    <glyph glyph-name="ta_beng" unicode="&#x9a4;" horiz-adv-x="625" 
d="M635 552h-645l-65 70h640zM570 281q0 -48 -13 -88t-37.5 -68t-59 -43.5t-77.5 -15.5q-241 0 -354 461l37 -25q32 -86 65.5 -146t70 -98.5t78 -56t89.5 -17.5q31 0 58.5 11.5t48 31.5t32 45.5t11.5 54.5q0 24 -7.5 44t-20.5 34t-30 22t-35 8q-8 0 -30 -8q32 -21 32 -66
q0 -38 -26.5 -63.5t-66.5 -25.5q-43 0 -72 30.5t-29 81.5q0 55 37 91.5t98 36.5q43 0 79.5 -17.5t63.5 -48t42.5 -73t15.5 -92.5z" />
    <glyph glyph-name="tha_beng" unicode="&#x9a5;" horiz-adv-x="563" 
d="M573 552h-52q-20 0 -30 10v-564l-31 31q-12 36 -41.5 69.5t-71 59.5t-91 42t-101.5 16l-109 135q25 -2 39 -3.5t16 -1.5q34 0 71 14.5t68.5 37.5t52 52t20.5 59q0 21 -17.5 37.5t-44.5 16.5q-12 0 -25 -3.5t-25 -9.5t-22 -13.5t-16 -16.5q27 -27 27 -53q0 -12 -5.5 -24.5
t-15 -22t-23.5 -16t-31 -6.5q-38 0 -62 23.5t-24 65.5q0 28 13.5 55t37.5 48t56.5 33.5t70.5 12.5q36 0 67 -14.5t54 -39t36 -57t13 -68.5q0 -63 -36.5 -108.5t-97.5 -61.5v-4q18 -2 42 -17t48 -36t45.5 -45t34.5 -44h2v599l41 -37q9 -81 47 -81z" />
    <glyph glyph-name="da_beng" unicode="&#x9a6;" horiz-adv-x="495" 
d="M505 552h-358v-217v-14.5t-1 -11.5l3 -3q12 24 34.5 51.5t50 53.5t58 49.5t57.5 40.5q58 -30 120 -90q-23 -20 -41.5 -47.5t-32 -60.5t-21 -69.5t-7.5 -73.5q0 -50 26 -177l-46 38q-44 137 -44 217q0 68 25 117l-2 3q-117 -93 -160 -231q-61 36 -94 94v331h-82l-65 70
h511z" />
    <glyph glyph-name="dha_beng" unicode="&#x9a7;" horiz-adv-x="490" 
d="M500 552h-82v-552l-30 25q-11 34 -38 69t-65 63.5t-85 47t-98 18.5l-73 92q103 79 175 115l-2 2q-32 -9 -56 -9q-48 0 -79 29.5t-31 74.5q0 51 35 83t90 32q37 0 64.5 -22.5t27.5 -59.5q0 -26 -16 -42.5t-38 -16.5q-49 0 -49 44q0 2 6 22q-46 0 -46 -42q0 -30 22.5 -48.5
t57.5 -18.5q46 0 76 20l79 51v93h85zM350 143q-2 22 -3.5 34.5t-1.5 14.5v216l-179 -122q103 -23 182 -145z" />
    <glyph glyph-name="na_beng" unicode="&#x9a8;" horiz-adv-x="508" 
d="M518 552h-82v-554l-33 32q-5 32 -16.5 74t-30.5 96q-55 157 -167 157v-3q45 -23 45 -77q0 -40 -28 -64t-67 -24q-48 0 -79 32.5t-31 84.5q0 55 36 91.5t99 36.5q140 0 202 -192l5 1q-10 47 -10 96v213h-371l-71 70h530z" />
    <glyph glyph-name="pa_beng" unicode="&#x9aa;" horiz-adv-x="624" 
d="M634 552h-44q-26 0 -35 16l-3 -2v-573l-66 72l1 254q0 70 -51 123q-55 -45 -103.5 -96t-94.5 -109l-118 36q71 71 71 113q0 40 -35 40q-6 0 -15.5 -4.5t-20 -10t-21 -10t-17.5 -4.5q-19 0 -36 17t-17 40q0 28 18.5 59t48.5 57t68 42.5t77 16.5q77 0 138.5 -51.5
t121.5 -167.5l5 4q-17 59 -17 120l-1 201l36 -32q4 -81 40 -81zM367 513q-38 36 -86 36q-59 0 -130 -74q33 0 55.5 -23t22.5 -55q0 -7 -3 -14l3 -2q42 52 138 132z" />
    <glyph glyph-name="pha_beng" unicode="&#x9ab;" horiz-adv-x="661" 
d="M671 552h-523q52 -46 88.5 -86.5t60.5 -75.5l-121 -104q21 -5 44 -17.5t45.5 -31t42.5 -41t36 -47.5l4 1q-4 32 -5.5 52.5t-1.5 31.5v277q20 4 38 5.5t32 1.5q195 0 195 -177q0 -54 -25 -84.5t-60 -30.5q-30 0 -49.5 19.5t-19.5 48.5q0 25 15.5 43t40.5 18q30 0 47 -27
q16 10 16 30q0 56 -104 56q-6 0 -18.5 -2t-31.5 -4v-410l-30 31q-7 35 -31.5 67.5t-60.5 57.5t-81 40t-93 15l-92 109q30 27 69 61t88 74q-22 40 -103 42q-87 1 -93 62l-66 65h677z" />
    <glyph glyph-name="ba_beng" unicode="&#x9ac;" horiz-adv-x="479" 
d="M407 0l-30 25q-12 39 -36.5 77.5t-59 69t-77 49.5t-90.5 19l-85 107q216 159 305 168v37h-344l-66 70h492l73 -70h-82v-552zM336 161q-1 20 -1.5 33t-0.5 20v188q-27 -5 -68 -27.5t-98 -60.5q25 -5 45.5 -15.5t39.5 -29t38.5 -45.5t42.5 -65z" />
    <glyph glyph-name="bha_beng" unicode="&#x9ad;" horiz-adv-x="652" 
d="M662 552h-672l-65 70h667zM597 285q0 -47 -15.5 -86.5t-43.5 -68t-67.5 -44.5t-87.5 -16q-242 0 -354 457l37 -25q30 -83 62.5 -142.5t69.5 -98t79 -56.5t92 -18q33 0 66 13t58.5 33.5t41.5 46t16 51.5q0 24 -19 43q-86 -96 -190 -96q-66 0 -100.5 34t-34.5 86
q0 43 27 72t67 29q35 0 56 -22t21 -54q0 -31 -29 -57l1 -6q73 21 126 134q121 -64 121 -209z" />
    <glyph glyph-name="ma_beng" unicode="&#x9ae;" horiz-adv-x="508" 
d="M527 552h-82v-552l-30 29q-40 147 -145 180q-37 -64 -103 -64q-49 0 -78.5 30.5t-29.5 75.5t28 72.5t71 27.5q21 0 53 -15q12 9 12 32q0 15 -7.5 30t-21 28t-31.5 23.5t-38 16.5q-46 12 -73 22t-41 20q-14 9 -17.5 22t-13.5 33l-54 59h531zM377 160q-4 30 -6 54t-2 43
v295h-230q17 -32 82 -93q18 -17 32.5 -36.5t24.5 -39.5t15.5 -39t5.5 -35q0 -12 -5 -34q7 -5 20 -20.5t26 -34t23 -36t12 -26.5z" />
    <glyph glyph-name="ya_beng" unicode="&#x9af;" horiz-adv-x="487" 
d="M497 552h-82v-552l-31 27q-7 38 -31 72.5t-60 60.5t-81 41.5t-94 15.5l-89 109q24 23 61 56t91 76q-40 37 -88 37q-97 0 -113 57l-68 70h516zM352 145q-5 33 -8.5 58.5t-3.5 42.5v306h-196q97 -93 145 -159q-42 -31 -72 -57t-50 -46q15 0 36 -10t45.5 -29t50.5 -46.5
t51 -61.5z" />
    <glyph glyph-name="ra_beng" unicode="&#x9b0;" horiz-adv-x="479" 
d="M407 0l-30 25q-12 39 -36.5 77.5t-59 69t-77 49.5t-90.5 19l-85 107q216 159 305 168v37h-344l-66 70h493l73 -70h-83v-552zM336 161q-1 20 -1.5 33t-0.5 20v188q-27 -5 -68 -27.5t-98 -60.5q25 -5 45.5 -15.5t39.5 -29t38.5 -45.5t42.5 -65zM237 67q0 -25 -18 -43
t-43 -18t-43 18t-18 43t18 42.5t43 17.5t43 -17.5t18 -42.5z" />
    <glyph glyph-name="la_beng" unicode="&#x9b2;" horiz-adv-x="616" 
d="M626 552h-82v-559l-67 72l2 270q-35 71 -70 71q-48 0 -48 -68v-2q0 -4 1 -6l3 -27l-32 19q-30 78 -110 78q-24 0 -46 -8.5t-38 -23t-25.5 -34.5t-9.5 -43q0 -32 18.5 -53.5t40.5 -21.5q4 0 8.5 0.5t9.5 1.5q-25 21 -25 47q0 30 20 49.5t52 19.5q35 0 56.5 -24.5
t21.5 -61.5q0 -40 -29 -63t-77 -23q-37 0 -68.5 14t-54 38t-35.5 57t-13 71q0 31 12.5 59.5t34 50t49.5 34t60 12.5q69 0 112 -79q16 45 32.5 61t43.5 16q54 0 108 -110l4 4q-4 17 -4 45l-1 117h-490l-66 70h631z" />
    <glyph glyph-name="sha_beng" unicode="&#x9b6;" horiz-adv-x="579" 
d="M603 552h-59q-25 0 -35 16l-2 -2v-573l-66 72l1 324q0 24 -10 47t-24 42t-31 30.5t-30 11.5q-28 0 -56 -42q94 -61 94 -117q0 -39 -24.5 -62.5t-67.5 -23.5q-59 0 -81 84h-8q-19 -85 -83 -85q-40 0 -66 23.5t-26 62.5q0 62 108 130q-17 62 -97 62h-50l-71 70h108
q29 0 51.5 -5t40 -17t31.5 -32t26 -50q73 102 124 102q79 0 159 -156l6 2q-22 45 -22 130v139l34 -32q7 -81 56 -81z" />
    <glyph glyph-name="ssa_beng" unicode="&#x9b7;" horiz-adv-x="488" 
d="M353 147q-9 31 -9 61v138q-18 22 -57 51q-26 -19 -55.5 -45.5t-63.5 -60.5q15 0 36 -10t46 -29t51 -46t50 -61zM416 552v-552l-31 29q-7 37 -31.5 71.5t-60.5 60.5t-81 41.5t-93 15.5l-90 109q12 12 52 46t106 91q-18 16 -38.5 22.5t-41.5 9.5t-40.5 4t-35.5 5.5t-27 15
t-14 31.5l-68 70h507l69 -70h-82zM136 552q19 -13 50 -37t63 -49.5t58 -48t35 -32.5h2v167h-208z" />
    <glyph glyph-name="sa_beng" unicode="&#x9b8;" horiz-adv-x="547" 
d="M563 552h-88v-559l-66 72l2 241q-20 47 -53 47q-37 0 -97 -90q-66 -98 -101 -98q-70 0 -131 136l36 33q15 -60 40 -60q7 0 20 12.5t27.5 30t28.5 36t25 31.5q4 8 4 24q0 35 -29 59t-77 27q-29 2 -47.5 6t-30.5 11.5t-20 19.5t-16 29l-64 62h567zM415 352q-2 14 -3 24.5
t-1 17.5l-1 158h-224v-2q55 -21 55 -93q0 -29 -7 -49l3 -2q41 47 75 47q55 0 99 -102z" />
    <glyph glyph-name="ha_beng" unicode="&#x9b9;" horiz-adv-x="471" 
d="M521 -102q-56 51 -106.5 89t-102 66t-107 48.5t-121.5 36.5l-83 164q97 -55 150 -55q35 0 72.5 11.5t68 31t50.5 44t20 51.5q0 24 -17 40.5t-48 16.5q-28 0 -56 -15q0 -22 -9.5 -41.5t-25 -34.5t-36 -23.5t-42.5 -8.5q-35 0 -56.5 20t-21.5 52q0 24 13.5 45.5t35 37
t48.5 24.5t54 9q-8 28 -42 45h-169l-65 70h486l70 -70h-249q8 -17 9 -41q35 0 67 -12.5t56 -35.5t38 -54.5t14 -69.5q0 -137 -165 -177q151 -83 253 -200z" />
    <glyph glyph-name="signnuktacomb_beng" unicode="&#x9bc;" 
d="M10 -39q0 -25 -18 -43t-43 -18t-43 18t-18 43t18 42.5t43 17.5t43 -17.5t18 -42.5z" />
    <glyph glyph-name="signavagraha_beng" unicode="&#x9bd;" horiz-adv-x="466" 
d="M521 -102q-56 51 -106.5 89t-102 66t-107 48.5t-121.5 36.5l-83 164q97 -55 150 -55q35 0 72.5 11.5t68 31t50.5 44t20 51.5q0 24 -17 40.5t-48 16.5q-28 0 -56 -15q0 -22 -9.5 -41.5t-25 -34.5t-36 -23.5t-42.5 -8.5q-35 0 -56.5 20t-21.5 52q0 24 13.5 45.5t35 37
t48.5 24.5t54 9q-8 28 -42 45h-169l-65 70h239q8 0 20.5 -7t24.5 -21t21 -34.5t11 -48.5q35 0 67 -12.5t56 -35.5t38 -54.5t14 -69.5q0 -137 -165 -177q151 -83 253 -200z" />
    <glyph glyph-name="vowelsignaa_beng" unicode="&#x9be;" horiz-adv-x="205" 
d="M215 552h-36q-30 0 -44 20l-2 -3v-594l-61 72v351q0 30 -8.5 58t-22.5 49t-34 34t-42 13l-64 70h38q26 0 45.5 -4t36.5 -19t32.5 -44.5t33.5 -80.5l5 3q-14 70 -14 119l-1 139l35 -32q6 -81 33 -81z" />
    <glyph glyph-name="vowelsigni_beng" unicode="&#x9bf;" horiz-adv-x="214" 
d="M606 672q-150 154 -306 154q-38 0 -74 -15t-63.5 -38t-44 -51t-16.5 -54q0 -31 30 -46h22l70 -70h-82v-578l-70 79v499h-82l-67 70h157l-42 43q-26 32 -26 63t19.5 62.5t51.5 56.5t74 41t86 16q45 0 95 -14t98.5 -39.5t92.5 -61t77 -78.5v-39z" />
    <glyph glyph-name="vowelsignii_beng" unicode="&#x9c0;" horiz-adv-x="212" 
d="M222 552h-82v-578l-68 79v499h-71l-46 49q-15 16 -43 16h-37v5q17 11 17 32q0 38 -63 38q-7 0 -23.5 -1t-34 -2.5t-32 -2.5t-16.5 -1q-78 0 -118 29.5t-40 78.5q0 54 55.5 83t155.5 29q148 0 238.5 -71.5t119.5 -211.5h17zM72 622q0 18 -5.5 40t-15 43t-22.5 39.5
t-27 30.5q-39 32 -99.5 48t-140.5 16q-78 0 -121 -14.5t-43 -35.5q0 -19 44 -19q3 0 15.5 1t28.5 2t32.5 2t28.5 3l18 2q76 0 116.5 -36t58.5 -122h132z" />
    <glyph glyph-name="vowelsignucomb_beng" unicode="&#x9c1;" 
d="M107 -222q-43 42 -86 76.5t-86 65.5q-25 -79 -111 -79q-21 0 -39.5 7t-32.5 19t-22.5 29t-8.5 38q0 13 7 28t19 27.5t29 21t38 8.5q41 0 79 -26q1 5 1 14v17q0 17 -2 38t-4 44q9 -4 18 -18t16 -33.5t11.5 -42.5t5.5 -45q37 -23 74.5 -52t74.5 -65zM-120 -48
q-26 14 -59 14q-29 0 -47.5 -12.5t-18.5 -27.5q0 -27 40 -27q23 0 48.5 15t36.5 38z" />
    <glyph glyph-name="vowelsignuucomb_beng" unicode="&#x9c2;" 
d="M97 -229l-142 116q-45 -22 -94 -22q-24 0 -45.5 7t-37.5 19t-25 28.5t-9 35.5q0 16 7.5 32t21 28t32 19.5t40.5 7.5q27 0 41 -11v9q0 11 -1.5 28.5t-3.5 40.5q44 -18 52 -119h-58q-42 0 -69.5 -14t-27.5 -27q0 -24 39 -24q48 0 89 24l24 1l152 -119z" />
    <glyph glyph-name="vowelsignvocalicrcomb_beng" unicode="&#x9c3;" 
d="M-23 -214q-134 107 -248 173l-4 8l148 87l12 25q0 7 -1.5 17t-3.5 24q23 -13 37 -42t14 -80l-97 -60q25 -18 57 -42t72 -55q6 -20 9.5 -33.5t4.5 -21.5z" />
    <glyph glyph-name="vowelsigne_beng" unicode="&#x9c7;" horiz-adv-x="361" 
d="M369 552q-41 0 -85.5 -31.5t-81.5 -81.5t-61 -111t-24 -121q0 -33 7 -61t18.5 -48.5t26.5 -32t31 -11.5q19 0 27 4q-20 20 -20 47q0 25 17.5 43.5t47.5 18.5q33 0 52.5 -22t19.5 -55q0 -39 -28 -63.5t-70 -24.5q-43 0 -80.5 22t-65 59t-43.5 86.5t-16 105.5
q0 167 113 277h-164l-71 70h380z" />
    <glyph glyph-name="vowelsignai_beng" unicode="&#x9c8;" horiz-adv-x="361" 
d="M370 552q-41 0 -85.5 -31.5t-81.5 -81.5t-61 -111t-24 -121q0 -33 7 -61t18.5 -48.5t26.5 -32t31 -11.5q20 0 28 4q-21 19 -21 47q0 25 17.5 43.5t48.5 18.5q33 0 52 -22.5t19 -54.5q0 -39 -28 -63.5t-70 -24.5t-79.5 22t-65.5 59t-44 86.5t-16 105.5q0 171 115 277h-158
l-71 70h335q16 16 16 33q0 37 -61 37q-3 0 -18.5 -1.5t-34.5 -3t-37 -2.5t-26 -1q-166 0 -166 117q0 41 29 76l29 -17q-25 -19 -25 -40q0 -55 74 -55q9 0 27 1.5t37.5 3.5t37 3.5t24.5 1.5q69 0 109.5 -46.5t47.5 -131.5z" />
    <glyph glyph-name="vowelsigno_beng" unicode="&#x9cb;" horiz-adv-x="1201" 
d="M369 552q-41 0 -85.5 -31.5t-81.5 -81.5t-61 -111t-24 -121q0 -33 7 -61t18.5 -48.5t26.5 -32t31 -11.5q19 0 27 4q-20 20 -20 47q0 25 17.5 43.5t47.5 18.5q33 0 52.5 -22t19.5 -55q0 -39 -28 -63.5t-70 -24.5q-43 0 -80.5 22t-65 59t-43.5 86.5t-16 105.5
q0 167 113 277h-164l-71 70h380zM441 266q-17 0 -29.5 12t-12.5 30q0 19 12.5 30.5t29.5 11.5q18 0 30 -11.5t12 -30.5q0 -18 -12 -30t-30 -12zM901 266q-17 0 -29.5 12t-12.5 30q0 19 12.5 30.5t29.5 11.5t29.5 -11.5t12.5 -30.5q0 -18 -12.5 -30t-29.5 -12zM628 538
q0 18 13 30.5t30 12.5t29 -12.5t12 -30.5t-12 -30t-29 -12t-30 12t-13 30zM628 78q0 18 13 30.5t30 12.5t29 -12.5t12 -30.5q0 -17 -12 -29t-29 -12t-30 12t-13 29zM750 529q5 10 15.5 15.5t21.5 5.5q20 0 30 -13.5t10 -30.5q0 -19 -13 -29.5t-28 -10.5q-17 0 -30 11.5
t-13 30.5q0 11 7 21zM519 131q6 9 16.5 15t20.5 6q18 0 30 -14t12 -30q0 -19 -13.5 -30t-29.5 -11q-20 0 -30.5 13t-10.5 29q0 9 5 22zM849 459q10 7 20 7q18 0 30 -11.5t12 -30.5q0 -18 -11 -30t-31 -12q-15 0 -28.5 11t-13.5 32t22 34zM450 230q12 5 21 5q17 0 30 -12
t13 -29t-12.5 -29.5t-29.5 -12.5t-29.5 12t-12.5 29q0 22 20 37zM891 230q20 -14 20 -36q0 -19 -12 -30.5t-30 -11.5q-19 0 -30.5 12.5t-11.5 28.5q0 20 13.5 31t28.5 11q7 0 22 -5zM492 459q22 -10 22 -35q0 -19 -13 -30.5t-30 -11.5t-29 12t-12 31q0 16 12.5 28.5
t29.5 12.5q13 0 20 -7zM823 131q4 -7 4 -21q0 -16 -10 -29.5t-30 -13.5q-16 0 -30 11.5t-14 30.5q0 16 12.5 29.5t30.5 13.5q10 0 20.5 -5.5t16.5 -15.5zM593 529q5 -13 5 -20q0 -17 -12 -30t-30 -13q-16 0 -29 11.5t-13 30.5q0 16 10.5 29t30.5 13q24 0 38 -21zM1211 552
h-36q-30 0 -44 20l-2 -3v-594l-61 72v351q0 30 -8.5 58t-22.5 49t-34 34t-42 13l-64 70h38q26 0 45.5 -4t36.5 -19t32.5 -44.5t33.5 -80.5l5 3q-14 70 -14 119l-1 139l35 -32q6 -81 33 -81z" />
    <glyph glyph-name="vowelsignau_beng" unicode="&#x9cc;" horiz-adv-x="1209" 
d="M369 552q-41 0 -85.5 -31.5t-81.5 -81.5t-61 -111t-24 -121q0 -33 7 -61t18.5 -48.5t26.5 -32t31 -11.5q19 0 27 4q-20 20 -20 47q0 25 17.5 43.5t47.5 18.5q33 0 52.5 -22t19.5 -55q0 -39 -28 -63.5t-70 -24.5q-43 0 -80.5 22t-65 59t-43.5 86.5t-16 105.5
q0 167 113 277h-164l-71 70h380zM441 266q-17 0 -29.5 12t-12.5 30q0 19 12.5 30.5t29.5 11.5q18 0 30 -11.5t12 -30.5q0 -18 -12 -30t-30 -12zM901 266q-17 0 -29.5 12t-12.5 30q0 19 12.5 30.5t29.5 11.5t29.5 -11.5t12.5 -30.5q0 -18 -12.5 -30t-29.5 -12zM628 538
q0 18 13 30.5t30 12.5t29 -12.5t12 -30.5t-12 -30t-29 -12t-30 12t-13 30zM628 78q0 18 13 30.5t30 12.5t29 -12.5t12 -30.5q0 -17 -12 -29t-29 -12t-30 12t-13 29zM750 529q5 10 15.5 15.5t21.5 5.5q20 0 30 -13.5t10 -30.5q0 -19 -13 -29.5t-28 -10.5q-17 0 -30 11.5
t-13 30.5q0 11 7 21zM519 131q6 9 16.5 15t20.5 6q18 0 30 -14t12 -30q0 -19 -13.5 -30t-29.5 -11q-20 0 -30.5 13t-10.5 29q0 9 5 22zM849 459q10 7 20 7q18 0 30 -11.5t12 -30.5q0 -18 -11 -30t-31 -12q-15 0 -28.5 11t-13.5 32t22 34zM450 230q12 5 21 5q17 0 30 -12
t13 -29t-12.5 -29.5t-29.5 -12.5t-29.5 12t-12.5 29q0 22 20 37zM891 230q20 -14 20 -36q0 -19 -12 -30.5t-30 -11.5q-19 0 -30.5 12.5t-11.5 28.5q0 20 13.5 31t28.5 11q7 0 22 -5zM492 459q22 -10 22 -35q0 -19 -13 -30.5t-30 -11.5t-29 12t-12 31q0 16 12.5 28.5
t29.5 12.5q13 0 20 -7zM823 131q4 -7 4 -21q0 -16 -10 -29.5t-30 -13.5q-16 0 -30 11.5t-14 30.5q0 16 12.5 29.5t30.5 13.5q10 0 20.5 -5.5t16.5 -15.5zM593 529q5 -13 5 -20q0 -17 -12 -30t-30 -13q-16 0 -29 11.5t-13 30.5q0 16 10.5 29t30.5 13q24 0 38 -21zM1219 552
h-82v-578l-69 79v499h-82l-66 70h156q13 16 13 31q0 49 -86 49q-3 0 -18.5 -0.5t-37.5 -1.5t-48 -2.5t-49.5 -2.5t-41 -1.5t-22.5 -0.5q-217 0 -217 137q0 45 28 73l30 -17q-24 -20 -24 -44q0 -58 115 -58q12 0 42 2t64 4t62.5 4t37.5 2q95 0 146 -39.5t68 -134.5h12z" />
    <glyph glyph-name="signviramacomb_beng" unicode="&#x9cd;" 
d="M73 -230l-190 157l-18 79l192 -158z" />
    <glyph glyph-name="khandata_beng" unicode="&#x9ce;" horiz-adv-x="460" 
d="M492 30q0 -14 -0.5 -24.5t-1.5 -15.5l-38 32q3 10 3 20q0 73 -166 115q-118 29 -178.5 96.5t-60.5 164.5q0 42 14 78t39 63t60 42t77 15q139 0 139 -135q0 -63 -32 -101.5t-80 -38.5q-55 0 -86.5 37t-31.5 92q0 11 2 22.5t4 24.5q-56 -36 -56 -96q0 -26 9 -47t30 -38
t55 -31.5t84 -27.5q109 -31 162 -96.5t53 -150.5zM332 477q0 24 -25 40.5t-67 16.5q-11 0 -23.5 -1.5t-27.5 -3.5q0 -17 7.5 -32.5t20 -28t30 -20t38.5 -7.5q47 0 47 36z" />
    <glyph glyph-name="aulength_beng" unicode="&#x9d7;" horiz-adv-x="213" 
d="M223 552h-82v-578l-69 79v499h-82l-66 70h156q13 16 13 31q0 49 -86 49q-3 0 -18.5 -0.5t-37.5 -1.5t-48 -2.5t-49.5 -2.5t-41 -1.5t-22.5 -0.5q-217 0 -217 137q0 45 28 73l30 -17q-24 -20 -24 -44q0 -58 115 -58q12 0 42 2t64 4t62.5 4t37.5 2q95 0 146 -39.5
t68 -134.5h12z" />
    <glyph glyph-name="rra_beng" unicode="&#x9dc;" horiz-adv-x="595" 
d="M605 552h-314v-183q0 -18 14 -18q44 0 132 127q103 -75 103 -212q0 -44 -13.5 -83t-39 -67.5t-61.5 -45t-80 -16.5q-132 0 -212.5 119t-104.5 355l36 -25q36 -176 102 -254t165 -78q31 0 60.5 12t52.5 31.5t37 44t14 48.5q0 32 -28 53q-35 -49 -76.5 -76.5t-71.5 -27.5
q-17 0 -35 11.5t-33.5 31t-25.5 46t-10 57.5v150h-226l-64 70h609zM382 -64q0 -25 -18 -43t-43 -18t-43 18t-18 43t18 42.5t43 17.5t43 -17.5t18 -42.5z" />
    <glyph glyph-name="rha_beng" unicode="&#x9dd;" horiz-adv-x="472" 
d="M411 622l71 -70h-335v-382q0 -29 19 -29q14 0 31 9t33 22.5t30.5 29.5t24.5 29q15 20 20.5 38t8.5 35q-9 -3 -19 -3q-30 0 -50 21t-20 55t25 58t63 24q45 0 74.5 -32.5t29.5 -93.5q0 -45 -22.5 -93t-56 -88t-73.5 -65.5t-75 -25.5q-19 0 -40 17t-38 41t-28.5 50t-11.5 44
v339h-82l-70 70h491zM275 -30q0 -25 -18 -43t-43 -18t-43 18t-18 43t18 42.5t43 17.5t43 -17.5t18 -42.5z" />
    <glyph glyph-name="yya_beng" unicode="&#x9df;" horiz-adv-x="487" 
d="M497 552h-82v-552l-31 27q-7 38 -31 72.5t-60 60.5t-81 41.5t-94 15.5l-89 109q24 23 61 56t91 76q-40 37 -88 37q-97 0 -97 57l-68 70h500zM352 145q-5 33 -8.5 58.5t-3.5 42.5v306h-196q97 -93 145 -159q-42 -31 -72 -57t-50 -46q15 0 36 -10t45.5 -29t50.5 -46.5
t51 -61.5zM263 54q0 -25 -18 -43t-43 -18t-43 18t-18 43t18 42.5t43 17.5t43 -17.5t18 -42.5z" />
    <glyph glyph-name="zero_beng" unicode="&#x9e6;" horiz-adv-x="546" 
d="M491 308q0 -41 -15 -75t-41.5 -58.5t-62.5 -38t-79 -13.5q-49 0 -93 17t-77.5 46t-53 68.5t-19.5 83.5q0 43 15.5 80t43.5 64t66.5 42t85.5 15q45 0 87 -19.5t73.5 -52t50.5 -74t19 -85.5zM130 284q0 -23 9 -42t23.5 -32.5t33.5 -21.5t39 -8q33 0 64.5 16.5t56.5 44
t40 63.5t15 74q0 21 -8.5 39t-22.5 31t-32.5 20.5t-39.5 7.5q-33 0 -65 -17t-57 -44t-40.5 -61.5t-15.5 -69.5z" />
    <glyph glyph-name="one_beng" unicode="&#x9e7;" horiz-adv-x="441" 
d="M163 563q0 -16 -8 -30q121 -55 176 -118t55 -151q0 -48 -15.5 -90.5t-43 -74t-64.5 -49.5t-80 -18q-21 0 -40 7t-34 18.5t-24 27t-9 32.5q0 20 12 39.5t31.5 34.5t45 24t52.5 9q54 0 95 -26q15 7 15 40q0 21 -8.5 39.5t-27.5 38.5t-50 42.5t-75 50.5q-40 25 -66.5 45
t-42.5 36.5t-22.5 31.5t-6.5 30q0 30 18.5 50t50.5 20q13 0 25 -5t21 -13.5t14.5 -19t5.5 -21.5z" />
    <glyph glyph-name="two_beng" unicode="&#x9e8;" horiz-adv-x="452" 
d="M29 373q25 -18 55 -33.5t60.5 -27t59 -18t51.5 -6.5q99 0 99 69q0 54 -128 102q-123 46 -123 104q0 31 17.5 52t44.5 21q22 0 39 -14t17 -31q0 -10 -4 -17q180 -65 180 -214q0 -138 -123 -162v-3q18 -8 48 -31t61.5 -50t58.5 -53.5t39 -41.5l14 -69q-42 43 -95 84.5
t-108.5 75.5t-109 58t-95.5 31z" />
    <glyph glyph-name="three_beng" unicode="&#x9e9;" horiz-adv-x="592" 
d="M77 465q13 -60 38 -109t58.5 -84.5t74 -54.5t84.5 -19q33 0 60.5 11.5t47 32t30.5 48t11 59.5q0 26 -9.5 51.5t-25 45.5t-35 32.5t-38.5 12.5q15 -23 15 -56q0 -40 -26 -66.5t-66 -26.5q-45 0 -74.5 30t-29.5 82q0 57 35.5 91.5t101.5 34.5q43 0 80.5 -19t66 -53
t45 -79.5t16.5 -98.5q0 -57 -14 -104t-39.5 -80.5t-61.5 -52.5t-79 -19q-56 0 -108 32t-94 88.5t-71.5 132.5t-40.5 164z" />
    <glyph glyph-name="four_beng" unicode="&#x9ea;" horiz-adv-x="520" 
d="M441 480q0 -77 -98 -136q55 -18 88.5 -57t33.5 -87q0 -35 -17 -67t-46.5 -56t-68.5 -38t-83 -14q-45 0 -81.5 9.5t-63 27.5t-41 43t-14.5 55q0 79 129 138q-105 40 -105 126q0 37 15.5 69.5t43 56t65 37t81.5 13.5q76 0 119 -32.5t43 -87.5zM147 459q0 -53 147 -93
q75 28 75 88q0 42 -31 68t-86 26q-51 0 -78 -25t-27 -64zM382 165q0 70 -156 114q-79 -45 -79 -101q0 -42 35.5 -69.5t90.5 -27.5q48 0 78.5 24t30.5 60z" />
    <glyph glyph-name="five_beng" unicode="&#x9eb;" horiz-adv-x="542" 
d="M491 66q-8 -4 -34.5 -9t-57 -10t-58 -8.5t-36.5 -3.5q-62 0 -113 16.5t-87 47.5t-56 73.5t-20 95.5q0 133 136 248q94 79 144 79q41 0 77 -14q-56 -32 -56 -76q0 -68 106 -68l80 -16q-39 -20 -72.5 -47.5t-58 -59t-38.5 -64.5t-14 -64q0 -85 92 -93zM289 83h21q11 0 16 1
v2q-92 35 -92 127q0 105 143 197q-104 15 -104 90q-35 -24 -64.5 -54t-51 -63.5t-34 -67.5t-12.5 -65q0 -38 13.5 -69t37.5 -52.5t56.5 -33.5t70.5 -12z" />
    <glyph glyph-name="six_beng" unicode="&#x9ec;" horiz-adv-x="603" 
d="M73 413q90 -262 267 -262q34 0 63.5 10.5t51 28.5t34 42.5t12.5 53.5q0 44 -32 73q-50 -96 -127 -96q-20 0 -40 7t-38 18t-31.5 25t-19.5 28q-11 27 -19 65.5t-12 89.5q-53 0 -53 44q0 24 17 39.5t43 15.5q71 0 76 -77l10 -164q4 -28 24 -28q10 0 24.5 12.5t30 35.5
t31.5 55t29 71q30 -13 54.5 -37.5t42.5 -55.5t27.5 -67t9.5 -73q0 -53 -14 -96t-38.5 -73.5t-58 -47t-72.5 -16.5q-54 0 -107.5 32t-99 86t-80 126t-49.5 152z" />
    <glyph glyph-name="seven_beng" unicode="&#x9ed;" horiz-adv-x="488" 
d="M226 303q-35 0 -67 14t-56 35t-38.5 46.5t-14.5 49.5q0 33 13.5 64.5t36.5 55.5t54 39t66 15q25 0 56 -11.5t59.5 -33.5t51 -52.5t31.5 -67.5q7 -28 11 -70.5t4 -100.5q0 -12 -1.5 -45t-3.5 -88q62 0 62 -55q0 -19 -16 -35t-41 -16q-27 0 -43 15.5t-23.5 36.5t-9.5 43.5
t-2 37.5q0 24 0.5 52.5t2.5 70.5h-132zM358 386q-2 34 -11.5 66t-22.5 57.5t-28 41t-28 15.5q-23 0 -46.5 -16.5t-43 -40.5t-32 -51t-12.5 -48q0 -24 78 -24h146z" />
    <glyph glyph-name="eight_beng" unicode="&#x9ee;" horiz-adv-x="552" 
d="M526 432q0 -60 -24.5 -85.5t-73.5 -25.5q-8 0 -16 0.5t-16 0.5h-23q-8 0 -13 -5q45 -53 45 -104q0 -32 -20 -64.5t-50.5 -58.5t-66.5 -42t-68 -16q-21 0 -43.5 11.5t-41 31t-31 44.5t-12.5 51q0 5 0.5 18.5t0.5 33t0.5 43t0.5 49.5q0 15 -0.5 33.5t-0.5 41.5v90
q-63 0 -63 55q0 19 16 36.5t43 17.5q35 0 55.5 -29.5t20.5 -80.5v-136h3l53 81h27q37 0 62.5 -17t53.5 -63q7 35 27 50t63 15h20q38 0 47 40zM145 121q0 -26 23 -26q19 0 45 21t49.5 51t40 62.5t16.5 55.5q0 43 -78 43q-48 0 -96 -12v-195z" />
    <glyph glyph-name="nine_beng" unicode="&#x9ef;" horiz-adv-x="567" 
d="M142 5q-19 0 -35.5 10.5t-29 27t-20 38t-7.5 43.5q0 37 14 70t38 58t56 39.5t69 14.5q31 0 57.5 -14t47 -38.5t34 -57.5t17.5 -70q36 5 56.5 30t20.5 57q0 59 -59.5 105.5t-158.5 75.5q-180 45 -180 145q0 14 5.5 27t14.5 23t20.5 16t23.5 6q26 0 41.5 -16t15.5 -38
q0 -33 -25 -48q102 -16 170 -38.5t109 -56t58 -79t17 -108.5q0 -97 -61.5 -155.5t-167.5 -67.5q8 40 8 92q0 160 -85 160q-17 0 -31.5 -8.5t-25.5 -21.5t-17.5 -29.5t-6.5 -31.5q0 -19 9 -47q5 1 7 1.5t3 0.5q56 0 56 -64q0 -19 -16 -35t-42 -16z" />
    <glyph glyph-name="ramiddlediagonal_beng" unicode="&#x9f0;" horiz-adv-x="501" 
d="M511 552h-78v-552l-28 25q-12 34 -37 72t-61 69.5t-83 52.5t-104 21l-86 107q205 150 327 168v37h-371l-68 70h525zM361 293v109q-20 -2 -92 -33q4 0 17 -8t27.5 -20t28 -25t19.5 -23zM363 157q-1 18 -1.5 30.5t-0.5 20.5v24q0 8 -16.5 27t-39 38.5t-45 34t-35.5 14.5
l-51 -32q98 -23 187 -160z" />
    <glyph glyph-name="ralowerdiagonal_beng" unicode="&#x9f1;" horiz-adv-x="501" 
d="M511 552h-78v-552l-28 25q-12 34 -37 72t-61 69.5t-83 52.5t-104 21l-86 107q205 150 327 168v37h-371l-65 70h522zM363 157q-1 18 -1.5 30.5t-0.5 20.5v194q-85 -15 -187 -88q98 -23 187 -160zM350 14l-12 11q-51 51 -99 87t-102 38v48q71 0 149 -69q64 -57 64 -75v-40z
" />
    <glyph glyph-name="rupeesign_beng" unicode="&#x9f3;" horiz-adv-x="563" 
d="M-10 649l10 9q31 28 63 44.5t58 16.5q18 0 39 -17t38.5 -41t29 -50t11.5 -44v-55h43l70 -69h-113v-304q0 -29 18 -29q14 0 31 9t33.5 22.5t31 29t23.5 29.5q27 41 29 73q-9 -3 -19 -3q-30 0 -50 21t-20 55t25.5 58t62.5 24q45 0 74.5 -32.5t29.5 -93.5q0 -45 -22.5 -93
t-56 -88t-73.5 -65.5t-75 -25.5q-19 0 -40 17t-38 41t-28.5 50t-11.5 44v261h-57l-70 69h127v97q0 30 -18 30q-22 0 -46 -18.5t-46 -40.5z" />
    <glyph glyph-name="isshar_beng" unicode="&#x9fa;" horiz-adv-x="689" 
d="M169 576q0 33 23 56t56 23t56 -23t23 -56q0 -30 -23 -54t-56 -24t-56 23t-23 55zM50 563l42 27q0 -39 11 -70.5t31.5 -54.5t48.5 -35.5t61 -12.5q117 0 328 319l58 29q-215 -473 -397 -473q-87 0 -135 72t-48 199z" />
    <glyph glyph-name="zwnj" unicode="&#x200c;" 
 />
    <glyph glyph-name="zwj" unicode="&#x200d;" 
 />
    <glyph glyph-name="endash" unicode="&#x2013;" horiz-adv-x="505" 
d="M476 301h-406l-41 70h406z" />
    <glyph glyph-name="emdash" unicode="&#x2014;" horiz-adv-x="605" 
d="M576 301h-506l-41 70h506z" />
    <glyph glyph-name="quoteleft" unicode="&#x2018;" horiz-adv-x="318" 
d="M224 693q-95 -56 -95 -124q11 8 32 8q25 0 42.5 -17.5t17.5 -40.5q0 -26 -16.5 -44t-43.5 -18q-39 0 -64 29.5t-25 71.5q0 26 9.5 49.5t26.5 42.5t40 32.5t49 19.5z" />
    <glyph glyph-name="quoteright" unicode="&#x2019;" horiz-adv-x="319" 
d="M43 466q94 55 94 124q-11 -8 -32 -8q-25 0 -42.5 17.5t-17.5 40.5q0 26 16.5 44t43.5 18q19 0 35.5 -8t28.5 -21.5t19 -32t7 -39.5q0 -26 -10.5 -50t-27.5 -43t-40 -32.5t-48 -18.5z" />
    <glyph glyph-name="quotedblleft" unicode="&#x201c;" horiz-adv-x="503" 
d="M414 693q-95 -56 -95 -124q11 8 32 8q25 0 43 -17.5t18 -40.5q0 -26 -17 -44t-44 -18q-39 0 -64 29.5t-25 71.5q0 25 9.5 48.5t26.5 43t40 33t50 19.5zM224 693q-95 -56 -95 -124q11 8 32 8q25 0 42.5 -17.5t17.5 -40.5q0 -26 -16.5 -44t-43.5 -18q-39 0 -64 29.5
t-25 71.5q0 26 9.5 49.5t26.5 42.5t40 32.5t49 19.5z" />
    <glyph glyph-name="quotedblright" unicode="&#x201d;" horiz-adv-x="503" 
d="M40 466q94 55 94 124q-11 -8 -32 -8q-25 0 -42.5 17.5t-17.5 40.5q0 26 16.5 44t43.5 18q19 0 35.5 -8t28.5 -21.5t19 -32t7 -39.5q0 -26 -10.5 -50t-27.5 -43t-40 -32.5t-48 -18.5zM231 466q95 56 95 124q-11 -8 -32 -8q-25 0 -43 17.5t-18 40.5q0 26 16.5 44t44.5 18
q37 0 63 -29t26 -72q0 -26 -10.5 -50t-27.5 -43t-40 -32.5t-48 -18.5z" />
    <glyph glyph-name="indianrupeesign" unicode="&#x20b9;" horiz-adv-x="679" 
d="M97 552l-65 70h481l70 -70h-163q11 -15 20.5 -34.5t13.5 -40.5h59l70 -70h-125q-11 -134 -164 -177q148 -90 253 -224l17 -72q-56 57 -106.5 99.5t-102 74t-107 54.5t-121.5 41l-63 141q79 -18 130 -18q23 0 48 6t49 17t45 25.5t37 32.5h-276l-65 70h373v4q0 27 -17 49
t-48 22h-243z" />
    <glyph glyph-name="dottedcircle" unicode="&#x25cc;" horiz-adv-x="635" 
d="M80 266q-17 0 -29.5 12t-12.5 30q0 19 12.5 30.5t29.5 11.5q18 0 30 -11.5t12 -30.5q0 -18 -12 -30t-30 -12zM540 266q-17 0 -29.5 12t-12.5 30q0 19 12.5 30.5t29.5 11.5t29.5 -11.5t12.5 -30.5q0 -18 -12.5 -30t-29.5 -12zM267 538q0 18 13 30.5t30 12.5t29 -12.5
t12 -30.5t-12 -30t-29 -12t-30 12t-13 30zM267 78q0 18 13 30.5t30 12.5t29 -12.5t12 -30.5q0 -17 -12 -29t-29 -12t-30 12t-13 29zM389 529q5 10 15.5 15.5t21.5 5.5q20 0 30 -13.5t10 -30.5q0 -19 -13 -29.5t-28 -10.5q-17 0 -30 11.5t-13 30.5q0 11 7 21zM158 131
q6 9 16.5 15t20.5 6q18 0 30 -14t12 -30q0 -19 -13.5 -30t-29.5 -11q-20 0 -30.5 13t-10.5 29q0 9 5 22zM488 459q10 7 20 7q18 0 30 -11.5t12 -30.5q0 -18 -11 -30t-31 -12q-15 0 -28.5 11t-13.5 32t22 34zM89 230q12 5 21 5q17 0 30 -12t13 -29t-12.5 -29.5t-29.5 -12.5
t-29.5 12t-12.5 29q0 22 20 37zM530 230q20 -14 20 -36q0 -19 -12 -30.5t-30 -11.5q-19 0 -30.5 12.5t-11.5 28.5q0 20 13.5 31t28.5 11q7 0 22 -5zM131 459q22 -10 22 -35q0 -19 -13 -30.5t-30 -11.5t-29 12t-12 31q0 16 12.5 28.5t29.5 12.5q13 0 20 -7zM462 131
q4 -7 4 -21q0 -16 -10 -29.5t-30 -13.5q-16 0 -30 11.5t-14 30.5q0 16 12.5 29.5t30.5 13.5q10 0 20.5 -5.5t16.5 -15.5zM232 529q5 -13 5 -20q0 -17 -12 -30t-30 -13q-16 0 -29 11.5t-13 30.5q0 16 10.5 29t30.5 13q24 0 38 -21z" />
    <glyph glyph-name="ekar_initial_bn" horiz-adv-x="361" 
d="M370 552q-57 0 -103.5 -25t-79.5 -70t-51 -108.5t-18 -141.5q0 -33 7 -61t18.5 -48.5t26.5 -32t31 -11.5q20 0 28 4q-21 19 -21 47q0 25 17.5 43.5t47.5 18.5q33 0 52.5 -22t19.5 -55q0 -39 -28 -63.5t-70 -24.5q-44 0 -81.5 22t-65 61t-43 93t-15.5 118q0 71 18 131
t49.5 103.5t73 67.5t89.5 24h29z" />
    <glyph glyph-name="oikar_initial_bn" horiz-adv-x="361" 
d="M370 551q-57 0 -103.5 -25t-79.5 -70.5t-51 -109t-18 -139.5q0 -33 7 -61t19 -48.5t27 -32t30 -11.5q20 0 28 4q-21 19 -21 47q0 25 18 43.5t47 18.5q33 0 52.5 -22t19.5 -55q0 -39 -28 -63.5t-70 -24.5q-44 0 -81.5 22t-65 61t-43 93t-15.5 118q0 72 18.5 131.5t50 103
t73 67.5t87.5 24q6 28 6 27q0 36 -64 36q-16 0 -48 -4t-63 -4q-159 0 -159 128q0 39 26 68l31 -17q-25 -15 -25 -39q0 -57 85 -57q2 0 15 1.5t29.5 3t32.5 3t25 1.5q75 0 112.5 -39.5t47.5 -129.5z" />
    <glyph glyph-name="k_ko_bn" horiz-adv-x="673" 
d="M683 552h-264v-38q40 0 76 -14t63.5 -39.5t43.5 -60.5t16 -77q0 -77 -61 -84q30 -33 30 -98q0 -45 -20.5 -72t-56.5 -27q-24 0 -40 16t-16 43q0 21 14.5 37t37.5 16q36 0 49 -34h2q0 7 1 8v8q0 15 -8 31t-24.5 29t-43 21t-63.5 8v-318l-31 29q-12 31 -33.5 57.5t-50 46
t-61.5 30.5t-69 11l-84 108q28 19 54.5 34t49.5 27q-24 7 -80 7l-85 108q62 38 108 64.5t82.5 44t67.5 26.5t64 12v40h-361l-71 70h693zM351 319v88q-97 -17 -189 -88q33 -5 72 -44q66 39 117 44zM359 25q-8 27 -8 62v134q-66 -20 -153 -74v-2q79 -7 159 -122zM589 334
q0 16 -12 30.5t-32.5 25.5t-48.5 18t-60 7h-8q-2 -1 -9 -1v-93q52 0 76 -31l3 3q-3 10 -3 12q0 21 14 35.5t33 14.5q29 0 47 -21z" />
    <glyph glyph-name="k_tto_bn" horiz-adv-x="608" 
d="M619 552h-237v-33q31 0 62 -16.5t55 -43t39 -61t15 -70.5q0 -42 -22.5 -69t-54.5 -27q-24 0 -42 17t-18 42q0 51 51 51q33 0 50 -32q5 8 5 17q0 18 -11.5 34.5t-31 29t-44 20.5t-50.5 8v-28q0 -118 -33.5 -188.5t-100.5 -101.5q-49 -24 -49 -35q0 -20 56 -20q20 0 42 4
t42 10.5t36 15.5t24 18q-34 13 -34 47q0 24 17.5 41.5t48.5 17.5q30 0 50.5 -23.5t20.5 -56.5q0 -29 -14.5 -55t-40 -45t-60.5 -30t-75 -11q-37 0 -69.5 11.5t-57 31.5t-38.5 47t-14 57q0 31 40 44q64 22 97 60q-12 10 -30.5 20t-40 17.5t-44 12.5t-42.5 5l-87 105
q31 18 70.5 38.5t79 38.5t74.5 31.5t56 16.5v37h-319l-65 70h527q18 15 18 32q0 39 -68 39q-6 0 -33.5 -1.5t-60.5 -3t-62.5 -3t-39.5 -1.5q-187 0 -187 136q0 43 25 68l31 -17q-23 -17 -23 -41q0 -60 93 -60q3 0 17.5 1t34.5 2t42.5 2.5t41.5 2.5t31 2t11 1q45 0 78 -8.5
t56.5 -27t38 -49t22.5 -74.5h31zM312 415q-30 -7 -66.5 -23t-80.5 -42q73 -24 125 -93q22 37 22 158z" />
    <glyph glyph-name="k_tt_ro_bn" horiz-adv-x="608" 
d="M312 415q-30 -7 -66.5 -23t-80.5 -42q73 -24 125 -93q22 37 22 158zM400 -7l-10 -3q-38 -11 -75 -11t-69.5 11.5t-57 31.5t-38.5 47t-14 57q0 31 40 44q64 22 97 60q-12 10 -30.5 20t-40 17.5t-44 12.5t-42.5 5l-87 105q31 18 70.5 38.5t79 38.5t74.5 31.5t56 16.5v37
h-319l-65 70h527q18 15 18 32q0 39 -68 39q-6 0 -33.5 -1.5t-60.5 -3t-62.5 -3t-39.5 -1.5q-187 0 -187 136q0 43 25 68l31 -17q-23 -17 -23 -41q0 -60 93 -60q3 0 17.5 1t34.5 2t42.5 2.5t41.5 2.5t31 2t11 1q45 0 78 -8.5t56.5 -27t38 -49t22.5 -74.5h31l70 -70h-237v-33
q31 0 62 -16.5t55 -43t39 -61t15 -70.5q0 -42 -22.5 -69t-54.5 -27q-24 0 -42 17t-18 42q0 51 51 51q33 0 50 -32q5 8 5 17q0 18 -11.5 34.5t-31 29t-44 20.5t-50.5 8v-28q0 -118 -33.5 -188.5t-100.5 -101.5q-49 -24 -49 -35q0 -20 56 -20q20 0 42 4t42 10.5t36 15.5t24 18
q-34 13 -34 47q0 24 17.5 41.5t48.5 17.5q30 0 50.5 -23.5t20.5 -56.5q0 -29 -13 -53t-36 -42v-248l-37 38q-6 57 -76 57q-4 0 -27 -2.5t-50.5 -6t-50.5 -6t-27 -2.5q-35 0 -64 12t-50 33.5t-33 53t-12 70.5t17 84l28 -24q-8 -24 -8 -53q0 -35 30.5 -58.5t82.5 -23.5
q3 0 15 0.5t26 0.5t26.5 0.5t16.5 0.5q85 0 142 -67h5q-10 24 -10 46v63z" />
    <glyph glyph-name="k_to_bn" horiz-adv-x="863" 
d="M808 358q0 -32 -11 -58.5t-29 -46t-40.5 -30t-45.5 -10.5q-29 0 -49.5 17.5t-20.5 44.5q0 23 16.5 41t38.5 18q23 0 42 -17.5t24 -41.5q24 7 24 42q0 36 -29.5 59t-68.5 23q-32 0 -51 -11.5t-33 -36.5q-5 -44 -25 -77q47 -47 47 -124q0 -69 -42 -107t-118 -38
q-68 0 -129.5 33.5t-114 98t-94 158.5t-70.5 215l46 -28q52 -177 143.5 -266.5t206.5 -89.5q57 0 90.5 22t33.5 53q0 27 -25 37q-26 -29 -59 -29q-34 0 -55 22t-21 54q0 35 22 56.5t51 21.5q10 0 37 -8q25 28 25 61q0 46 -48 46q-21 0 -44 -7t-44.5 -19t-38.5 -27t-26 -31
q32 -15 32 -56q0 -28 -19 -46.5t-51 -18.5q-38 0 -62.5 24.5t-24.5 69.5q0 34 18.5 65t50 54.5t73.5 37t90 13.5q60 0 97 -31t47 -85q31 42 58.5 60t56.5 18q52 0 85.5 -33.5t33.5 -91.5zM873 552h-883l-67 70h879z" />
    <glyph glyph-name="k_t_bo_bn" horiz-adv-x="863" 
d="M476 -149q-9 25 -9 54v87q-64 -26 -113 -63q65 -14 120 -80zM873 552h-883l-67 70h879zM341 23q-106 48 -185 166.5t-127 320.5l46 -28q52 -177 143.5 -266.5t206.5 -89.5q57 0 90.5 22t33.5 53q0 27 -25 37q-26 -29 -59 -29q-34 0 -55 22t-21 54q0 35 22 56.5t51 21.5
q10 0 37 -8q25 28 25 61q0 46 -48 46q-21 0 -44 -7t-44.5 -19t-38.5 -27t-26 -31q32 -15 32 -56q0 -28 -19 -46.5t-51 -18.5q-38 0 -62.5 24.5t-24.5 69.5q0 34 18.5 65t50 54.5t73.5 37t90 13.5q60 0 97 -31t47 -85q31 42 58.5 60t56.5 18q52 0 85.5 -33.5t33.5 -91.5
q0 -32 -11 -58.5t-29 -46t-40.5 -30t-45.5 -10.5q-29 0 -49.5 17.5t-20.5 44.5q0 23 16.5 41t38.5 18q23 0 42 -17.5t24 -41.5q24 7 24 42q0 36 -29.5 59t-68.5 23q-32 0 -51 -11.5t-33 -36.5q-5 -44 -25 -77q47 -47 47 -124q0 -92 -74 -128v-248l-38 31q-9 15 -27 28.5
t-41.5 23.5t-50.5 15.5t-55 5.5l-78 81q11 7 27 16t37 20z" />
    <glyph glyph-name="k_t_ro_bn" horiz-adv-x="863" 
d="M873 552h-883l-67 70h879zM492 11q-26 -6 -55 -6q-68 0 -129.5 33.5t-114 98t-94 158.5t-70.5 215l46 -28q52 -177 143.5 -266.5t206.5 -89.5q57 0 90.5 22t33.5 53q0 27 -25 37q-26 -29 -59 -29q-34 0 -55 22t-21 54q0 35 22 56.5t51 21.5q10 0 37 -8q25 28 25 61
q0 46 -48 46q-21 0 -44 -7t-44.5 -19t-38.5 -27t-26 -31q32 -15 32 -56q0 -28 -19 -46.5t-51 -18.5q-38 0 -62.5 24.5t-24.5 69.5q0 34 18.5 65t50 54.5t73.5 37t90 13.5q60 0 97 -31t47 -85q31 42 58.5 60t56.5 18q52 0 85.5 -33.5t33.5 -91.5q0 -32 -11 -58.5t-29 -46
t-40.5 -30t-45.5 -10.5q-29 0 -49.5 17.5t-20.5 44.5q0 23 16.5 41t38.5 18q23 0 42 -17.5t24 -41.5q24 7 24 42q0 36 -29.5 59t-68.5 23q-32 0 -51 -11.5t-33 -36.5q-5 -44 -25 -77q47 -47 47 -124q0 -69 -42 -106q-3 -5 -7 -6v-236l-37 38q-6 57 -76 57q-24 0 -54 -2
t-61 -5t-60 -6t-51 -4q-35 0 -64 12t-50 33.5t-33 53t-12 70.5t17 84l28 -24q-8 -24 -8 -53q0 -35 30.5 -58.5t82.5 -23.5q3 0 6.5 0.5t15 1t33.5 1t61 0.5q59 0 102.5 -12.5t78.5 -55.5h5q-10 24 -10 46v56z" />
    <glyph glyph-name="k_no_bn" horiz-adv-x="688" 
d="M698 552h-269v-40q42 0 79 -16t64.5 -44t44 -66t16.5 -81q0 -55 -25.5 -89.5t-68.5 -34.5q-30 0 -51.5 19t-21.5 49q0 26 18 48t45 22q43 0 62 -37q7 10 7 20q0 22 -13.5 42t-36.5 35.5t-54 25t-65 9.5v-484l-38 33q-19 151 -148 151q30 -27 30 -64q0 -26 -20 -45
t-51 -19q-39 0 -63 27t-24 67q0 43 29 69.5t77 26.5q84 0 152 -101l2 3q-5 49 -25 82.5t-52 54.5t-76 30t-96 9l-97 120q193 118 327 141v37h-366l-66 70h704zM367 184q-5 23 -8 38.5t-3 23.5v161q-90 -23 -178 -80q33 -8 58 -19.5t46.5 -28.5t41 -40.5t41.5 -56.5z" />
    <glyph glyph-name="k_bo_bn" horiz-adv-x="674" 
d="M684 552h-266v-39q43 0 80 -15t64 -42t42 -64.5t15 -82.5q0 -60 -24.5 -92.5t-64.5 -32.5q-34 0 -56 20.5t-22 52.5q0 28 19.5 48t46.5 20q17 0 35 -11t23 -29h5q5 8 5 24q0 21 -11.5 39.5t-32 32.5t-48 22t-58.5 8q-17 0 -18 -1v-503l-30 29q-12 30 -33.5 56t-49.5 46
t-61.5 31.5t-69.5 11.5l-84 108q21 14 46.5 29t55.5 32q-21 7 -78 7l-85 108q62 38 108 64.5t82.5 44t67.5 26.5t63 12v40h-360l-70 70h694zM350 319v88q-96 -15 -190 -88q39 -8 74 -44q29 17 58 28t58 16zM359 25q-9 31 -9 62v134q-73 -20 -152 -75q79 -9 159 -123z" />
    <glyph glyph-name="k_mo_bn" horiz-adv-x="695" 
d="M706 552h-83v-631l-34 33q-6 32 -20.5 59t-35 46.5t-46.5 30.5t-54 11q-12 -40 -35.5 -58t-59.5 -18q-42 0 -66.5 24t-24.5 61q0 75 83 83q-18 22 -42 41t-52 32.5t-59.5 21.5t-62.5 10l-85 102q143 93 269 123v29h-308l-65 70h710zM562 73q-13 62 -13 81l-1 398h-176
v-27q34 -6 62 -23.5t48 -43t31 -57t11 -65.5q0 -42 -19.5 -68.5t-48.5 -26.5q-23 0 -39.5 16.5t-16.5 40.5q0 22 14 35.5t34 13.5q31 0 45 -30h2q0 22 -9.5 41.5t-26.5 34t-40 23t-50 9.5l5 -135q2 -35 5 -59t11 -38q49 -4 94.5 -38.5t73.5 -82.5zM317 245q-17 38 -17 80
l-2 98q-39 -13 -73.5 -28t-64.5 -34q95 -36 151 -119z" />
    <glyph glyph-name="k_ro_bn" horiz-adv-x="799" 
d="M744 358q0 -32 -11 -58.5t-28.5 -46t-40 -30t-45.5 -10.5q-29 0 -49.5 17.5t-20.5 44.5q0 23 16.5 41t38.5 18q23 0 41.5 -17.5t24.5 -41.5q24 7 24 42q0 36 -29.5 59t-68.5 23q-45 0 -67 -23t-35 -71v-344l-38 36q-20 81 -97 81q-3 0 -26 -2.5t-50.5 -5t-51.5 -5
t-28 -2.5q-174 0 -174 185q0 59 31 117l27 -24q-19 -28 -19 -75q0 -49 34 -79t94 -30q3 0 15 1t26.5 1.5t27 1.5t15.5 1q24 0 43 -3.5t35.5 -12t32 -23.5t34.5 -37h4q-5 19 -6.5 36t-1.5 31v288q0 21 -12 21q-7 0 -27 -11.5t-41.5 -28.5t-38.5 -38t-17 -40q17 5 30 5
q21 0 38.5 -17.5t17.5 -41.5q0 -35 -25 -57t-68 -22q-45 0 -75.5 30t-30.5 81q0 36 21 73t53 66.5t69.5 48.5t71.5 19q19 0 38 -10t34.5 -27t25 -38.5t9.5 -43.5v-28q39 56 69.5 78.5t62.5 22.5q52 0 85 -33.5t33 -91.5zM809 552h-819l-70 70h818z" />
    <glyph glyph-name="k_lo_bn" horiz-adv-x="673" 
d="M683 552h-268v-40q41 0 78 -16t64.5 -44t44 -66t16.5 -81q0 -55 -25 -89.5t-68 -34.5q-30 0 -52 19t-22 49q0 26 18 48t44 22q45 0 64 -37q7 10 7 20q0 22 -13.5 42t-36.5 35.5t-54 25t-65 9.5v-512l-33 36q-8 51 -29 84t-41 33q-27 0 -27 -36q0 -17 4 -32l-33 16
q-19 61 -90 61q-39 0 -65.5 -20t-26.5 -49q0 -20 13.5 -35.5t25.5 -15.5q7 0 16 6q-14 11 -14 31q0 17 13 29.5t32 12.5q45 0 45 -48q0 -58 -78 -58q-54 0 -86 29.5t-32 80.5q0 54 32 88t87 34q63 0 91 -55h4q16 36 48 36q33 0 94 -82l4 5q-2 4 -3 21q-18 37 -44 66
t-58.5 49.5t-69.5 32.5t-76 16l-89 111q201 147 313 162v41h-352l-65 70h687zM353 145q-6 25 -8.5 41t-2.5 22v194q-15 -2 -39 -11.5t-49.5 -22t-48.5 -27t-37 -26.5q30 -10 53.5 -23.5t44.5 -33.5t41 -48t44 -67z" />
    <glyph glyph-name="k_sso_bn" horiz-adv-x="765" 
d="M775 552h-263v-67q15 2 27 3.5t22 1.5q29 0 56 -13.5t47.5 -37t33 -54.5t12.5 -66q0 -22 -7 -42t-19 -35t-29 -24t-36 -9q-30 0 -52 19t-22 52q0 25 18.5 43t44.5 18q37 0 56 -31q13 12 13 28q0 54 -80 54q-22 0 -42.5 -2.5t-42.5 -6.5v-393l-39 40q-8 38 -22 71
t-32 57.5t-39.5 39.5t-44.5 17q-25 -55 -75 -55q-37 0 -60 24t-23 58q0 14 6.5 27t17.5 23.5t25.5 16.5t30.5 6h9q2 -1 10 -1q11 17 11 38q0 15 -6 29t-15.5 24.5t-22.5 17t-28 6.5q-21 0 -35 -11q1 -2 1 -16t-6.5 -27t-17 -22.5t-24 -15.5t-28.5 -6q-31 0 -53.5 22.5
t-22.5 56.5q0 35 22.5 60.5t62.5 30.5q0 18 -21.5 34.5t-50.5 16.5h-52l-65 70h780zM453 163q-16 58 -16 98v116q-23 0 -49.5 16t-51.5 41.5t-45.5 56.5t-30.5 61h-119q7 -18 11 -30t5 -19q31 -2 65.5 -22.5t63 -52t47.5 -68.5t19 -72q52 -32 96 -126zM437 478v74h-105
q-8 -8 -8 -32q0 -49 58 -49q4 0 17.5 1.5t37.5 5.5z" />
    <glyph glyph-name="k_ss_nno_bn" horiz-adv-x="765" 
d="M775 552h-263v-67q15 2 27 3.5t22 1.5q29 0 56 -13.5t47.5 -37t33 -54.5t12.5 -66q0 -22 -7 -42t-19 -35t-29 -24t-36 -9q-30 0 -52 19t-22 52q0 25 18.5 43t44.5 18q37 0 56 -31q13 12 13 28q0 54 -80 54q-22 0 -42.5 -2.5t-42.5 -6.5v-487l-35 34q-11 72 -51.5 110
t-100.5 38q31 -30 31 -64q0 -28 -21 -46.5t-51 -18.5q-39 0 -62.5 27t-23.5 67q0 45 29 70.5t77 25.5q80 0 152 -98l5 2l-8 53q-22 54 -53.5 84.5t-64.5 34.5q-25 -55 -75 -55q-37 0 -60 24t-23 58q0 14 6.5 27t17.5 23.5t25.5 16.5t30.5 6h9q2 -1 10 -1q11 17 11 38
q0 15 -6 29t-15.5 24.5t-22.5 17t-28 6.5q-21 0 -35 -11q1 -2 1 -16t-6.5 -27t-17 -22.5t-24 -15.5t-28.5 -6q-31 0 -53.5 22.5t-22.5 56.5q0 35 22.5 60.5t62.5 30.5q0 18 -21.5 34.5t-50.5 16.5h-52l-65 70h780zM453 163q-16 58 -16 98v116q-23 0 -49.5 16t-51.5 41.5
t-45.5 56.5t-30.5 61h-119q7 -18 11 -30t5 -19q31 -2 65.5 -22.5t63 -52t47.5 -68.5t19 -72q52 -32 96 -126zM437 478v74h-105q-8 -8 -8 -32q0 -49 58 -49q4 0 17.5 1.5t37.5 5.5z" />
    <glyph glyph-name="k_ss_bo_bn" horiz-adv-x="765" 
d="M775 552h-263v-67q15 2 27 3.5t22 1.5q29 0 56 -13.5t47.5 -37t33 -54.5t12.5 -66q0 -22 -7 -42t-19 -35t-29 -24t-36 -9q-30 0 -52 19t-22 52q0 25 18.5 43t44.5 18q37 0 56 -31q13 12 13 28q0 54 -80 54q-22 0 -42.5 -2.5t-42.5 -6.5v-527l-42 42q-59 83 -188 83
l-78 98q58 36 104 59t82 30l17 3q-32 38 -72 44q-25 -55 -75 -55q-37 0 -60 24t-23 58q0 14 6.5 27t17.5 23.5t25.5 16.5t30.5 6h9q2 -1 10 -1q11 17 11 38q0 15 -6 29t-15.5 24.5t-22.5 17t-28 6.5q-21 0 -35 -11q1 -2 1 -16t-6.5 -27t-17 -22.5t-24 -15.5t-28.5 -6
q-31 0 -53.5 22.5t-22.5 56.5q0 35 22.5 60.5t62.5 30.5q0 18 -21.5 34.5t-50.5 16.5h-52l-65 70h780zM453 163q-16 58 -16 98v116q-23 0 -49.5 16t-51.5 41.5t-45.5 56.5t-30.5 61h-119q7 -18 11 -30t5 -19q31 -2 65.5 -22.5t63 -52t47.5 -68.5t19 -72q52 -32 96 -126z
M437 478v74h-105q-8 -8 -8 -32q0 -49 58 -49q4 0 17.5 1.5t37.5 5.5zM449 -48q-10 31 -10 61v84q-32 -10 -61.5 -24.5t-55.5 -33.5q78 -29 125 -89z" />
    <glyph glyph-name="k_ss_mo_bn" horiz-adv-x="874" 
d="M884 552h-82v-749l-34 35q-4 25 -29 55.5t-58.5 57t-69 44.5t-60.5 18q-12 0 -16 -4q-23 -72 -94 -72q-42 0 -67 27t-25 67t26 65.5t68 25.5q3 0 3 3q0 9 -11.5 23.5t-28 29t-36 25t-34.5 12.5q-25 -55 -75 -55q-37 0 -60 24t-23 58q0 14 6.5 27t17 23.5t25 16.5t31.5 6
h9q2 -1 10 -1q11 17 11 38q0 15 -6 29t-16.5 24.5t-23.5 17t-26 6.5q-21 0 -35 -11v-16q0 -14 -6.5 -27t-17 -22.5t-24 -15.5t-28.5 -6q-31 0 -53.5 22.5t-22.5 56.5q0 35 22.5 60.5t62.5 30.5q0 18 -21 34.5t-50 16.5h-53l-68 70h892zM764 -78l-15 63q-2 6 -5.5 30
t-6.5 51.5t-5.5 51t-2.5 27.5l-2 407h-215v-67q16 2 28.5 3.5t21.5 1.5q29 0 56 -13.5t47.5 -37t32.5 -54.5t12 -66q0 -22 -7 -42t-19 -35t-29 -24t-37 -9q-30 0 -51 20t-21 51q0 25 18 43t44 18q38 0 57 -31q12 10 12 28q0 54 -79 54q-22 0 -42.5 -2.5t-42.5 -6.5v-273
q29 -13 55.5 -26.5t55 -34t62.5 -51t78 -76.5zM454 163q-16 58 -16 98v116q-23 0 -49.5 16t-51.5 41.5t-45.5 56.5t-30.5 61h-119l16 -49q31 -2 65.5 -22.5t63 -52t47.5 -68.5t19 -72q55 -32 95 -126zM437 478v74h-106q-8 -11 -8 -32q0 -49 60 -49q4 0 17.5 1.5t36.5 5.5z
" />
    <glyph glyph-name="k_so_bn" horiz-adv-x="701" 
d="M711 552h-82v-634l-75 74v87l-9 10q-3 3 -4 6l-21 20q-6 4 -10 5.5t-5 2.5h-4q-2 2 -5 2l-18 -5l-16 -7l-14 -10q-8 -5 -11 -8l-49 -41q-10 -8 -17 -13t-13 -10l-18 -13q-16 -11 -29 -16t-21 -5q-3 0 -7.5 0.5t-9.5 1.5l-5 2q-4 0 -10 3.5t-12 8t-11.5 9.5t-8.5 8l-22 23
q-21 27 -34 70l30 34l6 -20q8 -16 20 -28t22 -12q11 0 25 9l52 41q2 2 3 2l12 10q-1 1 -2.5 8t-8.5 19t-23 29.5t-46 39.5q-70 46 -142 46l-89 101l100 56q34 17 65.5 32t56.5 21l48 12q4 0 6 2v27h-315l-71 70h722zM554 121v431h-177v-27q42 -11 74 -32.5t50 -55.5l8 -15
q11 -20 14.5 -42t4.5 -42v-9q-6 -48 -22.5 -68.5t-39.5 -20.5q-26 0 -44 16.5t-18 41.5q0 14 14.5 30t38.5 16q22 0 40 -27q4 7 4 13q0 20 -12.5 38t-31 31.5t-40.5 21.5t-40 8v-248l19 12q15 9 29.5 15t26.5 6l20 -4l22 -13l20 -20q4 -4 7 -8t5 -8l3 -3q2 -2 3 -4t2 -3
l18 -30h2zM315 245q-10 19 -10 53v126q-6 -2 -12.5 -4t-11.5 -4l-38 -14q-17 -9 -36 -16.5t-34 -17.5l-12 -8v-2l22 -4q10 -2 25 -11.5t33 -24.5t36.5 -34.5t35.5 -41.5z" />
    <glyph glyph-name="kh_bo_bn" horiz-adv-x="576" 
d="M504 562v-690l-43 42q-59 83 -187 83l-79 98q51 33 94 54t76 30q-76 55 -185 62l-108 135q25 -2 39 -3.5t17 -1.5q40 0 78 10.5t67 27t46.5 36.5t17.5 40q0 25 -17 25l-69 -38q-34 -19 -66 -28t-60 -9q-42 0 -69 22t-27 62q0 73 68 73q19 0 29.5 -10t16 -21.5t9.5 -21.5
t11 -10q16 0 40.5 24t69.5 73q57 -30 89 -79.5t32 -103.5q0 -51 -31 -87.5t-83 -49.5v-3q19 -6 39 -18t39 -29.5t36.5 -39t31.5 -45.5h2v569l41 -37q9 -81 55 -81l70 -70h-60q-20 0 -30 10zM441 -32q-11 38 -11 61v84q-65 -20 -116 -58q77 -29 124 -89z" />
    <glyph glyph-name="kh_ro_bn" horiz-adv-x="576" 
d="M504 -51l-38 37q-6 57 -76 57q-4 0 -27 -2.5t-50 -6t-50.5 -6t-27.5 -2.5q-35 0 -64 12t-50 34t-33 53.5t-12 69.5q0 41 17 84l28 -24q-8 -24 -8 -53q0 -35 30.5 -58.5t82.5 -23.5q3 0 15 0.5t26 0.5t26.5 0.5t16.5 0.5q85 0 142 -67h5q-30 88 -102 134t-175 52l-108 135
q25 -2 39 -3.5t17 -1.5q40 0 78 10.5t67 27t46.5 36.5t17.5 40q0 25 -17 25l-69 -38q-34 -19 -66 -28t-60 -9q-42 0 -69 22t-27 62q0 73 68 73q19 0 29.5 -10t16 -21.5t9.5 -21.5t11 -10q16 0 40.5 24t69.5 73q57 -30 89 -79.5t32 -103.5q0 -51 -31 -87.5t-83 -49.5v-3
q19 -6 39 -18t39 -29.5t36.5 -39t31.5 -45.5h2v569l41 -37q9 -81 55 -81l70 -70h-60q-20 0 -30 10v-613z" />
    <glyph glyph-name="g_ukar_bn" horiz-adv-x="693" 
d="M638 357q0 -56 -44 -88q28 -49 28 -98q0 -70 -45 -112t-118 -42q-67 0 -130.5 36t-119.5 104.5t-102 168t-78 225.5l48 -30q29 -90 69 -160t88 -119t102.5 -74.5t112.5 -25.5q51 0 86.5 19.5t35.5 52.5q0 20 -12 35q-20 -18 -54 -18q-35 0 -55 20.5t-20 51.5q0 28 19 47
t46 19q32 0 42 -16q34 10 34 55q0 32 -48 101h-2q-3 -14 -7 -25t-8.5 -24t-10 -30.5t-11.5 -44.5l-27 24q0 3 -10.5 20t-24 36.5t-25.5 35.5t-16 19q-20 17 -42 26t-49 9q-70 0 -77 -49q25 6 39 6q35 0 57 -19.5t22 -51.5q0 -68 -64 -111l1 -1h-1q-6 0 -79 37
q20 10 38.5 23.5t33 27t23 25.5t8.5 19q0 14 -18 14q-10 0 -23 -6.5t-26.5 -14.5t-26 -14.5t-22.5 -6.5q-14 0 -26 20t-12 49q0 24 9.5 45.5t26 37.5t39.5 25.5t49 9.5q55 0 101.5 -32.5t72.5 -93.5q9 28 16 63.5t12 78.5l26 -19q9 -40 73 -113q76 -88 76 -147z" />
    <glyph glyph-name="g_go_bn" horiz-adv-x="524" 
d="M543 552h-60q-21 0 -31 10l-1 -618l-38 35q-12 115 -60.5 181t-121.5 66q-39 0 -61 -16.5t-24 -39.5q39 9 58 9q39 0 60 -21t21 -53q0 -65 -65 -116l-103 32q123 73 123 105q0 15 -23 15q-9 0 -27 -8t-36.5 -18t-34 -18t-18.5 -8q-44 0 -44 66q0 52 30 90t90 51v2
q-7 1 -24.5 7.5t-46.5 17.5q123 69 123 114q0 14 -12 14q-19 0 -39.5 -8.5t-39 -18t-33.5 -18t-23 -8.5q-53 0 -53 85q0 30 13.5 58t36 49t51 33.5t58.5 12.5q116 0 197 -157l6 3q-13 45 -13 115l-1 139l39 -36q4 -78 57 -78zM399 159q-24 61 -24 113v85q0 36 -11.5 70
t-31 60t-47 41.5t-58.5 15.5q-87 0 -97 -58q32 8 57 8q97 0 97 -87q0 -53 -48 -98l1 -11q87 -13 155 -143z" />
    <glyph glyph-name="g_do_bn" horiz-adv-x="877" 
d="M887 552h-357v-217v-14.5t-1 -11.5l2 -3q12 24 34.5 51t50 54t58 50.5t57.5 39.5q58 -30 120 -90q-23 -20 -41.5 -47.5t-32 -60.5t-21 -69.5t-7.5 -73.5q0 -56 27 -177l-46 38q-45 133 -45 217q0 68 25 117l-2 3q-116 -92 -160 -231q-61 36 -94 94v157q-21 48 -42 79.5
t-45 50.5t-52.5 26.5t-65.5 7.5q-99 0 -110 -71q30 8 55 8q52 0 82.5 -27t30.5 -75q0 -96 -92 -158l2 -2h-2q-5 0 -113 54q30 15 56.5 34t47 38t32.5 36t12 27q0 20 -27 20q-14 0 -33 -9.5t-38.5 -20.5t-37 -20.5t-29.5 -9.5q-22 0 -39 28t-17 70q0 34 13.5 64.5t37 53.5
t56 36.5t71.5 13.5q173 0 248 -178v-3l6 2q-7 18 -7 40v81l-52 48h415z" />
    <glyph glyph-name="g_dho_bn" horiz-adv-x="681" 
d="M691 552h-185q-24 0 -34 10v-184q44 23 72 23q4 0 17.5 -10t28 -26t25.5 -35.5t11 -38.5q0 -22 -2.5 -57t-2.5 -84q0 -125 15 -176v-24q-22 15 -38.5 29t-28 31t-17 38t-5.5 50v120q0 32 1.5 54.5t3.5 36.5q-19 -6 -38.5 -14t-41.5 -20v-340l-34 31q-9 26 -31 50
t-50.5 42.5t-61 29.5t-63.5 11l-79 98q8 5 19.5 12.5t26.5 16.5l-102 46q30 16 57 35t47.5 37t32.5 33.5t12 24.5q0 22 -22 22q-14 0 -33.5 -9t-39.5 -20.5t-37.5 -20.5t-27.5 -9q-22 0 -39.5 28t-17.5 70q0 34 13 65t37 54.5t56.5 37t71.5 13.5q74 0 121 -43.5t85 -139.5
l5 3q-10 28 -15 63.5t-4 80.5l1 140l39 -36q4 -79 63 -79h122zM401 350q0 34 -12 68.5t-32.5 62t-48.5 44.5t-60 17q-100 0 -110 -72q40 8 56 8q54 0 83.5 -27t29.5 -75q0 -47 -50 -115l2 -2q20 16 60 41t82 50zM413 45q-5 24 -6.5 39t-1.5 22v143q-26 -16 -59 -38t-75 -49
q72 -21 139 -120z" />
    <glyph glyph-name="g_dh_ro_bn" horiz-adv-x="681" 
d="M401 350q0 34 -12 68.5t-32.5 62t-48.5 44.5t-60 17q-100 0 -110 -72q40 8 56 8q54 0 83.5 -27t29.5 -75q0 -47 -50 -115l2 -2q20 16 60 41t82 50zM413 45q-5 24 -6.5 39t-1.5 22v143q-26 -16 -59 -38t-75 -49q72 -21 139 -120zM416 5l-9 11q-32 35 -79.5 59t-95.5 24
l-79 98q8 5 19.5 12.5t26.5 16.5l-102 46q30 16 57 35t47.5 37t32.5 33.5t12 24.5q0 22 -22 22q-14 0 -33.5 -9t-39.5 -20.5t-37.5 -20.5t-27.5 -9q-22 0 -39.5 28t-17.5 70q0 34 13 65t37 54.5t56.5 37t71.5 13.5q74 0 121 -43.5t85 -139.5l5 3q-10 28 -15 63.5t-4 80.5
l1 140l39 -36q4 -79 63 -79h122l67 -70h-185q-24 0 -34 10v-184q44 23 72 23q4 0 17.5 -10t28 -26t25.5 -35.5t11 -38.5q0 -22 -2.5 -57t-2.5 -84q0 -125 15 -176v-24q-22 15 -38.5 29t-28 31t-17 38t-5.5 50v120q0 32 1.5 54.5t3.5 36.5q-19 -6 -38.5 -14t-41.5 -20v-425
l-37 38q-6 57 -76 57q-4 0 -27 -2.5t-50.5 -6t-50.5 -6t-27 -2.5q-35 0 -64 12t-50 33.5t-33 53t-12 70.5t17 84l28 -24q-8 -24 -8 -53q0 -35 30.5 -58.5t82.5 -23.5q3 0 15 0.5t26 0.5t26.5 0.5t16.5 0.5q85 0 142 -67h5q-10 24 -10 46v2z" />
    <glyph glyph-name="g_no_bn" horiz-adv-x="556" 
d="M575 552h-59q-22 0 -32 10v-618l-37 38q-6 47 -22 80.5t-39.5 55t-52 31.5t-58.5 10l-3 -2q7 -4 13.5 -12t11.5 -17.5t8 -19.5t3 -18q0 -28 -22.5 -50t-57.5 -22q-42 0 -68 29.5t-26 71.5q0 35 17 61.5t52 36.5q-11 2 -37 15.5t-69 38.5q25 15 48.5 34t40.5 37.5t27.5 35
t10.5 28.5q0 20 -18 20q-11 0 -27 -9.5t-33.5 -20.5t-34 -20.5t-27.5 -9.5q-24 0 -39.5 29t-15.5 69q0 35 13 66t35 53.5t51.5 35.5t63.5 13q159 0 225 -179l4 -12q1 6 3 8q-1 0 -3.5 16t-5 38.5t-4.5 48t-2 44.5v139l39 -35q6 -78 57 -78zM344 493q-42 49 -115 49
q-85 0 -92 -69q21 6 44 6q48 0 76.5 -27t28.5 -75q0 -96 -81 -156v-3q20 5 40 5q104 0 172 -102l6 1q-14 47 -14 86v161q-37 93 -65 124z" />
    <glyph glyph-name="g_bo_bn" horiz-adv-x="551" 
d="M479 -104l-36 30q-5 25 -25.5 49.5t-51 44t-67 32t-72.5 12.5l-83 104q6 5 34.5 19t82.5 40q36 35 145 72q0 22 0.5 39t1.5 32q-23 54 -42 88t-38.5 52.5t-42.5 25t-56 6.5q-85 0 -92 -69q21 6 44 6q48 0 76.5 -27t28.5 -75q0 -96 -81 -156l1 -4q-15 0 -109 54
q25 15 48.5 34t40.5 37.5t27.5 35t10.5 28.5q0 20 -18 20q-11 0 -27 -9.5t-33.5 -20.5t-34 -20.5t-27.5 -9.5q-24 0 -39.5 29t-15.5 69q0 35 13 66t35 53.5t51.5 35.5t63.5 13q159 0 225 -179l4 -12v12q0 11 -8 50t-8 94v140l39 -36q4 -79 52 -79l65 -70h-50q-22 0 -32 10
v-666zM416 14q-8 37 -8 90v95q-42 -17 -77.5 -34.5t-63.5 -35.5q83 -26 147 -118z" />
    <glyph glyph-name="g_mo_bn" horiz-adv-x="752" 
d="M762 552h-82v-600l-34 34q-9 33 -22 61t-30 48.5t-36.5 33t-40.5 14.5q-20 -71 -94 -71q-42 0 -67.5 25.5t-25.5 65.5t25.5 66t67.5 26q10 0 37 -7q-10 19 -10 103v35q-21 45 -41.5 75t-43.5 48t-51 25.5t-65 7.5q-99 0 -110 -71q30 8 55 8q52 0 82.5 -27t30.5 -75
q0 -96 -92 -158l2 -2h-2q-5 0 -113 54q30 15 56.5 34t47 38t32.5 36t12 27q0 20 -27 20q-14 0 -33 -9.5t-38.5 -20.5t-37 -20.5t-29.5 -9.5q-22 0 -39 28t-17 70q0 34 13.5 64.5t37 53.5t56 36.5t71.5 13.5q173 0 248 -178l4 -14q3 8 8 13q-2 6 -5.5 26.5t-7 44t-6 44.5
t-2.5 29l1 140l39 -36q4 -79 63 -79h145zM616 118q-11 46 -11 81v353h-51q-28 0 -32 10h-3v-240q0 -21 2.5 -46.5t7.5 -54.5q49 -34 81 -104z" />
    <glyph glyph-name="g_ro_bn" horiz-adv-x="544" 
d="M398 154v213q-22 54 -40 87.5t-37.5 52t-42.5 25t-54 6.5q-80 0 -89 -71q15 7 42 7q48 0 75.5 -28.5t27.5 -76.5q0 -100 -77 -166q-15 0 -107 56q25 16 47.5 35.5t39.5 39t27 36.5t10 28q0 21 -17 21q-11 0 -27 -9.5t-33 -21.5t-33 -21.5t-27 -9.5q-24 0 -39 29.5
t-15 71.5q0 37 12 68.5t33.5 55t50.5 37t64 13.5q154 0 219 -185l1 -4q4 7 10 10q-21 45 -21 143v139l39 -35q6 -78 47 -78l70 -70h-50q-22 0 -32 10v-609l-41 37q-21 28 -38 44.5t-30.5 24.5t-25 10.5t-23.5 2.5q-52 0 -81.5 -5t-45.5 -5q-35 0 -64 12t-50 33.5t-33 53
t-12 70.5q0 40 17 83l27 -24q-8 -22 -8 -52q0 -36 31 -59.5t82 -23.5q4 0 16 0.5t25.5 1t26 1t17.5 0.5q39 0 79.5 -17.5t62.5 -52.5h3q-4 24 -6.5 40.5t-2.5 25.5z" />
    <glyph glyph-name="g_lo_bn" horiz-adv-x="544" 
d="M144 230l-48 29q25 16 47.5 35.5t39.5 39t27 36.5t10 28q0 21 -17 21q-11 0 -27 -9.5t-33 -21.5t-33 -21.5t-27 -9.5q-24 0 -39 29.5t-15 71.5q0 37 12 68.5t33.5 55t50.5 37t64 13.5q154 0 219 -185l1 -4q4 7 10 10q-21 45 -21 143v139l39 -35q6 -78 47 -78l70 -70h-50
q-22 0 -32 10v-612l-37 29q-6 33 -15.5 63t-21 53t-24.5 36.5t-25 13.5q-29 0 -29 -41q0 -15 9 -39l-35 15q-33 71 -97 71q-18 0 -35 -6.5t-30 -17t-20.5 -25.5t-7.5 -31q0 -53 41 -53q10 0 18 5q-19 10 -19 34q0 49 48 49q54 0 54 -61q0 -62 -76 -62q-66 0 -100.5 35
t-34.5 92q0 48 25.5 80t70.5 41zM212 211q33 -21 41 -35h5q3 24 20.5 40t35.5 16q42 0 92 -95l6 4q-14 48 -14 85v141q-22 54 -40 87.5t-37.5 52t-42.5 25t-54 6.5q-80 0 -89 -71q15 7 42 7q48 0 75.5 -28.5t27.5 -76.5q0 -93 -68 -158z" />
    <glyph glyph-name="gh_no_bn" horiz-adv-x="530" 
d="M393 141q-5 23 -8 46t-3 46v319h-114q-113 0 -113 -72q0 -50 54 -50q35 0 69 34l75 -72l-130 -114q93 -20 165 -141zM401 80l-10 15q-35 46 -86.5 76.5t-108.5 30.5q-5 0 -13.5 -0.5t-21.5 -1.5l-85 89l117 106l-3 3q-25 -5 -41 -5q-55 0 -87.5 31t-32.5 79q0 16 14 49
h-53l-67 70h547l70 -70h-82v-656l-36 34q-10 72 -51 110t-101 38q31 -30 31 -64q0 -28 -20.5 -46.5t-51.5 -18.5q-39 0 -62.5 27t-23.5 67q0 45 29.5 70.5t77.5 25.5q80 0 152 -98l4 2z" />
    <glyph glyph-name="gh_bo_bn" horiz-adv-x="530" 
d="M196 202q-5 0 -13.5 -0.5t-21.5 -1.5l-85 89l117 106l-3 3q-25 -5 -41 -5q-55 0 -87.5 31t-32.5 79q0 16 14 49h-53l-67 70h548l70 -70h-83v-650l-43 42q-58 82 -187 82l-79 99q30 18 59.5 34t59.5 31q-38 12 -72 12zM382 233v319h-114q-113 0 -113 -70q0 -50 54 -50
q35 0 69 34l75 -72l-130 -114q58 -12 107 -64zM395 -2q-10 31 -10 60v85q-69 -21 -117 -58q77 -29 125 -90z" />
    <glyph glyph-name="gh_ro_bn" horiz-adv-x="530" 
d="M458 -54l-38 38q-6 57 -75 57q-5 0 -27.5 -2.5t-49.5 -6t-50.5 -6t-28.5 -2.5q-34 0 -63 12t-50.5 33.5t-33.5 53t-12 70.5t17 84l28 -24q-8 -24 -8 -53q0 -35 31 -58.5t82 -23.5q3 0 15 0.5t26 0.5t26.5 0.5t17.5 0.5q84 0 141 -67h5q-13 33 -36.5 60.5t-52.5 47
t-62 30.5t-64 11q-5 0 -13.5 -0.5t-21.5 -1.5l-85 89l117 106l-3 3q-25 -5 -41 -5q-55 0 -87.5 31t-32.5 79q0 22 13 49h-52l-67 70h548l70 -70h-83v-606zM393 143q-5 23 -8 46t-3 46v317h-114q-113 0 -113 -70q0 -50 54 -50q35 0 69 34l75 -72l-130 -114q93 -20 165 -141z
" />
    <glyph glyph-name="ng_ko_bn" horiz-adv-x="607" 
d="M617 552h-100q11 -25 11 -51q0 -30 -20 -52t-48 -22q-74 0 -143 125h-169q10 -13 18 -32q21 3 38 3q24 0 51.5 -12t52.5 -30.5t44 -42.5t26 -48q36 0 68 -16t55.5 -42t37 -59t13.5 -67q0 -43 -20 -71t-56 -28q-57 0 -57 59q0 20 14.5 36.5t36.5 16.5q38 0 49 -35h3
q0 8 1 9v8q0 15 -8 31t-25 28.5t-42.5 21t-61.5 8.5v-317l-34 28q-11 31 -33 57.5t-50.5 46t-61.5 30.5t-67 11l-85 108q75 54 136.5 86.5t112.5 43.5q0 38 -19 62t-40 24q-41 0 -61 -29q-1 -49 -26.5 -75.5t-61.5 -26.5q-67 0 -67 70q0 71 96 104q-35 39 -98 39h-37l-70 70
h628zM325 91q-9 31 -9 62v133q-78 -22 -152 -75q75 -9 159 -122zM486 531q0 12 -6 21h-131q33 -54 87 -54q23 0 36.5 11t13.5 22z" />
    <glyph glyph-name="ng_k_ro_bn" horiz-adv-x="607" 
d="M323 89l2 2q-9 31 -9 62v133q-78 -22 -152 -75q75 -9 159 -122zM436 498q23 0 36.5 11t13.5 22q0 12 -6 21h-131q33 -54 87 -54zM386 -105l-37 38q-6 57 -76 57q-35 -6 -67.5 -11t-52.5 -5q-33 0 -61.5 12t-48.5 34.5t-31.5 53t-11.5 68.5q0 39 17 84l28 -24
q-8 -24 -8 -53q0 -37 30.5 -59t75.5 -22h20t16 1h14q85 0 142 -67h5q-4 11 -6.5 21.5t-3.5 20.5q-30 45 -81 73.5t-109 28.5l-85 108q151 109 249 130q0 38 -19 62t-40 24q-41 0 -61 -29q-1 -49 -26.5 -75.5t-61.5 -26.5q-67 0 -67 70q0 71 96 104q-35 39 -98 39h-37l-70 70
h628l69 -70h-100q11 -25 11 -51q0 -30 -20 -52t-48 -22q-74 0 -143 125h-169q10 -13 18 -32q21 3 38 3q23 0 50.5 -12t53 -31t45 -42.5t25.5 -47.5q35 0 66.5 -16t55.5 -42t38 -59t14 -67q0 -43 -20 -71t-56 -28q-57 0 -57 59q0 20 14.5 36.5t36.5 16.5q38 0 49 -35h3
q0 9 1 13q0 22 -10.5 39t-29.5 29t-44 18.5t-53 6.5v-395z" />
    <glyph glyph-name="ng_kho_bn" horiz-adv-x="762" 
d="M390 535q0 25 -32 25q-57 0 -85 -48q19 -21 53 -21q24 0 44 14t20 30zM437 180q-17 -31 -50.5 -45.5t-78.5 -14.5h-10q-40 2 -81.5 27.5t-78 67.5t-65.5 96.5t-44 113.5l43 -18q79 -186 226 -186q22 0 43 6.5t37.5 17.5t26.5 24t10 27q-3 32 -38 37q-53 -51 -95 -51
q-23 0 -46.5 12t-42.5 32t-31 45.5t-12 53.5q0 65 51 127h-211l-67 70h410q18 0 35.5 -7t32 -21t23.5 -34.5t9 -47.5q0 -32 -19.5 -51.5t-51.5 -19.5q-65 0 -104 45q-33 -47 -33 -97q0 -43 28 -43q32 0 79 75q45 -15 76.5 -45t42.5 -72l45 12q18 -14 34 -32.5t28 -40
t19 -44.5t7 -45q0 -20 -7 -40t-19.5 -36.5t-29 -28.5t-35.5 -16v-4q59 -10 138 -103l2 10q-18 37 -18 93v711l41 -37q12 -81 46 -81l70 -70h-50q-22 0 -32 10v-726l-47 40q-16 23 -41 42t-56 33t-66 22t-69 8q-9 0 -19.5 -0.5t-19.5 -1.5l-79 98q46 0 88.5 10t75 26t51.5 37
t19 43q0 25 -18 25q-8 0 -20 -6.5t-26 -15.5z" />
    <glyph glyph-name="ng_go_bn" horiz-adv-x="588" 
d="M598 552h-142q14 -23 14 -45q0 -48 -48 -66l5 -6q9 5 22.5 10t30.5 12q26 -15 46 -33t36 -41q-36 -32 -61 -60t-40.5 -56t-22.5 -58.5t-7 -67.5q0 -70 29 -180l-47 36q-41 134 -41 188q0 105 60 156l-4 3q-75 -41 -156 -152q-48 -64 -102 -64q-80 0 -117 133l30 32
q0 -12 4.5 -22.5t11.5 -19t15 -13.5t16 -5q15 0 36 15.5t40.5 38t33.5 48.5t14 47q0 50 -47 50q-15 0 -33 -8q0 -90 -71 -90q-33 0 -53.5 22t-20.5 53q0 72 82 97q-31 46 -121 46l-69 70h608zM426 552h-136q28 -51 82 -51t54 51zM410 429l-2 4q-78 0 -153 119h-122
q11 -14 23 -41q28 0 53 -10t44 -28t30.5 -42t11.5 -52q0 -11 -4 -26l2 -2q51 58 117 78z" />
    <glyph glyph-name="ng_mo_bn" horiz-adv-x="671" 
d="M681 552h-82v-720l-33 35q-16 67 -50.5 103.5t-100.5 36.5q-7 -40 -32.5 -62t-57.5 -22q-38 0 -62 23t-24 62q0 80 97 80q-8 25 -38 32q-40 2 -81.5 27.5t-78 67.5t-65.5 96.5t-44 113.5l43 -18q79 -186 226 -186q22 0 43 6.5t37.5 17.5t26.5 24t10 27q-3 32 -38 37
q-53 -51 -95 -51q-23 0 -46.5 12t-42.5 32t-31 45.5t-12 53.5q0 65 51 127h-211l-67 70h689zM390 535q0 25 -32 25q-57 0 -85 -48q19 -21 53 -21q24 0 44 14t20 30zM535 -14q-13 56 -13 96l2 470h-96q5 -25 5 -40q0 -32 -19.5 -51.5t-51.5 -19.5q-65 0 -104 45
q-33 -47 -33 -97q0 -43 28 -43q32 0 79 75q60 -19 92.5 -63t32.5 -102q0 -94 -84 -125q26 -14 39 -52q16 -4 34 -13.5t34 -22.5t29 -28t20 -30z" />
    <glyph glyph-name="ng_ro_bn" horiz-adv-x="579" 
d="M398 536q0 24 -36 24q-15 0 -30 -6t-27 -16.5t-20.5 -24.5t-10.5 -30q57 0 90.5 15.5t33.5 37.5zM427 51q-30 -13 -77 -13q-64 0 -118 32.5t-95.5 94.5t-69 152.5t-38.5 207.5l35 -26q73 -346 272 -346q28 0 54 8t45.5 21.5t31 31t11.5 37.5q0 31 -26 54
q-88 -82 -138 -82q-17 0 -35 9.5t-33 24t-26.5 30t-15.5 27.5q-6 17 -9.5 38t-3.5 51q0 12 1.5 27.5t3.5 35.5q-55 29 -95 64t-69 75l106 24q17 -67 67 -117q14 57 50.5 90.5t87.5 33.5q22 0 41.5 -8t33.5 -21t22 -30.5t8 -35.5q0 -23 -9.5 -42.5t-26 -33.5t-38.5 -22
t-47 -8q-22 0 -60 7q-1 -18 -2 -31t-1 -22q0 -24 1 -39t4 -22.5t8 -10t13 -2.5q46 0 118 99q116 -68 116 -204q0 -74 -41 -121v-257l-37 38q-6 57 -76 57q-26 0 -48.5 -2.5t-44.5 -6t-43.5 -6t-44.5 -2.5q-35 0 -64 12t-50 33.5t-33 53t-12 70.5t17 84l28 -24q-8 -24 -8 -53
q0 -35 30.5 -58.5t82.5 -23.5q4 0 20 1t51 1q30 0 55 -2.5t46.5 -9.5t41 -20t38.5 -35h5q-10 24 -10 46v66z" />
    <glyph glyph-name="c_nyo_bn" horiz-adv-x="870" 
d="M880 552h-699q8 -26 41.5 -42.5t79.5 -16.5q28 0 42.5 -13t27.5 -29q8 9 20 17t25 14.5t26 10t23 3.5q14 0 31.5 -9.5t32.5 -26.5t25.5 -40t10.5 -51q0 -27 -4 -38l5 -3q21 66 59.5 102t84.5 36q43 0 70.5 -28.5t27.5 -91.5t-43 -105q49 -61 49 -113q0 -40 -24 -68.5
t-62 -28.5q-109 0 -164 144l-2 -2q2 -14 3 -28t1 -28v-197l-39 35q-19 82 -96 82q-1 0 -15.5 -1.5t-36.5 -4t-47 -5.5t-47 -5.5t-37 -4t-17 -1.5q-47 0 -84.5 15t-63.5 42.5t-40.5 67.5t-14.5 90q0 69 37 127l24 -31q-19 -28 -19 -75q0 -64 43.5 -100t122.5 -36q1 0 18.5 1
t38.5 2.5t38.5 2.5t19.5 1q25 0 43.5 -3.5t35 -12t32.5 -23.5t36 -38h3q-4 20 -6 36.5t-2 30.5v290q0 22 -11 22q-9 0 -29 -13.5t-41 -34.5t-37 -48t-16 -54q15 12 37 12q21 0 37.5 -15t16.5 -37q0 -14 -8 -27t-22 -22.5t-32 -15.5t-37 -6q-32 0 -57 18.5t-27 48.5
q-30 -30 -58 -30q-11 0 -27.5 12t-31.5 31t-25.5 43.5t-10.5 49.5v216h-125l-70 70h891zM769 346q0 31 -43 31q-31 0 -60 -11t-51 -29t-35.5 -41t-13.5 -46t12 -45.5t31.5 -41t44 -30t48.5 -11.5q28 0 44.5 15t16.5 37q0 24 -30 35q-16 -19 -36 -19q-56 0 -56 58t53 58
q12 0 33 -12q42 18 42 52zM296 394q0 21 -27 27q-55 10 -88 89l-5 -3q15 -44 15 -82v-128q0 -19 11 -19q7 0 22.5 12.5t31.5 30.5t28 38t12 35z" />
    <glyph glyph-name="c_ro_bn" horiz-adv-x="473" 
d="M315 305q0 15 -10 22.5t-25.5 14t-34.5 16t-37 29.5q-41 44 -58 100h-3v-351q0 -17 13 -17q14 0 29.5 10t31.5 25.5t30.5 34t26.5 34.5q37 52 37 82zM334 136q-17 -20 -37 -37t-40 -30t-39.5 -20t-35.5 -7q-20 0 -39.5 14t-35.5 35.5t-25.5 46.5t-9.5 48v366h-82l-70 70
h493l70 -70h-336q11 -49 52 -78.5t94 -33.5q12 -1 33.5 -9t41.5 -23t35 -36.5t15 -49.5q0 -45 -24 -94l-8 -16v-374l-37 38q-6 57 -76 57l-48 -8q-20 -4 -40 -6t-32 -2q-33 0 -61 12t-48.5 34t-32 53t-11.5 69q0 39 17 84l28 -24q-8 -24 -8 -53q0 -37 30.5 -59t75.5 -22
q19 0 30 0.5t16 0.5q89 0 146 -67h5q-10 24 -10 46v60q0 19 1.5 40.5t2.5 44.5z" />
    <glyph glyph-name="ch_bo_bn" horiz-adv-x="563" 
d="M258 393q0 2 -0.5 5.5t-1.5 9.5q-67 10 -114 104l-2 -2q4 -24 6 -41.5t2 -28.5v-112q0 -26 14 -26q13 0 29.5 10t31.5 24.5t25 30t10 26.5zM421 -154q-9 25 -9 54v87q-64 -26 -113 -63q65 -14 120 -80zM329 45q-40 12 -81.5 19.5t-89.5 9.5l-71 133q61 -26 121 -26
q40 0 81 15.5t74 39.5t54 54t21 60q0 58 -55 58q-12 0 -32 -5q5 -13 5 -19q0 -26 -18 -53t-45 -48.5t-58 -35.5t-58 -14q-17 0 -35.5 10.5t-34 28.5t-25.5 40.5t-10 46.5v193h-82l-66 70h579l70 -70h-433q10 -29 46 -47.5t87 -18.5h79q17 0 43.5 -14.5t51.5 -40t43 -61
t18 -76.5q0 -32 -13 -62t-35.5 -54t-53 -40t-64.5 -20v-3q110 -40 242 -184l10 -53q-29 25 -55 46.5t-51 38.5l-20 14v-208l-38 31q-9 15 -27 28.5t-41.5 23.5t-50.5 15.5t-55 5.5l-78 81q11 7 27 16t37 20z" />
    <glyph glyph-name="ch_ro_bn" horiz-adv-x="563" 
d="M258 393q0 2 -0.5 5.5t-1.5 9.5q-67 10 -114 104l-2 -2q4 -24 6 -41.5t2 -28.5v-112q0 -26 14 -26q13 0 29.5 10t31.5 24.5t25 30t10 26.5zM463 -20q-69 46 -141.5 67.5t-163.5 26.5l-71 133q61 -26 121 -26q40 0 81 15.5t74 39.5t54 54t21 60q0 58 -55 58q-12 0 -32 -5
q5 -13 5 -19q0 -26 -18 -53t-45 -48.5t-58 -35.5t-58 -14q-17 0 -35.5 10.5t-34 28.5t-25.5 40.5t-10 46.5v193h-82l-66 70h579l70 -70h-433q10 -29 46 -47.5t87 -18.5h79q17 0 43.5 -14.5t51.5 -40t43 -61t18 -76.5q0 -32 -13 -62t-35.5 -54t-53 -40t-64.5 -20v-3
q110 -40 242 -184l10 -53q-20 17 -38.5 32.5t-36.5 29.5v-127l-37 38q-6 57 -76 57q-24 0 -54 -2t-61 -5t-60 -6t-51 -4q-35 0 -64 12t-50 33.5t-33 53t-12 70.5t17 84l28 -24q-8 -24 -8 -53q0 -35 30.5 -58.5t82.5 -23.5q3 0 6.5 0.5t15 1t33.5 1t61 0.5q59 0 102.5 -12.5
t78.5 -55.5h5q-10 24 -10 46v14z" />
    <glyph glyph-name="ch_ro_alt_bn" horiz-adv-x="563" 
d="M258 393q0 2 -0.5 5.5t-1.5 9.5q-67 10 -114 104l-2 -2q4 -24 6 -41.5t2 -28.5v-112q0 -26 14 -26q13 0 29.5 10t31.5 24.5t25 30t10 26.5zM-122 81v-4q0 -102 173 -104q22 1 53.5 3.5t64.5 5.5t64 5t52 2q31 0 54 -4.5t41.5 -13.5t34 -24t32.5 -36h5q-4 16 -5.5 28.5
t-1.5 21.5v30q-64 42 -133 60.5t-154 22.5l-71 133q61 -26 121 -26q40 0 81 15.5t74 39.5t54 54t21 60q0 58 -55 58q-12 0 -32 -5q5 -13 5 -19q0 -26 -18 -53t-45 -48.5t-58 -35.5t-58 -14q-17 0 -35.5 10.5t-34 28.5t-25.5 40.5t-10 46.5v193h-82l-66 70h579l70 -70h-433
q10 -29 46 -47.5t87 -18.5h79q17 0 43.5 -14.5t51.5 -40t43 -61t18 -76.5q0 -32 -13 -62t-35.5 -54t-53 -40t-64.5 -20v-3q110 -40 242 -184l10 -53q-20 17 -38.5 32.5t-36.5 29.5v-177l-38 35q-6 28 -14 47.5t-21.5 31.5t-33 17t-48.5 5q-35 0 -60.5 -1.5t-49.5 -3.5
l-49 -4q-14 -1 -26 -3.5t-27 -4.5t-36 -4t-52 -2h-12q-47 0 -85 13.5t-65 38t-42 59.5t-15 78q0 16 3 33z" />
    <glyph glyph-name="j_jo_bn" horiz-adv-x="1012" 
d="M1022 552h-659l-14 -9q12 -63 94 -63q17 0 40 5t46 13t43.5 17.5t32.5 19.5h14q58 -106 152 -106q53 0 106 32q48 -43 109 -115q-103 -91 -103 -234q0 -81 21 -175l-47 38q-32 110 -32 216q0 100 42 160q-38 0 -67 4t-54 13.5t-48 27t-50 44.5q-20 -8 -37.5 -21.5
t-31.5 -29.5t-22 -33t-8 -30q0 -35 39 -35q41 0 102 58q95 -77 95 -173q0 -66 -37 -106.5t-106 -40.5q-37 0 -72 13.5t-64 37.5t-49.5 55.5t-27.5 67.5h-4q-21 -104 -128 -104q-58 0 -104.5 29.5t-81 83.5t-55.5 131t-27 172l36 -26q28 -148 84 -214t143 -66q48 0 74.5 18.5
t26.5 46.5q0 23 -19 33q-44 -27 -91 -27q-25 0 -49 12.5t-43 33.5t-31 49t-12 59q0 68 51 118h-209l-66 70h1029zM741 206q0 23 -27 35q-49 -31 -97 -31q-24 0 -47.5 12t-42.5 32.5t-30.5 48t-11.5 58.5t14 54q-122 0 -191 103q-94 -70 -94 -125q0 -32 36 -32q33 0 104 56
q52 -40 79 -120q24 -73 76 -116t118 -43q22 0 42.5 5.5t36.5 14.5t25.5 21.5t9.5 26.5z" />
    <glyph glyph-name="j_j_bo_bn" horiz-adv-x="1012" 
d="M1023 552h-660l-14 -9q12 -63 94 -63q17 0 40 5t46 13t43.5 17.5t32.5 19.5h14q58 -106 153 -106q52 0 105 32q48 -43 109 -115q-104 -93 -104 -247q0 -127 22 -222l-47 37q-14 18 -29 30t-35 18.5t-47 9.5t-65 3l-41 60q-37 0 -72 13t-63.5 35.5t-48.5 53.5t-27 66h-4
q-21 -104 -128 -104q-57 0 -104 29.5t-81.5 83.5t-55.5 131t-27 172l37 -26q30 -147 83 -213.5t144 -66.5q48 0 74.5 18.5t26.5 46.5q0 21 -20 33q-44 -27 -90 -27q-25 0 -49 12t-43.5 33t-31.5 49t-12 60q0 68 53 118h-211l-65 70h1029zM867 351q-38 0 -67 4t-54 13.5
t-48 27t-50 44.5q-20 -8 -37.5 -21.5t-31.5 -29.5t-22 -33t-8 -30q0 -35 39 -35q44 0 102 58q90 -72 90 -156q0 -24 -11 -44l4 -3q11 12 55 32q0 119 39 173zM858 -46q-18 67 -24 139q-23 -7 -52 -20.5t-63 -34.5q75 -20 134 -85zM741 206q0 23 -27 35q-49 -31 -97 -31
q-24 0 -47.5 12.5t-42 33.5t-30 48.5t-11.5 56.5q0 35 13 54q-123 0 -190 103q-95 -72 -95 -125q0 -32 37 -32q35 0 103 56q52 -40 79 -120q24 -73 76 -116t118 -43q48 0 81 20t33 48z" />
    <glyph glyph-name="j_jho_bn" horiz-adv-x="765" 
d="M775 552h-82v-602l-32 29q-28 70 -101 70v-138l-36 27q-18 37 -64.5 61t-104.5 24l-64 78q-54 0 -99.5 28.5t-79.5 82.5t-55.5 130.5t-27.5 172.5l35 -26q28 -147 82.5 -213.5t145.5 -66.5q48 0 74 18.5t26 46.5q0 22 -18 33q-44 -27 -91 -27q-25 0 -49 12.5t-43 33.5
t-31 49t-12 59q0 68 51 118h-209l-64 70h780zM636 50q-2 23 -4 41.5t-2 33.5v427h-267l-14 -9q7 -63 94 -63q60 0 117 30v-407q20 -5 37 -18.5t37 -36.5zM491 224v192q-113 0 -183 102q-94 -70 -94 -125q0 -32 36 -32q33 0 104 56q78 -68 78 -159q0 -38 -20 -73l2 -3
q13 8 32.5 18.5t44.5 23.5zM500 3q-9 37 -9 50v81q-48 -20 -104 -60q60 -13 109 -74z" />
    <glyph glyph-name="j_nyo_bn" horiz-adv-x="775" 
d="M785 552h-394q-20 -8 -35 -15t-23 -14q15 -40 36.5 -81.5t51.5 -89.5h5q11 37 30 68.5t42.5 53.5t50.5 34.5t54 12.5q48 0 77 -31.5t29 -83.5q0 -14 -3.5 -31t-9 -34t-12.5 -30.5t-14 -19.5q50 -59 50 -118q0 -51 -27 -79t-76 -28q-93 0 -150 109h-7q-26 -113 -151 -113
q-63 0 -114.5 31.5t-88.5 89t-57 139.5t-20 184l34 -27q24 -300 244 -300q51 0 85 21t34 51q0 28 -25 47q-47 -39 -114 -39q-30 0 -57 13t-47 35t-31.5 50.5t-11.5 58.5q0 82 62 136h-212l-65 70h789zM673 391q0 40 -61 40q-31 0 -60 -11.5t-51.5 -30.5t-36 -42t-13.5 -45
q0 -29 12.5 -54.5t33 -45.5t46 -31.5t51.5 -11.5q31 0 52 16.5t21 42.5q0 24 -31 37q-17 -24 -49 -24q-28 0 -45.5 19.5t-17.5 47.5q0 10 4.5 20.5t13 19t19.5 14t24 5.5q19 0 35 -13q53 8 53 47zM357 393q-22 35 -35.5 63t-20.5 48q-97 -64 -97 -123q0 -14 11.5 -26
t30.5 -12q49 0 111 50z" />
    <glyph glyph-name="j_bo_bn" horiz-adv-x="693" 
d="M702 552h-309q-3 -2 -7.5 -4t-11.5 -4l-17 -7q15 -58 94 -58q47 0 113 25q42 -25 103 -112q-98 -83 -98 -239q0 -159 25 -266l-45 36q-40 82 -174 82q-12 19 -29 42t-38 51q-71 0 -123 30.5t-87 86t-52 134t-17 174.5l34 -27q12 -143 71 -218t156 -75q50 0 84.5 20
t34.5 52q0 24 -19 39q-46 -37 -106 -37q-29 0 -54.5 12.5t-45.5 34t-31.5 49.5t-11.5 58q0 81 62 119v2h-213l-65 70h708zM551 403l-2 3q-10 -7 -33 -7q-127 0 -200 118q-23 -11 -43.5 -25.5t-35.5 -30.5t-23.5 -32.5t-8.5 -31.5t10.5 -25.5t23.5 -10.5q42 0 116 57
q100 -66 100 -177q0 -51 -28 -79l2 -4q16 11 37 22t47 20q-4 15 -4 39q0 108 42 164zM549 -30q-10 35 -17.5 69.5t-12.5 71.5q-60 -20 -102 -55q75 -25 128 -87z" />
    <glyph glyph-name="j_ro_bn" horiz-adv-x="705" 
d="M712 552h-307q-3 -2 -7.5 -4t-11.5 -4l-17 -7q15 -58 94 -58q47 0 112 25q47 -29 104 -112q-106 -91 -106 -247q0 -47 9 -111.5t28 -148.5l-44 36q-14 57 -76 57q-16 0 -53.5 -4t-78 -8.5t-75.5 -8.5t-46 -4q-103 0 -155.5 51.5t-52.5 145.5q0 52 13 90l25 -24
q-6 -26 -6 -40q0 -128 168 -128q2 0 28 1t57.5 2.5t59 3t32.5 1.5q85 0 143 -67l4 2q-40 119 -40 240q0 104 50 172l-2 3q-10 -7 -33 -7q-127 0 -200 118q-23 -11 -43.5 -25.5t-35.5 -30.5t-23.5 -32.5t-8.5 -31.5t10.5 -25.5t23.5 -10.5q42 0 116 57q100 -66 100 -177
q0 -66 -39.5 -106t-108.5 -40q-66 0 -117.5 29.5t-87 85t-54.5 135t-19 178.5l34 -27q12 -143 71 -218t156 -75q51 0 85 21t34 51q0 24 -19 39q-49 -37 -106 -37q-29 0 -54.5 12.5t-45.5 34t-31.5 49.5t-11.5 58q0 81 62 119v2h-225l-65 70h716z" />
    <glyph glyph-name="jh_ro_bn" horiz-adv-x="661" 
d="M336 161q-1 20 -1.5 33t-0.5 20v188q-27 -5 -68 -27.5t-98 -60.5q25 -5 45.5 -15.5t39.5 -29t38.5 -45.5t42.5 -65zM407 383q66 -59 110 -143h2v500l36 -38q8 -80 55 -80l71 -70h-60q-19 0 -32 9v-490l-26 25q-2 9 -13 34.5t-31 56t-48 59.5t-64 44v-352l-38 38
q-6 57 -75 57q-5 0 -23 -2.5t-38 -6t-38.5 -6t-24.5 -2.5q-34 0 -63 12t-50.5 33.5t-33.5 53t-12 70.5q0 42 18 84l27 -24q-8 -24 -8 -53q0 -35 31 -58.5t82 -23.5q10 0 25 1t28 1q84 0 141 -67h5q-5 10 -6.5 20t-2.5 20q-20 33 -44.5 61.5t-54.5 49t-64.5 32.5t-73.5 12
l-85 107q216 159 305 168v37h-344l-66 70h483v-239z" />
    <glyph glyph-name="ny_co_bn" horiz-adv-x="759" 
d="M704 248q0 -45 -27 -75.5t-75 -30.5q-109 0 -174 149l-3 -2q6 -30 6 -59v-238l-33 35q-35 87 -98 137.5t-143 50.5l-87 110q75 37 139.5 78.5t121.5 87.5q-45 63 -117 63q-61 0 -74 -34q48 -17 48 -56q0 -26 -21.5 -45.5t-51.5 -19.5q-35 0 -60.5 27t-25.5 68
q0 28 11.5 52.5t31.5 43t47.5 29.5t60.5 11q99 0 179 -132l6 3q-8 29 -8 50v142l73 -75v-91q0 -22 -3 -56h5q20 66 62.5 104t94.5 38q105 0 105 -132q0 -15 -3.5 -31t-8.5 -31t-12.5 -27t-14.5 -18q49 -58 49 -126zM659 477q0 44 -60 44q-32 0 -63 -12.5t-55 -32.5t-39 -44
t-15 -47q0 -28 14 -55t35.5 -48.5t48.5 -34.5t54 -13q32 0 52.5 18.5t20.5 41.5q0 33 -31 42q-17 -23 -49 -23q-28 0 -45.5 19.5t-17.5 48.5q0 27 17 44t45 17q24 0 41 -11q47 11 47 46zM367 142q-5 22 -7.5 40.5t-2.5 33.5v176q-44 -50 -149 -106q86 -22 157 -147z" />
    <glyph glyph-name="ny_cho_bn" horiz-adv-x="658" 
d="M603 -238q-71 61 -123.5 100.5t-100.5 63.5t-99 35.5t-118 15.5l-72 132q66 -31 142 -31q31 0 59 8t49 21t33.5 30.5t12.5 37.5q-14 7 -53 39q0 -77 -106 -77q-39 0 -71 12.5t-55.5 34.5t-36 51.5t-12.5 62.5q0 47 67 69q36 12 68 30.5t55.5 40t37 43.5t13.5 42
q0 22 -15 35.5t-35 13.5q-69 0 -111 -74q34 -3 34 -39q0 -25 -19.5 -41.5t-45.5 -16.5q-15 0 -28 6.5t-22.5 17t-15.5 24t-6 28.5q0 31 15.5 60t41.5 51t59.5 35t69.5 13q22 0 44.5 -10.5t40.5 -26.5t29.5 -35.5t12.5 -37.5h5q12 24 29 43.5t36.5 34t40.5 22t41 7.5
q42 0 67 -30.5t25 -82.5q0 -57 -40 -97q57 -50 57 -114q0 -19 -7.5 -35t-19.5 -28t-28 -18.5t-33 -6.5q-32 0 -63 16.5t-56.5 44.5t-42.5 65.5t-20 79.5h-3q-13 -24 -26 -40.5t-13 -39.5q0 -8 9 -22t23.5 -30t33.5 -31.5t40 -25.5q50 -80 50 -121q0 -38 -28 -68t-71 -36v-3
q100 -37 245 -193zM548 353q0 21 -33 38q-19 -13 -38 -13q-53 0 -53 52q0 21 13.5 35.5t32.5 14.5q16 0 36 -11q40 16 40 46q0 31 -46 31q-22 0 -47 -9t-46.5 -23.5t-36 -32.5t-14.5 -36q0 -24 11.5 -47.5t30 -42.5t42.5 -31t50 -12t42 12.5t16 28.5zM274 269q0 3 -1.5 11
t-3.5 17t-3.5 17.5t-1.5 13.5q0 9 1 15.5t2 10.5l-3 3q-19 -32 -104 -70q-45 -21 -45 -44q0 -27 69 -27q42 0 66 15t24 38z" />
    <glyph glyph-name="ny_jo_bn" horiz-adv-x="677" 
d="M642 193q-93 -78 -93 -208q0 -22 4.5 -53t14.5 -71l-47 36q-29 99 -29 177q0 97 43 149q-34 1 -65.5 18.5t-56.5 47t-41.5 69t-20.5 84.5h-3q-9 -32 -49 -66q-76 -67 -76 -110q0 -19 22 -19q30 0 107 54q96 -65 96 -168q0 -66 -40.5 -104.5t-106.5 -38.5q-61 0 -111 30.5
t-86 86.5t-55.5 135t-19.5 177l34 -26q12 -140 70.5 -214.5t158.5 -74.5q51 0 81.5 17t30.5 47q0 23 -19 38q-42 -33 -99 -33q-26 0 -50.5 11.5t-44 30.5t-31 43t-11.5 49q0 55 95 135q75 63 75 97t-44 34q-69 0 -112 -79q29 -14 29 -41q0 -21 -18 -36.5t-47 -15.5
q-28 0 -48 21t-20 51q0 31 16 60t42 52t60 37t70 14q22 0 44 -10t40 -25t29.5 -33.5t13.5 -34.5h3q24 45 61 74t75 29q43 0 67.5 -31.5t24.5 -83.5q0 -57 -39 -96q56 -50 56 -115q0 -52 -41 -75zM569 355q0 22 -34 38q-17 -12 -39 -12q-51 0 -51 51q0 22 13 36t33 14
q17 0 35 -12q40 19 40 48q0 31 -46 31q-21 0 -46.5 -9.5t-47 -24t-36 -33t-14.5 -36.5q0 -23 11 -46.5t30 -42.5t43 -31t50 -12t42.5 12.5t16.5 28.5z" />
    <glyph glyph-name="ny_jho_bn" horiz-adv-x="784" 
d="M729 283q0 -29 -19.5 -53t-52.5 -32v-286l-43 40q-6 17 -20 35.5t-32.5 35t-39 29.5t-38.5 19v-201l-47 45q-7 15 -25.5 30t-43 26.5t-53.5 19t-58 7.5l-88 98l114 71q83 47 130 48v11q-10 7 -34 7q-7 0 -33 -3t-56 -6.5t-56.5 -6.5t-34.5 -3q-40 0 -71.5 13t-53.5 35.5
t-33.5 53.5t-11.5 67q0 78 41 128l23 -26q-23 -38 -23 -70q0 -52 35 -81t99 -29q4 0 16 1t24.5 2t23.5 2t14 1q60 0 131 -60v292q0 26 -16 26q-8 0 -27.5 -12t-39.5 -29.5t-35.5 -36.5t-16.5 -33q28 6 30 6q54 0 54 -55q0 -30 -26.5 -46.5t-68.5 -16.5q-96 0 -96 95
q0 33 23 68t55.5 64t68.5 47.5t62 18.5q18 0 36 -12t32 -29t22.5 -35t8.5 -30v-42h4q19 61 58.5 97t88.5 36q39 0 64.5 -33.5t25.5 -87.5q0 -62 -38 -103q47 -65 47 -117zM681 499q0 37 -45 37q-24 0 -51 -11.5t-50 -29.5t-38.5 -39.5t-15.5 -41.5q0 -22 11 -44.5t30 -41
t43 -30t51 -11.5q25 0 43 14t18 34q0 24 -27 38q-17 -20 -42 -20q-52 0 -52 57q0 22 15 38.5t34 16.5q23 0 36 -16q17 7 28.5 23t11.5 27zM585 45v162q-14 4 -29 15.5t-28.5 27t-24 33.5t-14.5 35h-5v-172q59 -34 97 -101h4zM413 -21v143q-52 -13 -122 -61q70 -28 116 -82h6
z" />
    <glyph glyph-name="tt_tto_bn" horiz-adv-x="484" 
d="M406 622h17l71 -70h-324v-328q0 -29 19 -29q22 0 45 15q87 56 93 131q-7 -4 -20 -4q-29 0 -49 22t-20 56t25 57.5t63 23.5q45 0 74 -34.5t29 -88.5q0 -81 -58 -157q44 -44 44 -120q0 -63 -40 -100.5t-112 -37.5q-55 0 -101 22t-80.5 62t-55.5 96.5t-26 124.5l32 -21
q42 -192 202 -192q29 0 54.5 7t44 18.5t29.5 26t11 29.5q0 31 -42 39q-62 -56 -118 -56q-19 0 -39.5 17.5t-38 41.5t-29 50t-11.5 43v286h-105l-71 70h426q17 15 17 35q0 32 -57 32q-7 0 -35.5 -2.5t-82.5 -2.5q-187 0 -187 136q0 41 26 70l31 -17q-24 -20 -24 -42
q0 -60 104 -60q28 0 49 3.5t40 3.5q166 0 180 -156z" />
    <glyph glyph-name="tt_bo_bn" horiz-adv-x="495" 
d="M225 -86q-11 36 -11 59v83q-35 -13 -64.5 -26.5t-52.5 -29.5q12 -3 30 -13t36.5 -22.5t34.5 -26.5t23 -25zM406 622h28l71 -70h-335v-382q0 -29 19 -29q15 0 31.5 9t33 22.5t30.5 29.5t23 29q28 40 30 73q-9 -3 -19 -3q-30 0 -50 21t-20 55t25 58t63 24q43 0 73.5 -32.5
t30.5 -93.5q0 -32 -12 -67.5t-33 -69t-49.5 -62.5t-60.5 -48v-268l-40 35q-8 16 -27.5 32t-45.5 28.5t-56.5 20.5t-60.5 9l-78 95q76 47 158 80q-40 49 -40 95v339h-105l-69 70h424q17 15 17 35q0 32 -57 32q-7 0 -35.5 -2.5t-82.5 -2.5q-187 0 -187 136q0 41 26 70l31 -17
q-24 -20 -24 -42q0 -60 104 -60q28 0 49 3.5t40 3.5q166 0 180 -156z" />
    <glyph glyph-name="tt_mo_bn" horiz-adv-x="619" 
d="M147 552v-328q0 -29 19 -29q22 0 45 15q87 56 93 131q-7 -4 -20 -4q-29 0 -49 22t-20 56t25 57.5t63 23.5q45 0 74 -34.5t29 -88.5q0 -81 -58 -157l-29 -35q52 -43 66 -89q14 -4 28.5 -15t27 -24.5t22.5 -26.5t14 -21l6 1q-13 56 -13 96l2 450h-325zM394 622h166l69 -70
h-82v-700l-33 35q-15 63 -45.5 98.5t-68.5 35.5q-9 0 -12 -1q-7 -40 -32.5 -62t-57.5 -22q-38 0 -62 23t-24 62q0 80 97 80q-8 23 -35 42q-44 -29 -84 -29q-19 0 -39.5 17.5t-38 41.5t-29 50t-11.5 43v286h-82l-71 70h414q17 15 17 35q0 32 -57 32q-7 0 -35.5 -2.5
t-70.5 -2.5q-187 0 -187 136q0 41 26 70l31 -17q-24 -20 -24 -42q0 -60 104 -60q17 0 34 3.5t43 3.5q166 0 180 -156z" />
    <glyph glyph-name="tt_ro_bn" horiz-adv-x="491" 
d="M406 622h25l70 -70h-330v-345q0 -29 18 -29q22 0 45 15q96 61 99 141q-7 -4 -19 -4q-29 0 -49 21.5t-20 55.5t24.5 58t62.5 24q48 0 76 -33.5t28 -90.5q0 -81 -43 -136v-350l-38 39q-17 57 -76 57q-5 0 -25 -2.5t-43 -5t-42 -5t-20 -2.5q-72 0 -110.5 39t-38.5 100
q0 60 30 107l26 -24q-19 -25 -19 -51q0 -83 103 -83q4 0 14.5 1t22.5 1.5t23 1.5t17 1q19 0 34.5 -2.5t29.5 -9.5t28.5 -20t31.5 -35h5q-9 28 -9 46v108v10t1 9q-71 -62 -125 -62q-19 0 -39.5 17.5t-38 42t-29 50t-11.5 42.5v303h-105l-74 70h429q17 15 17 35q0 32 -57 32
q-7 0 -35.5 -2.5t-82.5 -2.5q-187 0 -187 136q0 41 26 70l31 -17q-24 -20 -24 -42q0 -60 104 -60q28 0 49 3.5t40 3.5q166 0 180 -156z" />
    <glyph glyph-name="tt_ro_alt_bn" horiz-adv-x="491" 
d="M406 622h25l70 -70h-330v-345q0 -29 18 -29q22 0 45 15q96 61 99 141q-7 -4 -19 -4q-29 0 -49 21.5t-20 55.5t24.5 58t62.5 24q48 0 76 -33.5t28 -90.5q0 -81 -43 -136v-350l-38 39q-8 30 -28.5 42t-44.5 12q-17 0 -52 -4t-72.5 -9.5t-70.5 -9.5t-45 -4q-100 0 -153 52
t-53 149q0 39 18 69l25 -24q-7 -14 -7 -36q0 -48 41 -78t117 -30q3 0 25.5 1.5t49 3t49.5 3t28 1.5q95 0 160 -71l4 1q-9 28 -9 46v108v10t1 9q-71 -62 -125 -62q-19 0 -39.5 17.5t-38 42t-29 50t-11.5 42.5v303h-105l-74 70h429q17 15 17 35q0 32 -57 32q-7 0 -35.5 -2.5
t-82.5 -2.5q-187 0 -187 136q0 41 26 70l31 -17q-24 -20 -24 -42q0 -60 104 -60q28 0 49 3.5t40 3.5q166 0 180 -156z" />
    <glyph glyph-name="tth_ro_bn" horiz-adv-x="459" 
d="M343 306q0 26 -6 55t-15 57t-20.5 52.5t-22.5 40.5v-2q10 -39 10 -72q0 -43 -13 -83.5t-35.5 -74t-53 -57t-65.5 -32.5q-11 -17 -11 -39q0 -26 20 -44.5t52 -18.5q31 0 60 17.5t51.5 47.5t35.5 69.5t13 83.5zM312 73q-50 -33 -106 -33q-38 0 -70 14t-56 37.5t-37.5 55
t-13.5 66.5q0 45 13 72q36 8 68.5 30.5t57.5 53t39.5 66t14.5 69.5q0 18 -8 48h-224l-71 70h265q-104 164 -104 230t56 101l95 -63q-99 0 -99 -72q0 -54 108 -196h159l70 -70h-179q114 -159 114 -289q0 -39 -10 -72t-29 -64v-331l-37 38q-6 57 -76 57q-1 0 -12 -2.5
t-26 -5.5t-31.5 -5.5t-29.5 -2.5q-33 0 -61 12t-48.5 34t-32 53t-11.5 69q0 39 17 84l28 -24q-8 -24 -8 -53q0 -19 8.5 -34t23 -25.5t34 -16t40.5 -5.5q19 0 30 0.5t16 0.5q34 0 64.5 -16t60.5 -51h5q-10 24 -10 46v60q0 23 3 64z" />
    <glyph glyph-name="dd_ddo_bn" horiz-adv-x="891" 
d="M901 552h-295v-170q0 -19 13 -19q7 0 20.5 8t29.5 22t33.5 33.5t33.5 42.5q100 -73 100 -205q0 -41 -13.5 -76t-37.5 -60.5t-56 -40.5t-69 -15q-38 0 -71.5 12.5t-61 35t-47.5 54.5t-30 71h-4q-9 -63 -49 -98t-98 -35q-56 0 -101.5 28.5t-80 83t-57 132.5t-31.5 177
l39 -29q10 -64 30 -116t47.5 -88.5t61 -56.5t71.5 -20q26 0 51 9t45 24t32 33.5t12 38.5q0 28 -22 41q-71 -71 -114 -71q-16 0 -33.5 14t-32.5 35t-25 46t-10 48v111h-191l-67 70h908zM792 305q0 28 -27 48q-13 -18 -30 -34t-35 -27.5t-35 -18t-31 -6.5q-16 0 -34 11
t-33.5 31t-25.5 47t-10 59v137h-276v-138q0 -22 12 -22q36 0 97 91q29 -19 52.5 -54t40.5 -86q49 -153 191 -153q25 0 50.5 10.5t46.5 27.5t34 37t13 40z" />
    <glyph glyph-name="dd_ro_bn" horiz-adv-x="563" 
d="M573 552h-303v-146q0 -20 13 -20q38 0 130 113q95 -68 95 -196q0 -75 -38 -128l-1 -294l-38 39q-5 57 -75 57q-3 0 -26.5 -2.5t-50.5 -6t-50.5 -6t-27.5 -2.5q-70 0 -114 45t-44 124q0 44 17 84l26 -24q-8 -26 -8 -54q0 -34 31 -57.5t82 -23.5q4 0 16.5 0.5t26.5 0.5
t26 0.5t16 0.5q84 0 142 -67h4q-9 27 -9 46v68q0 9 0.5 16t1.5 12q-40 -25 -99 -25q-245 0 -287 422l36 -25q61 -286 236 -286q31 0 60.5 10t53 26.5t37.5 38t14 44.5q0 31 -22 46q-82 -91 -146 -91q-16 0 -34 11t-33.5 31t-25.5 47t-10 59v113h-205l-65 70h578z" />
    <glyph glyph-name="ddh_ro_bn" horiz-adv-x="491" 
d="M431 622l70 -70h-330v-345q0 -29 18 -29q22 0 45 15q96 61 99 141q-7 -4 -19 -4q-29 0 -49 21.5t-20 55.5t24.5 58t62.5 24q48 0 76 -33.5t28 -90.5q0 -81 -43 -136v-350l-38 39q-17 57 -76 57q-5 0 -25 -2.5t-43 -5t-42 -5t-20 -2.5q-72 0 -110.5 39t-38.5 100
q0 60 30 107l26 -24q-19 -25 -19 -51q0 -83 103 -83q4 0 14.5 1t22.5 1.5t23 1.5t17 1q19 0 34.5 -2.5t29.5 -9.5t28.5 -20t31.5 -35h5q-9 28 -9 46v108v10t1 9q-71 -62 -125 -62q-19 0 -39.5 17.5t-38 42t-29 50t-11.5 42.5v303h-105l-74 70h515z" />
    <glyph glyph-name="nn_tto_bn" horiz-adv-x="760" 
d="M770 552h-335v-382q0 -29 18 -29q13 0 29.5 9t33.5 22.5t32 29t24 29.5q14 20 21.5 38.5t8.5 34.5q-11 -3 -20 -3q-29 0 -49 21t-20 55t25 58t63 24q43 0 73.5 -32.5t30.5 -93.5q0 -45 -22.5 -93t-56 -88t-73.5 -65.5t-76 -25.5q-19 0 -39.5 17t-38 41t-28.5 50t-11 44
v142q-7 37 -20.5 67t-31.5 51t-39 32.5t-43 11.5q-21 0 -40 -8.5t-33 -23t-22.5 -34.5t-8.5 -43q0 -16 5 -30.5t13 -25.5t18 -17.5t20 -6.5q3 0 17 3v3q-24 10 -24 47q0 22 17.5 38t40.5 16q28 0 47.5 -21t19.5 -54q0 -45 -31 -70.5t-83 -25.5q-35 0 -63 12.5t-48 34.5
t-31 52t-11 66q0 39 12.5 72t34.5 57t52.5 38t66.5 14q29 0 47.5 -7.5t35 -26t35 -51t47.5 -82.5v127l-52 52h302q11 11 11 25q0 39 -68 39q-6 0 -33.5 -1.5t-60.5 -3t-63 -3t-39 -1.5q-187 0 -187 136q0 42 26 68l30 -17q-23 -17 -23 -41q0 -59 94 -59q2 0 16.5 0.5t34.5 2
t42.5 2.5t41.5 2.5t31 2t11 0.5q44 0 76.5 -8t56 -26t38.5 -47t24 -71h30z" />
    <glyph glyph-name="nn_ttho_bn" horiz-adv-x="586" 
d="M596 552h-184q119 -170 119 -293q0 -48 -15.5 -89.5t-43 -72.5t-65.5 -48.5t-84 -17.5q-42 0 -78.5 14.5t-63.5 39t-42 57t-15 68.5t15 68q42 0 77.5 15.5t61.5 41t41 59.5t15 70q0 15 -10 31.5t-26.5 30t-37.5 22.5t-43 9q-21 0 -39 -7.5t-31 -20t-20.5 -29.5t-7.5 -36
q0 -65 68 -67v4q-23 9 -23 40q0 18 15.5 33.5t35.5 15.5q23 0 40.5 -19.5t17.5 -49.5q0 -36 -29 -57t-74 -21q-29 0 -55 10.5t-45 30t-30 46.5t-11 60q0 32 11.5 60t31.5 49t47 33t58 12q86 0 169 -129l4 4q-8 48 -42 102q-105 165 -105 231t56 101l95 -63q-100 0 -100 -72
q0 -54 109 -196h163zM470 285q0 123 -69 225l-2 -1q11 -46 11 -83q0 -51 -14 -95.5t-38.5 -76.5t-59 -50.5t-75.5 -18.5q-10 -13 -10 -38q0 -68 87 -68q34 0 65 16.5t54.5 44.5t37 65.5t13.5 79.5z" />
    <glyph glyph-name="nn_ddo_bn" horiz-adv-x="693" 
d="M638 357q0 -56 -44 -88q28 -49 28 -98q0 -70 -45 -112t-118 -42q-67 0 -130.5 36t-119.5 104.5t-102 168t-78 225.5l48 -30q29 -90 69 -160t88 -119t102.5 -74.5t112.5 -25.5q51 0 86.5 19.5t35.5 52.5q0 20 -12 35q-20 -18 -54 -18q-35 0 -55 20.5t-20 51.5q0 28 19 47
t46 19q32 0 42 -16q34 10 34 55q0 32 -48 101h-2q-3 -14 -7 -25t-8.5 -24t-10 -30.5t-11.5 -44.5l-27 24q-5 19 -18 39.5t-31 37t-39 27t-43 10.5q-20 0 -36.5 -7t-28 -18.5t-18 -26t-6.5 -29.5q0 -23 12 -40t32 -17q7 0 11 4q-18 10 -18 35q0 19 14.5 32t36.5 13
q20 0 37.5 -19t17.5 -49q0 -34 -28.5 -53.5t-66.5 -19.5q-29 0 -53.5 12t-42.5 32t-28 47t-10 56t12 54.5t31.5 44t45.5 29.5t55 11q17 0 31 -4.5t28.5 -16t31.5 -32t40 -52.5h8q10 25 17 57t12 70l26 -19q9 -40 73 -113q76 -88 76 -147z" />
    <glyph glyph-name="nn_dd_ro_bn" horiz-adv-x="693" 
d="M526 28q-31 -11 -67 -11q-67 0 -130.5 36t-119.5 104.5t-102 168t-78 225.5l48 -30q29 -90 69 -160t88 -119t102.5 -74.5t112.5 -25.5q51 0 86.5 19.5t35.5 52.5q0 20 -12 35q-20 -18 -54 -18q-35 0 -55 20.5t-20 51.5q0 28 19 47t46 19q32 0 42 -16q34 10 34 55
q0 32 -48 101h-2q-3 -14 -7 -25t-8.5 -24t-10 -30.5t-11.5 -44.5l-27 24q-5 19 -18 39.5t-31 37t-39 27t-43 10.5q-20 0 -36.5 -7t-28 -18.5t-18 -26t-6.5 -29.5q0 -23 12 -40t32 -17q7 0 11 4q-18 10 -18 35q0 19 14.5 32t36.5 13q20 0 37.5 -19t17.5 -49
q0 -34 -28.5 -53.5t-66.5 -19.5q-29 0 -53.5 12t-42.5 32t-28 47t-10 56t12 54.5t31.5 44t45.5 29.5t55 11q17 0 31 -4.5t28.5 -16t31.5 -32t40 -52.5h8q10 25 17 57t12 70l26 -19q9 -40 73 -113q76 -88 76 -147q0 -56 -44 -88q28 -49 28 -98q0 -67 -41 -108v-244l-39 38
q-3 57 -78 57q-6 0 -19.5 -2.5t-40.5 -5.5t-69.5 -5.5t-106.5 -3.5q-70 0 -114 45t-44 124q0 44 17 84l26 -24q-8 -29 -8 -53q0 -35 31.5 -58.5t82.5 -23.5q46 0 84.5 1t84.5 1q84 0 142 -67h3q-9 34 -9 46v36z" />
    <glyph glyph-name="nn_ddho_bn" horiz-adv-x="760" 
d="M770 552h-335v-382q0 -29 18 -29q13 0 29.5 9t33.5 22.5t32 29t24 29.5q14 20 21.5 38.5t8.5 34.5q-11 -3 -20 -3q-29 0 -49 21t-20 55t25 58t63 24q43 0 73.5 -32.5t30.5 -93.5q0 -45 -22.5 -93t-56 -88t-73.5 -65.5t-76 -25.5q-19 0 -39.5 17t-38 41t-28.5 50t-11 44
v142q-7 37 -20.5 67t-31.5 51t-39 32.5t-43 11.5q-21 0 -40 -8.5t-33 -23t-22.5 -34.5t-8.5 -43q0 -16 5 -30.5t13 -25.5t18 -17.5t20 -6.5q3 0 17 3v3q-24 10 -24 47q0 22 17.5 38t40.5 16q28 0 47.5 -21t19.5 -54q0 -45 -31 -70.5t-83 -25.5q-35 0 -63 12.5t-48 34.5
t-31 52t-11 66q0 39 12.5 72t34.5 57t52.5 38t66.5 14q29 0 47.5 -7.5t35 -26t35 -51t47.5 -82.5v127l-52 52h391z" />
    <glyph glyph-name="nn_nno_bn" horiz-adv-x="509" 
d="M519 552h-50q-15 0 -32 11v-609l-37 37q-9 54 -21 101t-29.5 82.5t-42 55.5t-58.5 20q-24 0 -43.5 -8t-33 -20.5t-21 -29.5t-7.5 -35q0 -83 78 -83l2 5q-32 14 -32 47q0 58 57 58q66 0 66 -73q0 -39 -29 -65.5t-77 -26.5q-36 0 -64.5 11.5t-48.5 32t-30.5 49t-10.5 61.5
q0 23 7.5 46t20 41.5t30.5 31t39 14.5l-1 5q-122 17 -122 155q0 35 12.5 66t33.5 54t49 36.5t60 13.5q37 0 62 -7.5t45.5 -27.5t40.5 -56t47 -94l5 3q-17 40 -17 122l-1 159l37 -32q6 -81 46 -81zM383 184q-16 47 -16 82v105q0 29 -12.5 60t-32.5 56t-45.5 41t-51.5 16
q-20 0 -39 -8t-33.5 -21.5t-23 -30.5t-8.5 -34q0 -89 82 -89l3 5q-32 11 -32 48q0 25 15.5 44t46.5 19q33 0 51 -26t18 -59q0 -22 -16 -43.5t-37 -28.5v-2q75 -8 127 -135z" />
    <glyph glyph-name="nn_bo_bn" horiz-adv-x="504" 
d="M432 -95l-37 30q-5 25 -25.5 49.5t-50.5 44t-66.5 32t-73.5 12.5l-82 104q4 4 25.5 18t56 33t80.5 40.5t99 40.5l5 60q-25 79 -57 119t-80 40q-21 0 -40 -8.5t-33 -23t-22.5 -34.5t-8.5 -43q0 -15 5 -29.5t13 -26t18 -18t20 -6.5q6 0 17 4v2q-24 12 -24 47q0 23 17.5 39
t40.5 16q28 0 47.5 -21t19.5 -55q0 -45 -31 -70.5t-83 -25.5q-35 0 -63 12.5t-48 34.5t-31 52.5t-11 65.5q0 39 12.5 72t34.5 57.5t52.5 38.5t66.5 14q25 0 43.5 -6.5t35 -23t33.5 -44t40 -69.5l25 -46q1 4 1 10v10q0 11 -8 50t-8 94v140l39 -36q4 -79 60 -79l65 -70h-57
q-22 0 -32 10v-657zM369 23q-8 37 -8 90v95q-43 -17 -78 -34t-64 -36q85 -26 147 -117z" />
    <glyph glyph-name="nn_mo_bn" horiz-adv-x="653" 
d="M663 552h-82v-600l-33 34q-9 33 -22.5 61t-30 48.5t-36 33t-40.5 14.5q-21 -71 -94 -71q-42 0 -67.5 25.5t-25.5 65.5t25.5 66t67.5 26q10 0 37 -7q-10 19 -10 103v34q-20 66 -53 99t-73 33q-21 0 -40 -8.5t-33 -23t-22.5 -34.5t-8.5 -43q0 -16 5 -30.5t13 -25.5
t18 -17.5t20 -6.5q3 0 17 3v3q-24 10 -24 47q0 22 17.5 38t40.5 16q28 0 47.5 -21t19.5 -54q0 -45 -31 -70.5t-83 -25.5q-35 0 -63 12.5t-48 34.5t-31 52t-11 66q0 39 12.5 72t34.5 57t52.5 38t66.5 14q25 0 43.5 -6t35 -22t33.5 -44t40 -71l14 -27q3 8 8 13q-2 6 -5.5 26.5
t-7 44t-6 44.5t-2.5 29l1 140l39 -36q4 -79 63 -79h145zM517 118q-10 39 -10 81v353h-51q-27 0 -32 11h-3v-241q0 -21 2.5 -46.5t6.5 -54.5q25 -17 45.5 -43t36.5 -61z" />
    <glyph glyph-name="nn_ro_bn" horiz-adv-x="512" 
d="M365 154v226v10t1 10q-10 32 -26.5 56t-35.5 40t-39.5 24t-38.5 8q-21 0 -40 -8.5t-33 -23t-22.5 -34.5t-8.5 -43q0 -15 5 -29.5t13 -26t18 -18t20 -6.5q6 0 17 4v2q-24 12 -24 47q0 23 17.5 39t40.5 16q28 0 47.5 -21t19.5 -55q0 -45 -31 -70.5t-83 -25.5
q-35 0 -63 12.5t-48 34.5t-31 52.5t-11 65.5q0 39 12.5 72t34.5 57.5t52.5 38.5t66.5 14q24 0 45 -6.5t41 -23t40 -44t42 -69.5l16 -32q2 5 7 6q-21 45 -21 143v139l39 -35q6 -78 48 -78l70 -70h-50q-22 0 -32 10v-609l-42 37q-21 28 -38 44.5t-30.5 25t-25.5 10.5t-24 2
q-52 0 -80.5 -5t-45.5 -5q-35 0 -64 12t-50 33.5t-33 53t-12 70.5q0 40 17 83l28 -24q-8 -22 -8 -52q0 -36 30.5 -59.5t82.5 -23.5q3 0 15 0.5t26 1t26.5 1t16.5 0.5q39 0 79.5 -17.5t62.5 -52.5h3q-4 24 -6.5 40.5t-2.5 25.5z" />
    <glyph glyph-name="t_to_bn" horiz-adv-x="652" 
d="M597 150q0 -69 -42 -107t-118 -38q-68 0 -129.5 33.5t-114 98t-94 158.5t-70.5 215l46 -28q52 -177 143.5 -266.5t206.5 -89.5q57 0 90.5 22t33.5 53q0 27 -25 37q-26 -29 -59 -29q-34 0 -55 22t-21 54q0 35 22 56.5t51 21.5q10 0 37 -8q25 28 25 61q0 46 -48 46
q-21 0 -44 -7t-44.5 -19t-38.5 -27t-26 -31q32 -15 32 -56q0 -28 -19 -46.5t-51 -18.5q-38 0 -62.5 24.5t-24.5 69.5q0 34 18.5 65t50 54.5t73.5 37t90 13.5q67 0 107 -40.5t40 -106.5q0 -57 -27 -100q47 -47 47 -124zM662 552h-671l-67 70h668z" />
    <glyph glyph-name="t_t_bo_bn" horiz-adv-x="626" 
d="M636 552h-646l-67 70h643zM571 205q0 -64 -39 -92v-243l-41 32q-53 69 -169 69l-82 87q45 29 73 39v2q-42 6 -84.5 40.5t-80.5 91.5t-69 133t-50 165l46 -27q46 -153 133.5 -237t202.5 -84q22 0 42.5 5t35.5 14t24 20.5t9 25.5q0 23 -18 34q-28 -31 -63 -31q-25 0 -46 19
t-21 51q0 27 19.5 47t42.5 20q18 0 37 -8q26 32 26 57q0 38 -41 38q-21 0 -43 -6.5t-41.5 -17t-35 -24t-24.5 -28.5q25 -19 25 -48q0 -27 -18.5 -45t-40.5 -18q-16 0 -31 6.5t-27 18t-19 27.5t-7 35q0 29 17.5 56.5t46.5 49.5t67 35t79 13q31 0 57.5 -10t46 -27t30 -41
t10.5 -51q0 -52 -21 -83q42 -45 42 -110zM483 -54q-13 29 -13 60v83q-42 -12 -114 -60q63 -11 125 -85z" />
    <glyph glyph-name="t_tho_bn" horiz-adv-x="632" 
d="M652 552h-59q-23 0 -33 10v-564l-29 31q-13 36 -45 70.5t-76 61.5t-96 44t-106 17l-108 135q16 -3 35.5 -4t42.5 -1q41 0 79 11.5t67.5 31t47 44.5t17.5 51q0 30 -31 67q-4 -11 -13.5 -24t-20 -28.5t-20 -33.5t-13.5 -40l-24 19q-3 21 -12 41t-21 35t-26.5 24t-29.5 9
q-46 0 -46 -37q0 -1 0.5 -4.5t1.5 -8.5q61 0 61 -53q0 -25 -19 -42t-49 -17q-20 0 -37.5 9t-31 24.5t-21.5 36t-8 43.5q0 25 8.5 47.5t24 39.5t37 26.5t47.5 9.5q53 0 105 -79q6 15 15.5 29.5t19 27t18.5 24t14 20.5q22 -27 46 -54.5t43.5 -54.5t32 -54t12.5 -53
q0 -57 -35.5 -98.5t-98.5 -54.5v-3q19 -5 42 -20t46 -35t43.5 -43t33.5 -44h2v599l41 -37q9 -81 56 -81z" />
    <glyph glyph-name="t_no_bn" horiz-adv-x="581" 
d="M591 552h-601l-67 70h599zM526 326q0 -65 -34 -108v-330l-38 35q-2 25 -14 50t-30 45t-40 32.5t-43 12.5q-4 0 -9.5 -0.5t-10.5 -1.5q29 -24 29 -58q0 -59 -72 -59q-16 0 -31 7.5t-26 20t-18 28.5t-7 33q0 38 30 63.5t74 25.5q90 0 153 -97l4 5q-13 32 -13 88q0 32 5 50
l-3 2q-26 -24 -76 -24q-113 0 -193 95t-134 296l47 -30q95 -248 250 -248q32 0 60 9.5t48.5 25.5t32.5 36.5t12 43.5q0 15 -6.5 30t-17.5 27t-26 19.5t-32 7.5q-11 0 -18 -4q27 -24 27 -61q0 -33 -24 -56.5t-58 -23.5q-19 0 -36.5 8t-30.5 22t-21 32.5t-8 39.5q0 51 35 80.5
t96 29.5q36 0 66.5 -14.5t53 -41t35 -63t12.5 -80.5z" />
    <glyph glyph-name="t_bo_bn" horiz-adv-x="581" 
d="M526 323q0 -70 -34 -110v-318l-38 36q-59 101 -196 101l-78 83q19 15 38 27t35 21q-135 42 -224 368l47 -29q50 -134 111.5 -194t145.5 -60q31 0 58 9.5t46.5 26.5t30.5 39t11 48q0 15 -6.5 30.5t-17.5 27.5t-26 19.5t-32 7.5q-10 0 -18 -5q27 -24 27 -60q0 -33 -24 -57
t-58 -24q-19 0 -36.5 8t-30.5 22t-21 32t-8 39q0 52 35 81t98 29q36 0 66.5 -14.5t52.5 -40.5t34 -62.5t12 -80.5zM591 552h-601l-67 70h599zM438 -8q-8 27 -8 99q0 24 1 42t3 29l-60 -31l-61 -41q10 -3 27 -13.5t35.5 -25t35 -30.5t26.5 -30z" />
    <glyph glyph-name="t_lo_bn" horiz-adv-x="581" 
d="M591 552h-601l-67 70h599zM430 118q0 32 5 50l-3 2q-26 -24 -76 -24q-113 0 -193 95t-134 296l47 -30q95 -248 250 -248q32 0 60 9.5t48.5 25.5t32.5 36.5t12 43.5q0 15 -6.5 30t-17.5 27t-26 19.5t-32 7.5q-11 0 -18 -4q27 -24 27 -61q0 -33 -24 -56.5t-58 -23.5
q-19 0 -36.5 8t-30.5 22t-21 32.5t-8 39.5q0 51 35 80.5t96 29.5q36 0 66.5 -14.5t53 -41t35 -63t12.5 -80.5q0 -65 -34 -108v-349l-33 36q-8 51 -29 84t-41 33q-27 0 -27 -36q0 -17 4 -32l-33 16q-19 61 -90 61q-39 0 -65.5 -20t-26.5 -49q0 -20 13.5 -35.5t25.5 -15.5
q7 0 16 6q-14 11 -14 31q0 17 13 29.5t32 12.5q45 0 45 -48q0 -58 -78 -58q-54 0 -86 29.5t-32 80.5q0 54 32 88t87 34q63 0 91 -55h4q16 36 48 36q33 0 94 -82l4 5q-1 3 -8.5 24t-7.5 74z" />
    <glyph glyph-name="t_mo_bn" horiz-adv-x="674" 
d="M684 552h-82v-657l-32 30q-2 24 -13 48t-27.5 43.5t-36.5 32.5t-40 15q-20 -78 -93 -78q-18 0 -33.5 6.5t-27 17.5t-18.5 25.5t-7 31.5q0 84 100 84q0 22 -28 41q-14 -3 -35 -3q-192 0 -282 342l47 -29q78 -207 218 -207q28 0 52.5 8t42.5 21t28.5 30.5t10.5 36.5
q0 70 -63 70q-11 0 -20 -3q21 -20 21 -44q0 -31 -19.5 -51t-49.5 -20q-39 0 -63 24.5t-24 66.5q0 39 31.5 65t77.5 26q36 0 65 -13t49.5 -36.5t31.5 -55.5t11 -70q0 -49 -23.5 -90t-61.5 -54q63 -26 63 -73q38 -8 83 -87l5 1q-15 51 -15 88v417h-537l-67 70h690z" />
    <glyph glyph-name="t_ro_bn" horiz-adv-x="566" 
d="M576 552h-586l-70 70h588zM494 -39l-38 36q-20 81 -97 81q-3 0 -26 -2.5t-50.5 -5t-51.5 -5t-28 -2.5q-174 0 -174 185q0 59 31 117l27 -24q-19 -28 -19 -75q0 -49 34 -79t94 -30q3 0 15 1t26.5 1.5t27 1.5t15.5 1q24 0 43 -3.5t35.5 -12t32 -23.5t34.5 -37h4
q-5 19 -6.5 36t-1.5 31v288q0 21 -12 21q-7 0 -27 -11.5t-41.5 -28.5t-38.5 -38t-17 -40q17 5 30 5q21 0 38.5 -17.5t17.5 -41.5q0 -35 -25 -57t-68 -22q-45 0 -75.5 30t-30.5 81q0 36 21 73t53 66.5t69.5 48.5t71.5 19q19 0 38 -10t34.5 -27t25 -38.5t9.5 -43.5v-449z" />
    <glyph glyph-name="th_bo_bn" horiz-adv-x="562" 
d="M572 552h-51q-20 0 -30 10l-2 -689l-41 42q-59 83 -187 83l-79 98q114 73 186 89q-70 46 -228 46l-100 126q31 -6 56 -6q36 0 74.5 14t70 36.5t52 50.5t20.5 57q0 21 -17.5 37.5t-44.5 16.5q-12 0 -25 -3.5t-25 -9.5t-22 -13.5t-16 -16.5q27 -27 27 -53q0 -12 -5.5 -24.5
t-15 -22t-23.5 -16t-31 -6.5q-38 0 -62 23.5t-24 65.5q0 28 13.5 55t37.5 48t56.5 33.5t70.5 12.5q36 0 67 -14.5t54 -39t36 -57t13 -68.5q0 -25 -11 -51.5t-29 -50t-41 -40t-47 -21.5v-4q83 -21 151 -90l15 5v535l41 -37q9 -81 46 -81zM428 -31q-11 39 -11 61v84
q-65 -20 -116 -58q74 -27 124 -89z" />
    <glyph glyph-name="th_ro_bn" horiz-adv-x="563" 
d="M491 -82l-38 37q-6 58 -76 58q-4 0 -27 -3t-50 -6t-50.5 -6t-27.5 -3q-35 0 -64 12t-50 34t-33 53.5t-12 70.5q0 40 17 83l28 -24q-8 -24 -8 -53q0 -35 30.5 -58.5t82.5 -23.5q3 0 15 0.5t26 0.5t26.5 0.5t16.5 0.5q85 0 142 -67h5q-9 27 -9 47v8q-22 31 -53 56t-68 43
t-77.5 28t-81.5 10l-109 135q25 -2 39 -3.5t16 -1.5q34 0 71 14.5t68.5 37.5t52 52t20.5 59q0 21 -17.5 37.5t-44.5 16.5q-12 0 -25 -3.5t-25 -9.5t-22 -13.5t-16 -16.5q27 -27 27 -53q0 -12 -5.5 -24.5t-15 -22t-23.5 -16t-31 -6.5q-38 0 -62 23.5t-24 65.5q0 28 13.5 55
t37.5 48t56.5 33.5t70.5 12.5q36 0 67 -14.5t54 -39t36 -57t13 -68.5q0 -63 -36.5 -108.5t-97.5 -61.5v-4q18 -2 42 -17t48 -36t45.5 -45t34.5 -44h2v599l41 -37q9 -81 47 -81l70 -70h-52q-20 0 -30 10v-644z" />
    <glyph glyph-name="th_lo_bn" horiz-adv-x="563" 
d="M491 -105l-34 36q-3 25 -10.5 46.5t-17.5 37t-21 24.5t-20 9q-28 0 -28 -35q0 -12 5 -32l-33 16q-20 60 -91 60q-38 0 -64.5 -20t-26.5 -48q0 -21 13 -36.5t26 -15.5q7 0 16 6q-14 11 -14 31q0 17 12.5 29.5t32.5 12.5q44 0 44 -48q0 -58 -77 -58q-54 0 -86 30t-32 81
q0 52 32 86.5t87 34.5q61 0 91 -55h4q16 36 48 36q33 0 93 -82l5 5q-1 2 -2 8t-2 15q-19 31 -50.5 58t-69.5 46.5t-81 31t-85 11.5l-109 135q25 -2 39 -3.5t16 -1.5q34 0 71 14.5t68.5 37.5t52 52t20.5 59q0 21 -17.5 37.5t-44.5 16.5q-12 0 -25 -3.5t-25 -9.5t-22 -13.5
t-16 -16.5q27 -27 27 -53q0 -12 -5.5 -24.5t-15 -22t-23.5 -16t-31 -6.5q-38 0 -62 23.5t-24 65.5q0 28 13.5 55t37.5 48t56.5 33.5t70.5 12.5q36 0 67 -14.5t54 -39t36 -57t13 -68.5q0 -63 -36.5 -108.5t-97.5 -61.5v-4q18 -2 42 -17t48 -36t45.5 -45t34.5 -44h2v599
l41 -37q9 -81 47 -81l70 -70h-52q-20 0 -30 10v-667z" />
    <glyph glyph-name="d_do_bn" horiz-adv-x="687" 
d="M697 552h-550v-129q0 -43 -3 -68l2 -2q43 102 190 172q57 -31 110 -79q-28 -21 -50.5 -48.5t-38 -58t-23.5 -64t-8 -66.5l3 -2q46 123 216 212q62 -32 116 -89q-100 -81 -100 -258q0 -28 4.5 -64.5t12.5 -84.5l-41 32q-34 108 -34 205q0 66 23 123l-3 3
q-134 -95 -134 -237q-18 10 -34 20.5t-29 23t-21.5 28t-10.5 36.5q-4 31 -5.5 55t-1.5 42q0 77 33 146l-2 2q-131 -106 -145 -231q-20 11 -38 24.5t-32 30.5t-22.5 37.5t-8.5 46.5v242h-82l-65 70h701z" />
    <glyph glyph-name="d_d_bo_bn" horiz-adv-x="687" 
d="M697 552h-550v-129q0 -43 -3 -68l2 -2q43 102 190 172q57 -31 110 -79q-28 -21 -50.5 -48.5t-38 -58t-23.5 -64t-8 -66.5l3 -2q46 123 216 212q62 -32 116 -89q-99 -81 -99 -258q0 -140 32 -315l-37 24q-61 70 -149 70q-5 0 -14.5 -1t-24.5 -3l-51 78q108 90 197 130
q-5 35 -8.5 61t-3.5 44q0 66 23 123l-3 3q-134 -95 -134 -237q-18 10 -34 20.5t-29 23t-21.5 28t-10.5 36.5q-4 31 -5.5 55t-1.5 41q0 78 33 147l-2 2q-132 -107 -145 -231q-20 11 -38 24.5t-32 30.5t-22.5 37.5t-8.5 46.5v242h-82l-65 70h703zM549 -174q-2 7 -9.5 42
t-19.5 101q-69 -20 -120 -62v-2q69 0 146 -81z" />
    <glyph glyph-name="d_dho_bn" horiz-adv-x="657" 
d="M667 552h-520v-123q0 -27 -4 -38h4q10 22 30.5 43t45.5 38t51.5 27.5t47.5 10.5q20 0 42 -17.5t41 -40t31 -44.5t12 -30q52 28 71 28q5 0 18.5 -10.5t27.5 -27t25 -36t11 -36.5q0 -27 -3.5 -67t-3.5 -94q0 -103 16 -154v-24q-23 16 -39 30t-27 30.5t-16 37.5t-5 50v118
q0 29 1 51.5t3 38.5q-17 -4 -35 -12t-38 -19v-345l-37 34q-22 61 -71.5 98.5t-115.5 37.5l-75 94q95 81 227 151v34q0 30 -28 30q-25 0 -56 -17t-60.5 -44.5t-54 -61.5t-36.5 -68q-29 28 -52 53.5t-23 52.5v221h-82l-68 70h676zM391 64q-4 19 -6 32.5t-2 23.5v129
q-27 -16 -57 -35.5t-62 -42.5q73 -22 122 -107h5z" />
    <glyph glyph-name="d_dh_bo_bn" horiz-adv-x="679" 
d="M689 552h-542v-106q0 -18 -5 -38h5q7 22 29 43t50.5 38t59.5 27.5t56 10.5q24 0 46.5 -17t40 -39t28 -43t10.5 -28q51 23 75 23q4 0 17 -11t27.5 -27.5t26 -36t11.5 -35.5q0 -26 -3.5 -77.5t-3.5 -129.5q0 -103 16 -154v-24q-13 9 -28.5 21.5t-28.5 30t-22 41t-9 54.5
v141q0 43 1 72t4 42q-20 -5 -39 -13t-38 -18v-410l-36 32q-58 82 -166 82l-68 79q28 24 68 39v2q-12 2 -21 2.5t-16 0.5q-25 0 -45 -4l-63 81q89 75 275 173v30q0 27 -27 27q-29 0 -65.5 -17.5t-70 -45t-59 -61.5t-32.5 -67q-75 72 -75 107v203h-82l-65 70h694zM403 205v68
q-58 -33 -99.5 -59.5t-68.5 -45.5q42 -6 66 -21q17 11 42.5 25t59.5 33zM415 -17q-12 46 -12 78v54q-29 -13 -55 -28.5t-50 -32.5q63 -16 112 -71h5z" />
    <glyph glyph-name="d_no_bn" horiz-adv-x="512" 
d="M386 390q0 26 -24 26q-26 0 -58.5 -17.5t-64 -45.5t-57 -61.5t-36.5 -66.5q-37 38 -55.5 60t-18.5 40v227h-82l-65 70h526l71 -70h-375v-121q0 -28 -4 -39h4q8 21 30 42t49 38t54.5 27.5t46.5 10.5q22 0 45 -18.5t42 -43t31 -50t12 -38.5v-392l-35 34q-11 72 -51.5 110
t-100.5 38q31 -30 31 -64q0 -28 -21 -46.5t-51 -18.5q-39 0 -62.5 27t-23.5 67q0 45 29 70.5t77 25.5q80 0 152 -98l5 2q-19 58 -19 116z" />
    <glyph glyph-name="d_bo_bn" horiz-adv-x="512" 
d="M522 552h-375v-121q0 -28 -4 -39h4q8 21 30 42t49 38t54.5 27.5t46.5 10.5q22 0 45 -18.5t42 -43t31 -50t12 -38.5v-414l-35 35q-63 128 -193 128l-76 91q125 107 233 141v49q0 26 -24 26q-26 0 -58.5 -17.5t-64 -45.5t-57 -61.5t-36.5 -66.5q-37 38 -55.5 60t-18.5 40
v227h-82l-65 70h526zM397 64q-10 34 -10 56v121q-67 -28 -118 -70q75 -24 122 -107h6z" />
    <glyph glyph-name="d_bho_bn" horiz-adv-x="631" 
d="M641 552h-385v-104q0 -26 -3 -45l2 -2q8 18 26.5 38t44 38.5t56.5 34t64 25.5q63 -29 109 -72q-90 -68 -90 -180q17 17 26 30q85 -61 85 -176q0 -43 -15 -79t-41 -61.5t-61.5 -40t-75.5 -14.5q-137 0 -225.5 132t-128.5 395l38 -25q103 -388 302 -388q30 0 59 10.5
t52 27.5t37.5 39.5t14.5 46.5q0 22 -16 35q-81 -96 -167 -96q-52 0 -79 27t-27 65q0 30 22 51q-84 54 -84 128v160h-191l-64 70h644zM435 432l-3 2q-107 -59 -151 -149v-8q18 8 35 8q51 0 51 -51q0 -24 -25 -39v-2q47 0 87 55q-7 29 -10.5 54t-3.5 47q0 48 20 83z" />
    <glyph glyph-name="d_bh_ro_bn" horiz-adv-x="532" 
d="M542 552h-395v-146q0 -36 -7 -61l2 -2q59 103 218 168q40 -18 116 -85q-97 -72 -97 -263q21 24 27 36q22 -21 36 -37t21.5 -30t10.5 -29t3 -36v-347l-35 33q-23 78 -102 78q-3 0 -22 -2t-43 -4.5t-48 -4.5t-37 -2q-174 0 -174 179q0 67 30 121l24 -25q-16 -22 -16 -66
q0 -115 144 -115q6 0 17.5 0.5t23.5 0.5t22.5 0.5t13.5 0.5q21 0 37.5 -3.5t32 -12t33 -24t39.5 -39.5l2 5q-13 32 -13 71v127q0 22 4 42l-2 2q-63 -76 -147 -76q-21 0 -39 6.5t-31.5 18.5t-21.5 28t-8 34q0 30 20 52.5t49 22.5q22 0 37 -14.5t15 -38.5q0 -17 -20 -40
q39 0 70 43q-19 73 -19 139q0 79 26 129l-2 3q-162 -116 -164 -206q-18 10 -36.5 25.5t-32.5 32.5t-23 35t-9 34v242h-82l-64 70h547z" />
    <glyph glyph-name="d_mo_bn" horiz-adv-x="599" 
d="M610 552h-83v-616l-32 34q-7 31 -20.5 58t-31.5 47t-38 32t-41 14q-26 -72 -93 -72q-42 0 -65.5 24.5t-23.5 64.5t25.5 66.5t67.5 26.5q25 0 51 -13q-23 58 -23 115q0 52 15 81l-3 2q-42 -32 -70 -58t-45.5 -51.5t-25.5 -52.5t-10 -61q-42 29 -67 57.5t-25 59.5v242h-82
l-65 70h614zM463 96q-11 46 -11 80l-1 376h-305v-113q0 -27 -6 -58l3 -3q47 86 171 143q73 -32 116 -75q-75 -56 -75 -156q0 -22 1.5 -43t5.5 -42q54 -26 95 -110z" />
    <glyph glyph-name="d_ro_bn" horiz-adv-x="527" 
d="M530 552h-359v-179v-10.5t-1 -10.5l2 -2q50 85 208 164q67 -35 121 -89q-98 -83 -98 -254q0 -89 27 -213l-41 32q-3 21 -8 35t-15 22.5t-26 12t-41 3.5q-6 0 -22.5 -5t-36.5 -11.5t-39 -11.5t-29 -5q-78 0 -125 44.5t-47 119.5q0 60 27 101l21 -29q-14 -20 -14 -59
q0 -15 8 -30t21 -27t30.5 -19.5t35.5 -7.5q4 0 15 3.5t24.5 7.5t27.5 7.5t25 3.5q27 0 45.5 -3t34 -11t31 -22.5t35.5 -37.5l5 2q-33 117 -33 175q0 83 24 134l-2 2q-27 -16 -52.5 -38t-48 -48t-39.5 -54t-26 -55q-69 42 -100 100v263h-105l-64 70h534z" />
    <glyph glyph-name="d_ro_alt_bn" horiz-adv-x="500" 
d="M95 282v270h-105l-64 70h513l71 -70h-340v-152q0 -41 -3 -66l2 -2q36 97 189 166q35 -17 64 -37t52 -43q-27 -26 -46.5 -53t-31.5 -59t-18 -69.5t-6 -84.5q0 -51 6.5 -102t19.5 -106l-43 36q-4 32 -27 50.5t-53 18.5q-17 0 -52 -4t-72.5 -9.5t-70.5 -9.5t-45 -4
q-100 0 -153 52t-53 149q0 39 18 69l25 -24q-7 -14 -7 -36q0 -48 41 -78t117 -30q3 0 25.5 1.5t49 3t49.5 3t28 1.5q95 0 160 -71l4 1q-32 88 -32 183q0 61 23 112l-5 6q-125 -102 -132 -205q-15 11 -32 24.5t-32 29t-24.5 33t-9.5 36.5z" />
    <glyph glyph-name="d_r_ukar_bn" horiz-adv-x="771" 
d="M436 341q75 -107 143 -107q18 0 34.5 7t29 19t20 27t7.5 31q0 63 -63 63q18 -20 18 -40q0 -46 -50 -46q-65 0 -65 68q0 31 22.5 50t52.5 19q27 0 51.5 -12.5t43.5 -34.5t30 -50.5t11 -60.5q0 -27 -8.5 -50.5t-23.5 -40.5t-36.5 -27t-46.5 -10q-17 0 -40 14t-48.5 37
t-50.5 51.5t-45 57.5q-19 -56 -19 -135q0 -89 27 -213l-41 32q-3 21 -8 35t-15 22.5t-26 12t-41 3.5q-6 0 -22.5 -5t-36.5 -11.5t-39 -11.5t-29 -5q-78 0 -125 44.5t-47 119.5q0 60 27 101l21 -29q-14 -20 -14 -59q0 -15 8 -30t21 -27t30.5 -19.5t35.5 -7.5q4 0 15 3.5
t24.5 7.5t27.5 7.5t25 3.5q27 0 45.5 -3t34 -11t31 -22.5t35.5 -37.5l5 2q-33 117 -33 175q0 83 24 134l-2 2q-27 -16 -52.5 -38t-48 -48t-39.5 -54t-26 -55q-69 42 -100 100v263h-105l-64 70h784l71 -70h-610v-179v-10.5t-1 -10.5l2 -2q50 85 208 164q67 -35 121 -89
q-41 -35 -65 -84z" />
    <glyph glyph-name="d_r_ookar_bn" horiz-adv-x="659" 
d="M605 622l64 -70h-498v-179v-10.5t-1 -10.5l2 -2q50 85 208 164q67 -35 121 -89q-48 -39 -73 -103q49 21 71.5 39.5t27.5 18.5t18.5 -10.5t27.5 -27t25 -36t11 -36.5t-2.5 -40.5t-2.5 -71.5q0 -42 3.5 -76.5t10.5 -62.5v-23q-10 7 -25 18.5t-28.5 29.5t-23.5 42.5
t-10 57.5v71q0 20 1 38t3 34q-26 -17 -58.5 -33t-71.5 -32q-1 -13 -1.5 -25.5t-0.5 -25.5q0 -89 27 -213l-41 32q-3 21 -8 35t-15 22.5t-26 12t-41 3.5q-6 0 -22.5 -5t-36.5 -11.5t-39 -11.5t-29 -5q-78 0 -125 44.5t-47 119.5q0 60 27 101l21 -29q-14 -20 -14 -59
q0 -15 8 -30t21 -27t30.5 -19.5t35.5 -7.5q4 0 15 3.5t24.5 7.5t27.5 7.5t25 3.5q27 0 45.5 -3t34 -11t31 -22.5t35.5 -37.5l5 2q-33 117 -33 175q0 83 24 134l-2 2q-27 -16 -52.5 -38t-48 -48t-39.5 -54t-26 -55q-69 42 -100 100v263h-105l-64 70h679z" />
    <glyph glyph-name="dh_no_bn" horiz-adv-x="490" 
d="M500 552h-82v-656l-36 34q-10 72 -51 110t-101 38q31 -30 31 -64q0 -28 -20.5 -46.5t-51.5 -18.5q-39 0 -62.5 27t-23.5 67q0 45 29.5 70.5t77.5 25.5q80 0 152 -98l4 2l-4 34q-45 64 -112 105t-148 41l-73 92q103 79 175 115l-2 2q-32 -9 -56 -9q-48 0 -79 29.5
t-31 74.5q0 51 35 83t90 32q37 0 64.5 -22.5t27.5 -59.5q0 -26 -16 -42.5t-38 -16.5q-49 0 -49 44q0 2 6 22q-46 0 -46 -42q0 -30 22.5 -48.5t57.5 -18.5q46 0 76 20l79 51v93h85zM350 143q-2 22 -3.5 34.5t-1.5 14.5v216l-179 -122q103 -23 182 -145z" />
    <glyph glyph-name="dh_mo_bn" horiz-adv-x="688" 
d="M616 -197l-33 35q-14 60 -43.5 97t-69.5 37l-13 -1q-7 -40 -32.5 -62t-57.5 -22q-38 0 -62 23t-24 62q0 80 97 80q-2 3 -8.5 11.5t-8.5 13.5q-45 65 -111.5 105.5t-147.5 40.5l-73 92q103 79 175 115l-2 2q-32 -9 -56 -9q-48 0 -79 29.5t-31 74.5q0 51 35 83t90 32
q37 0 64.5 -22.5t27.5 -59.5q0 -26 -16 -42.5t-38 -16.5q-49 0 -49 44q0 2 6 22q-46 0 -46 -42q0 -30 22.5 -48.5t57.5 -18.5q46 0 76 20l79 51v93h284l69 -70h-82v-749zM418 552v-449q25 -29 36 -60q14 -4 28.5 -15t27 -24.5t22.5 -26.5t14 -21l6 1q-13 56 -13 96l1 499
h-122zM348 141l2 2q-1 13 -2 18.5t-1.5 18t-1 38.5t-0.5 80v110l-179 -122q103 -23 182 -145z" />
    <glyph glyph-name="dh_ro_bn" horiz-adv-x="490" 
d="M418 -64l-38 38q-6 57 -75 57q-5 0 -27.5 -2.5t-49.5 -6t-50.5 -6t-28.5 -2.5q-34 0 -63 12t-50.5 33.5t-33.5 53t-12 70.5q0 40 17 83l28 -24q-8 -22 -8 -52q0 -36 31 -59.5t82 -23.5q3 0 15 0.5t26 1t26.5 1t17.5 0.5q84 0 141 -68h5q-8 19 -9 33q-20 31 -48 58.5
t-61.5 47t-72 31t-78.5 11.5l-73 92q103 79 175 115l-2 2q-32 -9 -56 -9q-48 0 -79 29.5t-31 74.5q0 51 35 83t90 32q37 0 64.5 -22.5t27.5 -59.5q0 -26 -16 -42.5t-38 -16.5q-49 0 -49 44q0 2 6 22q-46 0 -46 -42q0 -30 22.5 -48.5t57.5 -18.5q46 0 76 20l79 51v93h85
l70 -70h-82v-616zM350 143q-2 22 -3.5 34.5t-1.5 14.5v216l-179 -122q103 -23 182 -145z" />
    <glyph glyph-name="n_jo_bn" horiz-adv-x="839" 
d="M358 326q-9 48 -28.5 83t-56.5 46q9 -11 15.5 -27t6.5 -28q0 -27 -21.5 -48.5t-53.5 -21.5q-40 0 -65.5 28.5t-25.5 67.5q0 45 27 72t75 27q46 0 74.5 -23t52.5 -74v124h-368l-64 70h852l71 -70h-420v-15q7 -15 22 -29t35 -25.5t43 -18t46 -6.5q67 0 129 31
q24 -16 51 -45.5t58 -72.5q-43 -37 -67.5 -103t-24.5 -139t27 -194l-46 36q-40 148 -40 244q0 113 42 172l-2 3q-14 -7 -57 -7q-134 0 -214 107h-2v-173q0 -31 20 -31q33 0 100 73q80 -53 80 -177q0 -41 -12.5 -75t-36 -59t-56.5 -39t-74 -14q-66 0 -128 33.5t-117 96.5
t-100 152t-76 200l44 -23q27 -76 67.5 -138.5t88.5 -107.5t100 -70t102 -25q27 0 55 9.5t51.5 24t38 32.5t14.5 35q0 15 -14 32q-80 -62 -137 -62q-40 0 -58.5 38t-22.5 104z" />
    <glyph glyph-name="n_ttho_bn" horiz-adv-x="581" 
d="M591 552h-183q118 -166 118 -293q0 -50 -15.5 -91.5t-43 -72t-65.5 -47.5t-84 -17q-42 0 -78.5 14.5t-63.5 39t-42 57t-15 68.5t15 68q108 0 163 82q-9 24 -23 44.5t-30.5 34.5t-35 22t-35.5 8q-8 0 -15 -3q27 -26 27 -63q0 -26 -20 -45t-51 -19q-36 0 -60.5 27t-24.5 67
q0 45 29.5 70.5t75.5 25.5q51 0 98.5 -37.5t77.5 -106.5q27 52 27 124q0 9 -0.5 19.5t-1.5 23.5h-345l-68 70h380q-104 164 -104 230t57 101l94 -63q-100 0 -100 -72q0 -54 109 -196h163zM465 285q0 123 -69 225l-2 -1q11 -46 11 -83q0 -51 -14 -95.5t-38.5 -76.5t-59 -50.5
t-75.5 -18.5q-10 -13 -10 -38q0 -68 87 -68q34 0 65 16.5t54.5 44.5t37 65.5t13.5 79.5z" />
    <glyph glyph-name="n_ddo_bn" horiz-adv-x="674" 
d="M684 552h-277v-163q0 -20 14 -20q39 0 101 102q97 -69 97 -204q0 -44 -16 -82.5t-44.5 -66.5t-67.5 -44t-84 -16q-71 0 -133.5 35t-112 98t-83.5 151t-49 194l35 -25q89 -335 331 -335q35 0 67.5 12t58 31t40.5 42.5t15 47.5q0 27 -24 44q-74 -80 -129 -80
q-28 0 -52.5 31.5t-50.5 85.5q-33 69 -80 69q23 -23 23 -48q0 -24 -15.5 -39t-36.5 -15q-28 0 -50.5 23t-22.5 54t22.5 53.5t53.5 22.5q72 0 124 -91l4 2q-1 19 -1.5 34t-0.5 24v73h-350l-68 70h692z" />
    <glyph glyph-name="n_dd_ro_bn" horiz-adv-x="674" 
d="M493 75q-6 -6 -16.5 -9t-23 -5t-25 -2.5t-21.5 -0.5q-71 0 -133.5 35t-112 98t-83.5 151t-49 194l35 -25q89 -335 331 -335q35 0 67.5 12t58 31t40.5 42.5t15 47.5q0 27 -24 44q-74 -80 -129 -80q-28 0 -52.5 31.5t-50.5 85.5q-33 69 -80 69q23 -23 23 -48
q0 -24 -15.5 -39t-36.5 -15q-28 0 -50.5 23t-22.5 54t22.5 53.5t53.5 22.5q72 0 124 -91l4 2q-1 19 -1.5 34t-0.5 24v73h-350l-68 70h692l70 -70h-277v-163q0 -20 14 -20q39 0 101 102q97 -69 97 -204q0 -45 -16 -83t-44 -66l-11 -10v-261l-37 38q-6 57 -76 57q-24 0 -54 -2
t-61 -5t-60 -6t-51 -4q-35 0 -64 12t-50 33.5t-33 53t-12 70.5t17 84l28 -24q-8 -24 -8 -53q0 -35 30.5 -58.5t82.5 -23.5h15q3 0 13 0.5t24.5 1t31 1t32.5 0.5q59 0 102.5 -12.5t78.5 -55.5h5q-10 24 -10 46v66q0 6 1 9z" />
    <glyph glyph-name="n_to_bn" horiz-adv-x="650" 
d="M501 552q38 -41 38 -98q0 -14 -5 -31.5t-13 -34t-19.5 -29t-24.5 -16.5q57 -16 87.5 -65t30.5 -121q0 -85 -47 -134.5t-135 -49.5q-69 0 -130 37t-110.5 106.5t-86 169t-57.5 224.5l40 -27q22 -88 57 -160.5t78 -124t92.5 -80t101.5 -28.5q33 0 59.5 9t46 24.5t30 37
t10.5 45.5q0 34 -20 59.5t-53 25.5q-11 0 -23 -3q30 -26 30 -65q0 -33 -21.5 -55t-60.5 -22t-65.5 28t-26.5 67q0 45 26.5 74.5t80.5 33.5q-22 10 -41.5 30.5t-38.5 41.5t-38.5 36.5t-41.5 15.5v-2q35 -26 35 -69q0 -27 -22 -48t-53 -21q-20 0 -37 7.5t-30 21t-20.5 31.5
t-7.5 39q0 42 26 66.5t74 24.5q76 0 150 -77q21 -22 33 -22t23.5 7.5t20.5 19t15 25.5t6 27q0 32 -27 49h-447l-70 70h670l70 -70h-159z" />
    <glyph glyph-name="n_t_bo_bn" horiz-adv-x="650" 
d="M462 -174q-9 25 -9 54v87q-64 -26 -113 -63q62 -13 120 -80zM318 -8q-106 45 -180 178.5t-109 339.5l40 -27q22 -88 57 -160.5t78 -124t92.5 -80t101.5 -28.5q33 0 59.5 9t46 24.5t30 37t10.5 45.5q0 34 -20 59.5t-53 25.5q-11 0 -23 -3q30 -26 30 -65q0 -33 -21.5 -55
t-60.5 -22t-65.5 28t-26.5 67q0 45 26.5 74.5t80.5 33.5q-22 10 -41.5 30.5t-38.5 41.5t-38.5 36.5t-41.5 15.5v-2q35 -26 35 -69q0 -27 -22 -48t-53 -21q-20 0 -37 7.5t-30 21t-20.5 31.5t-7.5 39q0 42 26 66.5t74 24.5q76 0 150 -77q21 -22 33 -22t23.5 7.5t20.5 19
t15 25.5t6 27q0 32 -27 49h-447l-70 70h670l70 -70h-159q38 -41 38 -98q0 -14 -5 -31.5t-13 -34t-19.5 -29t-24.5 -16.5q57 -16 87.5 -65t30.5 -121q0 -114 -86 -163v-245l-38 31q-9 15 -27 28.5t-41.5 23.5t-50.5 15.5t-55 5.5l-78 81q11 7 27 16t37 20z" />
    <glyph glyph-name="n_t_ro_bn" horiz-adv-x="523" 
d="M415 552q37 -40 37 -98q0 -11 -3 -24.5t-8.5 -27.5t-13 -26t-15.5 -19q39 -35 39 -94v-390l-38 37q-18 80 -114 80q-5 0 -25.5 -2.5t-44.5 -5t-45 -5t-26 -2.5q-33 0 -62 12t-50.5 35.5t-33.5 58t-12 79.5q0 65 31 117l28 -23q-20 -35 -20 -75q0 -25 9.5 -45t25.5 -34.5
t35.5 -22t40.5 -7.5q3 0 16.5 0.5t28.5 0.5t28 0.5t17 0.5q23 0 41 -3.5t34.5 -12t32.5 -23t34 -35.5h3q-6 34 -6 67v253q0 20 -13 21h-2q-15 0 -36.5 -13t-40.5 -30.5t-32.5 -36t-13.5 -29.5q24 3 30 3q55 0 55 -54q0 -30 -25.5 -48.5t-65.5 -18.5q-48 0 -75 27t-27 69
q0 25 12 51.5t31.5 50t44 41t49.5 24.5l13 2q-20 17 -35 41q-37 55 -84 55v-2q35 -26 35 -69q0 -27 -22 -48t-53 -21q-20 0 -37 7.5t-30 21t-20.5 31.5t-7.5 39q0 42 26 66.5t74 24.5q76 0 150 -77q21 -22 33 -22t23.5 7.5t20.5 19t15 25.5t6 27q0 32 -27 49h-360l-71 70
h544l70 -70h-118z" />
    <glyph glyph-name="n_tho_bn" horiz-adv-x="563" 
d="M625 -218q-204 196 -440 225l-86 164q95 -53 145 -53q38 0 76 12.5t68.5 32.5t49.5 44.5t19 48.5q0 15 -15.5 27.5t-41.5 12.5q-16 0 -46 -14q-3 -24 -13.5 -44.5t-26 -35.5t-34.5 -23t-40 -8q-71 0 -71 60q0 21 11.5 40.5t32.5 35t49.5 27t62.5 15.5q-20 9 -39.5 29.5
t-39 41.5t-40 37t-42.5 16v-2q36 -26 36 -69q0 -27 -22.5 -48t-53.5 -21q-20 0 -37 7.5t-30 21t-20.5 31.5t-7.5 39q0 42 26.5 66.5t74.5 24.5q76 0 150 -77q11 -12 18 -17t15 -5q11 0 22.5 7.5t21 19t15.5 25.5t6 27q0 32 -27 49h-361l-71 70h584l70 -70h-160
q39 -39 39 -98q0 -14 -4.5 -29.5t-11.5 -30.5t-16.5 -28t-19.5 -20q49 -12 78.5 -50.5t29.5 -87.5q0 -31 -10.5 -59t-30 -50.5t-46.5 -38t-60 -21.5v-2q104 -35 248 -195z" />
    <glyph glyph-name="n_dho_bn" horiz-adv-x="623" 
d="M633 552h-218l1 -153q43 20 70 20q4 0 17.5 -10.5t27.5 -26.5t25.5 -35t11.5 -36q0 -23 -3 -57.5t-3 -82.5q0 -134 15 -186v-24q-17 12 -32.5 25t-28 30t-20 40t-7.5 53v131q0 24 1.5 45.5t3.5 41.5q-16 -4 -35.5 -11.5t-42.5 -20.5l-1 -356l-35 30q-12 31 -33.5 57.5
t-49 46t-60 31t-65.5 11.5l-80 99q73 52 129.5 88.5t98.5 56.5q-62 86 -148 86v-3q35 -21 35 -61q0 -32 -23.5 -53.5t-58.5 -21.5q-45 0 -70.5 28t-25.5 77q0 48 32 76t87 28q30 0 55.5 -8t48.5 -25t45.5 -45.5t46.5 -68.5l6 3q-9 24 -9 43l-1 138h-350l-71 70h643zM351 59
q-10 41 -10 75v129q-26 -13 -59.5 -35t-75.5 -53q66 -7 143 -118z" />
    <glyph glyph-name="n_dh_ro_bn" horiz-adv-x="613" 
d="M623 552h-218v-144q46 24 67 24q5 0 19 -9.5t29 -25.5t26.5 -35.5t11.5 -39.5q0 -23 -3 -61.5t-3 -95.5q0 -132 15 -187v-24q-14 11 -29.5 24t-28.5 30t-21 40t-8 54l-1 149q0 22 1 44t4 44q-20 -5 -40 -13t-39 -20v-417l-34 36q-8 36 -26 47t-56 11q-5 0 -23 -2
t-39.5 -5t-42.5 -5t-32 -2q-60 0 -98.5 38t-38.5 107q0 55 29 102l21 -24q-13 -19 -13 -51q0 -81 94 -81q6 0 15.5 1t20.5 1h45q21 0 35.5 -2.5t28 -9.5t28.5 -20t36 -33l4 3q-32 129 -192 138l-79 97q60 43 116.5 77t111.5 61q-62 80 -148 80v-3q36 -20 36 -61
q0 -32 -22 -53t-57 -21q-46 0 -71 29.5t-25 71.5t29.5 72.5t81.5 30.5q116 0 197 -137l6 2q-9 27 -9 61v107h-344l-71 70h633zM343 89q-9 40 -9 74v115q-19 -9 -50.5 -30t-79.5 -51q73 -20 137 -110z" />
    <glyph glyph-name="n_no_bn" horiz-adv-x="508" 
d="M361 399v153h-371l-71 70h530l69 -70h-82v-619l-36 37q-7 50 -24 84t-40.5 54.5t-51.5 29.5t-57 9l-2 -2q6 -4 12.5 -12t11.5 -17.5t8 -19t3 -17.5q0 -29 -22 -50.5t-58 -21.5q-42 0 -68 29t-26 71q0 48 28.5 76t82.5 28q105 0 173 -101l6 1q-14 45 -14 86v50
q-17 43 -34 75.5t-37.5 54.5t-45 33t-56.5 11v-3q45 -23 45 -77q0 -40 -28 -64t-67 -24q-48 0 -79 32.5t-31 84.5q0 55 36 91.5t99 36.5q140 0 202 -192l5 1q-5 25 -7.5 48t-2.5 44z" />
    <glyph glyph-name="n_bo_bn" horiz-adv-x="508" 
d="M436 552v-655l-36 30q-5 25 -25.5 49.5t-51 44t-67 32t-72.5 12.5l-83 104q5 4 23.5 16.5t49.5 30t74 38.5t96 41q-54 126 -155 126v-3q45 -23 45 -77q0 -40 -28 -64t-67 -24q-48 0 -79 32.5t-31 84.5q0 55 36 91.5t99 36.5q140 0 202 -192l5 1q-5 25 -7.5 48t-2.5 44
v153h-371l-71 70h530l69 -70h-82zM373 15q-8 37 -8 90v95q-42 -17 -77.5 -34t-63.5 -36q84 -26 147 -117z" />
    <glyph glyph-name="n_mo_bn" horiz-adv-x="714" 
d="M345 337q-77 108 -169 108v-3q35 -21 35 -61q0 -15 -7 -29t-18 -24t-26 -16t-31 -6q-45 0 -72.5 28.5t-27.5 76.5q0 45 31.5 74.5t91.5 29.5t106 -33.5t90 -113.5l6 3q-9 24 -9 43l-1 138h-354l-70 70h734l70 -70h-82v-611l-33 34q-7 31 -20 59.5t-30 50.5t-36.5 35.5
t-40.5 15.5q-8 -31 -36 -52.5t-61 -21.5q-38 0 -65 25t-27 67q0 18 7.5 34.5t20 29t30 20t38.5 7.5q13 0 17 -4q-5 14 -20.5 37.5t-40.5 58.5zM566 189v363h-146v-206q63 -72 68 -132q48 -35 83 -107l6 2q-11 46 -11 80z" />
    <glyph glyph-name="n_ro_bn" horiz-adv-x="508" 
d="M361 552h-371l-71 70h530l69 -70h-82v-611l-38 38q-5 57 -75 57q-3 0 -26.5 -2.5t-50.5 -6t-50.5 -6t-27.5 -2.5q-35 0 -64 12t-50 34t-33 53t-12 70q0 41 17 84l27 -24q-8 -24 -8 -53q0 -35 31 -58.5t82 -23.5q4 0 16 0.5t25.5 0.5t26 0.5t17.5 0.5q85 0 142 -67h4
q-9 27 -9 47v59q0 2 0.5 9.5t1.5 19.5l-26 83q-55 157 -167 157v-3q45 -23 45 -77q0 -40 -28 -64t-67 -24q-48 0 -79 32.5t-31 84.5q0 55 36 91.5t99 36.5q140 0 202 -192l5 1q-10 47 -10 96v147z" />
    <glyph glyph-name="n_so_bn" horiz-adv-x="633" 
d="M643 552h-82v-552l-66 72l2 233q-18 49 -50 49q-27 0 -49 -33l-31 -56q-35 -63 -54 -90.5t-42 -27.5q-71 0 -138 94l17 42q22 -37 51 -37q26 0 62 68q-41 99 -97 99q-14 0 -21 -4q34 -19 34 -56q0 -26 -21 -44t-47 -18q-33 0 -57.5 24.5t-24.5 66.5q0 40 27 63.5t72 23.5
q52 0 93.5 -36.5t57.5 -99.5q6 9 18 30.5t12 49.5q0 29 -27 53t-81 27q-94 6 -94 59h-117l-71 70h653zM501 351q-2 14 -3 24.5t-1 18.5l-1 158h-212v-3q58 -22 58 -87q0 -26 -8 -53l2 -2q32 44 65 44q52 0 96 -101z" />
    <glyph glyph-name="p_tto_bn" horiz-adv-x="881" 
d="M891 552h-335v-382q0 -29 18 -29q14 0 31 9t33.5 22.5t31 29t23.5 29.5q14 20 21.5 38.5t8.5 34.5q-9 -3 -20 -3q-29 0 -49 21t-20 55t25 58t63 24q43 0 73.5 -32.5t30.5 -93.5q0 -45 -22.5 -93t-56 -88t-73.5 -65.5t-76 -25.5q-19 0 -39.5 17t-38 41t-29 50t-11.5 44
v193q-13 17 -25.5 32.5t-20.5 23.5q-24 -20 -52 -46t-56.5 -53.5t-54.5 -55t-45 -50.5q-4 4 -16 8l-96 34q34 31 50 58.5t16 48.5q0 15 -8.5 25.5t-24.5 10.5q-7 0 -15 -4t-16 -8.5t-16.5 -8.5t-16.5 -4q-24 0 -39 17t-15 40t16 51.5t44.5 53t66.5 41t82 16.5q34 0 66 -12
t61 -30.5t53.5 -42.5t44.5 -49l17 -22v85l-51 57h312q17 15 17 35q0 32 -57 32q-7 0 -28 -1t-46 -2.5t-48.5 -2.5t-34.5 -1q-187 0 -187 136q0 41 26 70l31 -17q-24 -20 -24 -42q0 -60 104 -60q6 0 26.5 1.5t43 3t40 3t18.5 1.5q167 0 181 -156h18zM383 513q-36 36 -85 36
q-60 0 -131 -74q33 0 55.5 -23t22.5 -55q0 -4 -0.5 -7t-1.5 -7l2 -2q22 26 56 59t82 73z" />
    <glyph glyph-name="p_to_bn" horiz-adv-x="716" 
d="M726 552h-90q-22 0 -32 10v-312q57 -44 57 -133q0 -36 -14 -67.5t-38 -54t-56 -35.5t-68 -13q-69 0 -134 37.5t-123 109.5t-108.5 176t-90.5 237l42 -26q39 -99 86 -176.5t99 -130.5t108 -81t114 -28q28 0 53 7.5t43.5 20t29.5 29t11 35.5q0 29 -24 46q-51 -73 -113 -73
q-35 0 -58.5 20.5t-23.5 57.5q0 34 27.5 61t76.5 27q5 0 12.5 -1.5t18.5 -3.5v83q0 48 -34 88q-42 -33 -87.5 -80t-97.5 -109l-124 32q68 63 68 109q0 36 -28 36q-4 0 -13 -3.5t-19.5 -8t-19.5 -8t-12 -3.5q-23 0 -38 19t-15 43q0 22 18 48t46.5 48t63.5 36.5t69 14.5
q146 0 241 -195l3 2q-21 72 -21 114l-2 178l39 -35q6 -78 58 -78h36zM422 527q-30 31 -75 31q-61 0 -122 -63q72 0 72 -88q66 72 125 120z" />
    <glyph glyph-name="p_t_ro_bn" horiz-adv-x="650" 
d="M595 -127l-38 37q-18 80 -114 80q-5 0 -25.5 -2.5t-44.5 -5t-45 -5t-26 -2.5q-85 0 -129.5 47t-44.5 138q0 65 31 117l28 -23q-20 -35 -20 -75q0 -49 34.5 -79t92.5 -30q4 0 17 0.5t28 0.5t28.5 0.5t16.5 0.5q23 0 41 -3.5t34.5 -12t32.5 -23t34 -35.5h4q-4 17 -5.5 34
t-1.5 33v253q0 21 -15 21t-36 -13t-40 -30.5t-32.5 -36t-13.5 -29.5q24 3 29 3q55 0 55 -54q0 -30 -25.5 -48.5t-65.5 -18.5q-48 0 -75 27t-27 69q0 33 16 63t40.5 53.5t55 38.5t59.5 18q-2 43 -33 81q-42 -33 -87.5 -80t-97.5 -109l-124 32q68 63 68 109q0 36 -28 36
q-4 0 -13 -3.5t-19.5 -8t-19.5 -8t-12 -3.5q-23 0 -38 19t-15 43q0 22 18 48t46 48t63 36.5t70 14.5q146 0 241 -195l3 2q-22 69 -22 114l-1 178l39 -35q6 -78 57 -78h51l66 -70h-106q-22 0 -32 10v-187l22 -9q51 -38 51 -103v-390zM340 527q-30 31 -76 31q-60 0 -121 -63
q72 0 72 -88q66 72 125 120z" />
    <glyph glyph-name="p_no_bn" horiz-adv-x="644" 
d="M572 -56l-37 38q-8 85 -54.5 131t-117.5 46l-3 -2q14 -8 25 -29t11 -38q0 -28 -22.5 -50t-57.5 -22q-42 0 -68 29.5t-26 71.5q0 48 28.5 76t82.5 28q105 0 173 -102l5 1q-13 40 -13 86v174q-14 20 -30 40t-34 40q-16 -14 -43.5 -39t-57.5 -54t-59 -59t-48 -53
q-5 5 -112 42q66 60 66 107q0 15 -8.5 25.5t-24.5 10.5q-3 0 -12 -4t-19 -8.5t-19.5 -8.5t-13.5 -4q-24 0 -39 17t-15 40t16 51.5t44.5 53t66.5 41t82 16.5q71 0 136 -47t134 -149l4 9q-7 0 -10.5 73.5t-3.5 212.5l38 -35q6 -78 58 -78l69 -70h-59q-22 0 -32 10v-618z
M245 381q49 58 138 132q-36 36 -85 36q-60 0 -131 -74q33 0 55.5 -23t22.5 -55q0 -4 -2 -14z" />
    <glyph glyph-name="p_po_bn" horiz-adv-x="623" 
d="M633 552h-49q-23 0 -33 10v-618l-36 38q-12 124 -73 194q-39 -29 -85 -69t-98 -94l-103 37q59 50 59 81q0 34 -26 34q-2 0 -11 -3.5t-19.5 -7.5t-20.5 -7.5t-14 -3.5q-19 0 -33 16.5t-14 38.5q0 46 86 108l-48 25q60 55 60 86q0 34 -34 34q-6 0 -14 -3.5t-16.5 -7.5
t-16.5 -7.5t-13 -3.5q-22 0 -37 15t-15 42q0 24 20 50t50.5 48.5t67 37t70.5 14.5q35 0 66 -10.5t61 -35t61.5 -66.5t67.5 -105l4 5q-20 51 -20 144v167l39 -35q6 -78 47 -78zM355 520q-37 37 -85 37q-56 0 -121 -59q66 0 66 -92q32 33 67 61.5t73 52.5zM498 155
q-21 66 -21 111v91q0 41 -52 99q-89 -71 -141 -117q28 0 58 -14t57.5 -39t51.5 -58.5t41 -73.5zM373 242q-26 29 -73 29q-57 0 -109 -58q59 0 59 -78q33 33 64 60.5t59 46.5z" />
    <glyph glyph-name="p_ro_bn" horiz-adv-x="630" 
d="M383 513q-36 36 -85 36q-60 0 -131 -74q33 0 55.5 -23t22.5 -55q0 -4 -0.5 -7t-1.5 -7l2 -2q22 26 56 59t82 73zM484 379v10t1 10l-19 25q-10 13 -18.5 22.5t-13.5 15.5q-24 -20 -52 -46t-56.5 -53.5t-54.5 -55t-45 -50.5q-4 4 -16 8l-96 34q34 31 50 58.5t16 48.5
q0 15 -8.5 25.5t-24.5 10.5q-7 0 -15 -4t-16 -8.5t-16.5 -8.5t-16.5 -4q-24 0 -39 17t-15 40t16 51.5t44.5 53t66.5 41t82 16.5q45 0 83.5 -18t71.5 -45.5t60 -60t48 -62.5l3 3q-20 48 -20 143v139l39 -35q4 -78 57 -78l70 -70h-60q-22 0 -32 10v-601l-38 36q-20 81 -97 81
q-23 0 -54 -2.5t-63 -5t-59.5 -5t-42.5 -2.5q-174 0 -174 185q0 59 31 117l27 -24q-19 -28 -19 -75q0 -49 34 -79t94 -30q27 0 64 2.5t73 2.5q32 0 53.5 -4t38.5 -13t31.5 -23.5t31.5 -35.5h4q-5 19 -7 36t-2 31v226z" />
    <glyph glyph-name="p_ro_alt_bn" horiz-adv-x="630" 
d="M558 -107l-38 35q-6 28 -14 47.5t-21.5 31.5t-34.5 17t-52 5q-9 0 -30 -3l-125 -9q-91 -7 -151 -10t-89 -3q-50 0 -90.5 13.5t-69 38.5t-44 60t-15.5 79q0 38 15 73l22 -28q-4 -13 -4 -33q0 -102 152 -102l20 1q72 5 156.5 8t183.5 3q28 0 49.5 -3.5t39.5 -12t34 -23
t34 -37.5h5q-3 12 -4.5 16.5t-2 20t-0.5 50.5v107v118.5t1 45.5q-14 19 -23 30.5t-14 16.5l-14 16q-16 -14 -43.5 -39t-57.5 -54t-59 -59t-48 -53q-5 5 -112 42q66 60 66 107q0 15 -8.5 25.5t-24.5 10.5q-3 0 -12 -4t-19 -8.5t-19.5 -8.5t-13.5 -4q-24 0 -39 17t-15 40
t16 51.5t44.5 53t66.5 41t82 16.5q132 0 263 -186l3 3q-20 48 -20 143v139l39 -35q4 -78 57 -78l70 -70h-60q-22 0 -32 10v-669zM245 381q49 58 138 132q-36 36 -85 36q-60 0 -131 -74q33 0 55.5 -23t22.5 -55q0 -4 -2 -14z" />
    <glyph glyph-name="p_lo_bn" horiz-adv-x="633" 
d="M651 552h-56q-24 0 -34 10v-612l-35 29q-6 33 -15.5 63t-21 53t-24.5 36.5t-25 13.5q-29 0 -29 -41q0 -15 9 -39l-34 15q-35 71 -98 71q-18 0 -35 -6.5t-30 -17t-20.5 -25.5t-7.5 -31q0 -53 41 -53q10 0 18 5q-19 10 -19 34q0 49 48 49q55 0 55 -61q0 -62 -77 -62
q-66 0 -100.5 35t-34.5 92q0 55 33 89t88 34q9 0 24.5 -7t30.5 -16t27 -18.5t15 -15.5h5q3 24 20.5 40t35.5 16q42 0 93 -95l5 4q-13 42 -13 85v123q0 18 3 38q-6 10 -15 21.5t-17.5 21.5t-15.5 18.5t-11 13.5q-24 -20 -52 -46t-56.5 -53.5t-54.5 -55t-45 -50.5q-4 4 -16 8
l-96 34q34 31 50 58.5t16 48.5q0 15 -8.5 25.5t-24.5 10.5q-7 0 -15 -4t-16 -8.5t-16.5 -8.5t-16.5 -4q-24 0 -39 17t-15 40t16 51.5t44.5 53t66.5 41t82 16.5q45 0 85 -19t74.5 -48t62 -63t47.5 -64q0 8 1 9q-4 7 -7.5 26.5t-6.5 42.5t-5 45t-2 33l1 139l39 -37
q6 -78 59 -78zM383 513q-36 36 -85 36q-60 0 -131 -74q33 0 55.5 -23t22.5 -55q0 -4 -0.5 -7t-1.5 -7l2 -2q22 26 56 59t82 73z" />
    <glyph glyph-name="p_so_bn" horiz-adv-x="782" 
d="M797 552h-87v-559l-66 72l1 244q-17 48 -53 48q-14 0 -28 -16t-27.5 -40t-27.5 -51.5t-29 -51.5t-31 -40t-33 -16q-58 0 -124 82l13 41q26 -32 45 -32q17 0 33 24l21 34q-16 35 -41 60q-40 -33 -80 -73t-80 -91l-100 34q60 58 60 78q0 34 -27 34q-3 0 -10.5 -3t-16 -7
t-17 -7t-14.5 -3q-49 0 -49 50q0 21 17 44.5t43.5 42.5t59 31.5t64.5 12.5q110 0 208 -173q12 20 25 37.5t13 49.5q0 34 -29 58t-77 28q-97 7 -97 58h-266l-69 70h806zM650 355q-3 13 -4 24t-1 19v154h-215v-2q59 -20 59 -88q0 -25 -6 -53l2 -2q41 47 68 47q50 0 92 -101z
M300 408q-21 21 -61 21q-50 0 -103 -56q25 0 42.5 -19.5t17.5 -51.5h2q19 28 44.5 54.5t57.5 51.5z" />
    <glyph glyph-name="ph_tto_bn" horiz-adv-x="742" 
d="M417 424v-368q0 -25 18 -25q65 15 102.5 43.5t46.5 50.5q-7 -4 -20 -4q-29 0 -49 18.5t-20 46.5q0 30 25 50.5t63 20.5q43 0 73.5 -28.5t30.5 -79.5q0 -41 -23 -75t-57.5 -59t-74 -39t-73.5 -14q-19 0 -39.5 14.5t-38 35t-29 43t-11.5 38.5v20l-12 14q-81 82 -208 82
l-92 109q30 27 69 61t88 74q-22 40 -103 42q-87 1 -93 62l-66 65h674q17 15 17 35q0 32 -58 32q-6 0 -27.5 -1t-46.5 -2.5t-48.5 -2.5t-33.5 -1q-188 0 -188 136q0 41 27 70l31 -17q-24 -20 -24 -42q0 -60 104 -60q6 0 26 1.5t42.5 3t40.5 3t19 1.5q166 0 180 -156h22
l71 -70h-604q52 -46 88.5 -86.5t60.5 -75.5l-121 -104q21 -5 43.5 -17.5t44 -30.5t41.5 -40t36 -46v360q22 2 40 4t30 2q195 0 195 -151q0 -45 -25 -71t-60 -26q-30 0 -49.5 16.5t-19.5 40.5q0 22 15.5 37t40.5 15q31 0 47 -22q16 9 16 25q0 48 -104 48q-6 0 -18.5 -2
t-31.5 -4z" />
    <glyph glyph-name="ph_ro_bn" horiz-adv-x="661" 
d="M417 -56l-38 38q-6 57 -75 57q-5 0 -27.5 -2.5t-49.5 -6t-50.5 -6t-28.5 -2.5q-34 0 -63 12t-50.5 33.5t-33.5 53t-12 70.5q0 42 18 83l27 -24q-8 -22 -8 -52q0 -36 31 -59.5t82 -23.5q4 0 16 0.5t25.5 1t26 1t17.5 0.5q84 0 141 -68h5q-5 9 -6.5 18.5t-2.5 18.5
q-39 63 -101.5 92.5t-138.5 29.5l-92 109q30 27 69 61t88 74q-22 40 -103 42q-87 1 -93 62l-66 65h677l70 -70h-523q52 -46 88.5 -86.5t60.5 -75.5l-121 -104q21 -5 44 -17.5t45.5 -31t42.5 -41t36 -47.5l4 1q-4 32 -5.5 52.5t-1.5 31.5v277q20 4 38 5.5t32 1.5
q195 0 195 -177q0 -54 -25 -84.5t-60 -30.5q-30 0 -49.5 19.5t-19.5 48.5q0 25 15.5 43t40.5 18q30 0 47 -27q16 10 16 30q0 56 -104 56q-6 0 -18.5 -2t-31.5 -4v-464z" />
    <glyph glyph-name="ph_lo_bn" horiz-adv-x="661" 
d="M417 -98l-33 36q-8 51 -29 84t-41 33q-27 0 -27 -36q0 -17 4 -32l-33 16q-19 61 -90 61q-39 0 -65.5 -20t-26.5 -49q0 -20 13.5 -35.5t25.5 -15.5q7 0 16 6q-14 11 -14 31q0 17 13 29.5t32 12.5q45 0 45 -48q0 -58 -78 -58q-54 0 -86 29.5t-32 80.5q0 54 32 88t87 34
q63 0 91 -55h4q16 36 48 36q33 0 94 -82l4 5q-1 4 -3 25q-86 131 -247 131l-92 109q30 27 69 61t88 74q-22 40 -103 42q-87 1 -93 62l-66 65h677l70 -70h-523q52 -46 88.5 -86.5t60.5 -75.5l-121 -104q21 -5 44 -17.5t45.5 -31t42.5 -41t36 -47.5l4 1q-4 32 -5.5 52.5
t-1.5 31.5v277q20 4 38 5.5t32 1.5q195 0 195 -177q0 -54 -25 -84.5t-60 -30.5q-30 0 -49.5 19.5t-19.5 48.5q0 25 15.5 43t40.5 18q30 0 47 -27q16 10 16 30q0 56 -104 56q-6 0 -18.5 -2t-31.5 -4v-506z" />
    <glyph glyph-name="b_jo_bn" horiz-adv-x="839" 
d="M849 552h-420v-15q7 -15 22 -29t35 -25.5t43 -18t46 -6.5q67 0 129 31q24 -16 51 -45.5t58 -72.5q-43 -37 -67.5 -103t-24.5 -139t27 -194l-46 36q-40 148 -40 244q0 113 42 172l-2 3q-14 -7 -57 -7q-134 0 -214 107h-2v-173q0 -31 20 -31q33 0 100 73q80 -53 80 -177
q0 -41 -12.5 -75t-36 -59t-56.5 -39t-74 -14q-66 0 -128 33.5t-117 96.5t-100 152t-76 200l44 -23q27 -76 67.5 -138.5t88.5 -107.5t100 -70t102 -25q27 0 55 9.5t51.5 24t38 32.5t14.5 35q0 15 -14 32q-80 -62 -137 -62q-18 0 -29 5.5t-19 16.5q-30 43 -75 70t-90 27
l-97 103q137 99 229 125v21h-368l-64 70h852zM368 271q-10 31 -10 65v96q-69 -29 -117 -63q14 -4 31.5 -14t35 -24t33 -30t25.5 -32z" />
    <glyph glyph-name="b_do_bn" horiz-adv-x="695" 
d="M705 552h-333v-162q0 -13 -2 -29t-4 -35l2 -3q55 102 181 173q64 -32 120 -88q-48 -39 -75 -106.5t-27 -142.5t26 -177l-45 37q-45 133 -45 222q0 67 25 116l-2 2q-67 -57 -98 -115.5t-31 -122.5q-36 16 -106 92q-68 72 -178 72l-84 109q151 112 267 135v23h-306l-65 70
h709zM308 239q-12 37 -12 99v88q-76 -23 -139 -74q88 -34 147 -118z" />
    <glyph glyph-name="b_dho_bn" horiz-adv-x="629" 
d="M639 552h-217v-183q43 22 70 22q3 0 16.5 -9.5t28 -25t26 -35t11.5 -39.5q0 -23 -2 -57.5t-2 -85.5q0 -130 14 -186v-24q-19 15 -35 29t-27.5 30.5t-18 38t-6.5 51.5v130q0 58 3 90q-33 -8 -78 -33v-358l-38 29q-12 30 -33.5 56.5t-50 46t-62 31t-68.5 11.5l-85 108
l102 65v2q-7 1 -14.5 1h-17.5h-46l-80 104q64 41 111 69t83 46t65 27.5t59 14.5v34h-357l-70 70h649zM357 34q-10 47 -10 78v127q-35 -16 -73 -39t-80 -53q88 -7 161 -115zM347 343v73q-94 -31 -190 -97q40 -9 69 -41q23 12 52.5 28.5t68.5 36.5z" />
    <glyph glyph-name="b_ro_bn" horiz-adv-x="479" 
d="M407 -62l-38 38q-6 57 -75 57q-5 0 -23 -2.5t-38 -6t-38.5 -6t-24.5 -2.5q-34 0 -63 12t-50.5 33.5t-33.5 53t-12 70.5q0 42 18 84l27 -24q-8 -24 -8 -53q0 -35 31 -58.5t82 -23.5q10 0 25 1t28 1q84 0 141 -67h5q-5 10 -6.5 20t-2.5 20q-20 33 -44.5 61.5t-54.5 49
t-64.5 32.5t-73.5 12l-85 107q216 159 305 168v37h-344l-66 70h492l73 -70h-82v-614zM336 161q-1 20 -1.5 33t-0.5 20v188q-27 -5 -68 -27.5t-98 -60.5q25 -5 45.5 -15.5t39.5 -29t38.5 -45.5t42.5 -65z" />
    <glyph glyph-name="b_lo_bn" horiz-adv-x="479" 
d="M407 -98l-33 36q-8 51 -29 84t-41 33q-27 0 -27 -36q0 -17 4 -32l-33 16q-19 61 -90 61q-39 0 -65.5 -20t-26.5 -49q0 -20 13.5 -35.5t25.5 -15.5q7 0 16 6q-14 11 -14 31q0 17 13 29.5t32 12.5q45 0 45 -48q0 -58 -78 -58q-54 0 -86 29.5t-32 80.5q0 54 32 88t87 34
q63 0 91 -55h4q16 36 48 36q33 0 94 -82l4 5q-1 2 -1 6t-1 10q-17 34 -41.5 65t-56 54.5t-68.5 37.5t-79 14l-85 107q216 159 305 168v37h-344l-66 70h492l73 -70h-82v-650zM336 161q-1 20 -1.5 33t-0.5 20v188q-27 -5 -68 -27.5t-98 -60.5q25 -5 45.5 -15.5t39.5 -29
t38.5 -45.5t42.5 -65z" />
    <glyph glyph-name="bh_ro_bn" horiz-adv-x="563" 
d="M491 -10l-39 35q-6 27 -14.5 45.5t-21 30t-30.5 16t-43 4.5q-4 0 -24 -2.5t-43.5 -5t-44.5 -5t-27 -2.5q-175 0 -175 185q0 64 26 111l27 -24q-13 -22 -13 -68q0 -49 34.5 -79.5t92.5 -30.5q3 0 16.5 0.5t29 1t29 1t16.5 0.5q26 0 44 -2.5t32.5 -10.5t28 -22.5
t30.5 -38.5h4q-4 20 -6 37t-2 31v168v11t1 10l-2 3q-68 -95 -171 -95q-66 0 -99 33t-33 84q0 43 24 67t61 24q31 0 53.5 -18.5t22.5 -48.5q0 -34 -28 -58l2 -4q73 11 132 137q34 -19 55.5 -34.5t33.5 -31t16.5 -33.5t4.5 -42v-379zM567 552h-577l-65 70h573z" />
    <glyph glyph-name="bh_r_ukar_bn" horiz-adv-x="796" 
d="M491 250v-260l-39 35q-6 27 -14.5 45.5t-21 30t-30.5 16t-43 4.5q-4 0 -24 -2.5t-43.5 -5t-44.5 -5t-27 -2.5q-175 0 -175 185q0 64 26 111l27 -24q-13 -22 -13 -68q0 -49 34.5 -79.5t92.5 -30.5q3 0 16.5 0.5t29 1t29 1t16.5 0.5q26 0 44 -2.5t32.5 -10.5t28 -22.5
t30.5 -38.5h4q-4 20 -6 37t-2 31v168v11t1 10l-2 3q-68 -95 -171 -95q-66 0 -99 33t-33 84q0 43 24 67t61 24q31 0 53.5 -18.5t22.5 -48.5q0 -34 -28 -58l2 -4q73 11 132 137q34 -19 55.5 -34.5t33.5 -31t16.5 -33.5t4.5 -42v-67q59 -68 113 -68q18 0 34.5 7t29 19t20 27
t7.5 31q0 63 -63 63q18 -20 18 -40q0 -46 -50 -46q-65 0 -65 68q0 31 22.5 50t52.5 19q27 0 51.5 -12.5t43.5 -34.5t30 -50.5t11 -60.5q0 -27 -8.5 -50.5t-23.5 -40.5t-36.5 -27t-46.5 -10q-11 0 -28 8.5t-36.5 23t-39 33t-36.5 39.5zM-10 552l-65 70h810l71 -70h-816z" />
    <glyph glyph-name="bh_r_ookar_bn" horiz-adv-x="706" 
d="M491 336v-346l-39 35q-6 27 -14.5 45.5t-21 30t-30.5 16t-43 4.5q-4 0 -24 -2.5t-43.5 -5t-44.5 -5t-27 -2.5q-175 0 -175 185q0 64 26 111l27 -24q-13 -22 -13 -68q0 -49 34.5 -79.5t92.5 -30.5q3 0 16.5 0.5t29 1t29 1t16.5 0.5q26 0 44 -2.5t32.5 -10.5t28 -22.5
t30.5 -38.5h4q-4 20 -6 37t-2 31v168v11t1 10l-2 3q-68 -95 -171 -95q-66 0 -99 33t-33 84q0 43 24 67t61 24q31 0 53.5 -18.5t22.5 -48.5q0 -34 -28 -58l2 -4q73 11 132 137q40 -23 64.5 -41t32.5 -37l33 14q22 9 40.5 16.5t22.5 7.5q5 0 18.5 -10.5t27.5 -27t25 -36
t11 -36.5t-2.5 -49.5t-2.5 -80.5q0 -67 3.5 -113.5t10.5 -74.5v-23q-10 7 -25 18.5t-28.5 29.5t-23.5 42.5t-10 57.5v120q0 29 1 51.5t3 38.5q-11 -4 -33 -12.5t-58 -28.5zM-10 552l-65 70h732l64 -70h-731z" />
    <glyph glyph-name="bh_lo_bn" horiz-adv-x="652" 
d="M496 -143q-9 58 -31.5 87.5t-38.5 29.5q-11 0 -19 -10t-8 -26q0 -12 5 -32l-34 16q-9 28 -33 44.5t-57 16.5q-40 0 -65.5 -20t-25.5 -49q0 -21 13 -36t26 -15q8 0 16 6q-6 4 -10 13t-4 17q0 16 12.5 29.5t31.5 13.5q18 0 31.5 -12.5t13.5 -35.5q0 -27 -19.5 -43
t-58.5 -16q-30 0 -52 10t-36.5 25.5t-21.5 35.5t-7 40q0 52 30.5 86.5t87.5 34.5q30 0 54.5 -14.5t37.5 -39.5h3q7 16 19 26t29 10q7 0 15 -3t18.5 -11.5t25 -24.5t35.5 -43l5 4q-3 10 -7 34.5t-6 47.5l-3 30q-35 -13 -85 -13q-242 0 -354 457l37 -25q30 -83 62.5 -142.5
t69.5 -98t79 -56.5t92 -18q33 0 66 13t58.5 33.5t41.5 46t16 51.5q0 24 -19 43q-86 -96 -190 -96q-66 0 -100.5 34t-34.5 86q0 43 27 72t67 29q35 0 56 -22t21 -54q0 -31 -29 -57l1 -6q73 21 126 134q121 -64 121 -209q0 -96 -60 -156l-8 -8v-300zM662 552h-672l-65 70h667z
" />
    <glyph glyph-name="m_no_bn" horiz-adv-x="530" 
d="M477 445q0 -62 -19 -93l1 -373l-36 38q-7 51 -26 88t-43 61t-50.5 35.5t-48.5 11.5l-2 -3q13 -9 24 -30t11 -37q0 -29 -22.5 -50t-57.5 -21q-21 0 -38 8t-30 21.5t-20 32t-7 39.5q0 51 30 76.5t81 25.5q94 0 167 -109l4 1q-9 31 -9 76v66q-5 -2 -11 -2.5t-10 -0.5
q-83 0 -118 68q-32 63 -55 71q3 -17 3 -30q0 -38 -21.5 -61t-58.5 -23q-34 0 -60 26.5t-26 68.5q0 38 29.5 61.5t84.5 23.5q-9 38 -66 41h-87l-69 70h551l68 -70h-95q32 -53 32 -107zM417 487q0 26 -19 44.5t-45 20.5h-179q13 -25 13 -53q13 -13 30 -27.5t36.5 -26.5t41 -20
t43.5 -8q33 0 56 19.5t23 50.5z" />
    <glyph glyph-name="m_pho_bn" horiz-adv-x="973" 
d="M477 445q0 -39 -8 -69l34 -24q34 -24 58 -43.5t38 -36.5l-110 -97q16 -1 38.5 -11.5t46.5 -26t47.5 -35.5t40.5 -39l6 1q-15 43 -15 95v348q21 3 38.5 4t29.5 1q94 0 145.5 -47t51.5 -135q0 -52 -24.5 -83t-60.5 -31q-29 0 -49 19.5t-20 47.5q0 26 16 43.5t41 17.5
q30 0 47 -26q16 10 16 29q0 26 -27 43.5t-79 17.5q-22 0 -50 -6v-473l-30 31q-54 145 -264 145l-92 92q25 22 60 54t83 72q-5 5 -12.5 10.5t-18.5 11.5q-8 -11 -20.5 -18.5t-25.5 -12t-25 -6.5t-18 -2q-83 0 -118 68q-32 63 -55 71q3 -17 3 -30q0 -38 -21.5 -61t-58.5 -23
q-34 0 -60 26.5t-26 68.5q0 38 29.5 61.5t84.5 23.5q-9 41 -76 41h-77l-69 70h995l67 -70h-538q32 -53 32 -107zM417 487q0 27 -19.5 46t-50.5 19h-173q13 -25 13 -53q13 -13 30 -27.5t36.5 -26.5t41 -20t43.5 -8q33 0 56 19.5t23 50.5z" />
    <glyph glyph-name="m_bo_bn" horiz-adv-x="520" 
d="M448 -74l-38 33q-5 25 -26 50t-51 45t-66 32t-72 12l-82 104q23 20 74 47.5t130 63.5q-25 8 -44 28t-34 41.5t-26.5 40t-20.5 22.5q3 -17 3 -30q0 -38 -21.5 -61t-58.5 -23q-34 0 -60 26.5t-26 68.5q0 38 29.5 61.5t84.5 23.5q-9 38 -66 41h-87l-69 70h541l68 -70h-85
q32 -53 32 -107q0 -76 -29 -108v-411zM417 487q0 26 -19 44.5t-45 20.5h-179q13 -25 13 -53q13 -13 30 -27.5t36.5 -26.5t41 -20t43.5 -8q33 0 56 19.5t23 50.5zM384 47q-5 24 -6.5 43t-1.5 32v118q-40 -18 -75.5 -37t-66.5 -41q85 -24 148 -117z" />
    <glyph glyph-name="m_b_ro_bn" horiz-adv-x="520" 
d="M338 417q33 0 56 19.5t23 50.5q0 26 -19 44.5t-45 20.5h-179q13 -25 13 -53q82 -82 151 -82zM382 45l2 2q-2 11 -3.5 17.5t-2.5 13t-1 16.5t-0.5 27.5t-0.5 46v72.5q-87 -38 -142 -78q85 -24 148 -117zM448 -149l-37 38q-6 57 -76 57q-35 -6 -67.5 -11t-52.5 -5
q-33 0 -61.5 12t-48.5 34.5t-31.5 53t-11.5 68.5q0 39 17 84l28 -24q-8 -24 -8 -53q0 -37 30.5 -59t75.5 -22h20t16 1h14q85 0 142 -67h5q-4 11 -6.5 21t-3.5 20l-8 10q-15 19 -36 35t-46 28t-52.5 19t-54.5 7l-82 104q43 37 204 111q-25 8 -44 28t-34 41.5t-26.5 40
t-20.5 22.5q3 -17 3 -30q0 -38 -21.5 -61t-58.5 -23q-34 0 -60 26.5t-26 68.5q0 38 29.5 61.5t84.5 23.5q-9 38 -66 41h-87l-69 70h541l68 -70h-85q32 -53 32 -107q0 -76 -29 -108v-486z" />
    <glyph glyph-name="m_bho_bn" horiz-adv-x="640" 
d="M650 552h-120q34 -58 34 -102q0 -73 -64 -106q18 -17 34 -38.5t27 -45.5t17.5 -48.5t6.5 -46.5q0 -44 -16 -81t-43 -64t-63.5 -42t-77.5 -15q-137 0 -227 130t-129 386l39 -25q100 -375 304 -375q28 0 58 11t54 28.5t39.5 39.5t15.5 45t-16 39q-78 -95 -166 -95
q-55 0 -87.5 29.5t-32.5 74.5q0 36 24 60.5t61 24.5q25 0 42.5 -19.5t17.5 -41.5q0 -30 -28 -48v-2q29 0 60.5 32.5t53.5 80.5q-42 0 -70.5 18t-50.5 55q-14 23 -27.5 37t-24.5 19q5 -17 5 -38q0 -14 -7 -27t-17.5 -23.5t-24 -17t-26.5 -6.5q-36 0 -59 25t-23 60
q0 34 29 56.5t77 22.5q-8 33 -74 33h-185l-70 70h665zM501 498q0 22 -17.5 38t-45.5 16h-157q2 -4 6 -16l7 -24q13 -7 28.5 -19t33 -23t38 -19.5t43.5 -8.5q26 0 45 17.5t19 38.5z" />
    <glyph glyph-name="m_bh_ro_bn" horiz-adv-x="522" 
d="M532 552h-116q29 -50 29 -99q0 -83 -59 -104l-4 -7q8 -7 19.5 -18t22.5 -25t18.5 -30.5t7.5 -34.5v-347l-36 33q-24 78 -101 78q-5 0 -24 -2t-43 -4.5t-47.5 -4.5t-35.5 -2q-134 0 -134 178q0 70 31 122l23 -26q-15 -21 -15 -66q0 -114 103 -114q5 0 16 0.5t23 0.5
t22.5 0.5t15.5 0.5q20 0 36 -3.5t32 -12t33 -24t40 -39.5l3 5q-14 37 -14 71v137q-62 -68 -135 -68q-54 0 -86.5 28t-32.5 76q0 15 7 30t18 27t26 20t30 8q25 0 43 -18.5t18 -40.5q0 -34 -32 -51v-2q15 0 32.5 8.5t34 24t31 37t23.5 48.5q-6 -1 -11 -2t-10 -1q-58 0 -115 95
q-20 32 -43 41q2 -11 3.5 -19.5t1.5 -14.5q0 -38 -20.5 -60t-52.5 -22q-34 0 -56.5 23.5t-22.5 58.5q0 32 26 54.5t78 22.5q-9 34 -49 34h-94l-71 70h544zM386 496q0 25 -15.5 40.5t-39.5 15.5h-165q4 -9 4 -16v-8q0 -3 1.5 -6t7.5 -8.5t17.5 -13.5t31.5 -22q49 -36 90 -36
q28 0 48 16t20 38z" />
    <glyph glyph-name="m_mo_bn" horiz-adv-x="735" 
d="M745 552h-82v-584l-33 34q-7 31 -20 59.5t-30 50.5t-36.5 35.5t-40.5 15.5q-8 -30 -36 -52t-61 -22q-38 0 -65 26t-27 67q0 18 7.5 34t20 28.5t30 20t38.5 7.5q11 0 17 -3q5 5 5 12q0 22 -21 36q-30 -11 -46 -11q-83 0 -118 68q-32 63 -55 71q3 -17 3 -30
q0 -38 -21.5 -61t-58.5 -23q-34 0 -60 26.5t-26 68.5q0 38 29.5 61.5t84.5 23.5q-9 41 -76 41h-77l-69 70h753zM477 445q0 -86 -36 -114q63 -30 68 -90q25 -17 45.5 -44t37.5 -62l6 1q-10 39 -10 80v336h-143q32 -53 32 -107zM417 487q0 27 -19.5 46t-50.5 19h-173
q13 -25 13 -53q13 -13 30 -27.5t36.5 -26.5t41 -20t43.5 -8q33 0 56 19.5t23 50.5z" />
    <glyph glyph-name="m_ro_bn" horiz-adv-x="539" 
d="M464 -9l-40 42q-14 58 -35.5 79.5t-60.5 21.5q-4 0 -27 -3t-50.5 -6.5t-51 -6.5t-28.5 -3q-36 0 -65.5 13t-50 35.5t-32 54t-11.5 68.5q0 41 15 88l27 -24q-6 -32 -6 -45q0 -42 32 -65t83 -23q3 0 17 1t31 2t32 2t19 1q21 0 33.5 -1t24.5 -7.5t28 -21.5t45 -43l5 4
q-4 24 -5.5 39t-1.5 22v91q-76 1 -111 68q-32 63 -55 71q3 -17 3 -30q0 -38 -21.5 -61t-58.5 -23q-34 0 -60 26.5t-26 68.5q0 38 29.5 61.5t84.5 23.5q-9 41 -76 41h-110l-70 70h557l69 -70h-68q32 -53 32 -107q0 -91 -42 -118l-5 -4zM450 487q0 26 -19 44.5t-45 20.5h-179
q13 -25 13 -53q13 -13 30 -27.5t36.5 -26.5t41 -20t43.5 -8q33 0 56 19.5t23 50.5z" />
    <glyph glyph-name="m_lo_bn" horiz-adv-x="522" 
d="M450 -24l-35 32q-6 34 -15.5 64t-21.5 52.5t-24.5 36t-24.5 13.5q-33 0 -33 -41q0 -13 9 -38l-33 14q-33 70 -97 70q-42 0 -68.5 -24.5t-26.5 -55.5q0 -52 41 -52q10 0 18 6q-19 9 -19 33q0 49 49 49q54 0 54 -62t-76 -62q-66 0 -101 35t-35 92q0 60 35 93.5t93 33.5
q50 0 91 -60h5q3 24 20.5 40t34.5 16q43 0 93 -95l6 4q-11 35 -11 73v64q-2 -1 -13 -1q-83 0 -118 68q-32 63 -55 71q3 -17 3 -30q0 -38 -21.5 -61t-58.5 -23q-34 0 -60 26.5t-26 68.5q0 38 29.5 61.5t84.5 23.5q-9 41 -76 41h-77l-69 70h541l70 -70h-87q32 -53 32 -107
q0 -72 -27 -106v-363zM417 487q0 27 -19.5 46t-50.5 19h-173q13 -25 13 -53q13 -13 30 -27.5t36.5 -26.5t41 -20t43.5 -8q33 0 56 19.5t23 50.5z" />
    <glyph glyph-name="z_ro_bn" horiz-adv-x="487" 
d="M415 -50l-38 37q-4 58 -75 58q-3 0 -26.5 -3t-50.5 -6t-50.5 -6t-27.5 -3q-32 0 -58.5 12.5t-46.5 35t-31 53.5t-11 69q0 40 17 83l27 -24q-8 -24 -8 -53q0 -18 8.5 -33t22.5 -26t32 -17t38 -6q4 0 16 0.5t25.5 0.5t26 0.5t17.5 0.5q85 0 142 -67h4q-3 9 -5.5 17.5
t-3.5 17.5q-19 30 -45.5 53.5t-58 39.5t-66.5 24.5t-71 8.5l-89 109q24 23 61 56t91 76q-40 37 -88 37q-97 0 -103 57l-68 70h506l69 -70h-82v-602zM352 145q-5 33 -8.5 58.5t-3.5 42.5v306h-196q97 -93 145 -159q-42 -31 -72 -57t-50 -46q15 0 36 -10t45.5 -29t50.5 -46.5
t51 -61.5z" />
    <glyph glyph-name="l_ko_bn" horiz-adv-x="725" 
d="M670 142q0 -45 -21.5 -72t-55.5 -27q-57 0 -57 59q0 20 14 36t37 16q37 0 49 -34h3q0 7 1 8v8q0 16 -9.5 32t-27 28t-42 19.5t-54.5 7.5v-324l-38 35q-68 140 -225 140l-83 100q75 57 148.5 92.5t125.5 47.5v36q-29 69 -60 69q-43 0 -43 -45q0 -12 4 -27l-33 16
q-27 64 -102 64q-21 0 -38.5 -7t-31 -18.5t-21 -27t-7.5 -31.5q0 -58 62 -58q-18 16 -18 40q0 21 16 35.5t39 14.5q57 0 57 -64q0 -28 -27 -48t-67 -20q-29 0 -53.5 10.5t-43 29t-29 43.5t-10.5 55q0 28 11.5 52.5t30.5 43.5t43 30t50 11q64 0 103 -67h6q13 61 62 61
q46 0 104 -109l5 3q-9 34 -9 58v88h-445l-70 70h744l71 -70h-228v-232q36 -2 65.5 -17t51.5 -39t34 -55.5t12 -66.5zM447 19q-12 34 -12 62l-1 135q-64 -16 -149 -74q78 -12 159 -125z" />
    <glyph glyph-name="l_go_bn" horiz-adv-x="590" 
d="M607 552h-89v-643l-47 38q-20 66 -40.5 112.5t-44.5 76t-52 43t-62 13.5q-39 0 -60.5 -16.5t-23.5 -39.5q39 9 58 9q39 0 60 -21t21 -53q0 -64 -65 -117l-103 32q122 75 122 105q0 15 -22 15q-9 0 -27 -8t-36.5 -17.5t-34 -17.5t-18.5 -8q-44 0 -44 66q0 81 66 122
q-30 0 -55 10.5t-43 29t-28 43.5t-10 55q0 28 11 52.5t30 43.5t43.5 30t50.5 11q64 0 103 -67h5q13 61 62 61q53 0 115 -120l6 2q-9 34 -9 70v88h-456l-69 70h615zM446 77q-1 33 -1 61.5v52.5v81q0 65 1 66q-35 81 -72 81q-42 0 -42 -45q0 -9 3 -27l-33 16q-25 64 -102 64
q-21 0 -38.5 -7t-31 -18.5t-21 -27t-7.5 -31.5q0 -58 63 -58q-18 16 -18 40q0 21 16 35.5t38 14.5q58 0 58 -64q0 -20 -21 -45l41 -2q24 -3 49 -17t48 -37.5t41.5 -57t28.5 -75.5z" />
    <glyph glyph-name="l_ddo_bn" horiz-adv-x="830" 
d="M583 32q-190 0 -256 254l39 -15q11 -29 32 -52.5t48 -40.5t58.5 -26t63.5 -9q31 0 61 9.5t53 26t37 38t14 45.5q0 6 -2 17.5t-5 23t-7 21t-8 12.5q-83 -90 -146 -90q-27 0 -52 24t-45 75q-4 10 -15 23t-25 24t-29 19t-25 8q-42 0 -42 -45q0 -9 3 -27l-33 16
q-25 64 -102 64q-21 0 -38.5 -7t-31 -18.5t-21 -27t-7.5 -31.5q0 -58 63 -58q-18 16 -18 40q0 21 16 35.5t38 14.5q58 0 58 -64q0 -14 -9 -26.5t-22.5 -21.5t-30 -14.5t-32.5 -5.5q-30 0 -55 10.5t-43 29t-28 43.5t-10 55q0 28 11 52.5t30 43.5t43.5 30t50.5 11
q64 0 103 -67h5q13 61 62 61q14 0 32 -11.5t37 -29t36 -39t28 -40.5l5 2q-9 34 -9 70v88h-473l-65 70h845l70 -70h-303v-192q0 -19 13 -19q38 0 130 113q21 -16 38.5 -42t30 -56.5t19.5 -63.5t7 -63q0 -94 -52 -145.5t-140 -51.5z" />
    <glyph glyph-name="l_po_bn" horiz-adv-x="608" 
d="M618 552h-82v-643l-47 38q-8 36 -14.5 60t-14 41.5t-17 31t-22.5 27.5q-38 -28 -84 -68t-98 -95l-103 38q59 50 59 81q0 33 -26 33q-3 0 -12 -3.5t-19.5 -7.5t-20 -7.5t-13.5 -3.5q-20 0 -33.5 16.5t-13.5 38.5q0 13 9.5 30.5t24.5 34.5t34.5 30.5t39.5 18.5
q-29 0 -53.5 10.5t-43 29t-29 43.5t-10.5 55q0 28 11.5 52.5t30.5 43.5t43 30t50 11q64 0 103 -67h6q13 61 62 61q13 0 31.5 -11.5t37.5 -29t36 -39t27 -40.5l6 2q-9 34 -9 70v88h-474l-69 70h626zM475 86l2 -4q0 9 -13 54q-1 26 -1 47.5v40.5v63q0 50 1 51q-7 16 -18.5 31
t-24 26t-25 17.5t-21.5 6.5q-43 0 -43 -45q0 -12 4 -27l-33 16q-27 64 -102 64q-21 0 -38.5 -7t-31 -18.5t-21 -27t-7.5 -31.5q0 -58 62 -58q-18 16 -18 40q0 21 16 35.5t39 14.5q57 0 57 -64q0 -19 -20 -45q11 4 28 4q27 0 56 -14.5t56.5 -39.5t51.5 -58.5t41 -71.5
q1 1 3 1v-1zM353 174q-25 28 -73 28q-57 0 -109 -58q58 0 58 -78q34 33 64.5 60.5t59.5 47.5z" />
    <glyph glyph-name="l_pho_bn" horiz-adv-x="986" 
d="M931 330q0 -52 -24.5 -83t-59.5 -31q-30 0 -50 19.5t-20 47.5q0 26 16 43.5t41 17.5q30 0 47 -26q16 10 16 29q0 26 -27 43.5t-78 17.5q-22 0 -50 -6v-473l-30 31q-55 145 -264 145l-93 92q25 22 60 54t83 72q-14 16 -66 42l-5 2q-22 52 -52 52q-43 0 -43 -45
q0 -12 4 -27l-33 16q-27 64 -102 64q-21 0 -38.5 -7t-31 -18.5t-21 -27t-7.5 -31.5q0 -58 62 -58q-18 16 -18 40q0 21 16 35.5t39 14.5q57 0 57 -64q0 -28 -27 -48t-67 -20q-29 0 -53.5 10.5t-43 29t-29 43.5t-10.5 55q0 28 11.5 52.5t30.5 43.5t43 30t50 11q64 0 103 -67h6
q13 61 62 61q46 0 104 -109l5 3q-9 34 -9 58v88h-445l-70 70h1008l68 -70h-489v-193l9 -7q34 -23 58 -43t38 -37l-109 -97q15 -1 37.5 -11.5t46.5 -26t47.5 -35.5t40.5 -39l6 1q-15 43 -15 95v348q22 3 39 4t30 1q94 0 145 -47t51 -135z" />
    <glyph glyph-name="l_bo_bn" horiz-adv-x="579" 
d="M507 552v-653l-38 35q-68 140 -225 140l-83 100q75 57 148.5 92.5t125.5 47.5v36q-29 69 -60 69q-43 0 -43 -45q0 -12 4 -27l-33 16q-27 64 -102 64q-21 0 -38.5 -7t-31 -18.5t-21 -27t-7.5 -31.5q0 -58 62 -58q-18 16 -18 40q0 21 16 35.5t39 14.5q57 0 57 -64
q0 -28 -27 -48t-67 -20q-29 0 -53.5 10.5t-43 29t-29 43.5t-10.5 55q0 28 11.5 52.5t30.5 43.5t43 30t50 11q64 0 103 -67h6q13 61 62 61q46 0 104 -109l5 3q-9 34 -9 58v88h-445l-70 70h598l71 -70h-82zM447 19q-12 34 -12 62l-1 135q-64 -16 -149 -74q78 -12 159 -125z
" />
    <glyph glyph-name="l_bho_bn" horiz-adv-x="605" 
d="M458 309q3 4 6 7.5t7 7.5q85 -61 85 -176q0 -43 -15 -79t-41 -61.5t-61.5 -40t-75.5 -14.5q-152 0 -233 133q-81 134 -90 190l38 -25q73 -184 271 -184q30 0 59 10.5t52 27.5t37.5 39.5t14.5 46.5q0 22 -16 35q-81 -96 -167 -96q-52 0 -79 27t-27 65q0 11 4.5 23.5
t13.5 23.5t22.5 18t32.5 7q51 0 51 -51q0 -24 -25 -39v-2q24 0 64 34v146q-30 50 -54 50q-32 0 -32 -34q0 -4 1.5 -11.5t3.5 -20.5l-39 19q-23 54 -84 54q-34 0 -57 -20t-23 -47q0 -46 37 -46q-9 7 -9 30q0 20 15.5 34t37.5 14q54 0 54 -60q0 -27 -25 -45t-61 -18
q-26 0 -48 9t-38.5 25.5t-26 39t-9.5 49.5q0 25 10 47.5t27 39.5t38.5 26.5t45.5 9.5q56 0 91 -56q12 51 56 51q42 0 92 -92l4 3q-7 24 -7 48v71h-396l-70 70h631l64 -70h-157v-243z" />
    <glyph glyph-name="l_mo_bn" horiz-adv-x="735" 
d="M744 552h-81v-605l-35 35q-6 34 -19 62t-30.5 49t-38 33.5t-41.5 15.5q-23 -72 -94 -72q-42 0 -67 26.5t-25 66.5t26 66t69 26q23 0 47 -9q-4 23 -12 49.5t-19 49t-23.5 37.5t-25.5 15q-43 0 -43 -46q0 -13 4 -26l-33 16q-27 64 -102 64q-21 0 -38.5 -7t-31 -18.5
t-21 -27t-7.5 -32.5q0 -58 62 -58q-18 16 -18 40q0 21 16 35.5t39 14.5q57 0 57 -64q0 -27 -27 -47t-67 -20q-29 0 -53.5 10t-43 28.5t-29 43.5t-10.5 55q0 28 11.5 52.5t30.5 43.5t43 30t50 11q64 0 103 -66h6q13 60 62 60q40 0 90 -83v146h-435l-70 70h754zM598 115
q-2 7 -3 27t-2 55l-6 355h-84v-214q0 -40 2 -68.5t6 -47.5q46 -38 81 -108z" />
    <glyph glyph-name="l_ro_bn" horiz-adv-x="616" 
d="M200 177q-37 0 -68.5 14t-54 38t-35.5 57t-13 71q0 33 13.5 61.5t35.5 49.5t50 33t57 12q69 0 112 -79q16 45 32.5 61t43.5 16q54 0 108 -110l4 4q-2 11 -3.5 42t-1.5 82v23h-490l-66 70h631l71 -70h-82v-705l-33 36q-10 91 -96 91q-9 0 -31.5 -7.5t-48.5 -16.5
t-50 -16.5t-35 -7.5q-109 0 -167.5 49.5t-58.5 143.5q0 67 26 96l26 -24q-16 -25 -16 -61q0 -26 10 -46t27.5 -34t40.5 -21.5t49 -7.5q18 0 42 5.5t48 11.5t45 11.5t34 5.5q23 0 38.5 -2.5t29 -10t27 -22t32.5 -38.5h4q-10 44 -10 66l2 302q-35 71 -70 71q-48 0 -48 -68
l4 -35l-32 19q-30 78 -110 78q-24 0 -46 -8.5t-38 -23t-25.5 -34.5t-9.5 -43q0 -32 18.5 -53.5t40.5 -21.5q4 0 8.5 0.5t9.5 1.5q-25 21 -25 47q0 30 20 49.5t52 19.5q35 0 56.5 -25t21.5 -61q0 -40 -29 -63t-77 -23z" />
    <glyph glyph-name="l_lo_bn" horiz-adv-x="618" 
d="M476 360q-39 73 -79 73q-32 0 -51 -18t-19 -46q0 -20 4 -32l-24 18q-12 31 -47.5 50.5t-75.5 19.5q-18 0 -36 -7t-32 -20t-22.5 -30t-8.5 -38q0 -52 39 -52q2 0 6 0.5t9 1.5q-19 19 -19 42q0 27 14.5 44.5t40.5 17.5q25 0 41.5 -23t16.5 -55q0 -11 -6.5 -22.5t-17 -22
t-24 -17t-28.5 -6.5q-28 0 -51.5 10.5t-40.5 29.5t-26.5 44t-9.5 54q0 137 139 137q16 0 32.5 -5.5t31.5 -15t27.5 -22.5t19.5 -28v7q0 28 14.5 45.5t41.5 17.5q100 0 141 -105q1 -1 1 -2l2 147h-489l-65 70h632l71 -70h-82v-650l-71 76l2 86q0 18 -7.5 32t-19 23.5
t-25.5 14.5t-26 5q-14 0 -26.5 -5.5t-23 -14.5t-16.5 -20.5t-6 -23.5q0 -20 4 -32l-24 19q-12 31 -47.5 50t-75.5 19q-18 0 -36 -7t-32 -19.5t-22.5 -30t-8.5 -37.5q0 -53 39 -53q2 0 6 0.5t9 1.5q-19 19 -19 43q0 26 14.5 43.5t40.5 17.5q25 0 41.5 -22.5t16.5 -54.5
q0 -11 -6.5 -23t-17 -22t-24 -17t-28.5 -7q-28 0 -51.5 11t-40.5 29.5t-26.5 43.5t-9.5 54q0 137 139 137q32 0 64 -20.5t47 -49.5v6q0 28 14.5 45.5t41.5 17.5q100 0 141 -105q1 -1 1 -2l3 22q-1 4 -2.5 61t-1.5 166z" />
    <glyph glyph-name="l_so_bn" horiz-adv-x="796" 
d="M467 381q5 15 5 32q0 29 -27 53t-81 27q-95 6 -95 59h-279l-71 70h817l70 -70h-82v-560l-66 72l2 241q-18 49 -50 49q-27 0 -49 -33l-31 -56q-35 -63 -54 -90.5t-42 -27.5q-71 0 -138 94l17 42q22 -37 51 -37q24 0 62 68l3 4q-27 58 -54 58q-43 0 -43 -46q0 -13 4 -26
l-33 16q-27 64 -102 64q-42 0 -70 -24.5t-28 -60.5q0 -58 62 -58q-18 16 -18 40q0 22 16 36t39 14q57 0 57 -64q0 -27 -27 -47t-67 -20q-29 0 -53.5 10.5t-43 28.5t-29 43t-10.5 55q0 28 11.5 53t30.5 44t43 29.5t50 10.5q64 0 103 -66h6q13 61 62 61q21 0 52.5 -33.5
t56.5 -99.5q5 8 10.5 19t12.5 26zM664 351q-2 14 -3 24.5t-1 18.5l-1 158h-212v-3q58 -22 58 -87q0 -26 -8 -53l2 -2q32 44 65 44q52 0 96 -101z" />
    <glyph glyph-name="sh_ukar_bn" horiz-adv-x="688" 
d="M633 357q0 -56 -44 -88q28 -49 28 -98q0 -70 -45 -112t-118 -42q-70 0 -135 39.5t-120.5 109t-99 163.5t-70.5 204l48 -30q25 -74 62 -139.5t84 -115t103 -78t118 -28.5q51 0 86.5 19.5t35.5 52.5q0 20 -12 35q-20 -18 -54 -18q-35 0 -55 20.5t-20 51.5q0 28 19 47t46 19
q32 0 42 -16q34 10 34 55q0 32 -48 101h-2q-3 -14 -7 -25t-8.5 -24t-10 -30.5t-11.5 -44.5l-27 24q-4 18 -15 41.5t-23.5 44t-25 34.5t-20.5 14q-18 0 -40 -31q68 -45 68 -83q0 -62 -67 -62q-43 0 -58 59h-6q-12 -60 -59 -60q-66 0 -66 61q0 44 77 94q-12 31 -71 31h-156
l-68 70h215q43 0 67 -19t41 -62q53 74 90 74q13 0 26.5 -10.5t26.5 -26t23.5 -34.5t17.5 -35q10 25 17 57t12 70l26 -19q9 -40 73 -113q76 -88 76 -147z" />
    <glyph glyph-name="sh_co_bn" horiz-adv-x="859" 
d="M867 552h-334q12 -48 52 -79t94 -33q11 0 32 -7.5t41.5 -22.5t36 -37t15.5 -51q0 -30 -11 -62.5t-29.5 -63.5t-42.5 -59t-50.5 -49t-53 -33.5t-49.5 -12.5q-20 0 -39.5 14t-35.5 35.5t-25.5 46.5t-9.5 48v220q-77 114 -111 114q-28 0 -56 -42q94 -61 94 -117
q0 -39 -24.5 -62.5t-67.5 -23.5q-59 0 -81 84h-8q-19 -85 -83 -85q-40 0 -66 23.5t-26 62.5q0 62 108 130q-17 62 -97 62h-50l-66 70h103q29 0 51.5 -5t40 -17t31.5 -32t26 -50q73 102 124 102q78 0 161 -159v109l-52 52h390zM702 305q0 15 -10 22.5t-26 14.5t-35 16.5
t-37 28.5q-41 44 -58 100h-3v-351q0 -17 13 -17q14 0 29.5 10t31.5 25.5t30.5 34t26.5 34.5q38 53 38 82z" />
    <glyph glyph-name="sh_cho_bn" horiz-adv-x="949" 
d="M644 393q0 2 -0.5 5.5t-1.5 9.5q-67 10 -114 104l-3 -2q5 -24 6.5 -41.5t1.5 -28.5v-112q0 -26 15 -26q13 0 29.5 10t31.5 24.5t25 30t10 26.5zM458 406q-77 114 -111 114q-28 0 -56 -42q94 -61 94 -117q0 -39 -24.5 -62.5t-67.5 -23.5q-59 0 -81 84h-8q-19 -85 -83 -85
q-40 0 -66 23.5t-26 62.5q0 62 108 130q-17 62 -97 62h-50l-67 70h104q29 0 51.5 -5t40 -17t31.5 -32t26 -50q73 102 124 102q78 0 158 -153v109l-41 46h472l70 -70h-434q11 -29 47 -47.5t87 -18.5h79q17 0 43.5 -14.5t51.5 -40t43 -61t18 -76.5q0 -32 -13 -62t-35.5 -54
t-53 -40t-64.5 -20v-3q110 -40 242 -184l10 -53q-56 49 -106.5 84.5t-101.5 59.5t-106.5 36.5t-121.5 15.5l-71 133q61 -26 121 -26q40 0 81 15.5t74 39.5t54 54t21 60q0 58 -55 58q-12 0 -32 -5q5 -13 5 -19q0 -26 -18 -53t-45 -48.5t-58 -35.5t-58 -14q-18 0 -36.5 10.5
t-33.5 28.5t-25 40.5t-10 46.5v47z" />
    <glyph glyph-name="sh_no_bn" horiz-adv-x="588" 
d="M455 473l2 6l-8 50q-4 26 -5.5 50t-1.5 46v110l39 -35q6 -78 47 -78l70 -70h-50q-22 0 -32 10v-618l-36 38q-7 49 -24 83t-40.5 55t-51.5 30t-57 9l-2 -2q7 -4 13.5 -12t11 -17.5t7.5 -19.5t3 -18q0 -28 -22 -50t-58 -22q-42 0 -67.5 29.5t-25.5 71.5q0 48 28 76t82 28
q105 0 173 -102l6 1q-14 47 -14 86v200v9.5t1 9.5q-65 93 -96 93q-28 0 -56 -42q94 -61 94 -117q0 -39 -24.5 -62.5t-67.5 -23.5q-59 0 -81 84h-8q-19 -85 -83 -85q-40 0 -66 23.5t-26 62.5q0 62 108 130q-17 62 -97 62h-50l-75 70h112q29 0 51.5 -5t40 -17t31.5 -32t26 -50
q73 102 124 102q75 0 155 -147z" />
    <glyph glyph-name="sh_bo_bn" horiz-adv-x="589" 
d="M517 -104l-36 30q-5 25 -25.5 49.5t-50.5 44t-66.5 32t-73.5 12.5l-82 104q4 3 25 17t56 33.5t81 41t99 39.5q0 40 1.5 70t3.5 49q-71 102 -102 102q-28 0 -56 -42q94 -61 94 -117q0 -39 -24.5 -62.5t-67.5 -23.5q-59 0 -81 84h-8q-19 -85 -83 -85q-40 0 -66 23.5
t-26 62.5q0 62 108 130q-17 62 -97 62h-50l-67 70h104q29 0 51.5 -5t40 -17t31.5 -32t26 -50q73 102 124 102q78 0 158 -153v-1q1 4 1 10v10q0 14 -16 77v174l39 -36q4 -79 51 -79l66 -70h-50q-22 0 -32 10v-666zM455 14q-8 37 -8 90v95q-43 -17 -78.5 -34.5t-63.5 -35.5
q83 -26 147 -118z" />
    </font>
</defs>
</svg>
