<?xml version="1.0" standalone="no"?>
<!DOCTYPE svg PUBLIC "-//W3C//DTD SVG 1.1//EN" "http://www.w3.org/Graphics/SVG/1.1/DTD/svg11.dtd" >
<svg xmlns="http://www.w3.org/2000/svg" xmlns:xlink="http://www.w3.org/1999/xlink" version="1.1">
<metadata></metadata>
<defs>
<font id="shonar_banglabold" horiz-adv-x="847" >
<font-face units-per-em="2048" ascent="1638" descent="-410" />
<missing-glyph horiz-adv-x="424" />
<glyph horiz-adv-x="0" />
<glyph unicode="&#xd;" horiz-adv-x="456" />
<glyph unicode=" "  horiz-adv-x="424" />
<glyph unicode="&#x09;" horiz-adv-x="424" />
<glyph unicode="&#xa0;" horiz-adv-x="424" />
<glyph unicode="!" horiz-adv-x="564" d="M145 1006q0 64 38 103t99 39q60 0 99 -39.5t39 -99.5q0 -63 -41 -235l-44 -181q-23 -96 -34 -228h-36q-6 94 -38 228l-43 181q-39 162 -39 232zM150 112q0 55 39 95t95 40q55 0 94.5 -39.5t39.5 -95.5t-39.5 -95t-94.5 -39q-56 0 -95 39t-39 95z" />
<glyph unicode="&#x22;" horiz-adv-x="941" d="M146 1024q0 52 36 88t86 36q58 0 90.5 -38t32.5 -82q0 -37 -20 -115l-82 -316h-41l-86 318q-16 62 -16 109zM544 1027q0 48 36.5 84.5t88.5 36.5q58 0 89 -39t31 -80q0 -29 -21 -115l-80 -317h-41l-84 317q-19 73 -19 113z" />
<glyph unicode="#" d="M33 328v110h134l49 241h-183v108h204l72 358h110l-73 -358h244l71 358h109l-72 -358h115v-108h-136l-50 -241h186v-110h-206l-72 -351h-110l71 351h-240l-75 -351h-107l72 351h-113zM277 438h243l48 241h-243z" />
<glyph unicode="$" d="M65 821q0 107 83 189.5t248 103.5v39h72v-39q141 -10 283 -87v-239h-32q-24 81 -57.5 133t-86.5 89q-40 28 -107 46v-365q198 -125 253 -189q73 -86 73 -202q0 -128 -86.5 -216t-239.5 -101v-97h-72v91q-87 1 -155 14t-156 47v267h35q17 -91 52.5 -147t89.5 -84.5 t134 -35.5v409q-199 125 -265 200t-66 174zM242 919q0 -38 26.5 -77t127.5 -106v322q-60 -5 -96 -33q-58 -44 -58 -106zM468 38q71 17 104.5 57t33.5 100q0 52 -29.5 97.5t-108.5 103.5v-358z" />
<glyph unicode="%" horiz-adv-x="1695" d="M117 841q0 137 80.5 222t198.5 85q117 0 197.5 -83.5t80.5 -214.5q0 -135 -81 -219t-201 -84q-118 0 -196.5 81t-78.5 213zM324 834q0 -117 14 -180q9 -37 29 -55q12 -11 29 -11q18 0 28 10q20 18 29 56q14 63 14 177q0 139 -14 201q-9 43 -29 63q-10 9 -28 9 q-19 0 -30 -11q-21 -19 -31.5 -65.5t-10.5 -193.5zM394 -47l796 1195h112l-797 -1195h-111zM1021 255q0 133 78.5 216.5t196.5 83.5q120 0 200.5 -82t80.5 -216q0 -135 -82 -219t-198 -84q-115 0 -195.5 84t-80.5 217zM1229 266q0 -135 12 -195q9 -42 31 -61q11 -10 28 -10 q16 0 26 9q20 19 30 62q14 61 14 183q0 129 -13 189q-10 43 -30 60q-10 9 -29 9q-16 0 -28 -10q-20 -18 -30.5 -63t-10.5 -173z" />
<glyph unicode="&#x26;" horiz-adv-x="1412" d="M68 260q0 124 88.5 216t257.5 159q-22 53 -32.5 104.5t-10.5 99.5q0 132 93 220.5t238 88.5q116 0 184.5 -58.5t68.5 -136.5q0 -93 -70 -160t-221 -122q46 -83 114.5 -171.5t158.5 -183.5q61 68 91.5 126.5t30.5 107.5q0 35 -24 59.5t-70 29.5v32h344v-32 q-58 -8 -91 -34.5t-86 -121.5t-149 -212q84 -77 137 -106q38 -21 73 -21q61 0 111 80l34 -18q-68 -133 -145 -189q-59 -43 -134 -43q-64 0 -122.5 28t-142.5 104q-103 -70 -194 -101t-190 -31q-157 0 -249.5 85.5t-92.5 200.5zM304 419q0 -78 45.5 -155t109 -119t127.5 -42 q31 0 70.5 13.5t85.5 40.5q-100 102 -176 208.5t-129 216.5q-66 -28 -94 -60q-39 -46 -39 -103zM559 964q0 -41 13.5 -87t62.5 -156q87 32 117 69t30 89q0 92 -49 156q-32 42 -79 42q-39 0 -67 -30.5t-28 -82.5z" />
<glyph unicode="'" horiz-adv-x="471" d="M116 1022q0 54 35 90t86 36q59 0 91 -38t32 -83q0 -37 -19 -113l-82 -317h-40l-87 316q-16 59 -16 109z" />
<glyph unicode="(" horiz-adv-x="564" d="M68 409q0 265 138 468.5t338 270.5v-38q-86 -57 -126 -110q-56 -75 -88 -192q-40 -144 -40 -404q0 -245 36 -381t98 -219q43 -58 120 -102v-41q-199 67 -337.5 273.5t-138.5 474.5z" />
<glyph unicode=")" horiz-adv-x="564" d="M21 -301q86 57 126 111q56 74 88 190q40 146 40 405q0 245 -36 380.5t-98 219.5q-43 57 -120 101v42q199 -67 337.5 -273.5t138.5 -474.5q0 -264 -138.5 -468t-337.5 -271v38z" />
<glyph unicode="*" d="M94 882q0 34 24.5 58.5t61.5 24.5q53 0 100.5 -50t62.5 -60q19 -14 65 -34q-3 48 -10 72.5t-33.5 77t-26.5 81.5q0 38 26.5 67t59.5 29q35 0 61 -27t26 -70q0 -34 -25.5 -82t-32.5 -73.5t-11 -74.5q46 19 66 33t59 55q52 56 100 56q36 0 61 -24t25 -57q0 -36 -30.5 -63 t-79.5 -27q-17 0 -59 2q-20 1 -43 1q-30 0 -93 -3q36 -41 56 -56.5t68.5 -40t70.5 -52.5q16 -21 16 -53q0 -36 -24 -60.5t-58 -24.5q-36 0 -64.5 29.5t-39.5 104.5q-6 49 -14 71.5t-34 65.5q-27 -44 -36 -68t-16 -69q-11 -75 -38 -103t-64 -28q-34 0 -58 23t-24 55 q0 33 18.5 59.5t68.5 54t69 41.5t55 51l-88 3q-23 0 -44 -1q-49 -3 -67 -3q-47 0 -77 26.5t-30 62.5z" />
<glyph unicode="+" horiz-adv-x="966" d="M33 506v110h398v397h108v-397h398v-110h-398v-393h-108v393h-398z" />
<glyph unicode="," horiz-adv-x="424" d="M55 117q0 54 41 95.5t100 41.5q71 0 121.5 -55t50.5 -151q0 -118 -71.5 -210t-212.5 -135v36q96 42 139.5 107.5t43.5 134.5q0 14 -6 21q-5 7 -11 7q-5 0 -15 -6q-24 -14 -60 -14q-48 0 -84 38t-36 90z" />
<glyph unicode="-" horiz-adv-x="564" d="M41 304v171h483v-171h-483z" />
<glyph unicode="." horiz-adv-x="424" d="M74 117q0 57 40.5 97.5t97.5 40.5q58 0 98 -40.5t40 -97.5t-40.5 -97.5t-97.5 -40.5t-97.5 40.5t-40.5 97.5z" />
<glyph unicode="/" horiz-adv-x="471" d="M2 -26l370 1174h104l-368 -1174h-106z" />
<glyph unicode="0" d="M61 548q0 183 52 336q42 126 128 193.5t182 67.5q97 0 182 -66.5t125 -179.5q55 -154 55 -338q0 -168 -47 -314q-28 -89 -75.5 -146t-108 -90.5t-131.5 -33.5q-81 0 -146.5 41.5t-115.5 118.5q-37 56 -64 149q-36 127 -36 262zM312 455q0 -238 16 -319q13 -59 36 -79 t61 -20q42 0 62 27q35 46 40 143l3 356q0 294 -3 343q-8 115 -40 156q-20 26 -67 26q-35 0 -56 -20q-31 -29 -41.5 -102t-10.5 -511z" />
<glyph unicode="1" d="M112 957l413 188h27v-917q0 -104 9 -132.5t38 -46.5t93 -18h25v-31h-590v31h29q72 0 103 16.5t41.5 45.5t10.5 135v581q0 78 -7.5 97.5t-27.5 33t-47 13.5q-42 0 -102 -26z" />
<glyph unicode="2" d="M41 0v18q304 362 369 487t65 244q0 87 -54 144.5t-131 57.5q-128 0 -198 -128l-31 11q45 159 136 235t210 76q85 0 155.5 -39.5t110 -108.5t39.5 -130q0 -110 -61 -223q-83 -153 -365 -427h243q89 0 116 7.5t44.5 25t45.5 74.5h30l-63 -324h-661z" />
<glyph unicode="3" d="M27 108q0 38 27.5 65t62.5 27q28 0 52 -11q13 -7 93.5 -73t151.5 -66q61 0 105 48.5t44 123.5q0 113 -79.5 208.5t-232.5 132.5v29q94 27 130.5 50.5t63 72t26.5 98.5q0 68 -50 117.5t-125 49.5q-116 0 -197 -123l-30 11q59 138 152 207.5t208 69.5q116 0 192 -71 t76 -166q0 -62 -35.5 -119.5t-110.5 -101.5q97 -47 148 -116.5t51 -173.5q0 -175 -127 -298t-341 -123q-142 0 -208 47q-47 33 -47 85z" />
<glyph unicode="4" d="M42 252v171l533 722h101v-722h103v-171h-103v-252h-228v252h-406zM122 423h326v442z" />
<glyph unicode="5" d="M57 556l201 566h526l-84 -213h-442l-42 -112q285 -11 439 -143q127 -108 127 -269q0 -104 -59 -202.5t-165.5 -152t-233.5 -53.5q-138 0 -211 51q-52 37 -52 83q0 35 27 62.5t63 27.5q32 0 65 -13t113 -70q51 -34 87 -48q26 -10 58 -10q68 0 115.5 50t47.5 119 q0 146 -145.5 237t-367.5 91q-22 0 -67 -1z" />
<glyph unicode="6" d="M63 437q0 189 90.5 351.5t257.5 259t385 97.5v-23q-150 -38 -240.5 -98t-143 -145.5t-81.5 -212.5q36 25 60 32q54 17 109 17q126 0 210 -91.5t84 -249.5q0 -111 -46 -203.5t-129.5 -143t-178.5 -50.5q-103 0 -191 56.5t-137 166t-49 237.5zM314 432q0 -114 21.5 -221 t60.5 -150q27 -30 64 -30q38 0 68 44t30 180q0 228 -56 315q-35 56 -96 56q-33 0 -86 -27q-6 -114 -6 -167z" />
<glyph unicode="7" d="M57 774l81 348h669l-377 -1145h-130l306 926h-233q-136 0 -205 -36q-48 -25 -79 -93h-32z" />
<glyph unicode="8" d="M60 259q0 90 52.5 158t174.5 124q-133 102 -170.5 166.5t-37.5 149.5q0 113 95.5 198.5t261.5 85.5q161 0 247.5 -75.5t86.5 -181.5q0 -80 -47 -140.5t-145 -109.5q118 -87 164 -162t46 -172q0 -135 -102.5 -229t-277.5 -94q-166 0 -257 82t-91 200zM270 259 q0 -78 19.5 -130.5t56.5 -75.5t76 -23q60 0 101.5 44t41.5 121q0 161 -216 306q-25 -23 -36 -42q-17 -29 -30 -84.5t-13 -115.5zM300 950q0 -61 43 -125.5t172 -148.5q30 41 45 92.5t15 112.5q0 108 -46 165q-35 44 -96 44q-56 0 -94.5 -40.5t-38.5 -99.5z" />
<glyph unicode="9" d="M52 0q137 31 233 92.5t151.5 151.5t78.5 208q-52 -27 -88 -37t-75 -10q-128 0 -212.5 91.5t-84.5 251.5q0 111 45.5 203t131 143t177.5 51q98 0 186 -56t140 -163t52 -243q0 -177 -85 -339.5t-253 -260.5t-397 -106v23zM291 867q0 -229 55 -316q35 -56 96 -56q32 0 85 26 q8 93 8 163q0 151 -34 281q-20 72 -59 106q-21 18 -54 18q-41 0 -64 -36q-33 -48 -33 -186z" />
<glyph unicode=":" horiz-adv-x="564" d="M145 117q0 57 40 97.5t97 40.5q58 0 98 -40.5t40 -97.5t-40.5 -97.5t-97.5 -40.5t-97 40.5t-40 97.5zM146 659q0 57 40 97t97 40t97 -40t40 -97t-40 -97.5t-97 -40.5t-97 40.5t-40 97.5z" />
<glyph unicode=";" horiz-adv-x="564" d="M126 117q0 54 41.5 95.5t99.5 41.5q71 0 121.5 -55t50.5 -151q0 -118 -71.5 -210t-211.5 -135v36q96 42 139 107.5t43 134.5q0 14 -5 21q-6 7 -12 7q-5 0 -15 -6q-24 -14 -59 -14q-49 0 -85 38t-36 90zM145 659q0 58 39.5 97.5t97.5 39.5q57 0 97 -39.5t40 -97.5 q0 -57 -40.5 -97t-96.5 -40q-57 0 -97 40t-40 97z" />
<glyph unicode="&#x3c;" horiz-adv-x="966" d="M34 522v67l903 373v-114l-699 -292l699 -287v-116z" />
<glyph unicode="=" horiz-adv-x="966" d="M33 370v107h905v-107h-905zM33 640v108h905v-108h-905z" />
<glyph unicode="&#x3e;" horiz-adv-x="966" d="M34 153v115l699 291l-699 287v116l903 -368v-68z" />
<glyph unicode="?" d="M103 903q0 97 84.5 171t236.5 74q160 0 244 -76.5t84 -185.5q0 -78 -43 -145t-166 -148q-83 -54 -109 -97t-32 -130h-34q-1 92 9 137.5t53.5 125t57 128t13.5 119.5q0 110 -43 162.5t-101 52.5q-45 0 -76 -24q-23 -19 -23 -39q0 -13 16 -41q35 -64 35 -108 q0 -41 -27.5 -68t-68.5 -27q-47 0 -78.5 32.5t-31.5 86.5zM260 112q0 55 39 94t94 39t94 -39t39 -94q0 -56 -39 -95t-94 -39t-94 39t-39 95z" />
<glyph unicode="@" horiz-adv-x="1576" d="M76 361q0 217 102.5 401.5t288 285t410.5 100.5q183 0 320 -73.5t205.5 -206t68.5 -279.5q0 -171 -74 -312.5t-184.5 -209t-237.5 -67.5q-82 0 -125 40.5t-43 104.5q0 44 20 116q-69 -114 -107 -158q-52 -58 -104 -86q-33 -17 -75 -17q-59 0 -99 46.5t-40 137.5 q0 92 27 181t73.5 167.5t107 140.5t136.5 102q39 22 84 22q46 0 76.5 -29t40.5 -101l29 98l201 9l-151 -520q-26 -86 -26 -129q0 -27 19.5 -46t47.5 -19q57 0 148 65.5t150 187.5t59 260q0 229 -147 376t-383 147q-203 0 -369.5 -96t-264 -278t-97.5 -390 q0 -286 182.5 -468.5t464.5 -182.5q233 0 417.5 124.5t261.5 331.5h50q-99 -244 -289 -373.5t-442 -129.5q-318 0 -525 206t-207 521zM616 228q0 -37 15 -57t33 -20q16 0 46 24q42 32 90 109t78.5 171t30.5 173q0 57 -21 87q-16 22 -37 22q-32 0 -62 -35q-42 -47 -89 -157 q-84 -197 -84 -317z" />
<glyph unicode="A" horiz-adv-x="1224" d="M13 0v31q61 9 99.5 50t96.5 169l401 895h16l404 -920q58 -131 95 -165q28 -25 80 -29v-31h-543v31h22q66 0 92 18q18 13 18 38q0 15 -5 30q-1 8 -24 63l-60 139h-396l-48 -109q-23 -54 -23 -90q0 -47 38 -70q23 -13 110 -19v-31h-373zM338 381h339l-167 386z" />
<glyph unicode="B" horiz-adv-x="1130" d="M36 0v31q77 0 105 14.5t39 37.5t11 114v728q0 91 -11 114.5t-39 37.5t-105 14v31h537q193 0 273.5 -34.5t126.5 -102.5t46 -145q0 -81 -58.5 -144.5t-206.5 -100.5q159 -37 224 -90q93 -76 93 -196q0 -126 -102 -209q-125 -100 -363 -100h-570zM452 151q0 -44 22.5 -67 t67.5 -23q66 0 122 29.5t85.5 85.5t29.5 124q0 79 -36 141.5t-100 87.5q-62 24 -180 24h-10v-360zM453 617q117 0 173 26.5t85.5 74.5t29.5 123q0 74 -29 121.5t-84 72.5q-53 24 -166 24h-9v-442z" />
<glyph unicode="C" horiz-adv-x="1224" d="M67 540q0 161 84 305t226.5 223.5t303.5 79.5q118 0 250 -52q76 -29 97 -29q26 0 45.5 19t25.5 62h32v-389h-32q-37 152 -136 233t-225 81q-105 0 -192.5 -60.5t-128.5 -157.5q-52 -125 -52 -278q0 -151 38 -274.5t119 -187t210 -63.5q106 0 194 46.5t186 159.5v-97 q-94 -98 -196.5 -142.5t-238.5 -44.5q-180 0 -319.5 72t-215 207t-75.5 287z" />
<glyph unicode="D" horiz-adv-x="1224" d="M22 0v31h38q48 0 74.5 15t38.5 42q7 17 7 104v738q0 86 -9 107.5t-36.5 37.5t-74.5 16h-38v31h503q201 0 323 -55q150 -67 227.5 -202.5t77.5 -306.5q0 -119 -38.5 -218.5t-98.5 -164.5t-139 -104.5t-194 -60.5q-50 -10 -158 -10h-503zM450 183q0 -70 6.5 -85.5 t22.5 -23.5q22 -13 65 -13q138 0 211 95q99 127 99 395q0 216 -68 345q-54 101 -138 137q-58 25 -188 25h-10v-875z" />
<glyph unicode="E" horiz-adv-x="1130" d="M34 0v31h37q49 0 79 17q21 12 33 40q9 20 9 104v738q0 76 -4 94q-8 28 -31 44q-31 23 -86 23h-37v31h939v-332h-31q-24 122 -67.5 175t-123.5 78q-46 14 -173 14h-116v-456h22q107 0 155 67t61 197h31v-587h-31q-10 96 -42 157t-74 82.5t-122 21.5v-316q0 -93 7.5 -113.5 t29 -34t69.5 -13.5h67q158 0 252.5 73t136.5 222h30l-50 -357h-970z" />
<glyph unicode="F" horiz-adv-x="1035" d="M38 0v31h37q49 0 79 17q21 12 33 40q9 20 9 104v738q0 86 -9 107.5t-37 37.5t-75 16h-37v31h947v-322h-34q-12 113 -59.5 168t-137.5 77q-50 12 -184 12h-104v-460h32q75 0 122 22t79.5 75t42.5 143h29v-563h-29q-16 160 -85.5 210.5t-158.5 50.5h-32v-343 q0 -86 9.5 -107.5t37 -37.5t74.5 -16h38v-31h-587z" />
<glyph unicode="G" horiz-adv-x="1318" d="M69 546q0 253 177.5 427.5t447.5 174.5q84 0 151 -13q36 -6 117.5 -37t96.5 -31q23 0 43 16.5t37 64.5h30v-396h-30q-56 162 -167 246.5t-242 84.5q-126 0 -209.5 -70.5t-118.5 -197.5t-35 -260q0 -161 38.5 -282.5t123 -179t201.5 -57.5q40 0 83 9t87 25v234 q0 66 -9 85.5t-37.5 35t-69.5 15.5h-29v31h546v-31q-62 -4 -86.5 -17t-37.5 -42q-8 -16 -8 -77v-234q-107 -48 -223.5 -72t-241.5 -24q-160 0 -265.5 43t-186 114t-125.5 159q-58 115 -58 256z" />
<glyph unicode="H" horiz-adv-x="1318" d="M36 0v31h37q49 0 78 17q22 12 34 40q9 20 9 104v738q0 86 -9.5 107.5t-37 37.5t-74.5 16h-37v31h586v-31h-37q-49 0 -79 -17q-21 -12 -34 -40q-9 -20 -9 -104v-318h397v318q0 86 -9.5 107.5t-37.5 37.5t-75 16h-36v31h585v-31h-36q-50 0 -79 -17q-21 -12 -33 -40 q-10 -20 -10 -104v-738q0 -86 9.5 -107.5t37.5 -37.5t75 -16h36v-31h-585v31h36q50 0 79 17q21 12 34 40q9 20 9 104v347h-397v-347q0 -86 9.5 -107.5t37.5 -37.5t75 -16h37v-31h-586z" />
<glyph unicode="I" horiz-adv-x="659" d="M34 0v31h37q49 0 79 17q21 12 33 40q9 20 9 104v738q0 86 -9 107.5t-37 37.5t-75 16h-37v31h587v-31h-38q-48 0 -78 -17q-22 -12 -34 -40q-9 -20 -9 -104v-738q0 -86 9.5 -107.5t37 -37.5t74.5 -16h38v-31h-587z" />
<glyph unicode="J" d="M18 213q0 58 35.5 94t87.5 36q50 0 84.5 -32t34.5 -79q0 -23 -6 -41q-3 -8 -26 -41.5t-23 -47.5q0 -22 22 -37q31 -24 82 -24q35 0 58.5 18.5t33 57t9.5 213.5v600q0 86 -9.5 107.5t-37.5 37.5t-75 16h-47v31h596v-31h-36q-50 0 -79 -17q-21 -12 -34 -40q-9 -20 -9 -104 v-549q0 -162 -32 -235t-114.5 -122.5t-198.5 -49.5q-141 0 -228.5 74.5t-87.5 164.5z" />
<glyph unicode="K" horiz-adv-x="1318" d="M38 0v31h37q49 0 79 17q21 12 33 40q9 20 9 104v738q0 86 -9 107.5t-37 37.5t-75 16h-37v31h559v-31q-58 0 -87 -16q-22 -12 -34 -39q-10 -21 -10 -106v-349l416 337q87 70 87 112q0 32 -36 50q-18 9 -90 11v31h438v-31q-59 -4 -92.5 -21t-154.5 -114l-328 -263l394 -494 q84 -105 144 -142q44 -26 93 -26v-31h-584v31q55 5 71.5 17t16.5 31q0 34 -76 130l-258 324l-41 -35v-306q0 -88 10 -109.5t38 -36.5t90 -15v-31h-566z" />
<glyph unicode="L" horiz-adv-x="1130" d="M31 0v31h38q48 0 78 17q22 12 33 40q9 20 9 104v738q0 86 -9 107.5t-36.5 37.5t-74.5 16h-38v31h599v-31h-49q-49 0 -79 -17q-21 -12 -34 -40q-9 -20 -9 -104v-715q0 -86 10 -109.5t39 -35.5q21 -7 100 -7h94q89 0 148.5 31.5t103 99t82.5 200.5h34l-42 -394h-997z" />
<glyph unicode="M" horiz-adv-x="1599" d="M34 0v31h12h5q34 -1 64 11q32 12 48.5 34t25.5 61q2 9 2 85v710q0 85 -9 106t-37 37t-75 16h-36v31h458l316 -740l304 740h457v-31h-37q-49 0 -79 -17q-21 -12 -33 -39q-9 -20 -9 -103v-740q0 -86 9 -107.5t37 -37.5t75 -16h37v-31h-586v31h36q50 0 80 17q21 12 33 40 q9 20 9 104v832l-430 -1024h-20l-437 1016v-790q0 -83 4 -102q11 -41 47 -67t113 -26v-31h-384z" />
<glyph unicode="N" horiz-adv-x="1224" d="M24 0v31q93 0 129 37.5t36 126.5v792l-24 30q-35 45 -62.5 59t-78.5 15v31h398l554 -696v483q0 100 -29 136q-38 46 -127 46h-7v31h371v-31q-71 -9 -95.5 -23.5t-38 -47t-13.5 -111.5v-935h-28l-759 935v-714q0 -97 44 -130.5t102 -33.5h26v-31h-398z" />
<glyph unicode="O" horiz-adv-x="1318" d="M66 564q0 250 170 417q160 158 390 158q14 0 28 -1q15 1 30 1q248 1 406 -157q168 -166 168 -417q0 -213 -125 -376q-166 -215 -468 -215q-303 0 -468 206q-131 162 -131 384zM365 557q0 -287 101 -425q70 -96 197 -96q85 0 142 42q73 53 113.5 169t40.5 303 q0 223 -41.5 333.5t-105.5 156t-148 45.5q-153 0 -234 -157q-65 -130 -65 -371z" />
<glyph unicode="P" horiz-adv-x="1035" d="M43 0v31q78 0 105.5 14.5t39 37.5t11.5 114v728q0 91 -11.5 114.5t-39.5 37.5t-105 14v31h489q242 0 347 -86t105 -215q0 -109 -68 -187t-187 -106q-80 -20 -271 -20v-311q0 -91 11 -114.5t39.5 -37.5t104.5 -14v-31h-570zM458 573q27 -2 41 -2q101 0 155.5 60t54.5 186 q0 125 -54.5 182.5t-163.5 57.5h-33v-484z" />
<glyph unicode="Q" horiz-adv-x="1318" d="M66 563q0 251 169 418t429 167q259 0 427 -167.5t168 -417.5q0 -219 -132 -380t-317 -193q38 -110 118.5 -165.5t200.5 -55.5q34 0 71 7v-51q-125 -31 -224 -31q-154 0 -275 75t-182 221q-204 43 -328.5 199.5t-124.5 373.5zM365 560q0 -288 102 -427q71 -97 196 -97 q126 0 196 96q102 136 102 410q0 270 -64 391q-79 152 -234 152q-149 0 -230 -155q-68 -130 -68 -370z" />
<glyph unicode="R" horiz-adv-x="1224" d="M31 0v31q78 0 106 14.5t39 37.5t11 114v728q0 91 -11 114.5t-39.5 37.5t-105.5 14v31h522q203 0 297.5 -28t154 -104t59.5 -177q0 -125 -89 -206q-57 -51 -160 -77l270 -379q53 -74 75 -92q34 -26 79 -28v-31h-354l-361 511h-74v-314q0 -91 11 -114.5t39.5 -37.5 t105.5 -14v-31h-575zM450 570h47q115 0 172 21t90 76t33 144q0 128 -60 189.5t-193 61.5h-89v-492z" />
<glyph unicode="S" horiz-adv-x="942" d="M88 -26v424h30q37 -179 140.5 -273t223.5 -94q93 0 148 50.5t55 117.5q0 40 -21 77.5t-64 71t-152 86.5q-153 76 -220 129t-103 118t-36 144q0 134 98 228.5t248 94.5q55 0 106 -14q39 -10 95 -36.5t78 -26.5t34 13t23 64h25l9 -374h-34q-24 140 -118 226t-203 86 q-84 0 -133.5 -45.5t-49.5 -103.5q0 -38 18 -67q24 -38 77 -76q38 -28 179 -97q197 -97 266 -183q68 -86 68 -197q0 -141 -110 -242t-278 -101q-53 0 -100.5 10.5t-118.5 40.5q-40 16 -65 16q-22 0 -46 -16.5t-39 -50.5h-30z" />
<glyph unicode="T" horiz-adv-x="1130" d="M61 818v304h1008v-304h-30q-26 105 -58.5 151t-88.5 74q-31 14 -110 14h-84v-865q0 -86 9.5 -107.5t37.5 -37.5t76 -16h37v-31h-587v31h37q49 0 78 17q22 12 34 40q9 20 9 104v865h-81q-113 0 -164 -48q-72 -67 -91 -191h-32z" />
<glyph unicode="U" horiz-adv-x="1224" d="M40 1091v31h579v-31h-29q-65 0 -89.5 -13.5t-35 -37.5t-10.5 -120v-549q0 -151 23 -200t75 -81t131 -32q91 0 155.5 41t96 113t31.5 251v457q0 75 -15.5 107.5t-39.5 44.5q-37 19 -105 19v31h388v-31h-23q-48 0 -79 -19t-45 -57q-11 -26 -11 -95v-426q0 -198 -26 -285.5 t-127 -161t-276 -73.5q-145 0 -225 38q-108 53 -153 136t-45 223v549q0 97 -10.5 120.5t-36.5 37.5q-25 13 -89 13h-9z" />
<glyph unicode="V" horiz-adv-x="1224" d="M13 1091v31h538v-31h-18q-73 0 -99 -18q-19 -12 -19 -36q0 -15 6.5 -35.5t44.5 -108.5l239 -559l222 498q39 90 48.5 120.5t9.5 52.5q0 24 -13.5 43t-38.5 29q-36 14 -95 14v31h368v-31q-61 -10 -109 -65q-35 -41 -103 -194l-387 -858h-27l-385 892q-69 162 -92.5 190 t-89.5 35z" />
<glyph unicode="W" horiz-adv-x="1695" d="M15 1091v31h486v-31q-58 -1 -77.5 -17.5t-19.5 -40.5q0 -31 40 -133l220 -544l177 425l-47 119q-38 98 -58.5 130.5t-47.5 46.5t-79 14v31h544v-31q-57 0 -82 -9q-18 -6 -28 -19.5t-10 -30.5q0 -19 38 -117l204 -531l183 481q29 74 35.5 101.5t6.5 50.5q0 34 -23 53.5 t-89 20.5v31h292v-31q-32 -2 -53.5 -17t-37.5 -46q-5 -9 -52 -128l-352 -926h-32l-278 724l-307 -724h-30l-369 916q-56 138 -78.5 167t-75.5 34z" />
<glyph unicode="X" horiz-adv-x="1224" d="M12 0v31q73 10 115 39q56 38 155 159l223 272l-286 419q-70 104 -80 115q-22 27 -43.5 39t-59.5 17v31h556v-31h-28q-48 0 -67 -15t-19 -38q0 -19 6 -32l57 -86l139 -212l118 145q91 112 91 156q0 23 -12.5 42t-36.5 29.5t-75 10.5v31h413v-31q-49 0 -78.5 -11.5 t-63.5 -41.5q-22 -20 -108 -124l-212 -256l309 -459q77 -115 110 -139t77 -29v-31h-547v31q66 5 85 19.5t19 36.5q0 15 -6 26q-12 25 -58 93l-164 242l-171 -209q-77 -95 -77 -129q0 -24 20 -44.5t59 -29.5q17 -5 71 -5v-31h-431z" />
<glyph unicode="Y" horiz-adv-x="1224" d="M15 1091v31h538v-31h-24q-49 0 -68.5 -14t-19.5 -29q0 -30 66 -150l203 -372l202 339q75 124 75 164q0 23 -21 38q-29 20 -104 24v31h343v-31q-56 -7 -85 -32q-42 -35 -131 -189l-243 -407v-271q0 -87 9 -108t36 -37t71 -16h63v-31h-630v31h59q50 0 79 17q21 12 34 40 q9 20 9 104v225l-264 481q-79 142 -111 167.5t-86 25.5z" />
<glyph unicode="Z" horiz-adv-x="1130" d="M27 0l661 1061h-167q-97 0 -127 -6q-58 -11 -109 -42.5t-84.5 -84.5t-52.5 -134h-31l31 328h886l-659 -1059h213q152 0 212 19q99 30 170 109.5t98 213.5h32l-45 -405h-1028z" />
<glyph unicode="[" horiz-adv-x="564" d="M177 -309v1431h333v-35h-38q-54 0 -72.5 -11t-28 -33t-9.5 -106v-1068q0 -79 3 -91q7 -30 27.5 -44t79.5 -14h38v-29h-333z" />
<glyph unicode="\" horiz-adv-x="471" d="M2 1148h104l370 -1174h-107z" />
<glyph unicode="]" horiz-adv-x="564" d="M55 -278h38q54 0 73 10.5t28.5 33t9.5 105.5v1069q0 79 -4 91q-7 29 -27.5 43.5t-79.5 14.5h-38v33h333v-1431h-333v31z" />
<glyph unicode="^" horiz-adv-x="985" d="M122 551l340 594h68l334 -594h-132l-244 424l-240 -424h-126z" />
<glyph unicode="_" d="M-16 -257h879v-109h-879v109z" />
<glyph unicode="`" horiz-adv-x="564" d="M31 1160h249l96 -287h-70z" />
<glyph unicode="a" d="M76 141q0 89 76 160t332 188v78q0 87 -9.5 110t-36 40t-59.5 17q-54 0 -89 -24q-21 -15 -21 -35q0 -17 23 -43q32 -35 32 -69q0 -40 -30.5 -68.5t-79.5 -28.5q-52 0 -87 31.5t-35 73.5q0 60 47 114t131.5 83t175.5 29q110 0 174 -47t83 -101q12 -35 12 -160v-300 q0 -53 4 -67t12.5 -20.5t18.5 -6.5q22 0 44 31l25 -20q-41 -61 -85.5 -89t-100.5 -28q-66 0 -103.5 31t-45.5 94q-141 -125 -254 -125q-66 0 -110 43.5t-44 108.5zM303 218q0 -38 27 -67q21 -23 58 -23q41 0 96 47v259q-100 -59 -149 -126q-32 -45 -32 -90z" />
<glyph unicode="b" horiz-adv-x="942" d="M36 1091v31h321v-426q97 101 213 101q80 0 150 -47t110 -133t40 -198q0 -127 -50.5 -230.5t-135 -157.5t-193.5 -54q-62 0 -111 20t-96 64l-128 -83h-29v983q0 67 -5 83q-9 23 -26.5 34.5t-59.5 12.5zM357 278q0 -105 5 -134q8 -49 39.5 -79t80.5 -30q42 0 72 24t50.5 95 t20.5 256q0 178 -45 244q-32 48 -87 48q-71 0 -136 -80v-344z" />
<glyph unicode="c" horiz-adv-x="752" d="M65 374q0 158 84 278q102 145 280 145q120 0 191 -60.5t71 -134.5q0 -48 -28.5 -76t-75.5 -28q-48 0 -80 32.5t-40 114.5q-4 53 -23 73q-20 21 -45 21q-40 0 -68 -42q-43 -64 -43 -196q0 -109 34.5 -208.5t95.5 -148.5q45 -36 107 -36q41 0 77.5 19t85.5 72l26 -19 q-55 -103 -136.5 -153t-172.5 -50q-155 0 -247.5 116.5t-92.5 280.5z" />
<glyph unicode="d" horiz-adv-x="942" d="M65 373q0 125 43 224t118 149.5t161 50.5q56 0 99 -21.5t92 -75.5v233q0 89 -8 107q-10 24 -30 35.5t-74 11.5v35h343v-890q0 -91 5 -107q7 -27 25.5 -40.5t64.5 -16.5v-27l-326 -64v122q-59 -71 -105 -96.5t-104 -25.5q-148 0 -234 132q-70 108 -70 264zM308 410 q0 -146 21.5 -216.5t58.5 -101.5q19 -16 52 -16q73 0 138 114v407q-62 118 -150 118q-31 0 -51 -17q-30 -25 -49.5 -89.5t-19.5 -198.5z" />
<glyph unicode="e" horiz-adv-x="752" d="M65 374q0 194 105 308.5t245 114.5q118 0 204.5 -96.5t92.5 -285.5h-424q7 -154 82 -244q57 -68 137 -68q50 0 90.5 27.5t86.5 99.5l28 -18q-62 -128 -138.5 -181.5t-176.5 -53.5q-172 0 -260 132q-72 107 -72 265zM284 470h225q0 133 -14.5 182.5t-45.5 75.5 q-17 15 -46 15q-43 0 -70 -42q-49 -74 -49 -202v-29z" />
<glyph unicode="f" horiz-adv-x="564" d="M55 0v30q52 1 74 12t30 31t8 83v537h-112v81h112v57l-1 39q0 119 87.5 198.5t236.5 79.5q102 0 151 -38t49 -85q0 -37 -30.5 -64.5t-81.5 -27.5q-43 0 -68 22.5t-25 49.5q0 8 5 31q3 14 3 26q0 18 -10 26q-13 12 -32 12q-24 0 -40 -19.5t-16 -63.5l1 -145v-98h115v-81 h-115v-537q0 -78 17 -98q24 -28 86 -28h12v-30h-456z" />
<glyph unicode="g" d="M64 -213q0 38 28.5 68t106.5 51q-108 53 -108 147q0 57 44 111t139 93q-111 41 -160.5 107t-49.5 153q0 114 92.5 197t238.5 83q77 0 159 -32h260v-91h-148q41 -41 56 -74q20 -45 20 -94q0 -82 -46 -143t-125 -95.5t-140 -34.5q-5 0 -99 4q-37 0 -62.5 -24t-25.5 -58 q0 -30 23 -49t74 -19l143 2q174 0 239 -39q94 -52 94 -163q0 -70 -43 -127.5t-114 -84.5q-106 -41 -245 -41q-105 0 -191 20.5t-123 56.5t-37 76zM203 -198q0 -42 48.5 -76.5t183.5 -34.5q115 0 181 31t66 86q0 21 -13 35q-22 25 -67 34t-240 9q-85 0 -112 -14 q-47 -26 -47 -70zM296 496q0 -123 33 -169t77 -46q50 0 83 45.5t33 177.5q0 148 -37 202q-27 40 -75 40t-81 -48.5t-33 -201.5z" />
<glyph unicode="h" horiz-adv-x="942" d="M58 0v30q49 5 69 31q14 18 14 107v786q0 88 -16 109.5t-67 27.5v31h315v-448q64 67 117 95t110 28q73 0 124.5 -41.5t68.5 -97.5t17 -188v-302q0 -89 16.5 -110.5t67.5 -27.5v-30h-393v30q42 6 62 33q15 21 15 105v345q0 96 -7.5 120.5t-25 38t-39.5 13.5 q-34 0 -65 -22.5t-68 -79.5v-415q0 -83 13 -103q15 -29 64 -35v-30h-392z" />
<glyph unicode="i" horiz-adv-x="471" d="M35 0v30q51 1 76 30q16 19 16 101v451q0 82 -19 105t-73 26v31h324v-613q0 -82 19 -105t75 -26v-30h-418zM116 1020q0 53 37 90.5t90 37.5q54 0 91.5 -37.5t37.5 -90.5t-38 -90t-91 -37t-90 37t-37 90z" />
<glyph unicode="j" horiz-adv-x="564" d="M-47 -224q0 36 25 63t59 27q32 0 50 -18.5t18 -56.5q0 -9 -1 -23q-1 -17 -1 -24q0 -29 13 -43t34 -14q19 0 32.5 16.5t13.5 47.5q0 16 -5 67q-8 92 -9 111l-2 196v478v43q0 52 -17.5 71.5t-74.5 25.5v31h322v-801q0 -113 -14 -167q-20 -77 -82 -124.5t-163 -47.5 t-149.5 41.5t-48.5 100.5zM168 1022q0 52 37 89t90 37t89.5 -37t36.5 -89q0 -53 -37 -90.5t-89 -37.5q-53 0 -90 37.5t-37 90.5z" />
<glyph unicode="k" horiz-adv-x="942" d="M56 0v30q49 5 70 31q14 18 14 107v786q0 88 -16 109.5t-68 27.5v31h316v-738l179 176q56 54 69.5 78t13.5 46q0 23 -18.5 37.5t-71.5 21.5v31h347v-31q-50 -2 -87 -23.5t-145 -127.5l-85 -82l182 -267q110 -162 131 -182q28 -28 71 -31v-30h-399v30q26 0 38 10t12 21 q0 19 -35 71l-153 224l-49 -49v-139q0 -89 16.5 -110.5t67.5 -27.5v-30h-400z" />
<glyph unicode="l" horiz-adv-x="471" d="M36 0v30q51 1 76 30q16 19 16 101v800q0 82 -19 104.5t-73 25.5v31h324v-961q0 -82 19 -105t74 -26v-30h-417z" />
<glyph unicode="m" horiz-adv-x="1412" d="M63 0v30q49 5 69 31q14 18 14 108v437q0 87 -16 108.5t-67 28.5v31h315v-102q64 69 118 97t119 28q74 0 124.5 -35t78.5 -106q66 75 126.5 108t127.5 33q80 0 127.5 -37t66 -93.5t18.5 -180.5v-317q0 -90 16 -111.5t68 -27.5v-30h-400v30q47 4 70 36q14 23 14 103v332 q0 104 -8 132t-26 41.5t-42 13.5q-35 0 -71.5 -26t-73.5 -78v-415q0 -84 14 -105q19 -31 73 -34v-30h-401v30q32 1 51 15.5t25 35t6 88.5v332q0 106 -8 132t-27.5 41t-42.5 15q-33 0 -60 -17q-39 -26 -83 -88v-415q0 -82 16 -108t68 -31v-30h-399z" />
<glyph unicode="n" horiz-adv-x="942" d="M58 0v30q49 5 69 31q14 18 14 108v437q0 87 -16 108.5t-67 28.5v31h315v-100q60 64 114.5 93.5t117.5 29.5q75 0 124.5 -42t66.5 -104q13 -47 13 -181v-301q0 -90 16 -111.5t68 -27.5v-30h-392v30q44 6 63 36q14 21 14 103v344q0 95 -7.5 120t-25.5 38.5t-39 13.5 q-72 0 -133 -102v-414q0 -87 16 -110t60 -29v-30h-391z" />
<glyph unicode="o" d="M61 383q0 166 96.5 290t264.5 124q101 0 188 -52t132 -148t45 -211q0 -164 -84 -275q-101 -134 -279 -134q-174 0 -268.5 122.5t-94.5 283.5zM304 319q0 -88 11 -165q9 -59 39 -89.5t68 -30.5q37 0 62 21q32 28 43 78q17 79 17 318q0 141 -16 193.5t-46 76.5 q-22 17 -57 17q-42 0 -72 -32t-39.5 -125.5t-9.5 -261.5z" />
<glyph unicode="p" horiz-adv-x="942" d="M32 -332q52 2 76 29q17 19 17 99v816q0 82 -19 105t-74 26v31h325v-102q40 59 82 86q61 39 132 39q85 0 155 -54t106.5 -148.5t36.5 -203.5q0 -118 -37.5 -215t-109.5 -148t-159 -51q-64 0 -119 28q-42 21 -87 74v-288q0 -60 9.5 -81.5t29 -31.5t77.5 -10v-30h-441v30z M357 162q71 -101 152 -101q45 0 74 47q43 70 43 265q0 200 -48 274q-31 49 -84 49q-84 0 -137 -121v-413z" />
<glyph unicode="q" horiz-adv-x="942" d="M65 354q0 120 50.5 225.5t139.5 161.5t189 56q66 0 117.5 -22.5t88.5 -67.5l130 90h28v-1002q0 -76 14 -95q21 -31 87 -32v-30h-447v30q51 0 74 11.5t32 30.5t9 78v293q-51 -53 -95 -74q-58 -30 -120 -30q-146 0 -230 130q-67 103 -67 247zM306 369q0 -178 47 -250 q33 -49 84 -49q30 0 67.5 21t72.5 65v319q0 133 -14.5 176t-53.5 75q-20 15 -51 15q-62 0 -97 -55q-55 -85 -55 -317z" />
<glyph unicode="r" horiz-adv-x="752" d="M62 0v30q51 4 68.5 27.5t17.5 124.5v428q0 66 -7 84q-8 23 -23.5 34t-55.5 15v31h316v-176q77 120 135 159.5t112 39.5q46 0 73.5 -28.5t27.5 -80.5q0 -56 -26.5 -86.5t-64.5 -30.5q-44 0 -76.5 28t-38.5 32q-8 4 -19 4q-24 0 -45 -18q-34 -28 -51 -80q-27 -80 -27 -177 v-178l1 -46q0 -47 6 -61q10 -22 29.5 -32.5t65.5 -12.5v-30h-418z" />
<glyph unicode="s" horiz-adv-x="659" d="M67 563q0 89 61.5 161.5t178.5 72.5q63 0 122 -31q22 -12 36 -12q15 0 24 6t29 35h28l13 -264h-29q-50 118 -104 161t-108 43q-34 0 -58 -23t-24 -53q0 -22 16 -43q27 -33 148.5 -115.5t160 -140t38.5 -128.5q0 -65 -32 -127t-91 -95t-130 -33q-56 0 -148 35q-25 9 -34 9 q-27 0 -46 -42h-27l-13 278h28q37 -109 102 -163.5t123 -54.5q40 0 65 24.5t25 58.5q0 40 -24.5 69t-111.5 88q-126 88 -163 134q-55 68 -55 150z" />
<glyph unicode="t" horiz-adv-x="564" d="M31 692v29q105 73 178 154.5t128 181.5h27v-283h184v-82h-184v-478q0 -67 6 -86.5t22 -31.5t29 -12q54 0 102 82l25 -18q-34 -80 -88.5 -119.5t-129.5 -39.5q-73 0 -124 41t-65 92q-9 28 -9 152v418h-101z" />
<glyph unicode="u" horiz-adv-x="942" d="M52 743v31h315v-529q0 -83 8 -107t25 -36.5t39 -12.5q30 0 54 16q33 22 80 87v414q0 87 -16.5 108.5t-67.5 28.5v31h315v-606q0 -89 16.5 -110.5t67.5 -27.5v-30h-315v103q-56 -66 -111.5 -96t-123.5 -30q-66 0 -117 40t-68 94t-17 188v307q0 87 -16.5 108.5t-67.5 28.5z " />
<glyph unicode="v" d="M16 743v31h411v-31q-39 0 -53 -14q-20 -18 -20 -43q0 -31 37 -115l127 -291l102 251q44 108 44 152q0 26 -19 42t-66 18v31h253v-31q-36 -5 -59 -27.5t-70 -131.5l-258 -607h-39l-260 600q-48 108 -74 137q-19 22 -56 29z" />
<glyph unicode="w" horiz-adv-x="1224" d="M14 743v31h391v-31q-40 0 -55 -11.5t-15 -26.5q0 -14 27 -84l113 -302l109 302l-8 19q-25 62 -43.5 79t-57.5 24v31h396v-31q-46 -2 -58.5 -12.5t-12.5 -29.5q0 -18 24 -80l109 -302l100 278q21 59 21 81q0 32 -15.5 47t-61.5 18v31h229v-31q-38 -5 -60 -27t-58 -124 l-217 -615h-47l-212 567l-207 -567h-43l-206 561q-47 128 -79 167q-21 26 -63 38z" />
<glyph unicode="x" d="M39 0v30q56 0 103 31t136 162l64 95l-133 246q-66 121 -98 148.5t-72 30.5v31h428v-31l-22 -1l-43 -15q-6 -5 -6 -19q0 -12 4 -25q2 -6 23 -45l60 -113l32 45q66 91 66 128q0 17 -14.5 29t-51.5 16v31h274v-31q-51 -2 -95 -31t-98 -114l-81 -124l134 -255 q69 -133 110 -169q22 -19 61 -20v-30h-431v30q50 4 62 13t12 25q0 23 -26 73l-67 125l-57 -83q-39 -57 -44 -68q-7 -16 -7 -28q0 -19 8 -32t21.5 -19t50.5 -6v-30h-303z" />
<glyph unicode="y" d="M14 743v31h411v-31q-40 -2 -56.5 -16t-16.5 -34q0 -31 41 -124l132 -303l91 235q48 125 48 173q0 31 -20 49t-71 20v31h259v-31q-38 -4 -62 -29.5t-81 -171.5l-221 -573q-83 -216 -124 -265q-57 -70 -143 -70q-69 0 -111.5 39.5t-42.5 94.5q0 48 29.5 79.5t72.5 31.5 q41 0 66.5 -26.5t26.5 -81.5q0 -32 7 -41t19 -9q20 0 42 24q33 35 78 159l24 65l-250 573q-56 130 -83 159.5t-65 41.5z" />
<glyph unicode="z" horiz-adv-x="752" d="M17 0v18l426 705h-124q-81 0 -115.5 -14.5t-56 -46t-44.5 -113.5h-29v225h651v-23l-422 -698h53q159 0 229 45.5t106 166.5h23l-23 -265h-674z" />
<glyph unicode="{" horiz-adv-x="668" d="M137 378v51q79 13 120.5 61t41.5 117q0 56 -19 126q-25 99 -25 150q0 54 32 109.5t81 90t107 50.5q45 12 121 15v-38q-83 -15 -122.5 -58t-39.5 -97q0 -56 20 -138t20 -143q0 -57 -33.5 -115t-96.5 -100q-44 -29 -140 -54q103 -33 149 -64q62 -42 92.5 -99t30.5 -109 q0 -49 -20.5 -132t-20.5 -144q0 -59 38 -101.5t123 -59.5v-39h-29q-85 0 -160.5 39.5t-114 102t-38.5 121.5q0 57 26 156q19 74 19 132q0 65 -41.5 111t-120.5 59z" />
<glyph unicode="|" horiz-adv-x="373" d="M132 -366v1514h107v-1514h-107z" />
<glyph unicode="}" horiz-adv-x="668" d="M75 -304q82 15 122 57.5t40 97.5t-20 137t-20 144q0 57 33 115t97 100q44 28 140 54q-103 33 -149 64q-62 42 -93 99t-31 109q0 49 20.5 132t20.5 143t-37 102t-123 60v38h29q84 1 160 -38.5t114.5 -102t38.5 -122.5q0 -56 -26 -155q-19 -74 -19 -132q0 -65 41 -111.5 t122 -58.5v-51q-81 -13 -122 -61t-41 -117q0 -56 19 -126q24 -99 24 -150q0 -55 -31.5 -110t-80.5 -89.5t-107 -50.5q-45 -12 -121 -16v39z" />
<glyph unicode="~" horiz-adv-x="881" d="M10 320q7 136 67.5 201.5t147.5 65.5q44 0 86 -11q84 -24 231 -87q79 -35 122 -46q24 -7 53 -7q59 0 99 39t48 112h47q-5 -132 -68.5 -200t-154.5 -68q-43 0 -92.5 14.5t-217.5 84.5q-121 50 -174 50q-57 0 -94.5 -34t-51.5 -114h-48z" />
<glyph unicode="&#xa1;" horiz-adv-x="564" d="M145 -226q0 62 41 235l44 180q23 96 34 229h37q5 -94 37 -229l43 -180q39 -162 39 -232q0 -64 -38 -103.5t-99 -39.5q-60 0 -99 40t-39 100zM147 670q0 56 39.5 95.5t94.5 39.5q57 0 95.5 -39.5t38.5 -95.5q0 -55 -39 -94.5t-95 -39.5q-55 0 -94.5 39.5t-39.5 94.5z" />
<glyph unicode="&#xa2;" d="M106 377q0 171 99 294t253 123q32 0 77 -4l124 325h60l-131 -341q74 -28 108.5 -74t34.5 -98q0 -47 -28.5 -75.5t-72.5 -28.5q-42 0 -69.5 20t-44.5 67l-131 -346q37 -67 79.5 -98.5t98.5 -31.5q91 0 165 92l27 -19q-111 -205 -317 -205q-72 0 -139 35l-127 -324h-57 l136 357q-72 59 -108.5 145t-36.5 187zM328 516q0 -86 27 -199l143 377q-26 46 -59 46q-39 0 -68 -43q-43 -62 -43 -181z" />
<glyph unicode="&#xa3;" d="M29 114q0 60 46.5 104t128.5 44q18 0 38.5 -3t43.5 -11q-4 52 -13 88l-59 186h-179v126h153q-13 92 -13 141q0 134 77 238q93 125 240 125q108 0 180.5 -64t72.5 -141q0 -51 -30.5 -82.5t-78.5 -31.5q-50 0 -80.5 31.5t-30.5 82.5q0 9 2 43q1 15 1 28q0 40 -17 59 q-19 19 -50 19q-29 0 -49 -24t-20 -75q0 -60 21.5 -171t28.5 -178h181v-126h-170q1 -42 1 -64q0 -120 -40 -243q44 -10 89 -15t91 -5q88 0 135 28q33 19 50 62h34q0 -146 -73.5 -227t-181.5 -81q-52 0 -96.5 19.5t-113.5 76.5q-35 -48 -69 -69q-46 -27 -99 -27 q-67 0 -109 41.5t-42 95.5zM95 108q0 -25 21 -44t50 -19q32 0 61 21t49 69q-34 24 -54.5 32t-44.5 8q-39 0 -60.5 -19.5t-21.5 -47.5z" />
<glyph unicode="&#xa4;" d="M17 885l77 76l110 -111q103 74 216 74q111 0 225 -74l114 111l73 -72l-115 -115q72 -101 72 -215q0 -112 -72 -220l106 -106l-76 -75l-107 107q-67 -42 -113.5 -56.5t-104.5 -14.5q-61 0 -109.5 16t-108.5 55l-110 -107l-72 75l108 106q-73 97 -73 216q0 58 18 116 t55 103zM163 559q0 -108 76 -183.5t183 -75.5q108 0 183.5 75.5t75.5 183.5q0 106 -75.5 182t-183.5 76t-183.5 -76t-75.5 -182z" />
<glyph unicode="&#xa5;" d="M0 239v63h304v113l-11 33h-293v63h271l-152 421q-36 100 -66 131q-18 19 -53 23v36h408v-36q-51 -1 -66.5 -12.5t-15.5 -25.5q0 -18 24 -84l165 -453l135 393q33 95 33 134q0 24 -14.5 35t-65.5 13v36h243v-36q-38 -11 -64.5 -40t-59.5 -124l-142 -411h266v-63h-288 l-11 -33v-113h299v-63h-299v-36q0 -76 7 -98q11 -36 37.5 -55t89.5 -19h30v-31h-588v31h28q69 0 100 16.5t42 43t11 115.5v33h-304z" />
<glyph unicode="&#xa6;" horiz-adv-x="373" d="M132 239h107v-605h-107v605zM132 544v604h107v-604h-107z" />
<glyph unicode="&#xa7;" d="M76 384q0 72 40 138.5t137 145.5q-68 60 -97 112.5t-29 111.5q0 101 85 178.5t219 77.5q125 0 201.5 -63.5t76.5 -137.5q0 -44 -27 -72.5t-68 -28.5t-66.5 26t-25.5 61q0 16 5 40.5t5 40.5q0 33 -26 55.5t-77 22.5q-62 0 -104 -39t-42 -84q0 -53 34 -97q33 -45 156 -122 q298 -185 298 -370q0 -74 -39.5 -135.5t-138.5 -129.5q73 -70 99 -121t26 -111q0 -69 -35.5 -126t-106 -90t-161.5 -33q-131 0 -201.5 60.5t-70.5 139.5q0 42 28 71.5t70 29.5q39 0 66 -26.5t27 -59.5q0 -19 -10 -48t-10 -48q0 -23 24.5 -42t76.5 -19q73 0 113 35.5t40 83.5 q0 56 -27 92q-37 49 -157 122q-150 92 -238 196q-70 84 -70 163zM219 488q0 -40 24 -82t81 -88l227 -169q44 40 62 74.5t18 69.5q0 39 -19 73q-30 53 -91 100q-29 23 -223 165q-79 -68 -79 -143z" />
<glyph unicode="&#xa8;" horiz-adv-x="564" d="M18 1022q0 45 32.5 77.5t77.5 32.5q47 0 78.5 -32.5t31.5 -77.5q0 -46 -32 -78t-78 -32q-45 0 -77.5 32t-32.5 78zM328 1022q0 45 32 77.5t78 32.5t78 -32.5t32 -77.5q0 -46 -32.5 -78t-77.5 -32q-46 0 -78 32t-32 78z" />
<glyph unicode="&#xa9;" horiz-adv-x="1266" d="M49 561q0 153 79 294t219.5 217t287.5 76q149 0 289.5 -76t219.5 -217t79 -294q0 -152 -78 -292t-217.5 -217.5t-292.5 -77.5q-152 0 -291.5 77.5t-217 217.5t-77.5 292zM122 561q0 -133 68 -255t190.5 -190t254.5 -68q134 0 256 68t189.5 190t67.5 255t-68.5 257 t-191.5 190t-253 66q-129 0 -251.5 -66t-192 -190t-69.5 -257zM278 553q0 158 103.5 260.5t260.5 102.5q71 0 163 -33q27 -10 38 -10q15 0 25.5 10t12.5 32h32v-218h-32q-16 83 -72 130.5t-131 47.5q-91 0 -152.5 -72t-61.5 -229q0 -167 60 -238t150 -71q122 0 215 114v-58 q-100 -105 -263 -105q-155 0 -251.5 94t-96.5 243z" />
<glyph unicode="&#xaa;" horiz-adv-x="508" d="M38 754q0 43 36 80q46 49 229 127v46q0 52 -6 65.5t-23 24.5t-41 11q-34 0 -57 -16q-13 -8 -13 -20q0 -10 16 -25q20 -22 20 -41q0 -25 -19 -42t-52 -17q-35 0 -57 19t-22 45q0 46 49 83q67 51 173 51q68 0 113 -23.5t57 -53t12 -107.5v-181q0 -32 2.5 -40t8 -12t13.5 -4 q14 0 28 18l16 -11q-52 -71 -121 -71q-44 0 -67.5 19t-29.5 57q-91 -76 -164 -76q-46 0 -73.5 27t-27.5 67zM185 799q0 -23 15.5 -39t39.5 -16q28 0 63 28v153q-66 -35 -97 -74q-21 -26 -21 -52z" />
<glyph unicode="&#xab;" d="M30 388l350 379h65l-198 -379l198 -381h-65zM406 388l346 379h65l-195 -379l195 -381h-65z" />
<glyph unicode="&#xac;" horiz-adv-x="966" d="M34 640v106h905v-376h-107v272z" />
<glyph unicode="&#xad;" horiz-adv-x="564" d="M41 304v171h483v-171h-483z" />
<glyph unicode="&#xae;" horiz-adv-x="1266" d="M49 561q0 153 79 294t219.5 217t287.5 76q149 0 289.5 -76t219.5 -217t79 -294q0 -152 -78 -292t-217.5 -217.5t-292.5 -77.5q-152 0 -291.5 77.5t-217 217.5t-77.5 292zM122 561q0 -133 68 -255t190.5 -190t254.5 -68q134 0 256 68t189.5 190t67.5 255t-68.5 257 t-191.5 190t-253 66q-129 0 -251.5 -66t-192 -190t-69.5 -257zM309 233v28q51 0 66 17q21 24 21 95v391q0 68 -14.5 86.5t-59.5 23.5v28h299q152 0 211 -37q83 -52 83 -144q0 -59 -37 -105t-111 -67l113 -206q25 -45 52 -67q12 -11 35 -15v-28h-200l-170 304h-38v-164 q0 -70 19 -90t81 -22v-28h-350zM559 579q28 -4 48 -4q53 0 91.5 40.5t38.5 108.5q0 70 -36 105.5t-110 35.5h-32v-286z" />
<glyph unicode="&#xaf;" d="M-16 1212v109h879v-109h-879z" />
<glyph unicode="&#xb0;" horiz-adv-x="678" d="M49 859q0 74 38.5 143.5t107 106t140.5 36.5t140.5 -36.5t107 -106t38.5 -143.5q0 -118 -84 -202t-202 -84t-202 84t-84 202zM157 860q0 -74 52 -126t126 -52t126 52t52 126q0 73 -52 125.5t-126 52.5t-126 -52.5t-52 -125.5z" />
<glyph unicode="&#xb1;" horiz-adv-x="930" d="M12 221h399v285h-398v110h398v397h109v-397h398v-110h-398v-284h398v-109h-905z" />
<glyph unicode="&#xb2;" horiz-adv-x="508" d="M20 549v15q188 195 222 257t34 115q0 42 -28.5 70.5t-71.5 28.5q-70 0 -111 -68l-34 11q26 84 81.5 125.5t131.5 41.5q86 0 139 -47t53 -104q0 -51 -42.5 -120t-201.5 -203h126q60 0 75 7.5t30 35.5l6 12h38l-38 -177h-409z" />
<glyph unicode="&#xb3;" horiz-adv-x="508" d="M12 610q0 21 18.5 36.5t46.5 15.5q17 0 36 -8q9 -3 54 -35.5t84 -32.5q32 0 54.5 23.5t22.5 59.5q0 55 -44 102.5t-139 66.5v23q72 17 91 33q38 32 38 75q0 33 -25.5 57t-68.5 24q-63 0 -110 -65l-34 11q74 149 222 149q78 0 124 -39t46 -88q0 -69 -80 -112 q110 -52 110 -149q0 -87 -75 -153.5t-208 -66.5q-93 0 -134 27q-29 19 -29 46z" />
<glyph unicode="&#xb4;" horiz-adv-x="564" d="M189 873l96 287h249l-274 -287h-71z" />
<glyph unicode="&#xb5;" horiz-adv-x="976" d="M65 -268q0 36 20 114q27 104 34 164t7 204v560h230v-575q1 -65 18.5 -87t51.5 -22q75 0 137 100v584h229v-517l1 -44q0 -67 16 -89t40 -22q19 0 34 20q22 29 29 99h35q-3 -117 -64 -180.5t-149 -63.5q-60 0 -102.5 31.5t-63.5 98.5q-62 -69 -119 -99.5t-121 -30.5 q-33 0 -58 8.5t-66 37.5q0 -50 4.5 -79.5t24.5 -100.5t20 -99q0 -51 -27 -80t-71 -29q-42 0 -66 25.5t-24 71.5z" />
<glyph unicode="&#xb6;" horiz-adv-x="915" d="M1 747q0 85 20.5 140t65.5 105t92.5 77t108.5 38q79 15 266 15h364v-36h-37q-49 0 -73.5 -15t-37.5 -43q-9 -21 -9 -110v-1284h-82v1425h-150v-1425h-83v721q-154 7 -249.5 51.5t-145.5 136t-50 204.5z" />
<glyph unicode="&#xb7;" horiz-adv-x="424" d="M74 560q0 58 40.5 98.5t98.5 40.5q57 0 97.5 -40.5t40.5 -98.5q0 -57 -40.5 -97.5t-97.5 -40.5q-58 0 -98.5 40.5t-40.5 97.5z" />
<glyph unicode="&#xb8;" horiz-adv-x="564" d="M120 -280q83 4 112 27.5t29 64.5q0 25 -19 41.5t-56 16.5l98 140h54l-38 -60q49 -9 75 -40.5t26 -79.5q0 -43 -25.5 -79t-65.5 -50q-63 -20 -190 -20v39z" />
<glyph unicode="&#xb9;" horiz-adv-x="508" d="M61 1045l253 100h29v-474q0 -55 5 -70q4 -10 18 -17.5t49 -7.5h25v-27h-369v27h27q43 0 60 8q11 6 15 15q7 17 7 72v297q0 38 -3 47t-12 15t-24 6q-23 0 -65 -17z" />
<glyph unicode="&#xba;" horiz-adv-x="559" d="M46 897q0 109 67 178.5t167 69.5q104 0 171 -68t67 -178t-66 -178t-169 -68q-104 0 -170.5 68t-66.5 176zM204 855q0 -102 21.5 -134t55.5 -32q25 0 43.5 14.5t24.5 42.5q11 48 11 188q0 113 -20.5 144t-55.5 31q-26 0 -44.5 -15t-24.5 -45q-11 -49 -11 -194z" />
<glyph unicode="&#xbb;" d="M31 7l194 381l-194 379h65l345 -379l-345 -381h-65zM403 7l197 381l-197 379h65l350 -379l-350 -381h-65z" />
<glyph unicode="&#xbc;" horiz-adv-x="1271" d="M61 1045l253 100h29v-474q0 -55 5 -70q4 -10 18 -17.5t49 -7.5h25v-27h-369v27h27q43 0 60 8q11 6 15 15q7 17 7 72v297q0 38 -3 47t-12 15t-24 6q-23 0 -65 -17zM202 -49l797 1194h109l-797 -1194h-109zM779 90v94l318 376h76v-376h61v-94h-61v-128h-149v128h-245z M848 184h176v206z" />
<glyph unicode="&#xbd;" horiz-adv-x="1271" d="M61 1045l253 100h29v-474q0 -55 5 -70q4 -10 18 -17.5t49 -7.5h25v-27h-369v27h27q43 0 60 8q11 6 15 15q7 17 7 72v297q0 38 -3 47t-12 15t-24 6q-23 0 -65 -17zM181 -49l797 1194h109l-797 -1194h-109zM784 -23q188 195 222 257t34 115q0 42 -28.5 70.5t-71.5 28.5 q-70 0 -111 -68l-34 11q26 84 81.5 125.5t131.5 41.5q86 0 139 -47t53 -104q0 -51 -42.5 -120t-201.5 -203h126q60 0 75 7.5t30 35.5l6 12h38l-38 -177h-409v15z" />
<glyph unicode="&#xbe;" horiz-adv-x="1271" d="M12 610q0 21 18.5 36.5t46.5 15.5q17 0 36 -8q9 -3 54 -35.5t84 -32.5q32 0 54.5 23.5t22.5 59.5q0 55 -44 102.5t-139 66.5v23q72 17 91 33q38 32 38 75q0 33 -25.5 57t-68.5 24q-63 0 -110 -65l-34 11q74 149 222 149q78 0 124 -39t46 -88q0 -69 -80 -112 q110 -52 110 -149q0 -87 -75 -153.5t-208 -66.5q-93 0 -134 27q-29 19 -29 46zM202 -49l797 1194h109l-797 -1194h-109zM780 90v94l318 376h76v-376h61v-94h-61v-128h-149v128h-245zM849 184h176v206z" />
<glyph unicode="&#xbf;" d="M95 -103q0 78 42.5 144.5t166.5 147.5q83 55 109 97.5t32 129.5h34q2 -91 -9 -136.5t-54 -125.5t-56.5 -128t-13.5 -119q0 -111 43 -163t102 -52q44 0 75 24q23 18 23 38q0 13 -16 42q-35 63 -35 109q0 40 27.5 67.5t69.5 27.5q45 0 77 -32.5t32 -86.5q0 -99 -84.5 -173 t-235.5 -74q-161 0 -245 77t-84 186zM320 671q0 55 39 94t95 39t94.5 -39t38.5 -94t-39 -94t-94 -39t-94.5 39t-39.5 94z" />
<glyph unicode="&#xc0;" horiz-adv-x="1224" d="M13 0v31q61 9 99.5 50t96.5 169l401 895h16l404 -920q58 -131 95 -165q28 -25 80 -29v-31h-543v31h22q66 0 92 18q18 13 18 38q0 15 -5 30q-1 8 -24 63l-60 139h-396l-48 -109q-23 -54 -23 -90q0 -47 38 -70q23 -13 110 -19v-31h-373zM338 381h339l-167 386zM357 1505 h249l96 -287h-70z" />
<glyph unicode="&#xc1;" horiz-adv-x="1224" d="M13 0v31q61 9 99.5 50t96.5 169l401 895h16l404 -920q58 -131 95 -165q28 -25 80 -29v-31h-543v31h22q66 0 92 18q18 13 18 38q0 15 -5 30q-1 8 -24 63l-60 139h-396l-48 -109q-23 -54 -23 -90q0 -47 38 -70q23 -13 110 -19v-31h-373zM338 381h339l-167 386zM515 1218 l96 287h249l-274 -287h-71z" />
<glyph unicode="&#xc2;" horiz-adv-x="1224" d="M13 0v31q61 9 99.5 50t96.5 169l401 895h16l404 -920q58 -131 95 -165q28 -25 80 -29v-31h-543v31h22q66 0 92 18q18 13 18 38q0 15 -5 30q-1 8 -24 63l-60 139h-396l-48 -109q-23 -54 -23 -90q0 -47 38 -70q23 -13 110 -19v-31h-373zM338 381h339l-167 386zM341 1194 l177 311h187l168 -311h-64l-197 165l-203 -165h-68z" />
<glyph unicode="&#xc3;" horiz-adv-x="1224" d="M13 0v31q61 9 99.5 50t96.5 169l401 895h16l404 -920q58 -131 95 -165q28 -25 80 -29v-31h-543v31h22q66 0 92 18q18 13 18 38q0 15 -5 30q-1 8 -24 63l-60 139h-396l-48 -109q-23 -54 -23 -90q0 -47 38 -70q23 -13 110 -19v-31h-373zM338 381h339l-167 386zM343 1222 q-3 107 49.5 168.5t129.5 61.5q24 0 41 -5q23 -7 79 -33q86 -39 122 -39q18 0 34.5 14.5t31.5 60.5h44q1 -17 1 -28q0 -91 -51.5 -146.5t-124.5 -55.5q-53 0 -134.5 39t-109.5 39q-24 0 -41 -16.5t-23 -59.5h-48z" />
<glyph unicode="&#xc4;" horiz-adv-x="1224" d="M13 0v31q61 9 99.5 50t96.5 169l401 895h16l404 -920q58 -131 95 -165q28 -25 80 -29v-31h-543v31h22q66 0 92 18q18 13 18 38q0 15 -5 30q-1 8 -24 63l-60 139h-396l-48 -109q-23 -54 -23 -90q0 -47 38 -70q23 -13 110 -19v-31h-373zM338 381h339l-167 386zM346 1343 q0 45 32.5 77.5t77.5 32.5q47 0 78.5 -32.5t31.5 -77.5q0 -46 -32 -78t-78 -32q-45 0 -77.5 32t-32.5 78zM656 1343q0 45 32 77.5t78 32.5t78 -32.5t32 -77.5q0 -46 -32.5 -78t-77.5 -32q-46 0 -78 32t-32 78z" />
<glyph unicode="&#xc5;" horiz-adv-x="1224" d="M13 0v31q61 9 99.5 50t96.5 169l401 895h16l404 -920q58 -131 95 -165q28 -25 80 -29v-31h-543v31h22q66 0 92 18q18 13 18 38q0 15 -5 30q-1 8 -24 63l-60 139h-396l-48 -109q-23 -54 -23 -90q0 -47 38 -70q23 -13 110 -19v-31h-373zM338 381h339l-167 386zM448 1252 q0 72 50.5 122.5t122.5 50.5q73 0 123.5 -50.5t50.5 -122.5t-51 -123t-123 -51q-71 0 -122 51t-51 123zM512 1252q0 -45 32 -77t78 -32q45 0 77 32t32 77q0 46 -32 77.5t-77 31.5q-46 0 -78 -31.5t-32 -77.5z" />
<glyph unicode="&#xc6;" horiz-adv-x="1695" d="M-19 0v31q45 5 82.5 32.5t97.5 122.5l454 723q56 90 56 112q0 20 -13 37.5t-36 25t-101 7.5v31h1018v-333h-32q-22 110 -63.5 166.5t-103 79t-198.5 22.5h-88v-455h30q78 0 128.5 55t71.5 208h29v-587h-29q-11 98 -45 166q-22 46 -63.5 73t-91.5 27h-30v-342q0 -73 4 -89 q7 -25 29 -38.5t91 -13.5h66q81 0 155 38t115.5 95t72.5 159h31l-51 -353h-984v31h62q73 0 100.5 19.5t35.5 51.5q3 13 3 95v285h-363l-158 -252q-37 -59 -43 -75q-9 -23 -9 -45q0 -31 29.5 -54.5t104.5 -24.5v-31h-364zM458 544h326v513z" />
<glyph unicode="&#xc7;" horiz-adv-x="1224" d="M67 540q0 161 84 305t226.5 223.5t303.5 79.5q118 0 250 -52q76 -29 97 -29q26 0 45.5 19t25.5 62h32v-389h-32q-37 152 -136 233t-225 81q-105 0 -192.5 -60.5t-128.5 -157.5q-52 -125 -52 -278q0 -151 38 -274.5t119 -187t210 -63.5q106 0 194 46.5t186 159.5v-97 q-94 -98 -196.5 -142.5t-238.5 -44.5q-180 0 -319.5 72t-215 207t-75.5 287zM498 -280q83 4 112 27.5t29 64.5q0 25 -19 41.5t-56 16.5l98 140h54l-38 -60q49 -9 75 -40.5t26 -79.5q0 -43 -25.5 -79t-65.5 -50q-63 -20 -190 -20v39z" />
<glyph unicode="&#xc8;" horiz-adv-x="1130" d="M34 0v31h37q49 0 79 17q21 12 33 40q9 20 9 104v738q0 76 -4 94q-8 28 -31 44q-31 23 -86 23h-37v31h939v-332h-31q-24 122 -67.5 175t-123.5 78q-46 14 -173 14h-116v-456h22q107 0 155 67t61 197h31v-587h-31q-10 96 -42 157t-74 82.5t-122 21.5v-316q0 -93 7.5 -113.5 t29 -34t69.5 -13.5h67q158 0 252.5 73t136.5 222h30l-50 -357h-970zM313 1505h249l96 -287h-70z" />
<glyph unicode="&#xc9;" horiz-adv-x="1130" d="M34 0v31h37q49 0 79 17q21 12 33 40q9 20 9 104v738q0 76 -4 94q-8 28 -31 44q-31 23 -86 23h-37v31h939v-332h-31q-24 122 -67.5 175t-123.5 78q-46 14 -173 14h-116v-456h22q107 0 155 67t61 197h31v-587h-31q-10 96 -42 157t-74 82.5t-122 21.5v-316q0 -93 7.5 -113.5 t29 -34t69.5 -13.5h67q158 0 252.5 73t136.5 222h30l-50 -357h-970zM471 1218l96 287h249l-274 -287h-71z" />
<glyph unicode="&#xca;" horiz-adv-x="1130" d="M34 0v31h37q49 0 79 17q21 12 33 40q9 20 9 104v738q0 76 -4 94q-8 28 -31 44q-31 23 -86 23h-37v31h939v-332h-31q-24 122 -67.5 175t-123.5 78q-46 14 -173 14h-116v-456h22q107 0 155 67t61 197h31v-587h-31q-10 96 -42 157t-74 82.5t-122 21.5v-316q0 -93 7.5 -113.5 t29 -34t69.5 -13.5h67q158 0 252.5 73t136.5 222h30l-50 -357h-970zM297 1194l177 311h187l168 -311h-64l-197 165l-203 -165h-68z" />
<glyph unicode="&#xcb;" horiz-adv-x="1130" d="M34 0v31h37q49 0 79 17q21 12 33 40q9 20 9 104v738q0 76 -4 94q-8 28 -31 44q-31 23 -86 23h-37v31h939v-332h-31q-24 122 -67.5 175t-123.5 78q-46 14 -173 14h-116v-456h22q107 0 155 67t61 197h31v-587h-31q-10 96 -42 157t-74 82.5t-122 21.5v-316q0 -93 7.5 -113.5 t29 -34t69.5 -13.5h67q158 0 252.5 73t136.5 222h30l-50 -357h-970zM302 1343q0 45 32.5 77.5t77.5 32.5q47 0 78.5 -32.5t31.5 -77.5q0 -46 -32 -78t-78 -32q-45 0 -77.5 32t-32.5 78zM612 1343q0 45 32 77.5t78 32.5t78 -32.5t32 -77.5q0 -46 -32.5 -78t-77.5 -32 q-46 0 -78 32t-32 78z" />
<glyph unicode="&#xcc;" horiz-adv-x="659" d="M34 0v31h37q49 0 79 17q21 12 33 40q9 20 9 104v738q0 86 -9 107.5t-37 37.5t-75 16h-37v31h587v-31h-38q-48 0 -78 -17q-22 -12 -34 -40q-9 -20 -9 -104v-738q0 -86 9.5 -107.5t37 -37.5t74.5 -16h38v-31h-587zM74 1505h249l96 -287h-70z" />
<glyph unicode="&#xcd;" horiz-adv-x="659" d="M34 0v31h37q49 0 79 17q21 12 33 40q9 20 9 104v738q0 86 -9 107.5t-37 37.5t-75 16h-37v31h587v-31h-38q-48 0 -78 -17q-22 -12 -34 -40q-9 -20 -9 -104v-738q0 -86 9.5 -107.5t37 -37.5t74.5 -16h38v-31h-587zM233 1218l96 287h249l-274 -287h-71z" />
<glyph unicode="&#xce;" horiz-adv-x="659" d="M34 0v31h37q49 0 79 17q21 12 33 40q9 20 9 104v738q0 86 -9 107.5t-37 37.5t-75 16h-37v31h587v-31h-38q-48 0 -78 -17q-22 -12 -34 -40q-9 -20 -9 -104v-738q0 -86 9.5 -107.5t37 -37.5t74.5 -16h38v-31h-587zM59 1194l177 311h187l168 -311h-64l-197 165l-203 -165 h-68z" />
<glyph unicode="&#xcf;" horiz-adv-x="659" d="M34 0v31h37q49 0 79 17q21 12 33 40q9 20 9 104v738q0 86 -9 107.5t-37 37.5t-75 16h-37v31h587v-31h-38q-48 0 -78 -17q-22 -12 -34 -40q-9 -20 -9 -104v-738q0 -86 9.5 -107.5t37 -37.5t74.5 -16h38v-31h-587zM64 1343q0 45 32.5 77.5t77.5 32.5q47 0 78.5 -32.5 t31.5 -77.5q0 -46 -32 -78t-78 -32q-45 0 -77.5 32t-32.5 78zM374 1343q0 45 32 77.5t78 32.5t78 -32.5t32 -77.5q0 -46 -32.5 -78t-77.5 -32q-46 0 -78 32t-32 78z" />
<glyph unicode="&#xd0;" horiz-adv-x="1224" d="M29 0v31h37q49 0 75 15t39 42q8 18 8 104v369h-159v61h159v308q0 86 -9.5 107.5t-37.5 37.5t-75 16h-37v31h503q201 0 324 -55q149 -67 226 -202.5t77 -306.5q0 -119 -37.5 -218.5t-98.5 -164.5t-140 -104.5t-193 -60.5q-50 -10 -158 -10h-503zM458 183q0 -70 6.5 -85.5 t21.5 -23.5q23 -13 64 -13q138 0 212 95q99 127 99 395q0 216 -68 345q-53 101 -138 137q-59 26 -197 25v-436h248v-61h-248v-378z" />
<glyph unicode="&#xd1;" horiz-adv-x="1224" d="M24 0v31q93 0 129 37.5t36 126.5v792l-24 30q-35 45 -62.5 59t-78.5 15v31h398l554 -696v483q0 100 -29 136q-40 48 -134 46v31h371v-31q-71 -9 -95.5 -23.5t-38 -47t-13.5 -111.5v-935h-28l-759 935v-714q0 -97 44 -130.5t102 -33.5h26v-31h-398zM342 1223 q-3 107 49.5 168.5t129.5 61.5q24 0 41 -5q23 -7 79 -33q86 -39 122 -39q18 0 34.5 14.5t31.5 60.5h44q1 -17 1 -28q0 -91 -51.5 -146.5t-124.5 -55.5q-53 0 -134.5 39t-109.5 39q-24 0 -41 -16.5t-23 -59.5h-48z" />
<glyph unicode="&#xd2;" horiz-adv-x="1318" d="M66 564q0 250 170 417t418 157q269 10 436.5 -156.5t167.5 -416.5q0 -213 -125 -376q-166 -215 -468 -215q-303 0 -468 206q-131 162 -131 384zM365 557q0 -287 101 -425q70 -96 197 -96q85 0 142 42q73 53 113.5 169t40.5 303q0 223 -41.5 333.5t-105.5 156t-148 45.5 q-153 0 -234 -157q-65 -130 -65 -371zM409 1505h249l96 -287h-70z" />
<glyph unicode="&#xd3;" horiz-adv-x="1318" d="M66 564q0 250 170 417t418 157q269 10 436.5 -156.5t167.5 -416.5q0 -213 -125 -376q-166 -215 -468 -215q-303 0 -468 206q-131 162 -131 384zM365 557q0 -287 101 -425q70 -96 197 -96q85 0 142 42q73 53 113.5 169t40.5 303q0 223 -41.5 333.5t-105.5 156t-148 45.5 q-153 0 -234 -157q-65 -130 -65 -371zM567 1218l96 287h249l-274 -287h-71z" />
<glyph unicode="&#xd4;" horiz-adv-x="1318" d="M66 564q0 250 170 417t418 157q269 10 436.5 -156.5t167.5 -416.5q0 -213 -125 -376q-166 -215 -468 -215q-303 0 -468 206q-131 162 -131 384zM365 557q0 -287 101 -425q70 -96 197 -96q85 0 142 42q73 53 113.5 169t40.5 303q0 223 -41.5 333.5t-105.5 156t-148 45.5 q-153 0 -234 -157q-65 -130 -65 -371zM393 1194l177 311h187l168 -311h-64l-197 165l-203 -165h-68z" />
<glyph unicode="&#xd5;" horiz-adv-x="1318" d="M66 564q0 250 170 417t418 157q269 10 436.5 -156.5t167.5 -416.5q0 -213 -125 -376q-166 -215 -468 -215q-303 0 -468 206q-131 162 -131 384zM365 557q0 -287 101 -425q70 -96 197 -96q85 0 142 42q73 53 113.5 169t40.5 303q0 223 -41.5 333.5t-105.5 156t-148 45.5 q-153 0 -234 -157q-65 -130 -65 -371zM394 1223q-3 107 49.5 168.5t129.5 61.5q24 0 41 -5q23 -7 79 -33q86 -39 122 -39q18 0 34.5 14.5t31.5 60.5h44q1 -17 1 -28q0 -91 -51.5 -146.5t-124.5 -55.5q-53 0 -134.5 39t-109.5 39q-24 0 -41 -16.5t-23 -59.5h-48z" />
<glyph unicode="&#xd6;" horiz-adv-x="1318" d="M66 564q0 250 170 417t418 157q269 10 436.5 -156.5t167.5 -416.5q0 -213 -125 -376q-166 -215 -468 -215q-303 0 -468 206q-131 162 -131 384zM365 557q0 -287 101 -425q70 -96 197 -96q85 0 142 42q73 53 113.5 169t40.5 303q0 223 -41.5 333.5t-105.5 156t-148 45.5 q-153 0 -234 -157q-65 -130 -65 -371zM398 1343q0 45 32.5 77.5t77.5 32.5q47 0 78.5 -32.5t31.5 -77.5q0 -46 -32 -78t-78 -32q-45 0 -77.5 32t-32.5 78zM708 1343q0 45 32 77.5t78 32.5t78 -32.5t32 -77.5q0 -46 -32.5 -78t-77.5 -32q-46 0 -78 32t-32 78z" />
<glyph unicode="&#xd7;" horiz-adv-x="966" d="M127 843l77 77l282 -281l281 280l76 -76l-280 -281l281 -282l-77 -76l-281 281l-280 -279l-76 76l279 279z" />
<glyph unicode="&#xd8;" horiz-adv-x="1318" d="M67 564q0 159 77.5 297t217 212.5t303.5 74.5q215 0 368 -120l128 147l47 -41l-127 -147q176 -172 176 -424q0 -170 -80 -308t-221.5 -209.5t-287.5 -71.5q-89 0 -190.5 28.5t-180.5 81.5l-130 -148l-45 41l129 148q-90 84 -137 200.5t-47 238.5zM366 552q0 -132 28 -262 l517 597q-44 105 -93 144q-67 52 -156 52q-124 0 -201 -103q-95 -129 -95 -428zM417 222q49 -104 105 -145t141 -41q89 0 154 52.5t108 187.5q32 101 32 268q0 91 -5 153q-5 44 -19 119z" />
<glyph unicode="&#xd9;" horiz-adv-x="1224" d="M40 1091v31h579v-31h-29q-65 0 -89.5 -13.5t-35 -37.5t-10.5 -120v-549q0 -151 23 -200t75 -81t131 -32q91 0 155.5 41t96 113t31.5 251v457q0 75 -15.5 107.5t-39.5 44.5q-37 19 -105 19v31h388v-31h-23q-48 0 -79 -19t-45 -57q-11 -26 -11 -95v-426q0 -198 -26 -285.5 t-127 -161t-276 -73.5q-145 0 -225 38q-108 53 -153 136t-45 223v549q0 97 -10.5 120.5t-37 37.5t-97.5 13zM379 1505h249l96 -287h-70z" />
<glyph unicode="&#xda;" horiz-adv-x="1224" d="M40 1091v31h579v-31h-29q-65 0 -89.5 -13.5t-35 -37.5t-10.5 -120v-549q0 -151 23 -200t75 -81t131 -32q91 0 155.5 41t96 113t31.5 251v457q0 75 -15.5 107.5t-39.5 44.5q-37 19 -105 19v31h388v-31h-23q-48 0 -79 -19t-45 -57q-11 -26 -11 -95v-426q0 -198 -26 -285.5 t-127 -161t-276 -73.5q-145 0 -225 38q-108 53 -153 136t-45 223v549q0 97 -10.5 120.5t-37 37.5t-97.5 13zM496 1218l96 287h249l-274 -287h-71z" />
<glyph unicode="&#xdb;" horiz-adv-x="1224" d="M40 1091v31h579v-31h-29q-65 0 -89.5 -13.5t-35 -37.5t-10.5 -120v-549q0 -151 23 -200t75 -81t131 -32q91 0 155.5 41t96 113t31.5 251v457q0 75 -15.5 107.5t-39.5 44.5q-37 19 -105 19v31h388v-31h-23q-48 0 -79 -19t-45 -57q-11 -26 -11 -95v-426q0 -198 -26 -285.5 t-127 -161t-276 -73.5q-145 0 -225 38q-108 53 -153 136t-45 223v549q0 97 -10.5 120.5t-37 37.5t-97.5 13zM369 1194l177 311h187l168 -311h-64l-197 165l-203 -165h-68z" />
<glyph unicode="&#xdc;" horiz-adv-x="1224" d="M40 1091v31h579v-31h-29q-65 0 -89.5 -13.5t-35 -37.5t-10.5 -120v-549q0 -151 23 -200t75 -81t131 -32q91 0 155.5 41t96 113t31.5 251v457q0 75 -15.5 107.5t-39.5 44.5q-37 19 -105 19v31h388v-31h-23q-48 0 -79 -19t-45 -57q-11 -26 -11 -95v-426q0 -198 -26 -285.5 t-127 -161t-276 -73.5q-145 0 -225 38q-108 53 -153 136t-45 223v549q0 97 -10.5 120.5t-37 37.5t-97.5 13zM346 1343q0 45 32.5 77.5t77.5 32.5q47 0 78.5 -32.5t31.5 -77.5q0 -46 -32 -78t-78 -32q-45 0 -77.5 32t-32.5 78zM656 1343q0 45 32 77.5t78 32.5t78 -32.5 t32 -77.5q0 -46 -32.5 -78t-77.5 -32q-46 0 -78 32t-32 78z" />
<glyph unicode="&#xdd;" horiz-adv-x="1224" d="M15 1091v31h538v-31h-24q-49 0 -68.5 -14t-19.5 -29q0 -30 66 -150l203 -372l202 339q75 124 75 164q0 23 -21 38q-29 20 -104 24v31h343v-31q-56 -7 -85 -32q-42 -35 -131 -189l-243 -407v-271q0 -87 9 -108t36 -37t71 -16h63v-31h-630v31h59q50 0 79 17q21 12 34 40 q9 20 9 104v225l-264 481q-79 142 -111 167.5t-86 25.5zM552 1218l96 287h249l-274 -287h-71z" />
<glyph unicode="&#xde;" horiz-adv-x="1035" d="M34 0v31h40q53 0 82 22q21 15 29 45q4 15 4 89v733q0 99 -8.5 120.5t-29.5 34.5q-31 18 -80 18h-37v29h567v-29h-38q-52 0 -81 -21q-21 -15 -29 -45q-5 -17 -5 -104v-51h60q153 0 235 -21q106 -27 170 -103t64 -182q0 -89 -46 -163.5t-135 -111.5t-289 -37h-59v-51 q0 -99 8.5 -119.5t31.5 -33.5q31 -19 77 -19h36v-31h-567zM448 319q116 0 159 21t65 64q30 60 30 162q0 88 -29.5 145.5t-78.5 79.5q-36 17 -126 17h-20v-489z" />
<glyph unicode="&#xdf;" horiz-adv-x="942" d="M48 0v30q45 6 64 30.5t19 107.5v660q0 117 39.5 182.5t122.5 101.5t181 36q173 0 254.5 -69.5t81.5 -177.5q0 -99 -57 -154q-41 -39 -139 -55q85 -18 133 -55t79.5 -114t31.5 -168q0 -113 -34.5 -196.5t-97 -125t-137.5 -41.5q-78 0 -121 38t-43 90q0 38 22 60.5t59 22.5 q24 0 38 -7.5t27.5 -26.5t13.5 -24l-6 -75q0 -4 13 -14q12 -10 28 -10q15 0 29.5 16.5t14.5 39.5q0 20 -29 108q-15 46 -17 56q-4 26 -4 74v118q0 95 -10.5 126t-38.5 49.5t-88 21.5v51q48 0 69.5 18t30.5 56q3 20 3 107q0 115 -18 151q-27 53 -93 53q-34 0 -56 -15 q-31 -22 -42.5 -51.5t-11.5 -130.5v-894h-311z" />
<glyph unicode="&#xe0;" d="M76 141q0 89 76 160t332 188v78q0 87 -9.5 110t-36 40t-59.5 17q-54 0 -89 -24q-21 -15 -21 -35q0 -17 23 -43q32 -35 32 -69q0 -40 -30.5 -68.5t-79.5 -28.5q-52 0 -87 31.5t-35 73.5q0 60 47 114t131.5 83t175.5 29q110 0 174 -47t83 -101q12 -35 12 -160v-300 q0 -53 4 -67t12.5 -20.5t18.5 -6.5q22 0 44 31l25 -20q-41 -61 -85.5 -89t-100.5 -28q-66 0 -103.5 31t-45.5 94q-141 -125 -254 -125q-66 0 -110 43.5t-44 108.5zM172 1160h249l96 -287h-70zM303 218q0 -38 27 -67q21 -23 58 -23q41 0 96 47v259q-100 -59 -149 -126 q-32 -45 -32 -90z" />
<glyph unicode="&#xe1;" d="M76 141q0 89 76 160t332 188v78q0 87 -9.5 110t-36 40t-59.5 17q-54 0 -89 -24q-21 -15 -21 -35q0 -17 23 -43q32 -35 32 -69q0 -40 -30.5 -68.5t-79.5 -28.5q-52 0 -87 31.5t-35 73.5q0 60 47 114t131.5 83t175.5 29q110 0 174 -47t83 -101q12 -35 12 -160v-300 q0 -53 4 -67t12.5 -20.5t18.5 -6.5q22 0 44 31l25 -20q-41 -61 -85.5 -89t-100.5 -28q-66 0 -103.5 31t-45.5 94q-141 -125 -254 -125q-66 0 -110 43.5t-44 108.5zM303 218q0 -38 27 -67q21 -23 58 -23q41 0 96 47v259q-100 -59 -149 -126q-32 -45 -32 -90zM330 873l96 287 h249l-274 -287h-71z" />
<glyph unicode="&#xe2;" d="M76 141q0 89 76 160t332 188v78q0 87 -9.5 110t-36 40t-59.5 17q-54 0 -89 -24q-21 -15 -21 -35q0 -17 23 -43q32 -35 32 -69q0 -40 -30.5 -68.5t-79.5 -28.5q-52 0 -87 31.5t-35 73.5q0 60 47 114t131.5 83t175.5 29q110 0 174 -47t83 -101q12 -35 12 -160v-300 q0 -53 4 -67t12.5 -20.5t18.5 -6.5q22 0 44 31l25 -20q-41 -61 -85.5 -89t-100.5 -28q-66 0 -103.5 31t-45.5 94q-141 -125 -254 -125q-66 0 -110 43.5t-44 108.5zM156 870l177 311h187l168 -311h-64l-197 165l-203 -165h-68zM303 218q0 -38 27 -67q21 -23 58 -23 q41 0 96 47v259q-100 -59 -149 -126q-32 -45 -32 -90z" />
<glyph unicode="&#xe3;" d="M76 141q0 89 76 160t332 188v78q0 87 -9.5 110t-36 40t-59.5 17q-54 0 -89 -24q-21 -15 -21 -35q0 -17 23 -43q32 -35 32 -69q0 -40 -30.5 -68.5t-79.5 -28.5q-52 0 -87 31.5t-35 73.5q0 60 47 114t131.5 83t175.5 29q110 0 174 -47t83 -101q12 -35 12 -160v-300 q0 -53 4 -67t12.5 -20.5t18.5 -6.5q22 0 44 31l25 -20q-41 -61 -85.5 -89t-100.5 -28q-66 0 -103.5 31t-45.5 94q-141 -125 -254 -125q-66 0 -110 43.5t-44 108.5zM157 906q-3 107 49.5 168.5t129.5 61.5q24 0 41 -5q23 -7 79 -33q86 -39 122 -39q18 0 34.5 14.5t31.5 60.5 h44q1 -17 1 -28q0 -91 -51.5 -146.5t-124.5 -55.5q-53 0 -134.5 39t-109.5 39q-24 0 -41 -16.5t-23 -59.5h-48zM303 218q0 -38 27 -67q21 -23 58 -23q41 0 96 47v259q-100 -59 -149 -126q-32 -45 -32 -90z" />
<glyph unicode="&#xe4;" d="M76 141q0 89 76 160t332 188v78q0 87 -9.5 110t-36 40t-59.5 17q-54 0 -89 -24q-21 -15 -21 -35q0 -17 23 -43q32 -35 32 -69q0 -40 -30.5 -68.5t-79.5 -28.5q-52 0 -87 31.5t-35 73.5q0 60 47 114t131.5 83t175.5 29q110 0 174 -47t83 -101q12 -35 12 -160v-300 q0 -53 4 -67t12.5 -20.5t18.5 -6.5q22 0 44 31l25 -20q-41 -61 -85.5 -89t-100.5 -28q-66 0 -103.5 31t-45.5 94q-141 -125 -254 -125q-66 0 -110 43.5t-44 108.5zM160 1023q0 45 32.5 77.5t77.5 32.5q47 0 78.5 -32.5t31.5 -77.5q0 -46 -32 -78t-78 -32q-45 0 -77.5 32 t-32.5 78zM303 218q0 -38 27 -67q21 -23 58 -23q41 0 96 47v259q-100 -59 -149 -126q-32 -45 -32 -90zM470 1023q0 45 32 77.5t78 32.5t78 -32.5t32 -77.5q0 -46 -32.5 -78t-77.5 -32q-46 0 -78 32t-32 78z" />
<glyph unicode="&#xe5;" d="M76 141q0 89 76 160t332 188v78q0 87 -9.5 110t-36 40t-59.5 17q-54 0 -89 -24q-21 -15 -21 -35q0 -17 23 -43q32 -35 32 -69q0 -40 -30.5 -68.5t-79.5 -28.5q-52 0 -87 31.5t-35 73.5q0 60 47 114t131.5 83t175.5 29q110 0 174 -47t83 -101q12 -35 12 -160v-300 q0 -53 4 -67t12.5 -20.5t18.5 -6.5q22 0 44 31l25 -20q-41 -61 -85.5 -89t-100.5 -28q-66 0 -103.5 31t-45.5 94q-141 -125 -254 -125q-66 0 -110 43.5t-44 108.5zM250 1016q0 72 50.5 122.5t122.5 50.5q73 0 123.5 -50.5t50.5 -122.5t-51 -123t-123 -51q-71 0 -122 51 t-51 123zM303 218q0 -38 27 -67q21 -23 58 -23q41 0 96 47v259q-100 -59 -149 -126q-32 -45 -32 -90zM314 1016q0 -45 32 -77t78 -32q45 0 77 32t32 77q0 46 -32 77.5t-77 31.5q-46 0 -78 -31.5t-32 -77.5z" />
<glyph unicode="&#xe6;" horiz-adv-x="1224" d="M74 126q0 73 68.5 149.5t363.5 210.5v63q0 82 -11 112t-45 50t-78 20q-48 0 -82 -25q-25 -19 -25 -40q0 -6 3 -11.5t24 -27.5q30 -30 30 -68t-28 -63q-39 -33 -87 -33q-46 0 -80 33t-34 77q0 92 105.5 158t225.5 66q84 0 152 -32q40 -19 80 -63q48 50 95.5 72.5 t113.5 22.5q134 0 218 -93t92 -291h-447q18 -169 82 -241t143 -72q117 0 195 127l27 -19q-74 -133 -149.5 -182t-193.5 -49q-88 0 -158 40q-52 30 -97 93q-87 -66 -168.5 -99.5t-156.5 -33.5q-82 0 -130 44.5t-48 104.5zM303 203q0 -40 31 -69.5t73 -29.5q28 0 65 12.5 t82 37.5q-25 54 -36.5 111t-11.5 166q-125 -83 -164 -126.5t-39 -101.5zM726 468h246q1 27 1 40q0 131 -42 191q-28 41 -75 41q-28 0 -49 -17q-36 -29 -55 -83q-26 -73 -26 -172z" />
<glyph unicode="&#xe7;" horiz-adv-x="752" d="M65 374q0 158 84 278q102 145 280 145q120 0 191 -60.5t71 -134.5q0 -48 -28.5 -76t-75.5 -28q-48 0 -80 32.5t-40 114.5q-4 53 -23 73q-20 21 -45 21q-40 0 -68 -42q-43 -64 -43 -196q0 -109 34.5 -208.5t95.5 -148.5q45 -36 107 -36q41 0 77.5 19t85.5 72l26 -19 q-55 -103 -136.5 -153t-172.5 -50q-155 0 -247.5 116.5t-92.5 280.5zM233 -280q83 4 112 27.5t29 64.5q0 25 -19 41.5t-56 16.5l98 140h54l-38 -60q49 -9 75 -40.5t26 -79.5q0 -43 -25.5 -79t-65.5 -50q-63 -20 -190 -20v39z" />
<glyph unicode="&#xe8;" horiz-adv-x="752" d="M65 374q0 194 105 308.5t245 114.5q118 0 204.5 -96.5t92.5 -285.5h-424q7 -154 82 -244q57 -68 137 -68q50 0 90.5 27.5t86.5 99.5l28 -18q-62 -128 -138.5 -181.5t-176.5 -53.5q-172 0 -260 132q-72 107 -72 265zM161 1160h249l96 -287h-70zM284 470h225 q0 133 -14.5 182.5t-45.5 75.5q-17 15 -46 15q-43 0 -70 -42q-49 -74 -49 -202v-29z" />
<glyph unicode="&#xe9;" horiz-adv-x="752" d="M65 374q0 194 105 308.5t245 114.5q118 0 204.5 -96.5t92.5 -285.5h-424q7 -154 82 -244q57 -68 137 -68q50 0 90.5 27.5t86.5 99.5l28 -18q-62 -128 -138.5 -181.5t-176.5 -53.5q-172 0 -260 132q-72 107 -72 265zM284 470h225q0 133 -14.5 182.5t-45.5 75.5 q-17 15 -46 15q-43 0 -70 -42q-49 -74 -49 -202v-29zM286 873l96 287h249l-274 -287h-71z" />
<glyph unicode="&#xea;" horiz-adv-x="752" d="M65 374q0 194 105 308.5t245 114.5q118 0 204.5 -96.5t92.5 -285.5h-424q7 -154 82 -244q57 -68 137 -68q50 0 90.5 27.5t86.5 99.5l28 -18q-62 -128 -138.5 -181.5t-176.5 -53.5q-172 0 -260 132q-72 107 -72 265zM112 870l177 311h187l168 -311h-64l-197 165l-203 -165 h-68zM284 470h225q0 133 -14.5 182.5t-45.5 75.5q-17 15 -46 15q-43 0 -70 -42q-49 -74 -49 -202v-29z" />
<glyph unicode="&#xeb;" horiz-adv-x="752" d="M65 374q0 194 105 308.5t245 114.5q118 0 204.5 -96.5t92.5 -285.5h-424q7 -154 82 -244q57 -68 137 -68q50 0 90.5 27.5t86.5 99.5l28 -18q-62 -128 -138.5 -181.5t-176.5 -53.5q-172 0 -260 132q-72 107 -72 265zM136 1023q0 45 32.5 77.5t77.5 32.5q47 0 78.5 -32.5 t31.5 -77.5q0 -46 -32 -78t-78 -32q-45 0 -77.5 32t-32.5 78zM284 470h225q0 133 -14.5 182.5t-45.5 75.5q-17 15 -46 15q-43 0 -70 -42q-49 -74 -49 -202v-29zM446 1023q0 45 32 77.5t78 32.5t78 -32.5t32 -77.5q0 -46 -32.5 -78t-77.5 -32q-46 0 -78 32t-32 78z" />
<glyph unicode="&#xec;" horiz-adv-x="471" d="M-13 1160h249l96 -287h-70zM35 0v30q51 1 76 30q16 19 16 101v451q0 82 -19 105t-73 26v31h324v-613q0 -82 19 -105t75 -26v-30h-418z" />
<glyph unicode="&#xed;" horiz-adv-x="471" d="M35 0v30q51 1 76 30q16 19 16 101v451q0 82 -19 105t-73 26v31h324v-613q0 -82 19 -105t75 -26v-30h-418zM145 873l96 287h249l-274 -287h-71z" />
<glyph unicode="&#xee;" horiz-adv-x="471" d="M-29 870l177 311h187l168 -311h-64l-197 165l-203 -165h-68zM35 0v30q51 1 76 30q16 19 16 101v451q0 82 -19 105t-73 26v31h324v-613q0 -82 19 -105t75 -26v-30h-418z" />
<glyph unicode="&#xef;" horiz-adv-x="471" d="M-25 1023q0 45 32.5 77.5t77.5 32.5q47 0 78.5 -32.5t31.5 -77.5q0 -46 -32 -78t-78 -32q-45 0 -77.5 32t-32.5 78zM35 0v30q51 1 76 30q16 19 16 101v451q0 82 -19 105t-73 26v31h324v-613q0 -82 19 -105t75 -26v-30h-418zM285 1023q0 45 32 77.5t78 32.5t78 -32.5 t32 -77.5q0 -46 -32.5 -78t-77.5 -32q-46 0 -78 32t-32 78z" />
<glyph unicode="&#xf0;" d="M61 382q0 147 69 254q86 134 246 134q51 0 122 -24q-27 71 -48 109t-60 90l-208 -116l-27 47l198 112q-59 64 -154 131l19 29q66 -25 109.5 -48.5t107.5 -67.5l196 110l25 -48l-173 -96q153 -124 228.5 -262t75.5 -302q0 -137 -43 -243.5t-128.5 -160t-191.5 -53.5 q-104 0 -189 53t-129.5 145.5t-44.5 206.5zM304 427q0 -229 15 -298q10 -48 38.5 -71.5t64.5 -23.5t63.5 22.5t39.5 73.5q15 68 15 280q0 160 -14 212t-39.5 72t-62.5 20t-63.5 -20t-41.5 -71t-15 -196z" />
<glyph unicode="&#xf1;" horiz-adv-x="942" d="M58 0v30q49 5 69 31q14 18 14 108v437q0 87 -16 108.5t-67 28.5v31h315v-100q60 64 114.5 93.5t117.5 29.5q75 0 124.5 -42t66.5 -104q13 -47 13 -181v-301q0 -90 16 -111.5t68 -27.5v-30h-392v30q44 6 63 36q14 21 14 103v344q0 95 -7.5 120t-25.5 38.5t-39 13.5 q-72 0 -133 -102v-414q0 -87 16 -110t60 -29v-30h-391zM200 906q-3 107 49.5 168.5t129.5 61.5q24 0 41 -5q23 -7 79 -33q86 -39 122 -39q18 0 34.5 14.5t31.5 60.5h44q1 -17 1 -28q0 -91 -51.5 -146.5t-124.5 -55.5q-53 0 -134.5 39t-109.5 39q-24 0 -41 -16.5t-23 -59.5 h-48z" />
<glyph unicode="&#xf2;" d="M61 383q0 166 96.5 290t264.5 124q101 0 188 -52t132 -148t45 -211q0 -164 -84 -275q-101 -134 -279 -134q-174 0 -268.5 122.5t-94.5 283.5zM171 1160h249l96 -287h-70zM304 319q0 -88 11 -165q9 -59 39 -89.5t68 -30.5q37 0 62 21q32 28 43 78q17 79 17 318 q0 141 -16 193.5t-46 76.5q-22 17 -57 17q-42 0 -72 -32t-39.5 -125.5t-9.5 -261.5z" />
<glyph unicode="&#xf3;" d="M61 383q0 166 96.5 290t264.5 124q101 0 188 -52t132 -148t45 -211q0 -164 -84 -275q-101 -134 -279 -134q-174 0 -268.5 122.5t-94.5 283.5zM304 319q0 -88 11 -165q9 -59 39 -89.5t68 -30.5q37 0 62 21q32 28 43 78q17 79 17 318q0 141 -16 193.5t-46 76.5 q-22 17 -57 17q-42 0 -72 -32t-39.5 -125.5t-9.5 -261.5zM330 873l96 287h249l-274 -287h-71z" />
<glyph unicode="&#xf4;" d="M61 383q0 166 96.5 290t264.5 124q101 0 188 -52t132 -148t45 -211q0 -164 -84 -275q-101 -134 -279 -134q-174 0 -268.5 122.5t-94.5 283.5zM155 870l177 311h187l168 -311h-64l-197 165l-203 -165h-68zM304 319q0 -88 11 -165q9 -59 39 -89.5t68 -30.5q37 0 62 21 q32 28 43 78q17 79 17 318q0 141 -16 193.5t-46 76.5q-22 17 -57 17q-42 0 -72 -32t-39.5 -125.5t-9.5 -261.5z" />
<glyph unicode="&#xf5;" d="M61 383q0 166 96.5 290t264.5 124q101 0 188 -52t132 -148t45 -211q0 -164 -84 -275q-101 -134 -279 -134q-174 0 -268.5 122.5t-94.5 283.5zM156 906q-3 107 49.5 168.5t129.5 61.5q24 0 41 -5q23 -7 79 -33q86 -39 122 -39q18 0 34.5 14.5t31.5 60.5h44q1 -17 1 -28 q0 -91 -51.5 -146.5t-124.5 -55.5q-53 0 -134.5 39t-109.5 39q-24 0 -41 -16.5t-23 -59.5h-48zM304 319q0 -88 11 -165q9 -59 39 -89.5t68 -30.5q37 0 62 21q32 28 43 78q17 79 17 318q0 141 -16 193.5t-46 76.5q-22 17 -57 17q-42 0 -72 -32t-39.5 -125.5t-9.5 -261.5z" />
<glyph unicode="&#xf6;" d="M61 383q0 166 96.5 290t264.5 124q101 0 188 -52t132 -148t45 -211q0 -164 -84 -275q-101 -134 -279 -134q-174 0 -268.5 122.5t-94.5 283.5zM159 1023q0 45 32.5 77.5t77.5 32.5q47 0 78.5 -32.5t31.5 -77.5q0 -46 -32 -78t-78 -32q-45 0 -77.5 32t-32.5 78zM304 319 q0 -88 11 -165q9 -59 39 -89.5t68 -30.5q37 0 62 21q32 28 43 78q17 79 17 318q0 141 -16 193.5t-46 76.5q-22 17 -57 17q-42 0 -72 -32t-39.5 -125.5t-9.5 -261.5zM469 1023q0 45 32 77.5t78 32.5t78 -32.5t32 -77.5q0 -46 -32.5 -78t-77.5 -32q-46 0 -78 32t-32 78z" />
<glyph unicode="&#xf7;" horiz-adv-x="930" d="M13 506v110h905v-110h-905zM381 290q0 35 24.5 60.5t60.5 25.5q35 0 60 -25.5t25 -60.5t-25 -60t-60 -25t-60 25t-25 60zM382 839q0 35 25 59.5t60 24.5t60 -24.5t25 -59.5t-25 -59.5t-60 -24.5t-60 24.5t-25 59.5z" />
<glyph unicode="&#xf8;" d="M56 13l92 108q-42 67 -58 118q-20 67 -20 145q0 165 95.5 289t268.5 124q68 0 119.5 -19.5t106.5 -65.5l92 106l40 -36l-94 -108q54 -74 72 -125q22 -67 22 -157q0 -119 -44.5 -217t-129.5 -148t-184 -50q-73 0 -129 22.5t-121 79.5l-89 -102zM317 231q4 -113 36.5 -154 t75.5 -41q38 0 58 16q29 23 44 74q20 67 20 208q0 9 -2 167zM317 309l227 270q-8 90 -37 124.5t-68 34.5q-34 0 -53 -12q-27 -19 -44 -58t-23 -145q0 -28 -2 -214z" />
<glyph unicode="&#xf9;" horiz-adv-x="942" d="M52 743v31h315v-529q0 -83 8 -107t25 -36.5t39 -12.5q30 0 54 16q33 22 80 87v414q0 87 -16.5 108.5t-67.5 28.5v31h315v-606q0 -89 16.5 -110.5t67.5 -27.5v-30h-315v103q-56 -66 -111.5 -96t-123.5 -30q-66 0 -117 40t-68 94t-17 188v307q0 87 -16.5 108.5t-67.5 28.5z M214 1160h249l96 -287h-70z" />
<glyph unicode="&#xfa;" horiz-adv-x="942" d="M52 743v31h315v-529q0 -83 8 -107t25 -36.5t39 -12.5q30 0 54 16q33 22 80 87v414q0 87 -16.5 108.5t-67.5 28.5v31h315v-606q0 -89 16.5 -110.5t67.5 -27.5v-30h-315v103q-56 -66 -111.5 -96t-123.5 -30q-66 0 -117 40t-68 94t-17 188v307q0 87 -16.5 108.5t-67.5 28.5z M374 873l96 287h249l-274 -287h-71z" />
<glyph unicode="&#xfb;" horiz-adv-x="942" d="M52 743v31h315v-529q0 -83 8 -107t25 -36.5t39 -12.5q30 0 54 16q33 22 80 87v414q0 87 -16.5 108.5t-67.5 28.5v31h315v-606q0 -89 16.5 -110.5t67.5 -27.5v-30h-315v103q-56 -66 -111.5 -96t-123.5 -30q-66 0 -117 40t-68 94t-17 188v307q0 87 -16.5 108.5t-67.5 28.5z M201 870l177 311h187l168 -311h-64l-197 165l-203 -165h-68z" />
<glyph unicode="&#xfc;" horiz-adv-x="942" d="M52 743v31h315v-529q0 -83 8 -107t25 -36.5t39 -12.5q30 0 54 16q33 22 80 87v414q0 87 -16.5 108.5t-67.5 28.5v31h315v-606q0 -89 16.5 -110.5t67.5 -27.5v-30h-315v103q-56 -66 -111.5 -96t-123.5 -30q-66 0 -117 40t-68 94t-17 188v307q0 87 -16.5 108.5t-67.5 28.5z M244 1023q0 45 32.5 77.5t77.5 32.5q47 0 78.5 -32.5t31.5 -77.5q0 -46 -32 -78t-78 -32q-45 0 -77.5 32t-32.5 78zM554 1023q0 45 32 77.5t78 32.5t78 -32.5t32 -77.5q0 -46 -32.5 -78t-77.5 -32q-46 0 -78 32t-32 78z" />
<glyph unicode="&#xfd;" d="M14 743v31h411v-31q-40 -2 -56.5 -16t-16.5 -34q0 -31 41 -124l132 -303l91 235q48 125 48 173q0 31 -20 49t-71 20v31h259v-31q-38 -4 -62 -29.5t-81 -171.5l-221 -573q-83 -216 -124 -265q-57 -70 -143 -70q-69 0 -111.5 39.5t-42.5 94.5q0 48 29.5 79.5t72.5 31.5 q41 0 66.5 -26.5t26.5 -81.5q0 -32 7 -41t19 -9q20 0 42 24q33 35 78 159l24 65l-250 573q-56 130 -83 159.5t-65 41.5zM379 873l96 287h249l-274 -287h-71z" />
<glyph unicode="&#xfe;" horiz-adv-x="942" d="M32 -334q52 1 76 29q17 19 17 101v1191q0 82 -19 104.5t-74 25.5v31h325v-476q40 59 82 86q61 39 132 39q85 0 155 -54t106.5 -148.5t36.5 -203.5q0 -118 -37.5 -215t-109.5 -148t-159 -51q-64 0 -119 28q-42 21 -87 74v-288q0 -62 9.5 -83.5t29 -31.5t77.5 -10v-32h-441 v32zM357 162q71 -101 152 -101q45 0 74 47q43 70 43 265q0 200 -48 274q-31 49 -84 49q-84 0 -137 -121v-413z" />
<glyph unicode="&#xff;" d="M14 743v31h411v-31q-40 -2 -56.5 -16t-16.5 -34q0 -31 41 -124l132 -303l91 235q48 125 48 173q0 31 -20 49t-71 20v31h259v-31q-38 -4 -62 -29.5t-81 -171.5l-221 -573q-83 -216 -124 -265q-57 -70 -143 -70q-69 0 -111.5 39.5t-42.5 94.5q0 48 29.5 79.5t72.5 31.5 q41 0 66.5 -26.5t26.5 -81.5q0 -32 7 -41t19 -9q20 0 42 24q33 35 78 159l24 65l-250 573q-56 130 -83 159.5t-65 41.5zM181 1023q0 45 32.5 77.5t77.5 32.5q47 0 78.5 -32.5t31.5 -77.5q0 -46 -32 -78t-78 -32q-45 0 -77.5 32t-32.5 78zM491 1023q0 45 32 77.5t78 32.5 t78 -32.5t32 -77.5q0 -46 -32.5 -78t-77.5 -32q-46 0 -78 32t-32 78z" />
<glyph unicode="&#x152;" horiz-adv-x="1695" d="M61 561q0 218 133 382q157 195 418 195q100 0 206 -12q44 -4 113 -4h601v-334h-33q-15 97 -56 156t-103 85t-145 26h-133v-456h26q38 0 78 21q31 15 52 43t38 78.5t23 122.5h32v-587h-32q-25 155 -74.5 207.5t-116.5 52.5h-26v-284q0 -125 7 -147t22 -31q23 -13 82 -13 h51q135 0 229 75.5t129 217.5h31l-51 -355h-623q-25 0 -87 -5q-113 -10 -217 -10q-161 0 -275 60q-147 77 -223 218t-76 298zM359 524q0 -260 90 -379q71 -95 187 -95q86 0 121 39.5t35 159.5v601q0 89 -4 113q-9 46 -40 70q-42 35 -107 35q-118 0 -189 -100 q-93 -129 -93 -444z" />
<glyph unicode="&#x153;" horiz-adv-x="1224" d="M58 380q0 116 46.5 212.5t135 150.5t189.5 54q75 0 131 -28t109 -87q48 59 99 87t117 28q120 0 205.5 -99.5t86.5 -287.5h-407q14 -167 74.5 -239t130.5 -72q49 0 90.5 29.5t84.5 99.5l27 -19q-67 -129 -140 -180.5t-168 -51.5q-66 0 -112 22.5t-99 79.5 q-61 -59 -109.5 -80.5t-119.5 -21.5q-192 0 -294 142q-77 107 -77 261zM300 360q0 -162 17 -222.5t47 -84.5q22 -17 59 -17q43 0 69.5 21.5t42.5 88.5t16 278q0 159 -16 215t-47 81q-23 19 -58 19q-37 0 -61 -20q-32 -27 -50.5 -96.5t-18.5 -262.5zM766 467h208q1 46 1 63 q0 122 -30 165t-67 43q-25 0 -47 -18q-30 -24 -43 -70q-22 -68 -22 -183z" />
<glyph unicode="&#x178;" horiz-adv-x="1224" d="M15 1091v31h538v-31h-24q-49 0 -68.5 -14t-19.5 -29q0 -30 66 -150l203 -372l202 339q75 124 75 164q0 23 -21 38q-29 20 -104 24v31h343v-31q-56 -7 -85 -32q-42 -35 -131 -189l-243 -407v-271q0 -87 9 -108t36 -37t71 -16h63v-31h-630v31h59q50 0 79 17q21 12 34 40 q9 20 9 104v225l-264 481q-79 142 -111 167.5t-86 25.5zM385 1343q0 45 32.5 77.5t77.5 32.5q47 0 78.5 -32.5t31.5 -77.5q0 -46 -32 -78t-78 -32q-45 0 -77.5 32t-32.5 78zM695 1343q0 45 32 77.5t78 32.5t78 -32.5t32 -77.5q0 -46 -32.5 -78t-77.5 -32q-46 0 -78 32 t-32 78z" />
<glyph unicode="&#x2c6;" horiz-adv-x="564" d="M17 870l177 311h187l168 -311h-64l-197 165l-203 -165h-68z" />
<glyph unicode="&#x2dc;" horiz-adv-x="564" d="M20 904q-3 107 49.5 168.5t129.5 61.5q24 0 41 -5q23 -7 79 -33q86 -39 122 -39q18 0 34.5 14.5t31.5 60.5h44q1 -17 1 -28q0 -91 -51.5 -146.5t-124.5 -55.5q-53 0 -134.5 39t-109.5 39q-24 0 -41 -16.5t-23 -59.5h-48z" />
<glyph unicode="&#x2000;" horiz-adv-x="752" />
<glyph unicode="&#x2001;" horiz-adv-x="1505" />
<glyph unicode="&#x2002;" horiz-adv-x="752" />
<glyph unicode="&#x2003;" horiz-adv-x="1505" />
<glyph unicode="&#x2004;" horiz-adv-x="501" />
<glyph unicode="&#x2005;" horiz-adv-x="376" />
<glyph unicode="&#x2006;" horiz-adv-x="250" />
<glyph unicode="&#x2007;" horiz-adv-x="250" />
<glyph unicode="&#x2008;" horiz-adv-x="188" />
<glyph unicode="&#x2009;" horiz-adv-x="301" />
<glyph unicode="&#x200a;" horiz-adv-x="83" />
<glyph unicode="&#x2010;" horiz-adv-x="564" d="M41 304v171h483v-171h-483z" />
<glyph unicode="&#x2011;" horiz-adv-x="564" d="M41 304v171h483v-171h-483z" />
<glyph unicode="&#x2012;" horiz-adv-x="564" d="M41 304v171h483v-171h-483z" />
<glyph unicode="&#x2013;" d="M-14 342v100h875v-100h-875z" />
<glyph unicode="&#x2014;" horiz-adv-x="1695" d="M-17 341v101h1727v-101h-1727z" />
<glyph unicode="&#x2018;" horiz-adv-x="564" d="M126 803q0 118 71.5 210t212.5 135v-37q-97 -41 -140.5 -107t-43.5 -134q0 -14 2 -21q3 -8 10 -8q5 0 21 6q24 14 60 14q48 0 84 -38t36 -89q0 -55 -41 -96t-100 -41q-71 0 -121.5 55t-50.5 151z" />
<glyph unicode="&#x2019;" horiz-adv-x="564" d="M126 1010q0 55 41.5 96.5t99.5 41.5q71 0 121.5 -55t50.5 -151q0 -119 -71.5 -210.5t-211.5 -134.5v36q98 41 141 107t43 135q0 14 -5 21t-9 7q-5 0 -20 -6q-24 -14 -59 -14q-49 0 -85 38t-36 89z" />
<glyph unicode="&#x201a;" horiz-adv-x="564" d="M126 117q0 54 41.5 95.5t99.5 41.5q71 0 123.5 -55t52.5 -151q0 -118 -73.5 -210t-213.5 -135v36q101 42 144 107.5t43 134.5q0 14 -5 21t-10 7t-22 -6q-24 -14 -59 -14q-49 0 -85 38t-36 90z" />
<glyph unicode="&#x201c;" d="M67 805q0 112 68.5 200.5t216.5 142.5v-41q-86 -31 -134.5 -98.5t-48.5 -140.5q0 -16 5 -23q3 -5 7 -5t13 6q26 19 67 19q47 0 83.5 -38.5t36.5 -91.5q0 -56 -42 -98t-102 -42q-69 0 -119.5 57t-50.5 153zM465 805q0 112 68.5 200.5t216.5 142.5v-41 q-86 -31 -134.5 -98.5t-48.5 -140.5q0 -16 5 -23q3 -5 7 -5t13 6q26 19 67 19q47 0 83.5 -38.5t36.5 -91.5q0 -56 -42 -98t-102 -42q-69 0 -119.5 57t-50.5 153z" />
<glyph unicode="&#x201d;" d="M69 1008q0 56 41 98t102 42q68 0 119 -57t51 -153q0 -111 -68.5 -199.5t-216.5 -143.5v41q85 32 134 99.5t49 139.5q0 16 -5 24q-3 5 -7 5t-13 -7q-27 -19 -66 -19q-48 0 -84 38.5t-36 91.5zM467 1008q0 56 41 98t102 42q68 0 119 -57t51 -153q0 -111 -68.5 -199.5 t-216.5 -143.5v41q85 32 134 99.5t49 139.5q0 16 -5 24q-3 5 -7 5t-13 -7q-27 -19 -66 -19q-48 0 -84 38.5t-36 91.5z" />
<glyph unicode="&#x201e;" d="M69 116q0 55 41 97.5t102 42.5q68 0 119 -57.5t51 -152.5q0 -111 -68.5 -200t-216.5 -143v40q85 33 134.5 102t49.5 144q0 11 -6 17q-3 5 -7 5t-13 -6q-27 -19 -66 -19q-48 0 -84 38.5t-36 91.5zM467 116q0 55 41 97.5t102 42.5q68 0 119 -57.5t51 -152.5 q0 -111 -68.5 -200t-216.5 -143v40q85 32 135.5 99.5t50.5 140.5q0 15 -5 23q-3 5 -7 5t-16 -6q-27 -19 -66 -19q-48 0 -84 38.5t-36 91.5z" />
<glyph unicode="&#x2022;" horiz-adv-x="593" d="M64 559q0 99 68.5 168t167.5 69t167.5 -69t68.5 -168q0 -97 -69 -166.5t-167 -69.5t-167 69.5t-69 166.5z" />
<glyph unicode="&#x2026;" horiz-adv-x="1695" d="M145 117q0 57 40 97.5t97 40.5q58 0 98 -40.5t40 -97.5t-40.5 -97.5t-97.5 -40.5t-97 40.5t-40 97.5zM710 117q0 57 40 97t97 40t97.5 -40t40.5 -97t-40.5 -97.5t-97.5 -40.5t-97 40.5t-40 97.5zM1275 115q0 57 40 97t97 40q58 0 98 -40t40 -97t-40 -97t-98 -40 q-57 0 -97 40t-40 97z" />
<glyph unicode="&#x202f;" horiz-adv-x="301" />
<glyph unicode="&#x2039;" horiz-adv-x="564" d="M77 388l345 378h65l-194 -378l194 -382h-65z" />
<glyph unicode="&#x203a;" horiz-adv-x="564" d="M79 6l193 382l-193 378h65l344 -378l-344 -382h-65z" />
<glyph unicode="&#x205f;" horiz-adv-x="376" />
<glyph unicode="&#x20ac;" d="M-19 477l19 64h61v13q0 25 2 56h-82l19 64h70q28 191 147 324q134 147 325 147q90 0 158 -25q20 -7 98 -48v-247h-32q-9 116 -63.5 184t-143.5 68q-104 0 -168 -131q-50 -105 -67 -272h398l-19 -64h-384q-3 -35 -3 -69h369l-19 -64h-348q15 -422 211 -422q94 0 157 60 q32 31 96 133l38 -29q-66 -117 -116 -162q-88 -80 -225 -80q-196 0 -307 160q-92 132 -107 340h-84z" />
<glyph unicode="&#x2122;" horiz-adv-x="1695" d="M-2 935v187h642v-187h-29q-3 73 -40 108.5t-120 35.5h-31v-486q0 -70 14 -87q19 -24 71 -24v-28h-376v28q49 4 61 10.5t18 24t6 79.5v483h-29q-79 0 -116.5 -34t-43.5 -110h-27zM731 454v28q48 3 62.5 11t21.5 25t7 76v387q0 59 -7.5 76t-22.5 25.5t-61 8.5v31h305 l191 -410l190 410h287v-31q-40 0 -55 -8.5t-22 -25t-7 -77.5v-391q0 -63 13 -79q19 -24 71 -28v-28h-382v28q61 2 78 20t17 87v419l-265 -554h-20l-263 554v-416q0 -56 5 -69q6 -18 25 -29t65 -12v-28h-233z" />
<glyph unicode="&#x25fc;" horiz-adv-x="775" d="M0 0v775h775v-775h-775z" />
</font>
</defs>
</svg>
