<?xml version="1.0" standalone="no"?>
<!DOCTYPE svg PUBLIC "-//W3C//DTD SVG 1.1//EN" "http://www.w3.org/Graphics/SVG/1.1/DTD/svg11.dtd" >
<svg xmlns="http://www.w3.org/2000/svg" xmlns:xlink="http://www.w3.org/1999/xlink" version="1.1">
<metadata></metadata>
<defs>
<font id="nalandatimbold" horiz-adv-x="1024" >
<font-face units-per-em="2048" ascent="1638" descent="-410" />
<missing-glyph horiz-adv-x="512" />
<glyph horiz-adv-x="0" />
<glyph unicode="&#xd;" horiz-adv-x="4" d="M0 2h4v-6h-4v6z" />
<glyph horiz-adv-x="1138" d="M33 895v49h385v-694q0 -145 114 -146q78 0 168 91v579q0 76 -36 100q-23 14 -91 21v49h412v-737q0 -63 23.5 -90t91.5 -29v-47q-201 -20 -250 -29q-63 -10 -148 -39v133q-158 -135 -290 -135q-145 0 -217 88q-61 76 -62 199v516q0 61 -18.5 86t-81.5 35zM287 1370 q0 90 100 90q57 0 107 -57l280 -322h-115l-290 181q-82 51 -82 108z" />
<glyph horiz-adv-x="1138" d="M33 895v49h385v-694q0 -145 114 -146q78 0 168 91v579q0 76 -36 100q-23 14 -91 21v49h412v-737q0 -63 23.5 -90t91.5 -29v-47q-201 -20 -250 -29q-63 -10 -148 -39v133q-158 -135 -290 -135q-145 0 -217 88q-61 76 -62 199v516q0 61 -18.5 86t-81.5 35zM211 1081 l250 361h188l252 -361h-117l-229 201l-229 -201h-115z" />
<glyph unicode=" "  horiz-adv-x="512" />
<glyph unicode="&#x09;" horiz-adv-x="512" />
<glyph unicode="&#xa0;" horiz-adv-x="512" />
<glyph unicode="!" horiz-adv-x="681" d="M166 1212q0 203 174 203q172 0 172 -203q0 -63 -53 -233q-61 -203 -90 -500h-60q-29 297 -90 500q-53 170 -53 233zM168 145q0 70 50 122t122 52t123 -51t51 -123q0 -74 -50 -123t-124 -49t-123 50.5t-49 121.5z" />
<glyph unicode="&#x22;" horiz-adv-x="1136" d="M170 1268q2 147 131 147q61 0 97 -40.5t36 -106.5q0 -59 -90 -441h-84q-90 385 -90 441zM702 1268q2 147 132 147q61 0 97 -40.5t36 -106.5q0 -59 -90 -441h-84q-90 385 -91 441z" />
<glyph unicode="#" d="M8 430l2 150h217l37 274h-196l2 150h215l61 430h158l-60 -430h232l61 430h158l-59 -430h180l-2 -150h-199l-37 -274h178l-2 -150h-198l-60 -430h-159l59 430h-231l-60 -430h-160l60 430h-197zM387 580h231l37 274h-231z" />
<glyph unicode="$" d="M59 1016q0 166 125 266q106 88 254 94v160h113v-156q199 -29 326 -106v-289h-43q-84 295 -283 328v-441q213 -109 291 -180q125 -116 125 -284q0 -203 -131 -304q-94 -72 -285 -104v-203h-113v203q-141 6 -344 88v320l43 -5q86 -303 299 -342v514q-164 80 -243 154 q-133 125 -134 287zM254 1133q0 -137 182 -203v389q-182 -41 -182 -186zM551 61q190 36 190 226q0 80 -51 131q-31 33 -139 94v-451z" />
<glyph unicode="%" horiz-adv-x="2048" d="M254 868q0 240 172 396q139 125 272 125q86 0 174.5 -56.5t194.5 -56.5q113 0 217 49q74 37 94.5 64.5t34.5 27.5h78l-807 -1433h-113l709 1261l-4 4q-111 -51 -232 -51q-31 0 -92 10q14 -197 -96 -385q-129 -221 -342 -221q-106 0 -183 75t-77 191zM487 805 q0 -109 103 -109q113 0 209 176q86 158 86 291q0 70 -60 92q-12 4 -33.5 20.5t-31.5 16.5q-84 0 -182 -198q-90 -182 -91 -289zM1096 244q0 203 149 364q143 154 301 154q250 0 250 -250q0 -168 -102 -334q-127 -207 -328 -207q-123 0 -196.5 80t-73.5 193zM1335 188 q0 -123 109 -122q100 0 196 161q89 150 89 277q0 154 -111 153q-104 0 -201 -204q-82 -174 -82 -265z" />
<glyph unicode="&#x26;" horiz-adv-x="1705" d="M127 332q0 174 149 307q84 74 252 156q-106 176 -106 292q0 170 129 256q106 72 268 72q176 0 268 -82q76 -68 76 -166q0 -197 -311 -301l309 -438q156 190 156 289q0 53 -24.5 67.5t-110.5 24.5v49h422v-49q-68 -6 -95.5 -22.5t-54.5 -59.5q-55 -90 -246 -367 q78 -98 119 -135q61 -51 127 -51q74 0 117 78l41 -25l-44 -71q-44 -72 -46 -74q-96 -115 -238 -115q-98 0 -182 58q-49 35 -129 122q-231 -178 -455 -178q-160 0 -268 90q-123 100 -123 273zM412 532q0 -123 92 -256q104 -152 237 -151q76 0 185 80q-84 111 -264 381 l-99 147q-84 -47 -117.5 -91t-33.5 -110zM662 1227q0 -119 151 -301q143 47 143 168q0 88 -49 166q-55 88 -137 88q-109 0 -108 -121z" />
<glyph unicode="'" horiz-adv-x="569" d="M154 1268q2 147 131 147q61 0 97 -40.5t36 -106.5q0 -59 -90 -441h-84q-90 385 -90 441z" />
<glyph unicode="(" horiz-adv-x="681" d="M94 518q0 385 223 658q141 170 310 245v-55q-160 -109 -215 -223q-86 -184 -86 -606q0 -393 75 -576q61 -150 226 -248v-57q-309 166 -445 465q-88 193 -88 397z" />
<glyph unicode=")" horiz-adv-x="681" d="M55 -289q160 109 215 223q86 184 86 607q0 393 -75 575q-61 150 -226 248v57q309 -166 445 -465q88 -192 88 -397q0 -385 -223 -657q-141 -170 -310 -246v55z" />
<glyph unicode="*" d="M115 1143q0 49 35 78q27 20 55 20q82 0 131 -84q63 -109 147 -145l15 6q2 96 -43 173t-45 124q0 43 30.5 71.5t73.5 28.5q100 0 100 -110q0 -41 -42 -115t-35 -172l16 -6q80 57 152 164q47 72 106 71q47 0 78 -39q27 -31 26 -65q0 -31 -25.5 -60.5t-58.5 -42.5 q-16 -6 -114 -10q-76 -4 -148 -55v-17q57 -33 236 -55q110 -16 110 -104q0 -41 -29.5 -70t-70.5 -29q-66 0 -113 68q-63 90 -83.5 112.5t-73.5 49.5l-15 -10q8 -106 52 -187q37 -74 36 -104q0 -43 -28.5 -75t-77.5 -32t-76 41q-20 31 -20 72q0 47 39 112.5t39 172.5l-15 10 q-82 -53 -153 -160q-51 -76 -113 -76q-31 0 -63.5 27t-32.5 72q0 76 80 106q27 10 118 12q78 2 146 56l2 14q-74 37 -174 49q-106 12 -127 21q-47 23 -47 92z" />
<glyph unicode="+" horiz-adv-x="1167" d="M68 428v180h426v428h180v-428h426v-180h-426v-428h-180v428h-426z" />
<glyph unicode="," horiz-adv-x="512" d="M80 150q0 78 47 122.5t121 44.5q102 0 160 -75q49 -66 49 -158q0 -260 -340 -453l-23 45q223 152 223 271q0 45 -41 45q-4 0 -17 -2t-28 -2q-55 0 -96 32q-55 43 -55 130z" />
<glyph unicode="-" horiz-adv-x="681" d="M90 350v238h498v-238h-498z" />
<glyph unicode="." horiz-adv-x="512" d="M84 145q0 70 50 122t122 52t123 -51t51 -123q0 -74 -50 -123t-124 -49t-123 50.5t-49 121.5z" />
<glyph unicode="/" horiz-adv-x="569" d="M-49 -39l483 1454h184l-483 -1454h-184z" />
<glyph unicode="0" d="M49 680q0 356 156 559q131 170 309 170q180 0 311 -180q150 -205 150 -549q0 -289 -123 -492q-133 -215 -340 -215q-199 0 -331 200t-132 507zM373 455q0 -225 30 -322q33 -102 111 -102q80 0 108.5 115.5t28.5 308.5v469q0 229 -33.5 328.5t-107.5 99.5q-90 0 -121 -150 q-16 -86 -16 -278v-469z" />
<glyph unicode="1" d="M133 1133v53l516 223h35v-1167q0 -113 35 -148q43 -45 186 -45v-49h-768v49q162 -2 211 53q33 39 33 152v788q0 141 -80 142q-35 0 -168 -51z" />
<glyph unicode="2" d="M35 0v47q305 328 414 475q166 227 165 391q0 80 -43 154q-66 109 -200 109q-168 0 -250 -185h-58q147 418 451 418q133 0 238 -74q141 -102 141 -309q0 -217 -234 -438l-331 -316h309q143 0 180 17q63 27 113 143h49l-92 -432h-852z" />
<glyph unicode="3" d="M33 160q0 49 38 81.5t89 32.5q92 0 197.5 -100t162.5 -100q86 0 139 53q66 63 66 190q0 178 -147 289q-82 61 -265 123v35q117 37 170 76q96 72 97 192q0 211 -218 211q-135 0 -243 -172l-43 25q55 119 162 204q133 109 297 109q156 0 245 -68q98 -72 99 -208 q0 -106 -52 -170q-33 -41 -118 -95q119 -43 184 -142t65 -218q0 -221 -170 -375q-176 -162 -446 -162q-131 0 -215 45q-94 51 -94 144z" />
<glyph unicode="4" d="M39 295v231q160 256 641 883h164v-887h129v-227h-129v-295h-297v295h-508zM123 522h428v602h-4z" />
<glyph unicode="5" d="M45 164q0 49 33 86t94 37q72 0 198 -89t189 -89q72 0 129 43q76 59 76 170q0 88 -70 165q-59 70 -149 109q-137 61 -441 82l199 706h660l-89 -260h-569l-45 -166q162 -8 244 -24q113 -23 207 -76q84 -47 141 -135q72 -109 72 -246q0 -209 -154 -348q-162 -145 -432 -145 q-125 0 -205 47q-88 49 -88 133z" />
<glyph unicode="6" d="M57 582q0 303 224 530q248 254 682 297v-53q-440 -88 -545 -529q84 35 184 35q141 0 238 -82q133 -112 133 -348q0 -139 -84 -270q-123 -188 -363 -189q-178 0 -303 121q-166 158 -166 488zM379 559q0 -307 31 -416q33 -115 127 -114q84 0 108 84q17 52 17 206 q0 236 -35 336q-39 115 -140 115q-66 0 -90 -27q-2 -2 -10 -67q-8 -72 -8 -117z" />
<glyph unicode="7" d="M35 930l90 454h852l-481 -1384h-195l410 1104h-424q-156 0 -201 -174h-51z" />
<glyph unicode="8" d="M57 317q0 250 308 347q-285 160 -285 380q0 156 110 254q123 111 355 111q209 0 313 -104q80 -80 80 -193q0 -193 -279 -285q308 -182 308 -438q0 -190 -130 -303t-352 -113q-176 0 -297 88q-131 94 -131 256zM305 322q0 -119 47 -197q53 -86 148 -86q182 0 182 240 q0 113 -84 202q-51 53 -188 146q-57 -86 -76 -131q-29 -74 -29 -174zM344 1184q0 -186 266 -320q84 113 84 236q0 250 -182 250q-72 0 -120 -50.5t-48 -115.5z" />
<glyph unicode="9" d="M53 950q0 139 86 271q121 188 361 188q178 0 303 -119q166 -159 166 -489q0 -303 -221 -531q-250 -254 -685 -297v54q428 86 549 532q-74 -39 -188 -39q-141 0 -238 84q-133 111 -133 346zM365 1063q0 -236 34 -336q39 -115 140 -115q86 0 90 27q18 110 18 184 q0 307 -31.5 419t-126.5 112q-84 0 -108 -84q-16 -53 -16 -207z" />
<glyph unicode=":" horiz-adv-x="681" d="M168 145q0 70 50 122t122 52t123 -51t51 -123q0 -74 -50 -123t-124 -49t-123 50.5t-49 121.5zM168 795q0 70 50 121t122 51t123 -50t51 -122q0 -74 -51 -124t-123 -50q-74 0 -123 50t-49 124z" />
<glyph unicode=";" horiz-adv-x="681" d="M168 150q0 78 47 122.5t121 44.5q102 0 160 -75q49 -66 49 -158q0 -260 -340 -453l-23 45q223 152 224 271q0 45 -41 45l-46 -4q-41 0 -77 20q-74 39 -74 142zM168 795q0 70 50 121t122 51t123 -50t51 -122q0 -74 -51 -124t-123 -50q-74 0 -123 50t-49 124z" />
<glyph unicode="&#x3c;" horiz-adv-x="1167" d="M63 440v156l1041 457v-181l-807 -354l807 -354v-180z" />
<glyph unicode="=" horiz-adv-x="1167" d="M68 219v180h1032v-180h-1032zM68 637v180h1032v-180h-1032z" />
<glyph unicode="&#x3e;" horiz-adv-x="1167" d="M63 -16v180l807 354l-807 354v181l1041 -457v-156z" />
<glyph unicode="?" d="M117 1118q0 98 73 178q104 115 324 115q121 0 223 -51q174 -90 174 -297q0 -178 -192 -297q-94 -57 -101 -61q-61 -45 -80.5 -85t-19.5 -147h-61q-4 78 -4 90q0 80 76.5 223.5t76.5 282.5q0 268 -176 268q-121 0 -121 -82q0 -27 38 -67.5t38 -95.5q0 -70 -47 -105 q-35 -27 -78 -26q-72 0 -110 51q-33 45 -33 106zM315 145q0 70 51.5 122t122.5 52q70 0 121.5 -51t51.5 -123q0 -74 -50.5 -123t-122.5 -49q-74 0 -124 50.5t-50 121.5z" />
<glyph unicode="@" horiz-adv-x="1904" d="M221 655q0 334 230 551q221 209 540 209q293 0 492.5 -177t199.5 -443q0 -180 -100 -332q-115 -170 -291 -170q-92 0 -147 65q-43 49 -41 84h-4q-27 -43 -84 -84q-78 -57 -160 -63q-70 -4 -123 41q-80 68 -80 217q0 154 103 313q125 197 313 197q66 0 100 -35 q18 -16 50 -74l22 82h145l-135 -532q-4 -18 -4 -41q0 -94 78 -94q113 0 191 145q72 129 71 279q0 199 -155 360q-176 182 -441 182q-246 0 -405 -174q-176 -193 -176 -526q0 -233 168 -404q176 -176 434 -176q199 0 418 101l26 -72q-254 -123 -442 -123q-377 0 -602 242 q-190 203 -191 452zM811 565q0 -174 127 -174q76 0 145 109q79 124 99 331q0 133 -90 134q-88 0 -179 -107q-102 -123 -102 -293z" />
<glyph unicode="A" horiz-adv-x="1478" d="M18 0v51q76 12 119 68q29 39 82 172l455 1122h57l457 -1077q76 -180 108 -225q44 -60 113 -60h2v-51h-663v51q104 8 129 19q34 14 34 58q0 60 -94 275h-461q-90 -231 -90 -264q0 -78 168 -88v-51h-416zM387 483h399l-206 498z" />
<glyph unicode="B" horiz-adv-x="1366" d="M33 0v51q102 10 133 31q47 29 47 115v991q0 90 -55 121q-33 18 -125 24v51h633q184 0 309 -43q223 -80 223 -284q0 -145 -127 -230q-55 -37 -190 -77v-5q156 -27 258 -104q129 -100 129 -260q0 -152 -125 -254q-154 -127 -451 -127h-659zM541 190q0 -124 121 -124h2 q251 0 251 307q0 329 -311 329h-2h-61v-512zM541 764q197 0 262 70q57 59 57 225q0 264 -211 264q-109 0 -108 -100v-459z" />
<glyph unicode="C" horiz-adv-x="1478" d="M100 680q0 315 203 525t522 210q109 0 247 -50t149 -50q57 0 94 94h55v-479h-51q-66 162 -178 276q-139 141 -299 142q-379 0 -379 -660q0 -299 88 -450q57 -96 164 -146q76 -33 147 -33q258 0 484 252l61 -51q-129 -145 -244 -213q-145 -86 -327 -86q-344 0 -547 215 q-188 201 -189 504z" />
<glyph unicode="D" horiz-adv-x="1478" d="M29 0v51q170 0 170 135v1010q0 82 -56 113q-29 16 -114 24v51h624q395 0 596 -217q164 -180 164 -454q0 -305 -174 -498q-197 -215 -563 -215h-647zM530 190q0 -66 24 -92t93 -26h1q409 0 409 620q0 221 -68 381q-102 242 -332 242q-86 0 -112 -31q-14 -18 -15 -65v-1029 z" />
<glyph unicode="E" horiz-adv-x="1366" d="M33 0v51q104 10 133 31q47 29 47 115v991q0 90 -55 121q-33 18 -125 24v51h1181v-411h-51q-33 207 -147 280q-98 61 -322 62q-90 0 -116 -15q-33 -18 -33 -81v-476h10q150 0 217 58q82 66 105 248h53v-693h-53q-18 184 -99 254q-74 63 -233 64v-496q0 -68 35.5 -91.5 t136.5 -23.5q178 0 297 66q154 86 241 297h58l-82 -426h-1198z" />
<glyph unicode="F" horiz-adv-x="1251" d="M33 0v51q104 10 133 31q47 29 47 115v991q0 90 -53 121q-33 18 -127 24v51h1161v-411h-49q-39 184 -111 252q-98 90 -342 90q-88 0 -114 -15q-33 -18 -33 -81v-476h7q164 0 234 91q45 57 72 215h51v-693h-51q-20 158 -67 222q-72 96 -246 96v-477q0 -92 59 -121 q39 -18 166 -25v-51h-737z" />
<glyph unicode="G" horiz-adv-x="1593" d="M76 680q0 311 196 518q205 217 529 217q109 0 247 -50t148 -50q57 0 94 94h56v-479h-52q-66 162 -178 276q-139 141 -299 142q-379 0 -379 -664q0 -227 56 -383q96 -272 344 -272q125 0 174 41q39 35 39 108v215q0 90 -52 119q-33 18 -155 25v51h702v-51 q-106 -12 -135 -37q-41 -35 -41 -152v-260q-72 -51 -243 -89t-310 -38q-360 0 -563 225q-178 199 -178 494z" />
<glyph unicode="H" horiz-adv-x="1593" d="M43 0v51q96 12 127 33q47 31 47 113v991q0 88 -55 119q-31 18 -119 26v51h690v-51q-92 -6 -125 -24q-59 -31 -59 -121v-424h493v424q0 90 -57 121q-35 18 -127 24v51h696v-51q-90 -6 -122 -24q-57 -33 -58 -121v-991q0 -84 49 -113q31 -20 131 -33v-51h-696v51 q100 12 133 31q51 31 51 115v471h-493v-471q0 -84 51 -115q33 -18 133 -31v-51h-690z" />
<glyph unicode="I" horiz-adv-x="796" d="M41 0v51q102 10 137 29q53 31 53 117v991q0 90 -59 121q-35 18 -131 24v51h717v-51q-98 -4 -133 -22q-61 -31 -62 -123v-991q0 -88 55 -119q35 -18 140 -27v-51h-717z" />
<glyph unicode="J" d="M6 63q0 78 51 121q41 37 95 37q47 0 90 -35q57 -43 57 -118q0 -43 -27.5 -75t-27.5 -59q0 -63 90 -63q133 0 133 178v1139q0 94 -59 123q-37 18 -148 22v51h721v-51q-104 -8 -135 -30q-47 -37 -47 -158v-893q0 -449 -447 -449q-195 0 -289 117q-57 74 -57 143z" />
<glyph unicode="K" horiz-adv-x="1593" d="M61 0v51q100 10 132 31q47 29 47 115v991q0 90 -54 121q-33 18 -125 24v51h693v-51q-102 -8 -133 -30q-49 -37 -50 -158v-438l445 446q74 74 74 113q0 35 -33 48t-142 19v51h592v-51q-152 -8 -280 -104q-94 -72 -377 -361l625 -774q33 -39 100 -43v-51h-688v51 q96 4 129 11.5t33 31.5q0 29 -50 90l-372 465l-56 -51v-401q0 -84 50 -113q31 -20 131 -33v-51h-691z" />
<glyph unicode="L" horiz-adv-x="1366" d="M39 0v51q102 12 131 31q45 29 45 115v991q0 90 -53 121q-33 18 -123 24v51h715v-51q-123 -6 -158 -28q-49 -35 -49 -160v-967q0 -80 57 -102q31 -12 125 -13q213 0 340 115q96 86 178 287h60l-84 -465h-1184z" />
<glyph unicode="M" horiz-adv-x="1933" d="M29 0v51q119 10 152.5 42t33.5 122v973q0 80 -37 108.5t-145 36.5v51h518l410 -966l409 966h516v-51q-102 -8 -133 -30q-47 -37 -47 -158v-905q0 -115 39 -150q29 -23 141 -39v-51h-680v51q106 10 137 31q45 31 46 123v1032h-5l-512 -1237h-55l-512 1206h-4v-952 q0 -111 41 -153t166 -50v-51h-479z" />
<glyph unicode="N" horiz-adv-x="1478" d="M33 0v51q104 12 137 37q43 33 43 127v971q-119 147 -174 147v51h432l711 -874h4v620q0 100 -33 144q-41 51 -158 59v51h441v-51q-96 -12 -128 -44t-32 -120v-1206h-57l-912 1110h-4v-819q0 -109 40 -150t155 -53v-51h-465z" />
<glyph unicode="O" horiz-adv-x="1593" d="M72 688q0 326 215 531q204 196 507 196h3q305 0 510 -196q215 -205 215 -531q0 -322 -204 -524.5t-521 -202.5t-521 203t-204 524zM434 688q0 -659 363 -659q362 0 362 659q0 270 -74 442q-94 217 -288 218q-195 0 -289 -218q-74 -172 -74 -442z" />
<glyph unicode="P" horiz-adv-x="1251" d="M33 0v51q102 16 119 29q53 39 53 160v905q0 117 -45 155q-31 25 -127 33v51h659q199 0 330 -59q207 -92 207 -317q0 -205 -187 -310q-92 -51 -200 -65q-78 -10 -305 -12v-381q0 -117 36 -150q27 -25 144 -39v-51h-684zM537 692h22q172 0 243 60q75 64 75 249 q0 172 -56.5 242t-185.5 70q-98 0 -98 -72v-549z" />
<glyph unicode="Q" horiz-adv-x="1593" d="M72 662q0 344 215 555q202 198 507 198h3q305 0 510 -196q215 -205 215 -531q0 -264 -141.5 -451.5t-376.5 -248.5q106 -252 354 -252q51 0 137 24l12 -49q-190 -71 -374 -71h-5q-117 0 -237 45q-240 88 -332 311q-233 70 -366 272q-121 180 -121 394zM434 688 q0 -659 363 -659q362 0 362 659q0 270 -74 442q-94 217 -288 218q-195 0 -289 -218q-74 -172 -74 -442z" />
<glyph unicode="R" horiz-adv-x="1478" d="M53 0v51q115 14 144 39q36 32 36 144v6v905q0 121 -47 158q-29 23 -133 30v51h660q205 0 342 -51q235 -88 235 -307q0 -166 -119 -258q-66 -51 -202 -94l411 -584q27 -39 84 -39v-51h-420l-423 641h-56v-401q0 -115 39 -150q29 -23 141 -39v-51h-692zM565 707 q213 2 289 57q86 66 86 256q0 295 -248 295q-78 0 -102 -19q-16 -14 -25 -67v-522z" />
<glyph unicode="S" horiz-adv-x="1138" d="M72 -39v506h59q37 -182 127 -297q115 -141 293 -141q156 0 221 104q35 59 35 125q0 92 -66 152q-41 41 -163 98l-138 65q-227 109 -307 246q-43 78 -43 193q0 143 80 248q116 155 370 155h3q94 0 198.5 -33.5t120.5 -33.5q49 0 68 69h61v-444h-57q-37 139 -123 244 q-117 135 -279 135q-88 0 -149 -47q-70 -53 -70 -148q0 -84 41 -131t170 -111l301 -149q78 -39 140 -117q86 -113 86 -260q0 -162 -113 -280q-139 -147 -395 -148q-113 0 -223.5 35t-126.5 35q-43 0 -62 -70h-59z" />
<glyph unicode="T" horiz-adv-x="1366" d="M63 973l7 411h1228l5 -411h-60q-27 215 -160 293q-74 43 -233 53v-1079q0 -123 43 -156q33 -25 158 -33v-51h-732v51q125 10 156 35q43 33 43 154v1079q-162 -8 -235 -53q-133 -78 -160 -293h-60z" />
<glyph unicode="U" horiz-adv-x="1478" d="M33 1333v51h692v-51q-117 -6 -150 -28q-49 -35 -49 -160v-684q0 -158 37 -244q68 -156 258 -156q365 0 365 445v624q0 104 -35 146q-43 51 -166 57v51h451v-51q-92 -12 -123 -43q-37 -35 -37 -131v-653q0 -272 -115 -395q-139 -150 -403 -150q-268 0 -416 129 q-76 66 -104 131q-37 86 -37 240v684q0 119 -41 153q-27 25 -127 35z" />
<glyph unicode="V" horiz-adv-x="1478" d="M33 1333v51h688v-51q-111 -6 -137 -16q-39 -16 -39 -70q0 -29 61 -176l268 -647l261 674q41 106 41 141q0 55 -46 76q-33 12 -131 18v51h437v-51q-80 -10 -115 -44t-70 -124l-467 -1202h-55l-524 1227q-37 86 -74 113q-25 18 -98 30z" />
<glyph unicode="W" horiz-adv-x="2048" d="M39 1333v51h602v-51q-70 -6 -92 -16q-39 -18 -39 -70q0 -25 14 -67l244 -740h4l240 625l-72 197q-23 37 -47 51q-31 18 -100 20v51h639v-51q-82 -6 -107 -14q-41 -16 -41 -64q0 -23 29 -112l219 -682h4l227 696q14 43 15 86q0 55 -45 76q-25 10 -97 14v51h373v-51 q-100 -8 -141 -131l-410 -1233h-55l-344 959h-15l-372 -959h-58l-434 1233q-27 74 -52.5 98.5t-88.5 32.5z" />
<glyph unicode="X" horiz-adv-x="1478" d="M33 0v51q139 20 213 115l358 452l-405 596q-41 61 -66 82q-41 35 -98 37v51h708v-51q-104 -6 -127 -14q-34 -12 -34 -51q0 -31 30 -78l199 -307q176 244 204.5 291t28.5 88q0 43 -38 57q-25 8 -109 14v51h512v-51q-135 -12 -223 -98q-74 -74 -326 -428l373 -580 q74 -115 119 -149q29 -23 80 -27v-51h-697v51q94 6 123 15q41 12 41 51q0 37 -43 106l-207 332l-78 -104q-192 -257 -192 -313q0 -73 166 -87v-51h-512z" />
<glyph unicode="Y" horiz-adv-x="1478" d="M31 1333v51h686v-51q-88 0 -105 -4q-61 -12 -61 -65q0 -20 49 -115l246 -475l227 379q80 133 80 190q0 53 -49 74q-31 10 -123 16v51h451v-51q-45 -8 -70 -18q-43 -18 -70 -62l-391 -637v-376q0 -119 41 -152q29 -25 148 -37v-51h-711v51q119 12 147 37q43 33 43 152v301 l-374 680q-59 106 -164 112z" />
<glyph unicode="Z" horiz-adv-x="1366" d="M57 0v33l783 1280q-260 -8 -311.5 -11.5t-102.5 -19.5q-100 -31 -168 -137q-37 -59 -80 -182h-57l43 421h1073v-32l-776 -1280q40 -1 78 -1q332 0 446 48q186 78 260 375h53l-53 -494h-1188z" />
<glyph unicode="[" horiz-adv-x="681" d="M137 -305v1694h479v-68h-129q-86 0 -111.5 -26.5t-25.5 -116.5v-1307q0 -59 15 -80q20 -29 88 -29h163v-67h-479z" />
<glyph unicode="\" horiz-adv-x="569" d="M-51 1415h190l482 -1454h-189z" />
<glyph unicode="]" horiz-adv-x="681" d="M66 -238h163q70 0 90 29q12 18 13 80v1307q0 90 -25.5 116.5t-111.5 26.5h-129v68h479v-1694h-479v67z" />
<glyph unicode="^" horiz-adv-x="20" d="M637 1532l281 321q49 57 106 58q100 0 100 -90q0 -57 -82 -109l-290 -180h-115z" />
<glyph unicode="_" d="M0 -154h1024v-102h-1024v102z" />
<glyph unicode="`" horiz-adv-x="20" d="M547 1878h90q33 -178 221 -178q174 0 219 178h90q-23 -334 -311 -334q-145 0 -226 86t-83 248z" />
<glyph unicode="a" d="M51 190q0 143 166 238q104 61 385 145v150q0 88 -33 129q-43 51 -147 51q-51 0 -86 -23.5t-35 -50.5q0 -16 30.5 -55t30.5 -84q0 -39 -28 -72q-39 -43 -109 -43q-135 0 -135 140q0 104 96 176q106 78 287 78q180 0 291 -68q119 -76 119 -213v-534q0 -51 45 -52q12 0 20 9 l21 20l30 -43q-98 -117 -225 -117q-94 0 -135 52q-23 27 -37 92q-143 -143 -326 -144q-86 0 -149 52q-76 61 -76 167zM350 254q0 -53 25 -92q29 -45 80 -45q67 0 145 88v297q-78 -16 -143 -62q-106 -72 -107 -186z" />
<glyph unicode="b" horiz-adv-x="1138" d="M35 1335v49h397v-530q109 115 250 115q174 0 279.5 -135t105.5 -340q0 -217 -113 -359q-127 -164 -364 -164q-137 0 -256 117l-162 -115h-25v1244q0 66 -28 90q-18 16 -84 28zM432 199q0 -59 27 -103q37 -59 112 -59q195 0 195 426q0 395 -191 395q-94 0 -143 -121v-538z " />
<glyph unicode="c" horiz-adv-x="909" d="M51 440q0 272 170 416q133 113 314 113q121 0 213 -56q104 -66 104 -168q0 -131 -139 -131q-76 0 -101 64q-14 39 -14 147q0 80 -84 80q-174 0 -174 -344q0 -209 81 -330.5t204 -121.5q117 0 219 114l37 -37q-152 -215 -392 -215q-193 0 -315.5 137.5t-122.5 331.5z" />
<glyph unicode="d" horiz-adv-x="1138" d="M51 442q0 250 125 398q113 129 270 129q125 0 242 -127v375q0 76 -35 96q-25 16 -121 22v49h441v-1177q0 -55 16 -78q27 -39 105 -41v-47q-197 -25 -248 -33q-59 -10 -152 -35v133q-68 -72 -112 -96q-68 -39 -172 -39q-137 0 -244 123q-115 137 -115 348zM354 471 q0 -385 164 -385q61 0 121 64q49 52 49 79v498q-51 127 -160 127q-174 0 -174 -383z" />
<glyph unicode="e" horiz-adv-x="909" d="M51 473q0 223 123 363q119 133 299 133q362 0 389 -467h-516q14 -383 246 -383q119 0 231 137l49 -29q-92 -139 -186 -197.5t-219 -58.5q-172 0 -285 119q-131 137 -131 383zM336 578h274q0 86 -18 231q-27 96 -111 96q-145 0 -145 -327z" />
<glyph unicode="f" horiz-adv-x="681" d="M29 0v49q63 8 84 25q33 25 32 98v682h-116v90h116q0 217 48 309q82 162 325 162q106 0 187 -49q92 -58 92 -156q0 -55 -35 -91t-94 -36q-57 0 -93 41q-28 30 -28 67q0 34 22.5 71.5t22.5 50.5q0 39 -62 39q-100 0 -100 -158v-250h178v-90h-178v-643q0 -102 35 -133 q29 -25 133 -29v-49h-569z" />
<glyph unicode="g" d="M57 -236q0 61 51.5 103.5t137.5 50.5v4q-82 29 -115 58q-45 41 -45 112q0 86 86 156q68 53 154 78v4q-250 92 -250 313q0 133 104 225q117 100 316 101q113 0 225 -45h266v-109h-166q82 -82 82 -203q0 -211 -215 -278q-57 -18 -258 -19q-35 0 -72 -28q-43 -31 -43 -74 q0 -49 45 -61q33 -10 160 -13l133 -2q336 -6 336 -250q0 -309 -526 -309q-190 0 -298 50t-108 136zM350 -338q61 -18 137 -18q340 0 340 145q0 104 -163 105h-355q-71 -56 -71 -113q0 -86 112 -119zM356 637q0 -127 23 -184q31 -80 113 -80q86 0 116 88q19 55 19 176 q0 268 -135 268q-84 0 -115 -86q-20 -57 -21 -182z" />
<glyph unicode="h" horiz-adv-x="1138" d="M33 0v49q63 12 82 29q27 25 26 94v1045q0 68 -24 90q-16 14 -84 28v49h393v-575q137 160 293 160q104 0 180 -60q94 -78 94 -229v-508q0 -123 101 -123v-49h-482v49q96 8 97 117v496q0 169 -112 169h-1q-53 0 -115 -53q-55 -45 -55 -65v-547q0 -106 100 -117v-49h-493z " />
<glyph unicode="i" horiz-adv-x="569" d="M33 0v49q66 16 82 31q27 25 26 92v602q0 66 -24 90q-20 18 -84 31v49h393v-778q0 -106 96 -117v-49h-489zM123 1255q0 66 46 113t114 47q66 0 111.5 -47t45.5 -113q0 -68 -46 -112.5t-111 -44.5q-70 0 -115 45t-45 112z" />
<glyph unicode="j" horiz-adv-x="681" d="M-117 -207q0 47 34 84t93 37q57 0 92 -39q29 -33 29 -72q0 -29 -23.5 -68.5t-23.5 -51.5q0 -35 66 -35q98 0 98 155v971q0 76 -37 100q-23 14 -92 21v49h413v-940q0 -420 -376 -420q-100 0 -179 47q-94 59 -94 162zM221 1255q0 66 45 113t113 47q66 0 113 -47t47 -113 q0 -68 -46.5 -112.5t-113.5 -44.5q-70 0 -114 45t-44 112z" />
<glyph unicode="k" horiz-adv-x="1138" d="M45 0v49q98 0 98 123v1045q0 118 -96 118h-2v49h383v-882l262 262q43 43 43 74q0 29 -21.5 38t-99.5 21v47h439v-47q-119 -20 -179 -70q-135 -111 -208 -198l397 -549q23 -31 51 -31v-49h-479v49q86 0 86 39q0 23 -49 92l-195 275l-47 -49v-234q0 -70 17.5 -91.5 t89.5 -31.5v-49h-490z" />
<glyph unicode="l" horiz-adv-x="569" d="M33 0v49q104 0 104 123v1045q0 118 -102 118h-2v49h389v-1212q0 -123 100 -123v-49h-489z" />
<glyph unicode="m" horiz-adv-x="1705" d="M33 0v49q61 10 82 29q31 27 30 94v602q0 72 -34 98q-20 14 -78 23v49h391v-147h4q100 172 291 172q121 0 192 -64q39 -37 76 -114q135 178 303 178q104 0 180 -60q94 -78 95 -229v-514q0 -53 12 -76q23 -39 90 -41v-49h-487v49q66 2 88 41q12 23 12 76v496 q0 169 -110 169h-1q-55 0 -118 -53q-53 -45 -54 -65v-547q0 -109 97 -117v-49h-480v49q98 6 99 117v496q0 169 -112 169h-1q-57 0 -119 -53q-51 -45 -51 -65v-547q0 -106 94 -117v-49h-491z" />
<glyph unicode="n" horiz-adv-x="1138" d="M43 0v49q63 12 82 29q27 25 27 94v602q0 66 -21.5 88.5t-87.5 32.5v49h391v-147h4q100 172 291 172q104 0 180 -60q94 -78 95 -229v-514q0 -53 12 -76q23 -39 88 -41v-49h-481v49q96 8 96 117v496q0 169 -112 169h-1q-53 0 -114 -53q-55 -45 -56 -65v-547 q0 -106 101 -117v-49h-494z" />
<glyph unicode="o" d="M51 469q0 207 125 348q131 152 338 152q201 0 331 -142.5t130 -357.5q0 -209 -125 -350q-131 -147 -336 -148q-207 0 -338 150q-125 141 -125 348zM352 469q0 -219 21 -299q35 -135 143 -135q98 0 131 119q27 90 27 315q0 242 -34 339t-126 97q-102 0 -137 -131 q-25 -88 -25 -305z" />
<glyph unicode="p" horiz-adv-x="1138" d="M39 -371q70 10 92.5 32t22.5 87v1026q0 63 -22.5 88t-88.5 33v49h391v-135h4q82 160 260 160q147 0 252 -113q123 -131 123 -360q0 -244 -119 -387q-109 -135 -274 -136q-78 0 -137 37q-39 23 -105 86v-289q0 -111 43 -151q33 -29 117 -33v-43h-559v49zM438 211 q53 -125 158 -125q174 0 174 371q0 176 -25 262q-35 133 -135 133q-61 0 -121 -61q-51 -51 -51 -82v-498z" />
<glyph unicode="q" horiz-adv-x="1138" d="M186 811q131 158 349 158q129 0 260 -117l159 115h31v-1219q0 -68 29 -90q18 -16 84 -29v-49h-547v51q94 16 117 39q32 30 32 125v6v285q-104 -115 -243 -115q-166 0 -271 119q-116 132 -116 377q0 201 116 344zM560 82h1q49 0 86 31q27 23 42 55.5t11 32.5v538 q0 68 -32 113q-39 51 -105 51q-194 0 -194 -412q0 -409 191 -409z" />
<glyph unicode="r" horiz-adv-x="909" d="M59 0v49q61 12 80 29q31 25 31 94v602q0 70 -33 96q-20 16 -78 25v49h387v-162h5q127 186 268 187q92 0 137 -62q33 -45 33 -98q0 -51 -27 -88q-35 -49 -104 -49q-66 0 -111 60.5t-72 60.5q-35 0 -71 -41q-49 -55 -49 -154v-387q0 -94 28.5 -126t120.5 -36v-49h-545z" />
<glyph unicode="s" horiz-adv-x="796" d="M51 -27v338h58q59 -270 288 -270q72 0 111 45q35 37 35 90q0 76 -127 141q-223 117 -234 125q-127 90 -127 226q0 133 91.5 217t234.5 84q55 0 131 -22.5t88 -22.5q37 0 51 41h45v-297h-51q-70 233 -254 233q-55 0 -93 -35t-38 -82q0 -84 125 -147q229 -117 229 -119 q125 -88 125 -231q0 -145 -89 -230.5t-232 -85.5q-61 0 -161.5 30t-98.5 30q-27 0 -56 -58h-51z" />
<glyph unicode="t" horiz-adv-x="681" d="M41 854v55q180 154 340 381h51v-346h193v-90h-193v-616q0 -117 80 -117q61 0 117 106l51 -22q-113 -229 -301 -230q-141 0 -199 93q-33 51 -33 122v664h-106z" />
<glyph unicode="u" horiz-adv-x="1138" d="M33 895v49h385v-694q0 -145 114 -146q78 0 168 91v579q0 76 -36 100q-23 14 -91 21v49h412v-737q0 -63 23.5 -90t91.5 -29v-47q-201 -20 -250 -29q-63 -10 -148 -39v133q-158 -135 -290 -135q-145 0 -217 88q-61 76 -62 199v516q0 61 -18.5 86t-81.5 35z" />
<glyph unicode="v" d="M43 895v49h512v-49q-61 -6 -80 -12q-29 -10 -29 -43q0 -14 19 -62l162 -416l147 373q23 57 23 92q0 43 -37 58q-20 8 -76 10v49h309v-49q-43 -6 -61 -21q-29 -23 -58 -92l-327 -811h-53l-246 607q-59 147 -119 262q-16 33 -29.5 41t-56.5 14z" />
<glyph unicode="w" horiz-adv-x="1478" d="M47 895v49h455v-49q-78 -10 -78 -61q0 -27 47 -150q63 -162 125 -324l139 351q-33 111 -44 137t-32 37q-12 4 -57 10v49h479v-49q-98 -8 -98 -51q0 -23 47 -191q59 -207 76 -278h4q8 23 100 264q59 154 60 180q0 45 -27 60q-18 10 -72 16v49h277v-49q-37 -8 -53 -21 q-27 -20 -49 -81l-318 -822h-47l-205 621h-10l-250 -621h-49l-303 766q-39 100 -57.5 125t-59.5 33z" />
<glyph unicode="x" d="M25 895v49h512v-49q-96 0 -97 -41q0 -49 146 -233q115 145 133 173.5t18 49.5q0 31 -19.5 39t-84.5 12v49h344v-49q-90 -12 -143 -80l-207 -258l303 -467q18 -27 61 -41v-49h-493v49q92 4 92 43q0 25 -37 84q-27 37 -117 174q-164 -199 -164 -248q0 -47 103 -53v-49h-346 v49q70 8 118 56.5t246 306.5l-262 403q-47 72 -106 80z" />
<glyph unicode="y" d="M33 -260q0 43 22 78q33 55 113 55q115 0 115 -104q0 -10 -3.5 -22.5t-3.5 -14.5q0 -35 35 -35q78 0 135 168l37 108l-245 605q-61 150 -119 262q-16 33 -29.5 41t-56.5 14v49h512v-49q-109 -8 -109 -55q0 -14 41 -119l148 -379l139 393q22 60 22 90q0 45 -36 60 q-20 8 -76 10v49h309v-49q-43 -6 -61 -21q-31 -23 -58 -92l-305 -813q-88 -233 -135 -297q-70 -92 -203 -92q-90 0 -143 55q-45 47 -45 105z" />
<glyph unicode="z" horiz-adv-x="909" d="M43 0v51l479 828q-205 -2 -266 -29q-88 -41 -125 -197h-53l14 291h760v-53l-473 -825q25 -1 47 -1q135 0 192 21q76 27 130 113q41 63 55 129h57l-33 -328h-784z" />
<glyph unicode="{" horiz-adv-x="806" d="M45 535q129 29 174 81t45 156v367q0 176 115 239q92 51 317 52v-25q-121 -23 -169 -83t-48 -171v-350q0 -119 -43 -172q-49 -66 -190 -92v-5q141 -27 190 -92q43 -53 43 -172v-350q0 -111 47 -168q49 -63 170 -84v-24q-225 0 -317 51q-115 63 -115 237v367 q0 104 -45 156.5t-174 81.5z" />
<glyph unicode="|" horiz-adv-x="20" d="M195 1442h116l230 -201l229 201h115l-250 -361h-189z" />
<glyph unicode="}" horiz-adv-x="806" d="M111 -334q121 23 169 83.5t48 170.5v350q0 119 43 172q49 66 190 93v4q-141 27 -190 92q-43 53 -43 172v350q0 111 -48.5 171t-168.5 81v25q225 0 317 -52q115 -63 115 -237v-367q0 -104 45 -156t174 -81q-129 -29 -174 -81.5t-45 -156.5v-367q0 -176 -115 -239 q-92 -51 -317 -51v24z" />
<glyph unicode="~" horiz-adv-x="20" d="M125 1415h90q33 -178 221 -178q174 0 219 178h90q-23 -334 -311 -334q-145 0 -226 86t-83 248z" />
<glyph horiz-adv-x="1138" d="M33 895v49h385v-694q0 -145 114 -146q78 0 168 91v579q0 76 -36 100q-23 14 -91 21v49h412v-737q0 -63 23.5 -90t91.5 -29v-47q-201 -20 -250 -29q-63 -10 -148 -39v133q-158 -135 -290 -135q-145 0 -217 88q-61 76 -62 199v516q0 61 -18.5 86t-81.5 35zM195 1159v148 h477l-289 176q-82 49 -82 108q0 90 100 90q55 0 107 -57l278 -317h84v-148h-675z" />
<glyph horiz-adv-x="1478" d="M18 0v51q76 12 119 68q29 39 82 172l455 1122h57l457 -1077q76 -180 108 -225q45 -61 115 -60v-51h-663v51q104 8 129 19q35 14 34 61q0 57 -94 272h-461q-90 -231 -90 -264q0 -78 168 -88v-51h-416zM381 1663q0 45 35 89t94 44q53 0 92 -40t39 -95t-38 -93t-93 -38 q-59 0 -98 47q-31 41 -31 86zM387 483h399l-206 498zM811 1663q0 45 34 89t93 44q53 0 93 -40t40 -95q0 -53 -38 -92t-95 -39q-59 0 -96 47q-31 39 -31 86z" />
<glyph horiz-adv-x="1478" d="M18 0v51q76 12 119 68q29 39 82 172l455 1122h57l457 -1077q76 -180 108 -225q45 -61 115 -60v-51h-663v51q104 8 129 19q35 14 34 61q0 57 -94 272h-461q-90 -231 -90 -264q0 -78 168 -88v-51h-416zM354 1595v148h676v-148h-676zM387 483h399l-206 498z" />
<glyph horiz-adv-x="909" d="M51 440q0 272 170 416q133 113 314 113q121 0 213 -56q104 -66 104 -168q0 -131 -139 -131q-76 0 -101 64q-14 39 -14 147q0 80 -84 80q-174 0 -174 -344q0 -209 81 -330.5t204 -121.5q117 0 219 114l37 -37q-135 -193 -338 -211l-47 -106q35 10 63 10q184 0 184 -143 q0 -182 -276 -182q-92 0 -186 36l32 76q78 -29 121 -28q119 0 119 83q0 74 -94 74q-25 0 -58 -8l-22 16l76 170q-168 10 -286 143.5t-118 323.5z" />
<glyph horiz-adv-x="909" d="M51 473q0 223 123 363q119 133 299 133q362 0 389 -467h-516q14 -383 246 -383q119 0 231 137l49 -29q-92 -139 -186 -197.5t-219 -58.5q-172 0 -285 119q-131 137 -131 383zM303 1081l281 322q49 57 106 57q101 0 101 -90q0 -57 -82 -108l-291 -181h-115zM336 578h274 q0 86 -18 231q-27 96 -111 96q-145 0 -145 -327z" />
<glyph horiz-adv-x="909" d="M51 473q0 223 123 363q119 133 299 133q362 0 389 -467h-516q14 -383 246 -383q119 0 231 137l49 -29q-92 -139 -186 -197.5t-219 -58.5q-172 0 -285 119q-131 137 -131 383zM143 1370q0 90 101 90q57 0 106 -57l281 -322h-115l-291 181q-82 51 -82 108zM336 578h274 q0 86 -18 231q-27 96 -111 96q-145 0 -145 -327z" />
<glyph horiz-adv-x="909" d="M51 473q0 223 123 363q119 133 299 133q362 0 389 -467h-516q14 -383 246 -383q119 0 231 137l49 -29q-92 -139 -186 -197.5t-219 -58.5q-172 0 -285 119q-131 137 -131 383zM123 1081l250 361h188l252 -361h-117l-229 201l-229 -201h-115zM336 578h274q0 86 -18 231 q-27 96 -111 96q-145 0 -145 -327z" />
<glyph horiz-adv-x="1138" d="M33 895v49h385v-694q0 -145 114 -146q78 0 168 91v579q0 76 -36 100q-23 14 -91 21v49h412v-737q0 -63 23.5 -90t91.5 -29v-47q-201 -20 -250 -29q-63 -10 -148 -39v133q-158 -135 -290 -135q-145 0 -217 88q-61 76 -62 199v516q0 61 -18.5 86t-81.5 35zM287 1370 q0 90 100 90q57 0 107 -57l280 -322h-115l-290 181q-82 51 -82 108z" />
<glyph horiz-adv-x="1138" d="M33 895v49h385v-694q0 -145 114 -146q78 0 168 91v579q0 76 -36 100q-23 14 -91 21v49h412v-737q0 -63 23.5 -90t91.5 -29v-47q-201 -20 -250 -29q-63 -10 -148 -39v133q-158 -135 -290 -135q-145 0 -217 88q-61 76 -62 199v516q0 61 -18.5 86t-81.5 35zM211 1081 l250 361h188l252 -361h-117l-229 201l-229 -201h-115z" />
<glyph unicode="&#xa0;" horiz-adv-x="20" d="M545 1534q51 256 241 256q59 0 146 -39l82 -37q55 -25 82 -24q74 0 108 100h88q-68 -260 -248 -260q-59 0 -122 29l-60 26q-100 45 -131 45q-45 0 -71.5 -31.5t-28.5 -64.5h-86z" />
<glyph unicode="&#xa1;" horiz-adv-x="20" d="M664 -270q0 45 33.5 89t93.5 44q53 0 93 -40t40 -95t-38 -93t-95 -38q-59 0 -97 47q-31 39 -30 86z" />
<glyph unicode="&#xa2;" horiz-adv-x="681" d="M41 854v55q180 154 340 381h51v-346h193v-90h-193v-616q0 -117 80 -117q61 0 117 106l51 -22q-113 -229 -301 -230q-141 0 -199 93q-33 51 -33 122v664h-106zM250 -260q0 45 33.5 89t93.5 44q53 0 93 -40t40 -95t-38 -93t-95 -38q-59 0 -96 47q-31 39 -31 86z" />
<glyph unicode="&#xa3;" horiz-adv-x="20" d="M-20 -272q0 45 34.5 89t94.5 44q53 0 92 -40t39 -95t-38 -93.5t-93 -38.5q-59 0 -99 48q-31 41 -30 86zM410 -272q0 45 33.5 89t93.5 44q53 0 93 -40t40 -95t-38 -93.5t-95 -38.5q-59 0 -97 48q-31 39 -30 86z" />
<glyph unicode="&#xa4;" horiz-adv-x="20" d="M629 -262q0 45 33.5 89t93.5 44q53 0 93 -40t40 -95t-38 -93t-95 -38q-59 0 -97 47q-31 39 -30 86z" />
<glyph unicode="&#xa5;" horiz-adv-x="20" d="M362 -268q0 45 35 89t95 44q53 0 92 -40t39 -95t-38 -93t-93 -38q-59 0 -99 47q-31 41 -31 86zM793 -268q0 45 33.5 89t93.5 44q53 0 93 -40t40 -95t-38 -93t-95 -38q-59 0 -97 47q-31 39 -30 86z" />
<glyph unicode="&#xa6;" horiz-adv-x="796" d="M51 -27v338h58q59 -270 288 -270q72 0 111 45q35 37 35 90q0 76 -127 141q-223 117 -234 125q-127 90 -127 226q0 133 91.5 217t234.5 84q55 0 131 -22.5t88 -22.5q37 0 51 41h45v-297h-51q-70 233 -254 233q-55 0 -93 -35t-38 -82q0 -84 125 -147q229 -117 229 -119 q125 -88 125 -231q0 -145 -89 -230.5t-232 -85.5q-61 0 -161.5 30t-98.5 30q-27 0 -56 -58h-51zM272 -262q0 45 34 89t93 44q53 0 93 -40t40 -95t-37.5 -93t-95.5 -38q-59 0 -96 47q-31 39 -31 86z" />
<glyph unicode="&#xa7;" horiz-adv-x="796" d="M49 -260q0 45 35 89t94 44q53 0 92 -40t39 -95t-38 -93t-93 -38q-59 0 -98 47q-31 41 -31 86zM51 -27v338h58q59 -270 288 -270q72 0 111 45q35 37 35 90q0 76 -127 141q-223 117 -234 125q-127 90 -127 226q0 133 91.5 217t234.5 84q55 0 131 -22.5t88 -22.5q37 0 51 41 h45v-297h-51q-70 233 -254 233q-55 0 -93 -35t-38 -82q0 -84 125 -147q229 -117 229 -119q125 -88 125 -231q0 -145 -89 -230.5t-232 -85.5q-61 0 -161.5 30t-98.5 30q-27 0 -56 -58h-51zM479 -260q0 45 34 89t93 44q53 0 93 -40t40 -95t-37.5 -93t-95.5 -38q-59 0 -96 47 q-31 39 -31 86z" />
<glyph unicode="&#xa8;" horiz-adv-x="20" d="M43 1872h117l229 -201l229 201h115l-250 -361h-188z" />
<glyph unicode="&#xa9;" horiz-adv-x="20" d="M299 1872h117l229 -201l229 201h115l-250 -361h-188z" />
<glyph unicode="&#xaa;" horiz-adv-x="909" d="M43 0v51l479 828q-205 -2 -266 -29q-88 -41 -125 -197h-53l14 291h760v-53l-473 -825q172 -4 239 20q76 27 130 113q41 63 55 129h57l-33 -328h-784zM268 -264q0 45 34 89t93 44q53 0 93 -40t40 -95t-37.5 -93t-95.5 -38q-59 0 -96 47q-31 39 -31 86z" />
<glyph unicode="&#xab;" horiz-adv-x="909" d="M43 0v51l479 828q-205 -2 -266 -29q-88 -41 -125 -197h-53l14 291h760v-53l-473 -825q172 -4 239 20q76 27 130 113q41 63 55 129h57l-33 -328h-784zM98 -262q0 45 35 89t94 44q53 0 92 -40t39 -95t-37.5 -93t-93.5 -38q-59 0 -98 47q-31 41 -31 86zM528 -262q0 45 34 89 t93 44q53 0 93 -40t40 -95t-37.5 -93t-95.5 -38q-59 0 -96 47q-31 39 -31 86z" />
<glyph unicode="&#xac;" horiz-adv-x="1138" d="M33 0v49q63 12 82 29q27 25 26 94v1045q0 68 -24 90q-16 14 -84 28v49h393v-575q137 160 293 160q104 0 180 -60q94 -78 94 -229v-508q0 -123 101 -123v-49h-482v49q96 8 97 117v496q0 170 -113 169q-53 0 -115 -53q-55 -45 -55 -65v-547q0 -106 100 -117v-49h-493z M434 -264q0 45 34 89t93 44q53 0 93 -40t40 -95t-38 -93t-95 -38q-59 0 -96 47q-31 39 -31 86z" />
<glyph unicode="&#xad;" horiz-adv-x="681" d="M90 350v238h498v-238h-498z" />
<glyph unicode="&#xae;" horiz-adv-x="909" d="M43 0v51l479 828q-205 -2 -266 -29q-88 -41 -125 -197h-53l14 291h760v-53l-473 -825q172 -4 239 20q76 27 130 113q41 63 55 129h57l-33 -328h-784zM98 -238h676v-147h-676v147z" />
<glyph unicode="&#xaf;" horiz-adv-x="20" d="M414 -238h676v-147h-676v147z" />
<glyph unicode="&#xb0;" d="M100 190q0 143 166 238q104 61 385 145v150q0 88 -33 129q-43 51 -147 51q-51 0 -86 -23.5t-35 -50.5q0 -16 31 -55t31 -84q0 -39 -29 -72q-39 -43 -109 -43q-135 0 -135 140q0 104 97 176q106 78 286 78t291 -68q119 -76 119 -213v-534q0 -51 45 -52q12 0 20 9l21 20 l31 -43q-98 -117 -226 -117q-94 0 -135 52q-23 27 -37 92q-143 -143 -325 -144q-86 0 -150 52q-76 61 -76 167zM180 1438q51 256 242 256q59 0 145 -39l82 -37q55 -25 82 -25q74 0 109 101h88q-68 -260 -248 -260q-59 0 -123 28l-59 27q-100 45 -131 45q-45 0 -72 -32 t-29 -64h-86zM188 1159v148h676v-148h-676zM399 254q0 -53 25 -92q29 -45 80 -45q67 0 145 88v297q-78 -16 -143 -62q-106 -72 -107 -186z" />
<glyph unicode="&#xb1;" horiz-adv-x="20" d="M387 1534q51 256 242 256q59 0 145 -39l82 -37q55 -25 82 -24q74 0 109 100h88q-68 -260 -248 -260q-59 0 -123 29l-59 26q-100 45 -132 45q-45 0 -71.5 -31.5t-28.5 -64.5h-86z" />
<glyph unicode="&#xb2;" horiz-adv-x="569" d="M-86 1438q51 256 242 256q59 0 145 -39l82 -37q55 -25 82 -25q74 0 108 101h89q-68 -260 -248 -260q-59 0 -123 28l-60 27q-100 45 -131 45q-45 0 -71.5 -32t-28.5 -64h-86zM-33 1159v148h631v-148h-631zM33 0v49q66 16 82 31q27 25 26 92v602q0 66 -24 90q-20 18 -84 31 v49h393v-778q0 -106 96 -117v-49h-489z" />
<glyph unicode="&#xb3;" horiz-adv-x="1705" d="M33 0v49q61 10 82 29q31 27 30 94v602q0 72 -34 98q-20 14 -78 23v49h391v-147h4q100 172 291 172q121 0 192 -64q39 -37 76 -114q135 178 303 178q104 0 180 -60q94 -78 95 -229v-514q0 -53 12 -76q23 -39 90 -41v-49h-487v49q66 2 88 41q12 23 12 76v496 q0 170 -111 169q-55 0 -118 -53q-53 -45 -54 -65v-547q0 -109 97 -117v-49h-480v49q98 6 99 117v496q0 170 -113 169q-57 0 -119 -53q-51 -45 -51 -65v-547q0 -106 94 -117v-49h-491zM563 1456h90q33 -178 221 -178q174 0 220 178h90q-23 -334 -312 -334q-145 0 -226 86 t-83 248zM756 1532q0 39 26 72q29 41 80 41q45 0 79 -35t34 -80t-33 -78t-80 -33q-51 0 -80 41q-27 33 -26 72z" />
<glyph unicode="&#xb4;" horiz-adv-x="20" d="M180 1438q51 256 242 256q59 0 145 -39l82 -37q55 -25 82 -25q74 0 109 101h88q-68 -260 -248 -260q-59 0 -123 28l-59 27q-100 45 -131 45q-45 0 -72 -32t-29 -64h-86zM188 1159v148h676v-148h-676z" />
<glyph unicode="&#xb5;" horiz-adv-x="20" d="M168 1143v147h676v-147h-676z" />
<glyph unicode="&#xb6;" horiz-adv-x="569" d="M6 1143v147h557v-147h-557zM33 0v49q66 16 82 31q27 25 26 92v602q0 66 -24 90q-20 18 -84 31v49h393v-778q0 -106 96 -117v-49h-489z" />
<glyph unicode="&#xb7;" horiz-adv-x="20" d="M-2681 -238h2654v-147h-2654v147z" />
<glyph unicode="&#xb8;" horiz-adv-x="569" d="M-25 1456h91q33 -178 221 -178q174 0 219 178h90q-23 -334 -311 -334q-145 0 -226.5 86t-83.5 248zM33 0v49q66 16 82 31q27 25 26 92v602q0 66 -24 90q-20 18 -84 31v49h393v-778q0 -106 96 -117v-49h-489z" />
<glyph unicode="&#xb9;" horiz-adv-x="1366" d="M33 0v51q104 10 133 31q47 29 47 115v991q0 90 -55 121q-33 18 -125 24v51h1181v-411h-51q-33 207 -147 280q-98 61 -322 62q-90 0 -116 -15q-33 -18 -33 -81v-476q158 -2 227 58q82 66 105 248h53v-693h-53q-18 184 -99 254q-74 63 -233 64v-496q0 -68 35.5 -91.5 t136.5 -23.5q178 0 297 66q154 86 241 297h58l-82 -426h-1198zM303 1595v148h676v-148h-676z" />
<glyph unicode="&#xba;" horiz-adv-x="796" d="M41 0v51q102 10 137 29q53 31 53 117v991q0 90 -59 121q-35 18 -131 24v51h717v-51q-98 -4 -133 -22q-61 -31 -62 -123v-991q0 -88 55 -119q35 -18 140 -27v-51h-717zM49 1595v148h676v-148h-676z" />
<glyph unicode="&#xbb;" horiz-adv-x="20" d="M463 1595v148h676v-148h-676z" />
<glyph unicode="&#xbc;" horiz-adv-x="20" d="M408 1872h116l230 -201l229 201h115l-250 -361h-189z" />
<glyph unicode="&#xbd;" horiz-adv-x="20" d="M379 1081l280 322q49 57 107 57q100 0 100 -90q0 -57 -82 -108l-290 -181h-115z" />
<glyph unicode="&#xbe;" horiz-adv-x="909" d="M59 0v49q61 12 80 29q31 25 31 94v602q0 70 -33 96q-20 16 -78 25v49h387v-162h5q127 186 268 187q92 0 137 -62q33 -45 33 -98q0 -51 -27 -88q-35 -49 -104 -49q-66 0 -111 60.5t-72 60.5q-35 0 -71 -41q-49 -55 -49 -154v-387q0 -94 28.5 -126t120.5 -36v-49h-545z M197 -264q0 45 33.5 89t93.5 44q53 0 93 -40t40 -95t-38 -93t-95 -38q-59 0 -97 47q-31 39 -30 86z" />
<glyph unicode="&#xbf;" horiz-adv-x="909" d="M2 -238h676v-147h-676v147zM59 0v49q61 12 80 29q31 25 31 94v602q0 70 -33 96q-20 16 -78 25v49h387v-162h5q127 186 268 187q92 0 137 -62q33 -45 33 -98q0 -51 -27 -88q-35 -49 -104 -49q-66 0 -111 60.5t-72 60.5q-35 0 -71 -41q-49 -55 -49 -154v-387 q0 -94 28.5 -126t120.5 -36v-49h-545z" />
<glyph unicode="&#xc0;" horiz-adv-x="909" d="M59 0v49q61 12 80 29q31 25 31 94v602q0 70 -33 96q-20 16 -78 25v49h387v-162h5q127 186 268 187q92 0 137 -62q33 -45 33 -98q0 -51 -27 -88q-35 -49 -104 -49q-66 0 -111 60.5t-72 60.5q-35 0 -71 -41q-49 -55 -49 -154v-387q0 -94 28.5 -126t120.5 -36v-49h-545z M127 1159v148h676v-148h-676zM203 -260q0 45 33.5 89t93.5 44q53 0 93 -40t40 -95t-38 -93t-95 -38q-59 0 -97 47q-31 39 -30 86z" />
<glyph unicode="&#xc1;" horiz-adv-x="909" d="M59 0v49q61 12 80 29q31 25 31 94v602q0 70 -33 96q-20 16 -78 25v49h387v-162h5q127 186 268 187q92 0 137 -62q33 -45 33 -98q0 -51 -27 -88q-35 -49 -104 -49q-66 0 -111 60.5t-72 60.5q-35 0 -71 -41q-49 -55 -49 -154v-387q0 -94 28.5 -126t120.5 -36v-49h-545z M184 1081l281 322q49 57 106 57q101 0 101 -90q0 -57 -82 -108l-291 -181h-115zM203 -260q0 45 33.5 89t93.5 44q53 0 93 -40t40 -95t-38 -93t-95 -38q-59 0 -97 47q-31 39 -30 86z" />
<glyph unicode="&#xc2;" horiz-adv-x="909" d="M59 0v49q61 12 80 29q31 25 31 94v602q0 70 -33 96q-20 16 -78 25v49h387v-162h5q127 186 268 187q92 0 137 -62q33 -45 33 -98q0 -51 -27 -88q-35 -49 -104 -49q-66 0 -111 60.5t-72 60.5q-35 0 -71 -41q-49 -55 -49 -154v-387q0 -94 28.5 -126t120.5 -36v-49h-545z M203 -260q0 45 33.5 89t93.5 44q53 0 93 -40t40 -95t-38 -93t-95 -38q-59 0 -97 47q-31 39 -30 86zM258 1370q0 90 100 90q57 0 107 -57l280 -322h-114l-291 181q-82 51 -82 108z" />
<glyph unicode="&#xc3;" horiz-adv-x="1705" d="M33 0v49q61 10 82 29q31 27 30 94v602q0 72 -34 98q-20 14 -78 23v49h391v-147h4q100 172 291 172q121 0 192 -64q39 -37 76 -114q135 178 303 178q104 0 180 -60q94 -78 95 -229v-514q0 -53 12 -76q23 -39 90 -41v-49h-487v49q66 2 88 41q12 23 12 76v496 q0 170 -111 169q-55 0 -118 -53q-53 -45 -54 -65v-547q0 -109 97 -117v-49h-480v49q98 6 99 117v496q0 170 -113 169q-57 0 -119 -53q-51 -45 -51 -65v-547q0 -106 94 -117v-49h-491zM735 -260q0 45 34 89t93 44q53 0 93 -40t40 -95t-37.5 -93t-95.5 -38q-59 0 -96 47 q-31 39 -31 86z" />
<glyph unicode="&#xc4;" horiz-adv-x="1138" d="M43 0v49q63 12 82 29q27 25 27 94v602q0 66 -21.5 88.5t-87.5 32.5v49h391v-147h4q100 172 291 172q104 0 180 -60q94 -78 95 -229v-514q0 -53 12 -76q23 -39 88 -41v-49h-481v49q96 8 96 117v496q0 170 -113 169q-53 0 -114 -53q-55 -45 -56 -65v-547q0 -106 101 -117 v-49h-494zM438 -260q0 45 34 89t93 44q53 0 93 -40t40 -95t-37.5 -93t-95.5 -38q-59 0 -96 47q-31 39 -31 86z" />
<glyph unicode="&#xc5;" horiz-adv-x="1705" d="M33 0v49q61 10 82 29q31 27 30 94v602q0 72 -34 98q-20 14 -78 23v49h391v-147h4q100 172 291 172q121 0 192 -64q39 -37 76 -114q135 178 303 178q104 0 180 -60q94 -78 95 -229v-514q0 -53 12 -76q23 -39 90 -41v-49h-487v49q66 2 88 41q12 23 12 76v496 q0 170 -111 169q-55 0 -118 -53q-53 -45 -54 -65v-547q0 -109 97 -117v-49h-480v49q98 6 99 117v496q0 170 -113 169q-57 0 -119 -53q-51 -45 -51 -65v-547q0 -106 94 -117v-49h-491zM735 1276q0 45 34 89t93 44q53 0 93 -40t40 -95q0 -53 -37.5 -92t-95.5 -39q-59 0 -96 47 q-31 39 -31 86z" />
<glyph unicode="&#xc6;" horiz-adv-x="1138" d="M43 0v49q63 12 82 29q27 25 27 94v602q0 66 -21.5 88.5t-87.5 32.5v49h391v-147h4q100 172 291 172q104 0 180 -60q94 -78 95 -229v-514q0 -53 12 -76q23 -39 88 -41v-49h-481v49q96 8 96 117v496q0 170 -113 169q-53 0 -114 -53q-55 -45 -56 -65v-547q0 -106 101 -117 v-49h-494zM438 1276q0 45 34 89t93 44q53 0 93 -40t40 -95q0 -53 -37.5 -92t-95.5 -39q-59 0 -96 47q-31 39 -31 86z" />
<glyph unicode="&#xc7;" horiz-adv-x="1138" d="M43 0v49q63 12 82 29q27 25 27 94v602q0 66 -21.5 88.5t-87.5 32.5v49h391v-147h4q100 172 291 172q104 0 180 -60q94 -78 95 -229v-514q0 -53 12 -76q23 -39 88 -41v-49h-481v49q96 8 96 117v496q0 170 -113 169q-53 0 -114 -53q-55 -45 -56 -65v-547q0 -106 101 -117 v-49h-494zM229 -238h676v-147h-676v147z" />
<glyph unicode="&#xc8;" horiz-adv-x="569" d="M4 1159v148h84l279 317q51 57 106 57q100 0 100 -90q0 -59 -81 -108l-289 -176h356v-148h-555zM33 0v49q66 16 82 31q27 25 26 92v602q0 66 -24 90q-20 18 -84 31v49h393v-778q0 -106 96 -117v-49h-489z" />
<glyph unicode="&#xc9;" horiz-adv-x="569" d="M-8 1591q0 90 100 90q55 0 107 -57l278 -317h84v-148h-555v148h356l-288 176q-82 49 -82 108zM33 0v49q66 16 82 31q27 25 26 92v602q0 66 -24 90q-20 18 -84 31v49h393v-778q0 -106 96 -117v-49h-489z" />
<glyph unicode="&#xca;" />
<glyph unicode="&#xcb;" horiz-adv-x="1933" d="M29 0v51q119 10 152.5 42t33.5 122v973q0 80 -37 108.5t-145 36.5v51h518l410 -966l409 966h516v-51q-102 -8 -133 -30q-47 -37 -47 -158v-905q0 -115 39 -150q29 -23 141 -39v-51h-680v51q106 10 137 31q45 31 46 123v1032h-5l-512 -1237h-55l-512 1206h-4v-952 q0 -111 41 -153t166 -50v-51h-479zM784 1673q0 45 34 89t93 44q53 0 93 -40t40 -95q0 -53 -37.5 -92t-95.5 -39q-59 0 -96 47q-31 39 -31 86z" />
<glyph unicode="&#xcc;" horiz-adv-x="1478" d="M33 0v51q104 12 137 37q43 33 43 127v971q-119 147 -174 147v51h432l711 -874h4v620q0 100 -33 144q-41 51 -158 59v51h441v-51q-96 -12 -128 -44t-32 -120v-1206h-57l-912 1110h-4v-819q0 -109 40 -150t155 -53v-51h-465zM600 1673q0 45 34 89t93 44q53 0 93 -40t40 -95 q0 -53 -38 -92t-95 -39q-59 0 -96 47q-31 39 -31 86z" />
<glyph unicode="&#xcd;" horiz-adv-x="1478" d="M33 0v51q104 12 137 37q43 33 43 127v971q-119 147 -174 147v51h432l711 -874h4v620q0 100 -33 144q-41 51 -158 59v51h441v-51q-96 -12 -128 -44t-32 -120v-1206h-57l-912 1110h-4v-819q0 -109 40 -150t155 -53v-51h-465zM401 -238h676v-147h-676v147z" />
<glyph unicode="&#xce;" horiz-adv-x="1138" d="M51 442q0 250 125 398q113 129 270 129q125 0 242 -127v375q0 76 -35 96q-25 16 -121 22v49h441v-1177q0 -55 16 -78q27 -39 105 -41v-47q-197 -25 -248 -33q-59 -10 -152 -35v133q-68 -72 -112 -96q-68 -39 -172 -39q-137 0 -244 123q-115 137 -115 348zM354 471 q0 -385 164 -385q61 0 121 64q49 52 49 79v498q-51 127 -160 127q-174 0 -174 -383zM494 -264q0 45 33.5 89t93.5 44q53 0 93 -40t40 -95t-38 -93t-95 -38q-59 0 -97 47q-31 39 -30 86z" />
<glyph unicode="&#xcf;" horiz-adv-x="1478" d="M29 0v51q170 0 170 135v1010q0 82 -56 113q-29 16 -114 24v51h624q395 0 596 -217q164 -180 164 -454q0 -305 -174 -498q-197 -215 -563 -215h-647zM494 -264q0 45 33.5 89t93.5 44q53 0 93 -40t40 -95t-38 -93t-95 -38q-59 0 -97 47q-31 39 -30 86zM530 190 q0 -66 24 -92t93 -26q410 -1 410 620q0 221 -68 381q-102 242 -332 242q-86 0 -112 -31q-14 -18 -15 -65v-1029z" />
<glyph unicode="&#xd0;" d="M96 932q0 113 103 112q47 0 123.5 -41.5t164.5 -48.5q0 143 -45 224.5t-45 115.5q0 121 115 121q117 0 117 -106q0 -49 -48.5 -140.5t-45.5 -214.5q86 10 172 54q78 37 116 36q105 1 105 -110q0 -106 -103 -107q-43 0 -128 43t-162 43q-2 -100 26 -192q23 -63 60 -123 q31 -51 30 -49q0 -4 -16 -45q-16 -47 -19 -51q-63 -219 -71 -433l-10 -294h-43l-11 294q-4 143 -32 277q-18 90 -48 178q-25 72 -24 72q0 20 29 57q37 47 53 96q29 82 28 213q-98 -8 -169.5 -48t-120.5 -40t-75 33t-26 74z" />
<glyph unicode="&#xd1;" horiz-adv-x="20" d="M324 1878h90q33 -178 221 -178q174 0 219 178h90q-23 -334 -311 -334q-145 0 -226 86t-83 248z" />
<glyph unicode="&#xd2;" horiz-adv-x="716" d="M72 692q0 119 85 203t201 84q121 0 204 -84t83 -203q0 -121 -83 -203.5t-204 -82.5q-119 0 -202.5 82.5t-83.5 203.5z" />
<glyph unicode="&#xd3;" d="M117 596q0 274 282 254l4 4q-106 94 -139 133q-61 78 -61 156q0 123 88 200q84 72 205 72q156 0 243 -78q66 -57 66 -118q0 -70 -53 -109q-39 -29 -76 -29q-49 0 -88 38t-39 79q0 37 43 77t43 50q0 43 -123 43q-66 0 -112 -40t-46 -107q0 -72 144 -185q238 -184 266 -213 q143 -143 143 -286q0 -152 -106 -207q-59 -33 -176 -35v-4q203 -135 202 -299q0 -111 -88 -185q-96 -78 -254 -77q-111 0 -198 51q-102 59 -103 158q0 39 27 77q37 51 100 52q61 0 103 -39q33 -35 32 -74q0 -47 -47 -79t-47 -40q0 -16 29 -35q41 -25 117 -24q156 0 155 141 q0 86 -75 148l-117 94q-215 172 -268 235q-76 90 -76 201zM270 690q0 -66 39 -115q31 -39 144 -133q119 -100 186 -100q57 0 88 41q25 33 25 78q0 43 -15.5 70.5t-72.5 86.5q-180 184 -279 185q-51 0 -83 -31t-32 -82z" />
<glyph unicode="&#xd4;" horiz-adv-x="2129" d="M57 -236q0 61 51.5 103.5t137.5 50.5v4q-82 29 -115 58q-45 41 -45 112q0 86 86 156q68 53 154 78v4q-250 92 -250 313q0 133 104 225q117 100 316 101q113 0 225 -45h266v-109h-166q82 -82 82 -203q0 -211 -215 -278q-57 -18 -258 -19q-35 0 -72 -28q-43 -31 -43 -74 q0 -49 45 -61q33 -10 160 -13l133 -2q336 -6 336 -250q0 -309 -526 -309q-190 0 -298 50t-108 136zM86 -487h1958v-148h-1958v148zM238 -221q0 -84 112 -117q61 -18 137 -18q340 0 340 145q0 104 -163 105h-355q-72 -57 -71 -115zM356 637q0 -127 23 -184q31 -80 113 -80 q86 0 116 88q19 55 19 176q0 268 -135 268q-84 0 -115 -86q-20 -57 -21 -182zM1008 0v49q63 12 82 29q27 25 26 94v1045q0 68 -24 90q-16 14 -84 28v49h393v-575q137 160 293 160q104 0 180 -60q94 -78 94 -229v-508q0 -123 100 -123v-49h-481v49q96 8 96 117v496 q0 170 -112 169q-53 0 -115 -53q-55 -45 -55 -65v-547q0 -106 100 -117v-49h-493z" />
<glyph unicode="&#xd5;" horiz-adv-x="819" d="M117 1116q0 123 85 208t208 85t207.5 -85t84.5 -208t-85 -208t-207 -85q-123 0 -208 85t-85 208zM201 1116q0 -88 61.5 -153.5t147.5 -65.5t147 65.5t61 153.5t-61 153.5t-147 65.5t-147.5 -65.5t-61.5 -153.5z" />
<glyph unicode="&#xd6;" horiz-adv-x="20" d="M176 1126q51 256 242 256q59 0 145 -39l82 -36q55 -25 82 -25q74 0 109 100h88q-68 -260 -248 -260q-59 0 -123 29l-59 27q-100 45 -132 45q-45 0 -71.5 -32t-28.5 -65h-86z" />
<glyph unicode="&#xd7;" horiz-adv-x="909" d="M59 0v49q61 12 80 29q31 25 31 94v602q0 70 -33 96q-20 16 -78 25v49h387v-162h5q127 186 268 187q92 0 137 -62q33 -45 33 -98q0 -51 -27 -88q-35 -49 -104 -49q-66 0 -111 60.5t-72 60.5q-35 0 -71 -41q-49 -55 -49 -154v-387q0 -94 28.5 -126t120.5 -36v-49h-545z M109 1143v147h675v-147h-675z" />
<glyph unicode="&#xd8;" d="M33 -260q0 43 22 78q33 55 113 55q115 0 115 -104q0 -10 -3.5 -22.5t-3.5 -14.5q0 -35 35 -35q78 0 135 168l37 108l-245 605q-61 150 -119 262q-16 33 -29.5 41t-56.5 14v49h512v-49q-109 -8 -109 -55q0 -14 41 -119l148 -379l139 393q23 63 22 92q0 43 -36 58 q-20 8 -76 10v49h309v-49q-43 -6 -61 -21q-31 -23 -58 -92l-305 -813q-88 -233 -135 -297q-70 -92 -203 -92q-90 0 -143 55q-45 47 -45 105zM272 1214q0 45 35 89.5t94 44.5q53 0 92 -40.5t39 -95.5t-37.5 -93t-93.5 -38q-59 0 -98 47q-31 41 -31 86zM702 1214q0 45 34 89.5 t93 44.5q53 0 93.5 -40.5t40.5 -95.5q0 -53 -38 -92t-96 -39q-59 0 -96 47q-31 39 -31 86z" />
<glyph unicode="&#xd9;" horiz-adv-x="1478" d="M31 1333v51h686v-51q-88 0 -105 -4q-61 -12 -61 -65q0 -20 49 -115l246 -475l227 379q80 133 80 190q0 53 -49 74q-31 10 -123 16v51h451v-51q-45 -8 -70 -18q-43 -18 -70 -62l-391 -637v-376q0 -119 41 -152q29 -25 148 -37v-51h-711v51q119 12 147 37q43 33 43 152v301 l-374 680q-59 106 -164 112zM522 1677q0 45 35 89t94 44q53 0 92 -40t39 -95t-37.5 -93t-93.5 -38q-59 0 -98 47q-31 41 -31 86zM952 1677q0 45 34 89t93 44q53 0 93 -40t40 -95q0 -53 -37.5 -92t-95.5 -39q-59 0 -96 47q-31 39 -31 86z" />
<glyph unicode="&#xda;" horiz-adv-x="569" d="M-66 1255q0 45 35 89.5t94 44.5q53 0 92.5 -40.5t39.5 -95.5t-38 -93t-94 -38q-59 0 -98 47q-31 41 -31 86zM33 0v49q66 16 82 31q27 25 26 92v602q0 66 -24 90q-20 18 -84 31v49h393v-778q0 -106 96 -117v-49h-489zM365 1255q0 45 33.5 89.5t93.5 44.5q53 0 93 -40.5 t40 -95.5q0 -53 -38 -92t-95 -39q-59 0 -97 47q-31 39 -30 86z" />
<glyph unicode="&#xdb;" horiz-adv-x="1138" d="M43 0v49q63 12 82 29q27 25 27 94v602q0 66 -21.5 88.5t-87.5 32.5v49h391v-147h4q100 172 291 172q104 0 180 -60q94 -78 95 -229v-514q0 -53 12 -76q23 -39 88 -41v-49h-481v49q96 8 96 117v496q0 170 -113 169q-53 0 -114 -53q-55 -45 -56 -65v-547q0 -106 101 -117 v-49h-494zM201 1124q51 256 241 256q59 0 146 -39l82 -36q55 -25 82 -25q74 0 108 100h88q-68 -260 -248 -260q-59 0 -122 29l-60 27q-100 45 -131 45q-45 0 -71.5 -32t-28.5 -65h-86z" />
<glyph unicode="&#xdc;" horiz-adv-x="796" d="M51 -27v338h58q59 -270 288 -270q72 0 111 45q35 37 35 90q0 76 -127 141q-223 117 -234 125q-127 90 -127 226q0 133 91.5 217t234.5 84q55 0 131 -22.5t88 -22.5q37 0 51 41h45v-297h-51q-70 233 -254 233q-55 0 -93 -35t-38 -82q0 -84 125 -147q229 -117 229 -119 q125 -88 125 -231q0 -145 -89 -230.5t-232 -85.5q-61 0 -161.5 30t-98.5 30q-27 0 -56 -58h-51zM176 1081l281 322q49 57 106 57q101 0 101 -90q0 -57 -82 -108l-291 -181h-115z" />
<glyph unicode="&#xdd;" horiz-adv-x="1138" d="M72 -39v506h59q37 -182 127 -297q115 -141 293 -141q156 0 221 104q35 59 35 125q0 92 -66 152q-41 41 -163 98l-138 65q-227 109 -307 246q-43 78 -43 193q0 143 80 248q117 156 373 155q94 0 198.5 -33.5t120.5 -33.5q49 0 68 69h61v-444h-57q-37 139 -123 244 q-117 135 -279 135q-88 0 -149 -47q-70 -53 -70 -148q0 -84 41 -131t170 -111l301 -149q78 -39 140 -117q86 -113 86 -260q0 -162 -113 -280q-139 -147 -395 -148q-113 0 -223.5 35t-126.5 35q-43 0 -62 -70h-59zM414 1532l280 321q49 57 107 58q100 0 100 -90 q0 -57 -82 -109l-291 -180h-114z" />
<glyph unicode="&#xde;" horiz-adv-x="20" d="M-2238 -238h2062v-147h-2062v147z" />
<glyph unicode="&#xdf;" horiz-adv-x="20" d="M-3197 -238h2865v-147h-2865v147z" />
<glyph unicode="&#xe0;" horiz-adv-x="909" d="M51 473q0 223 123 363q119 133 299 133q362 0 389 -467h-516q14 -383 246 -383q119 0 231 137l49 -29q-92 -139 -186 -197.5t-219 -58.5q-172 0 -285 119q-131 137 -131 383zM98 1214q0 45 35 89.5t94 44.5q53 0 92 -40.5t39 -95.5t-37.5 -93t-93.5 -38q-59 0 -98 47 q-31 41 -31 86zM336 578h274q0 86 -18 231q-27 96 -111 96q-145 0 -145 -327zM528 1214q0 45 34 89.5t93 44.5q53 0 93 -40.5t40 -95.5q0 -53 -37.5 -92t-95.5 -39q-59 0 -96 47q-31 39 -31 86z" />
<glyph unicode="&#xe1;" horiz-adv-x="569" d="M33 0v49q66 16 82 31q27 25 26 92v602q0 66 -24 90q-20 18 -84 31v49h393v-778q0 -106 96 -117v-49h-489zM78 1081l280 322q49 57 107 57q100 0 100 -90q0 -57 -82 -108l-290 -181h-115z" />
<glyph unicode="&#xe2;" d="M57 -236q0 61 51.5 103.5t137.5 50.5v4q-82 29 -115 58q-45 41 -45 112q0 86 86 156q68 53 154 78v4q-250 92 -250 313q0 133 104 225q117 100 316 101q113 0 225 -45h266v-109h-166q82 -82 82 -203q0 -211 -215 -278q-57 -18 -258 -19q-35 0 -72 -28q-43 -31 -43 -74 q0 -49 45 -61q33 -10 160 -13l133 -2q336 -6 336 -250q0 -309 -526 -309q-190 0 -298 50t-108 136zM147 -475h676v-148h-676v148zM238 -221q0 -84 112 -117q61 -18 137 -18q340 0 340 145q0 104 -163 105h-355q-72 -57 -71 -115zM356 637q0 -127 23 -184q31 -80 113 -80 q86 0 116 88q19 55 19 176q0 268 -135 268q-84 0 -115 -86q-20 -57 -21 -182z" />
<glyph unicode="&#xe3;" horiz-adv-x="1593" d="M76 680q0 311 196 518q205 217 529 217q109 0 247 -50t148 -50q57 0 94 94h56v-479h-52q-66 162 -178 276q-139 141 -299 142q-379 0 -379 -664q0 -227 56 -383q96 -272 344 -272q125 0 174 41q39 35 39 108v215q0 90 -52 119q-33 18 -155 25v51h702v-51 q-106 -12 -135 -37q-41 -35 -41 -152v-260q-72 -51 -243 -89t-310 -38q-360 0 -563 225q-178 199 -178 494zM426 -238h676v-147h-676v147z" />
<glyph unicode="&#xe4;" d="M-53 244l200 200q-76 102 -75 248q0 143 75 248l-200 201l119 114l196 -196q106 72 248 71q145 0 252 -71l196 196l119 -114l-200 -201q76 -113 75 -248q0 -152 -75 -248l200 -200l-119 -119l-196 201q-113 -76 -252 -76q-135 0 -248 76l-196 -201zM252 692 q0 -113 74.5 -193.5t183.5 -80.5q113 0 187.5 80.5t74.5 193.5q0 111 -75.5 191t-186.5 80q-109 0 -183.5 -81t-74.5 -190z" />
<glyph unicode="&#xe5;" horiz-adv-x="1478" d="M18 0v51q76 12 119 68q29 39 82 172l455 1122h57l457 -1077q76 -180 108 -225q45 -61 115 -60v-51h-663v51q104 8 129 19q35 14 34 61q0 57 -94 272h-461q-90 -231 -90 -264q0 -78 168 -88v-51h-416zM381 1511l250 361h188l252 -361h-117l-229 201l-229 -201h-115z M387 483h399l-206 498z" />
<glyph unicode="&#xe6;" horiz-adv-x="1366" d="M33 0v51q104 10 133 31q47 29 47 115v991q0 90 -55 121q-33 18 -125 24v51h1181v-411h-51q-33 207 -147 280q-98 61 -322 62q-90 0 -116 -15q-33 -18 -33 -81v-476q158 -2 227 58q82 66 105 248h53v-693h-53q-18 184 -99 254q-74 63 -233 64v-496q0 -68 35.5 -91.5 t136.5 -23.5q178 0 297 66q154 86 241 297h58l-82 -426h-1198zM352 1511l250 361h189l251 -361h-116l-230 201l-229 -201h-115z" />
<glyph unicode="&#xe7;" horiz-adv-x="1478" d="M18 0v51q76 12 119 68q29 39 82 172l455 1122h57l457 -1077q76 -180 108 -225q45 -61 115 -60v-51h-663v51q104 8 129 19q35 14 34 61q0 57 -94 272h-461q-90 -231 -90 -264q0 -78 168 -88v-51h-416zM387 483h399l-206 498zM643 1532l281 321q49 57 106 58q100 0 100 -90 q0 -57 -81 -109l-291 -180h-115z" />
<glyph unicode="&#xe8;" horiz-adv-x="1366" d="M33 0v51q104 10 133 31q47 29 47 115v991q0 90 -55 121q-33 18 -125 24v51h1181v-411h-51q-33 207 -147 280q-98 61 -322 62q-90 0 -116 -15q-33 -18 -33 -81v-476q158 -2 227 58q82 66 105 248h53v-693h-53q-18 184 -99 254q-74 63 -233 64v-496q0 -68 35.5 -91.5 t136.5 -23.5q178 0 297 66q154 86 241 297h58l-82 -426h-1198zM334 1663q0 45 34.5 89t94.5 44q53 0 92 -40t39 -95t-38 -93t-93 -38q-59 0 -98 47q-31 41 -31 86zM764 1663q0 45 33.5 89t93.5 44q53 0 93 -40t40 -95q0 -53 -38 -92t-95 -39q-59 0 -96 47q-31 39 -31 86z " />
<glyph unicode="&#xe9;" horiz-adv-x="1366" d="M33 0v51q104 10 133 31q47 29 47 115v991q0 90 -55 121q-33 18 -125 24v51h1181v-411h-51q-33 207 -147 280q-98 61 -322 62q-90 0 -116 -15q-33 -18 -33 -81v-476q158 -2 227 58q82 66 105 248h53v-693h-53q-18 184 -99 254q-74 63 -233 64v-496q0 -68 35.5 -91.5 t136.5 -23.5q178 0 297 66q154 86 241 297h58l-82 -426h-1198zM428 1821q0 90 100 90q57 0 107 -58l280 -321h-114l-291 180q-82 51 -82 109z" />
<glyph unicode="&#xea;" horiz-adv-x="796" d="M41 0v51q102 10 137 29q53 31 53 117v991q0 90 -59 121q-35 18 -131 24v51h717v-51q-98 -4 -133 -22q-61 -31 -62 -123v-991q0 -88 55 -119q35 -18 140 -27v-51h-717zM225 1532l281 321q49 57 106 58q101 0 101 -90q0 -57 -82 -109l-291 -180h-115z" />
<glyph unicode="&#xeb;" horiz-adv-x="796" d="M41 0v51q102 10 137 29q53 31 53 117v991q0 90 -59 121q-35 18 -131 24v51h717v-51q-98 -4 -133 -22q-61 -31 -62 -123v-991q0 -88 55 -119q35 -18 140 -27v-51h-717zM57 1530l250 360h189l252 -360h-117l-230 201l-229 -201h-115z" />
<glyph unicode="&#xec;" horiz-adv-x="796" d="M41 0v51q102 10 137 29q53 31 53 117v991q0 90 -59 121q-35 18 -131 24v51h717v-51q-98 -4 -133 -22q-61 -31 -62 -123v-991q0 -88 55 -119q35 -18 140 -27v-51h-717zM61 1665q0 45 35 89t94 44q53 0 92.5 -40t39.5 -95t-38 -93t-94 -38q-59 0 -98 47q-31 41 -31 86z M492 1665q0 45 33.5 89t92.5 44q53 0 93.5 -40t40.5 -95q0 -53 -38 -92t-96 -39q-59 0 -96 47q-31 39 -30 86z" />
<glyph unicode="&#xed;" horiz-adv-x="796" d="M41 0v51q102 10 137 29q53 31 53 117v991q0 90 -59 121q-35 18 -131 24v51h717v-51q-98 -4 -133 -22q-61 -31 -62 -123v-991q0 -88 55 -119q35 -18 140 -27v-51h-717zM152 1821q0 90 100 90q57 0 106 -58l281 -321h-115l-291 180q-82 51 -81 109z" />
<glyph unicode="&#xee;" horiz-adv-x="1593" d="M72 688q0 326 215 531q205 197 510 196q305 0 510 -196q215 -205 215 -531q0 -322 -204 -524.5t-521 -202.5t-521 203t-204 524zM434 688q0 -659 363 -659q362 0 362 659q0 270 -74 442q-94 217 -288 218q-195 0 -289 -218q-74 -172 -74 -442zM647 1532l281 321 q49 57 106 58q101 0 101 -90q0 -57 -82 -109l-291 -180h-115z" />
<glyph unicode="&#xef;" horiz-adv-x="1593" d="M72 688q0 326 215 531q205 197 510 196q305 0 510 -196q215 -205 215 -531q0 -322 -204 -524.5t-521 -202.5t-521 203t-204 524zM434 688q0 -659 363 -659q362 0 362 659q0 270 -74 442q-94 217 -288 218q-195 0 -289 -218q-74 -172 -74 -442zM457 1530l250 360h188 l252 -360h-117l-229 201l-230 -201h-114z" />
<glyph unicode="&#xf0;" horiz-adv-x="20" d="M532 1534q51 256 242 256q59 0 146 -39l81 -37q55 -25 82 -24q74 0 109 100h88q-68 -260 -248 -260q-59 0 -123 29l-59 26q-100 45 -131 45q-45 0 -71.5 -31.5t-29.5 -64.5h-86z" />
<glyph unicode="&#xf1;" horiz-adv-x="1593" d="M72 688q0 326 215 531q205 197 510 196q305 0 510 -196q215 -205 215 -531q0 -322 -204 -524.5t-521 -202.5t-521 203t-204 524zM393 1821q0 90 101 90q57 0 106 -58l281 -321h-115l-291 180q-82 51 -82 109zM434 688q0 -659 363 -659q362 0 362 659q0 270 -74 442 q-94 217 -288 218q-195 0 -289 -218q-74 -172 -74 -442z" />
<glyph unicode="&#xf2;" horiz-adv-x="1478" d="M33 1333v51h692v-51q-117 -6 -150 -28q-49 -35 -49 -160v-684q0 -158 37 -244q68 -156 258 -156q365 0 365 445v624q0 104 -35 146q-43 51 -166 57v51h451v-51q-92 -12 -123 -43q-37 -35 -37 -131v-653q0 -272 -115 -395q-139 -150 -403 -150q-268 0 -416 129 q-76 66 -104 131q-37 86 -37 240v684q0 119 -41 153q-27 25 -127 35zM418 1532l280 321q49 57 107 58q100 0 100 -90q0 -57 -82 -109l-291 -180h-114z" />
<glyph unicode="&#xf3;" horiz-adv-x="1478" d="M33 1333v51h692v-51q-117 -6 -150 -28q-49 -35 -49 -160v-684q0 -158 37 -244q68 -156 258 -156q365 0 365 445v624q0 104 -35 146q-43 51 -166 57v51h451v-51q-92 -12 -123 -43q-37 -35 -37 -131v-653q0 -272 -115 -395q-139 -150 -403 -150q-268 0 -416 129 q-76 66 -104 131q-37 86 -37 240v684q0 119 -41 153q-27 25 -127 35zM516 1532l250 360h188l252 -360h-116l-230 201l-229 -201h-115z" />
<glyph unicode="&#xf4;" horiz-adv-x="1478" d="M33 1333v51h692v-51q-117 -6 -150 -28q-49 -35 -49 -160v-684q0 -158 37 -244q68 -156 258 -156q365 0 365 445v624q0 104 -35 146q-43 51 -166 57v51h451v-51q-92 -12 -123 -43q-37 -35 -37 -131v-653q0 -272 -115 -395q-139 -150 -403 -150q-268 0 -416 129 q-76 66 -104 131q-37 86 -37 240v684q0 119 -41 153q-27 25 -127 35zM647 1821q0 90 101 90q57 0 106 -58l281 -321h-115l-291 180q-82 51 -82 109z" />
<glyph unicode="&#xf5;" horiz-adv-x="1478" d="M18 0v51q76 12 119 68q29 39 82 172l455 1122h57l457 -1077q76 -180 108 -225q45 -61 115 -60v-51h-663v51q104 8 129 19q35 14 34 61q0 57 -94 272h-461q-90 -231 -90 -264q0 -78 168 -88v-51h-416zM297 1821q0 90 100 90q57 0 107 -58l280 -321h-114l-291 180 q-82 51 -82 109zM387 483h399l-206 498z" />
<glyph unicode="&#xf6;" horiz-adv-x="796" d="M27 1534q51 256 241 256q59 0 146 -39l82 -37q55 -25 82 -24q74 0 108 100h88q-68 -260 -248 -260q-59 0 -123 29l-59 26q-100 45 -131 45q-45 0 -71.5 -31.5t-28.5 -64.5h-86zM41 0v51q102 10 137 29q53 31 53 117v991q0 90 -59 121q-35 18 -131 24v51h717v-51 q-98 -4 -133 -22q-61 -31 -62 -123v-991q0 -88 55 -119q35 -18 140 -27v-51h-717z" />
<glyph unicode="&#xf7;" horiz-adv-x="1138" d="M33 895v49h385v-694q0 -145 114 -146q78 0 168 91v579q0 76 -36 100q-23 14 -91 21v49h412v-737q0 -63 23.5 -90t91.5 -29v-47q-201 -20 -250 -29q-63 -10 -148 -39v133q-158 -135 -290 -135q-145 0 -217 88q-61 76 -62 199v516q0 61 -18.5 86t-81.5 35zM193 1159v148h83 l279 317q51 57 107 57q100 0 100 -90q0 -59 -82 -108l-289 -176h477v-148h-675z" />
<glyph unicode="&#xf8;" horiz-adv-x="569" d="M12 1370q0 90 101 90q57 0 106 -57l281 -322h-115l-291 181q-82 51 -82 108zM33 0v49q66 16 82 31q27 25 26 92v602q0 66 -24 90q-20 18 -84 31v49h393v-778q0 -106 96 -117v-49h-489z" />
<glyph unicode="&#xf9;" horiz-adv-x="569" d="M-61 1081l249 361h189l252 -361h-117l-229 201l-230 -201h-114zM33 0v49q66 16 82 31q27 25 26 92v602q0 66 -24 90q-20 18 -84 31v49h393v-778q0 -106 96 -117v-49h-489z" />
<glyph unicode="&#xfa;" d="M51 469q0 207 125 348q131 152 338 152q201 0 331 -142.5t130 -357.5q0 -209 -125 -350q-131 -147 -336 -148q-207 0 -338 150q-125 141 -125 348zM352 469q0 -219 21 -299q35 -135 143 -135q98 0 131 119q27 90 27 315q0 242 -34 339t-126 97q-102 0 -137 -131 q-25 -88 -25 -305zM440 1081l281 322q49 57 106 57q101 0 101 -90q0 -57 -82 -108l-291 -181h-115z" />
<glyph unicode="&#xfb;" horiz-adv-x="20" d="M199 1415h90q33 -178 221 -178q174 0 219 178h90q-23 -334 -311 -334q-145 0 -226 86t-83 248z" />
<glyph unicode="&#xfc;" horiz-adv-x="569" d="M33 0v49q104 0 104 123v1045q0 119 -104 118v49h389v-1212q0 -123 100 -123v-49h-489zM160 -260q0 45 33.5 89t93.5 44q53 0 93 -40t40 -95t-38 -93t-95 -38q-59 0 -97 47q-31 39 -30 86z" />
<glyph unicode="&#xfd;" horiz-adv-x="569" d="M10 -238h549v-147h-549v147zM33 0v49q104 0 104 123v1045q0 119 -104 118v49h389v-1212q0 -123 100 -123v-49h-489z" />
<glyph unicode="&#xfe;" d="M51 190q0 143 166 238q104 61 385 145v150q0 88 -33 129q-43 51 -147 51q-51 0 -86 -23.5t-35 -50.5q0 -16 30.5 -55t30.5 -84q0 -39 -28 -72q-39 -43 -109 -43q-135 0 -135 140q0 104 96 176q106 78 287 78q180 0 291 -68q119 -76 119 -213v-534q0 -51 45 -52q12 0 20 9 l21 20l30 -43q-98 -117 -225 -117q-94 0 -135 52q-23 27 -37 92q-143 -143 -326 -144q-86 0 -149 52q-76 61 -76 167zM164 1159v148h84l278 317q51 57 107 57q100 0 100 -90q0 -59 -82 -108l-289 -176h478v-148h-676zM350 254q0 -53 25 -92q29 -45 80 -45q67 0 145 88v297 q-78 -16 -143 -62q-106 -72 -107 -186z" />
<glyph unicode="&#xff;" d="M41 190q0 143 166 238q104 61 385 145v150q0 88 -33 129q-43 51 -147 51q-51 0 -86 -23.5t-35 -50.5q0 -16 30.5 -55t30.5 -84q0 -39 -28 -72q-39 -43 -109 -43q-135 0 -135 140q0 104 96 176q106 78 287 78q180 0 291 -68q119 -76 118 -213v-534q0 -51 46 -52q12 0 20 9 l20 20l31 -43q-98 -117 -225 -117q-94 0 -135 52q-23 27 -37 92q-143 -143 -326 -144q-86 0 -149 52q-76 61 -76 167zM160 1159v148h477l-289 176q-82 49 -82 108q0 90 101 90q55 0 106 -57l279 -317h84v-148h-676zM340 254q0 -53 25 -92q29 -45 79 -45q68 0 146 88v297 q-78 -16 -144 -62q-106 -72 -106 -186z" />
<glyph unicode="&#x152;" d="M51 190q0 143 166 238q104 61 385 145v150q0 88 -33 129q-43 51 -147 51q-51 0 -86 -23.5t-35 -50.5q0 -16 30.5 -55t30.5 -84q0 -39 -28 -72q-39 -43 -109 -43q-135 0 -135 140q0 104 96 176q106 78 287 78q180 0 291 -68q119 -76 119 -213v-534q0 -51 45 -52q12 0 20 9 l21 20l30 -43q-98 -117 -225 -117q-94 0 -135 52q-23 27 -37 92q-143 -143 -326 -144q-86 0 -149 52q-76 61 -76 167zM162 1157v148h676v-148h-676zM350 254q0 -53 25 -92q29 -45 80 -45q67 0 145 88v297q-78 -16 -143 -62q-106 -72 -107 -186z" />
<glyph unicode="&#x153;" horiz-adv-x="1138" d="M33 895v49h385v-694q0 -145 114 -146q78 0 168 91v579q0 76 -36 100q-23 14 -91 21v49h412v-737q0 -63 23.5 -90t91.5 -29v-47q-201 -20 -250 -29q-63 -10 -148 -39v133q-158 -135 -290 -135q-145 0 -217 88q-61 76 -62 199v516q0 61 -18.5 86t-81.5 35zM330 1081 l280 322q49 57 107 57q100 0 100 -90q0 -57 -82 -108l-291 -181h-114z" />
<glyph unicode="&#x178;" horiz-adv-x="1138" d="M33 895v49h385v-694q0 -145 114 -146q78 0 168 91v579q0 76 -36 100q-23 14 -91 21v49h412v-737q0 -63 23.5 -90t91.5 -29v-47q-201 -20 -250 -29q-63 -10 -148 -39v133q-158 -135 -290 -135q-145 0 -217 88q-61 76 -62 199v516q0 61 -18.5 86t-81.5 35zM211 1233 q0 45 35 89t94 44q53 0 92 -40t39 -95t-38 -93t-93 -38q-59 0 -98 47q-31 41 -31 86zM641 1233q0 45 34 89t93 44q53 0 93 -40t40 -95q0 -53 -38 -92t-95 -39q-59 0 -96 47q-31 39 -31 86z" />
<glyph unicode="&#x2c6;" d="M51 190q0 143 166 238q104 61 385 145v150q0 88 -33 129q-43 51 -147 51q-51 0 -86 -23.5t-35 -50.5q0 -16 30.5 -55t30.5 -84q0 -39 -28 -72q-39 -43 -109 -43q-135 0 -135 140q0 104 96 176q106 78 287 78q180 0 291 -68q119 -76 119 -213v-534q0 -51 45 -52q12 0 20 9 l21 20l30 -43q-98 -117 -225 -117q-94 0 -135 52q-23 27 -37 92q-143 -143 -326 -144q-86 0 -149 52q-76 61 -76 167zM174 1370q0 90 100 90q57 0 107 -57l281 -322h-115l-291 181q-82 51 -82 108zM350 254q0 -53 25 -92q29 -45 80 -45q67 0 145 88v297q-78 -16 -143 -62 q-106 -72 -107 -186z" />
<glyph unicode="&#x2dc;" d="M51 469q0 207 125 348q131 152 338 152q201 0 331 -142.5t130 -357.5q0 -209 -125 -350q-131 -147 -336 -148q-207 0 -338 150q-125 141 -125 348zM186 1370q0 90 101 90q57 0 106 -57l281 -322h-115l-291 181q-82 51 -82 108zM352 469q0 -219 21 -299q35 -135 143 -135 q98 0 131 119q27 90 27 315q0 242 -34 339t-126 97q-102 0 -137 -131q-25 -88 -25 -305z" />
<glyph unicode="&#x2000;" horiz-adv-x="955" />
<glyph unicode="&#x2001;" horiz-adv-x="1911" />
<glyph unicode="&#x2002;" horiz-adv-x="955" />
<glyph unicode="&#x2003;" horiz-adv-x="1911" />
<glyph unicode="&#x2004;" horiz-adv-x="637" />
<glyph unicode="&#x2005;" horiz-adv-x="477" />
<glyph unicode="&#x2006;" horiz-adv-x="318" />
<glyph unicode="&#x2007;" horiz-adv-x="318" />
<glyph unicode="&#x2008;" horiz-adv-x="238" />
<glyph unicode="&#x2009;" horiz-adv-x="382" />
<glyph unicode="&#x200a;" horiz-adv-x="106" />
<glyph unicode="&#x2010;" horiz-adv-x="681" d="M90 350v238h498v-238h-498z" />
<glyph unicode="&#x2011;" horiz-adv-x="681" d="M90 350v238h498v-238h-498z" />
<glyph unicode="&#x2012;" horiz-adv-x="681" d="M90 350v238h498v-238h-498z" />
<glyph unicode="&#x2013;" d="M0 371v184h1024v-184h-1024z" />
<glyph unicode="&#x2014;" horiz-adv-x="2048" d="M0 371v184h2048v-184h-2048z" />
<glyph unicode="&#x2018;" horiz-adv-x="681" d="M143 963q0 260 340 452l23 -45q-223 -152 -223 -270q0 -45 41 -45q4 0 17 2t28 2q55 0 98 -33q53 -43 53 -129q0 -78 -47 -123t-121 -45q-102 0 -159 78q-49 63 -50 156z" />
<glyph unicode="&#x2019;" horiz-adv-x="681" d="M162 1247q0 78 47 123t121 45q102 0 159 -76q50 -65 50 -157q0 -260 -340 -453l-23 45q223 152 223 270q0 45 -41 46q-4 0 -17 -2.5t-28 -2.5q-55 0 -96 33q-55 43 -55 129z" />
<glyph unicode="&#x201a;" horiz-adv-x="1478" d="M100 680q0 315 203 525t522 210q109 0 247 -50t149 -50q57 0 94 94h55v-479h-51q-66 162 -178 276q-139 141 -299 142q-379 0 -379 -660q0 -299 88 -450q57 -96 164 -146q76 -33 147 -33q258 0 484 252l61 -51q-250 -289 -514 -297q-16 0 -70 -2l-43 -92q35 10 64 10 q184 0 184 -143q0 -182 -276 -182q-92 0 -187 36l33 76q78 -29 121 -28q119 0 119 83q0 74 -95 74q-25 0 -57 -8l-22 16l71 160q-297 31 -473 246q-162 199 -162 471z" />
<glyph unicode="&#x201c;" d="M66 963q0 260 340 452l22 -45q-223 -152 -223 -270q0 -45 41 -45q4 0 17 2t28 2q55 0 98 -33q53 -43 53 -129q0 -78 -47 -123t-121 -45q-102 0 -159 78q-49 63 -49 156zM618 963q0 260 340 452l23 -45q-223 -152 -223 -270q0 -45 41 -45q4 0 17 2t28 2q55 0 98 -33 q53 -43 53 -129q0 -78 -47 -123t-121 -45q-102 0 -159 78q-49 63 -50 156z" />
<glyph unicode="&#x201d;" d="M29 1247q0 78 47 123t121 45q102 0 159 -76q50 -65 50 -157q0 -260 -340 -453l-23 45q223 152 223 270q0 45 -41 46q-4 0 -17 -2.5t-28 -2.5q-55 0 -96 33q-55 43 -55 129zM582 1247q0 78 47 123t121 45q102 0 159 -76q49 -65 49 -157q0 -260 -340 -453l-22 45 q223 152 223 270q0 45 -41 46q-4 0 -17 -2.5t-28 -2.5q-55 0 -96 33q-55 43 -55 129z" />
<glyph unicode="&#x201e;" horiz-adv-x="20" d="M88 1878h90q33 -178 221 -178q174 0 219 178h91q-23 -334 -312 -334q-145 0 -226 86t-83 248z" />
<glyph unicode="&#x2022;" horiz-adv-x="681" d="M176 1081l281 322q49 57 106 57q101 0 101 -90q0 -57 -82 -108l-291 -181h-115z" />
<glyph unicode="&#x2026;" horiz-adv-x="1593" d="M72 688q0 326 215 531q205 197 510 196q305 0 510 -196q215 -205 215 -531q0 -322 -204 -524.5t-521 -202.5t-521 203t-204 524zM434 688q0 -659 363 -659q362 0 362 659q0 270 -74 442q-94 217 -288 218q-195 0 -289 -218q-74 -172 -74 -442zM451 1663q0 45 34.5 89 t94.5 44q53 0 92 -40t39 -95t-38 -93t-93 -38q-59 0 -99 47q-31 41 -30 86zM881 1663q0 45 33.5 89t93.5 44q53 0 93 -40t40 -95q0 -53 -38 -92t-95 -39q-59 0 -97 47q-31 39 -30 86z" />
<glyph unicode="&#x202f;" horiz-adv-x="382" />
<glyph unicode="&#x2039;" d="M51 190q0 143 166 238q104 61 385 145v150q0 88 -33 129q-43 51 -147 51q-51 0 -86 -23.5t-35 -50.5q0 -16 30.5 -55t30.5 -84q0 -39 -28 -72q-39 -43 -109 -43q-135 0 -135 140q0 104 96 176q106 78 287 78q180 0 291 -68q119 -76 119 -213v-534q0 -51 45 -52q12 0 20 9 l21 20l30 -43q-98 -117 -225 -117q-94 0 -135 52q-23 27 -37 92q-143 -143 -326 -144q-86 0 -149 52q-76 61 -76 167zM125 1108q51 256 242 256q59 0 145 -39l82 -37q55 -25 82 -24q74 0 108 100h88q-68 -260 -247 -260q-59 0 -123 29l-60 26q-100 45 -131 45 q-45 0 -71.5 -31.5t-28.5 -64.5h-86zM350 254q0 -53 25 -92q29 -45 80 -45q67 0 145 88v297q-78 -16 -143 -62q-106 -72 -107 -186z" />
<glyph unicode="&#x203a;" horiz-adv-x="569" d="M-86 1122q51 256 242 256q59 0 145 -39l82 -36q55 -25 82 -25q74 0 108 100h89q-68 -260 -248 -260q-59 0 -123 29l-60 27q-100 45 -131 45q-45 0 -71.5 -32t-28.5 -65h-86zM33 0v49q66 16 82 31q27 25 26 92v602q0 66 -24 90q-20 18 -84 31v49h393v-778q0 -106 96 -117 v-49h-489z" />
<glyph unicode="&#x205f;" horiz-adv-x="477" />
<glyph unicode="&#x20ac;" horiz-adv-x="1478" d="M18 0v51q76 12 119 68q29 39 82 172l455 1122h57l457 -1077q76 -180 108 -225q45 -61 115 -60v-51h-663v51q104 8 129 19q35 14 34 61q0 57 -94 272h-461q-90 -231 -90 -264q0 -78 168 -88v-51h-416zM381 1663q0 45 35 89t94 44q53 0 92 -40t39 -95t-38 -93t-93 -38 q-59 0 -98 47q-31 41 -31 86zM387 483h399l-206 498zM811 1663q0 45 34 89t93 44q53 0 93 -40t40 -95q0 -53 -38 -92t-95 -39q-59 0 -96 47q-31 39 -31 86z" />
<glyph unicode="&#x2122;" d="M51 469q0 207 125 348q131 152 338 152q201 0 331 -142.5t130 -357.5q0 -209 -125 -350q-131 -147 -336 -148q-207 0 -338 150q-125 141 -125 348zM168 1081l250 361h188l252 -361h-117l-229 201l-229 -201h-115zM352 469q0 -219 21 -299q35 -135 143 -135q98 0 131 119 q27 90 27 315q0 242 -34 339t-126 97q-102 0 -137 -131q-25 -88 -25 -305z" />
<glyph unicode="&#x25fc;" horiz-adv-x="942" d="M0 0v942h942v-942h-942z" />
</font>
</defs>
</svg>
