<?xml version="1.0" standalone="no"?>
<!DOCTYPE svg PUBLIC "-//W3C//DTD SVG 1.1//EN" "http://www.w3.org/Graphics/SVG/1.1/DTD/svg11.dtd" >
<svg>
<metadata>
Created by FontForge 20090914 at Mon Dec 19 06:18:28 2022
 By www-data
Copyright (c) 2018 by &#194;&#169; Summit Information Technologies Pvt. Ltd.. All rights reserved.
</metadata>
<defs>
<font id="KalingaVUni-Italic" horiz-adv-x="14" >
  <font-face 
    font-family="KalingaVUni"
    font-weight="400"
    font-style="italic"
    font-stretch="normal"
    units-per-em="1000"
    panose-1="2 0 5 6 2 0 0 2 0 4"
    ascent="800"
    descent="-200"
    x-height="459"
    cap-height="635"
    bbox="-626.999 -563.001 1780 1054"
    underline-thickness="20"
    underline-position="-129"
    unicode-range="U+0020-U+25CC"
  />
<missing-glyph horiz-adv-x="615" 
d="M307 923h462l-230 -923h-462zM480 77l191 769h-307l-191 -769h307z" />
    <glyph glyph-name=".notdef" horiz-adv-x="615" 
d="M307 923h462l-230 -923h-462zM480 77l191 769h-307l-191 -769h307z" />
    <glyph glyph-name="space" unicode=" " horiz-adv-x="332" 
 />
    <glyph glyph-name="exclam" unicode="!" horiz-adv-x="250" 
d="M154 167l119 476h48l-119 -476h-48zM95 0l16 65h66l-16 -65h-66z" />
    <glyph glyph-name="quotedbl" unicode="&#x22;" horiz-adv-x="317" 
d="M364 434h-25l33 209h64l-24 -94zM204 434h-25l15.5 105l15.5 104h64l-24 -94z" />
    <glyph glyph-name="numbersign" unicode="#" horiz-adv-x="498" 
d="M507 418l-86.999 -194.001h89l-9 -38h-99c-12 -29.333 -25.833 -60.166 -41.5 -92.499s-29.834 -63.5 -42.501 -93.5h-40l85 186h-176l-42.5 -92.5l-42.5 -93.5h-39l82 186h-80l9 38h89l88 194h-89l10 41h98c12 28 25.667 58.333 41 91l43 93h39l-85 -184h178l85 184h40
l-84 -184h79l-10 -41h-88zM291.001 417.999l-87 -194h174l86 194h-173z" />
    <glyph glyph-name="dollar" unicode="$" horiz-adv-x="493" 
d="M504 180c-6.66699 -26.667 -17.6631 -51.3291 -32.9961 -73.9961s-33.666 -42.5 -54.999 -59.5s-45.333 -30.5 -72 -40.5s-54.334 -15.667 -83.001 -17l-18 -71h-20l18 70c-59.333 6 -101.833 22.833 -127.5 50.5s-34.834 68.5 -27.501 122.5h60
c-5.33301 -38.667 0.666992 -68.667 18 -90s46 -36 86 -44l71 284c-58.667 13.333 -99.834 33.833 -123.501 61.5s-29.834 64.167 -18.501 109.5c12.667 51.333 39.167 91.666 79.5 120.999s89.833 46.333 148.5 51l18 72h20l-18 -72
c49.333 -3.33301 85.666 -17.333 108.999 -42s35 -56 35 -94h-61c3.33301 29.333 -2.5 51.666 -17.5 66.999s-40.167 25.666 -75.5 30.999l-64 -258c35.333 -8 64.166 -17 86.499 -27s39.333 -22.167 51 -36.5s18.334 -30.833 20.001 -49.5s-0.5 -40.334 -6.5 -65.001z
M397.004 617.005c-86.667 -12.667 -139 -55.999 -157 -129.999c-16 -64.667 15.333 -106.334 94 -125.001zM442.004 173.006c10 40 6 69.999 -12 89.999h2c-12.667 16.667 -43 32 -91 46l-71 -282c92.667 10.667 150 59.334 172 146.001z" />
    <glyph glyph-name="percent" unicode="%" horiz-adv-x="798" 
d="M791 153c-12.667 -49.333 -34.998 -88.999 -66.998 -118.999s-70 -45 -114 -45c-22 0 -40.5 4.16699 -55.5 12.5s-26.5 19.833 -34.5 34.5s-12.667 32 -14 52s1 41.667 7 65c6 24 14.333 46 25 66s23.667 37.167 39 51.5s32.666 25.666 51.999 33.999
s40.333 12.5 63 12.5c20.667 0 38.667 -4.16699 54 -12.5s27.166 -19.833 35.499 -34.5s13.5 -32 15.5 -52s0 -41.667 -6 -65zM248.002 0.000976562h-33l511 643h33zM464.002 492.001c-12.667 -50.667 -34.999 -90.834 -66.999 -120.501s-70 -44.5 -114 -44.5
c-44.667 0 -75.667 16 -93 48v-1c-6.66699 16.667 -10.5 34.667 -11.5 54s1.5 40.666 7.5 63.999c6 22.667 14.5 43.834 25.5 63.501s24.167 36.834 39.5 51.501s32.5 26 51.5 34s39.5 12 61.5 12s40.667 -4.16699 56 -12.5s27.166 -19.666 35.499 -33.999
s13.333 -31.333 15 -51s-0.5 -40.834 -6.5 -63.501zM744.003 153.001c22 90.667 2.33203 136 -59.001 136s-103 -45.333 -125 -136c-11.333 -46 -12.666 -80.167 -3.99902 -102.5s29 -33.5 61 -33.5c62 0 104.333 45.333 127 136zM417.002 492.001c22.667 90 3 135 -59 135
s-104.333 -45 -127 -135c-22.667 -91.333 -3 -137 59 -137s104.333 45.667 127 137z" />
    <glyph glyph-name="ampersand" unicode="&#x26;" horiz-adv-x="590" 
d="M505 -6l-39.998 77.001c-36 -28 -72.5 -48.667 -109.5 -62s-74.167 -20 -111.5 -20c-28 0 -53 4.5 -75 13.5s-40 21.667 -54 38s-23.5 35.666 -28.5 57.999s-4.16699 46.5 2.5 72.5c4.66699 19.333 12.167 36.833 22.5 52.5s23.166 30.667 38.499 45
s33.666 28.333 54.999 42s45.333 28.167 72 43.5l-2 -1l26 12c-35.333 67.333 -48.666 119 -39.999 155c4.66699 20 13.167 38.167 25.5 54.5s27 30.333 44 42s35.5 20.667 55.5 27s40.333 9.5 61 9.5c19.333 0 36.666 -3.16699 51.999 -9.5s28 -15.166 38 -26.499
s16.833 -24.833 20.5 -40.5s3.16699 -32.834 -1.5 -51.501c-12.667 -54 -72.667 -109 -180 -165l112 -200c14 23.333 26.5 45.5 37.5 66.5s19.833 41.167 26.5 60.5h60c-10 -29.333 -23.5 -58.5 -40.5 -87.5s-36.167 -57.5 -57.5 -85.5l22.5 -40l22.5 -41zM501.002 524.001
c6.66699 26 3.33398 47.667 -9.99902 65s-32.666 26 -57.999 26s-48.833 -8.16699 -70.5 -24.5s-35.834 -36.833 -42.501 -61.5c-4 -16 -4.33301 -32.167 -1 -48.5s9.66602 -33.5 18.999 -51.5l1 2l20 -40c82.667 40.667 130 85 142 133zM322.002 333.001
c-99.333 -50 -156.001 -102.333 -170.001 -157c-4.66699 -19.333 -5.5 -37.5 -2.5 -54.5s9.16699 -32 18.5 -45s21.5 -23.333 36.5 -31s31.833 -11.5 50.5 -11.5c66.667 0 129.334 24.667 188.001 74z" />
    <glyph glyph-name="quotesingle" unicode="'" horiz-adv-x="169" 
d="M210 434h-28l8 117l23 92h66l-23 -92z" />
    <glyph glyph-name="parenleft.001" unicode="(" horiz-adv-x="386" 
d="M333 -150c-20.667 34.667 -38.168 74.833 -52.501 120.5s-25 92.5 -32 140.5s-10.167 95 -9.5 141s5.66699 87 15 123c9.33301 38 25.333 80.333 48 127s49.5 94 80.5 142s65.333 94.833 103 140.5s76.167 86.5 115.5 122.5c-78.667 -90.667 -143.667 -181 -195 -271
s-87.666 -177 -108.999 -261s-28.333 -169.5 -21 -256.5s28 -176.5 62 -268.5h-5z" />
    <glyph glyph-name="parenright.001" unicode=")" horiz-adv-x="386" 
d="M385 375c-19.333 -77.333 -57.5029 -159.998 -114.503 -247.998s-132.833 -180.667 -227.5 -278h-6c162.667 179.333 265.334 354.666 308.001 525.999c22 88 29.333 176.167 22 264.5s-28.666 177.5 -63.999 267.5c20 -34 37.333 -73.667 52 -119
s25.834 -92 33.501 -140s11.5 -95.833 11.5 -143.5s-5 -90.834 -15 -129.501z" />
    <glyph glyph-name="asterisk.001" unicode="*" horiz-adv-x="557" 
d="M503 772l3.99805 -0.999023l23 13l-18 162l1 -1c0 2.66699 0.166992 4.33398 0.5 5.00098s0.5 1.66699 0.5 3c1.33301 6 4.5 12.167 9.5 18.5s11 12.166 18 17.499s14.5 9.66602 22.5 12.999s15.667 5 23 5c16.667 0 29.334 -4.5 38.001 -13.5s11.667 -19.167 9 -30.5
c-1.33301 -3.33301 -2.5 -6 -3.5 -8s-1.5 -3.33301 -1.5 -4l-100 -172l11 -9l-2 -18l-20 -10h2l-7 -11l16 -170c0.666992 -0.666992 0.833984 -1.5 0.500977 -2.5s-0.5 -2.16699 -0.5 -3.5c-2.66699 -10.667 -11 -20.167 -25 -28.5s-28.667 -12.5 -44 -12.5
c-14.667 0 -26.667 5.16699 -36 15.5s-12.333 22.833 -9 37.5l98 164l-1 7l6 4l-16 11l4 18zM252.998 653.001c2 6.66699 4.99902 13.333 8.99902 20s8.83301 12.667 14.5 18s11.834 9.83301 18.501 13.5s13.334 6.16699 20.001 7.5l175 32l-69.5 -61l-69.5 -61v2
c-15.333 -12 -31 -18 -47 -18s-29.333 4.16699 -40 12.5s-14.334 19.833 -11.001 34.5zM409.997 914l92.999 -142.001l-170 50c-8 4 -14 9.83301 -18 17.5s-4.33301 17.834 -1 30.501c4 16 11.833 29.167 23.5 39.5s27.167 15.5 46.5 15.5c10.667 0 19.334 -4 26.001 -12v1z
M732.996 644.999c-1.33301 -6 -4.33105 -11.834 -8.99805 -17.501s-10 -10.5 -16 -14.5s-12.667 -7.33301 -20 -10s-14.333 -4 -21 -4c-5.33301 0 -9.5 0.833008 -12.5 2.5s-6.16699 3.83398 -9.5 6.50098h2l-105 137l169 -37
c3.33301 -0.666992 6.66602 -3.16699 9.99902 -7.5s6.16602 -9.5 8.49902 -15.5s4 -12.667 5 -20s0.5 -14 -1.5 -20zM556.998 775.998l157 131c6.66699 8 18 12 34 12c11.333 0 20.166 -1.5 26.499 -4.5s10.166 -8.5 11.499 -16.5l1 1l2 -12.5
c0.666992 -4.33301 0.333984 -9.5 -0.999023 -15.5c-4 -15.333 -9.66699 -27 -17 -35s-15.666 -13.667 -24.999 -17v1zM539.998 769.998l1 2l16 4l-12 -11zM489.998 743.998l11 10v-7zM537.998 751.998l4 -8l-5 3z" />
    <glyph glyph-name="plus.001" unicode="+" horiz-adv-x="728" 
d="M534 362l-90 -362h-26l90 362h-368l6 27h368l90 360h26l-90 -360h369l-6 -27h-369z" />
    <glyph glyph-name="comma" unicode="," horiz-adv-x="250" 
d="M157 -15c-18 -68.667 -49.667 -107.668 -95 -117.001l4 16c32 6.66699 57 45.334 75 116.001h-46l16 65h66l-20 -80v0z" />
    <glyph glyph-name="hyphen.001" unicode="-" horiz-adv-x="446" 
d="M131 318l9 36h344l-9 -36h-344z" />
    <glyph glyph-name="period" unicode="." horiz-adv-x="250" 
d="M95 0l16 65h66l-16 -65h-66z" />
    <glyph glyph-name="slash.001" unicode="/" horiz-adv-x="315" 
d="M18 -255c-6 0 -10.5 -0.166992 -13.5 -0.5s-6.16699 -0.5 -9.5 -0.5l517 1118c7.33301 0.666992 13 1 17 1h14z" />
    <glyph glyph-name="zero" unicode="0" horiz-adv-x="498" 
d="M540 322c-56 -222 -151.667 -333 -287 -333c-138.667 0 -180 111 -124 333c55.333 220.667 151.666 331 288.999 331c136.667 0 177.334 -110.333 122.001 -331zM479 322c24.667 99.333 32.1689 173.001 22.502 221.001s-40.5 72 -92.5 72c-26 0 -50 -6.83301 -72 -20.5
s-41.833 -33.334 -59.5 -59.001s-33.667 -56.5 -48 -92.5s-26.833 -76.333 -37.5 -121c-25.333 -102 -32.833 -176.5 -22.5 -223.5s41.166 -70.5 92.499 -70.5c50.667 0 93.167 24 127.5 72s64.166 122 89.499 222z" />
    <glyph glyph-name="one" unicode="1" horiz-adv-x="435" 
d="M274 0l134 539.998c-25.333 -15.333 -52.333 -26.666 -81 -33.999s-59.334 -11.666 -92.001 -12.999l10 38c52 2 95.333 12.667 130 32s61.334 49.333 80.001 90h39l-162 -653h-58z" />
    <glyph glyph-name="two" unicode="2" horiz-adv-x="481" 
d="M38 0c5.33301 18 13.165 35.3359 23.498 52.0029s24.333 33.834 42 51.501s39.834 36.667 66.501 57s58.667 43.166 96 68.499c46.667 31.333 84.667 58.166 114 80.499s52.833 42.666 70.5 60.999s31 36 40 53s16.167 36.5 21.5 58.5c21.333 88.667 -13 133 -103 133
c-84.667 0 -142 -42.333 -172 -127h-59c20.667 54.667 52.5 95.834 95.5 123.501s91.5 41.5 145.5 41.5c62 0 106.333 -16 133 -48s33.334 -73.667 20.001 -125c-6 -24 -14 -45.333 -24 -64s-24.667 -38 -44 -58s-44.666 -42 -75.999 -66l-120 -88
c-51.333 -34.667 -90.833 -64.834 -118.5 -90.501s-43.834 -45.834 -48.501 -60.501h326l-13 -53h-416z" />
    <glyph glyph-name="three" unicode="3" horiz-adv-x="499" 
d="M507 185c-7.33301 -29.333 -19.332 -56 -35.999 -80s-36.5 -44.667 -59.5 -62s-48.333 -30.666 -76 -39.999s-56.167 -14 -85.5 -14c-27.333 0 -51.833 3.5 -73.5 10.5s-39.667 17.333 -54 31s-24.666 30.5 -30.999 50.5s-7.83301 42.667 -4.5 68h59
c-5.33301 -37.333 2.66699 -66.833 24 -88.5s51 -32.5 89 -32.5c22.667 0 44.167 3.83301 64.5 11.5s38.666 18.334 54.999 32.001s30.333 29.834 42 48.501s20.167 39 25.5 61c24 98 -17.667 147 -125 147h-19l10 39h7c93.333 0 150.666 43.333 171.999 130
c19.333 78.667 -11 118 -91 118c-36 0 -67.167 -8.5 -93.5 -25.5s-46.166 -44.167 -59.499 -81.5h-61c10 23.333 21.833 43.666 35.5 60.999s30.167 32.666 49.5 45.999v-1c19.333 13.333 40.666 23.166 63.999 29.499s47.666 9.5 72.999 9.5c26 0 49.333 -3.5 70 -10.5
s37.334 -17.333 50.001 -31s21 -30.334 25 -50.001s3 -42.167 -3 -67.5c-15.333 -57.333 -68 -104.666 -158 -141.999c46 -12.667 79 -34.167 99 -64.5s25.333 -64.5 16 -102.5z" />
    <glyph glyph-name="four" unicode="4" horiz-adv-x="472" 
d="M408 161l-40 -161h-58l40 161h-285l14 58l203 216.5l202 216.5h46l-111 -444h91l-11 -47h-91zM453 577l-339 -369h247z" />
    <glyph glyph-name="five" unicode="5" horiz-adv-x="499" 
d="M517 214c-8 -33.333 -20.667 -63.6699 -38 -91.0029s-37.833 -51 -61.5 -71s-50.167 -35.5 -79.5 -46.5s-60.333 -16.5 -93 -16.5c-55.333 0 -97.166 13.333 -125.499 40s-39.833 66.334 -34.5 119.001h60c-2.66699 -41.333 5.16602 -71.666 23.499 -90.999
s46.833 -29 85.5 -29c23.333 0 45.666 4.66699 66.999 14s40.833 22 58.5 38s33 34.833 46 56.5s22.5 44.5 28.5 68.5c6 24.667 8 47.334 6 68.001s-8 38.334 -18 53.001s-23.667 26.167 -41 34.5s-38 12.5 -62 12.5c-48.667 0 -95 -18.667 -139 -56h-47l107 326h333
l-13 -51h-285l-77 -233c30 20 57.667 34.667 83 44s49 14 71 14c28 0 52.667 -5.33301 74 -16s38.333 -25.334 51 -44.001s20.834 -40.167 24.501 -64.5s2.16699 -50.5 -4.5 -78.5z" />
    <glyph glyph-name="six" unicode="6" horiz-adv-x="501" 
d="M512 203c-8 -31.333 -20.166 -60.166 -36.499 -86.499s-35.5 -49 -57.5 -68s-46.167 -33.667 -72.5 -44s-53.5 -15.5 -81.5 -15.5c-36 0 -65.833 7.5 -89.5 22.5s-41.167 36 -52.5 63s-16.833 59.667 -16.5 98s6.16602 80.833 17.499 127.5
c58.667 235.333 163 353 313 353c50 0 86.833 -11 110.5 -33s33.834 -57 30.501 -105h-58c0.666992 32 -7.33301 56.667 -24 74s-41 26 -73 26c-96.667 0 -176.334 -103 -239.001 -309c74 67.333 138.667 101 194 101c27.333 0 51 -5.5 71 -16.5s35.833 -25.833 47.5 -44.5
s19 -40.334 22 -65.001s1.16699 -50.667 -5.5 -78zM451.001 199c6 23.333 8.33203 45.167 6.99902 65.5s-6 38.166 -14 53.499s-19.667 27.5 -35 36.5s-34 13.5 -56 13.5c-50.667 0 -108.667 -27.667 -174 -83c-38.667 -171.333 -7.66699 -257 93 -257
c20.667 0 40.5 4.5 59.5 13.5s36.333 21.333 52 37s29.334 33.834 41.001 54.501s20.5 42.667 26.5 66z" />
    <glyph glyph-name="seven" unicode="7" horiz-adv-x="502" 
d="M220 0h-66l396 592h-350l13 51h407l-11 -45z" />
    <glyph glyph-name="eight" unicode="8" horiz-adv-x="498" 
d="M503 165c-7.33301 -28 -19.3301 -53.0029 -35.9971 -75.0029s-36.167 -40.5 -58.5 -55.5s-46.833 -26.333 -73.5 -34s-54 -11.5 -82 -11.5c-31.333 0 -58.833 3.83301 -82.5 11.5s-42.834 19 -57.501 34s-24.334 33.5 -29.001 55.5s-3.33398 47 3.99902 75
c16 67.333 82.667 124.666 200 171.999c-74.667 50 -104.334 105.333 -89.001 166c6 22.667 15.833 43.334 29.5 62.001s30.167 34.5 49.5 47.5s41 23 65 30s49 10.5 75 10.5c84.667 0 133.334 -30 146.001 -90v2c2 -9.33301 2.5 -19.166 1.5 -29.499
s-2.83301 -21.166 -5.5 -32.499c-7.33301 -30 -25 -58.833 -53 -86.5s-67.333 -54.167 -118 -79.5c92.667 -47.333 130.667 -104.666 114 -171.999zM501.003 502.997c18.667 74.667 -12 112 -92 112c-81.333 0 -131.333 -37.333 -150 -112
c-14.667 -59.333 14 -107.333 86 -144c89.333 36 141.333 84 156 144zM443.003 164.997c14 58.667 -22.334 108.666 -109.001 149.999c-60 -24 -104.167 -48.167 -132.5 -72.5s-45.833 -50.166 -52.5 -77.499c-11.333 -43.333 -6.16602 -77 15.501 -101s54.167 -36 97.5 -36
c44 0 82.333 12 115 36s54.667 57.667 66 101z" />
    <glyph glyph-name="nine" unicode="9" horiz-adv-x="496" 
d="M545 343c-59.333 -236 -163.004 -353.999 -311.004 -353.999c-47.333 0 -83.166 12.167 -107.499 36.5s-35.5 58.166 -33.5 101.499h60c-3.33301 -34 2.83398 -59 18.501 -75s40.834 -24 75.501 -24c94.667 0 174.334 102.333 239.001 307
c-38 -32 -73.167 -56.5 -105.5 -73.5s-61.833 -25.5 -88.5 -25.5s-50.167 5.33301 -70.5 16s-36.5 25.167 -48.5 43.5s-19.667 39.833 -23 64.5s-1.33301 51 6 79c8 32 20.333 61 37 87s36.167 48.5 58.5 67.5s46.5 33.667 72.5 44s52.667 15.5 80 15.5
c145.333 0 192.333 -103.333 141 -310zM491.996 362.001c39.333 168.667 8.33496 252.999 -92.998 252.999c-21.333 0 -41.833 -4.66699 -61.5 -14s-37.334 -22 -53.001 -38s-29.334 -34.167 -41.001 -54.5s-20.167 -41.5 -25.5 -63.5
c-5.33301 -23.333 -7.33301 -45.166 -6 -65.499s6 -38 14 -53s19.5 -27 34.5 -36s33.5 -13.5 55.5 -13.5c52 0 108.667 25 170 75z" />
    <glyph glyph-name="colon" unicode=":" horiz-adv-x="250" 
d="M192 392l17 67h66l-17 -67h-66zM95 0l16 65h66l-16 -65h-66z" />
    <glyph glyph-name="semicolon" unicode=";" horiz-adv-x="250" 
d="M192 392l17 67h66l-17 -67h-66zM157 -15c-18 -68.667 -49.667 -107.668 -95 -117.001l4 16c32 6.66699 57 45.334 75 116.001h-46l16 65h66z" />
    <glyph glyph-name="less" unicode="&#x3c;" horiz-adv-x="525" 
d="M131 288l15 58l460 177l-13 -51l-414 -155l337 -153l-13 -53z" />
    <glyph glyph-name="equal" unicode="=" horiz-adv-x="525" 
d="M158 395l12 49h416l-12 -49h-416zM107 191l12 49h416l-12 -49h-416z" />
    <glyph glyph-name="greater" unicode="&#x3e;" horiz-adv-x="525" 
d="M87 111l13 53l414 153l-337 155l13 52l372 -178l-15 -58z" />
    <glyph glyph-name="question" unicode="?" horiz-adv-x="498" 
d="M579 486c-14 -52.667 -58.6641 -105.331 -133.997 -157.998l-47 -33c-9.33301 -8 -17.833 -15.833 -25.5 -23.5s-14.167 -15.5 -19.5 -23.5l1 2c-6.66699 -8 -12.834 -18.5 -18.501 -31.5s-11.167 -30.5 -16.5 -52.5h-52c16.667 62 41.667 108 75 138v-1l82 62
c26.667 20.667 47 39 61 55s23.667 34.667 29 56c5.33301 20.667 6.66602 39.5 3.99902 56.5s-8.83398 31.667 -18.501 44s-22 21.833 -37 28.5s-32.5 10 -52.5 10c-78 0 -135.667 -42.333 -173 -127h-63c9.33301 26 22.333 49.167 39 69.5s35.667 37.666 57 51.999
s44.5 25.166 69.5 32.499s51.167 11 78.5 11c92.667 0 147 -33 163 -99v1c4 -23.333 3.33301 -46.333 -2 -69zM221.003 0.00292969l16 65h67l-16 -65h-67z" />
    <glyph glyph-name="at" unicode="@" horiz-adv-x="909" 
d="M950 312c-12 -48 -29 -91.168 -51 -129.501s-47.667 -71 -77 -98s-62 -47.833 -98 -62.5s-73.667 -22 -113 -22c-46 0 -63 34 -51 102c-66 -68 -124.667 -102 -176 -102c-49.333 0 -84.333 17.333 -105 52h1c-16.667 32.667 -19.334 72.667 -8.00098 120
c7.33301 29.333 18.666 57.833 33.999 85.5s34.333 56.167 57 85.5l-1 -1c14 18 29.667 34.667 47 50s35 28.666 53 39.999s36.167 20.333 54.5 27s36.166 10 53.499 10c60.667 0 106 -26.333 136 -79l28 64h52l-139 -289l-18 -38
c-5.33301 -11.333 -8.66602 -21.333 -9.99902 -30c-5.33301 -19.333 -6.66602 -34.166 -3.99902 -44.499s11.667 -15.5 27 -15.5c27.333 0 54.666 5.83301 81.999 17.5s53.166 29.167 77.499 52.5s46.166 52.333 65.499 87s34.666 75 45.999 121
c10.667 44 12.167 84.833 4.5 122.5s-23.334 70 -47.001 97s-54.334 48.167 -92.001 63.5s-80.5 23 -128.5 23c-56 0 -111.167 -10.833 -165.5 -32.5s-104.166 -51.334 -149.499 -89.001s-84.666 -82.167 -117.999 -133.5s-57.333 -106.666 -72 -165.999
c-14 -57.333 -17.5 -108.5 -10.5 -153.5s24.333 -82.833 52 -113.5s64.834 -54 111.501 -70s102.334 -24 167.001 -24c72.667 0 137.334 10.667 194.001 32c3.33301 -5.33301 5.66602 -10.666 6.99902 -15.999l4 -16c-34.667 -12.667 -69 -21.834 -103 -27.501
s-71 -8.5 -111 -8.5c-70 0 -130.5 9.16699 -181.5 27.5s-91.5 44.5 -121.5 78.5s-49.167 75.5 -57.5 124.5s-4.83301 104.5 10.5 166.5c16 65.333 41.833 125.833 77.5 181.5s78 103.834 127 144.501s103.333 72.5 163 95.5s121.834 34.5 186.501 34.5
c56 0 104.833 -8.5 146.5 -25.5s75.334 -40.667 101.001 -71s42.334 -66.5 50.001 -108.5s5.16699 -88.333 -7.5 -139zM684 363.999c-17.333 43.333 -56.6709 64.999 -118.004 64.999c-22 0 -45.167 -7.5 -69.5 -22.5s-47.666 -34.667 -69.999 -59
s-42.166 -51.666 -59.499 -81.999s-29.666 -60.5 -36.999 -90.5c-23.333 -92 2.66699 -138 78 -138c34 0 65.667 10 95 30s58 50.667 86 92v-2l8 12c0.666992 2 1.33398 3.5 2.00098 4.5s1.5 2.33301 2.5 4s2.16699 4 3.5 7s3.33301 7.83301 6 14.5v-1l74 156z" />
    <glyph glyph-name="A" unicode="A" horiz-adv-x="649" 
d="M550 0l-28 202h-296l-62 -100.5l-62 -101.5h-61l100.5 161l99 157l99 156.5l101.5 160.5h76l103 -635h-70zM471 604l-222 -360h270z" />
    <glyph glyph-name="B" unicode="B" horiz-adv-x="625" 
d="M595 180c-30 -120 -122.667 -180.001 -278 -180.001h-233l158 635h221c103.333 0 162 -30 176 -90l1 1c1.33301 -11.333 2 -22.166 2 -32.499s-1.66699 -21.5 -5 -33.5c-14 -56.667 -68 -105.667 -162 -147c100 -25.333 140 -76.333 120 -153zM578 471.999
c14.667 58 -7.00098 93.332 -65.001 105.999h1c-8.66699 2.66699 -19.167 4.33398 -31.5 5.00098s-26.166 1 -41.499 1h-153l-56 -227h161c104 0 165.667 38.333 185 115zM533.999 179.998c13.333 52.667 1.00098 88.333 -36.999 107h1c-23.333 12.667 -62.333 19 -117 19
h-162l-64 -254h174c115.333 0 183.666 42.667 204.999 128z" />
    <glyph glyph-name="C" unicode="C" horiz-adv-x="645" 
d="M355 36c114 0 190.328 48.998 228.995 146.998h61c-12 -31.333 -28.167 -59 -48.5 -83s-43.666 -44.333 -69.999 -61s-55 -29.167 -86 -37.5s-63.167 -12.5 -96.5 -12.5c-45.333 0 -84.333 7.5 -117 22.5s-58.167 36.667 -76.5 65s-29.333 63 -33 104
s0.833008 87.167 13.5 138.5c12.667 50 30.834 95.167 54.501 135.5s51.834 74.666 84.501 102.999s69 50 109 65s82.667 22.5 128 22.5c66 0 116.5 -15.167 151.5 -45.5s53.5 -76.166 55.5 -137.499h-60c1.33301 44 -12.5 77.667 -41.5 101s-67.5 35 -115.5 35
c-36 0 -70.167 -6.66699 -102.5 -20s-61.666 -32.166 -87.999 -56.499s-49.166 -53.666 -68.499 -87.999s-34.333 -72.5 -45 -114.5c-22.667 -91.333 -19.5 -161.333 9.5 -210s79.833 -73 152.5 -73zM661.995 182.998h-17l7 15z" />
    <glyph glyph-name="D" unicode="D" horiz-adv-x="675" 
d="M683 321c-54 -214 -189 -321 -405 -321h-194l158 635h194c108.667 0 183.5 -25.667 224.5 -77s48.5 -130.333 22.5 -237zM621 321c22.667 90.667 18.335 157.167 -12.998 199.5s-93.333 63.5 -186 63.5h-136l-133 -532h136c91.333 0 163.666 21.333 216.999 64
s91.666 111 114.999 205z" />
    <glyph glyph-name="E" unicode="E" horiz-adv-x="624" 
d="M84 0l158 635h450l-13 -51h-391l-57 -230h366l-13 -50h-366l-63 -252h407l-12 -52h-466z" />
    <glyph glyph-name="F" unicode="F" horiz-adv-x="578" 
d="M288 584l-58 -232h312l-12 -51h-312l-75 -301h-59l158 635h419l-13 -51h-360z" />
    <glyph glyph-name="G" unicode="G" horiz-adv-x="683" 
d="M604 0l-5.99707 84.001c-69.333 -63.333 -150 -95 -242 -95c-46.667 0 -86.834 8 -120.501 24s-60.334 38.5 -80.001 67.5s-31.667 63.833 -36 104.5s-0.5 85.334 11.5 134.001c12 48 30.167 91.833 54.5 131.5s53.5 74 87.5 103s71.667 51.5 113 67.5s85 24 131 24
c35.333 0 67.166 -3.5 95.499 -10.5s52.166 -18 71.499 -33s34 -34 44 -57s14.667 -50.5 14 -82.5h-62c8.66699 90.667 -49 136 -173 136c-37.333 0 -72.666 -6.5 -105.999 -19.5s-63.666 -31.5 -90.999 -55.5s-51 -53.333 -71 -88s-35.333 -73.334 -46 -116.001
c-11.333 -44 -15.5 -83.333 -12.5 -118s12 -64.334 27 -89.001s35.833 -43.5 62.5 -56.5s58.667 -19.5 96 -19.5c49.333 0 95.166 8.5 137.499 25.5s80.833 43.167 115.5 78.5l30 120h-175l13 50h232l-77 -310h-38z" />
    <glyph glyph-name="H" unicode="H" horiz-adv-x="648" 
d="M517 0l77 311h-376l-77 -311h-57l158 635h57l-68 -272h376l68 272h59l-158 -635h-59z" />
    <glyph glyph-name="I" unicode="I" horiz-adv-x="251" 
d="M97 0l158 635h60l-158 -635h-60z" />
    <glyph glyph-name="J" unicode="J" horiz-adv-x="402" 
d="M422 198c-18.667 -74 -46.501 -127.333 -83.501 -160s-84.167 -49 -141.5 -49c-51.333 0 -87.666 15.5 -108.999 46.5s-25.666 71.5 -12.999 121.5v3h60c-18 -80.667 6.66699 -121 74 -121c39.333 0 70.666 11.667 93.999 35s42 63 56 119l110 442h62l-109 -437v0z" />
    <glyph glyph-name="K" unicode="K" horiz-adv-x="669" 
d="M502 0l-158 339l-148 -116l-55 -223h-57l158 635h57l-87 -348l432 348h77l-324 -256l186 -379h-81z" />
    <glyph glyph-name="L" unicode="L" horiz-adv-x="542" 
d="M85 0l158 635h58l-146 -583h323l-12 -52h-381z" />
    <glyph glyph-name="M" unicode="M" horiz-adv-x="749" 
d="M621 0l138 554l-26 3l-161 -278l-161 -279h-63l-48 557l-24 -3l-138 -554h-56l158 635h109l43 -582l81 142l85.5 149l86 149l82.5 142h110l-158 -635h-58z" />
    <glyph glyph-name="N" unicode="N" horiz-adv-x="648" 
d="M506 0l-230 555l-138 -555h-54l158 635h67l230 -555l139 555h56l-158 -635h-70z" />
    <glyph glyph-name="O" unicode="O" horiz-adv-x="699" 
d="M737 319c-12 -48 -30.001 -92.168 -54.001 -132.501s-52.833 -75.166 -86.5 -104.499s-71 -52.166 -112 -68.499s-84.5 -24.5 -130.5 -24.5c-47.333 0 -87.666 8.5 -120.999 25.5s-59.5 40.167 -78.5 69.5s-30.667 64.166 -35 104.499s-0.5 83.833 11.5 130.5
c12 48 30.167 92 54.5 132s53.333 74.333 87 103s71.167 51 112.5 67s85.333 24 132 24c46 0 85.5 -8 118.5 -24s59 -38.5 78 -67.5s30.667 -63.5 35 -103.5s0.5 -83.667 -11.5 -131zM673.999 318.999c10.667 42.667 14.665 81.334 11.998 116.001s-11.5 64 -26.5 88
s-35.333 42.5 -61 55.5s-56.167 19.5 -91.5 19.5c-38 0 -73.833 -6.83301 -107.5 -20.5s-64.167 -32.834 -91.5 -57.501s-51 -54.167 -71 -88.5s-35 -71.833 -45 -112.5c-10.667 -42 -14.167 -80.167 -10.5 -114.5s13.167 -64.833 28.5 -91.5h-1
c14.667 -26.667 34.834 -46.167 60.501 -58.5s56.834 -18.5 93.501 -18.5s71.5 7 104.5 21s63.167 33.5 90.5 58.5s51 54.833 71 89.5s35 72.667 45 114z" />
    <glyph glyph-name="P" unicode="P" horiz-adv-x="632" 
d="M671 455c-32 -127.333 -126.333 -191 -283 -191h-180l-65 -264h-59l158 635h263c140.667 0 196 -60 166 -180zM608 453c11.333 44 5.66699 76.833 -17 98.5s-61 32.5 -115 32.5h-188l-67 -268h180c116 0 185 45.667 207 137z" />
    <glyph glyph-name="Q" unicode="Q" horiz-adv-x="710" 
d="M619 -47l-86.0029 84.002c-31.333 -16.667 -61.666 -28.834 -90.999 -36.501s-58.666 -11.5 -87.999 -11.5c-47.333 0 -87.666 8.5 -120.999 25.5s-59.5 40.167 -78.5 69.5s-30.667 64.166 -35 104.499s-0.5 83.833 11.5 130.5c12 48 30.167 92 54.5 132
s53.333 74.333 87 103s71.167 51 112.5 67s85.333 24 132 24c46 0 85.5 -8 118.5 -24s59 -38.5 78 -67.5s30.667 -63.5 35 -103.5s0.5 -83.667 -11.5 -131c-12 -48 -30.5 -92.667 -55.5 -134s-57.5 -80 -97.5 -116l77 -76zM673.997 319.002
c10.667 42.667 14.665 81.334 11.998 116.001s-11.5 64 -26.5 88s-35.333 42.5 -61 55.5s-56.167 19.5 -91.5 19.5c-38 0 -73.833 -6.83301 -107.5 -20.5s-64.167 -32.834 -91.5 -57.501s-51 -54.167 -71 -88.5s-35 -71.833 -45 -112.5
c-10.667 -42 -14.167 -80.167 -10.5 -114.5s13.167 -64.833 28.5 -91.5h-1c14.667 -26.667 34.834 -46.167 60.501 -58.5s56.834 -18.5 93.501 -18.5c38.667 0 83.667 11.333 135 34l-59 57l45 39l65 -63c61.333 57.333 103 129.333 125 216z" />
    <glyph glyph-name="R" unicode="R" horiz-adv-x="679" 
d="M536 0l-19.001 167c-4 34 -17.333 61.833 -40 83.5s-51.667 32.5 -87 32.5h-179l-70 -283h-57l158 635h279c76 0 128.5 -14.167 157.5 -42.5s36.167 -71.833 21.5 -130.5c-21.333 -85.333 -97 -143 -227 -173c65.333 -22 101.666 -64.667 108.999 -128
c2.66699 -26.667 5.83398 -53.5 9.50098 -80.5s6.83398 -53.833 9.50098 -80.5h-65zM636.999 462c21.333 84.667 -20.667 127 -126 127h-224l-63 -253h211c30 0 56.333 2.16699 79 6.5s42 11.5 58 21.5s29.333 23 40 39s19 35.667 25 59z" />
    <glyph glyph-name="S" unicode="S" horiz-adv-x="592" 
d="M593 172c-20 -82 -79.334 -139.001 -178.001 -171.001h1c-32 -8 -65 -12 -99 -12c-82.667 0 -142.667 17 -180 51s-51 82.667 -41 146h59c-5.33301 -45.333 7 -81.166 37 -107.499s74 -39.5 132 -39.5c25.333 0 49.666 2.83301 72.999 8.5s44.333 14 63 25
s34.5 24.333 47.5 40s22.167 33.5 27.5 53.5c6.66699 26.667 6.33398 47.167 -0.999023 61.5s-22 26.5 -44 36.5s-52 20.167 -90 30.5s-84.333 24.833 -139 43.5l1 -1c-34 16 -56.167 35 -66.5 57s-11.5 49.333 -3.5 82c12.667 50.667 41.334 91.5 86.001 122.5
s104 46.5 178 46.5c68 0 119.833 -14.167 155.5 -42.5s49.167 -70.833 40.5 -127.5h-59c5.33301 42.667 -4 73.334 -28 92.001s-63 28 -117 28s-98 -9.83301 -132 -29.5s-55.667 -47.834 -65 -84.501c-11.333 -48 9.66699 -80.333 63 -97l145 -40
c60 -16 100.167 -37.5 120.5 -64.5s24.833 -62.833 13.5 -107.5z" />
    <glyph glyph-name="T" unicode="T" horiz-adv-x="549" 
d="M453 584l-145 -584h-60l145 584h-218l13 51h498l-13 -51h-220z" />
    <glyph glyph-name="U" unicode="U" horiz-adv-x="648" 
d="M642 266c-12.667 -50 -27.832 -92.5 -45.499 -127.5s-39.167 -63.667 -64.5 -86s-54.833 -38.5 -88.5 -48.5s-72.5 -15 -116.5 -15c-72.667 0 -125 13 -157 39h1c-25.333 22.667 -39 53.167 -41 91.5s4.66699 87.166 20 146.499l92 369h57l-92 -368
c-10 -41.333 -15.5 -76.5 -16.5 -105.5s3.66699 -52.5 14 -70.5s26.5 -31.167 48.5 -39.5s50.667 -12.5 86 -12.5c63.333 0 113.666 15.667 150.999 47v-1c39.333 32.667 70.333 93.334 93 182.001l92 368h59l-92 -369v0z" />
    <glyph glyph-name="V" unicode="V" horiz-adv-x="599" 
d="M341 0h-74l-87 635h63l71 -594l89.5 145.5l93.5 151.5l93.5 151l90.5 146h64z" />
    <glyph glyph-name="W" unicode="W" horiz-adv-x="847" 
d="M663 0h-62l-16 617l-325 -617h-61l-19 635h63l-3 -535h26l282 535h82l14 -535h26l131.5 267.5l132.5 267.5h63z" />
    <glyph glyph-name="X" unicode="X" horiz-adv-x="598" 
d="M507 0l-131 290l-276 -290h-74l329 337l-147 298h75l115 -255l245 255h71l-294 -298l80.5 -167.5l81.5 -169.5h-75z" />
    <glyph glyph-name="Y" unicode="Y" horiz-adv-x="598" 
d="M402 271l-67 -271h-62l67 271l-78 182l-79 182h75l125 -318l285 318h73z" />
    <glyph glyph-name="Z" unicode="Z" horiz-adv-x="540" 
d="M26 0l16 65l557 519h-390l13 51h448l-16 -64l-557 -519h438l-12 -52h-497z" />
    <glyph glyph-name="bracketleft" unicode="[" horiz-adv-x="296" 
d="M28 -187l207 830h154l-10 -39h-96l-187 -749h96l-10 -42h-154z" />
    <glyph glyph-name="backslash" unicode="\" horiz-adv-x="250" 
d="M203 0l-27 643h36c3.33301 -108 7.5 -215.167 12.5 -321.5l14.5 -321.5h-36z" />
    <glyph glyph-name="bracketright" unicode="]" horiz-adv-x="203" 
d="M-19 -187l10 42h96l187 749h-97l10 39h154l-207 -830h-153z" />
    <glyph glyph-name="asciicircum" unicode="^" horiz-adv-x="421" 
d="M421 389l-56 217l-166 -217h-49l201 254h48l38 -127l37 -127h-53z" />
    <glyph glyph-name="underscore" unicode="_" horiz-adv-x="508" 
d="M-34 -148l4 18h503l-4 -18h-503z" />
    <glyph glyph-name="grave" unicode="`" horiz-adv-x="236" 
d="M283 555l-55.999 98h70c3.33301 -18 7.16602 -34.5 11.499 -49.5s8.5 -31.167 12.5 -48.5h-38z" />
    <glyph glyph-name="a" unicode="a" horiz-adv-x="472" 
d="M381 0l16 65.998c-34.667 -25.333 -68.834 -44.5 -102.501 -57.5s-67.5 -19.5 -101.5 -19.5c-21.333 0 -40.5 3 -57.5 9s-31 14.333 -42 25s-18.5 23.667 -22.5 39s-3.66699 32.666 1 51.999c26 105.333 132 158 318 158h58c8 30.667 12.833 56.334 14.5 77.001
s0.833984 35.667 -2.49902 45l-1 -2c-6 13.333 -17.167 23.166 -33.5 29.499s-39.166 9.5 -68.499 9.5c-42 0 -75.667 -6.66699 -101 -20s-43 -34.666 -53 -63.999h-57c31.333 81.333 105.666 122 222.999 122c34.667 0 63 -3.16699 85 -9.5s38.667 -16.166 50 -29.499
s17.5 -30.666 18.5 -51.999s-2.5 -47.333 -10.5 -78l-74 -300h-57zM439 234.998h-73.001c-135.333 0 -212.333 -39 -231 -117c-15.333 -60 15.334 -90 92.001 -90c34 0 66.167 7 96.5 21s58.5 34.667 84.5 62z" />
    <glyph glyph-name="b" unicode="b" horiz-adv-x="529" 
d="M526 232c-9.33301 -36.667 -22.3311 -69.8311 -38.998 -99.498s-36 -55.167 -58 -76.5s-46.333 -37.833 -73 -49.5s-54 -17.5 -82 -17.5c-24.667 0 -47.834 5.16699 -69.501 15.5s-42.167 27.166 -61.5 50.499l-13 -55h-57l160 643h57l-66 -264c68 60 126.333 90 175 90
c58.667 0 99.167 -20.833 121.5 -62.5s24.166 -99.834 5.49902 -174.501zM464.002 232.003c33.333 132.667 6.33301 199 -81 199c-51.333 0 -108 -31.667 -170 -95l-60 -241c30.667 -44.667 72.667 -67 126 -67c90 0 151.667 68 185 204z" />
    <glyph glyph-name="c" unicode="c" horiz-adv-x="469" 
d="M262 28c36 0 65.8369 7.00098 89.5039 21.001s41.167 36.667 52.5 68h59c-17.333 -39.333 -44.666 -70.5 -81.999 -93.5s-80 -34.5 -128 -34.5c-36 0 -65.833 6 -89.5 18s-41.834 28.667 -54.501 50s-19.834 46.666 -21.501 75.999s1.83301 61.333 10.5 96
c9.33301 38.667 22.833 72.834 40.5 102.501s38.5 54.667 62.5 75s50.5 35.833 79.5 46.5s59.5 16 91.5 16c46 0 82.333 -11.333 109 -34s39.667 -54 39 -94h-60c3.33301 29.333 -4.33398 51.666 -23.001 66.999s-43.334 23 -74.001 23c-48 0 -89.833 -16.833 -125.5 -50.5
s-61.834 -84.167 -78.501 -151.5c-34 -134 0.333008 -201 103 -201z" />
    <glyph glyph-name="d" unicode="d" horiz-adv-x="469" 
d="M381 0l19.002 80c-68.667 -60.667 -127 -91 -175 -91c-30.667 0 -56.167 5.83301 -76.5 17.5s-35.833 28 -46.5 49s-16.334 46 -17.001 75s3.33301 60.5 12 94.5c8.66699 36.667 21.5 70 38.5 100s36.5 55.667 58.5 77s46.167 37.833 72.5 49.5s53.5 17.5 81.5 17.5
c25.333 0 49.166 -5.5 71.499 -16.5s42.833 -26.833 61.5 -47.5l60 238h58l-160 -643h-58zM471.002 363c-16 23.333 -34.499 40.5 -55.499 51.5s-44.167 16.5 -69.5 16.5c-91.333 0 -154 -68.667 -188 -206c-32.667 -131.333 -5.33398 -197 81.999 -197
c52.667 0 109.667 31 171 93z" />
    <glyph glyph-name="e" unicode="e" horiz-adv-x="498" 
d="M157 223c-12.667 -65.333 -9.16797 -114.166 10.499 -146.499s54.5 -48.5 104.5 -48.5c32 0 62.5 7.33301 91.5 22s49.833 37 62.5 67h61c-9.33301 -20 -21.833 -38 -37.5 -54s-33.334 -29.5 -53.001 -40.5s-40.834 -19.333 -63.501 -25s-46 -8.5 -70 -8.5
c-71.333 0 -121.5 21.167 -150.5 63.5s-33.833 101.166 -14.5 176.499c18.667 74.667 53.334 134.334 104.001 179.001v-1c25.333 19.333 52 34.5 80 45.5s58 16.5 90 16.5c34.667 0 63.834 -6 87.501 -18s41.834 -28.5 54.501 -49.5s20 -46.333 22 -76
s-1.33301 -61.834 -10 -96.501l-2 -6h-367zM474.999 278c10.667 102 -26.667 153 -112 153c-86 0 -151.333 -56.333 -196 -169h290z" />
    <glyph glyph-name="f" unicode="f" horiz-adv-x="276" 
d="M413 605c-5.33301 0.666992 -11.332 1 -17.999 1h-21c-24 0 -44.167 -7.33301 -60.5 -22s-28.5 -38 -36.5 -70l-14 -55h91l-10 -41h-91l-104 -418h-59l104 418h-72l10 41h72l14 55c11.333 48 29.666 83.167 54.999 105.5s59 33.5 101 33.5h29c8 0 15.333 -0.333008 22 -1
z" />
    <glyph glyph-name="g" unicode="g" horiz-adv-x="469" 
d="M444 23c-36 -146.667 -120.664 -220.001 -253.997 -220.001c-106 0 -156.667 39.333 -152 118h61c-8.66699 -53.333 25 -80 101 -80c50 0 89.667 14.833 119 44.5s51.666 74.834 66.999 135.501l14 59c-68.667 -60.667 -127 -91 -175 -91
c-30.667 0 -56.167 5.83301 -76.5 17.5s-35.833 28 -46.5 49s-16.334 46 -17.001 75s3.33301 60.5 12 94.5c8.66699 36.667 21.5 70 38.5 100s36.5 55.667 58.5 77s46.167 37.833 72.5 49.5s53.5 17.5 81.5 17.5c25.333 0 49.166 -5.5 71.499 -16.5
s42.833 -26.833 61.5 -47.5l14 54h58zM471.003 362.999c-16 23.333 -34.499 40.5 -55.499 51.5s-44.167 16.5 -69.5 16.5c-91.333 0 -154 -68.667 -188 -206c-32.667 -131.333 -5.33398 -197 81.999 -197c52.667 0 109.667 31 171 93z" />
    <glyph glyph-name="h" unicode="h" horiz-adv-x="502" 
d="M381 0l73.998 300c20.667 84 -3.66602 126 -72.999 126c-48.667 0 -104.667 -29.333 -168 -88l-84 -338h-57l160 643h57l-67 -269c72.667 63.333 133.334 95 182.001 95c100 0 137 -54.667 111 -164l-76 -305h-59z" />
    <glyph glyph-name="i" unicode="i" horiz-adv-x="205" 
d="M220 578l16 65h58l-16 -65h-58zM76 0l114 459h58l-114 -459h-58z" />
    <glyph glyph-name="j" unicode="j" horiz-adv-x="181" 
d="M221 578l16 65h58l-16 -65h-58zM124 -41c-7.33301 -28 -15 -52 -23 -72s-17.833 -36.167 -29.5 -48.5s-25.167 -21.333 -40.5 -27s-33.666 -8.5 -54.999 -8.5c-18.667 0 -33.334 1 -44.001 3l11 45c6.66699 -1.33301 12.5 -2.33301 17.5 -3s10.167 -1 15.5 -1
c23.333 0 41.833 9 55.5 27s25.5 47 35.5 87l124 498h58z" />
    <glyph glyph-name="k" unicode="k" horiz-adv-x="507" 
d="M364 0l-99 255l-89 -69l-46 -186h-57l160 643h57l-100 -402l263 218h67l-208 -166l60.5 -146.5l61.5 -146.5h-70z" />
    <glyph glyph-name="l" unicode="l" horiz-adv-x="205" 
d="M76 0l160 643h58l-160 -643h-58z" />
    <glyph glyph-name="m" unicode="m" horiz-adv-x="750" 
d="M640 0l73.9961 300.001c20.667 84 1.33398 126 -57.999 126c-23.333 0 -48.166 -7 -74.499 -21s-54.833 -36 -85.5 -66l-84 -339h-58l74 300c20.667 84 1.33398 126 -57.999 126c-23.333 0 -48 -7 -74 -21s-54 -36 -84 -66l-84 -339h-58l114 459h58l-22 -88
c69.333 65.333 127 98 173 98c64.667 0 100.667 -34 108 -102c42.667 39.333 77.834 66.166 105.501 80.499s51.5 21.5 71.5 21.5c89.333 0 121 -54.667 95 -164l-76 -305h-57z" />
    <glyph glyph-name="n" unicode="n" horiz-adv-x="502" 
d="M381 0l73.998 300c20.667 84 -3.66602 126 -72.999 126c-48.667 0 -104.667 -29.333 -168 -88l-84 -338h-57l114 459h57l-21 -85c72.667 63.333 133.334 95 182.001 95c100 0 137 -54.667 111 -164l-76 -305h-59z" />
    <glyph glyph-name="o" unicode="o" horiz-adv-x="498" 
d="M526 229c-19.333 -76.667 -53.5 -135.832 -102.5 -177.499s-105.833 -62.5 -170.5 -62.5c-36 0 -65.833 6 -89.5 18s-41.834 28.667 -54.501 50s-19.834 46.666 -21.501 75.999s1.83301 61.333 10.5 96c9.33301 38.667 22.833 72.834 40.5 102.501s38.5 54.667 62.5 75
s50.5 35.833 79.5 46.5s59.5 16 91.5 16c34.667 0 63.834 -6 87.501 -18s41.834 -28.5 54.501 -49.5s20 -46.333 22 -76s-1.33301 -61.834 -10 -96.501zM464 229.002c16.667 66.667 15.501 117 -3.49902 151s-51.5 51 -97.5 51c-48 0 -89.833 -16.833 -125.5 -50.5
s-61.834 -84.167 -78.501 -151.5c-34 -134 0.333008 -201 103 -201c100.667 0 168 67 202 201z" />
    <glyph glyph-name="p" unicode="p" horiz-adv-x="529" 
d="M526 232c-9.33301 -36.667 -22.3311 -69.8311 -38.998 -99.498s-36 -55.167 -58 -76.5s-46.333 -37.833 -73 -49.5s-54 -17.5 -82 -17.5c-24.667 0 -47.834 5.16699 -69.501 15.5s-42.167 27.166 -61.5 50.499l-60 -242h-57l161 646h57l-20 -80c68 60 126.333 90 175 90
c58.667 0 99.167 -20.833 121.5 -62.5s24.166 -99.834 5.49902 -174.501zM464.002 232.003c33.333 132.667 6.33301 199 -81 199c-51.333 0 -108 -31.667 -170 -95l-60 -241c30.667 -44.667 72.667 -67 126 -67c90 0 151.667 68 185 204z" />
    <glyph glyph-name="q" unicode="q" horiz-adv-x="469" 
d="M334 -187l66.002 267c-68.667 -60.667 -127 -91 -175 -91c-30.667 0 -56.167 5.83301 -76.5 17.5s-35.833 28 -46.5 49s-16.334 46 -17.001 75s3.33301 60.5 12 94.5c8.66699 36.667 21.5 70 38.5 100s36.5 55.667 58.5 77s46.167 37.833 72.5 49.5s53.5 17.5 81.5 17.5
c25.333 0 49.166 -5.5 71.499 -16.5s42.833 -26.833 61.5 -47.5l14 54h58l-161 -646h-58zM471.002 363c-16 23.333 -34.499 40.5 -55.499 51.5s-44.167 16.5 -69.5 16.5c-91.333 0 -154 -68.667 -188 -206c-32.667 -131.333 -5.33398 -197 81.999 -197
c52.667 0 109.667 31 171 93z" />
    <glyph glyph-name="r" unicode="r" horiz-adv-x="363" 
d="M388 469c3.33301 0 7.16504 -0.333008 11.498 -1l12.5 -2l-14 -55c-5.33301 1.33301 -11.166 2 -17.499 2h-18.5c-50 0 -99 -26.667 -147 -80l-83 -333h-58l114 459h58l-25 -101c66.667 74 122.334 111 167.001 111z" />
    <glyph glyph-name="s" unicode="s" horiz-adv-x="443" 
d="M447 129c-4 -16 -10.835 -32.3379 -20.502 -49.0049s-23 -31.667 -40 -45s-38.5 -24.333 -64.5 -33s-57.333 -13 -94 -13c-58 0 -100.5 10.667 -127.5 32s-37.833 53.333 -32.5 96h57c-8 -59.333 29.333 -89 112 -89s131.667 30.333 147 91
c6 22.667 2.83301 39.834 -9.5 51.501s-29 20.834 -50 27.501s-44.167 12.5 -69.5 17.5s-48.166 12 -68.499 21s-36 21.667 -47 38s-12.833 39.166 -5.5 68.499c3.33301 14.667 9.33301 29.5 18 44.5s21 28.5 37 40.5s35.833 21.833 59.5 29.5s52.167 11.5 85.5 11.5
c110.667 0 161 -36.333 151 -109h-58c0.666992 22.667 -7.16602 40.167 -23.499 52.5s-41.5 18.5 -75.5 18.5c-38 0 -68.167 -6.83301 -90.5 -20.5s-36.833 -33.167 -43.5 -58.5c-4 -17.333 -3 -31.166 3 -41.499s15.5 -19 28.5 -26s28.167 -12.5 45.5 -16.5l53.5 -12.5
c18.333 -4.33301 36 -9.16602 53 -14.499s31.5 -12.666 43.5 -21.999s20.667 -21.166 26 -35.499s5.33301 -32.5 0 -54.5z" />
    <glyph glyph-name="t" unicode="t" horiz-adv-x="257" 
d="M214 32l15 -0.000976562c5.33301 0 10 0.333008 14 1l-9 -35c-15.333 -2.66699 -31.666 -4 -48.999 -4c-44 0 -69.667 10.667 -77 32v-1c-2.66699 9.33301 -3.33398 22.333 -2.00098 39s5.66602 38.334 12.999 65.001l72 289h-59l10 41h59l30 119h58l-30 -119h80l-10 -41
h-80l-76 -302c-13.333 -54.667 0.333984 -82.667 41.001 -84z" />
    <glyph glyph-name="u" unicode="u" horiz-adv-x="498" 
d="M381 0l21 86c-71.333 -64.667 -133 -97 -185 -97c-99.333 0 -135.333 55.333 -108 166l76 304h58l-75 -302c-21.333 -83.333 3 -125 73 -125c54 0 110.333 29 169 87l85 340h57l-114 -459h-57z" />
    <glyph glyph-name="v" unicode="v" horiz-adv-x="449" 
d="M258 0h-59l-58 459h63l38 -410l241 410h63z" />
    <glyph glyph-name="w" unicode="w" horiz-adv-x="647" 
d="M508 0h-60l-18 396l-215 -396h-60l-25 459h65l-4 -368h24l101.5 184.5l101.5 183.5h55l20 -413l203 413h64z" />
    <glyph glyph-name="x" unicode="x" horiz-adv-x="449" 
d="M359 0l-80 200l-42.5 -48l-46 -51l-46.5 -52l-43 -49h-73l229 239l-101 220h74l68 -185l159 185h74l-211 -219l55 -119.5l57 -120.5h-73z" />
    <glyph glyph-name="y" unicode="y" horiz-adv-x="449" 
d="M252 -9l-50.499 -77c-13.667 -20 -25.834 -36.5 -36.501 -49.5s-20.834 -23.333 -30.501 -31s-20.5 -14.5 -32.5 -20.5h1c-18.667 -6.66699 -36 -10 -52 -10c-17.333 0 -31 1 -41 3l13 50c2.66699 -0.666992 6.83398 -1 12.501 -1h13.5c50 0 100.333 43.333 151 130
l-59 474h63l38 -410l241 410h63z" />
    <glyph glyph-name="z" unicode="z" horiz-adv-x="449" 
d="M28 0l13 54l408 359h-301l12 46h370l-14 -57l-410 -356h336l-11 -46h-403z" />
    <glyph glyph-name="braceleft" unicode="{" horiz-adv-x="304" 
d="M212 -197c-38.667 0 -65.833 6.33301 -81.5 19s-22.834 35 -21.501 67c-0.666992 2.66699 -1.16699 4.5 -1.5 5.5s-0.5 2.16699 -0.5 3.5v2c0.666992 0 1.83398 1.83301 3.50098 5.5s4.16699 13.167 7.5 28.5c3.33301 12.667 7.33301 30.834 12 54.501l18 95.5
c18 72.667 -2 112.667 -60 120l12 48c16 1.33301 30.5 5.16602 43.5 11.499s25 16 36 29s21 29.833 30 50.5s17.833 45.667 26.5 75c1.33301 4 2 8.16699 2 12.5s0.666992 9.16602 2 14.499c4 15.333 9 32.666 15 51.999l19 64c7.33301 17.333 15.333 31.833 24 43.5
s19 21.167 31 28.5s25.667 12.5 41 15.5s33.333 4.5 54 4.5h11l-10 -40c-46.667 0 -79.667 -23 -99 -69l-26 -106c-22.667 -89.333 -55.334 -147.666 -98.001 -174.999h1c-7.33301 -4 -18.166 -8.66699 -32.499 -14s-34.833 -11.666 -61.5 -18.999
c25.333 -9.33301 45.333 -20.166 60 -32.499s25.167 -26.833 31.5 -43.5s8.83301 -35.834 7.5 -57.501s-5.33301 -46.5 -12 -74.5l-27 -108c-2.66699 -44.667 19 -67 65 -67l-11 -44h-11z" />
    <glyph glyph-name="bar" unicode="|" horiz-adv-x="234" 
d="M47 -197l210 840h44l-210 -840h-44z" />
    <glyph glyph-name="braceright" unicode="}" horiz-adv-x="295" 
d="M316 192l2.99707 12.002c-17.333 -1.33301 -32.5 -5 -45.5 -11s-24.667 -15.333 -35 -28s-19.666 -29 -27.999 -49s-16.166 -45 -23.499 -75c-9.33301 -37.333 -18.666 -70.833 -27.999 -100.5s-20.833 -54.667 -34.5 -75s-30.667 -35.833 -51 -46.5s-46.5 -16 -78.5 -16
h-12l11 44c38 0 65 12 81 36v-1c10.667 14 23.667 51.667 39 113l7 27c11.333 44.667 24.833 81 40.5 109s34.167 48.667 55.5 62h-2c8 5.33301 19.333 10.833 34 16.5s35.667 12.5 63 20.5c-36 11.333 -62.5 27.5 -79.5 48.5s-24.167 46.5 -21.5 76.5
c6.66699 51.333 14 93.666 22 126.999s12.667 59.666 14 78.999s-2.16699 32.833 -10.5 40.5s-25.833 11.5 -52.5 11.5l10 40h12c37.333 0 64.666 -7.66699 81.999 -23s24.333 -38 21 -68l-34 -171c-19.333 -88 -0.666016 -134.333 56.001 -139l-12 -48
c3.33301 0.666992 8.33301 1 15 1z" />
    <glyph glyph-name="asciitilde" unicode="~" horiz-adv-x="524" 
d="M628 565l1.00098 3.00195c-17.333 -14.667 -36.333 -25.5 -57 -32.5s-42 -10.5 -64 -10.5c-14 0 -30.833 3.16699 -50.5 9.5s-39.667 13.166 -60 20.499l-57.5 20.5c-18 6.33301 -32 9.5 -42 9.5c-18.667 0 -37.167 -3.5 -55.5 -10.5s-38.5 -18.167 -60.5 -33.5l15 57
c36 30 77.333 45 124 45c11.333 0 26.833 -3.16699 46.5 -9.5l61 -20.5l59 -20.5c18.333 -6.33301 32.166 -9.5 41.499 -9.5c17.333 0 35.833 3.66699 55.5 11s39.167 17.666 58.5 30.999l-14 -57l6 6z" />
    <glyph glyph-name="uni0964" unicode="&#x964;" horiz-adv-x="349" 
d="M257 30l153 612l38 -30l-152 -612z" />
    <glyph glyph-name="uni0965" unicode="&#x965;" horiz-adv-x="464" 
d="M187 30l153 612l38 -30l-152 -612zM360 30l153 612l37 -30l-152 -612z" />
    <glyph glyph-name="uni0B01" unicode="&#xb01;" horiz-adv-x="0" 
d="M339 866c-6 -24 -16.1719 -47.332 -30.5049 -69.999s-31.5 -42.834 -51.5 -60.501s-42 -31.667 -66 -42s-49 -15.5 -75 -15.5c-26.667 0 -49.667 5 -69 15s-34.666 23.5 -45.999 40.5s-18.333 36.667 -21 59s-1 45.833 5 70.5
c0.666992 3.33301 1.33398 6.33301 2.00098 9s1.66699 5.66699 3 9h44c-2.66699 -10 -5 -24 -7 -42s-0.833008 -35.667 3.5 -53s13.833 -32.333 28.5 -45s37.334 -19 68.001 -19s56.334 6.33301 77.001 19s37.5 27.667 50.5 45s22.833 35 29.5 53s11.334 32.333 14.001 43
h45zM197.995 859.001c-3.33301 -10.667 -9.00098 -19.5 -17.001 -26.5s-17 -10.5 -27 -10.5c-10.667 0 -18.167 3.5 -22.5 10.5s-4.83301 15.833 -1.5 26.5c2 9.33301 6.83301 17.333 14.5 24s16.834 10 27.501 10c10 0 17.333 -3.33301 22 -10s6 -14.667 4 -24z" />
    <glyph glyph-name="uni0B02" unicode="&#xb02;" horiz-adv-x="208" 
d="M330 533c-4.66699 -18.667 -12.502 -36 -23.502 -52s-24 -30 -39 -42s-31.333 -21.5 -49 -28.5s-35.834 -10.5 -54.501 -10.5c-18 0 -34 3.5 -48 10.5s-25.333 16.5 -34 28.5s-14.5 26 -17.5 42s-2.16699 33.333 2.5 52c4.66699 18 12.334 34.833 23.001 50.5
s23.334 29.5 38.001 41.5s30.834 21.333 48.501 28s35.5 10 53.5 10c18.667 0 35.167 -3.33301 49.5 -10s26 -16 35 -28s15 -25.833 18 -41.5s2.16699 -32.5 -2.5 -50.5zM286.998 533c2.66699 11.333 3.00195 22.333 1.00195 33s-6.16699 20 -12.5 28s-14.333 14.333 -24 19
s-20.5 7 -32.5 7s-23.833 -2.33301 -35.5 -7s-22.5 -11 -32.5 -19s-18.667 -17.333 -26 -28s-12.333 -21.667 -15 -33c-3.33301 -12 -4 -23.5 -2 -34.5s6 -20.5 12 -28.5s13.667 -14.5 23 -19.5s20 -7.5 32 -7.5s24 2.5 36 7.5s23.167 11.5 33.5 19.5
s19.166 17.5 26.499 28.5s12.666 22.5 15.999 34.5z" />
    <glyph glyph-name="uni0B03" unicode="&#xb03;" horiz-adv-x="379" 
d="M376 141c-12.667 -48.667 -36.1689 -86.3369 -70.502 -113.004s-72.833 -40 -115.5 -40c-21.333 0 -40.166 3.5 -56.499 10.5s-29.666 17 -39.999 30s-17.166 28.833 -20.499 47.5s-2 39.334 4 62.001c4.66699 18.667 14.167 38.334 28.5 59.001s30 40.167 47 58.5
s33.833 34.333 50.5 48s29.667 23.5 39 29.5c-7.33301 4.66699 -16.333 13.167 -27 25.5s-20.5 26.666 -29.5 42.999s-15.833 34 -20.5 53s-4.66699 38.167 0 57.5c5.33301 20.667 14.333 40.167 27 58.5s27.667 34.333 45 48s36.166 24.5 56.499 32.5s41.166 12 62.499 12
c24 0 44.5 -3.83301 61.5 -11.5s30.167 -18.167 39.5 -31.5s15 -29.166 17 -47.499s0.333008 -37.833 -5 -58.5c-5.33301 -20 -14.666 -39.833 -27.999 -59.5s-27.833 -37.667 -43.5 -54s-31 -30.666 -46 -42.999s-26.833 -21.5 -35.5 -27.5
c6 -5.33301 13.333 -14.666 22 -27.999s16.5 -28.833 23.5 -46.5s12.167 -36.5 15.5 -56.5s3 -39.333 -1 -58zM420.998 508.997c8 32 5.83203 58.333 -6.50098 79s-34.833 31 -67.5 31c-14.667 0 -29.5 -2.83301 -44.5 -8.5s-28.667 -13.167 -41 -22.5
s-23.166 -20.666 -32.499 -33.999s-16 -27.333 -20 -42c-4.66699 -19.333 -4.16699 -37.833 1.5 -55.5s13.334 -33.5 23.001 -47.5s19.167 -25.5 28.5 -34.5s15.666 -14.5 18.999 -16.5c4 2 12.5 7.16699 25.5 15.5s27.167 19.166 42.5 32.499s29.833 28.833 43.5 46.5
s23.167 36.5 28.5 56.5zM327.997 138.997c5.33301 21.333 6.00195 41.498 2.00195 60.498s-10 36 -18 51s-16.333 27.667 -25 38s-14.667 17.166 -18 20.499c-5.33301 -2 -15 -8.66699 -29 -20s-28.833 -25.166 -44.5 -41.499s-30.667 -34.333 -45 -54
s-23.833 -39.167 -28.5 -58.5c-3.33301 -13.333 -4.33301 -26.166 -3 -38.499s5.16602 -23.166 11.499 -32.499s15.333 -16.833 27 -22.5s26.167 -8.5 43.5 -8.5c28.667 0 54.667 9 78 27s39.666 44.333 48.999 79z" />
    <glyph glyph-name="uni0B05" unicode="&#xb05;" horiz-adv-x="629" 
d="M546 0l28.0059 113.005c-14.667 -14 -31.834 -28 -51.501 -42s-41.167 -26.5 -64.5 -37.5s-48.333 -20 -75 -27s-54.334 -10.5 -83.001 -10.5c-29.333 0 -57.166 4.16699 -83.499 12.5s-48.833 20.333 -67.5 36s-32.167 35.167 -40.5 58.5s-8.83301 50 -1.5 80
c6.66699 28 18.334 52.167 35.001 72.5s36.167 38 58.5 53s47 28.167 74 39.5s54.5 22 82.5 32c9.33301 3.33301 22.833 9.16602 40.5 17.499s35.667 18.666 54 30.999s35.166 26.5 50.499 42.5s25.333 33.333 30 52c7.33301 28 6.16602 49.333 -3.50098 64
s-25.167 22 -46.5 22c-13.333 0 -24.666 -1.83301 -33.999 -5.5s-16.833 -7.83398 -22.5 -12.501s-9.83398 -9.5 -12.501 -14.5s-4.33398 -8.83301 -5.00098 -11.5l-20 -82h-44l20 80c0.666992 3.33301 0.666992 7.66602 0 12.999s-3 10.5 -7 15.5s-10.167 9.33301 -18.5 13
s-19.5 5.5 -33.5 5.5c-23.333 0 -43 -7.83301 -59 -23.5s-26.667 -33.5 -32 -53.5c-4 -16 -4.33301 -28.667 -1 -38s8.16602 -16.5 14.499 -21.5s13.333 -8.33301 21 -10s14.167 -2.5 19.5 -2.5l-9 -39c-16 0.666992 -30.5 3.5 -43.5 8.5s-23.667 12.333 -32 22
s-13.833 21.167 -16.5 34.5s-2 28.666 2 45.999c4 16.667 10.833 32 20.5 46s21.167 26.167 34.5 36.5s27.833 18.5 43.5 24.5s31.834 9 48.501 9c17.333 0 32.166 -2.33301 44.499 -7s25.166 -13.667 38.499 -27c19.333 14 36.666 23.167 51.999 27.5s32.333 6.5 51 6.5
c16.667 0 30.667 -3.5 42 -10.5s20.166 -16.167 26.499 -27.5s9.83301 -24.5 10.5 -39.5s-1 -30.833 -5 -47.5c-8.66699 -36 -24.167 -65 -46.5 -87s-47.833 -40.667 -76.5 -56s-59 -28.5 -91 -39.5s-62.333 -23.5 -91 -37.5s-53.834 -30.833 -75.501 -50.5
s-36.5 -45.5 -44.5 -77.5c-6 -24 -4 -44.5 6 -61.5s24 -31 42 -42s38 -19 60 -24s42.333 -7.5 61 -7.5c26.667 0 55.334 5.66699 86.001 17s59.5 25.5 86.5 42.5s50.333 35.667 70 56s31.834 39.833 36.501 58.5l107 427h46l-160 -642h-46z" />
    <glyph glyph-name="uni0B06" unicode="&#xb06;" horiz-adv-x="777" 
d="M546 0l28.0059 113.005c-14.667 -14 -31.834 -28 -51.501 -42s-41.167 -26.5 -64.5 -37.5s-48.333 -20 -75 -27s-54.334 -10.5 -83.001 -10.5c-29.333 0 -57.166 4.16699 -83.499 12.5s-48.833 20.333 -67.5 36s-32.167 35.167 -40.5 58.5s-8.83301 50 -1.5 80
c6.66699 28 18.334 52.167 35.001 72.5s36.167 38 58.5 53s47 28.167 74 39.5s54.5 22 82.5 32c9.33301 3.33301 22.833 9.16602 40.5 17.499s35.667 18.666 54 30.999s35.166 26.5 50.499 42.5s25.333 33.333 30 52c7.33301 28 6.16602 49.333 -3.50098 64
s-25.167 22 -46.5 22c-13.333 0 -24.666 -1.83301 -33.999 -5.5s-16.833 -7.83398 -22.5 -12.501s-9.83398 -9.5 -12.501 -14.5s-4.33398 -8.83301 -5.00098 -11.5l-20 -82h-44l20 80c0.666992 3.33301 0.666992 7.66602 0 12.999s-3 10.5 -7 15.5s-10.167 9.33301 -18.5 13
s-19.5 5.5 -33.5 5.5c-23.333 0 -43 -7.83301 -59 -23.5s-26.667 -33.5 -32 -53.5c-4 -16 -4.33301 -28.667 -1 -38s8.16602 -16.5 14.499 -21.5s13.333 -8.33301 21 -10s14.167 -2.5 19.5 -2.5l-9 -39c-16 0.666992 -30.5 3.5 -43.5 8.5s-23.667 12.333 -32 22
s-13.833 21.167 -16.5 34.5s-2 28.666 2 45.999c4 16.667 10.833 32 20.5 46s21.167 26.167 34.5 36.5s27.833 18.5 43.5 24.5s31.834 9 48.501 9c17.333 0 32.166 -2.33301 44.499 -7s25.166 -13.667 38.499 -27c19.333 14 36.666 23.167 51.999 27.5s32.333 6.5 51 6.5
c16.667 0 30.667 -3.5 42 -10.5s20.166 -16.167 26.499 -27.5s9.83301 -24.5 10.5 -39.5s-1 -30.833 -5 -47.5c-8.66699 -36 -24.167 -65 -46.5 -87s-47.833 -40.667 -76.5 -56s-59 -28.5 -91 -39.5s-62.333 -23.5 -91 -37.5s-53.834 -30.833 -75.501 -50.5
s-36.5 -45.5 -44.5 -77.5c-6 -24 -4 -44.5 6 -61.5s24 -31 42 -42s38 -19 60 -24s42.333 -7.5 61 -7.5c26.667 0 55.334 5.66699 86.001 17s59.5 25.5 86.5 42.5s50.333 35.667 70 56s31.834 39.833 36.501 58.5l107 427h46l-160 -642h-46zM695.006 0.00488281l160 642h45
l-160 -642h-45z" />
    <glyph glyph-name="uni0B07" unicode="&#xb07;" horiz-adv-x="724" 
d="M629 0l-52.001 134.001c5.33301 5.33301 12.833 13.833 22.5 25.5s20 26 31 43s21.833 36.5 32.5 58.5s19 45.667 25 71c10 41.333 11.667 78.833 5 112.5s-20 62.5 -40 86.5s-45.5 42.5 -76.5 55.5s-65.833 19.5 -104.5 19.5c-39.333 0 -75.5 -6.33301 -108.5 -19
s-62.167 -29.5 -87.5 -50.5s-46.666 -45 -63.999 -72s-29.666 -55.167 -36.999 -84.5c-5.33301 -21.333 -7.16602 -39.833 -5.49902 -55.5s5 -29.334 10 -41.001s10.667 -21.334 17 -29.001s11.166 -14.167 14.499 -19.5c2.66699 4 7 9.83301 13 17.5
s13.333 15.334 22 23.001s18.334 14.167 29.001 19.5s22.334 8 35.001 8c10 0 18.833 -2.16699 26.5 -6.5s14.334 -9.5 20.001 -15.5s10 -12 13 -18s4.83301 -11 5.5 -15c2.66699 4 6.33398 9 11.001 15s10.667 12 18 18s16 11.167 26 15.5s21.667 6.5 35 6.5
c17.333 0 31.333 -3.83301 42 -11.5s18.5 -18.167 23.5 -31.5s7 -29.5 6 -48.5s-4.16699 -39.5 -9.5 -61.5c-5.33301 -20 -12.166 -39.333 -20.499 -58s-18.333 -35.167 -30 -49.5s-25.334 -25.666 -41.001 -33.999s-32.834 -12.5 -51.501 -12.5
c-9.33301 0 -17.333 2.16699 -24 6.5s-12.334 9.5 -17.001 15.5s-8.33398 12.167 -11.001 18.5s-4.66699 11.5 -6 15.5c-3.33301 -4 -8 -9.16699 -14 -15.5s-12.833 -12.5 -20.5 -18.5s-16.334 -11.167 -26.001 -15.5s-19.834 -6.5 -30.501 -6.5
c-12 0 -23.167 3.5 -33.5 10.5s-18.666 16.833 -24.999 29.5s-10.333 28.167 -12 46.5s0.5 39.166 6.5 62.499c3.33301 13.333 6.5 24.333 9.5 33s4.83301 14.667 5.5 18c-2 2 -7.5 7.16699 -16.5 15.5s-17.5 20.333 -25.5 36s-13.833 34.667 -17.5 57
s-1.83398 48.5 5.49902 78.5c10.667 44 29.334 82.667 56.001 116s56.5 61.166 89.5 83.499s67.167 39 102.5 50s67.666 16.5 96.999 16.5c38 0 75.333 -6.33301 112 -19s68 -32 94 -58s44.167 -59.167 54.5 -99.5s8.5 -88.5 -5.5 -144.5
c-7.33301 -28 -16 -52.833 -26 -74.5s-20 -40.167 -30 -55.5s-19.333 -27.666 -28 -36.999s-14.667 -16 -18 -20l57 -143zM491.999 153.001c3.33301 14.667 5.16699 28.8311 5.5 42.498s-1 25.834 -4 36.501s-7.66699 19.167 -14 25.5s-14.166 9.5 -23.499 9.5
c-12 0 -23 -4.66699 -33 -14s-18.667 -20.5 -26 -33.5s-13.666 -26.5 -18.999 -40.5s-9 -25.333 -11 -34c-3.33301 -13.333 -5.5 -26.833 -6.5 -40.5s-0.5 -26.167 1.5 -37.5s5.83301 -20.666 11.5 -27.999s13.167 -11 22.5 -11c10 0 20 3.5 30 10.5s19.167 16 27.5 27
s15.666 23.5 21.999 37.5s11.166 28 14.499 42zM332 149.998c2 9.33301 3.33008 20.668 3.99707 34.001s0 26.166 -2 38.499s-5.66699 22.833 -11 31.5s-12.666 13 -21.999 13c-12 0 -23.167 -4.66699 -33.5 -14s-19.5 -20.5 -27.5 -33.5s-14.667 -26.5 -20 -40.5
s-9 -25.333 -11 -34c-3.33301 -13.333 -5.66602 -26.666 -6.99902 -39.999s-0.833008 -25.333 1.5 -36s6.83301 -19.334 13.5 -26.001s16 -10 28 -10c12.667 0 23.5 3.33301 32.5 10s16.833 15.334 23.5 26.001s12.334 22.667 17.001 36s9 26.666 13 39.999z" />
    <glyph glyph-name="uni0B08" unicode="&#xb08;" horiz-adv-x="685" 
d="M731 333c-5.33301 -22 -13.8418 -43.5029 -25.5088 -64.5029s-24.5 -40 -38.5 -57s-28 -31.5 -42 -43.5s-26 -20 -36 -24l48 -145h-53l-52 142l32 26c14.667 12 29.834 26.5 45.501 43.5s30.5 36.167 44.5 57.5s24 44 30 68c12 48 14.333 89.333 7 124
s-20.5 63.167 -39.5 85.5s-41.667 38.833 -68 49.5s-52.166 16 -77.499 16c-19.333 0 -36.166 -3.33301 -50.499 -10s-26.666 -15.334 -36.999 -26.001s-18.666 -22.334 -24.999 -35.001s-10.833 -25 -13.5 -37c-4 -16.667 -4.33301 -30.167 -1 -40.5
s12.666 -18.166 27.999 -23.499l74 -26l-23 -34l-134 47l-22.5 5.5c-9.66699 2.33301 -20.5 3.5 -32.5 3.5c-10 0 -20.167 -1.16699 -30.5 -3.5s-20.166 -6.66602 -29.499 -12.999s-17.833 -14.833 -25.5 -25.5s-13.5 -24.334 -17.5 -41.001
c-2.66699 -11.333 -3.33398 -21.666 -2.00098 -30.999s3.83301 -17.666 7.5 -24.999s7.83398 -13.166 12.501 -17.499s8.66699 -6.83301 12 -7.5c4 5.33301 12 12.333 24 21s28.667 13 50 13c18 0 31.667 -5.83301 41 -17.5s15 -23.834 17 -36.501
c4.66699 6.66699 9.66699 13.167 15 19.5s11.166 11.833 17.499 16.5s14 8.5 23 11.5s19.833 4.5 32.5 4.5c17.333 0 31.333 -4.33301 42 -13s18.334 -20 23.001 -34s6.66699 -30.167 6 -48.5s-3.33398 -37.5 -8.00098 -57.5c-4.66699 -18 -10.667 -36 -18 -54
s-16.666 -34.5 -27.999 -49.5s-24.666 -27.167 -39.999 -36.5s-33 -14 -53 -14c-10 0 -18.667 2 -26 6s-13.166 8.83301 -17.499 14.5s-7.83301 11.5 -10.5 17.5s-4.33398 11.333 -5.00098 16l-15.5 -17.5c-5.66699 -6.33301 -12 -12.166 -19 -17.499
s-15 -9.83301 -24 -13.5s-18.833 -5.5 -29.5 -5.5c-17.333 0 -31 4 -41 12s-17 18.833 -21 32.5s-5.5 29.5 -4.5 47.5s4.16699 37 9.5 57c4.66699 18 10.167 35.5 16.5 52.5s10.5 27.833 12.5 32.5c-2.66699 2.66699 -7 7.5 -13 14.5s-11.667 16 -17 27
s-9.16602 24.167 -11.499 39.5s-1.16602 32.333 3.50098 51c6 24 14.667 43.5 26 58.5s24 26.5 38 34.5s28.5 13.5 43.5 16.5s29.167 4.5 42.5 4.5s24.666 -0.666992 33.999 -2s17.333 -2.66602 24 -3.99902c-1.33301 4 -2.66602 8.66699 -3.99902 14
s-0.666016 12.666 2.00098 21.999c3.33301 14 9.33301 29.5 18 46.5s20.167 32.833 34.5 47.5s31.833 27 52.5 37s45 15 73 15c39.333 0 75.166 -7.66699 107.499 -23s58.833 -37 79.5 -65s34.334 -61.667 41.001 -101s4 -82.666 -8 -129.999zM426.991 144.997
c2 8.66699 3.99902 19.334 5.99902 32.001s2.66699 25 2 37s-3.16699 22.167 -7.5 30.5s-11.5 12.5 -21.5 12.5c-12 0 -22.333 -4.16699 -31 -12.5s-16 -18.333 -22 -30s-11 -24 -15 -37s-7 -23.833 -9 -32.5c-3.33301 -13.333 -5.83301 -26.333 -7.5 -39
s-1.66699 -24 0 -34s5.16699 -18 10.5 -24s13 -9 23 -9s18.833 3.33301 26.5 10s14.334 15.167 20.001 25.5s10.5 21.666 14.5 33.999s7.66699 24.5 11 36.5zM281.99 144.997c2.66699 12 4.66992 24.5 6.00293 37.5s1.16602 25 -0.500977 36s-5.33398 20.167 -11.001 27.5
s-13.5 11 -23.5 11c-11.333 0 -21 -4.16699 -29 -12.5s-15 -18.333 -21 -30s-10.833 -24 -14.5 -37s-6.5 -23.833 -8.5 -32.5c-3.33301 -13.333 -5.83301 -26.333 -7.5 -39s-2 -24 -1 -34s3.83301 -18 8.5 -24s11.667 -9 21 -9c10 0 19.167 2.83301 27.5 8.5
s15.833 13.5 22.5 23.5s12.667 21.333 18 34s9.66602 26 12.999 40z" />
    <glyph glyph-name="uni0B09" unicode="&#xb09;" horiz-adv-x="745" 
d="M652 1l-55.0029 139.997c3.33301 4 9.83301 10.833 19.5 20.5s20.167 22.167 31.5 37.5s22.5 33.5 33.5 54.5s19.833 44.833 26.5 71.5c10.667 42.667 12.334 81.334 5.00098 116.001s-21 64.334 -41 89.001s-45.5 43.5 -76.5 56.5s-65.167 19.5 -102.5 19.5
c-35.333 0 -70.333 -6 -105 -18s-66.5 -28.167 -95.5 -48.5s-53.833 -43.833 -74.5 -70.5s-34.667 -54.667 -42 -84c-4 -17.333 -5.33301 -31.5 -4 -42.5s3.66602 -19.833 6.99902 -26.5s7.33301 -11.667 12 -15s8.33398 -5.66602 11.001 -6.99902l98 80l25 -31l-74 -60
c-17.333 -15.333 -32.5 -29.666 -45.5 -42.999s-22.167 -30.666 -27.5 -51.999c-5.33301 -20 -6.16602 -39.167 -2.49902 -57.5s10.5 -34.166 20.5 -47.499s23.167 -24 39.5 -32s34.833 -12 55.5 -12c16.667 0 34.667 2.33301 54 7s38 12.5 56 23.5s34.333 25.5 49 43.5
s25.334 40.667 32.001 68c2 8 1.83301 15.5 -0.5 22.5s-5.5 13.333 -9.5 19s-8.5 10.167 -13.5 13.5s-8.83301 5.33301 -11.5 6l-91 -70l-26 32l190 151l28 -29l-57 -46c3.33301 -2 7.83301 -5.66699 13.5 -11s10.667 -12.166 15 -20.499s7.16602 -18.833 8.49902 -31.5
s0 -27.334 -4 -44.001c-7.33301 -28.667 -19.666 -54.334 -36.999 -77.001s-37.166 -41.667 -59.499 -57s-46.333 -27.166 -72 -35.499s-50.167 -12.5 -73.5 -12.5c-30 0 -56 5.33301 -78 16s-39.5 24.667 -52.5 42s-21.333 37.166 -25 59.499s-2.5 45.166 3.5 68.499
c3.33301 14 8.5 28.5 15.5 43.5s12.5 25.5 16.5 31.5c-2 2 -6 5.16699 -12 9.5s-11.333 11.166 -16 20.499s-7.83398 22 -9.50098 38s0.833008 37 7.5 63c10.667 42.667 29.834 80.667 57.501 114s59 61.166 94 83.499s71.5 39.333 109.5 51s73 17.5 105 17.5
c38 0 75.333 -6.16699 112 -18.5s68 -31.666 94 -57.999s44.167 -60.333 54.5 -102s8.16602 -91.834 -6.50098 -150.501c-4 -17.333 -9 -33.5 -15 -48.5s-13 -29.667 -21 -44s-17.333 -28.666 -28 -42.999s-23 -29.5 -37 -45.5l57 -138h-56z" />
    <glyph glyph-name="uni0B0A" unicode="&#xb0a;" horiz-adv-x="747" 
d="M763 216c-13.333 -44 -44.666 -77.334 -93.999 -100.001l32 -115h-56l-41 143c8 1.33301 17.333 3.5 28 6.5s21.334 7.5 32.001 13.5s20.334 13.5 29.001 22.5s14.667 20.5 18 34.5s3.66602 25.833 0.999023 35.5s-7 17.667 -13 24s-12.833 11.333 -20.5 15
s-14.5 6.5 -20.5 8.5l21 41.5c6.66699 13 11.667 26.167 15 39.5c8 32 8.5 61.167 1.5 87.5s-20 49 -39 68s-43.333 33.833 -73 44.5s-62.834 16 -99.501 16c-34 0 -67.333 -5.5 -100 -16.5s-62.834 -26.333 -90.501 -46s-51.5 -43 -71.5 -70s-34 -56.5 -42 -88.5
c-4 -16 -5.33301 -29.167 -4 -39.5s3.66602 -18.833 6.99902 -25.5s6.83301 -11.667 10.5 -15s6.5 -5.33301 8.5 -6l98 80l28 -36l-77 -61c-18 -14.667 -33 -29 -45 -43s-20.667 -31 -26 -51c-4.66699 -19.333 -5.16699 -37.5 -1.5 -54.5s10.5 -31.833 20.5 -44.5
s23 -22.667 39 -30s34 -11 54 -11c16.667 0 34.334 2.5 53.001 7.5s36.167 12.833 52.5 23.5s31 23.834 44 39.501s22.167 34.167 27.5 55.5c3.33301 15.333 3.83301 29.5 1.5 42.5s-8.16602 26.167 -17.499 39.5l-99 -79l-22 37l189 149l25 -33l-49 -40
c3.33301 -3.33301 7.16602 -8.66602 11.499 -15.999s8 -16 11 -26s5 -21 6 -33s0.166992 -24.333 -2.5 -37c-7.33301 -28.667 -19.666 -54.334 -36.999 -77.001s-37.166 -41.667 -59.499 -57s-46.333 -27.166 -72 -35.499s-50.167 -12.5 -73.5 -12.5c-30 0 -56 5.5 -78 16.5
s-39.833 25.333 -53.5 43s-22.5 38 -26.5 61s-3 46.5 3 70.5c5.33301 21.333 11.333 37.166 18 47.499l21 31.5c-3.33301 1.33301 -8 3.5 -14 6.5s-11.5 8.66699 -16.5 17s-8.33301 20.333 -10 36s0.833008 36.5 7.5 62.5c10.667 42 29.167 79.5 55.5 112.5
s56.666 60.833 90.999 83.5s70.666 40 108.999 52s74.5 18 108.5 18c44.667 0 84.5 -6.66699 119.5 -20s63.5 -31.833 85.5 -55.5s36.833 -52.167 44.5 -85.5s6.5 -70 -3.5 -110c-2 -7.33301 -4.66699 -14 -8 -20s-7 -14.333 -11 -25c21.333 -12.667 35 -29 41 -49
s5.66699 -42.667 -1 -68z" />
    <glyph glyph-name="uni0B0B" unicode="&#xb0b;" horiz-adv-x="685" 
d="M688 161c-4 -16 -10.832 -30.6582 -20.499 -43.9912s-20.334 -25.333 -32.001 -36s-23.167 -19.834 -34.5 -27.501s-20.666 -13.5 -27.999 -17.5l26 -144h-57l-32 178c7.33301 0 17.333 2 30 6s25.5 9.66699 38.5 17s25 16.666 36 27.999s18.167 24.333 21.5 39
c4 16.667 4.33301 30.334 1 41.001s-8.66602 19.167 -15.999 25.5s-15.666 11.166 -24.999 14.499s-18 6.66602 -26 9.99902l22.5 20c8.33301 7.33301 16.333 16.166 24 26.499s15 22.666 22 36.999s13.167 31.5 18.5 51.5c8 32 8.33301 61.333 1 88s-20 49.5 -38 68.5
s-40.333 33.833 -67 44.5s-55.334 16 -86.001 16c-32.667 0 -64.5 -6.33301 -95.5 -19s-59 -29.334 -84 -50.001s-46.5 -44.167 -64.5 -70.5s-30.333 -52.833 -37 -79.5c-5.33301 -20 -6.16602 -36.667 -2.49902 -50s8.66699 -24.5 15 -33.5s13.166 -16 20.499 -21
s12.666 -8.83301 15.999 -11.5c21.333 15.333 40.833 26.166 58.5 32.499s37.834 9.5 60.501 9.5c22 0 41.5 -4 58.5 -12s30.667 -19 41 -33s17.166 -30.5 20.499 -49.5s2.33301 -39.167 -3 -60.5c-5.33301 -22 -14.5 -42.5 -27.5 -61.5s-28.167 -35.5 -45.5 -49.5
s-36.5 -25.167 -57.5 -33.5s-42.5 -12.5 -64.5 -12.5c-21.333 0 -40.333 4.16699 -57 12.5s-30.334 19.666 -41.001 33.999s-17.667 31 -21 50s-2.33301 39.167 3 60.5c3.33301 11.333 8.33301 23.666 15 36.999s12.667 24.333 18 33c-4 2.66699 -10.5 7.66699 -19.5 15
s-17.667 17.5 -26 30.5s-14.666 28.5 -18.999 46.5s-3.5 38.667 2.5 62c10 38.667 26.833 74.5 50.5 107.5s51.5 61.5 83.5 85.5s67.167 42.833 105.5 56.5s76.833 20.5 115.5 20.5c37.333 0 71.666 -6.16699 102.999 -18.5s57.333 -30 78 -53s35 -50.667 43 -83
s7 -68.5 -3 -108.5c-15.333 -61.333 -35.333 -101 -60 -119c4.66699 -4 10.167 -8.33301 16.5 -13s12 -11 17 -19s8.5 -17.833 10.5 -29.5s1 -26.5 -3 -44.5zM421.001 153.009c3.33301 14 4.5 27.499 3.5 40.499s-4.5 24.5 -10.5 34.5s-14.833 18 -26.5 24
s-26.834 9 -45.501 9c-14 0 -28.167 -3 -42.5 -9s-27.5 -13.833 -39.5 -23.5s-22.5 -20.834 -31.5 -33.501s-15.167 -26 -18.5 -40c-4 -16 -4.66699 -30.667 -2 -44s7.83398 -24.666 15.501 -33.999s17.5 -16.5 29.5 -21.5s25.333 -7.5 40 -7.5c14 0 28 3 42 9
s26.667 13.833 38 23.5s21.333 20.834 30 33.501s14.667 25.667 18 39z" />
    <glyph glyph-name="uni0B0C" unicode="&#xb0c;" horiz-adv-x="513" 
d="M515 139c-6.66699 -26.667 -18.3379 -49.502 -35.0049 -68.502s-36 -34.5 -58 -46.5s-45.333 -20.833 -70 -26.5s-48 -8.5 -70 -8.5c-31.333 0 -60.666 4.66699 -87.999 14s-50.5 22.5 -69.5 39.5s-32.5 37.833 -40.5 62.5s-8.33301 52.334 -1 83.001
c9.33301 36 25.166 65.667 47.499 89s47.833 43.166 76.5 59.499s58.834 30.333 90.501 42s61.334 24 89.001 37s52 28.333 73 46s34.833 40.167 41.5 67.5c3.33301 14 3.33301 26 0 36s-9 18.333 -17 25s-17.5 11.5 -28.5 14.5s-21.833 4.5 -32.5 4.5
c-12 0 -24.667 -1.5 -38 -4.5s-26 -7.83301 -38 -14.5s-22.5 -15.167 -31.5 -25.5s-15.167 -22.5 -18.5 -36.5c-2 -9.33301 -3.16699 -18.333 -3.5 -27s1.83398 -16.667 6.50098 -24l-41 -22c-6 12.667 -9.66699 24 -11 34s0 22.333 4 37c4.66699 19.333 13 37 25 53
s26.333 29.5 43 40.5s34.667 19.5 54 25.5s38.666 9 57.999 9c20 0 38.5 -2.66699 55.5 -8s31.167 -13.333 42.5 -24s19 -24.167 23 -40.5s3.33301 -35.833 -2 -58.5c-7.33301 -30.667 -22 -56.167 -44 -76.5s-47.167 -38.166 -75.5 -53.499
s-58.666 -29.166 -90.999 -41.499s-62.666 -25.666 -90.999 -39.999s-53.166 -30.833 -74.499 -49.5s-35.333 -42 -42 -70c-7.33301 -29.333 -6.33301 -53.833 3 -73.5s22.333 -35.5 39 -47.5s35 -20.5 55 -25.5s37 -7.5 51 -7.5c6.66699 0 11 0.333008 13 1
c-15.333 7.33301 -25.5 19.666 -30.5 36.999s-5.16699 35.333 -0.5 54c3.33301 14 9.5 28.167 18.5 42.5s20.167 27.333 33.5 39s29 21.167 47 28.5s38 11 60 11c16.667 0 31.5 -2.83301 44.5 -8.5s23.833 -13.5 32.5 -23.5s14.5 -21.833 17.5 -35.5s2.5 -28.5 -1.5 -44.5z
M463.996 132.998c4.66699 18.667 2.50098 34.835 -6.49902 48.502s-25.167 20.5 -48.5 20.5c-19.333 0 -38.166 -6.83301 -56.499 -20.5s-30.166 -30.834 -35.499 -51.501c-2.66699 -10 -2.83398 -19.5 -0.500977 -28.5s6.33301 -17 12 -24s12.5 -12.5 20.5 -16.5
s16.667 -6 26 -6c19.333 0 37.666 7.66699 54.999 23s28.666 33.666 33.999 54.999z" />
    <glyph glyph-name="uni0B0F" unicode="&#xb0f;" horiz-adv-x="656" 
d="M549 0l-436.001 453.999h62l406 -418l131 522c-11.333 -4 -24.166 -9 -38.499 -15s-29.166 -12.833 -44.499 -20.5s-30.833 -16 -46.5 -25s-30.5 -18.5 -44.5 -28.5c12 -8 19.833 -16.333 23.5 -25s3.83398 -19 0.500977 -31c-4 -16.667 -13.333 -31 -28 -43
s-30.334 -18 -47.001 -18c-19.333 0 -34.833 5.5 -46.5 16.5s-14.834 26.833 -9.50098 47.5c4 14.667 10.667 28.167 20 40.5s19.5 23.333 30.5 33s22 17.834 33 24.501s20.167 12 27.5 16c20 11.333 41.667 22.833 65 34.5l68 32.5l60.5 27c18.333 8 32.833 14 43.5 18
l-160 -642h-70z" />
    <glyph glyph-name="uni0B10" unicode="&#xb10;" horiz-adv-x="900" 
d="M1047 739c-4 -14.667 -10 -28.3291 -18 -40.9961s-16.167 -23.667 -24.5 -33s-15.833 -16.833 -22.5 -22.5s-10 -8.83398 -10 -9.50098l-157 -633h-45l82 332c-11.333 -8.66699 -23 -14.167 -35 -16.5s-28 -3.5 -48 -3.5c-19.333 0 -34.666 3.5 -45.999 10.5
s-19.333 15.167 -24 24.5l-86 -347h-71l-430 453h62l401 -419l132 528c-10 -2 -23 -6.66699 -39 -14s-32.5 -15.833 -49.5 -25.5s-33.333 -19.5 -49 -29.5s-27.834 -18.667 -36.501 -26c12 -8 19.833 -16.5 23.5 -25.5s3.83398 -19.167 0.500977 -30.5
c-4 -16 -13.167 -30.333 -27.5 -43s-30.166 -19 -47.499 -19c-19.333 0 -34.333 5.83301 -45 17.5s-13.667 27.167 -9 46.5s15 38 31 56s34.833 34.833 56.5 50.5s45.167 30 70.5 43s49.833 24.667 73.5 35s45.5 18.833 65.5 25.5s35.667 11.667 47 15l-54 -214
c1.33301 -7.33301 2.83301 -15 4.5 -23s4.5 -15.5 8.5 -22.5s10 -12.833 18 -17.5s19 -7 33 -7c17.333 0 33 2.5 47 7.5s26.667 14.833 38 29.5l58 233c4.66699 11.333 10.5 21.333 17.5 30s14.167 17 21.5 25s14 16.167 20 24.5s10.333 17.5 13 27.5
c2.66699 10.667 2 20.167 -2 28.5s-10 15.166 -18 20.499s-17.333 9.33301 -28 12s-21.667 4 -33 4c-14 0 -27.167 -1.33301 -39.5 -4s-25.166 -5.66699 -38.499 -9s-27.833 -6.33301 -43.5 -9s-33.5 -4 -53.5 -4c-24.667 0 -44 2.33301 -58 7s-25 9.66699 -33 15l32 43
c2.66699 -2 6 -4 10 -6s9.66699 -3.83301 17 -5.5s16.5 -3.16699 27.5 -4.5s24.5 -2 40.5 -2c18 0 34.5 1.16699 49.5 3.5s29.167 5 42.5 8s26.666 5.66699 39.999 8s27.333 3.5 42 3.5c15.333 0 29.666 -2 42.999 -6s24.666 -10.333 33.999 -19
s15.833 -19.334 19.5 -32.001s3.5 -27.334 -0.5 -44.001z" />
    <glyph glyph-name="uni0B13" unicode="&#xb13;" horiz-adv-x="590" 
d="M598 180c-8 -33.333 -21.833 -61.6641 -41.5 -84.9971s-42 -42.5 -67 -57.5s-51.167 -26 -78.5 -33s-53.333 -10.5 -78 -10.5c-40.667 0 -75 5.16699 -103 15.5s-50.833 24.333 -68.5 42s-30.834 38.5 -39.501 62.5s-13.834 49.5 -15.501 76.5s-0.666992 54.833 3 83.5
s9.16699 57 16.5 85c9.33301 38 22.333 73.167 39 105.5s33.667 60.666 51 84.999s33.333 44.5 48 60.5s25 26.667 31 32h53l-41.5 -43.5c-16.333 -17.667 -33 -38.5 -50 -62.5s-33 -50.833 -48 -80.5s-26.833 -61.834 -35.5 -96.501c-9.33301 -36 -15 -72.833 -17 -110.5
s2.33301 -72.167 13 -103.5s29.5 -57 56.5 -77s65.5 -30 115.5 -30c20.667 0 41.834 2.5 63.501 7.5s42.167 13.167 61.5 24.5s36.333 26.166 51 44.499s25.334 40.5 32.001 66.5c4.66699 19.333 5.83398 37.5 3.50098 54.5s-7.83301 31.833 -16.5 44.5
s-19.834 22.667 -33.501 30s-29.167 11 -46.5 11c-10 0 -20.667 -2 -32 -6s-22.166 -9 -32.499 -15s-20.333 -12.333 -30 -19s-17.834 -12.667 -24.501 -18l-23 38c5.33301 4.66699 12.666 10.667 21.999 18s19.833 14.5 31.5 21.5s24.334 13 38.001 18
s28.167 8.16699 43.5 9.5c20 0.666992 39.167 4.5 57.5 11.5s35 16.667 50 29s27.833 27 38.5 44s18.667 35.833 24 56.5c6.66699 26 5.16699 48.167 -4.5 66.5s-26.834 27.5 -51.501 27.5c-10 0 -20.5 -1.66699 -31.5 -5s-21.5 -8.16602 -31.5 -14.499
s-18.833 -13.833 -26.5 -22.5s-12.834 -18 -15.501 -28c-3.33301 -14.667 -4.16602 -25.834 -2.49902 -33.501s3.5 -14.167 5.5 -19.5l-45 -25c-6.66699 10 -10.5 20.667 -11.5 32s0.166992 23.333 3.5 36c4.66699 18 12.334 34.667 23.001 50s23.334 28.666 38.001 39.999
s30.834 20.166 48.501 26.499s35.5 9.5 53.5 9.5c20.667 0 38.334 -4.16699 53.001 -12.5s26.167 -19.333 34.5 -33s13.333 -29.5 15 -47.5s0.166992 -37 -4.5 -57c-6 -23.333 -14.667 -43.833 -26 -61.5s-23.333 -32.667 -36 -45s-24.834 -22.166 -36.501 -29.499
s-20.5 -12.333 -26.5 -15c4 -3.33301 10.667 -8.16602 20 -14.499s17.666 -15.833 24.999 -28.5s12.666 -29.167 15.999 -49.5s1 -45.5 -7 -75.5z" />
    <glyph glyph-name="uni0B14" unicode="&#xb14;" horiz-adv-x="797" 
d="M944 738c-2.66699 -10.667 -7.00195 -21.4941 -13.002 -32.4941s-12.333 -21.167 -19 -30.5s-13 -17.5 -19 -24.5s-10.667 -11.5 -14 -13.5l-158 -637h-46l33 135c-9.33301 -4 -19.166 -7.83301 -29.499 -11.5s-24.166 -5.5 -41.499 -5.5c-30 0 -50.333 7.66699 -61 23
c-4 -10 -12 -23.333 -24 -40s-28 -33 -48 -49s-44.333 -29.667 -73 -41s-62 -17 -100 -17c-60 0 -106.5 11.167 -139.5 33.5s-56 51 -69 86s-18.333 74 -16 117s8.83301 85.167 19.5 126.5c9.33301 38 22.166 73 38.499 105s33.166 60.167 50.499 84.5s33.333 44.333 48 60
l30 31.5h55c-11.333 -10.667 -25.333 -24.834 -42 -42.501s-33.334 -38.334 -50.001 -62.001s-32.5 -50.334 -47.5 -80.001s-26.833 -61.834 -35.5 -96.501c-9.33301 -37.333 -15.333 -74.666 -18 -111.999s1.33301 -71 12 -101s29.5 -54.333 56.5 -73s65.833 -28 116.5 -28
c20 0 40.667 2.33301 62 7s41.333 12.5 60 23.5s35.167 25.333 49.5 43s24.833 39.834 31.5 66.501c4.66699 18.667 6.16699 36.167 4.5 52.5s-6.33398 30.666 -14.001 42.999s-18 22.166 -31 29.499s-28.167 11 -45.5 11c-10.667 0 -21.667 -1.83301 -33 -5.5
s-22.166 -8.33398 -32.499 -14.001s-20 -11.834 -29 -18.501s-16.833 -13.334 -23.5 -20.001l-26 32c4.66699 5.33301 11.667 11.833 21 19.5s20 15.167 32 22.5s25 13.666 39 18.999s28.333 8 43 8c20 0 39.333 4.33301 58 13s35.5 19.5 50.5 32.5s27.5 27.167 37.5 42.5
s16.667 29.666 20 42.999c3.33301 12.667 4.66602 25.5 3.99902 38.5s-3.33398 24.5 -8.00098 34.5s-11.167 18.167 -19.5 24.5s-18.5 9.5 -30.5 9.5c-10 0 -20.833 -2 -32.5 -6s-22.5 -9.33301 -32.5 -16s-18.667 -14.5 -26 -23.5s-12.333 -18.5 -15 -28.5
c-2.66699 -9.33301 -3.66699 -18.5 -3 -27.5s2.33398 -16.167 5.00098 -21.5l-49 -24c-3.33301 12 -5.16602 22.833 -5.49902 32.5s1.16699 21.167 4.5 34.5c4.66699 18 12.334 34.667 23.001 50s23.5 28.666 38.5 39.999s31.167 20.166 48.5 26.499s34.666 9.5 51.999 9.5
c40 0 68.833 -14 86.5 -42s21.167 -64 10.5 -108c-6 -25.333 -16 -47.666 -30 -66.999s-28 -35.333 -42 -48s-26.5 -22.334 -37.5 -29.001l-16.5 -10c-0.666992 0 1.16602 -1.33301 5.49902 -4s9.5 -6.33398 15.5 -11.001s12 -10.5 18 -17.5s10.333 -15.167 13 -24.5
c3.33301 7.33301 7 13.5 11 18.5s7.66699 10.167 11 15.5l34 -18c-9.33301 -10.667 -17.833 -23.834 -25.5 -39.501s-13.167 -30.167 -16.5 -43.5c-4 -15.333 -2.83301 -28.166 3.5 -38.499s18.5 -15.5 36.5 -15.5s34.333 3.33301 49 10s23.667 11.334 27 14.001l114 457
c2 2.66699 5.66699 6.83398 11 12.501s11.166 12.334 17.499 20.001s12.333 15.834 18 24.501s9.5 17.667 11.5 27c3.33301 14 4 25 2 33s-6.16699 14 -12.5 18s-14.166 6.66699 -23.499 8s-19.666 2 -30.999 2c-13.333 0 -26.5 -1.16699 -39.5 -3.5l-41 -7.5
c-14.333 -2.66699 -29.833 -5.16699 -46.5 -7.5s-35 -3.5 -55 -3.5c-21.333 0 -39.5 2.16699 -54.5 6.5s-27.167 8.5 -36.5 12.5l31 44c7.33301 -4 17.166 -8.16699 29.499 -12.5s28.5 -6.5 48.5 -6.5c18.667 0 36.834 1.33301 54.501 4s34.834 5.83398 51.501 9.50098
s32.667 6.83398 48 9.50098s30 4 44 4c14.667 0 27.834 -2.66699 39.501 -8s21.167 -12.5 28.5 -21.5s12.333 -19.667 15 -32s2.33398 -25.5 -0.999023 -39.5z" />
    <glyph glyph-name="uni0B15" unicode="&#xb15;" horiz-adv-x="667" 
d="M715 344c-1.33301 -7.33301 -3.99707 -15.3291 -7.99707 -23.9961s-7.66699 -17 -11 -25l-14 -29l-33 22c3.33301 7.33301 6.83301 16.666 10.5 27.999s6.83398 21.666 9.50098 30.999c8.66699 34.667 10.167 67.667 4.5 99s-17.5 58.5 -35.5 81.5
s-41.167 41.333 -69.5 55s-60.5 20.5 -96.5 20.5c-34 0 -67 -5.83301 -99 -17.5s-61.333 -27.334 -88 -47.001s-49.334 -42.167 -68.001 -67.5s-31.334 -51.666 -38.001 -78.999c-6.66699 -28 -8.83398 -51.667 -6.50098 -71s5.5 -33 9.5 -41
c4 4.66699 9.5 10.334 16.5 17.001s15.333 12.834 25 18.501s20.334 10.5 32.001 14.5s24.167 6 37.5 6c25.333 0 43.666 -4.66699 54.999 -14s20.333 -21.666 27 -36.999c12.667 15.333 28.167 27.166 46.5 35.499s35.833 12.5 52.5 12.5c26.667 0 46.667 -5 60 -15
s22.333 -21.333 27 -34s6.66699 -24.334 6 -35.001s-1.33398 -17 -2.00098 -19l-57 -230h-46l53 213c1.33301 6.66699 2.33301 14.334 3 23.001s-0.333008 16.667 -3 24s-7.66699 13.666 -15 18.999s-18 8 -32 8c-22 0 -38.5 -5 -49.5 -15s-17.833 -20.333 -20.5 -31
l-60 -241h-45l20 84c-9.33301 -11.333 -22.5 -21 -39.5 -29s-34.167 -12 -51.5 -12c-26.667 0 -46.667 5.5 -60 16.5s-22.333 24.5 -27 40.5s-6 32.833 -4 50.5s4.66699 33.167 8 46.5c2 9.33301 3.66699 16.5 5 21.5s3.66602 10.5 6.99902 16.5
c-1.33301 2.66699 -3.83301 8.66699 -7.5 18s-7.16699 20.5 -10.5 33.5s-5.5 27.667 -6.5 44s0.5 33.166 4.5 50.499c10 38 26.667 73.333 50 106s51 61 83 85s66.667 42.833 104 56.5s75 20.5 113 20.5c40 0 77 -7.33301 111 -22s62 -35.334 84 -62.001
s36.833 -58.834 44.5 -96.501s5.83398 -79.167 -5.49902 -124.5zM331.003 191.004c3.33301 12.667 5.00098 25 5.00098 37s-2 22.5 -6 31.5s-10.167 16.167 -18.5 21.5s-18.833 8 -31.5 8c-11.333 0 -22.333 -2.83301 -33 -8.5s-20.334 -13.167 -29.001 -22.5
s-16.167 -19.833 -22.5 -31.5s-10.833 -23.5 -13.5 -35.5c-3.33301 -12 -4.83301 -24.167 -4.5 -36.5s2.33301 -23.5 6 -33.5s9.16699 -18.167 16.5 -24.5s17 -9.5 29 -9.5c13.333 0 25.5 3 36.5 9s20.833 14 29.5 24s16 21.167 22 33.5s10.667 24.833 14 37.5z" />
    <glyph glyph-name="uni0B16" unicode="&#xb16;" horiz-adv-x="641" 
d="M557 0l121.001 488.001c-6 -6.66699 -14.667 -15.334 -26 -26.001s-24.333 -21 -39 -31s-30.5 -18.667 -47.5 -26s-34.5 -11 -52.5 -11c-16.667 0 -32 2.5 -46 7.5s-25.667 12.167 -35 21.5s-15.666 21.166 -18.999 35.499s-2.66602 30.833 2.00098 49.5
c2 8 5 16.667 9 26s8.16699 18.5 12.5 27.5s8.66602 17.5 12.999 25.5s8.16602 14.333 11.499 19c-6.66699 0 -17.167 -1.66699 -31.5 -5s-30.666 -8.5 -48.999 -15.5s-37.666 -16.333 -57.999 -28s-39.666 -25.667 -57.999 -42s-35 -35.833 -50 -58.5
s-26.167 -48.334 -33.5 -77.001c-5.33301 -22.667 -5.5 -40.667 -0.5 -54s11.833 -23.666 20.5 -30.999s17.5 -12.333 26.5 -15s15.167 -4.66699 18.5 -6c2.66699 2 7.5 5 14.5 9s15.167 7.83301 24.5 11.5s19.5 7 30.5 10s22.5 4.5 34.5 4.5
c21.333 0 40.166 -3.83301 56.499 -11.5s29.666 -18.167 39.999 -31.5s17 -29.333 20 -48s1.83301 -39 -3.5 -61c-6.66699 -26 -16.334 -49.167 -29.001 -69.5s-27.334 -37.5 -44.001 -51.5s-34.834 -24.5 -54.501 -31.5s-39.5 -10.5 -59.5 -10.5
c-23.333 0 -43.666 4.33301 -60.999 13s-31.333 20.334 -42 35.001s-17.667 32 -21 52s-2 41 4 63c3.33301 12.667 9 26.167 17 40.5s17.333 26.833 28 37.5c-5.33301 2 -13.166 5.33301 -23.499 10s-20.166 12.167 -29.499 22.5s-16.333 24.333 -21 42
s-3.33398 40.5 3.99902 68.5c9.33301 38.667 25.5 74.5 48.5 107.5s50.5 61.667 82.5 86s67.333 43.333 106 57s78 20.5 118 20.5c9.33301 0 18.833 -0.833008 28.5 -2.5s19.167 -3.83398 28.5 -6.50098c-14 -15.333 -28.833 -34.5 -44.5 -57.5s-26.834 -47.5 -33.501 -73.5
c-4 -17.333 -1.33301 -32.5 8 -45.5s26 -19.5 50 -19.5c12 0 24.667 3 38 9s26.5 13.667 39.5 23s25.333 19.333 37 30s22 20.667 31 30s16.333 17.333 22 24s8.5 10.334 8.5 11.001l18 71h46l-160 -642h-46zM414.001 157.001c3.33301 14 4.33398 27.167 3.00098 39.5
s-5.16602 23.166 -11.499 32.499s-15.166 16.833 -26.499 22.5s-25.333 8.5 -42 8.5c-14 0 -27.833 -2.83301 -41.5 -8.5s-26.5 -13.167 -38.5 -22.5s-22.333 -20.5 -31 -33.5s-14.667 -26.5 -18 -40.5c-4 -14.667 -5.33301 -28.667 -4 -42s5.16602 -25.166 11.499 -35.499
s15.166 -18.5 26.499 -24.5s25 -9 41 -9c17.333 0 33.166 3 47.499 9s27 14.167 38 24.5s20.333 22.333 28 36s13.5 28.167 17.5 43.5z" />
    <glyph glyph-name="uni0B17" unicode="&#xb17;" horiz-adv-x="662" 
d="M555 0l113.006 454.998c0.666992 2.66699 -2.33301 12 -9 28s-18.167 33.167 -34.5 51.5s-38.333 34.833 -66 49.5s-62.5 22 -104.5 22c-33.333 0 -65 -6 -95 -18s-57 -28 -81 -48s-44.333 -43.333 -61 -70s-28.667 -54.667 -36 -84
c-5.33301 -22 -6.33301 -40.5 -3 -55.5s8.5 -27.167 15.5 -36.5s14.333 -16.5 22 -21.5s13.167 -7.83301 16.5 -8.5c3.33301 2.66699 9 6.5 17 11.5s17.5 10 28.5 15s22.667 9.33301 35 13s24.833 5.5 37.5 5.5c21.333 0 40.166 -3.83301 56.499 -11.5
s29.666 -18.167 39.999 -31.5s17 -29.333 20 -48s1.83301 -39 -3.5 -61c-6 -23.333 -15.333 -45 -28 -65s-27.334 -37.167 -44.001 -51.5s-34.834 -25.666 -54.501 -33.999s-39.834 -12.5 -60.501 -12.5c-22.667 0 -42.5 4.33301 -59.5 13s-30.5 20.5 -40.5 35.5
s-16.333 32.333 -19 52s-1.33398 40.5 3.99902 62.5c3.33301 12 8.33301 24.833 15 38.5s12.667 24.5 18 32.5c-4.66699 2 -11.667 6.33301 -21 13s-18.166 16.167 -26.499 28.5s-14.5 27.833 -18.5 46.5s-2.66699 41 4 67c10.667 42.667 27.334 80.834 50.001 114.501
s49.167 61.834 79.5 84.501s63.333 40 99 52s71.5 18 107.5 18c32 0 60.5 -4.33301 85.5 -13s46.667 -19.334 65 -32.001s33.166 -25.667 44.499 -39s19.666 -24.333 24.999 -33l27 107h45l-160 -642h-45zM415.006 156.998c6.66699 28 3.5 52.666 -9.5 73.999
s-35.833 32 -68.5 32c-14 0 -27.833 -3 -41.5 -9s-26.334 -14 -38.001 -24s-21.667 -21.5 -30 -34.5s-14.166 -26.5 -17.499 -40.5c-4 -14.667 -5.5 -28.834 -4.5 -42.501s4.5 -25.667 10.5 -36s14.5 -18.666 25.5 -24.999s24.5 -9.5 40.5 -9.5
c17.333 0 33.333 3.16699 48 9.5s27.667 14.833 39 25.5s20.833 22.834 28.5 36.501s13.5 28.167 17.5 43.5z" />
    <glyph glyph-name="uni0B18" unicode="&#xb18;" horiz-adv-x="658" 
d="M551 0l9.99707 41.0039c-11.333 -10.667 -26 -21.667 -44 -33s-40.333 -17 -67 -17c-14.667 0 -27.167 2.5 -37.5 7.5s-18.833 11.333 -25.5 19s-11.667 15.5 -15 23.5s-5 15 -5 21c-4 -5.33301 -9.66699 -12 -17 -20s-16.333 -15.833 -27 -23.5
s-22.667 -14.334 -36 -20.001s-27.666 -8.5 -42.999 -8.5c-20.667 0 -38.167 4 -52.5 12s-25.833 18.333 -34.5 31s-14 27 -16 43s-1 32.333 3 49c7.33301 29.333 17.5 53 30.5 71s24.5 31.667 34.5 41c-5.33301 2 -13.666 5.5 -24.999 10.5s-21.833 13.333 -31.5 25
s-17 27.5 -22 47.5s-3.5 45.667 4.5 77c10.667 41.333 27.667 77.666 51 108.999s50.833 57.666 82.5 78.999s66.334 37.333 104.001 48s75.5 16 113.5 16c30 0 56.667 -3.66699 80 -11s43.5 -15.833 60.5 -25.5s30.833 -19.334 41.5 -29.001s18 -17.167 22 -22.5l21 81h46
l-160 -642h-46zM674.997 498.004c-2 3.33301 -7.49805 10.832 -16.498 22.499s-21.667 23.667 -38 36s-36.833 23.5 -61.5 33.5s-53.667 15 -87 15c-28 0 -57.167 -4.16699 -87.5 -12.5s-59 -21 -86 -38s-50.833 -38.5 -71.5 -64.5s-35.334 -56.333 -44.001 -91
c-4.66699 -18 -6 -34.5 -4 -49.5s6 -27.667 12 -38s14 -18.5 24 -24.5s20.667 -9 32 -9c13.333 14 28.333 26.667 45 38s30 20 40 26l26 -37c-9.33301 -5.33301 -22 -13.5 -38 -24.5s-32.333 -24.333 -49 -40s-32 -33.334 -46 -53.001s-24 -41.167 -30 -64.5
s-2.83301 -43.166 9.5 -59.499s31.166 -24.5 56.499 -24.5c11.333 0 22.5 3.5 33.5 10.5s20.833 15.333 29.5 25s16 19.667 22 30s10 18.833 12 25.5l20 80h47l-20 -78c-1.33301 -4.66699 -1.66602 -11.834 -0.999023 -21.501s3.16699 -19.5 7.5 -29.5
s11.166 -18.667 20.499 -26s22 -11 38 -11c17.333 0 33 4.66699 47 14s26 19.833 36 31.5s17.833 22.334 23.5 32.001s8.5 14.834 8.5 15.501z" />
    <glyph glyph-name="uni0B19" unicode="&#xb19;" horiz-adv-x="667" 
d="M810 427c-4 -16.667 -11.1738 -32.501 -21.5068 -47.501s-22.333 -28 -36 -39s-28.667 -19.833 -45 -26.5s-32.833 -10 -49.5 -10c-17.333 0 -32.666 3 -45.999 9s-24.333 14.5 -33 25.5s-14.5 24 -17.5 39s-2.16699 31.5 2.5 49.5c4 17.333 12 35 24 53s27 32.667 45 44
c-2 4 -6.66699 10.5 -14 19.5s-17.666 17.833 -30.999 26.5s-30.5 16.334 -51.5 23.001s-46.167 10 -75.5 10c-34 0 -66.333 -5.66699 -97 -17s-58.167 -27 -82.5 -47s-45.333 -43.5 -63 -70.5s-30.5 -56.5 -38.5 -88.5c-4 -17.333 -3.5 -31.166 1.5 -41.499
s11.833 -18.333 20.5 -24s17.334 -9.5 26.001 -11.5s14 -3 16 -3l94 74l29 -35l-69 -56c-19.333 -16 -37.166 -32.5 -53.499 -49.5s-27.166 -37.167 -32.499 -60.5c-4.66699 -18 -5.83398 -34.833 -3.50098 -50.5s7.83301 -29.334 16.5 -41.001s20.5 -21 35.5 -28
s33.167 -10.5 54.5 -10.5c19.333 0 38 3.5 56 10.5s34.333 16.667 49 29s27.334 27 38.001 44s18.667 35.833 24 56.5c2.66699 10.667 4.16699 19.167 4.5 25.5s-0.333984 11.833 -2.00098 16.5s-4.16699 9 -7.5 13l-12 14l-89 -75l-31 35l175 137l23 -33l-33 -28
c8.66699 -8 16.5 -22.167 23.5 -42.5s7.16699 -44.5 0.5 -72.5c-7.33301 -28 -18.833 -53.167 -34.5 -75.5s-34 -41.333 -55 -57s-43.5 -27.834 -67.5 -36.501s-47.333 -13 -70 -13c-30 0 -55.833 5.16699 -77.5 15.5s-38.667 24 -51 41s-20.166 36.333 -23.499 58
s-2 44.167 4 67.5c4.66699 18.667 11.834 35.334 21.501 50.001l23.5 35c-4 0.666992 -11.167 2.66699 -21.5 6s-20.333 9.33301 -30 18s-17.167 21 -22.5 37s-4.66602 37.333 2.00098 64c10.667 42.667 28.167 80.667 52.5 114s52.333 61.166 84 83.499
s65.334 39.333 101.001 51s70.167 17.5 103.5 17.5c37.333 0 68.666 -4.66699 93.999 -14s46 -20 62 -32s27.5 -23.667 34.5 -35s11.167 -19 12.5 -23l18 4c6 1.33301 14.667 2 26 2c16.667 0 31.667 -3.16699 45 -9.5s24 -15.166 32 -26.499s13.167 -24.5 15.5 -39.5
s1.5 -31.167 -2.5 -48.5zM759.993 427.999c5.33301 20.667 3 38.334 -7 53.001s-25.667 22 -47 22c-24 0 -44.667 -7.66699 -62 -23s-28.666 -33.333 -33.999 -54s-1.83301 -37.834 10.5 -51.501s28.833 -20.5 49.5 -20.5c24 0 43.667 7.5 59 22.5
s25.666 32.167 30.999 51.5z" />
    <glyph glyph-name="uni0B1A" unicode="&#xb1a;" horiz-adv-x="710" 
d="M758 342c-5.33301 -21.333 -12.333 -40.6719 -21 -58.0049s-17.667 -32.666 -27 -45.999s-18.166 -24.666 -26.499 -33.999s-14.833 -17 -19.5 -23l-43 17l19 21c8 8.66699 16 18.834 24 30.501s15.667 24.834 23 39.501s13.333 31 18 49c6 24 7.83301 51.167 5.5 81.5
s-10.833 59.166 -25.5 86.499s-37 50.333 -67 69s-69.667 28 -119 28c-30 0 -62 -5.83301 -96 -17.5s-65.833 -27.334 -95.5 -47.001s-55.667 -42.667 -78 -69s-37.166 -54.166 -44.499 -83.499c-6.66699 -26.667 -8.33398 -50.667 -5.00098 -72s9.33301 -39.833 18 -55.5
s18.167 -28.5 28.5 -38.5s19.166 -16.667 26.499 -20c21.333 30 46.833 54.167 76.5 72.5s60.167 27.5 91.5 27.5c20.667 0 39.334 -3.83301 56.001 -11.5s30.334 -18.334 41.001 -32.001s17.667 -29.667 21 -48s2.33301 -37.833 -3 -58.5
c-5.33301 -21.333 -14.333 -41.166 -27 -59.499s-27.5 -34.166 -44.5 -47.499s-35.833 -24 -56.5 -32s-41.334 -12 -62.001 -12c-20 0 -38 3.66699 -54 11s-29.167 17.5 -39.5 30.5s-17.333 28.833 -21 47.5s-3.16699 39 1.5 61c-4 2 -13.5 7.66699 -28.5 17
s-29.5 23.333 -43.5 42s-24.833 42.334 -32.5 71.001s-6.5 63.334 3.5 104.001c10.667 43.333 30 81.666 58 114.999s60 61.5 96 84.5s73.667 40.333 113 52s75.666 17.5 108.999 17.5c46 0 86.833 -8.33301 122.5 -25s64.667 -39 87 -67s37.333 -60.833 45 -98.5
s6.16699 -77.5 -4.5 -119.5zM486 149.994c3.33301 14 3.83105 27 1.49805 39s-7 22.667 -14 32s-16 16.666 -27 21.999s-23.5 8 -37.5 8c-13.333 0 -26.666 -2.66699 -39.999 -8s-25.833 -12.666 -37.5 -21.999s-21.667 -20 -30 -32s-14.166 -25 -17.499 -39
s-3.83301 -27 -1.5 -39s6.83301 -22.667 13.5 -32s15.5 -16.666 26.5 -21.999s23.167 -8 36.5 -8c14 0 27.833 2.66699 41.5 8s26.167 12.666 37.5 21.999s21.333 20 30 32s14.667 25 18 39z" />
    <glyph glyph-name="uni0B1B" unicode="&#xb1b;" horiz-adv-x="641" 
d="M656 403c-2.66699 -10 -6.16602 -20.8262 -10.499 -32.4932s-8.16602 -22.834 -11.499 -33.501l-37 21c2.66699 5.33301 5.5 11.833 8.5 19.5s5.5 15.167 7.5 22.5c7.33301 29.333 7.33301 56.5 0 81.5s-19.5 46.833 -36.5 65.5s-38 33.167 -63 43.5
s-51.5 15.5 -79.5 15.5c-24 0 -49 -4.66699 -75 -14s-50.5 -22.5 -73.5 -39.5s-43.167 -37.333 -60.5 -61s-29.666 -49.834 -36.999 -78.501c-3.33301 -14 -3.83301 -26 -1.5 -36s5.66602 -18.167 9.99902 -24.5s9.16602 -11.333 14.499 -15s9.33301 -5.83398 12 -6.50098
c2.66699 4 8.5 10.833 17.5 20.5s20.167 19.5 33.5 29.5s28.833 18.667 46.5 26s36.834 11 57.501 11c30.667 0 54.167 -6.33301 70.5 -19s28 -27.5 35 -44.5s10.333 -34.333 10 -52s-1.83301 -31.5 -4.5 -41.5c-4.66699 -16.667 -9.66699 -30.834 -15 -42.501
s-9.66602 -20.167 -12.999 -25.5c6 0 14.667 -0.833008 26 -2.5s22 -5.5 32 -11.5s17.833 -14.833 23.5 -26.5s6.16699 -27.5 1.5 -47.5c-5.33301 -20 -13.166 -37.167 -23.499 -51.5s-22.166 -26.333 -35.499 -36s-27.833 -16.834 -43.5 -21.501s-30.834 -7 -45.501 -7
c-12 0 -23.833 2 -35.5 6s-22.667 8.83301 -33 14.5s-19.333 11.667 -27 18s-13.167 11.833 -16.5 16.5l-22.5 -14c-9.66699 -6 -20.334 -11.833 -32.001 -17.5s-23.834 -10.667 -36.501 -15s-24.334 -6.5 -35.001 -6.5c-16 0 -30.833 2.5 -44.5 7.5s-25 12.167 -34 21.5
s-15.333 20.333 -19 33s-3.5 27 0.5 43c4 14 9.16699 25.667 15.5 35s13.333 17.166 21 23.499s15.5 11.666 23.5 15.999s15 8.5 21 12.5c-13.333 10.667 -23.5 17.5 -30.5 20.5s-14.5 5.83301 -22.5 8.5l24 41l34 -10.5c12 -3.66699 25 -12.834 39 -27.501
c-0.666992 6.66699 -0.666992 13.667 0 21s1.66699 14.5 3 21.5s2.66602 13.333 3.99902 19l3 12.5c-4 1.33301 -10.167 4.66602 -18.5 9.99902s-16 13.333 -23 24s-12.167 23.834 -15.5 39.501s-2.33301 34.167 3 55.5c8 32.667 22 63.167 42 91.5s43.5 52.833 70.5 73.5
s56.5 36.834 88.5 48.501s64.333 17.5 97 17.5c36.667 0 70 -6 100 -18s55 -28.833 75 -50.5s33.833 -47.5 41.5 -77.5s7.5 -63.333 -0.5 -100zM439.001 260.007c3.33301 14 4.33496 27.667 3.00195 41s-5 25.166 -11 35.499s-14.167 18.666 -24.5 24.999
s-22.833 9.5 -37.5 9.5s-29 -3.16699 -43 -9.5s-26.833 -14.666 -38.5 -24.999s-21.667 -22.166 -30 -35.499s-14.5 -27 -18.5 -41c-7.33301 -31.333 -3.5 -56.5 11.5 -75.5s37.167 -28.5 66.5 -28.5s55.166 10 77.499 30s37.166 44.667 44.499 74zM483.003 100.007
c4 14.667 1.49902 25.167 -7.50098 31.5s-19.833 9.5 -32.5 9.5c-11.333 0 -23.333 -2.33301 -36 -7s-24.667 -10 -36 -16s-21 -11.833 -29 -17.5s-12.667 -9.16699 -14 -10.5c0.666992 -2 3.33398 -5.66699 8.00098 -11s10.667 -10.833 18 -16.5s15.833 -10.667 25.5 -15
s19.5 -6.5 29.5 -6.5c16 0 31.167 5 45.5 15s23.833 24.667 28.5 44zM266.002 91.0068c-0.666992 2 -2.83105 6.33301 -6.49805 13s-8.66699 13.667 -15 21s-14.333 14 -24 20s-20.834 9 -33.501 9c-15.333 0 -30.166 -5 -44.499 -15s-23.5 -23 -27.5 -39
c-4.66699 -18 -1.66699 -32 9 -42s24.334 -15 41.001 -15c11.333 0 22.666 2.16699 33.999 6.5s21.666 9.33301 30.999 15s17.166 11 23.499 16s10.5 8.5 12.5 10.5z" />
    <glyph glyph-name="uni0B1C" unicode="&#xb1c;" horiz-adv-x="685" 
d="M731 338c-3.33301 -13.333 -9.32715 -27.668 -17.9941 -43.001s-15 -28 -19 -38l-43 10l16.5 37c6.33301 14.667 11.166 28 14.499 40c8.66699 34.667 9.83398 67.667 3.50098 99s-19 58.833 -38 82.5s-43.333 42.5 -73 56.5s-63.5 21 -101.5 21
c-31.333 0 -62.5 -5.66699 -93.5 -17s-59.833 -27 -86.5 -47s-49.667 -43.5 -69 -70.5s-33 -56.5 -41 -88.5c-5.33301 -21.333 -7.16602 -39 -5.49902 -53s5 -25.167 10 -33.5s10.333 -14.333 16 -18s9.83398 -5.83398 12.501 -6.50098
c2.66699 2.66699 7.16699 6.33398 13.5 11.001s14 9.33398 23 14.001s19.5 8.83398 31.5 12.501s25 6.16699 39 7.5l-12 -46h-6c-10.667 0 -21.667 -2.66699 -33 -8s-22.166 -13.166 -32.499 -23.499s-19.666 -22.833 -27.999 -37.5s-14.833 -31.334 -19.5 -50.001
c-4 -14 -5.66699 -27.833 -5 -41.5s3.5 -25.667 8.5 -36s12.167 -18.666 21.5 -24.999s21.333 -9.5 36 -9.5c11.333 0 21.666 1.83301 30.999 5.5s17.666 8.5 24.999 14.5s13.833 12.5 19.5 19.5s10.5 13.833 14.5 20.5c-14 13.333 -23.333 27.166 -28 41.499
s-4.33398 31.166 0.999023 50.499c5.33301 22.667 14.666 41.5 27.999 56.5s27.833 27 43.5 36s31.167 15.333 46.5 19s28 5.5 38 5.5c29.333 0 52.166 -4.16699 68.499 -12.5s27.833 -14.833 34.5 -19.5l-68 -274h-43l59 239c-1.33301 4 -4.66602 7.33301 -9.99902 10
c-4.66699 2.66699 -11.167 5.16699 -19.5 7.5s-20.166 3.5 -35.499 3.5c-18.667 0 -37.834 -6 -57.501 -18s-32.834 -30.667 -39.501 -56c-4.66699 -18 -2.33398 -31.5 6.99902 -40.5s20 -15.167 32 -18.5c-2 -9.33301 -6.33301 -21.833 -13 -37.5s-16.167 -31 -28.5 -46
s-28.166 -28 -47.499 -39s-42.666 -16.5 -69.999 -16.5c-21.333 0 -39.5 4.66699 -54.5 14s-26.833 21.666 -35.5 36.999s-13.834 33 -15.501 53s0.166016 40.667 5.49902 62c3.33301 14 7.5 26.333 12.5 37s12.5 24 22.5 40c-10 10.667 -18.833 20.667 -26.5 30
s-13.667 19.333 -18 30s-6.66602 22.834 -6.99902 36.501s2.16699 30.5 7.5 50.5c9.33301 38 25.666 73.5 48.999 106.5s51 61.667 83 86s67 43.5 105 57.5s76.333 21 115 21c45.333 0 85.666 -8 120.999 -24s64.166 -37.833 86.499 -65.5s37.166 -60.5 44.499 -98.5
s5.66602 -79 -5.00098 -123z" />
    <glyph glyph-name="uni0B1D" unicode="&#xb1d;" horiz-adv-x="669" 
d="M767 544c-6.66699 -26.667 -16.665 -49.667 -29.998 -69s-28.5 -35.333 -45.5 -48s-35.333 -22 -55 -28s-39.167 -9 -58.5 -9c-28 0 -51 4 -69 12s-31.667 19.333 -41 34s-14.5 32.167 -15.5 52.5s1.5 42.5 7.5 66.5c3.33301 11.333 5.66602 19 6.99902 23
c-22 -0.666992 -47.333 -3.5 -76 -8.5s-57 -15 -85 -30s-53.833 -36.167 -77.5 -63.5s-41.167 -63.333 -52.5 -108c-5.33301 -22 -5.33301 -39.333 0 -52s12.666 -22.334 21.999 -29.001s19 -11 29 -13s17 -3.66699 21 -5c2 2 6.33301 5.16699 13 9.5
s14.834 8.5 24.501 12.5s20.167 7.5 31.5 10.5s23 4.5 35 4.5c21.333 0 40.5 -4 57.5 -12s30.667 -18.833 41 -32.5s17.333 -29.834 21 -48.501s2.83398 -38.667 -2.49902 -60c-2 -8 -4.66699 -15.667 -8 -23l-11 -25l128 -62l-36 -48l-134 62
c-3.33301 -5.33301 -9 -11.5 -17 -18.5s-17.833 -13.833 -29.5 -20.5s-24.5 -12.334 -38.5 -17.001s-29 -7 -45 -7c-23.333 0 -43.833 4.33301 -61.5 13s-31.834 20.334 -42.501 35.001s-17.667 31.667 -21 51s-2.33301 40 3 62c4.66699 18.667 11 33.834 19 45.501
s16.333 21.834 25 30.501c-5.33301 2 -13.333 5.5 -24 10.5s-20.5 12.833 -29.5 23.5s-15.667 24.667 -20 42s-3.16602 39.333 3.50098 66c10 39.333 26.333 74.333 49 105s49.5 56.667 80.5 78s65.5 37.666 103.5 48.999s77 17 117 17c22.667 0 37.167 -2 43.5 -6
s10.166 -9.33301 11.499 -16c-8.66699 -4 -15.5 -9.83301 -20.5 -17.5s-10.167 -22.167 -15.5 -43.5c-2.66699 -10.667 -3.5 -22.167 -2.5 -34.5s4.66699 -23.833 11 -34.5s15.666 -19.5 27.999 -26.5s28.833 -10.5 49.5 -10.5c32 0 61.167 10.333 87.5 31
s43.833 49 52.5 85c3.33301 12.667 3.83301 24.5 1.5 35.5s-6.5 20.833 -12.5 29.5s-13 15.834 -21 21.501s-16 9.83398 -24 12.501l25 41c8.66699 -4 18.5 -9.16699 29.5 -15.5s20.667 -15 29 -26s14.333 -24.833 18 -41.5s2.5 -37.334 -3.5 -62.001zM413.002 155
c6.66699 27.333 4.33398 51.168 -6.99902 71.501s-33.333 30.5 -66 30.5c-14 0 -28.167 -2.66699 -42.5 -8s-27.5 -12.833 -39.5 -22.5s-22.333 -20.834 -31 -33.501s-14.667 -26 -18 -40c-4 -14 -5.33301 -27.667 -4 -41s5 -25.166 11 -35.499s14.833 -18.5 26.5 -24.5
s26.167 -9 43.5 -9c16 0 31 2.83301 45 8.5s26.333 13.167 37 22.5s19.667 20.166 27 32.499s12.666 25.5 15.999 39.5z" />
    <glyph glyph-name="uni0B1E" unicode="&#xb1e;" horiz-adv-x="641" 
d="M627 208c-8 -32 -21.832 -61.332 -41.499 -87.999s-43.334 -49.5 -71.001 -68.5s-58.167 -33.833 -91.5 -44.5s-68 -16 -104 -16c-37.333 0 -71.5 6.33301 -102.5 19s-56.833 30.167 -77.5 52.5s-34.834 49.166 -42.501 80.499s-6.83398 65.666 2.49902 102.999
c7.33301 30 17.5 56.5 30.5 79.5s32.833 48.167 59.5 75.5c-1.33301 2.66699 -4 7.5 -8 14.5s-7.66699 16 -11 27s-5.5 23.667 -6.5 38s0.5 30.166 4.5 47.499c3.33301 14 8 27 14 39s12.167 22.833 18.5 32.5s12.333 18 18 25s10.5 12.5 14.5 16.5h43
c-17.333 -19.333 -30.666 -37.166 -39.999 -53.499s-16.666 -34.5 -21.999 -54.5c-7.33301 -30 -6.83301 -55.833 1.5 -77.5s21.666 -39.334 39.999 -53.001s40.333 -23.667 66 -30s52.167 -9.5 79.5 -9.5c30.667 0 59.667 3.33301 87 10s51.666 16.334 72.999 29.001
s39.333 27.834 54 45.501s24.667 37.5 30 59.5c7.33301 30 6.83301 53.667 -1.5 71s-22.5 26 -42.5 26c-17.333 0 -31.5 -1.66699 -42.5 -5s-19.667 -7.5 -26 -12.5s-11.166 -10.5 -14.499 -16.5s-5.33301 -11.333 -6 -16l-21 -83h-44l20 79
c1.33301 5.33301 2.16602 11 2.49902 17s-1.16699 11.333 -4.5 16s-9 8.5 -17 11.5s-19.667 4.5 -35 4.5c-17.333 0 -33.5 -5.83301 -48.5 -17.5s-24.5 -26.167 -28.5 -43.5c-3.33301 -12 -3.33301 -22 0 -30s6.66602 -15 9.99902 -21l-39 -25
c-9.33301 10 -15.666 20.833 -18.999 32.5s-3 25.167 1 40.5c3.33301 14.667 9.5 28.5 18.5 41.5s19.667 24.5 32 34.5s25.833 17.833 40.5 23.5s29.334 8.5 44.001 8.5c16 0 30 -2.16699 42 -6.5s24.333 -12.166 37 -23.499c18.667 14 35.5 23.333 50.5 28s31.5 7 49.5 7
c40.667 0 68.334 -12.333 83.001 -37s17.667 -55.334 9 -92.001c-7.33301 -28 -20 -55.167 -38 -81.5s-39.667 -47.5 -65 -63.5c22.667 -14 37 -34.167 43 -60.5s3.33301 -61.5 -8 -105.5zM582.001 216.001c10 38.667 10.832 68.5049 2.49902 89.5049
s-25.833 31.5 -52.5 31.5c-14.667 0 -27.667 -1.83301 -39 -5.5s-20.666 -8 -27.999 -13s-13 -9.83301 -17 -14.5s-6.33301 -8.33398 -7 -11.001l-27 -106h-45l24 96l-0.5 6c-0.333008 4 -2.16602 8.33301 -5.49902 13s-8.66602 8.83398 -15.999 12.501s-18 5.5 -32 5.5
c-18.667 0 -35.334 -6.16699 -50.001 -18.5s-24.334 -27.5 -29.001 -45.5c-4.66699 -18.667 -3.83398 -33.334 2.49902 -44.001s14.166 -18.334 23.499 -23.001l-40 -29c-3.33301 2 -7.66602 5.16699 -12.999 9.5s-10 10.166 -14 17.499s-6.83301 16.666 -8.5 27.999
s-0.5 25 3.5 41c5.33301 21.333 13.5 38.166 24.5 50.499s20.167 21.166 27.5 26.499l-52 40l-14.5 -17c-6.33301 -7.33301 -13 -16.333 -20 -27s-13.833 -23 -20.5 -37s-12 -29.667 -16 -47c-7.33301 -29.333 -7.16602 -56.666 0.500977 -81.999s20.5 -47.333 38.5 -66
s40.167 -33.5 66.5 -44.5s54.833 -16.5 85.5 -16.5s59.667 4.5 87 13.5s51.833 21.5 73.5 37.5s40 35 55 57s25.833 46 32.5 72z" />
    <glyph glyph-name="uni0B1F" unicode="&#xb1f;" horiz-adv-x="653" 
d="M633 314l47.998 193.995c-2 5.33301 -6.33301 12.833 -13 22.5s-17.5 19.167 -32.5 28.5s-35.167 17.5 -60.5 24.5s-58.333 10.5 -99 10.5c-32 0 -63.5 -3.83301 -94.5 -11.5s-59.5 -18.834 -85.5 -33.501s-48.167 -32.667 -66.5 -54s-30.833 -45.666 -37.5 -72.999
c-6 -22.667 -6 -43.334 0 -62.001s14.5 -34.667 25.5 -48s22.667 -23.833 35 -31.5s22.166 -11.834 29.499 -12.501l36.5 19c17 8.66699 39.5 13 67.5 13c20 0 38 -3.83301 54 -11.5s29.167 -18.167 39.5 -31.5s17.333 -29.166 21 -47.499s2.83398 -38.5 -2.49902 -60.5
c-5.33301 -21.333 -14.333 -41.166 -27 -59.499s-27.5 -34.166 -44.5 -47.499s-35.5 -23.833 -55.5 -31.5s-40 -11.5 -60 -11.5c-22.667 0 -42.334 4.16699 -59.001 12.5s-29.834 19.666 -39.501 33.999s-15.667 31 -18 50s-0.833008 39.5 4.5 61.5
c2.66699 11.333 7.16699 23.5 13.5 36.5s13.5 24.5 21.5 34.5c-5.33301 2.66699 -14.5 8.33398 -27.5 17.001s-25.667 20.667 -38 36s-22 34.5 -29 57.5s-6.5 50.5 1.5 82.5c10.667 42 29.334 77.167 56.001 105.5s56.834 51.333 90.501 69s67.834 30.334 102.501 38.001
s65.334 11.5 92.001 11.5c40 0 73 -3.16699 99 -9.5s47 -13.666 63 -21.999s27.833 -16.666 35.5 -24.999s13.167 -14.166 16.5 -17.499l19 71h45l-82 -328h-45zM448.998 150.995c3.33301 14 3.83105 27.1689 1.49805 39.502s-7.16602 23 -14.499 32s-16.5 16 -27.5 21
s-23.5 7.5 -37.5 7.5c-12 0 -24.5 -2.33301 -37.5 -7s-25.333 -11.5 -37 -20.5s-22 -19.667 -31 -32s-15.5 -26.5 -19.5 -42.5c-3.33301 -12 -4.16602 -24 -2.49902 -36s5.5 -22.667 11.5 -32s14.167 -17 24.5 -23s23.166 -9 38.499 -9c16.667 0 32.334 2.83301 47.001 8.5
s27.667 13.167 39 22.5s20.833 20.166 28.5 32.499s13.167 25.166 16.5 38.499z" />
    <glyph glyph-name="uni0B20" unicode="&#xb20;" horiz-adv-x="679" 
d="M687 325c-10.667 -42.667 -28.001 -84.167 -52.001 -124.5s-52.5 -76 -85.5 -107s-69.5 -55.833 -109.5 -74.5s-81.333 -28 -124 -28s-78.834 9.5 -108.501 28.5s-53 44.167 -70 75.5s-27.167 67 -30.5 107s0.333984 81 11.001 123c10 41.333 26.667 81.5 50 120.5
s51.166 73.5 83.499 103.5s68 54.167 107 72.5s79.5 27.5 121.5 27.5s78.333 -9 109 -27s54.834 -42 72.501 -72s28.834 -64.5 33.501 -103.5s2 -79.5 -8 -121.5zM638.999 325c8.66699 36 11.666 71.167 8.99902 105.5s-11 64.833 -25 91.5s-33.5 48 -58.5 64
s-55.5 24 -91.5 24c-36.667 0 -71.5 -8 -104.5 -24s-63 -37.333 -90 -64s-50.333 -57 -70 -91s-33.834 -69.333 -42.501 -106c-9.33301 -36 -12.833 -71.167 -10.5 -105.5s10 -64.833 23 -91.5s31.833 -48.167 56.5 -64.5s55 -24.5 91 -24.5c36.667 0 71.834 8 105.501 24
s64.334 37.333 92.001 64s51.5 57.167 71.5 91.5s34.667 69.833 44 106.5z" />
    <glyph glyph-name="uni0B21" unicode="&#xb21;" horiz-adv-x="663" 
d="M712 347c-7.33301 -28.667 -17.1689 -51.3311 -29.502 -67.998s-23.166 -29 -32.499 -37l-33 25c4.66699 6.66699 12.167 16 22.5 28s18.166 29.667 23.499 53c9.33301 37.333 11.5 71.666 6.5 102.999s-16.167 58.166 -33.5 80.499s-40.333 39.833 -69 52.5
s-61.334 19 -98.001 19c-34 0 -66.833 -6.66699 -98.5 -20s-60.5 -30.5 -86.5 -51.5s-48 -44.5 -66 -70.5s-30 -51.333 -36 -76c-5.33301 -21.333 -5.66602 -38.333 -0.999023 -51s11.167 -22.5 19.5 -29.5s16.666 -11.667 24.999 -14s13.833 -3.5 16.5 -3.5l18.5 14.5
c9.66699 7.66699 21.334 15.667 35.001 24s28.667 16.333 45 24s32.5 12.834 48.5 15.501l26 -34c-14.667 -4 -31.5 -10 -50.5 -18s-37.833 -18.833 -56.5 -32.5s-35.5 -30 -50.5 -49s-25.5 -40.833 -31.5 -65.5c-4.66699 -18 -5.16699 -34.5 -1.5 -49.5
s10.334 -28.167 20.001 -39.5s21.834 -20.166 36.501 -26.499s31 -9.5 49 -9.5c19.333 0 38 3.5 56 10.5s34.333 16.333 49 28s27.334 25.5 38.001 41.5s18.334 33 23.001 51c4 15.333 3.83301 30.166 -0.5 44.499s-9.83301 26.166 -16.5 35.499l-89 -75l-33 35l193 155
l28 -37l-57 -43c3.33301 -3.33301 7.16602 -8.5 11.499 -15.5s8.16602 -15.5 11.499 -25.5s5.5 -21.167 6.5 -33.5s-0.166992 -25.5 -3.5 -39.5c-7.33301 -28 -18.833 -53.167 -34.5 -75.5s-34 -41.333 -55 -57s-43.5 -27.834 -67.5 -36.501s-47.667 -13 -71 -13
c-30 0 -55.667 5.16699 -77 15.5s-38.333 24 -51 41s-20.667 36.333 -24 58s-2 44.167 4 67.5c4.66699 18 10 32 16 42s11.667 18.667 17 26c-6.66699 1.33301 -15.5 4.33301 -26.5 9s-21 12.334 -30 23.001s-15.5 24.834 -19.5 42.501s-2.66699 40.167 4 67.5
c10 40.667 28 77.667 54 111s55.667 61.666 89 84.999s68.833 41.333 106.5 54s73.167 19 106.5 19c42.667 0 80.5 -7.5 113.5 -22.5s59.5 -36 79.5 -63s33 -59.167 39 -96.5s3.33301 -78.333 -8 -123z" />
    <glyph glyph-name="uni0B22" unicode="&#xb22;" horiz-adv-x="679" 
d="M729 349c-3.33301 -13.333 -8.00781 -25.3311 -14.0078 -35.998s-13 -22 -21 -34l-34 17l14 26.5c4 7.66699 7 16.167 9 25.5c8.66699 34.667 10 67.167 4 97.5s-18.667 57 -38 80s-45.5 41.167 -78.5 54.5s-72.167 20 -117.5 20c-28 0 -56.667 -6.16699 -86 -18.5
s-56.666 -28.833 -81.999 -49.5s-47.666 -44.167 -66.999 -70.5s-32.333 -53.833 -39 -82.5c-3.33301 -14 -3.33301 -26.333 0 -37s8.16602 -19.667 14.499 -27s12.833 -13.166 19.5 -17.499s11.334 -6.83301 14.001 -7.5l13 12.5c6.66699 6.33301 15 13.5 25 21.5
s21 16 33 24s24.667 15 38 21l27 -33c-10 -5.33301 -22.667 -12.666 -38 -21.999s-30.833 -21 -46.5 -35s-30.167 -30 -43.5 -48s-22.666 -38.333 -27.999 -61c-5.33301 -20 -6.16602 -38.167 -2.49902 -54.5s10.167 -30.333 19.5 -42s21 -20.5 35 -26.5s29 -9 45 -9
c2.66699 0 5.33398 0.166992 8.00098 0.5s6.66699 1.16602 12 2.49902c-0.666992 4.66699 -1.33398 11.667 -2.00098 21s-1 19.666 -1 30.999s0.333008 23 1 35s2 22.667 4 32c4.66699 20 12.167 39 22.5 57s22.333 33.667 36 47s29 24 46 32s34.833 12 53.5 12
c36.667 0 62.834 -11.167 78.501 -33.5s19.167 -50.166 10.5 -83.499c-6 -25.333 -16.667 -48.5 -32 -69.5s-32 -39.167 -50 -54.5s-36 -27.833 -54 -37.5s-32.333 -15.834 -43 -18.501l24.5 -21c5.66699 -4.66699 10.334 -8.16699 14.001 -10.5s7 -4.16602 10 -5.49902
l13.5 -6l-38 -36c-15.333 7.33301 -29.833 17.166 -43.5 29.499s-23.167 23.833 -28.5 34.5c-4.66699 -1.33301 -11.667 -2.83301 -21 -4.5s-20.666 -2.5 -33.999 -2.5c-31.333 0 -56.5 6.16699 -75.5 18.5s-33.5 27.833 -43.5 46.5s-15.667 38.5 -17 59.5s0 40.5 4 58.5
c4.66699 18 9.83398 33 15.501 45s11.167 22 16.5 30c-4 2 -10.5 5.66699 -19.5 11s-17.5 13.166 -25.5 23.499s-13.833 23.666 -17.5 39.999s-2.5 36.833 3.5 61.5c10.667 42.667 28.334 80.667 53.001 114s53 61.166 85 83.499s65.833 39.333 101.5 51
s69.5 17.5 101.5 17.5c44.667 0 85.167 -7.16699 121.5 -21.5s66.333 -34.666 90 -60.999s39.667 -58 48 -95s7.16602 -77.833 -3.50098 -122.5zM527.992 192.002c4.66699 18 3.00098 33.833 -4.99902 47.5s-24 20.5 -48 20.5c-10.667 0 -21.167 -2.83301 -31.5 -8.5
s-20 -13 -29 -22s-16.667 -19 -23 -30s-10.833 -21.833 -13.5 -32.5c-2.66699 -11.333 -5 -23.166 -7 -35.499s-3.16699 -24.166 -3.5 -35.499s0.166992 -21.333 1.5 -30s4 -14.334 8 -17.001c6 1.33301 16.167 5.16602 30.5 11.499s29.5 15.5 45.5 27.5
s31.167 26.667 45.5 44s24.166 37.333 29.499 60z" />
    <glyph glyph-name="uni0B23" unicode="&#xb23;" horiz-adv-x="638" 
d="M556 0l123.004 495.996c0 0.666992 -4 6.5 -12 17.5s-19.5 23 -34.5 36s-33.5 24.833 -55.5 35.5s-46.667 16 -74 16c-14.667 0 -27.667 -3.66699 -39 -11s-21.333 -16.666 -30 -27.999s-15.834 -23.833 -21.501 -37.5s-9.83398 -26.5 -12.501 -38.5
c-2 -6.66699 -1.83301 -12.667 0.5 -18s5.16602 -10 8.49902 -14s7 -7.66699 11 -11s7 -6.33301 9 -9l41 -29l-40 -36l-91 68c-1.33301 0 -5.83301 -0.666992 -13.5 -2s-17 -3.83301 -28 -7.5s-22.833 -8.33398 -35.5 -14.001s-24.334 -12.834 -35.001 -21.501
c-22 -19.333 -38.167 -40.333 -48.5 -63s-16.833 -39.667 -19.5 -51c5.33301 1.33301 12.166 2.83301 20.499 4.5s17.333 3.33398 27 5.00098s19.334 3 29.001 4s18.5 1.5 26.5 1.5c73.333 -2 125.833 -17.667 157.5 -47s41.167 -69 28.5 -119
c-4 -15.333 -10.5 -31 -19.5 -47s-20.833 -30.333 -35.5 -43s-32.167 -23 -52.5 -31s-43.5 -12 -69.5 -12c-32 0 -60 9 -84 27s-43.333 40.833 -58 68.5s-24.167 57.5 -28.5 89.5s-2.83301 62 4.5 90c8 32 19 59.5 33 82.5s29.333 42.333 46 58s34 28.334 52 38.001
s35 17.334 51 23.001s30 9.33398 42 11.001s20.667 2.83398 26 3.50098l4 13c2.66699 10.667 7.16699 24.5 13.5 41.5s15.666 33.667 27.999 50s28 30.333 47 42s42.5 17.5 70.5 17.5c21.333 0 41.833 -3.5 61.5 -10.5s37.334 -15.167 53.001 -24.5s29.167 -18.5 40.5 -27.5
s19.333 -15.833 24 -20.5l18 75h45l-159 -641h-45zM399.004 139.996c2.66699 16.667 0.666016 31.332 -6.00098 43.999s-16.834 23.334 -30.501 32.001s-30 15.167 -49 19.5s-39.5 6.5 -61.5 6.5c-8 0 -17 -0.5 -27 -1.5s-19.667 -2.33301 -29 -4
s-18.166 -3.16699 -26.499 -4.5s-14.833 -2.33301 -19.5 -3c-0.666992 -4 -0.666992 -11.5 0 -22.5s2.5 -23.333 5.5 -37s7.5 -28 13.5 -43s14.167 -28.667 24.5 -41s23.333 -22.5 39 -30.5s34.834 -12 57.501 -12c16 0 30 2.5 42 7.5s22.333 11.5 31 19.5s15.667 17 21 27
s9.33301 20.333 12 31z" />
    <glyph glyph-name="uni0B24" unicode="&#xb24;" horiz-adv-x="665" 
d="M724 385c-5.33301 -22 -12.498 -41.833 -21.498 -59.5s-16.833 -31.167 -23.5 -40.5l-34 29c6.66699 8 12.667 16.333 18 25s10.333 22.334 15 41.001c7.33301 29.333 7.33301 57.5 0 84.5s-21 50.667 -41 71s-45.5 36.666 -76.5 48.999s-66.167 18.5 -105.5 18.5
c-28 0 -56.5 -5.66699 -85.5 -17s-56.333 -27 -82 -47s-48 -43.5 -67 -70.5s-32.5 -56.5 -40.5 -88.5c-3.33301 -14 -4.16602 -26.167 -2.49902 -36.5s5 -19.5 10 -27.5s11.167 -14.667 18.5 -20s15 -9.33301 23 -12c10 12.667 21.333 24.5 34 35.5s24.667 20.5 36 28.5
c13.333 9.33301 27 17.666 41 24.999l28 -36l-38 -27c-16 -11.333 -32 -24.166 -48 -38.499s-30.667 -29.666 -44 -45.999s-22 -32.833 -26 -49.5c-4.66699 -20 -5.33398 -38.333 -2.00098 -55s9.66602 -31 18.999 -43s21.333 -21.5 36 -28.5s31 -10.5 49 -10.5
c24 0 47.167 3.5 69.5 10.5s42.333 16.5 60 28.5s32.667 26.333 45 43s20.833 34.667 25.5 54c1.33301 4 2.16602 8.83301 2.49902 14.5s-1.16699 12.167 -4.5 19.5c-12 -4.66699 -23.667 -7 -35 -7c-18 0 -32.333 5.83301 -43 17.5s-14 25.5 -10 41.5c4 17.333 14 32 30 44
s32.667 18 50 18c31.333 0 52.833 -13.833 64.5 -41.5s12.167 -62.5 1.5 -104.5c-8 -30.667 -21.833 -57.5 -41.5 -80.5s-42 -42.333 -67 -58s-51.333 -27.5 -79 -35.5s-52.834 -12 -75.501 -12c-30 0 -55.833 5.16699 -77.5 15.5s-38.667 24 -51 41
s-20.166 36.333 -23.499 58s-2 44.167 4 67.5c4.66699 22.667 17.667 47 39 73c-8 2.66699 -17.167 7 -27.5 13s-19.333 14.167 -27 24.5s-13 23.5 -16 39.5s-1.5 36 4.5 60c10.667 42.667 28.5 80.667 53.5 114s53.667 61.166 86 83.499s66.5 39.333 102.5 51
s70.667 17.5 104 17.5c38.667 0 75 -6.5 109 -19.5s62.833 -31.333 86.5 -55s40.5 -51.667 50.5 -84s10 -67.5 0 -105.5z" />
    <glyph glyph-name="uni0B25" unicode="&#xb25;" horiz-adv-x="630" 
d="M523 0l27.0029 112c-15.333 -13.333 -32.666 -26.666 -51.999 -39.999s-40.666 -25.333 -63.999 -36s-48.166 -19.334 -74.499 -26.001s-53.833 -10 -82.5 -10c-26.667 0 -53 4.66699 -79 14s-48.5 22.666 -67.5 39.999s-33 38.333 -42 63s-9.83301 52.334 -2.5 83.001
c9.33301 36 25.666 64.167 48.999 84.5s50.166 36.5 80.499 48.5s62.5 21.833 96.5 29.5s66 16.667 96 27s56.333 24.166 79 41.499s38 41.666 46 72.999c3.33301 12.667 4.16602 25.167 2.49902 37.5s-6 23.5 -13 33.5s-16.5 18 -28.5 24s-26.333 9 -43 9
c-10.667 0 -22.834 -2.16699 -36.501 -6.5s-26.834 -10.833 -39.501 -19.5s-24 -19.334 -34 -32.001s-17 -27.334 -21 -44.001c-4 -15.333 -4.66699 -28.666 -2 -39.999s6 -20.666 10 -27.999l-40 -16c-5.33301 8 -9.5 18.833 -12.5 32.5s-1.83301 30.834 3.5 51.501
c4.66699 20.667 13.167 39.5 25.5 56.5s26.666 31.833 42.999 44.5s34.166 22.5 53.499 29.5s38.666 10.5 57.999 10.5c22 0 41.167 -4 57.5 -12s29.333 -18.667 39 -32s15.834 -28.833 18.501 -46.5s1.66699 -35.834 -3 -54.501
c-9.33301 -37.333 -25.666 -66.5 -48.999 -87.5s-50 -37.667 -80 -50s-61.833 -22.333 -95.5 -30s-65.334 -16.834 -95.001 -27.501s-55.667 -24.667 -78 -42s-37.5 -42 -45.5 -74c-6 -23.333 -4.33301 -44.166 5 -62.499s22.5 -33.833 39.5 -46.5
s36.167 -22.167 57.5 -28.5s41.333 -9.5 60 -9.5c28.667 0 57.834 4.83301 87.501 14.5s57.5 22.334 83.5 38.001s49 33.334 69 53.001s34.667 39.167 44 58.5l109 434h45l-160 -642h-45z" />
    <glyph glyph-name="uni0B26" unicode="&#xb26;" horiz-adv-x="667" 
d="M707 353c-8.66699 -32.667 -19.501 -60.0029 -32.501 -82.0029s-23.833 -38.667 -32.5 -50l-41 23l9.5 9.5c4.33301 4.33301 9.33301 10.666 15 18.999s11.334 19 17.001 32s10.834 28.833 15.501 47.5c8.66699 34.667 10.5 67.167 5.5 97.5s-16.167 57 -33.5 80
s-40.5 41.167 -69.5 54.5s-62.833 20 -101.5 20c-27.333 0 -55.833 -5.66699 -85.5 -17s-57.334 -26.666 -83.001 -45.999s-48.334 -42 -68.001 -68s-33.167 -54 -40.5 -84c-4.66699 -18.667 -5.16699 -34.5 -1.5 -47.5s8.83398 -23.833 15.501 -32.5
s13.834 -15.5 21.501 -20.5s13.5 -8.5 17.5 -10.5c3.33301 3.33301 10.166 9 20.499 17s20.166 14.333 29.499 19c14 6 28 11.167 42 15.5s25.667 7.5 35 9.5l11 -46c-10 -2 -22.333 -5.33301 -37 -10s-29.167 -11.334 -43.5 -20.001s-27.5 -19.5 -39.5 -32.5
s-20.333 -29.5 -25 -49.5c-3.33301 -13.333 -3.83301 -25.666 -1.5 -36.999s7 -21.5 14 -30.5s15.833 -16 26.5 -21s23 -7.5 37 -7.5c21.333 0 40.5 4.33301 57.5 13s31.5 18.334 43.5 29.001s21.333 20.5 28 29.5l10 13.5l38 152h47l-80 -322h-47l21 86
c-6 -3.33301 -13.333 -7.66602 -22 -12.999s-18.667 -10.5 -30 -15.5s-24 -9.5 -38 -13.5s-29.333 -6 -46 -6c-26.667 0 -47.667 5.33301 -63 16s-26.5 23.834 -33.5 39.501s-10.667 31.834 -11 48.501s1.16699 31 4.5 43c2 9.33301 5.5 19.166 10.5 29.499
s9.16699 17.5 12.5 21.5c-30 14 -51.667 34 -65 60s-15 59 -5 99c8.66699 36 24.334 69.333 47.001 100s49.334 57.5 80.001 80.5s64.167 41 100.5 54s72.5 19.5 108.5 19.5c41.333 0 78.833 -7 112.5 -21s61.5 -34 83.5 -60s36.667 -57.167 44 -93.5
s5.66602 -76.833 -5.00098 -121.5z" />
    <glyph glyph-name="uni0B27" unicode="&#xb27;" horiz-adv-x="605" 
d="M498 0l21.001 86.001c-8 -6.66699 -18.833 -15.167 -32.5 -25.5s-30 -20.5 -49 -30.5s-40.667 -18.5 -65 -25.5s-51.166 -10.5 -80.499 -10.5c-30.667 0 -60 5 -88 15s-51.833 25.167 -71.5 45.5s-33.167 45.666 -40.5 75.999s-6 65.833 4 106.5
c7.33301 30 19.666 56.5 36.999 79.5s35.666 42.333 54.999 58s38 28 56 37s31.333 14.833 40 17.5c8.66699 2 17.5 3.83301 26.5 5.5s16.167 2.5 21.5 2.5l-125 205h59l176 -304l-35 -27l-37 60c-4.66699 6 -9.5 10.167 -14.5 12.5s-15.5 3.5 -31.5 3.5
c-16.667 0 -34.334 -3.83301 -53.001 -11.5s-36.5 -18.167 -53.5 -31.5s-32.167 -29.333 -45.5 -48s-22.666 -39 -27.999 -61c-9.33301 -36 -10.666 -66.333 -3.99902 -91s18.5 -44.5 35.5 -59.5s37.667 -25.667 62 -32s50.166 -9.5 77.499 -9.5
c29.333 0 57.333 5.5 84 16.5s50.667 25.5 72 43.5s39.333 38 54 60s24.667 44 30 66l103 413h46l-160 -642h-46z" />
    <glyph glyph-name="uni0B28" unicode="&#xb28;" horiz-adv-x="685" 
d="M740 369c-6.66699 -25.333 -16.167 -47.8398 -28.5 -67.5068s-25.5 -36.667 -39.5 -51s-27.667 -26.166 -41 -35.499s-24.333 -16.333 -33 -21l-19 37c-0.666992 0 3.66602 2.66699 12.999 8s20.166 13.5 32.499 24.5s24.666 24.833 36.999 41.5s21.5 36.667 27.5 60
c8.66699 34.667 9.33398 66.167 2.00098 94.5s-20.333 52.5 -39 72.5s-41.834 35.5 -69.501 46.5s-57.834 16.5 -90.501 16.5c-29.333 0 -60.5 -5.5 -93.5 -16.5s-64.333 -26.333 -94 -46s-56 -43.167 -79 -70.5s-38.5 -57.666 -46.5 -90.999
c-6 -25.333 -6.66699 -46.333 -2 -63s11.667 -30.167 21 -40.5s19 -18 29 -23s17.333 -8.5 22 -10.5c5.33301 4.66699 14.5 11.334 27.5 20.001s28.333 17.334 46 26.001s37 16.167 58 22.5s42.167 9.5 63.5 9.5c25.333 0 42.5 -1.83301 51.5 -5.5
s13.167 -5.83398 12.5 -6.50098l-75 -302h-45l65 259h-6c-2 0 -4.16699 0.166992 -6.5 0.5s-5.16602 0.5 -8.49902 0.5c-15.333 0 -36 -3 -62 -9s-52 -19.333 -78 -40c-15.333 -12 -28.166 -24 -38.499 -36s-18.833 -23.333 -25.5 -34s-11.667 -20.167 -15 -28.5l-8 -20.5
c4.66699 0 10.834 -0.333008 18.501 -1s14.834 -2.5 21.501 -5.5s11.834 -7.66699 15.501 -14s4.16699 -15.166 1.5 -26.499c-4.66699 -19.333 -13.167 -33.166 -25.5 -41.499s-26.5 -12.5 -42.5 -12.5c-12 0 -21.667 3 -29 9s-12.666 14 -15.999 24
s-4.83301 21.5 -4.5 34.5s2.16602 26.167 5.49902 39.5c2.66699 10 6.5 20 11.5 30s10.333 19.167 16 27.5s11.167 15.833 16.5 22.5s10 12 14 16c-4.66699 2.66699 -12.834 7.83398 -24.501 15.501s-22.834 18.334 -33.501 32.001s-18.667 31.167 -24 52.5
s-4 47.666 4 78.999c10 38.667 27.833 74.5 53.5 107.5s55.834 61.667 90.501 86s72.334 43.333 113.001 57s81 20.5 121 20.5c37.333 0 72.166 -7 104.499 -21s59.5 -33.167 81.5 -57.5s37.5 -53.166 46.5 -86.499s8.83301 -69.333 -0.5 -108z" />
    <glyph glyph-name="uni0B2A" unicode="&#xb2a;" horiz-adv-x="668" 
d="M561 0l26.0039 108.006c-6.66699 -6.66699 -17.167 -15.834 -31.5 -27.501s-31.666 -23.334 -51.999 -35.001s-42.833 -21.834 -67.5 -30.501s-50.667 -13 -78 -13c-35.333 0 -65.833 5.33301 -91.5 16s-46.334 24.5 -62.001 41.5s-26 36.167 -31 57.5
s-4.83301 42.666 0.5 63.999c3.33301 15.333 9 30.166 17 44.499s14 24.166 18 29.499c-11.333 3.33301 -22.833 8 -34.5 14s-21.334 14.5 -29.001 25.5s-12.667 25.5 -15 43.5s0.166992 41 7.5 69c9.33301 38 25.166 71.833 47.499 101.5s48.666 55 78.999 76
s63.666 37 99.999 48s73.5 16.5 111.5 16.5c32.667 0 61.667 -5 87 -15s47 -21.667 65 -35s32.667 -26.5 44 -39.5s19 -22.833 23 -29.5l28 112h43l-160 -642h-45zM673.004 451.006c0.666992 2.66699 -2.66406 12.1689 -9.99707 28.502s-19.333 33.833 -36 52.5
s-38.167 35.5 -64.5 50.5s-58.166 22.5 -95.499 22.5s-71.833 -5.66699 -103.5 -17s-60 -26.333 -85 -45s-45.833 -40 -62.5 -64s-28.334 -48.667 -35.001 -74c-6 -25.333 -6.33301 -45.666 -1 -60.999s13 -27 23 -35s20 -13.333 30 -16s16.667 -4 20 -4
c4 5.33301 9.33301 9.66602 16 12.999s13.5 5.83301 20.5 7.5s13.667 2.83398 20 3.50098s11.166 1 14.499 1l23 -31c-12 -2 -24.5 -5.83301 -37.5 -11.5s-25.167 -12.834 -36.5 -21.501s-21.333 -18.334 -30 -29.001s-14.334 -22.334 -17.001 -35.001
c-4 -15.333 -4.5 -31.333 -1.5 -48s9.83301 -32 20.5 -46s25.5 -25.667 44.5 -35s42.833 -14 71.5 -14s57 6 85 18s53.333 25.833 76 41.5s41.667 31.5 57 47.5s24.666 28 27.999 36z" />
    <glyph glyph-name="uni0B2B" unicode="&#xb2b;" horiz-adv-x="691" 
d="M561 0l26.0029 108.006c-6.66699 -6.66699 -17.167 -15.834 -31.5 -27.501s-31.666 -23.334 -51.999 -35.001s-42.833 -21.834 -67.5 -30.501s-50.667 -13 -78 -13c-35.333 0 -65.833 5.33301 -91.5 16s-46.334 24.5 -62.001 41.5s-26 36.167 -31 57.5
s-4.83301 42.666 0.5 63.999c3.33301 15.333 9 30.166 17 44.499s14 24.166 18 29.499c-11.333 3.33301 -22.833 8 -34.5 14s-21.334 14.5 -29.001 25.5s-12.667 25.5 -15 43.5s0.166992 41 7.5 69c9.33301 38 25.166 71.833 47.499 101.5s48.666 55 78.999 76
s63.666 37 99.999 48s73.5 16.5 111.5 16.5c32.667 0 61.667 -5 87 -15s47 -21.667 65 -35s32.667 -26.5 44 -39.5s19 -22.833 23 -29.5l28 112h43l-7 -26c16.667 11.333 33.667 17 51 17c21.333 0 38 -7 50 -21s15.333 -31.333 10 -52s-17.333 -38.167 -36 -52.5
s-38.667 -21.5 -60 -21.5c-17.333 0 -31.666 5.66699 -42.999 17l-125 -503h-45zM673.003 451.006c0.666992 2.66699 -2.66406 12.1689 -9.99707 28.502s-19.333 33.833 -36 52.5s-38.167 35.5 -64.5 50.5s-58.166 22.5 -95.499 22.5s-71.833 -5.66699 -103.5 -17
s-60 -26.333 -85 -45s-45.833 -40 -62.5 -64s-28.334 -48.667 -35.001 -74c-6 -25.333 -6.33301 -45.666 -1 -60.999s13 -27 23 -35s20 -13.333 30 -16s16.667 -4 20 -4c4 5.33301 9.33301 9.66602 16 12.999s13.5 5.83301 20.5 7.5s13.667 2.83398 20 3.50098
s11.166 1 14.499 1l23 -31c-12 -2 -24.5 -5.83301 -37.5 -11.5s-25.167 -12.834 -36.5 -21.501s-21.333 -18.334 -30 -29.001s-14.334 -22.334 -17.001 -35.001c-4 -15.333 -4.5 -31.333 -1.5 -48s9.83301 -32 20.5 -46s25.5 -25.667 44.5 -35s42.833 -14 71.5 -14
s57 6 85 18s53.333 25.833 76 41.5s41.667 31.5 57 47.5s24.666 28 27.999 36zM839.005 560.008c3.33301 12 1.5 22.5 -5.5 31.5s-17.167 13.5 -30.5 13.5c-10 0 -19.5 -2.83301 -28.5 -8.5s-15.833 -13.167 -20.5 -22.5l-7 -28c0 -9.33301 3.16699 -17 9.5 -23
s14.5 -9 24.5 -9c13.333 0 25.5 4.66699 36.5 14s18.167 20 21.5 32z" />
    <glyph glyph-name="uni0B2C" unicode="&#xb2c;" horiz-adv-x="662" 
d="M709 342c-9.33301 -30 -19.5029 -54.668 -30.5029 -74.001s-20.5 -34.333 -28.5 -45l-42 17l12.5 22c5 8.66699 10 18.167 15 28.5s9.66699 20.833 14 31.5s7.5 20.667 9.5 30c6 24 8.5 50.5 7.5 79.5s-8 56.333 -21 82s-33 47 -60 64s-63.5 25.5 -109.5 25.5
c-30 0 -60.667 -5.66699 -92 -17s-60.666 -26.666 -87.999 -45.999s-51.166 -42.333 -71.499 -69s-34.166 -55 -41.499 -85c-5.33301 -22 -6.5 -41.333 -3.5 -58s8.16699 -31 15.5 -43s15.833 -22 25.5 -30s18.5 -14.333 26.5 -19c22 28.667 46.5 50.834 73.5 66.501
s54.5 23.5 82.5 23.5c20 0 38 -3.66699 54 -11s29 -17.5 39 -30.5s16.667 -28.333 20 -46s2.66602 -36.5 -2.00098 -56.5l-47 -188h-46l21 83c-23.333 -14.667 -43.5 -24.834 -60.5 -30.501s-33.833 -8.5 -50.5 -8.5c-19.333 0 -36.5 3.5 -51.5 10.5s-27.333 16.667 -37 29
s-16.5 27.166 -20.5 44.499s-4 36 0 56l-10 8c-22 12 -40 27 -54 45c-6 8 -11.667 17 -17 27s-9.33301 21.167 -12 33.5s-4 26.166 -4 41.499s2.33301 32 7 50c10.667 42.667 29.334 80.834 56.001 114.501s57 61.834 91 84.501s69 40 105 52s69 18 99 18
c46 0 85.5 -8.33301 118.5 -25s59.333 -39 79 -67s32 -60.833 37 -98.5s2.16699 -77.5 -8.5 -119.5zM463.997 181.999c6.66699 26.667 2.83594 49.334 -11.4971 68.001s-34.833 28 -61.5 28c-12.667 0 -25.334 -2.5 -38.001 -7.5s-24.334 -11.833 -35.001 -20.5
s-20 -18.834 -28 -30.501s-13.667 -24.167 -17 -37.5c-3.33301 -12.667 -3.83301 -24.667 -1.5 -36s6.66602 -21.5 12.999 -30.5s14.5 -16.167 24.5 -21.5s21.333 -8 34 -8c13.333 0 26.5 2.66699 39.5 8s25 12.5 36 21.5s20.5 19.167 28.5 30.5s13.667 23.333 17 36z" />
    <glyph glyph-name="uni0B2D" unicode="&#xb2d;" horiz-adv-x="679" 
d="M638 1l-54.0029 139.998c3.33301 4 9.5 10.833 18.5 20.5s19 22.167 30 37.5s21.833 33.5 32.5 54.5s19.334 44.833 26.001 71.5c10.667 42 13.667 80 9 114s-16 62.833 -34 86.5s-42.167 41.834 -72.5 54.501s-65.833 19 -106.5 19c-37.333 0 -73 -5.5 -107 -16.5
s-64.833 -26.167 -92.5 -45.5s-51.167 -42 -70.5 -68s-32.666 -54 -39.999 -84c-4 -16 -4.5 -29.667 -1.5 -41s7.33301 -20.5 13 -27.5s11.667 -12.167 18 -15.5s11.166 -5.66602 14.499 -6.99902l59 85l37 -31c-7.33301 -7.33301 -16 -17.5 -26 -30.5s-20 -27.667 -30 -44
s-19.667 -34.166 -29 -53.499s-16.333 -39 -21 -59c-5.33301 -20 -5.66602 -37.667 -0.999023 -53s12 -28.166 22 -38.499s21.167 -18 33.5 -23s23.5 -7.5 33.5 -7.5c28 0 52.167 3.83301 72.5 11.5s37.666 17 51.999 28s25.833 22.5 34.5 34.5s15.334 22.333 20.001 31
c-9.33301 -6 -21.5 -13 -36.5 -21s-30.5 -12 -46.5 -12c-17.333 0 -31.333 3.5 -42 10.5s-18.5 16 -23.5 27s-7.5 23.667 -7.5 38s2 28.833 6 43.5c2.66699 10.667 6.5 21.334 11.5 32.001s10.167 20.667 15.5 30s10.5 17.5 15.5 24.5s9.16699 12.5 12.5 16.5l43 -14
l-13 -20c-5.33301 -8 -10.5 -16.833 -15.5 -26.5s-9.83301 -19.5 -14.5 -29.5s-8 -19.667 -10 -29c-3.33301 -14 -3.16602 -25.833 0.500977 -35.5s13.5 -14.5 29.5 -14.5c13.333 0 26.166 2.33301 38.499 7s23 9.83398 32 15.501s16.167 11 21.5 16l8 7.5l26 110h47
l-40 -158c-7.33301 -25.333 -18.833 -48.333 -34.5 -69s-34.5 -38.334 -56.5 -53.001s-46 -26 -72 -34s-53 -12 -81 -12c-20 0 -39 4 -57 12s-33.333 19.167 -46 33.5s-21.667 31.833 -27 52.5s-4.66602 43.667 2.00098 69c3.33301 15.333 8.16602 31.166 14.499 47.499
s12.166 29.5 17.499 39.5l-20.5 10c-9.66699 4.66699 -18.834 12 -27.501 22s-15.167 23.167 -19.5 39.5s-3.16602 37.5 3.50098 63.5c10.667 42.667 28.834 80.667 54.501 114s55.167 61.166 88.5 83.499s68.5 39.333 105.5 51s72.167 17.5 105.5 17.5
c50 0 93.667 -8.16699 131 -24.5s67.333 -38.833 90 -67.5s37.334 -62.5 44.001 -101.5s4.33398 -80.833 -6.99902 -125.5c-5.33301 -20 -11 -38.167 -17 -54.5s-13.333 -31.833 -22 -46.5s-18.334 -29.334 -29.001 -44.001s-23 -30 -37 -46l57 -138h-58z" />
    <glyph glyph-name="uni0B2E" unicode="&#xb2e;" horiz-adv-x="630" 
d="M523 0l107.999 434.001c0 0.666992 -0.666992 5.16699 -2 13.5s-4 18.666 -8 30.999s-9.83301 25.666 -17.5 39.999s-18 27.5 -31 39.5s-29 22 -48 30s-41.5 12 -67.5 12c-35.333 0 -67.833 -5.16699 -97.5 -15.5s-56 -24.666 -79 -42.999s-42.333 -40.166 -58 -65.499
s-27.167 -52.666 -34.5 -81.999c-4.66699 -18.667 -5.5 -34.834 -2.5 -48.501s8.33301 -25.167 16 -34.5s16.334 -17 26.001 -23s18.5 -10.667 26.5 -14c44 21.333 80.5 37.5 109.5 48.5s53.167 17.5 72.5 19.5l19 -37l-22 -7.5c-14.667 -5 -32.334 -11.5 -53.001 -19.5
s-42.334 -17.167 -65.001 -27.5s-42.334 -20.833 -59.001 -31.5s-31 -22.167 -43 -34.5s-21.833 -24.166 -29.5 -35.499s-13.5 -21.5 -17.5 -30.5s-6.66699 -15.833 -8 -20.5c4.66699 0 10.834 -0.666992 18.501 -2s14.834 -3.83301 21.501 -7.5
s11.834 -9.16699 15.501 -16.5s4.16699 -17 1.5 -29c-4 -17.333 -13.167 -29.833 -27.5 -37.5s-29.166 -11.5 -44.499 -11.5c-12 0 -21.5 2.83301 -28.5 8.5s-12 13 -15 22s-4.16699 19.5 -3.5 31.5s2.66699 24.333 6 37c4 16.667 10.833 33 20.5 49s20 30.667 31 44
s21.333 24.666 31 33.999s17.167 16 22.5 20c-5.33301 2 -13.5 6 -24.5 12s-21.167 14.833 -30.5 26.5s-16.333 27 -21 46s-3.33398 42.5 3.99902 70.5c9.33301 36.667 24.5 70.5 45.5 101.5s46 57.667 75 80s61 39.833 96 52.5s70.833 19 107.5 19
c33.333 0 61.833 -4 85.5 -12s43.167 -17.667 58.5 -29s27.333 -22.833 36 -34.5s15 -20.834 19 -27.501l25 97h45l-160 -642h-45z" />
    <glyph glyph-name="uni0B2F" unicode="&#xb2f;" horiz-adv-x="736" 
d="M629 0l26.0039 108.007c-6.66699 -6.66699 -17.167 -15.834 -31.5 -27.501s-31.666 -23.334 -51.999 -35.001s-42.833 -21.834 -67.5 -30.501s-50.667 -13 -78 -13c-35.333 0 -65.833 5.33301 -91.5 16s-46.334 24.5 -62.001 41.5s-26 36.167 -31 57.5
s-4.83301 42.666 0.5 63.999l2 8c0.666992 2.66699 1.66699 5.66699 3 9l-99 -53c14 -13.333 19.333 -27.666 16 -42.999c-4 -16 -11.833 -28.833 -23.5 -38.5s-24.5 -14.5 -38.5 -14.5s-25 5.16699 -33 15.5s-10.333 23.166 -7 38.499
c5.33301 21.333 13.333 38.166 24 50.499s25.667 23.5 45 33.5l137 70c-11.333 4 -22 9.16699 -32 15.5s-18.333 15.166 -25 26.499s-10.834 25.666 -12.501 42.999s0.833008 39 7.5 65c9.33301 38 25.166 71.833 47.499 101.5s48.666 55 78.999 76s63.666 37 99.999 48
s73.5 16.5 111.5 16.5c32.667 0 61.667 -5 87 -15s47 -21.667 65 -35s32.667 -26.5 44 -39.5s19 -22.833 23 -29.5l28 112h43l-160 -642h-45zM332.004 244.007c-9.33301 -8 -17.498 -16.833 -24.498 -26.5s-11.833 -20.167 -14.5 -31.5c-4 -15.333 -4.5 -31.333 -1.5 -48
s9.83301 -32 20.5 -46s25.5 -25.667 44.5 -35s42.833 -14 71.5 -14s57 6 85 18s53.333 25.833 76 41.5s41.667 31.5 57 47.5s25 28 29 36l66 265c0.666992 2.66699 -2.66602 12.167 -9.99902 28.5s-19.333 33.833 -36 52.5s-38.167 35.5 -64.5 50.5
s-58.166 22.5 -95.499 22.5s-72 -5.66699 -104 -17s-60.333 -26.333 -85 -45s-45.334 -40 -62.001 -64s-28.334 -48.667 -35.001 -74c-6 -25.333 -6.33301 -45.666 -1 -60.999s12.833 -27 22.5 -35s19.5 -13.333 29.5 -16s16.667 -4 20 -4
c5.33301 7.33301 15.166 13.666 29.499 18.999s33.166 12 56.499 20l19 -35z" />
    <glyph glyph-name="uni0B30" unicode="&#xb30;" horiz-adv-x="691" 
d="M588 -2l-55.002 139.002c4.66699 4.66699 13.834 13.167 27.501 25.5s28.167 27.166 43.5 44.499s29.833 36.333 43.5 57s23.167 41.667 28.5 63c10.667 43.333 13.667 82.166 9 116.499s-16 63.333 -34 87s-42 41.667 -72 54s-65.333 18.5 -106 18.5
c-32.667 0 -64.834 -6.5 -96.501 -19.5s-60.667 -30 -87 -51s-49 -44.667 -68 -71s-31.833 -53.166 -38.5 -80.499c-5.33301 -20.667 -6.33301 -37.834 -3 -51.501s8.33301 -24.667 15 -33s14 -14.833 22 -19.5s14 -8 18 -10c21.333 16 41.166 27.167 59.499 33.5
s38.5 9.5 60.5 9.5s41.333 -4.16699 58 -12.5s30.334 -19.5 41.001 -33.5s17.667 -30.5 21 -49.5s2.33301 -39.167 -3 -60.5c-5.33301 -22 -14.5 -42.667 -27.5 -62s-28.167 -36 -45.5 -50s-36.5 -25.167 -57.5 -33.5s-42.5 -12.5 -64.5 -12.5
c-21.333 0 -40.5 4.16699 -57.5 12.5s-30.667 19.666 -41 33.999s-17.166 31.166 -20.499 50.499s-2.33301 39.666 3 60.999c4 16.667 8.5 30.334 13.5 41.001s11.167 20.334 18.5 29.001c-4 2.66699 -10.667 7.83398 -20 15.501s-18 17.834 -26 30.501
s-14.167 28.167 -18.5 46.5s-3.5 39.166 2.5 62.499c9.33301 38.667 25.833 74.5 49.5 107.5s51.834 61.5 84.501 85.5s68.167 42.833 106.5 56.5s76.833 20.5 115.5 20.5c37.333 0 73.333 -6 108 -18s64 -31 88 -57s40.333 -59.667 49 -101s5.66699 -91.333 -9 -150
c-5.33301 -22 -14.5 -43.5 -27.5 -64.5s-26.5 -40.167 -40.5 -57.5s-27.167 -32 -39.5 -44s-20.833 -20 -25.5 -24l55 -138zM423.998 154.002c3.33301 14 3.66992 27.167 1.00293 39.5s-7.83398 23.333 -15.501 33s-17.334 17.167 -29.001 22.5s-24.5 8 -38.5 8
s-27.833 -2.66699 -41.5 -8s-26.334 -12.833 -38.001 -22.5s-21.667 -20.667 -30 -33s-14.166 -25.5 -17.499 -39.5c-4 -14.667 -5 -28.5 -3 -41.5s6.16699 -24.5 12.5 -34.5s15 -17.833 26 -23.5s23.833 -8.5 38.5 -8.5s29.167 2.83301 43.5 8.5s27.666 13.5 39.999 23.5
s23 21.5 32 34.5s15.5 26.833 19.5 41.5z" />
    <glyph glyph-name="uni0B32" unicode="&#xb32;" horiz-adv-x="705" 
d="M663 1l-53.999 133.998c5.33301 4.66699 13.166 12.167 23.499 22.5s21.333 23 33 38s22.667 31.833 33 50.5s18.166 38.667 23.499 60c8.66699 34.667 11 69.167 7 103.5s-14.5 65.166 -31.5 92.499s-40.833 49.5 -71.5 66.5s-68.667 25.5 -114 25.5
c-33.333 0 -67.333 -3.16699 -102 -9.5s-67.334 -18 -98.001 -35s-58.167 -40.667 -82.5 -71s-42.5 -69.833 -54.5 -118.5c-3.33301 -14 -3.33301 -27.5 0 -40.5s8.33301 -25 15 -36s13.667 -20.333 21 -28s13 -13.167 17 -16.5c2 2.66699 5.33301 6.83398 10 12.501
s11 11.167 19 16.5s18 10 30 14s26 6 42 6c10.667 0 20.167 -1.5 28.5 -4.5s15.5 -6.33301 21.5 -10s10.833 -7.33398 14.5 -11.001s6.5 -6.16699 8.5 -7.5c2.66699 2 7.5 4.83301 14.5 8.5s14.667 7.33398 23 11.001s16.833 6.83398 25.5 9.50098s16.334 4 23.001 4
c17.333 0 31.833 -2.33301 43.5 -7s20.834 -10.5 27.501 -17.5s11.334 -14.667 14.001 -23s4.5 -16 5.5 -23s1.16699 -13 0.5 -18l-1 -7.5l-47 -191h-51l49 197c0 1.33301 -0.333008 4.33301 -1 9s-2.5 9.5 -5.5 14.5s-7.66699 9.5 -14 13.5s-14.833 6 -25.5 6
c-10 0 -19.167 -2.16699 -27.5 -6.5s-15.166 -9.16602 -20.499 -14.499c-6.66699 -6 -12.334 -12.667 -17.001 -20l-49 -199h-50l50 201l-2 6c-1.33301 4 -3.83301 8.33301 -7.5 13s-9 8.83398 -16 12.501s-16.5 5.5 -28.5 5.5c-10.667 0 -20.167 -2 -28.5 -6
s-15.333 -8.5 -21 -13.5s-10 -9.66699 -13 -14s-4.5 -6.83301 -4.5 -7.5l-49 -197h-49l48 192c-5.33301 2 -13.333 7 -24 15s-20.5 19.333 -29.5 34s-15.667 32.667 -20 54s-2.83301 46 4.5 74c10.667 42.667 27.834 81.167 51.501 115.5s52.5 63.166 86.5 86.499
s72.167 41.333 114.5 54s87.833 19 136.5 19c61.333 0 110.666 -11 147.999 -33s65.166 -50 83.499 -84s28.5 -71.667 30.5 -113s-1.66699 -81.333 -11 -120c-4 -16.667 -10.333 -33.667 -19 -51s-18.167 -33.333 -28.5 -48s-20.5 -27.5 -30.5 -38.5
s-18.667 -18.5 -26 -22.5l53 -134h-55z" />
    <glyph glyph-name="uni0B33" unicode="&#xb33;" horiz-adv-x="688" 
d="M739 353c-2.66699 -9.33301 -6.33594 -19.5029 -11.0029 -30.5029s-9.66699 -21.667 -15 -32l-16 -30c-5.33301 -9.66699 -10 -17.5 -14 -23.5l-42 18c8 9.33301 17 22.833 27 40.5s17.667 36.167 23 55.5c8.66699 34 9.83398 66.167 3.50098 96.5s-18.833 57 -37.5 80
s-43 41.333 -73 55s-64.333 20.5 -103 20.5c-29.333 0 -59.666 -5.16699 -90.999 -15.5s-61 -26 -89 -47s-53.333 -47.667 -76 -80s-39.334 -70.5 -50.001 -114.5c-4 -17.333 -5.5 -33 -4.5 -47s3.66699 -26.167 8 -36.5s9.33301 -19 15 -26s11.167 -11.5 16.5 -13.5
c12 17.333 28.5 32.333 49.5 45s43.167 19 66.5 19c10.667 0 20.167 -1.5 28.5 -4.5s15.5 -6.33301 21.5 -10s10.833 -7.16699 14.5 -10.5s6.5 -5.66602 8.5 -6.99902c3.33301 2 8.33301 4.66699 15 8s14.167 6.83301 22.5 10.5s16.666 6.83398 24.999 9.50098
s15.833 4 22.5 4c26.667 0 46.334 -5 59.001 -15s21.334 -21 26.001 -33s6.83398 -23 6.50098 -33l-0.5 -15l-47 -191h-51l49 197c0 1.33301 -0.333008 4.33301 -1 9s-2.5 9.66699 -5.5 15s-7.66699 10 -14 14s-15.166 6 -26.499 6c-10 0 -19 -2.16699 -27 -6.5
s-14.667 -9.16602 -20 -14.499c-6.66699 -6.66699 -12 -13.667 -16 -21l-49 -199h-52l49 200c0 0.666992 -0.5 3 -1.5 7s-3.33301 8.33301 -7 13s-9 9 -16 13s-16.5 6 -28.5 6c-10 0 -19 -2.16699 -27 -6.5s-15 -9 -21 -14s-10.5 -9.66699 -13.5 -14
s-4.5 -6.83301 -4.5 -7.5l-49 -197h-48l40 164c-4 2 -10.833 7.5 -20.5 16.5s-19 21.5 -28 37.5s-15.5 35.333 -19.5 58s-2.33301 49 5 79c10.667 42.667 27.167 82 49.5 118s49.5 67 81.5 93s68.167 46.333 108.5 61s83.166 22 128.499 22
c42.667 0 81.334 -7.5 116.001 -22.5s63.5 -35.667 86.5 -62s38.667 -57.5 47 -93.5s7.16602 -75.333 -3.50098 -118z" />
    <glyph glyph-name="uni0B35" unicode="&#xb35;" horiz-adv-x="0" 
 />
    <glyph glyph-name="uni0B36" unicode="&#xb36;" horiz-adv-x="695" 
d="M588 0l110.996 445.999c0 0.666992 -4.16699 9.16699 -12.5 25.5s-20.666 34.333 -36.999 54s-36.666 37.5 -60.999 53.5s-52.5 24 -84.5 24c-12 0 -24.167 -2.5 -36.5 -7.5s-23.666 -11.667 -33.999 -20s-19.5 -18 -27.5 -29s-13.333 -22.5 -16 -34.5
c-3.33301 -13.333 -4.5 -23.666 -3.5 -30.999s3.33301 -13.333 7 -18s8.5 -8.5 14.5 -11.5l19 -9.5l68 -37l-33 -34l-139 61h-6c-2 0 -4.33301 0.166992 -7 0.5s-5.66699 0.5 -9 0.5c-9.33301 0 -20.5 -1 -33.5 -3s-26 -6 -39 -12s-25 -15 -36 -27s-18.833 -28 -23.5 -48
c-4 -17.333 -2.83301 -31.833 3.5 -43.5s14.666 -21 24.999 -28s20.666 -12.167 30.999 -15.5s17.166 -5 20.499 -5c40.667 28.667 83.667 43 129 43c21.333 0 40.5 -4.16699 57.5 -12.5s30.833 -19.5 41.5 -33.5s17.834 -30.5 21.501 -49.5s2.83398 -39.167 -2.49902 -60.5
c-5.33301 -22 -14.5 -42.667 -27.5 -62s-28.5 -36 -46.5 -50s-37.5 -25.167 -58.5 -33.5s-42.167 -12.5 -63.5 -12.5s-40.5 4 -57.5 12s-30.833 19 -41.5 33s-17.834 30.5 -21.501 49.5s-2.83398 39.167 2.49902 60.5c3.33301 12.667 6.83301 24.334 10.5 35.001
s10.834 24.667 21.501 42c-5.33301 1.33301 -14.166 4.66602 -26.499 9.99902s-24.333 13 -36 23s-21 23.167 -28 39.5s-7.5 36.166 -1.5 59.499c7.33301 30 18.666 54 33.999 72s31.833 31.833 49.5 41.5s35.334 16 53.001 19s32.834 4.5 45.501 4.5
c4.66699 0 8.83398 -0.166992 12.501 -0.5s6.83398 -0.5 9.50098 -0.5c2 6.66699 6.66699 19.5 14 38.5s18.666 38.333 33.999 58s35 37.167 59 52.5s53.667 23 89 23c26 0 50 -5.33301 72 -16s41.5 -23.167 58.5 -37.5s31 -28.666 42 -42.999s18.833 -24.833 23.5 -31.5
l30 118h45l-160 -642h-45zM451.996 137.999c3.33301 14.667 3.5 28.668 0.5 42.001s-8.66699 25 -17 35s-18.5 18 -30.5 24s-25.333 9 -40 9s-29.334 -2.66699 -44.001 -8s-28.167 -12.666 -40.5 -21.999s-23.166 -20.833 -32.499 -34.5s-16 -28.834 -20 -45.501
c-4 -17.333 -5 -33 -3 -47s6.83301 -26 14.5 -36s17.334 -17.833 29.001 -23.5s25.167 -8.5 40.5 -8.5c14.667 0 29.667 3.16699 45 9.5s29.666 14.666 42.999 24.999s24.833 22.5 34.5 36.5s16.5 28.667 20.5 44z" />
    <glyph glyph-name="uni0B37" unicode="&#xb37;" horiz-adv-x="670" 
d="M563 0l25.999 108.002c-7.33301 -7.33301 -19 -17.333 -35 -30s-35.833 -25 -59.5 -37s-51.334 -22.5 -83.001 -31.5s-66.5 -13.5 -104.5 -13.5c-24 0 -46.5 4 -67.5 12s-39 19.167 -54 33.5s-25.833 31.166 -32.5 50.499s-7 40.333 -1 63
c6 24.667 14.167 44.5 24.5 59.5s21.5 27.5 33.5 37.5c-6.66699 1.33301 -15.667 4.5 -27 9.5s-21.666 12.667 -30.999 23s-16.5 23.5 -21.5 39.5s-4.5 35.667 1.5 59c9.33301 37.333 25.333 72.166 48 104.499s49.667 60.5 81 84.5s65.5 42.833 102.5 56.5
s74.5 20.5 112.5 20.5c39.333 0 72 -5 98 -15s47.333 -21.667 64 -35s29.334 -26.5 38.001 -39.5s15 -22.833 19 -29.5l28 112h46l-160 -642h-46zM674.999 451.002c0.666992 2.66699 -1.66992 12.167 -7.00293 28.5s-15.666 33.833 -30.999 52.5s-36.666 35.5 -63.999 50.5
s-62.666 22.5 -105.999 22.5c-34.667 0 -62 -4.66699 -82 -14s-32.667 -16 -38 -20l268 -359zM302.995 550.002c-4.66699 -2.66699 -13.001 -8.49902 -25.001 -17.499s-24.667 -20.667 -38 -35s-26.166 -31 -38.499 -50s-21.5 -40.167 -27.5 -63.5
c-3.33301 -14 -3 -27 1 -39s10.167 -22.333 18.5 -31s18.333 -15.334 30 -20.001s23.5 -7 35.5 -7c5.33301 0 10.833 0.5 16.5 1.5s11.167 3.16699 16.5 6.5l143 84zM456.994 349.003l-170.999 -97.001c-4.66699 -2.66699 -11 -7 -19 -13s-16.5 -13.5 -25.5 -22.5
s-17.333 -19.5 -25 -31.5s-13.167 -25.333 -16.5 -40c-3.33301 -14 -3 -27.167 1 -39.5s11.5 -23.166 22.5 -32.499s25.5 -16.833 43.5 -22.5s39 -8.5 63 -8.5c26.667 0 52 3.16699 76 9.5s45.833 14.333 65.5 24s37.167 20.167 52.5 31.5s28.333 21.833 39 31.5
s18.667 17.667 24 24s7.66602 9.5 6.99902 9.5z" />
    <glyph glyph-name="uni0B38" unicode="&#xb38;" horiz-adv-x="627" 
d="M515 0l-408.001 123.005l165 108c-6 1.33301 -14.167 3.5 -24.5 6.5s-21.5 7.16699 -33.5 12.5s-23.833 12.166 -35.5 20.499s-21.5 18.666 -29.5 30.999s-13.5 26.666 -16.5 42.999s-1.83301 35.166 3.5 56.499c10.667 44 28.334 81.5 53.001 112.5s52.5 56.5 83.5 76.5
s63.5 34.667 97.5 44s66 14 96 14c32 0 59.167 -4.33301 81.5 -13s40.833 -18.834 55.5 -30.501s26 -23.667 34 -36s13.667 -22.5 17 -30.5l26 104h46l-160 -642h-51zM627.999 434.005c0 0.666992 -0.833984 5.33105 -2.50098 13.998s-4.83398 19.334 -9.50098 32.001
s-11 26.167 -19 40.5s-18.333 27.666 -31 39.999s-27.834 22.5 -45.501 30.5s-38.5 12 -62.5 12c-33.333 0 -65.166 -6 -95.499 -18s-57.5 -27.5 -81.5 -46.5s-44.167 -40.167 -60.5 -63.5s-27.166 -46 -32.499 -68c-4.66699 -19.333 -4.5 -37.166 0.5 -53.499
s13.333 -30.5 25 -42.5s25.834 -21.333 42.501 -28s34 -10 52 -10c3.33301 0 8 1 14 3s12.333 4.33301 19 7c7.33301 2.66699 15.333 6.33398 24 11.001l120 71l24 -32l-302 -189l323 -102z" />
    <glyph glyph-name="uni0B39" unicode="&#xb39;" horiz-adv-x="641" 
d="M676 383c-5.33301 -20 -13.166 -40.666 -23.499 -61.999s-19.5 -38.666 -27.5 -51.999l-37 24c2 4.66699 4.66699 10.5 8 17.5l11 22.5c4 8 7.66699 16.333 11 25s6 17 8 25c6.66699 26 7.83398 52.167 3.50098 78.5s-14 50 -29 71s-35.667 38 -62 51
s-58.5 19.5 -96.5 19.5c-24 0 -49 -3.83301 -75 -11.5s-50.5 -19.167 -73.5 -34.5s-43.5 -34.666 -61.5 -57.999s-31 -50.333 -39 -81c-3.33301 -14 -3.66602 -25.833 -0.999023 -35.5s6.66699 -17.834 12 -24.501s11.5 -12.334 18.5 -17.001s13.167 -8.33398 18.5 -11.001
c9.33301 21.333 22.333 38 39 50s32.667 22.333 48 31l25 -35c-7.33301 -4.66699 -15.833 -10.667 -25.5 -18s-19 -15.333 -28 -24s-17 -17.834 -24 -27.501s-11.5 -19.167 -13.5 -28.5c-6.66699 -26.667 -3.33398 -47.5 9.99902 -62.5s34.333 -22.5 63 -22.5
c12 0 23.833 2.16699 35.5 6.5s22.167 9.5 31.5 15.5s17.5 12 24.5 18l15.5 13l33 133h46l-69 -278h-46l21 86c-8 -4 -16 -8.33301 -24 -13s-16.5 -9 -25.5 -13s-18.833 -7.16699 -29.5 -9.5s-22.667 -3.5 -36 -3.5h-19l-114 -74l330 -51l-31 -38l-402 63l174 113
c-8 6 -15.833 13.667 -23.5 23s-13.834 20.666 -18.501 33.999c-1.33301 4.66699 -2 10.334 -2 17.001s0.5 13.334 1.5 20.001s2.16699 12.834 3.5 18.501s2.33301 10.167 3 13.5c-4 1.33301 -11.167 4.16602 -21.5 8.49902s-20.333 11.5 -30 21.5s-17 23.5 -22 40.5
s-4.16699 38.5 2.5 64.5c8 33.333 22.333 63.833 43 91.5s45.167 51.5 73.5 71.5s59.166 35.667 92.499 47s67 17 101 17c46 0 85 -7.66699 117 -23s57.167 -35.5 75.5 -60.5s30 -53.5 35 -85.5s3.5 -64.333 -4.5 -97z" />
    <glyph glyph-name="uni0B3C" unicode="&#xb3c;" horiz-adv-x="0" 
d="M-331 -132c-4 -14.667 -12.332 -27.334 -24.999 -38.001s-26.667 -16 -42 -16c-16 0 -27.833 5.33301 -35.5 16s-9.5 23.334 -5.5 38.001c3.33301 15.333 11.666 28.5 24.999 39.5s28 16.5 44 16.5c15.333 0 26.5 -5.5 33.5 -16.5s8.83301 -24.167 5.5 -39.5z" />
    <glyph glyph-name="uni0B3D" unicode="&#xb3d;" horiz-adv-x="464" 
d="M321 0l-238 183l256 150l-180 137l279 172h61l-269 -170l181 -137l-252 -150l231 -185h-69z" />
    <glyph glyph-name="uni0B3E" unicode="&#xb3e;" horiz-adv-x="178" 
d="M71 0l160 642h46l-160 -642h-46z" />
    <glyph glyph-name="uni0B3F" unicode="&#xb3f;" horiz-adv-x="0" 
d="M56 699c-25.333 30 -52.168 51.167 -80.501 63.5s-63.5 18.5 -105.5 18.5c-23.333 0 -44.833 -1.5 -64.5 -4.5s-39 -7.66699 -58 -14s-38.167 -14.833 -57.5 -25.5s-39.666 -23.334 -60.999 -38.001l-22 35c44.667 32.667 87 56.834 127 72.501s84.667 23.5 134 23.5
c51.333 0 94.333 -7.5 129 -22.5s66.667 -40.167 96 -75.5z" />
    <glyph glyph-name="uni0B40" unicode="&#xb40;" horiz-adv-x="263" 
d="M156 0l143 574l-108 -59l-17 35l190 102l-162 -652h-46z" />
    <glyph glyph-name="uni0B41" unicode="&#xb41;" horiz-adv-x="0" 
d="M165 -156c-4 -5.33301 -10.4971 -12.4912 -19.4971 -21.4912s-19.333 -17.833 -31 -26.5s-24.334 -16.334 -38.001 -23.001s-27.5 -10 -41.5 -10c-15.333 0 -29.5 2.33301 -42.5 7s-25 10.167 -36 16.5s-20.5 12.666 -28.5 18.999s-14.667 11.166 -20 14.499
c-3.33301 -7.33301 -9.66602 -17 -18.999 -29s-21.333 -23.833 -36 -35.5s-31.334 -21.834 -50.001 -30.501s-38.667 -13 -60 -13c-17.333 0 -32.833 2.83301 -46.5 8.5s-24.834 13.5 -33.501 23.5s-14.334 22.167 -17.001 36.5s-1.66699 30.5 3 48.5
c4 14.667 10.667 29 20 43s20.5 26.167 33.5 36.5s27.333 18.666 43 24.999s31.5 9.5 47.5 9.5c22.667 0 43.167 -4.66699 61.5 -14s31.5 -18 39.5 -26l24 97h41l-32 -129c2 -2 7 -6.33301 15 -13s17.333 -13.834 28 -21.501s22 -14.334 34 -20.001s23.333 -8.5 34 -8.5
c9.33301 0 19 2.16699 29 6.5s19.667 9.66602 29 15.999s18 13.166 26 20.499l21 20zM-118.997 -154.991c-1.33301 4 -4.33301 8.99902 -9 14.999s-11 12 -19 18s-17.5 11.167 -28.5 15.5s-23.167 6.5 -36.5 6.5c-10 0 -20 -2 -30 -6s-19.167 -9.33301 -27.5 -16
s-15.5 -14.334 -21.5 -23.001s-10.333 -18 -13 -28c-6 -25.333 -2.33301 -43.166 11 -53.499s30 -15.5 50 -15.5c21.333 0 43 7.33301 65 22s41.667 36.334 59 65.001z" />
    <glyph glyph-name="uni0B42" unicode="&#xb42;" horiz-adv-x="0" 
d="M256 -130c-4.66699 -4.66699 -11.502 -10.835 -20.502 -18.502s-19.667 -15.167 -32 -22.5s-26 -13.666 -41 -18.999s-30.833 -8 -47.5 -8s-30.5 2.66699 -41.5 8s-22.5 15.333 -34.5 30c-5.33301 -6.66699 -14 -15.834 -26 -27.501s-26.167 -23 -42.5 -34
s-34.5 -20.667 -54.5 -29s-40.667 -12.5 -62 -12.5c-18 0 -34.667 3 -50 9s-28 14.333 -38 25s-16.833 23.667 -20.5 39s-3.16699 32 1.5 50c4 15.333 10.667 29.666 20 42.999s20.833 25 34.5 35s28.667 17.833 45 23.5s33.166 8.5 50.499 8.5h10l7 30h42l-18 -74l-23.5 2
c-7.66699 0.666992 -15.167 1 -22.5 1c-21.333 0 -41.666 -6.5 -60.999 -19.5s-32 -31.167 -38 -54.5c-3.33301 -12 -3.33301 -22.667 0 -32s8.33301 -17.166 15 -23.499s14.667 -11.166 24 -14.499s19 -5 29 -5c20.667 0 40.334 4.5 59.001 13.5s35.834 20 51.501 33
s29.667 27 42 42s22.833 28.5 31.5 40.5c5.33301 -21.333 15.5 -37.166 30.5 -47.499s33.167 -15.5 54.5 -15.5c10.667 0 21.167 1.66699 31.5 5s20 7.33301 29 12s16.833 9.5 23.5 14.5s12 9.5 16 13.5l26 -21v0z" />
    <glyph glyph-name="uni0B43" unicode="&#xb43;" horiz-adv-x="0" 
d="M88 -173c-5.33301 -21.333 -14.3301 -38.832 -26.9971 -52.499s-27.5 -24.5 -44.5 -32.5s-35.167 -13.667 -54.5 -17s-38.333 -5 -57 -5c-20 0 -39 3 -57 9s-33.167 14.667 -45.5 26s-21 25.333 -26 42s-4.83301 35.667 0.5 57c4.66699 18 14.5 36.5 29.5 55.5
s31 36.333 48 52s33.167 29 48.5 40l30 21.5l36 -21c-9.33301 -4.66699 -21.333 -12.167 -36 -22.5s-29.334 -22.333 -44.001 -36s-28 -28.334 -40 -44.001s-20 -30.834 -24 -45.501c-3.33301 -13.333 -3.16602 -25.666 0.500977 -36.999s9.66699 -21.166 18 -29.499
s18.5 -14.833 30.5 -19.5s25 -7 39 -7c12.667 0 26 1 40 3s27.167 5.33301 39.5 10s23.166 11 32.499 19s15.666 18 18.999 30c2.66699 10.667 2.66699 19.667 0 27s-6.83398 13.333 -12.501 18s-12.5 8 -20.5 10s-16 3 -24 3c-7.33301 0 -15.333 -0.5 -24 -1.5
s-17.667 -3.16699 -27 -6.5l32 42l18 2c6 0.666992 12 1 18 1c14 0 26.833 -2 38.5 -6s21.5 -9.66699 29.5 -17s13.667 -16.833 17 -28.5s3 -24.834 -1 -39.501z" />
    <glyph glyph-name="uni0B56.126" unicode="&#xb44;" horiz-adv-x="0" 
d="M-117 -197c-30 -19.333 -52.332 -40.3311 -66.999 -62.998s-21.667 -43.5 -21 -62.5s8.66699 -34.833 24 -47.5s37.666 -19 66.999 -19c12.667 0 25.667 1.5 39 4.5s25.666 7.66699 36.999 14s21.333 14 30 23s14.334 19.5 17.001 31.5
c2.66699 10.667 2.66699 19.667 0 27s-7 13.333 -13 18s-13 8 -21 10s-16 3 -24 3c-7.33301 0 -15.333 -0.5 -24 -1.5s-17.667 -3.16699 -27 -6.5l33 42c5.33301 0.666992 11 1.33398 17 2.00098s12.333 1 19 1c13.333 0 26 -2 38 -6s22 -9.66699 30 -17
s13.667 -16.833 17 -28.5s3 -24.834 -1 -39.501c-5.33301 -21.333 -14 -39.333 -26 -54s-26 -26.834 -42 -36.501s-33.333 -16.667 -52 -21s-37.334 -6.5 -56.001 -6.5c-37.333 0 -66.333 7.66699 -87 23s-33.5 34.166 -38.5 56.499s-2.16699 46.333 8.5 72
s29.334 48.834 56.001 69.501c-15.333 13.333 -26 26 -32 38s-6.66699 27 -2 45s13.167 35 25.5 51s26 30.333 41 43s30.167 23.667 45.5 33s28.333 16.666 39 21.999l36 -21c-9.33301 -4.66699 -21.166 -11.167 -35.499 -19.5s-28.666 -18 -42.999 -29
s-27.333 -23.333 -39 -37s-18.834 -27.834 -21.501 -42.501c-1.33301 -7.33301 -0.833008 -14.166 1.5 -20.499s6.16602 -12.5 11.499 -18.5s11.5 -11.667 18.5 -17s14.167 -10.333 21.5 -15z" />
    <glyph glyph-name="uni0B47" unicode="&#xb47;" horiz-adv-x="492" 
d="M496 156c-4 -17.333 -11.833 -35.832 -23.5 -55.499s-26.167 -37.667 -43.5 -54s-37 -30 -59 -41s-45.333 -16.5 -70 -16.5c-42.667 0 -77.834 10 -105.501 30s-48.5 46.167 -62.5 78.5s-21.5 69.166 -22.5 110.499s3.83301 83 14.5 125
c11.333 46.667 27.5 89.334 48.5 128.001s45.667 72 74 100s60.166 49.667 95.499 65s73 23 113 23c28 0 50.667 -4.5 68 -13.5s30.666 -19.333 39.999 -31s15.666 -23.334 18.999 -35.001s5.33301 -20.167 6 -25.5l-43 -29c-1.33301 6.66699 -3.83301 15 -7.5 25
s-9.33398 19.833 -17.001 29.5s-17.667 18 -30 25s-27.833 10.5 -46.5 10.5c-28 0 -53.667 -5 -77 -15s-44.166 -22.5 -62.499 -37.5s-34.5 -31.833 -48.5 -50.5s-25.833 -36.5 -35.5 -53.5s-17.167 -32.333 -22.5 -46s-8.66602 -23.167 -9.99902 -28.5
c2.66699 0 7.33398 0.333008 14.001 1s13.834 1.16699 21.501 1.5s15.667 0.833008 24 1.5s15.833 1 22.5 1c40 0 75.667 -6.16699 107 -18.5s57 -28.833 77 -49.5s33.833 -44.5 41.5 -71.5s7.83398 -54.833 0.500977 -83.5zM449 165.001
c6 24 3.99902 46.5029 -6.00098 67.5029s-24.833 39 -44.5 54s-42.334 26.833 -68.001 35.5s-51.167 13 -76.5 13c-6.66699 0 -13.834 -0.333008 -21.501 -1l-22.5 -2c-7.33301 -0.666992 -14 -1.33398 -20 -2.00098s-10.333 -1.33398 -13 -2.00098
c-0.666992 -2.66699 -2.5 -11.834 -5.5 -27.501s-5 -34.334 -6 -56.001s-0.333008 -44.667 2 -69s8.5 -46.666 18.5 -66.999s24.667 -37.333 44 -51s45.666 -20.5 78.999 -20.5c14.667 0 29.334 3.33301 44.001 10s28.334 15.667 41.001 27s23.834 24.833 33.501 40.5
s16.834 32.5 21.501 50.5z" />
    <glyph glyph-name="uni0B48" unicode="&#xb48;" horiz-adv-x="1161" 
d="M496 156c-4 -17.333 -11.833 -35.832 -23.5 -55.499s-26.167 -37.667 -43.5 -54s-37 -30 -59 -41s-45.333 -16.5 -70 -16.5c-42.667 0 -77.834 10 -105.501 30s-48.5 46.167 -62.5 78.5s-21.5 69.166 -22.5 110.499s3.83301 83 14.5 125
c11.333 46.667 27.5 89.334 48.5 128.001s45.667 72 74 100s60.166 49.667 95.499 65s73 23 113 23c28 0 50.667 -4.5 68 -13.5s30.666 -19.333 39.999 -31s15.666 -23.334 18.999 -35.001s5.33301 -20.167 6 -25.5l-43 -29c-1.33301 6.66699 -3.83301 15 -7.5 25
s-9.33398 19.833 -17.001 29.5s-17.667 18 -30 25s-27.833 10.5 -46.5 10.5c-28 0 -53.667 -5 -77 -15s-44.166 -22.5 -62.499 -37.5s-34.5 -31.833 -48.5 -50.5s-25.833 -36.5 -35.5 -53.5s-17.167 -32.333 -22.5 -46s-8.66602 -23.167 -9.99902 -28.5
c2.66699 0 7.33398 0.333008 14.001 1s13.834 1.16699 21.501 1.5s15.667 0.833008 24 1.5s15.833 1 22.5 1c40 0 75.667 -6.16699 107 -18.5s57 -28.833 77 -49.5s33.833 -44.5 41.5 -71.5s7.83398 -54.833 0.500977 -83.5zM449 165.001
c6 24 3.99902 46.5029 -6.00098 67.5029s-24.833 39 -44.5 54s-42.334 26.833 -68.001 35.5s-51.167 13 -76.5 13c-6.66699 0 -13.834 -0.333008 -21.501 -1l-22.5 -2c-7.33301 -0.666992 -14 -1.33398 -20 -2.00098s-10.333 -1.33398 -13 -2.00098
c-0.666992 -2.66699 -2.5 -11.834 -5.5 -27.501s-5 -34.334 -6 -56.001s-0.333008 -44.667 2 -69s8.5 -46.666 18.5 -66.999s24.667 -37.333 44 -51s45.666 -20.5 78.999 -20.5c14.667 0 29.334 3.33301 44.001 10s28.334 15.667 41.001 27s23.834 24.833 33.501 40.5
s16.834 32.5 21.501 50.5zM1319 768.004c-3.33301 -12.667 -8.33203 -24.501 -14.999 -35.501s-13.5 -21.167 -20.5 -30.5l-19 -25c-5.66699 -7.33301 -9.16699 -13.666 -10.5 -18.999c-0.666992 -2 -1.16699 -4 -1.5 -6s-0.5 -5.33301 -0.5 -10h-44
c-0.666992 0 -1.66699 0.5 -3 1.5s-1.33301 4.5 0 10.5c2.66699 10 7.16699 18.833 13.5 26.5s13 15.334 20 23.001s13.667 16 20 25s11.166 19.833 14.499 32.5c3.33301 13.333 2.5 23.833 -2.5 31.5s-12 13.5 -21 17.5s-19.333 6.5 -31 7.5s-22.5 1.5 -32.5 1.5
c-13.333 0 -26.5 -2 -39.5 -6l-40.5 -13c-14 -4.66699 -28.333 -9 -43 -13s-30 -6 -46 -6c-17.333 0 -33.333 2.33301 -48 7s-28 10 -40 16s-22.5 12.167 -31.5 18.5s-15.833 11.5 -20.5 15.5l26 43c4.66699 -4 11 -9 19 -15s17.167 -11.833 27.5 -17.5
s21.833 -10.5 34.5 -14.5s26 -6 40 -6c18 0 35 2 51 6s31 8.16699 45 12.5l40.5 12.5c13 4 25.833 6 38.5 6c18.667 0 36.167 -2.33301 52.5 -7s30 -11.334 41 -20.001s19 -19 24 -31s5.83301 -25 2.5 -39z" />
    <glyph glyph-name="uni0B4B" unicode="&#xb4b;" horiz-adv-x="1151" 
d="M496 156c-4 -17.333 -11.833 -35.832 -23.5 -55.499s-26.167 -37.667 -43.5 -54s-37 -30 -59 -41s-45.333 -16.5 -70 -16.5c-42.667 0 -77.834 10 -105.501 30s-48.5 46.167 -62.5 78.5s-21.5 69.166 -22.5 110.499s3.83301 83 14.5 125
c11.333 46.667 27.5 89.334 48.5 128.001s45.667 72 74 100s60.166 49.667 95.499 65s73 23 113 23c28 0 50.667 -4.5 68 -13.5s30.666 -19.333 39.999 -31s15.666 -23.334 18.999 -35.001s5.33301 -20.167 6 -25.5l-43 -29c-1.33301 6.66699 -3.83301 15 -7.5 25
s-9.33398 19.833 -17.001 29.5s-17.667 18 -30 25s-27.833 10.5 -46.5 10.5c-28 0 -53.667 -5 -77 -15s-44.166 -22.5 -62.499 -37.5s-34.5 -31.833 -48.5 -50.5s-25.833 -36.5 -35.5 -53.5s-17.167 -32.333 -22.5 -46s-8.66602 -23.167 -9.99902 -28.5
c2.66699 0 7.33398 0.333008 14.001 1s13.834 1.16699 21.501 1.5s15.667 0.833008 24 1.5s15.833 1 22.5 1c40 0 75.667 -6.16699 107 -18.5s57 -28.833 77 -49.5s33.833 -44.5 41.5 -71.5s7.83398 -54.833 0.500977 -83.5zM449 165.001
c6 24 3.99902 46.5029 -6.00098 67.5029s-24.833 39 -44.5 54s-42.334 26.833 -68.001 35.5s-51.167 13 -76.5 13c-6.66699 0 -13.834 -0.333008 -21.501 -1l-22.5 -2c-7.33301 -0.666992 -14 -1.33398 -20 -2.00098s-10.333 -1.33398 -13 -2.00098
c-0.666992 -2.66699 -2.5 -11.834 -5.5 -27.501s-5 -34.334 -6 -56.001s-0.333008 -44.667 2 -69s8.5 -46.666 18.5 -66.999s24.667 -37.333 44 -51s45.666 -20.5 78.999 -20.5c14.667 0 29.334 3.33301 44.001 10s28.334 15.667 41.001 27s23.834 24.833 33.501 40.5
s16.834 32.5 21.501 50.5zM1055 0.00390625l160 642h46l-160 -642h-46z" />
    <glyph glyph-name="uni0B4C" unicode="&#xb4c;" horiz-adv-x="1180" 
d="M496 156c-4 -17.333 -11.833 -35.832 -23.5 -55.499s-26.167 -37.667 -43.5 -54s-37 -30 -59 -41s-45.333 -16.5 -70 -16.5c-42.667 0 -77.834 10 -105.501 30s-48.5 46.167 -62.5 78.5s-21.5 69.166 -22.5 110.499s3.83301 83 14.5 125
c11.333 46.667 27.5 89.334 48.5 128.001s45.667 72 74 100s60.166 49.667 95.499 65s73 23 113 23c28 0 50.667 -4.5 68 -13.5s30.666 -19.333 39.999 -31s15.666 -23.334 18.999 -35.001s5.33301 -20.167 6 -25.5l-43 -29c-1.33301 6.66699 -3.83301 15 -7.5 25
s-9.33398 19.833 -17.001 29.5s-17.667 18 -30 25s-27.833 10.5 -46.5 10.5c-28 0 -53.667 -5 -77 -15s-44.166 -22.5 -62.499 -37.5s-34.5 -31.833 -48.5 -50.5s-25.833 -36.5 -35.5 -53.5s-17.167 -32.333 -22.5 -46s-8.66602 -23.167 -9.99902 -28.5
c2.66699 0 7.33398 0.333008 14.001 1s13.834 1.16699 21.501 1.5s15.667 0.833008 24 1.5s15.833 1 22.5 1c40 0 75.667 -6.16699 107 -18.5s57 -28.833 77 -49.5s33.833 -44.5 41.5 -71.5s7.83398 -54.833 0.500977 -83.5zM449 165.001
c6 24 3.99902 46.5029 -6.00098 67.5029s-24.833 39 -44.5 54s-42.334 26.833 -68.001 35.5s-51.167 13 -76.5 13c-6.66699 0 -13.834 -0.333008 -21.501 -1l-22.5 -2c-7.33301 -0.666992 -14 -1.33398 -20 -2.00098s-10.333 -1.33398 -13 -2.00098
c-0.666992 -2.66699 -2.5 -11.834 -5.5 -27.501s-5 -34.334 -6 -56.001s-0.333008 -44.667 2 -69s8.5 -46.666 18.5 -66.999s24.667 -37.333 44 -51s45.666 -20.5 78.999 -20.5c14.667 0 29.334 3.33301 44.001 10s28.334 15.667 41.001 27s23.834 24.833 33.501 40.5
s16.834 32.5 21.501 50.5zM1329 761.004c-4 -16.667 -9.33398 -30.5039 -16.001 -41.5039s-13.334 -20.167 -20.001 -27.5c-7.33301 -8 -15.333 -14.333 -24 -19l-3 -5l-166 -668h-46l167 673c10.667 9.33301 23 20.833 37 34.5s23.333 30.5 28 50.5
c5.33301 21.333 3.16602 36.833 -6.50098 46.5s-23.5 14.5 -41.5 14.5c-12 0 -26.333 -1.66699 -43 -5s-33.834 -7.16602 -51.501 -11.499s-35 -8.16602 -52 -11.499s-32.167 -5 -45.5 -5c-20.667 0 -39.167 2 -55.5 6s-30.666 8.66699 -42.999 14
s-22.666 10.833 -30.999 16.5s-14.5 10.167 -18.5 13.5l27 39c5.33301 -4 12.333 -8.83301 21 -14.5s18.5 -11.167 29.5 -16.5s22.667 -9.83301 35 -13.5s24.833 -5.5 37.5 -5.5c20.667 0 39.334 1.83301 56.001 5.5s32.167 7.83398 46.5 12.501s28 8.83398 41 12.501
s26.167 5.5 39.5 5.5c82.667 0 115.334 -33.333 98.001 -100z" />
    <glyph glyph-name="uni0B4D" unicode="&#xb4d;" horiz-adv-x="0" 
d="M4 -258l-162 247h77l118 -250z" />
    <glyph glyph-name="uni0B4E" unicode="&#xb4e;" horiz-adv-x="662" 
d="M709 342c-9.33301 -30 -19.5029 -54.668 -30.5029 -74.001s-20.5 -34.333 -28.5 -45l-42 17l12.5 22c5 8.66699 10 18.167 15 28.5s9.66699 20.833 14 31.5s7.5 20.667 9.5 30c6 24 8.5 50.5 7.5 79.5s-8 56.333 -21 82s-33 47 -60 64s-63.5 25.5 -109.5 25.5
c-30 0 -60.667 -5.66699 -92 -17s-60.666 -26.666 -87.999 -45.999s-51.166 -42.333 -71.499 -69s-34.166 -55 -41.499 -85c-5.33301 -22 -6.5 -41.333 -3.5 -58s8.16699 -31 15.5 -43s15.833 -22 25.5 -30s18.5 -14.333 26.5 -19c22 28.667 46.5 50.834 73.5 66.501
s54.5 23.5 82.5 23.5c20 0 38 -3.66699 54 -11s29 -17.5 39 -30.5s16.667 -28.333 20 -46s2.66602 -36.5 -2.00098 -56.5l-47 -188h-46l21 83c-23.333 -14.667 -43.5 -24.834 -60.5 -30.501s-33.833 -8.5 -50.5 -8.5c-19.333 0 -36.5 3.5 -51.5 10.5s-27.333 16.667 -37 29
s-16.5 27.166 -20.5 44.499s-4 36 0 56l-10 8c-22 12 -40 27 -54 45c-6 8 -11.667 17 -17 27s-9.33301 21.167 -12 33.5s-4 26.166 -4 41.499s2.33301 32 7 50c10.667 42.667 29.334 80.834 56.001 114.501s57 61.834 91 84.501s69 40 105 52s69 18 99 18
c46 0 85.5 -8.33301 118.5 -25s59.333 -39 79 -67s32 -60.833 37 -98.5s2.16699 -77.5 -8.5 -119.5zM463.997 181.999c6.66699 26.667 2.83594 49.334 -11.4971 68.001s-34.833 28 -61.5 28c-12.667 0 -25.334 -2.5 -38.001 -7.5s-24.334 -11.833 -35.001 -20.5
s-20 -18.834 -28 -30.501s-13.667 -24.167 -17 -37.5c-3.33301 -12.667 -3.83301 -24.667 -1.5 -36s6.66602 -21.5 12.999 -30.5s14.5 -16.167 24.5 -21.5s21.333 -8 34 -8c13.333 0 26.5 2.66699 39.5 8s25 12.5 36 21.5s20.5 19.167 28.5 30.5s13.667 23.333 17 36z
M404.999 180.999c-2.66699 -9.33301 -8.5 -17.666 -17.5 -24.999s-18.5 -11 -28.5 -11c-9.33301 0 -16.833 3.66699 -22.5 11s-7.16699 15.666 -4.5 24.999c2 9.33301 7.5 17.5 16.5 24.5s18.167 10.5 27.5 10.5c10 0 17.833 -3.5 23.5 -10.5s7.5 -15.167 5.5 -24.5z" />
    <glyph glyph-name="uni0B56" unicode="&#xb56;" horiz-adv-x="0" 
d="M175 768c-3.33301 -12.667 -8.33301 -24.501 -15 -35.501s-13.5 -21.167 -20.5 -30.5l-19 -25c-5.66699 -7.33301 -9.16699 -13.666 -10.5 -18.999c-0.666992 -2 -1.16699 -4 -1.5 -6s-0.5 -5.33301 -0.5 -10h-44c-0.666992 0 -1.66699 0.5 -3 1.5s-1.33301 4.5 0 10.5
c2.66699 10 7.16699 18.833 13.5 26.5s13 15.334 20 23.001s13.667 16 20 25s11.166 19.833 14.499 32.5c3.33301 13.333 2.5 23.833 -2.5 31.5s-12 13.5 -21 17.5s-19.333 6.5 -31 7.5s-22.5 1.5 -32.5 1.5c-12.667 0 -25.5 -2 -38.5 -6l-40.5 -13
c-14 -4.66699 -28.333 -9 -43 -13s-30 -6 -46 -6c-17.333 0 -33.333 2.33301 -48 7s-28 10 -40 16s-22.333 12.167 -31 18.5l-21 15.5l26 43c4.66699 -4 11 -9 19 -15s17.167 -11.833 27.5 -17.5s21.833 -10.5 34.5 -14.5s26 -6 40 -6c18 0 35 2 51 6s31 8.16699 45 12.5
l40 12.5c12.667 4 25.334 6 38.001 6c18.667 0 36.167 -2.33301 52.5 -7s30 -11.334 41 -20.001s19 -19 24 -31s5.83301 -25 2.5 -39z" />
    <glyph glyph-name="uni0B57" unicode="&#xb57;" horiz-adv-x="165" 
d="M345 761c-4 -16.667 -9.33496 -30.5039 -16.002 -41.5039s-13.334 -20.167 -20.001 -27.5c-7.33301 -8 -15.333 -14.333 -24 -19l-3 -5l-166 -668h-46l167 673c10.667 9.33301 23 20.833 37 34.5s23.333 30.5 28 50.5c5.33301 21.333 3.16602 36.833 -6.50098 46.5
s-23.5 14.5 -41.5 14.5c-12 0 -26.333 -1.66699 -43 -5s-33.834 -7.16602 -51.501 -11.499s-35 -8.16602 -52 -11.499s-32.167 -5 -45.5 -5c-20 0 -38.167 2 -54.5 6s-30.666 8.66699 -42.999 14s-22.666 10.833 -30.999 16.5s-14.5 10.167 -18.5 13.5l27 39
c5.33301 -4 12.333 -8.83301 21 -14.5s18.334 -11.167 29.001 -16.5s22.167 -9.83301 34.5 -13.5s24.833 -5.5 37.5 -5.5c20.667 0 39.334 1.83301 56.001 5.5s32.167 7.83398 46.5 12.501s28 8.83398 41 12.501s26.167 5.5 39.5 5.5c82.667 0 115.334 -33.333 98.001 -100z
" />
    <glyph glyph-name="uni0B5C" unicode="&#xb5c;" horiz-adv-x="652" 
d="M713 347c-7.33301 -28.667 -17.0039 -51.3311 -29.0039 -67.998s-22.667 -29 -32 -37l-34 25c4.66699 6.66699 12.167 16 22.5 28s18.166 29.667 23.499 53c9.33301 37.333 11.5 71.666 6.5 102.999s-16.167 58.166 -33.5 80.499s-40.166 39.833 -68.499 52.5
s-61.166 19 -98.499 19c-34 0 -66.833 -6.66699 -98.5 -20s-60.334 -30.5 -86.001 -51.5s-47.5 -44.5 -65.5 -70.5s-30 -51.333 -36 -76c-5.33301 -21.333 -5.66602 -38.333 -0.999023 -51s11 -22.5 19 -29.5s16.167 -11.667 24.5 -14s13.833 -3.5 16.5 -3.5l18.5 14.5
c9.66699 7.66699 21.334 15.667 35.001 24s28.667 16.333 45 24s32.5 12.834 48.5 15.501l27 -34c-14.667 -4 -31.667 -10 -51 -18s-38.333 -18.833 -57 -32.5s-35.5 -30 -50.5 -49s-25.5 -40.833 -31.5 -65.5c-4.66699 -18 -5.16699 -34.5 -1.5 -49.5
s10.334 -28.167 20.001 -39.5s21.834 -20.166 36.501 -26.499s31 -9.5 49 -9.5c19.333 0 38 3.5 56 10.5s34.5 16.333 49.5 28s27.667 25.5 38 41.5s17.833 33 22.5 51c4 15.333 3.83301 30.166 -0.5 44.499s-9.83301 26.166 -16.5 35.499l-89 -75l-33 35l193 155l28 -37
l-57 -43c3.33301 -3.33301 7.16602 -8.5 11.499 -15.5s8.33301 -15.5 12 -25.5s6 -21.167 7 -33.5s-0.166992 -25.5 -3.5 -39.5c-7.33301 -28 -18.833 -53.167 -34.5 -75.5s-34 -41.333 -55 -57s-43.667 -27.834 -68 -36.501s-48.166 -13 -71.499 -13
c-30 0 -55.667 5.16699 -77 15.5s-38.333 24 -51 41s-20.667 36.333 -24 58s-2 44.167 4 67.5c4.66699 18 10 32 16 42s11.667 18.667 17 26c-6.66699 1.33301 -15.5 4.33301 -26.5 9s-21 12.334 -30 23.001s-15.5 24.834 -19.5 42.501s-2.66699 40.167 4 67.5
c10 40.667 28 77.667 54 111s55.667 61.666 89 84.999s68.833 41.333 106.5 54s73.167 19 106.5 19c42.667 0 80.5 -7.5 113.5 -22.5s59.5 -36 79.5 -63s33 -59.167 39 -96.5s3.33301 -78.333 -8 -123zM334.996 -131.997c-4 -14.667 -12.499 -27.334 -25.499 -38.001
s-26.833 -16 -41.5 -16c-16 0 -27.833 5.33301 -35.5 16s-9.5 23.334 -5.5 38.001c3.33301 15.333 11.666 28.5 24.999 39.5s28 16.5 44 16.5c14.667 0 25.667 -5.5 33 -16.5s9.33301 -24.167 6 -39.5z" />
    <glyph glyph-name="uni0B5D" unicode="&#xb5d;" horiz-adv-x="669" 
d="M732 349c-3.33301 -13.333 -8.1709 -25.3311 -14.5039 -35.998s-13.5 -22 -21.5 -34l-34 17l14 26.5c4 7.66699 7 16.167 9 25.5c8.66699 34.667 10 67.167 4 97.5s-18.667 57 -38 80s-45.5 41.167 -78.5 54.5s-72.167 20 -117.5 20
c-27.333 0 -55.666 -6.16699 -84.999 -18.5s-56.833 -28.833 -82.5 -49.5s-48.167 -44.167 -67.5 -70.5s-32.333 -53.833 -39 -82.5c-3.33301 -14 -3.33301 -26.333 0 -37s8.16602 -19.667 14.499 -27s12.833 -13.166 19.5 -17.499s11.334 -6.83301 14.001 -7.5
c2.66699 2 7.33398 6.16699 14.001 12.5s14.834 13.5 24.501 21.5s20.5 16 32.5 24s24.667 15 38 21l28 -33c-10 -5.33301 -22.833 -12.666 -38.5 -21.999s-31.334 -21 -47.001 -35s-30.167 -30 -43.5 -48s-22.666 -38.333 -27.999 -61
c-5.33301 -20 -6.16602 -38.167 -2.49902 -54.5s10.334 -30.333 20.001 -42s21.5 -20.5 35.5 -26.5s29 -9 45 -9c2.66699 0 5.33398 0.166992 8.00098 0.5s6.33398 1.16602 11.001 2.49902c-0.666992 4.66699 -1.33398 11.667 -2.00098 21s-1 19.666 -1 30.999
s0.333008 23 1 35s2 22.667 4 32c4.66699 20 12.167 39 22.5 57s22.5 33.667 36.5 47s29.5 24 46.5 32s34.833 12 53.5 12c36 0 62 -11.167 78 -33.5s19.667 -50.166 11 -83.499c-6 -25.333 -16.833 -48.5 -32.5 -69.5s-32.5 -39.167 -50.5 -54.5
s-35.833 -27.833 -53.5 -37.5s-31.834 -15.834 -42.501 -18.501c10 -9.33301 17.833 -16.333 23.5 -21s10.334 -8.16699 14.001 -10.5s7.16699 -4.16602 10.5 -5.49902s7.66602 -3.33301 12.999 -6l-37 -36c-15.333 7.33301 -30 17.166 -44 29.499s-23.667 23.833 -29 34.5
c-4 -1.33301 -10.833 -2.83301 -20.5 -4.5s-21.167 -2.5 -34.5 -2.5c-31.333 0 -56.5 6.16699 -75.5 18.5s-33.5 27.833 -43.5 46.5s-15.667 38.5 -17 59.5s0 40.5 4 58.5c4.66699 18 10 33 16 45s11.667 22 17 30c-4.66699 2 -11.5 5.66699 -20.5 11
s-17.5 13.166 -25.5 23.499s-13.833 23.666 -17.5 39.999s-2.5 36.833 3.5 61.5c10.667 42.667 28.5 80.667 53.5 114s53.5 61.166 85.5 83.499s65.833 39.333 101.5 51s69.5 17.5 101.5 17.5c44.667 0 85.167 -7.16699 121.5 -21.5s66.333 -34.666 90 -60.999
s39.667 -58 48 -95s7.16602 -77.833 -3.50098 -122.5zM529.995 192.002c4.66699 18 3 33.833 -5 47.5s-24 20.5 -48 20.5c-10.667 0 -21.167 -2.83301 -31.5 -8.5s-20 -13 -29 -22s-16.667 -19 -23 -30s-10.833 -21.833 -13.5 -32.5c-2.66699 -11.333 -5 -23.166 -7 -35.499
s-3.16699 -24.166 -3.5 -35.499s0.333984 -21.333 2.00098 -30s4.5 -14.334 8.5 -17.001c6 1.33301 16 5.16602 30 11.499s29 15.5 45 27.5s31.167 26.667 45.5 44s24.166 37.333 29.499 60zM334.995 -131.998c-4 -14.667 -12.499 -27.334 -25.499 -38.001
s-26.833 -16 -41.5 -16c-16 0 -27.833 5.33301 -35.5 16s-9.5 23.334 -5.5 38.001c3.33301 15.333 11.666 28.5 24.999 39.5s28 16.5 44 16.5c14.667 0 25.667 -5.5 33 -16.5s9.33301 -24.167 6 -39.5z" />
    <glyph glyph-name="uni0B5F" unicode="&#xb5f;" horiz-adv-x="750" 
d="M750 65c-6 -24 -14.998 -43.5 -26.998 -58.5s-24.167 -27 -36.5 -36s-24 -15.333 -35 -19s-18.5 -5.83398 -22.5 -6.50098l-6 -13l66 -43l-38 -19l-140 77c16.667 3.33301 35.667 8 57 14s41.666 13.5 60.999 22.5s36.5 19.5 51.5 31.5s24.5 26 28.5 42
c5.33301 22 4 39.167 -4 51.5s-23.667 18.5 -47 18.5c-22 0 -41.833 -6.66699 -59.5 -20s-36.334 -28.166 -56.001 -44.499s-42.167 -31.166 -67.5 -44.499s-57 -20 -95 -20c-25.333 0 -48.833 3.83301 -70.5 11.5s-39.834 18.334 -54.501 32.001s-25 30 -31 49
s-6 39.833 0 62.5c0 1.33301 2 6.33301 6 15s7.33301 16.667 10 24l-96 -49c14.667 -12.667 20 -26.667 16 -42s-11.5 -27.833 -22.5 -37.5s-23.167 -14.5 -36.5 -14.5s-24 5.16699 -32 15.5s-10.333 23.166 -7 38.499c5.33301 20.667 13 36.834 23 48.501
s25 22.167 45 31.5l138 70c-9.33301 2.66699 -19 7 -29 13s-18.833 14.333 -26.5 25s-13 23.5 -16 38.5s-1.83301 32.833 3.5 53.5c9.33301 37.333 25.333 72.166 48 104.499s49.667 60.5 81 84.5s65.5 42.833 102.5 56.5s74.5 20.5 112.5 20.5
c34.667 0 64.834 -4.66699 90.501 -14s47.334 -20.333 65.001 -33s31.667 -25.834 42 -39.501s17.166 -24.5 20.499 -32.5l28 112h45l-120 -478c2.66699 -2 6.66699 -5.16699 12 -9.5s10.333 -10.5 15 -18.5s8.16699 -17.833 10.5 -29.5s1.5 -25.5 -2.5 -41.5zM742.002 451
c0.666992 2.66699 -2.49805 12.167 -9.49805 28.5s-18.667 33.833 -35 52.5s-37.833 35.5 -64.5 50.5s-59.334 22.5 -98.001 22.5c-37.333 0 -71.833 -6.33301 -103.5 -19s-60 -29.5 -85 -50.5s-45.833 -45 -62.5 -72s-28.667 -54.833 -36 -83.5
c-3.33301 -14 -3.83301 -26.667 -1.5 -38s6.83301 -21 13.5 -29s14.834 -14.333 24.501 -19s20.5 -7 32.5 -7c7.33301 0 14.5 0.666992 21.5 2s14.167 3.66602 21.5 6.99902l86 43l18 -30l-124 -64c-0.666992 0 -3.5 -2 -8.5 -6s-11 -10 -18 -18s-14.167 -18.333 -21.5 -31
s-13 -27.667 -17 -45c-4.66699 -18 -3.83398 -33.5 2.49902 -46.5s15.833 -23.667 28.5 -32s27.5 -14.666 44.5 -18.999s33.5 -6.5 49.5 -6.5c18 0 34 3.16699 48 9.5s27.5 14.333 40.5 24s25.667 20 38 31s25.666 21.333 39.999 31s30 17.667 47 24s36.5 9.5 58.5 9.5z" />
    <glyph glyph-name="uni0B60" unicode="&#xb60;" horiz-adv-x="695" 
d="M671 117c-2 -7.33301 -5.16699 -15.8291 -9.5 -25.4961s-10.5 -18.834 -18.5 -27.501s-18.167 -16.167 -30.5 -22.5s-27.166 -9.83301 -44.499 -10.5l40 -97h-51l-58 151c9.33301 -4.66699 18.5 -8.66699 27.5 -12s19.5 -5 31.5 -5c20.667 0 36.5 4.16699 47.5 12.5
s18.167 19.166 21.5 32.499s2 27 -4 41s-19 27 -39 39c25.333 10.667 43.5 22.5 54.5 35.5s18.167 25.833 21.5 38.5c3.33301 13.333 2 25.666 -4 36.999s-20 17 -42 17c9.33301 10.667 18.333 21.5 27 32.5s14.334 22.167 17.001 33.5c8 32 8.5 61.167 1.5 87.5
s-19.5 49 -37.5 68s-40.167 33.833 -66.5 44.5s-54.833 16 -85.5 16c-33.333 0 -65.666 -6.33301 -96.999 -19s-59.833 -29.5 -85.5 -50.5s-47.667 -44.833 -66 -71.5s-30.833 -53.667 -37.5 -81c-5.33301 -20 -6.16602 -36.833 -2.49902 -50.5s9 -24.834 16 -33.501
s14.333 -15.167 22 -19.5l16.5 -9.5c21.333 15.333 41.166 26.166 59.499 32.499s38.5 9.5 60.5 9.5s41.333 -4.16699 58 -12.5s30.167 -19.5 40.5 -33.5s17.166 -30.333 20.499 -49s2.33301 -38.667 -3 -60c-5.33301 -22 -14.333 -42.5 -27 -61.5
s-27.667 -35.833 -45 -50.5s-36.5 -26.167 -57.5 -34.5s-42.5 -12.5 -64.5 -12.5s-41.333 4.16699 -58 12.5s-30.334 19.833 -41.001 34.5s-17.667 31.667 -21 51s-2.33301 39.666 3 60.999c3.33301 11.333 8.33301 23.666 15 36.999s12.334 24 17.001 32
c-4 2.66699 -10.5 7.83398 -19.5 15.501s-17.5 17.834 -25.5 30.501s-14.167 28.167 -18.5 46.5s-3.5 39.166 2.5 62.499c10 38.667 26.833 74.5 50.5 107.5s51.5 61.5 83.5 85.5s67.167 42.833 105.5 56.5s76.833 20.5 115.5 20.5c37.333 0 71.5 -6.16699 102.5 -18.5
s56.5 -30 76.5 -53s33.833 -50.667 41.5 -83s6.5 -68.166 -3.5 -107.499c-1.33301 -6 -3.33301 -12.833 -6 -20.5s-7.66699 -15.167 -15 -22.5c9.33301 -7.33301 17.166 -16.666 23.499 -27.999s7.16602 -26.333 2.49902 -45c-4 -15.333 -10.333 -29.5 -19 -42.5
s-22 -25.5 -40 -37.5c13.333 -12.667 20.833 -25.667 22.5 -39s1.16699 -25 -1.5 -35zM424 155.004c3.33301 14 3.83203 27.333 1.49902 40s-7.16602 23.834 -14.499 33.501s-16.666 17.5 -27.999 23.5s-24.333 9 -39 9s-29.334 -3 -44.001 -9s-28.334 -14 -41.001 -24
s-23.667 -21.5 -33 -34.5s-15.666 -26.5 -18.999 -40.5c-4 -15.333 -4.66699 -29.5 -2 -42.5s7.66699 -24.5 15 -34.5s17 -17.833 29 -23.5s25.333 -8.5 40 -8.5c14 0 28.333 3 43 9s28.167 14.167 40.5 24.5s23 22.166 32 35.499s15.5 27.333 19.5 42z" />
    <glyph glyph-name="uni0B61" unicode="&#xb61;" horiz-adv-x="517" 
d="M413 -258l-162.999 246.996h26c-30 0.666992 -58.167 5.83398 -84.5 15.501s-48.5 23.167 -66.5 40.5s-30.667 38 -38 62s-7.33301 51 0 81c9.33301 36 25.166 65.667 47.499 89s47.833 43.166 76.5 59.499s58.834 30.333 90.501 42s61.334 24 89.001 37s52 28.333 73 46
s34.833 40.167 41.5 67.5c3.33301 14 3.33301 26 0 36s-9 18.333 -17 25s-17.5 11.5 -28.5 14.5s-21.833 4.5 -32.5 4.5c-12.667 0 -25.667 -1.5 -39 -4.5s-25.833 -7.83301 -37.5 -14.5s-22 -15.167 -31 -25.5s-15.167 -22.5 -18.5 -36.5
c-2 -9.33301 -3.33301 -18.333 -4 -27s1.66602 -16.667 6.99902 -24l-41 -22c-6 12.667 -9.83301 24 -11.5 34s-0.5 22.333 3.5 37c4.66699 19.333 13.167 37 25.5 53s26.833 29.5 43.5 40.5s34.667 19.5 54 25.5s38.666 9 57.999 9c20 0 38.5 -2.66699 55.5 -8
s31 -13.333 42 -24s18.5 -24.167 22.5 -40.5s3.33301 -35.833 -2 -58.5c-8 -30.667 -22.667 -56.167 -44 -76.5s-46.333 -38.166 -75 -53.499s-59 -29.166 -91 -41.499s-62.167 -25.666 -90.5 -39.999s-53.166 -30.833 -74.499 -49.5s-35.333 -42 -42 -70
c-7.33301 -29.333 -6.33301 -53.833 3 -73.5s22.333 -35.5 39 -47.5s35 -20.5 55 -25.5s37 -7.5 51 -7.5h6.5c2.33301 0 4.5 0.333008 6.5 1c-15.333 7.33301 -25.5 19.666 -30.5 36.999s-5.16699 35.333 -0.5 54c3.33301 14 9.5 28.167 18.5 42.5s20.167 27.333 33.5 39
s29 21.167 47 28.5s38 11 60 11c16 0 30.667 -2.83301 44 -8.5s24.333 -13.5 33 -23.5s14.5 -21.833 17.5 -35.5s2.5 -28.5 -1.5 -44.5c-6 -25.333 -16.833 -47.166 -32.5 -65.499s-33.834 -33.5 -54.501 -45.5s-42.667 -21.167 -66 -27.5s-46 -10.166 -68 -11.499h30
l119 -250zM467.001 132.996c4.66699 18.667 2.50195 34.835 -6.49805 48.502s-24.833 20.5 -47.5 20.5c-19.333 0 -38.166 -6.83301 -56.499 -20.5s-30.166 -30.834 -35.499 -51.501c-2.66699 -10 -2.83398 -19.5 -0.500977 -28.5s6.16602 -17 11.499 -24s12 -12.5 20 -16.5
s16.667 -6 26 -6c19.333 0 37.666 7.66699 54.999 23s28.666 33.666 33.999 54.999z" />
    <glyph glyph-name="uni0B66" unicode="&#xb66;" horiz-adv-x="740" 
d="M791 328c-11.333 -46.667 -30.9971 -90.333 -58.9971 -131s-61.333 -76 -100 -106s-80.667 -53.667 -126 -71s-91.333 -26 -138 -26c-46 0 -86.833 8.83301 -122.5 26.5s-64.834 41.5 -87.501 71.5s-37.5 65.167 -44.5 105.5s-4.83301 83.166 6.5 128.499
s30.666 87.666 57.999 126.999s59.666 73.5 96.999 102.5s78.166 51.833 122.499 68.5s88.833 25 133.5 25c45.333 0 86.5 -8.16699 123.5 -24.5s67.333 -38.666 91 -66.999s39.834 -62.166 48.501 -101.499s7.66699 -82 -3 -128zM743.003 328.001
c8.66699 38.667 9.50098 74.832 2.50098 108.499s-20.5 62.834 -40.5 87.501s-45.5 44.167 -76.5 58.5s-65.833 21.5 -104.5 21.5s-77.167 -7 -115.5 -21s-73.833 -33.333 -106.5 -58s-60.834 -53.834 -84.501 -87.501s-40.5 -70.167 -50.5 -109.5
s-12.167 -76.5 -6.5 -111.5s18 -65.667 37 -92s43.833 -47.166 74.5 -62.499s66 -23 106 -23c40.667 0 80.667 7.5 120 22.5s75.5 35.5 108.5 61.5s61.5 56.5 85.5 91.5s41 72.833 51 113.5z" />
    <glyph glyph-name="uni0B67" unicode="&#xb67;" horiz-adv-x="740" 
d="M686 487c-6.66699 -26.667 -17.501 -51.8301 -32.501 -75.4971s-32.833 -44.5 -53.5 -62.5s-43.334 -32.333 -68.001 -43s-50 -16 -76 -16c-24.667 0 -45.834 4.33301 -63.501 13s-36.834 24.667 -57.501 48c-0.666992 -14.667 0.833008 -34.834 4.5 -60.501
s12.167 -53.667 25.5 -84s32.833 -61.833 58.5 -94.5s60.167 -63.334 103.5 -92.001l-40 -32c-6 3.33301 -15.167 9.83301 -27.5 19.5s-25.666 20.834 -39.999 33.501s-28.166 26.167 -41.499 40.5s-23.666 28.166 -30.999 41.499c-8.66699 14.667 -18 33.667 -28 57
s-18.167 49.666 -24.5 78.999s-10.166 61 -11.499 95s2.66699 69 12 105c8 33.333 20.167 63 36.5 89s35.333 47.833 57 65.5s45.5 31.167 71.5 40.5s53 14 81 14c25.333 0 48.333 -4.5 69 -13.5s37.5 -21.5 50.5 -37.5s22 -35.167 27 -57.5s4.5 -46.5 -1.5 -72.5z
M630.999 480.004c4.66699 19.333 5.50098 37.5 2.50098 54.5s-9.33301 31.833 -19 44.5s-22 22.667 -37 30s-31.833 11 -50.5 11c-19.333 0 -38.333 -3.66699 -57 -11s-35.834 -17.333 -51.501 -30s-29.334 -27.5 -41.001 -44.5s-19.834 -35.167 -24.501 -54.5
s-5.5 -37.666 -2.5 -54.999s9.16699 -32.5 18.5 -45.5s21.5 -23.167 36.5 -30.5s32.167 -11 51.5 -11c18.667 0 37.5 3.66699 56.5 11s36.333 17.5 52 30.5s29.334 28.167 41.001 45.5s19.834 35.666 24.501 54.999z" />
    <glyph glyph-name="uni0B68" unicode="&#xb68;" horiz-adv-x="740" 
d="M700 466c-9.33301 -37.333 -22.834 -73.3311 -40.501 -107.998s-37.334 -66.834 -59.001 -96.501s-44 -56.667 -67 -81s-44.5 -45.166 -64.5 -62.499c-14.667 -12.667 -32.334 -26.167 -53.001 -40.5l-62 -41.5l-58 -36c-18 -10.667 -31.667 -18.334 -41 -23.001l-16 39
c58.667 28.667 109.334 59.167 152.001 91.5s78.334 63.333 107.001 93s50.834 56.167 66.501 79.5s26.5 40.666 32.5 51.999l-53 -23.5c-22 -9.66699 -51 -14.5 -87 -14.5c-28 0 -53.5 5 -76.5 15s-41.667 23.833 -56 41.5s-24.166 38.5 -29.499 62.5s-4.33301 49.667 3 77
c6.66699 27.333 18.5 52.5 35.5 75.5s37 42.833 60 59.5s48 29.667 75 39s54.167 14 81.5 14c28.667 0 54.167 -4.66699 76.5 -14s40.166 -23 53.499 -41s22 -40.167 26 -66.5s2 -56.5 -6 -90.5zM658.999 485.002c5.33301 20.667 6.16504 40.5 2.49805 59.5
s-11 35.5 -22 49.5s-25 25.167 -42 33.5s-36.167 12.5 -57.5 12.5s-42.666 -4 -63.999 -12s-40.833 -19 -58.5 -33s-33.167 -30.5 -46.5 -49.5s-22.666 -39.167 -27.999 -60.5s-6.16602 -41.5 -2.49902 -60.5s11 -35.667 22 -50s25 -25.666 42 -33.999
s36.167 -12.5 57.5 -12.5s42.666 4.16699 63.999 12.5s41 19.666 59 33.999s33.5 31 46.5 50s22.167 39.167 27.5 60.5z" />
    <glyph glyph-name="uni0B69" unicode="&#xb69;" horiz-adv-x="740" 
d="M638 0l133.002 534.999c2.66699 12 2.66699 24 0 36s-8 22.833 -16 32.5s-18.667 17.5 -32 23.5s-29 9 -47 9c-15.333 0 -30.833 -2.66699 -46.5 -8s-30.5 -12.333 -44.5 -21s-26 -18.834 -36 -30.501s-16.667 -23.5 -20 -35.5l-134 -541h-44l134 541
c0 0.666992 -0.833008 5.66699 -2.5 15s-5.83398 19.5 -12.501 30.5s-16.834 21 -30.501 30s-31.834 13.5 -54.501 13.5c-22 0 -43.167 -5.83301 -63.5 -17.5s-39.166 -26.834 -56.499 -45.501s-32.166 -39.667 -44.499 -63s-21.5 -46.666 -27.5 -69.999
c-2 -7.33301 -4.5 -19.166 -7.5 -35.499s-4.5 -33 -4.5 -50s2.5 -32 7.5 -45s14.833 -19.5 29.5 -19.5c5.33301 0 11.333 0.333008 18 1s13.167 2.5 19.5 5.5s12.166 7.5 17.499 13.5s9.33301 14 12 24c4 15.333 2.66699 28 -4 38s-14.667 17.667 -24 23l20 39
c5.33301 -2 11.833 -5.16699 19.5 -9.5s14.667 -10.166 21 -17.499s11.166 -16.166 14.499 -26.499s3.33301 -22.833 0 -37.5c-3.33301 -13.333 -8.5 -25.833 -15.5 -37.5s-15.5 -22 -25.5 -31s-21.167 -16.167 -33.5 -21.5s-25.166 -8 -38.499 -8
c-22 0 -39.167 5.16699 -51.5 15.5s-21.166 24 -26.499 41s-7.33301 36.667 -6 59s5 45.5 11 69.5c8 31.333 19.167 61.833 33.5 91.5s32.166 56.167 53.499 79.5s45.666 42.166 72.999 56.499s58 21.5 92 21.5c29.333 0 53.166 -5.16699 71.499 -15.5
s35.5 -26.833 51.5 -49.5l19 16.5c8.66699 7.66699 19.834 15.5 33.501 23.5s29.334 15 47.001 21s37.167 9 58.5 9c26.667 0 48.667 -3.5 66 -10.5s31 -15.833 41 -26.5s17.333 -22.167 22 -34.5s7.5 -24 8.5 -35s1.16699 -20.167 0.5 -27.5l-1 -11l-132 -533h-46z" />
    <glyph glyph-name="uni0B6A" unicode="&#xb6a;" horiz-adv-x="740" 
d="M836 657c-14.667 -18.667 -28.832 -35.501 -42.499 -50.501s-27.5 -29.167 -41.5 -42.5s-28.833 -26.333 -44.5 -39s-32.834 -25.667 -51.501 -39c-10.667 -8 -22.5 -16.167 -35.5 -24.5l-38.5 -24.5l-35.5 -22.5c-11 -7 -19.5 -12.833 -25.5 -17.5
c7.33301 -3.33301 17.833 -11 31.5 -23s26.5 -27.167 38.5 -45.5s21.167 -39.333 27.5 -63s6.16602 -49.5 -0.500977 -77.5c-7.33301 -30.667 -19.333 -58.167 -36 -82.5s-36 -45.166 -58 -62.499s-46.167 -30.666 -72.5 -39.999s-53.166 -14 -80.499 -14
s-52 4.83301 -74 14.5s-39.833 23.167 -53.5 40.5s-22.667 38 -27 62s-2.83301 50.333 4.5 79c6.66699 27.333 19.5 53.166 38.5 77.499s39.667 46.166 62 65.499s43.833 35.833 64.5 49.5s36.334 23.5 47.001 29.5c-8 2 -16.667 5.83301 -26 11.5s-18.666 12 -27.999 19
s-18.333 14.5 -27 22.5s-16 15.333 -22 22c-13.333 13.333 -25 26.333 -35 39s-19.167 25.5 -27.5 38.5s-16.166 27 -23.499 42s-15 31.833 -23 50.5l62 27c2 -13.333 9.16699 -31.5 21.5 -54.5s29.166 -49.833 50.499 -80.5c9.33301 -14 19.833 -27 31.5 -39
s23.5 -22.833 35.5 -32.5s23.167 -18 33.5 -25s19.166 -12.167 26.499 -15.5c30 13.333 59.333 28.833 88 46.5s58 39.5 88 65.5c38.667 34.667 67.167 63.334 85.5 86.001s31.166 39.667 38.499 51zM570.002 188.999c6 24.667 4.66699 48.167 -4 70.5s-20 42 -34 59
s-27.667 30.667 -41 41l-24 18.5c-4 -2 -15 -8.33301 -33 -19s-37.833 -24.667 -59.5 -42s-42.167 -37.5 -61.5 -60.5s-32.333 -47.5 -39 -73.5c-5.33301 -20 -6.5 -38.833 -3.5 -56.5s9.16699 -33.167 18.5 -46.5s21.833 -23.833 37.5 -31.5s33.5 -11.5 53.5 -11.5
c20.667 0 41.167 3.5 61.5 10.5s39 17.167 56 30.5s31.833 29.333 44.5 48s22 39.667 28 63z" />
    <glyph glyph-name="uni0B6B" unicode="&#xb6b;" horiz-adv-x="740" 
d="M701 161c-5.33301 9.33301 -13.834 21.3379 -25.501 36.0049s-23.5 27.334 -35.5 38.001c-7.33301 6 -15.833 12 -25.5 18l-29.5 17.5l-29 16c-9.33301 5 -17 9.5 -23 13.5c2 -8 4.66699 -16.833 8 -26.5s6.16602 -20.167 8.49902 -31.5s3.83301 -23.5 4.5 -36.5
s-0.666016 -26.5 -3.99902 -40.5c-6.66699 -26.667 -17 -50.334 -31 -71.001s-30.167 -38 -48.5 -52s-38.5 -24.5 -60.5 -31.5s-44.333 -10.5 -67 -10.5c-23.333 0 -44.166 3.83301 -62.499 11.5s-33.333 18.667 -45 33s-19.334 31.666 -23.001 51.999
s-2.16699 43.166 4.5 68.499c5.33301 21.333 17 42.333 35 63s37 38.667 57 54c23.333 18 49 35 77 51c-18 5.33301 -35.667 11.333 -53 18c-14.667 5.33301 -29.667 11.666 -45 18.999s-28.333 15.666 -39 24.999c-8 6 -16 13.167 -24 21.5l-23 25l-20 23.5l-15 18l42 32
c4.66699 -9.33301 12.167 -21.166 22.5 -35.499s23.166 -28.5 38.499 -42.5c23.333 -21.333 45.666 -36.333 66.999 -45s37.666 -14.667 48.999 -18c-1.33301 4.66699 -3.66602 11 -6.99902 19s-6.33301 17.667 -9 29s-4.16699 24.166 -4.5 38.499s1.5 29.833 5.5 46.5
c5.33301 22.667 14.833 44.167 28.5 64.5s29.834 38.166 48.501 53.499s39.334 27.5 62.001 36.5s46 13.5 70 13.5c22.667 0 42.834 -4.33301 60.501 -13s32 -20.5 43 -35.5s18.333 -32.5 22 -52.5s2.83398 -41.333 -2.49902 -64c-7.33301 -27.333 -20.5 -51.5 -39.5 -72.5
s-38.833 -38.833 -59.5 -53.5c-24 -17.333 -50 -32.333 -78 -45l46 -16c12.667 -4.66699 25.5 -9.66699 38.5 -15s23.5 -10.333 31.5 -15c13.333 -8 25.333 -16.833 36 -26.5s20 -19 28 -28s14.667 -17.167 20 -24.5s9.66602 -13 12.999 -17zM655.999 517.005
c9.33301 35.333 5.83203 62.999 -10.501 82.999s-42.166 30 -77.499 30c-16 0 -31.833 -3.16699 -47.5 -9.5s-30 -14.666 -43 -24.999s-24.167 -22.5 -33.5 -36.5s-16 -29 -20 -45c-6.66699 -25.333 -8.5 -47.5 -5.5 -66.5s7.66699 -34.833 14 -47.5
s12.833 -22.5 19.5 -29.5s11 -10.833 13 -11.5c4 0.666992 14.667 3.5 32 8.5s36.5 13.5 57.5 25.5s41.333 28 61 48s33.167 45.333 40.5 76zM505.998 171.004c5.33301 20.667 6.00098 40.002 2.00098 58.002s-9.5 33.5 -16.5 46.5s-14.333 23.5 -22 31.5
s-12.5 12.667 -14.5 14l-31.5 -12.5c-17.667 -7 -37.167 -17 -58.5 -30s-41.666 -28.833 -60.999 -47.5s-32 -40 -38 -64c-4.66699 -18 -5.83398 -34.333 -3.50098 -49s7.5 -27.334 15.5 -38.001s18.333 -18.834 31 -24.501s27 -8.5 43 -8.5c16.667 0 33.167 2.5 49.5 7.5
s31.333 12.5 45 22.5s25.667 22.833 36 38.5s18.166 34.167 23.499 55.5z" />
    <glyph glyph-name="uni0B6C" unicode="&#xb6c;" horiz-adv-x="740" 
d="M787 458c-10.667 -40.667 -26.835 -78.6738 -48.502 -114.007s-46.667 -67.833 -75 -97.5s-59.166 -56.5 -92.499 -80.5s-66.666 -45.333 -99.999 -64c-36 -20 -73.833 -36.5 -113.5 -49.5s-77.167 -23.333 -112.5 -31s-66.5 -13 -93.5 -16s-46.5 -4.83301 -58.5 -5.5
l12 49c11.333 0 29.5 1.5 54.5 4.5s53.833 8.16699 86.5 15.5s67.667 17.333 105 30s74.333 29 111 49c31.333 16.667 61.833 35.834 91.5 57.501s56.667 45 81 70s45.333 52 63 81s30.5 59.5 38.5 91.5c6.66699 25.333 8 49.666 4 72.999s-12.167 43.833 -24.5 61.5
s-28.166 31.834 -47.499 42.501s-41 16 -65 16c-14.667 0 -29.834 -2 -45.501 -6s-30.167 -10 -43.5 -18s-25 -17.833 -35 -29.5s-17 -25.167 -21 -40.5c-2.66699 -11.333 -1.5 -20.666 3.5 -27.999s12.167 -14.166 21.5 -20.499s19.333 -12.666 30 -18.999
s20.334 -13.666 29.001 -21.999s15 -18.333 19 -30s4 -25.834 0 -42.501c-4.66699 -19.333 -13.167 -37.166 -25.5 -53.499s-26.666 -30.5 -42.999 -42.5s-34.166 -21.333 -53.499 -28s-38.666 -10 -57.999 -10c-24 0 -44.5 4 -61.5 12s-31.333 17.5 -43 28.5
s-20.667 22.167 -27 33.5s-10.833 20 -13.5 26l45 27c2.66699 -6 7.16699 -13.333 13.5 -22s14.333 -17.167 24 -25.5s20.5 -15.333 32.5 -21s25.333 -8.5 40 -8.5c12.667 0 25.667 1.83301 39 5.5s25.666 9 36.999 16s21.166 15.667 29.499 26s14.166 21.833 17.499 34.5
c2.66699 12 1.33398 21.833 -3.99902 29.5s-12.833 14.667 -22.5 21s-20.167 12.5 -31.5 18.5s-21.5 13 -30.5 21s-15.833 17.667 -20.5 29s-5 25.333 -1 42c5.33301 22 15.166 41.833 29.499 59.5s31.166 32.834 50.499 45.501s40.333 22.334 63 29.001s45 10 67 10
c32 0 60.667 -5.66699 86 -17s45.833 -27 61.5 -47s26 -44.167 31 -72.5s3.16699 -59.5 -5.5 -93.5z" />
    <glyph glyph-name="uni0B6D" unicode="&#xb6d;" horiz-adv-x="740" 
d="M749 407c-10 -40 -24.998 -75.6777 -44.998 -107.011s-43.833 -60 -71.5 -86s-58.334 -49.667 -92.001 -71s-69.5 -41.666 -107.5 -60.999c-30.667 -15.333 -62.334 -28.5 -95.001 -39.5s-63.667 -20 -93 -27s-55.5 -12.333 -78.5 -16s-40.167 -6.5 -51.5 -8.5l13 46
c24.667 4 54.5 10 89.5 18s71.833 18.833 110.5 32.5s77.834 30.334 117.501 50.001s76.667 42.834 111 69.501s64.166 56.834 89.499 90.501s43.333 71.5 54 113.5c8 30.667 10 59.834 6 87.501s-13.333 51.834 -28 72.501s-34.167 37 -58.5 49s-52.833 18 -85.5 18
s-63.5 -6.16699 -92.5 -18.5s-55 -28.166 -78 -47.499s-42.333 -40.833 -58 -64.5s-26.167 -46.5 -31.5 -68.5c-2.66699 -11.333 -4 -23.5 -4 -36.5s1 -25.667 3 -38s5 -23.333 9 -33s8.66699 -16.5 14 -20.5c-2.66699 8 -4.66699 15.167 -6 21.5s-0.333008 15.166 3 26.499
c2 8 6.5 17.833 13.5 29.5s16.333 22.834 28 33.501s25.5 19.834 41.5 27.501s34 11.5 54 11.5c16 0 30.333 -2.83301 43 -8.5s23 -13.5 31 -23.5s13.5 -22 16.5 -36s2.5 -29.333 -1.5 -46c-4 -16 -10.833 -30.667 -20.5 -44s-21 -25 -34 -35s-27.333 -18 -43 -24
s-31.5 -9.33301 -47.5 -10c-28 0 -52.833 5.5 -74.5 16.5s-39 25.667 -52 44s-21.5 40 -25.5 65s-2.33301 51.5 5 79.5c8 31.333 22.5 61.833 43.5 91.5s46.167 55.834 75.5 78.501s61.5 40.834 96.5 54.501s70.167 20.5 105.5 20.5c38 0 71.667 -7.33301 101 -22
s53 -34.667 71 -60s29.667 -54.666 35 -87.999s3.33301 -69 -6 -107zM471.002 345.989c4.66699 19.333 2.49805 36.001 -6.50195 50.001s-23.167 21 -42.5 21c-20 0 -38.667 -6.5 -56 -19.5s-28.333 -29.167 -33 -48.5c-5.33301 -18.667 -2.66602 -34.834 8.00098 -48.501
s26.334 -20.5 47.001 -20.5c20 0 37.5 6.5 52.5 19.5s25.167 28.5 30.5 46.5z" />
    <glyph glyph-name="uni0B6E" unicode="&#xb6e;" horiz-adv-x="740" 
d="M340 643l-160 -643h-45l170 684h443l-10 -41h-398z" />
    <glyph glyph-name="uni0B6F" unicode="&#xb6f;" horiz-adv-x="740" 
d="M490 636c-6 -4 -17 -12.001 -33 -24.001s-33.333 -28.5 -52 -49.5s-36.834 -46.333 -54.501 -76s-31.5 -64.167 -41.5 -103.5c-8.66699 -34.667 -12 -67 -10 -97s7.66699 -57.667 17 -83s21 -48.333 35 -69s28.5 -38.834 43.5 -54.501s29.667 -29 44 -40
s26.5 -19.5 36.5 -25.5l-52 -23c-4.66699 2.66699 -13 8.83398 -25 18.501s-25.5 22.5 -40.5 38.5s-30 35 -45 57s-27.667 47 -38 75s-16.833 59 -19.5 93s1 70.667 11 110c14 56 33.667 102.833 59 140.5s51 68.334 77 92.001s49.333 41.167 70 52.5s33.334 18 38.001 20
l9.5 -11.5l23.5 -29.5l30.5 -39.5l32.5 -42l29 -37l19 -24.5l45 181h44l-72 -288z" />
    <glyph glyph-name="uni0B70" unicode="&#xb70;" horiz-adv-x="620" 
d="M215 -23l-113 344h53l82 -253l468 574h50zM361 355c-3.33301 -14.667 -11.666 -27.001 -24.999 -37.001s-27 -15 -41 -15c-13.333 0 -23.833 4.83301 -31.5 14.5s-9.83398 21.834 -6.50098 36.501c3.33301 15.333 11.5 28.5 24.5 39.5s26.5 16.5 40.5 16.5
c15.333 0 26.5 -5.33301 33.5 -16s8.83301 -23.667 5.5 -39z" />
    <glyph glyph-name="uni0B71" unicode="&#xb71;" horiz-adv-x="619" 
d="M672 472c-1.33301 10.667 -4.99512 24.6621 -10.9951 41.9951s-16.667 34.333 -32 51s-36.333 31.167 -63 43.5s-61.334 18.5 -104.001 18.5c-27.333 0 -54.833 -4.66699 -82.5 -14s-53.5 -22.5 -77.5 -39.5s-44.833 -37.833 -62.5 -62.5s-30.5 -52 -38.5 -82
c-7.33301 -29.333 -7 -55 1 -77s20.667 -40.333 38 -55s37.833 -25.667 61.5 -33s47.834 -11 72.501 -11c20.667 0 41.167 2.66699 61.5 8s38.666 12 54.999 20s29.666 16.5 39.999 25.5s16.5 17.5 18.5 25.5c5.33301 19.333 4 33 -4 41s-18.333 12 -31 12
c-12 0 -23.667 -3.33301 -35 -10l-49 -29l-21 34l43 23c8.66699 5.33301 14.834 11.333 18.501 18s6.5 14.667 8.5 24c4 15.333 1.83301 29 -6.5 41s-21.5 18 -39.5 18c-12.667 0 -23.334 -2.16699 -32.001 -6.5s-15.667 -9.66602 -21 -15.999
s-9.66602 -13.666 -12.999 -21.999s-6 -16.5 -8 -24.5c-1.33301 -4 -2.5 -8.33301 -3.5 -13s-1.5 -9.33398 -1.5 -14.001l-42 -7c-0.666992 6 -0.5 12.5 0.5 19.5s2.16699 13.167 3.5 18.5c7.33301 30 22.166 55.333 44.499 76s49.5 31 81.5 31
c19.333 0 34.666 -3.83301 45.999 -11.5s19.833 -17.167 25.5 -28.5s8.66699 -23.333 9 -36s-0.833984 -23.667 -3.50098 -33c-1.33301 -7.33301 -2.66602 -12.333 -3.99902 -15c8.66699 0 18.5 -1 29.5 -3s21 -6.5 30 -13.5s15.667 -17.333 20 -31s3.5 -32.167 -2.5 -55.5
l-79 -319h-46l24 97c-6 -4 -15.333 -9.5 -28 -16.5s-28 -14 -46 -21s-38 -13 -60 -18s-45.667 -7.5 -71 -7.5c-15.333 0 -31.833 1.83301 -49.5 5.5s-33.334 10.834 -47.001 21.501s-23.5 25.5 -29.5 44.5s-5 44.167 3 75.5c2 6.66699 5.33301 14 10 22
s9.66699 15.5 15 22.5s10.5 13.333 15.5 19s8.83301 10.167 11.5 13.5c-4 3.33301 -10.667 9.33301 -20 18s-18.166 20.334 -26.499 35.001s-14.5 32.167 -18.5 52.5s-2.66699 43.833 4 70.5c8.66699 34 23 65.333 43 94s44 53.334 72 74.001s59.333 36.834 94 48.501
s71 17.5 109 17.5c51.333 0 92.666 -7.5 123.999 -22.5s55.5 -32.333 72.5 -52s28.667 -39 35 -58s10.166 -32.167 11.499 -39.5zM531.005 257.995c-5.33301 -3.33301 -13.8311 -7.5 -25.498 -12.5s-25 -10 -40 -15s-31.333 -9.33301 -49 -13s-35.5 -5.5 -53.5 -5.5
c-34.667 0 -60.667 3.33301 -78 10s-28 11.667 -32 15l-9.5 -9.5c-4.33301 -4.33301 -8.83301 -9.83301 -13.5 -16.5s-9.33398 -14 -14.001 -22s-8 -16.333 -10 -25c-4.66699 -19.333 -3.83398 -34.666 2.49902 -45.999s15 -19.833 26 -25.5s22.667 -9.33398 35 -11.001
s22.166 -2.5 29.499 -2.5c26 0 50.833 3 74.5 9s44.667 13 63 21s33.333 15.5 45 22.5s18.834 11.5 21.501 13.5z" />
    <glyph glyph-name="uni0B56.134" unicode="&#xb77;" horiz-adv-x="0" 
 />
    <glyph glyph-name="uni0B78" unicode="&#xb78;" horiz-adv-x="695" 
d="M671 117c-2 -7.33301 -5.16699 -15.8291 -9.5 -25.4961s-10.5 -18.834 -18.5 -27.501s-18.167 -16.167 -30.5 -22.5s-27.166 -9.83301 -44.499 -10.5l40 -97h-51l-58 151c9.33301 -4.66699 18.5 -8.66699 27.5 -12s19.5 -5 31.5 -5c20.667 0 36.5 4.16699 47.5 12.5
s18.167 19.166 21.5 32.499s2 27 -4 41s-19 27 -39 39c25.333 10.667 43.5 22.5 54.5 35.5s18.167 25.833 21.5 38.5c3.33301 13.333 2 25.666 -4 36.999s-20 17 -42 17c9.33301 10.667 18.333 21.5 27 32.5s14.334 22.167 17.001 33.5c8 32 8.5 61.167 1.5 87.5
s-19.5 49 -37.5 68s-40.167 33.833 -66.5 44.5s-54.833 16 -85.5 16c-33.333 0 -65.666 -6.33301 -96.999 -19s-59.833 -29.5 -85.5 -50.5s-47.667 -44.833 -66 -71.5s-30.833 -53.667 -37.5 -81c-5.33301 -20 -6.16602 -36.833 -2.49902 -50.5s9 -24.834 16 -33.501
s14.333 -15.167 22 -19.5l16.5 -9.5c21.333 15.333 41.166 26.166 59.499 32.499s38.5 9.5 60.5 9.5s41.333 -4.16699 58 -12.5s30.167 -19.5 40.5 -33.5s17.166 -30.333 20.499 -49s2.33301 -38.667 -3 -60c-5.33301 -22 -14.333 -42.5 -27 -61.5
s-27.667 -35.833 -45 -50.5s-36.5 -26.167 -57.5 -34.5s-42.5 -12.5 -64.5 -12.5s-41.333 4.16699 -58 12.5s-30.334 19.833 -41.001 34.5s-17.667 31.667 -21 51s-2.33301 39.666 3 60.999c3.33301 11.333 8.33301 23.666 15 36.999s12.334 24 17.001 32
c-4 2.66699 -10.5 7.83398 -19.5 15.501s-17.5 17.834 -25.5 30.501s-14.167 28.167 -18.5 46.5s-3.5 39.166 2.5 62.499c10 38.667 26.833 74.5 50.5 107.5s51.5 61.5 83.5 85.5s67.167 42.833 105.5 56.5s76.833 20.5 115.5 20.5c37.333 0 71.5 -6.16699 102.5 -18.5
s56.5 -30 76.5 -53s33.833 -50.667 41.5 -83s6.5 -68.166 -3.5 -107.499c-1.33301 -6 -3.33301 -12.833 -6 -20.5s-7.66699 -15.167 -15 -22.5c9.33301 -7.33301 17.166 -16.666 23.499 -27.999s7.16602 -26.333 2.49902 -45c-4 -15.333 -10.333 -29.5 -19 -42.5
s-22 -25.5 -40 -37.5c13.333 -12.667 20.833 -25.667 22.5 -39s1.16699 -25 -1.5 -35zM424 155.004c3.33301 14 3.83203 27.333 1.49902 40s-7.16602 23.834 -14.499 33.501s-16.666 17.5 -27.999 23.5s-24.333 9 -39 9s-29.334 -3 -44.001 -9s-28.334 -14 -41.001 -24
s-23.667 -21.5 -33 -34.5s-15.666 -26.5 -18.999 -40.5c-4 -15.333 -4.66699 -29.5 -2 -42.5s7.66699 -24.5 15 -34.5s17 -17.833 29 -23.5s25.333 -8.5 40 -8.5c14 0 28.333 3 43 9s28.167 14.167 40.5 24.5s23 22.166 32 35.499s15.5 27.333 19.5 42zM543.999 848.004
l142 -61l-53 -26l-143 66l13 52l364 108l19 -37z" />
    <glyph glyph-name="uni200B" unicode="&#x200b;" horiz-adv-x="0" 
d="M-63 -165l278 1116h44l-278 -1116h-44z" />
    <glyph glyph-name="afii61664" unicode="&#x200c;" horiz-adv-x="0" 
d="M-63 -165l278 1116h44l-278 -1116h-44z" />
    <glyph glyph-name="afii301" unicode="&#x200d;" horiz-adv-x="0" 
d="M299 793l-59 82l-259 -1040h-44l259 1040l-101 -82l-23 29l130 102l-79 101l37 29l77 -103l127 103l23 -29l-129 -101l78 -102z" />
    <glyph glyph-name="endash" unicode="&#x2013;" horiz-adv-x="546" 
d="M131 318l9 36h444l-9 -36h-444z" />
    <glyph glyph-name="emdash" unicode="&#x2014;" horiz-adv-x="746" 
d="M131 318l9 36h644l-9 -36h-644z" />
    <glyph glyph-name="quoteleft" unicode="&#x2018;" horiz-adv-x="288" 
d="M426 748c-22 -13.333 -42.835 -29.668 -62.502 -49.001s-34.167 -43.666 -43.5 -72.999h12c37.333 0 52.333 -14 45 -42c-4.66699 -18.667 -12.667 -33.167 -24 -43.5s-25.666 -15.5 -42.999 -15.5c-45.333 0 -61.666 26.333 -48.999 79c14 55.333 63 111 147 167l18 -23
v0z" />
    <glyph glyph-name="quoteright" unicode="&#x2019;" horiz-adv-x="288" 
d="M378 702c-16 -58 -64.3311 -113.665 -144.998 -166.998c-1.33301 2 -3.33301 4.5 -6 7.5s-5.66699 7.16699 -9 12.5c8.66699 4.66699 18 11.167 28 19.5s20 17.666 30 27.999s19.167 21.333 27.5 33s15.166 23.167 20.499 34.5c-49.333 0 -71.333 17 -66 51
c5.33301 19.333 13.666 34.166 24.999 44.499s26.333 15.5 45 15.5c21.333 0 36.5 -6.83301 45.5 -20.5s10.5 -33.167 4.5 -58.5z" />
    <glyph glyph-name="quotedblleft" unicode="&#x201c;" horiz-adv-x="529" 
d="M667 748c-22 -13.333 -42.833 -29.6689 -62.5 -49.002s-34.167 -43.666 -43.5 -72.999h12c18 0 31 -3.66699 39 -11s10.333 -17.666 7 -30.999c-4.66699 -18.667 -12.834 -33.167 -24.501 -43.5s-26.167 -15.5 -43.5 -15.5c-45.333 0 -61.666 26.333 -48.999 79
c14 55.333 63.333 111 148 167zM426 747.997c-22 -13.333 -42.835 -29.668 -62.502 -49.001s-34.167 -43.666 -43.5 -72.999h12c37.333 0 52.333 -14 45 -42c-4.66699 -18.667 -12.667 -33.167 -24 -43.5s-25.666 -15.5 -42.999 -15.5c-45.333 0 -61.666 26.333 -48.999 79
c14 55.333 63 111 147 167z" />
    <glyph glyph-name="quotedblright" unicode="&#x201d;" horiz-adv-x="525" 
d="M653 692c-14 -54.667 -63.332 -110.335 -147.999 -167.002l-17 24c22.667 12.667 43.667 28.834 63 48.501s34 43.834 44 72.501c-2.66699 0 -5.16699 -0.166992 -7.5 -0.5s-4.5 -0.5 -6.5 -0.5c-37.333 0 -52.333 14.333 -45 43c4.66699 18.667 12.5 33.167 23.5 43.5
s25.833 15.5 44.5 15.5c23.333 0 39.166 -6.16699 47.499 -18.5s8.83301 -32.5 1.5 -60.5zM412.001 691.999c-14 -54.667 -63.334 -110.335 -148.001 -167.002l-17 24c22.667 12.667 43.667 28.834 63 48.501s34 43.834 44 72.501c-2.66699 0 -5.16699 -0.166992 -7.5 -0.5
s-4.83301 -0.5 -7.5 -0.5c-36.667 0 -51.334 14.333 -44.001 43c4.66699 18.667 12.5 33.167 23.5 43.5s25.833 15.5 44.5 15.5c22.667 0 38.334 -6.16699 47.001 -18.5s9.33398 -32.5 2.00098 -60.5z" />
    <glyph glyph-name="bullet" unicode="&#x2022;" horiz-adv-x="523" 
d="M505 253c-6 -25.333 -16.6641 -48.9941 -31.9971 -70.9941s-33.333 -41.333 -54 -58s-43.334 -29.834 -68.001 -39.501s-49.667 -14.5 -75 -14.5s-47.833 4.83301 -67.5 14.5s-35.834 22.667 -48.501 39s-21 35.666 -25 57.999s-2.66699 46.166 4 71.499
c6 25.333 16.667 49.166 32 71.499s33.333 41.666 54 57.999s43.167 29.333 67.5 39s49.166 14.5 74.499 14.5c24.667 0 47 -4.83301 67 -14.5s36.333 -22.834 49 -39.501s21 -36.167 25 -58.5s3 -45.833 -3 -70.5z" />
    <glyph glyph-name="uni0B39.004" unicode="&#x20b9;" horiz-adv-x="520" 
d="M601 602l-116.999 0.000976562c8 -10.667 13.5 -22.334 16.5 -35.001s4.16699 -25 3.5 -37h124l-62 -67h-75c-8 -22.667 -20.333 -44.5 -37 -65.5s-36.834 -40 -60.501 -57s-50.334 -30.5 -80.001 -40.5s-61.5 -15 -95.5 -15l188 -285h-114l-177 277l18 74h71
c24.667 0 48 2.5 70 7.5s41.333 12.333 58 22s30.667 21.5 42 35.5s20 29.667 26 47h-261l60 67h210c-3.33301 10 -7.5 19.333 -12.5 28s-12 16.167 -21 22.5s-20.667 11.5 -35 15.5s-32.166 6 -53.499 6h-113l59 67h429z" />
    <glyph glyph-name="Dotted_Circle" unicode="&#x25cc;" horiz-adv-x="603" 
d="M539 426c-10 26.667 -26.668 48.667 -50.001 66l49 50c28.667 -22 49.334 -49 62.001 -81zM433.999 520c-10 3.33301 -25.332 5 -45.999 5c-20 0 -35.667 -1.66699 -47 -5l4 62l30.5 4c10.333 1.33301 19.833 2 28.5 2c9.33301 0 18.666 -0.666992 27.999 -2l29 -4z
M603 326c-4.66699 -18.667 -12.333 -38.001 -23 -58.001l-58 10c6 10.667 11.667 26.334 17 47.001c5.33301 21.333 7.33301 37.333 6 48l64 10c0.666992 -20 -1.33301 -39 -6 -57zM533.001 188.999c-30 -33.333 -64.667 -60.666 -104 -81.999l-23 52
c33.333 17.333 61 39.666 83 66.999zM272.001 491.999c-32.667 -17.333 -60 -39.333 -82 -66l-44 35c29.333 32.667 63.333 59.667 102 81zM68.001 267.999c1.33301 9.33301 2.49707 18.668 3.49707 28.001s2.83301 19.333 5.5 30c2.66699 10 5.83398 19.667 9.50098 29
l10.5 28l59 -10c-5.33301 -10.667 -10.666 -26.667 -15.999 -48c-5.33301 -20.667 -7.66602 -36.334 -6.99902 -47.001zM332.998 69.001c-10.667 -2 -20.999 -3.5 -30.999 -4.5s-19.667 -1.5 -29 -1.5c-8.66699 0 -17.834 0.5 -27.501 1.5s-19.167 2.5 -28.5 4.5l27 63
c8.66699 -2 16.667 -3.66699 24 -5s14.333 -2 21 -2s14.167 0.666992 22.5 2s16.833 3 25.5 5zM138.999 107.001c-26.667 20.667 -46.667 47.999 -60 81.999l61 37c8.66699 -27.333 25 -49.666 49 -66.999z" />
    <glyph glyph-name="NULL" horiz-adv-x="0" 
 />
    <glyph glyph-name="nonmarkingreturn" horiz-adv-x="615" 
 />
    <glyph glyph-name="parenleft" horiz-adv-x="26" 
d="M95 383h26l-7 -29h-26z" />
    <glyph glyph-name="parenright" horiz-adv-x="26" 
d="M95 383h26l-7 -29h-26z" />
    <glyph glyph-name="asterisk" horiz-adv-x="26" 
d="M95 383h26l-7 -29h-26z" />
    <glyph glyph-name="plus" horiz-adv-x="26" 
d="M95 383h26l-7 -29h-26z" />
    <glyph glyph-name="hyphen" horiz-adv-x="26" 
d="M95 383h26l-7 -29h-26z" />
    <glyph glyph-name="slash" horiz-adv-x="26" 
d="M95 383h26l-7 -29h-26z" />
    <glyph glyph-name="glyph98" 
d="M121 514l4 19h17l-4 -19h-17z" />
    <glyph glyph-name="Adieresis" 
d="M121 514l4 19h17l-4 -19h-17z" />
    <glyph glyph-name="Aring" 
d="M121 514l4 19h17l-4 -19h-17z" />
    <glyph glyph-name="Ccedilla" 
d="M121 514l4 19h17l-4 -19h-17z" />
    <glyph glyph-name="Eacute" 
d="M121 514l4 19h17l-4 -19h-17z" />
    <glyph glyph-name="Ntilde" 
d="M121 514l4 19h17l-4 -19h-17z" />
    <glyph glyph-name="Odieresis" 
d="M121 514l4 19h17l-4 -19h-17z" />
    <glyph glyph-name="Udieresis" 
d="M121 514l4 19h17l-4 -19h-17z" />
    <glyph glyph-name="aacute" 
d="M121 514l4 19h17l-4 -19h-17z" />
    <glyph glyph-name="agrave" 
d="M121 514l4 19h17l-4 -19h-17z" />
    <glyph glyph-name="acircumflex" 
d="M121 514l4 19h17l-4 -19h-17z" />
    <glyph glyph-name="adieresis" 
d="M121 514l4 19h17l-4 -19h-17z" />
    <glyph glyph-name="atilde" 
d="M121 514l4 19h17l-4 -19h-17z" />
    <glyph glyph-name="aring" 
d="M121 514l4 19h17l-4 -19h-17z" />
    <glyph glyph-name="ccedilla" 
d="M121 514l4 19h17l-4 -19h-17z" />
    <glyph glyph-name="eacute" 
d="M121 514l4 19h17l-4 -19h-17z" />
    <glyph glyph-name="egrave" 
d="M121 514l4 19h17l-4 -19h-17z" />
    <glyph glyph-name="ecircumflex" 
d="M121 514l4 19h17l-4 -19h-17z" />
    <glyph glyph-name="edieresis" 
d="M121 514l4 19h17l-4 -19h-17z" />
    <glyph glyph-name="iacute" 
d="M121 514l4 19h17l-4 -19h-17z" />
    <glyph glyph-name="igrave" 
d="M121 514l4 19h17l-4 -19h-17z" />
    <glyph glyph-name="icircumflex" 
d="M121 514l4 19h17l-4 -19h-17z" />
    <glyph glyph-name="idieresis" 
d="M121 514l4 19h17l-4 -19h-17z" />
    <glyph glyph-name="ntilde" 
d="M121 514l4 19h17l-4 -19h-17z" />
    <glyph glyph-name="oacute" 
d="M121 514l4 19h17l-4 -19h-17z" />
    <glyph glyph-name="ograve" 
d="M121 514l4 19h17l-4 -19h-17z" />
    <glyph glyph-name="ocircumflex" 
d="M121 514l4 19h17l-4 -19h-17z" />
    <glyph glyph-name="odieresis" 
d="M121 514l4 19h17l-4 -19h-17z" />
    <glyph glyph-name="otilde" 
d="M121 514l4 19h17l-4 -19h-17z" />
    <glyph glyph-name="uacute" 
d="M121 514l4 19h17l-4 -19h-17z" />
    <glyph glyph-name="ugrave" 
d="M121 514l4 19h17l-4 -19h-17z" />
    <glyph glyph-name="ucircumflex" 
d="M121 514l4 19h17l-4 -19h-17z" />
    <glyph glyph-name="udieresis" 
d="M121 514l4 19h17l-4 -19h-17z" />
    <glyph glyph-name="dagger" horiz-adv-x="387" 
 />
    <glyph glyph-name="degree" horiz-adv-x="215" 
d="M149 323l20 79h77l-20 -79h-77zM36 -154l104 416h63l-104 -416h-63z" />
    <glyph glyph-name="cent" horiz-adv-x="432" 
d="M422 121c-16.667 -42.667 -42.498 -75.168 -77.498 -97.501s-73.833 -33.5 -116.5 -33.5c-5.33301 0 -11.333 0.333008 -18 1s-14.334 2 -23.001 4l-46 -90l-37 11l47 90c-63.333 32 -83 96.667 -59 194c17.333 66.667 47.166 118.334 89.499 155.001s92.833 55 151.5 55
h17c4.66699 0 9 -0.666992 13 -2l45 88l39 -10l-47 -87c49.333 -20.667 70 -59.667 62 -117h-72c4.66699 26 -2 45.667 -20 59l-153 -291c6 -2 14.333 -3 25 -3c55.333 0 91.333 24.667 108 74h72zM334.002 353.999c-2.66699 0.666992 -7.66699 1 -15 1
c-35.333 0 -66.5 -12.833 -93.5 -38.5s-47.167 -64.5 -60.5 -116.5c-16 -64.667 -10.333 -108.667 17 -132z" />
    <glyph glyph-name="sterling" horiz-adv-x="432" 
d="M401 7c-28.667 -11.333 -56.6689 -17 -84.002 -17c-1.33301 0 -10 1.83301 -26 5.5l-52.5 12l-52.5 12c-16 3.66699 -25 5.5 -27 5.5c-20.667 0 -43 -2.83301 -67 -8.5s-49.667 -14.5 -77 -26.5l17 69c60.667 28 99.334 76 116.001 144c4 16 6 32 6 48h-74l14 55h59
c-2.66699 40.667 -0.666992 74 6 100c12 48 37 86.167 75 114.5s83.333 42.5 136 42.5c48 0 83.667 -12.167 107 -36.5s31.333 -59.5 24 -105.5h-74c11.333 58 -13 87 -73 87c-14 0 -27.5 -2.5 -40.5 -7.5s-25 -11.667 -36 -20s-20.5 -18.333 -28.5 -30
s-13.667 -24.5 -17 -38.5c-3.33301 -13.333 -5.16602 -29 -5.49902 -47s0.5 -37.667 2.5 -59h118l-14 -55h-106c1.33301 -11.333 0.333008 -23 -3 -35c-14 -56.667 -48.667 -103.667 -104 -141c18 6 37 9 57 9c14 0 41.333 -4.33301 82 -13l43 -8
c6 -1.33301 11.333 -2.33301 16 -3s8.66699 -1 12 -1c29.333 0 59 7 89 21l-18 -73v0z" />
    <glyph glyph-name="section" horiz-adv-x="432" 
d="M380 89l-39.999 52c-31.333 -18 -63.666 -27 -96.999 -27c-32.667 0 -60.334 9 -83.001 27l-64 -52l-35 44l66 53c-11.333 28.667 -13 58 -5 88c7.33301 29.333 23.666 58.666 48.999 87.999l-40 54l57 44l38 -53c32.667 18.667 65 28 97 28c34 0 61.667 -9.33301 83 -28
l66 53l33 -44l-66 -54c11.333 -27.333 13 -56.666 5 -87.999c-4 -15.333 -9.83301 -30.333 -17.5 -45s-18.167 -29 -31.5 -43l40 -53zM382.001 274c3.33301 13.333 3.83496 26 1.50195 38s-7 22.5 -14 31.5s-15.833 16.167 -26.5 21.5s-22.667 8 -36 8
s-26.666 -2.66699 -39.999 -8s-25.5 -12.5 -36.5 -21.5s-20.5 -19.5 -28.5 -31.5s-13.667 -24.667 -17 -38s-4 -26 -2 -38s6.33301 -22.5 13 -31.5s15.334 -16 26.001 -21s22.667 -7.5 36 -7.5s26.666 2.5 39.999 7.5s25.666 12 36.999 21s21.166 19.5 29.499 31.5
s14.166 24.667 17.499 38z" />
    <glyph glyph-name="paragraph" horiz-adv-x="202" 
d="M136 264l73 291h59l-73 -291h-59zM30 -162l72 289h59l-72 -289h-59z" />
    <glyph glyph-name="germandbls" horiz-adv-x="432" 
d="M440 176c-10.667 -44.667 -48.333 -81.3291 -113 -109.996c34 -24.667 45.333 -59.334 34 -104.001c-4.66699 -18 -12.667 -34.667 -24 -50s-25.166 -28.5 -41.499 -39.5s-34.333 -19.5 -54 -25.5s-40.167 -9 -61.5 -9c-46 0 -80.833 11.667 -104.5 35
s-32.834 57 -27.501 101h74c-8 -53.333 16 -80 72 -80c23.333 0 43.833 5.5 61.5 16.5s29.167 27.833 34.5 50.5c2 8 2.83301 15.167 2.5 21.5s-4.16602 13.833 -11.499 22.5s-19 19.167 -35 31.5s-38.667 28.5 -68 48.5c-21.333 14.667 -38.5 28 -51.5 40
s-22.667 24 -29 36s-9.83301 24.667 -10.5 38s1 28.333 5 45c12 46 49.667 81.667 113 107c-26 29.333 -35 60.666 -27 93.999c4 15.333 10.833 30.166 20.5 44.499s21.667 27 36 38s31 19.667 50 26s39.833 9.5 62.5 9.5c97.333 0 139 -43.333 125 -130h-73
c8 50 -13 75 -63 75c-47.333 0 -76 -20 -86 -60c-3.33301 -12.667 -2.5 -23.834 2.5 -33.501s14 -20.334 27 -32.001s30.167 -25 51.5 -40s46.666 -34.5 75.999 -58.5c19.333 -19.333 31 -37.166 35 -53.499s3.33301 -34.5 -2 -54.5zM370.001 162.005
c4 16.667 3.5 29.5 -1.5 38.5s-13.5 18.333 -25.5 28s-27.5 21.5 -46.5 35.5s-40.5 34.333 -64.5 61c-38 -16.667 -61 -41 -69 -73c-3.33301 -12 -4.16602 -22.667 -2.49902 -32s6.66699 -19 15 -29s20.333 -21 36 -33s36.5 -27 62.5 -45l15.5 -10.5
c4.33301 -3 8.16602 -6.16699 11.499 -9.5c38.667 16.667 61.667 39.667 69 69z" />
    <glyph glyph-name="registered" horiz-adv-x="258" 
d="M283 474l19 77h69l-19 -77h-69zM143 474l19 77h68l-19 -77h-68z" />
    <glyph glyph-name="copyright" horiz-adv-x="571" 
d="M640 279c-10 -38.667 -26.834 -75.334 -50.501 -110.001s-51.834 -65 -84.501 -91s-68.167 -46.5 -106.5 -61.5s-76.833 -22.5 -115.5 -22.5s-73.5 7.5 -104.5 22.5s-56.167 35.5 -75.5 61.5s-32.333 56.333 -39 91s-5 71.334 5 110.001
c9.33301 38.667 26 75.167 50 109.5s52.333 64.5 85 90.5s68.167 46.5 106.5 61.5s76.5 22.5 114.5 22.5s72.5 -7.66699 103.5 -23s56.333 -36 76 -62s32.834 -56.167 39.501 -90.5s5.33398 -70.5 -3.99902 -108.5zM592.999 279c8 32 9.16699 62.334 3.5 91.001
s-16.667 54 -33 76s-37.333 39.333 -63 52s-54.834 19 -87.501 19c-32 0 -64 -6.33301 -96 -19s-61.5 -29.834 -88.5 -51.501s-50.5 -47 -70.5 -76s-34 -59.5 -42 -91.5c-8 -32.667 -9.33301 -63.5 -4 -92.5s16 -54.5 32 -76.5s36.833 -39.333 62.5 -52
s54.834 -19 87.501 -19s65 6.5 97 19.5s61.667 30.5 89 52.5s51 47.5 71 76.5s34 59.5 42 91.5zM475.999 219.001c-36 -70 -89.668 -104.999 -161.001 -104.999c-24 0 -44.167 4.16699 -60.5 12.5s-29 19.833 -38 34.5s-14.5 32 -16.5 52s0 41.667 6 65
c12 49.333 35 88.333 69 117s75 43 123 43c32.667 0 58.834 -8.33301 78.501 -25s28.5 -40 26.5 -70h-53c2 36 -19.333 54 -64 54c-66 0 -109 -40 -129 -120c-9.33301 -34.667 -8 -62.834 4 -84.501s33 -32.5 63 -32.5c46.667 0 79.667 19.667 99 59h53z" />
    <glyph glyph-name="trademark" horiz-adv-x="287" 
d="M276 289l5.99805 27c-29.333 -22 -64 -33 -104 -33c-24.667 0 -44.5 6.83301 -59.5 20.5s-19.5 32.5 -13.5 56.5c16 63.333 78.667 95 188 95h24c6.66699 26 5.83398 43.167 -2.49902 51.5s-23.166 12.5 -44.499 12.5c-40 0 -63.333 -12.333 -70 -37h-55
c18 54 64.333 81 139 81c76 0 105.667 -33.667 89 -101l-43 -173h-54zM77.998 196l11 44h223l-11 -44h-223zM306.998 415h-33.999c-64.667 0 -101 -17.667 -109 -53c-6 -23.333 7.33301 -35 40 -35c13.333 0 29.166 4.16699 47.499 12.5s32.833 17.833 43.5 28.5z" />
    <glyph glyph-name="acute" horiz-adv-x="432" 
d="M327 27l-76 173l162 173h57l-142 -173l56 -173h-57zM179 27l-77 173l163 173h57l-143 -173l57 -173h-57z" />
    <glyph glyph-name="dieresis" horiz-adv-x="453" 
d="M385 157l42 169h-303l16 64h367l-58 -233h-64z" />
    <glyph glyph-name="notequal" horiz-adv-x="37" 
d="M38 173l14 56h42l-14 -56h-42z" />
    <glyph glyph-name="AE" horiz-adv-x="571" 
d="M640 279c-10 -38.667 -26.834 -75.334 -50.501 -110.001s-51.834 -65 -84.501 -91s-68.167 -46.5 -106.5 -61.5s-76.833 -22.5 -115.5 -22.5s-73.5 7.5 -104.5 22.5s-56.167 35.5 -75.5 61.5s-32.333 56.333 -39 91s-5 71.334 5 110.001
c9.33301 38.667 26 75.167 50 109.5s52.333 64.5 85 90.5s68.167 46.5 106.5 61.5s76.5 22.5 114.5 22.5s72.5 -7.66699 103.5 -23s56.333 -36 76 -62s32.834 -56.167 39.501 -90.5s5.33398 -70.5 -3.99902 -108.5zM592.999 279c8 32 9.16699 62.334 3.5 91.001
s-16.667 54 -33 76s-37.333 39.333 -63 52s-54.834 19 -87.501 19c-32 0 -64 -6.33301 -96 -19s-61.5 -29.834 -88.5 -51.501s-50.5 -47 -70.5 -76s-34 -59.5 -42 -91.5c-8 -32.667 -9.33301 -63.5 -4 -92.5s16 -54.5 32 -76.5s36.833 -39.333 62.5 -52
s54.834 -19 87.501 -19s65 6.5 97 19.5s61.667 30.5 89 52.5s51 47.5 71 76.5s34 59.5 42 91.5zM387.999 121.001l-9 65.999c-4 40 -26 60 -66 60h-39l-31 -126h-49l76 307h115c81.333 0 115 -28.333 101 -85c-12.667 -54 -46.667 -83 -102 -87
c26 -9.33301 41.333 -28.666 46 -57.999l15 -77h-57zM431.999 338c8 32 -13 48 -63 48h-60l-24 -96h63c48 0 76 16 84 48z" />
    <glyph glyph-name="Oslash" horiz-adv-x="258" 
d="M131 483l14 57h236l-14 -57h-236z" />
    <glyph glyph-name="infinity" horiz-adv-x="310" 
d="M374 458c-4 -14.667 -10.333 -28.5029 -19 -41.5029s-19 -24.167 -31 -33.5s-25 -16.833 -39 -22.5s-28.333 -8.5 -43 -8.5s-27.667 2.83301 -39 8.5s-20.5 13.334 -27.5 23.001s-11.667 20.834 -14 33.501s-1.5 26.334 2.5 41.001c3.33301 14 9.33301 27.333 18 40
s19 23.834 31 33.501s25 17.167 39 22.5s28.333 8 43 8s27.667 -2.83301 39 -8.5s20.5 -13.334 27.5 -23.001s11.667 -20.667 14 -33s1.83301 -25.5 -1.5 -39.5zM333 457.997c4 17.333 1.16699 31.999 -8.5 43.999s-23.167 18 -40.5 18c-18 0 -34.5 -6 -49.5 -18
s-24.5 -26.667 -28.5 -44c-5.33301 -19.333 -3.5 -35.166 5.5 -47.499s22.5 -18.5 40.5 -18.5c17.333 0 34 6.5 50 19.5s26.333 28.5 31 46.5z" />
    <glyph glyph-name="glyph148" horiz-adv-x="453" 
d="M322 258l-38 -152h-64l38 152h-151l16 63h151l38 153h64l-38 -153h152l-16 -63h-152zM43 0l15 64h367l-15 -64h-367z" />
    <glyph glyph-name="lessequal" horiz-adv-x="258" 
d="M78 278c8 19.333 22.498 39.1689 43.498 59.502s48.833 39.166 83.5 56.499c18.667 9.33301 33.834 17.666 45.501 24.999s21 14 28 20s12 11.833 15 17.5s5.5 11.834 7.5 18.501c6.66699 28 -7 42 -41 42c-32.667 0 -54.667 -12.333 -66 -37h-58
c24.667 54.667 70.334 82 137.001 82c33.333 0 58.333 -7.5 75 -22.5s21.667 -35.5 15 -61.5c-10 -38.667 -45 -73.334 -105 -104.001c-32 -16 -59 -33 -81 -51h148l-11 -45h-236z" />
    <glyph glyph-name="greaterequal" horiz-adv-x="258" 
d="M333 358c-6 -24.667 -20.834 -45.333 -44.501 -62s-54.5 -25 -92.5 -25c-70 0 -102.333 27 -97 81h59c-2 -24.667 13.667 -37 47 -37c38 0 61.667 16.667 71 50c6 25.333 -11 38 -51 38h-20l10 42c44.667 0 70.667 13.667 78 41c5.33301 21.333 -7 32 -37 32
s-49.333 -10.333 -58 -31h-59c22.667 50 65.334 75 128.001 75c69.333 0 98 -23.667 86 -71c-8 -34 -30.333 -55.667 -67 -65c40 -9.33301 55.667 -32 47 -68z" />
    <glyph glyph-name="yen" horiz-adv-x="258" 
d="M255 458h-55l77 105h88z" />
    <glyph glyph-name="mu" horiz-adv-x="432" 
d="M420 -7c-5.33301 -2 -12.332 -3 -20.999 -3c-50.667 0 -76.334 21.333 -77.001 64c-45.333 -42.667 -91 -64 -137 -64c-23.333 0 -43.333 6.33301 -60 19l-40 -163h-71l139 556h71l-69 -274c-13.333 -52 6.66699 -78 60 -78c38.667 0 79 21.333 121 64l72 288h70
l-78 -311c-7.33301 -27.333 0 -41 22 -41c6 0 10 0.666992 12 2l-14 -59v0z" />
    <glyph glyph-name="partialdiff" horiz-adv-x="416" 
d="M488 499l-163.001 -653h-64l163 653h-85l-163 -653h-62l99 395c-46 3.33301 -79.5 18 -100.5 44s-25.833 62.667 -14.5 110c12.667 51.333 38.334 90.833 77.001 118.5s85.667 41.5 141 41.5h240l-14 -56h-54z" />
    <glyph glyph-name="summation" horiz-adv-x="215" 
d="M127 234l19 77h77l-19 -77h-77z" />
    <glyph glyph-name="product" horiz-adv-x="258" 
d="M181 -89c-12 -48.667 -56.333 -73 -133 -73h-18.5c-6.33301 0 -13.166 0.333008 -20.499 1l11 44c7.33301 -0.666992 14.5 -1.16699 21.5 -1.5s13.833 -0.5 20.5 -0.5c31.333 0 49.666 10 54.999 30c4.66699 20 -10.333 30 -45 30l15 59h53l-7 -28
c40.667 -6 56.667 -26.333 48 -61z" />
    <glyph glyph-name="pi" horiz-adv-x="258" 
d="M194 278l46 184c-20 -12 -50.333 -18 -91 -18l12 47c66.667 0 106 23.667 118 71h41l-71 -284h-55z" />
    <glyph glyph-name="integral" horiz-adv-x="283" 
d="M372 422c-10.667 -42.667 -29.834 -77.001 -57.501 -103.001s-62.5 -39 -104.5 -39c-39.333 0 -66.666 12.833 -81.999 38.5s-17.333 60.167 -6 103.5c10.667 42.667 29.5 76.834 56.5 102.501s61.167 38.5 102.5 38.5c20.667 0 38 -3.5 52 -10.5
s24.667 -16.833 32 -29.5s11.5 -27.5 12.5 -44.5s-0.833008 -35.833 -5.5 -56.5zM78 195.999l11 44h223l-11 -44h-223zM314 421.999c15.333 60.667 0 91 -46 91c-44 0 -73.667 -30.333 -89 -91c-16 -61.333 -1.33301 -92 44 -92c44.667 0 75 30.667 91 92z" />
    <glyph glyph-name="ordfeminine" horiz-adv-x="432" 
d="M263 27h-55l141 173l-55 173h55l78 -173zM115 27h-56l143 173l-57 173h56l78 -173z" />
    <glyph glyph-name="ordmasculine" horiz-adv-x="646" 
d="M586 58l-14 -58h-54l14 58h-145l12 47l196 179h47l-44 -177h39l-12 -49h-39zM148 0h-59l531 555h60zM202 278l46 184c-20 -12 -50 -18 -90 -18l12 47c65.333 0 104 23.667 116 71h41l-71 -284h-54zM571 214l-119 -107h92z" />
    <glyph glyph-name="Omega" horiz-adv-x="646" 
d="M389 0c16 42 57.999 80.666 125.999 115.999l49 27c16.667 9.33301 28.167 18.333 34.5 27s10.833 18 13.5 28c6.66699 28 -7 42 -41 42c-32.667 0 -55 -12.333 -67 -37h-58c24.667 54 70.334 81 137.001 81c32 0 56.5 -7.33301 73.5 -22s22.167 -34.667 15.5 -60
c-5.33301 -20.667 -14.5 -37.5 -27.5 -50.5s-28.167 -24.833 -45.5 -35.5s-35.833 -21.167 -55.5 -31.5s-38.5 -23.166 -56.5 -38.499h148l-11 -46h-235zM147.999 -0.000976562h-59l531 555h60zM201.999 277.999l46 184c-20 -12 -50 -18 -90 -18l12 47
c65.333 0 104 23.667 116 71h41l-71 -284h-54z" />
    <glyph glyph-name="ae" horiz-adv-x="646" 
d="M586 58l-14 -58h-54l14 58h-145l12 47l196 179h47l-44 -177h39l-12 -49h-39zM169 0h-60l533 555h59zM341 358c-6.66699 -26 -22.6641 -47 -47.9971 -63s-55 -24 -89 -24c-71.333 0 -103.333 27 -96 81h58c-2.66699 -24.667 12.666 -37 45.999 -37
c38.667 0 62.667 16.667 72 50c6 25.333 -11 38 -51 38h-21l10 42c45.333 0 71.666 13.667 78.999 41c5.33301 21.333 -7.33398 32 -38.001 32c-29.333 0 -48.333 -10.333 -57 -31h-59c23.333 50 65.666 75 126.999 75c30 0 53.333 -6.33301 70 -19s22.334 -30 17.001 -52
c-8 -34 -30.667 -55.667 -68 -65c40.667 -9.33301 56.667 -32 48 -68zM571.003 214l-119 -107h92z" />
    <glyph glyph-name="oslash" horiz-adv-x="432" 
d="M257 323l20 79h79l-20 -79h-79zM394 -2c-17.333 -50 -45.8311 -89.168 -85.498 -117.501s-84.5 -42.5 -134.5 -42.5c-24.667 0 -47 3.16699 -67 9.5s-36.5 15.833 -49.5 28.5s-21.667 28.334 -26 47.001s-3.5 40.334 2.5 65.001s18.333 48.167 37 70.5
s44.667 45.5 78 69.5l39 28c8 6 14.833 11.667 20.5 17s10.834 11.666 15.501 18.999s9 16.666 13 27.999s8.33301 26 13 44h67c-6 -24.667 -12 -45 -18 -61s-13.333 -30 -22 -42s-19.334 -23.167 -32.001 -33.5s-28.334 -22.166 -47.001 -35.499
c-18 -12.667 -32.333 -23.5 -43 -32.5s-19.167 -17 -25.5 -24s-10.833 -13.667 -13.5 -20s-5 -13.5 -7 -21.5c-7.33301 -30 -3.5 -54.333 11.5 -73s37.167 -28 66.5 -28c61.333 0 105.666 35 132.999 105h74z" />
    <glyph glyph-name="questiondown" horiz-adv-x="517" 
d="M526 0l-28 202h-296l-62 -100.5l-62 -101.5h-61l100.5 161l99 157l99 156.5l101.5 160.5h76l103 -635h-70zM447 604l-222 -360h270zM404 711l-55.999 98h70c3.33301 -18 7.16602 -34.5 11.499 -49.5s8.5 -31.167 12.5 -48.5h-38z" />
    <glyph glyph-name="exclamdown" horiz-adv-x="517" 
d="M526 0l-28 202h-296l-62 -100.5l-62 -101.5h-61l100.5 161l99 157l99 156.5l101.5 160.5h76l103 -635h-70zM447 604l-222 -360h270zM377 614h-55l77 105h88z" />
    <glyph glyph-name="logicalnot" horiz-adv-x="517" 
d="M526 0l-28 202h-296l-62 -100.5l-62 -101.5h-61l100.5 161l99 157l99 156.5l101.5 160.5h76l103 -635h-70zM447 604l-222 -360h270zM410 614l-27 64l-60 -64h-76l110 105h72l58 -105h-77z" />
    <glyph glyph-name="radical" horiz-adv-x="517" 
d="M526 0l-28 202h-296l-62 -100.5l-62 -101.5h-61l100.5 161l99 157l99 156.5l101.5 160.5h76l103 -635h-70zM447 604l-222 -360h270zM521 688c-14 -58 -47 -87 -99 -87c-6 0 -22.667 5.33301 -50 16c-25.333 10.667 -39.666 16 -42.999 16
c-14.667 0 -26.334 -11.333 -35.001 -34h-49c6 25.333 18 46.333 36 63s38.667 25 62 25c11.333 0 29 -5.33301 53 -16l25 -11c6.66699 -3.33301 11.667 -5 15 -5c16 0 27.667 11 35 33h50v0z" />
    <glyph glyph-name="florin" horiz-adv-x="517" 
d="M526 0l-28 202h-296l-62 -100.5l-62 -101.5h-61l100.5 161l99 157l99 156.5l101.5 160.5h76l103 -635h-70zM447 604l-222 -360h270zM406 630l19 77h69l-19 -77h-69zM266 630l19 77h68l-19 -77h-68z" />
    <glyph glyph-name="approxequal" horiz-adv-x="517" 
d="M435 0l-23.002 168.999h-232l-103 -169h-77l351 555h31c-16.667 1.33301 -29 8.5 -37 21.5s-9.66699 28.167 -5 45.5c4.66699 19.333 15 35.666 31 48.999s33.667 20 53 20s33.833 -6.66699 43.5 -20s12.167 -29.666 7.5 -48.999
c-5.33301 -18.667 -15.166 -34.167 -29.499 -46.5s-30.166 -19.166 -47.499 -20.499h32l88 -555h-83zM371.998 484.999l-159 -257h192zM447.998 621.999c3.33301 12 1.66895 22 -4.99805 30s-15.334 12 -26.001 12c-26 0 -42.333 -14 -49 -42c-6.66699 -26.667 3 -40 29 -40
c12 0 22.667 4 32 12s15.666 17.333 18.999 28z" />
    <glyph glyph-name="Delta" horiz-adv-x="775" 
d="M369 0l39 160h-196l-127 -160h-85l458 555h400l-17 -67h-277l-42 -168h254l-16 -67h-254l-47 -187h289l-16 -66h-363zM490 488h-15l-210 -263h160z" />
    <glyph glyph-name="guillemotleft" horiz-adv-x="560" 
d="M355 36c114 0 190.328 48.998 228.995 146.998h61c-12 -31.333 -28.167 -59 -48.5 -83s-43.666 -44.333 -69.999 -61s-55 -29.167 -86 -37.5s-63.167 -12.5 -96.5 -12.5c-45.333 0 -84.333 7.5 -117 22.5s-58.167 36.667 -76.5 65s-29.333 63 -33 104
s0.833008 87.167 13.5 138.5c12.667 50 30.834 95.167 54.501 135.5s51.834 74.666 84.501 102.999s69 50 109 65s82.667 22.5 128 22.5c66 0 116.5 -15.167 151.5 -45.5s53.5 -76.166 55.5 -137.499h-60c1.33301 44 -12.5 77.667 -41.5 101s-67.5 35 -115.5 35
c-36 0 -70.167 -6.66699 -102.5 -20s-61.666 -32.166 -87.999 -56.499s-49.166 -53.666 -68.499 -87.999s-34.333 -72.5 -45 -114.5c-22.667 -91.333 -19.5 -161.333 9.5 -210s79.833 -73 152.5 -73zM661.995 182.998h-17l7 15zM350.995 -89.002
c-12 -48.667 -56.333 -73 -133 -73h-18.5c-6.33301 0 -13.166 0.333008 -20.499 1l11 44c7.33301 -0.666992 14.5 -1.16699 21.5 -1.5s13.833 -0.5 20.5 -0.5c31.333 0 49.666 10 54.999 30c4.66699 20 -10.333 30 -45 30l15 59h53l-7 -28c40.667 -6 56.667 -26.333 48 -61z
" />
    <glyph glyph-name="guillemotright" horiz-adv-x="517" 
d="M84 0l158 635h450l-13 -51h-391l-57 -230h366l-13 -50h-366l-63 -252h407l-12 -52h-466zM418 711l-55.999 98h70c3.33301 -18 7.16602 -34.5 11.499 -49.5s8.5 -31.167 12.5 -48.5h-38z" />
    <glyph glyph-name="ellipsis" horiz-adv-x="517" 
d="M84 0l158 635h450l-13 -51h-391l-57 -230h366l-13 -50h-366l-63 -252h407l-12 -52h-466zM384 614h-55l77 105h88z" />
    <glyph glyph-name="uni00A0" horiz-adv-x="517" 
d="M84 0l158 635h450l-13 -51h-391l-57 -230h366l-13 -50h-366l-63 -252h407l-12 -52h-466zM424 614l-27 64l-60 -64h-76l110 105h72l58 -105h-77z" />
    <glyph glyph-name="Agrave" horiz-adv-x="517" 
d="M84 0l158 635h450l-13 -51h-391l-57 -230h366l-13 -50h-366l-63 -252h407l-12 -52h-466zM421 630l19 77h69l-19 -77h-69zM281 630l19 77h68l-19 -77h-68z" />
    <glyph glyph-name="Atilde" horiz-adv-x="215" 
d="M97 0l158 635h60l-158 -635h-60zM266 711l-55.999 98h70c3.33301 -18 7.16602 -34.5 11.499 -49.5s8.5 -31.167 12.5 -48.5h-38z" />
    <glyph glyph-name="Otilde" horiz-adv-x="215" 
d="M97 0l158 635h60l-158 -635h-60zM228 614h-55l77 105h88z" />
    <glyph glyph-name="OE" horiz-adv-x="215" 
d="M97 0l158 635h60l-158 -635h-60zM268 614l-27 64l-60 -64h-76l110 105h72l58 -105h-77z" />
    <glyph glyph-name="oe" horiz-adv-x="215" 
d="M264 630l19 77h69l-19 -77h-69zM124 630l19 77h68l-19 -77h-68zM97 0l158 635h60l-158 -635h-60z" />
    <glyph glyph-name="glyph181" horiz-adv-x="603" 
d="M737 319c-12 -48 -30.001 -92.168 -54.001 -132.501s-52.833 -75.166 -86.5 -104.499s-71 -52.166 -112 -68.499s-84.5 -24.5 -130.5 -24.5c-47.333 0 -87.666 8.5 -120.999 25.5s-59.5 40.167 -78.5 69.5s-30.667 64.166 -35 104.499s-0.5 83.833 11.5 130.5
c12 48 30.167 92 54.5 132s53.333 74.333 87 103s71.167 51 112.5 67s85.333 24 132 24c46 0 85.5 -8 118.5 -24s59 -38.5 78 -67.5s30.667 -63.5 35 -103.5s0.5 -83.667 -11.5 -131zM673.999 318.999c10.667 42.667 14.665 81.334 11.998 116.001s-11.5 64 -26.5 88
s-35.333 42.5 -61 55.5s-56.167 19.5 -91.5 19.5c-38 0 -73.833 -6.83301 -107.5 -20.5s-64.167 -32.834 -91.5 -57.501s-51 -54.167 -71 -88.5s-35 -71.833 -45 -112.5c-10.667 -42 -14.167 -80.167 -10.5 -114.5s13.167 -64.833 28.5 -91.5h-1
c14.667 -26.667 34.834 -46.167 60.501 -58.5s56.834 -18.5 93.501 -18.5s71.5 7 104.5 21s63.167 33.5 90.5 58.5s51 54.833 71 89.5s35 72.667 45 114zM464.997 710.999l-55.999 98h70c3.33301 -18 7.16602 -34.5 11.499 -49.5s8.5 -31.167 12.5 -48.5h-38z" />
    <glyph glyph-name="glyph182" horiz-adv-x="603" 
d="M737 319c-12 -48 -30.001 -92.168 -54.001 -132.501s-52.833 -75.166 -86.5 -104.499s-71 -52.166 -112 -68.499s-84.5 -24.5 -130.5 -24.5c-47.333 0 -87.666 8.5 -120.999 25.5s-59.5 40.167 -78.5 69.5s-30.667 64.166 -35 104.499s-0.5 83.833 11.5 130.5
c12 48 30.167 92 54.5 132s53.333 74.333 87 103s71.167 51 112.5 67s85.333 24 132 24c46 0 85.5 -8 118.5 -24s59 -38.5 78 -67.5s30.667 -63.5 35 -103.5s0.5 -83.667 -11.5 -131zM673.999 318.999c10.667 42.667 14.665 81.334 11.998 116.001s-11.5 64 -26.5 88
s-35.333 42.5 -61 55.5s-56.167 19.5 -91.5 19.5c-38 0 -73.833 -6.83301 -107.5 -20.5s-64.167 -32.834 -91.5 -57.501s-51 -54.167 -71 -88.5s-35 -71.833 -45 -112.5c-10.667 -42 -14.167 -80.167 -10.5 -114.5s13.167 -64.833 28.5 -91.5h-1
c14.667 -26.667 34.834 -46.167 60.501 -58.5s56.834 -18.5 93.501 -18.5s71.5 7 104.5 21s63.167 33.5 90.5 58.5s51 54.833 71 89.5s35 72.667 45 114zM427.997 613.999h-55l77 105h88z" />
    <glyph glyph-name="glyph183" horiz-adv-x="603" 
d="M737 319c-12 -48 -30.001 -92.168 -54.001 -132.501s-52.833 -75.166 -86.5 -104.499s-71 -52.166 -112 -68.499s-84.5 -24.5 -130.5 -24.5c-47.333 0 -87.666 8.5 -120.999 25.5s-59.5 40.167 -78.5 69.5s-30.667 64.166 -35 104.499s-0.5 83.833 11.5 130.5
c12 48 30.167 92 54.5 132s53.333 74.333 87 103s71.167 51 112.5 67s85.333 24 132 24c46 0 85.5 -8 118.5 -24s59 -38.5 78 -67.5s30.667 -63.5 35 -103.5s0.5 -83.667 -11.5 -131zM673.999 318.999c10.667 42.667 14.665 81.334 11.998 116.001s-11.5 64 -26.5 88
s-35.333 42.5 -61 55.5s-56.167 19.5 -91.5 19.5c-38 0 -73.833 -6.83301 -107.5 -20.5s-64.167 -32.834 -91.5 -57.501s-51 -54.167 -71 -88.5s-35 -71.833 -45 -112.5c-10.667 -42 -14.167 -80.167 -10.5 -114.5s13.167 -64.833 28.5 -91.5h-1
c14.667 -26.667 34.834 -46.167 60.501 -58.5s56.834 -18.5 93.501 -18.5s71.5 7 104.5 21s63.167 33.5 90.5 58.5s51 54.833 71 89.5s35 72.667 45 114zM458.997 613.999l-27 64l-60 -64h-76l110 105h72l58 -105h-77z" />
    </font>
</defs>
</svg>
