<?xml version="1.0" standalone="no"?>
<!DOCTYPE svg PUBLIC "-//W3C//DTD SVG 1.1//EN" "http://www.w3.org/Graphics/SVG/1.1/DTD/svg11.dtd" >
<svg>
<metadata>
Created by FontForge 20090914 at Mon Dec 19 06:18:38 2022
 By www-data
Copyright (c) 2018 by &#194;&#169; Summit Information Technologies Pvt. Ltd.. All rights reserved.
</metadata>
<defs>
<font id="KalingaVUni" horiz-adv-x="14" >
  <font-face 
    font-family="KalingaVUni"
    font-weight="400"
    font-stretch="normal"
    units-per-em="1000"
    panose-1="2 0 5 6 2 0 0 2 0 4"
    ascent="800"
    descent="-200"
    x-height="459"
    cap-height="635"
    bbox="-599.999 -563.001 1539 1054"
    underline-thickness="20"
    underline-position="-129"
    unicode-range="U+0020-U+25CC"
  />
<missing-glyph horiz-adv-x="615" 
d="M77 923h462v-923h-462v923zM461 77v769h-307v-769h307z" />
    <glyph glyph-name=".notdef" horiz-adv-x="615" 
d="M77 923h462v-923h-462v923zM461 77v769h-307v-769h307z" />
    <glyph glyph-name="space" unicode=" " horiz-adv-x="332" 
 />
    <glyph glyph-name="exclam" unicode="!" horiz-adv-x="250" 
d="M113 167v476h48v-476h-48zM95 0v65h66v-65h-66z" />
    <glyph glyph-name="quotedbl" unicode="&#x22;" horiz-adv-x="317" 
d="M256 434h-25l-19 209h64v-94zM96 434h-25c-3.33301 36.667 -6.83301 71.667 -10.5 105s-7.16699 68 -10.5 104h64v-94z" />
    <glyph glyph-name="numbersign" unicode="#" horiz-adv-x="498" 
d="M403 418l-37.998 -194.002h89v-38h-99c-4.66699 -29.333 -10.834 -60.166 -18.501 -92.499s-14.167 -63.5 -19.5 -93.5h-40l39 186h-176c-5.33301 -29.333 -11.666 -60.166 -18.999 -92.499s-14 -63.5 -20 -93.5h-39l36 186h-80v38h89l39 194h-89v41h98
c5.33301 28 11.666 58.333 18.999 91s13.666 63.667 18.999 93h39l-39 -184h178l39 184h40l-38 -184h79v-41h-88zM187.002 417.998l-38 -194h174l37 194h-173z" />
    <glyph glyph-name="dollar" unicode="$" horiz-adv-x="493" 
d="M460 180c0 -26.667 -4.83008 -51.3291 -14.4971 -73.9961s-23.167 -42.5 -40.5 -59.5s-38 -30.5 -62 -40.5s-50.333 -15.667 -79 -17v-71h-20v70c-60.667 6 -107.334 22.833 -140.001 50.5s-52 68.5 -58 122.5h60c5.33301 -38.667 19.166 -68.667 41.499 -90
s54.5 -36 96.5 -44v284c-62 13.333 -108.333 33.833 -139 61.5s-46 64.167 -46 109.5c0 51.333 16.5 91.666 49.5 120.999s78.167 46.333 135.5 51v72h20v-72c50 -3.33301 89.833 -17.333 119.5 -42s49.167 -56 58.5 -94h-61c-4 29.333 -15.5 51.666 -34.5 66.999
s-46.5 25.666 -82.5 30.999v-258c37.333 -8 68.5 -17 93.5 -27s45.167 -22.167 60.5 -36.5s26.166 -30.833 32.499 -49.5s9.5 -40.334 9.5 -65.001zM244.003 617.005c-83.333 -12.667 -125 -55.999 -125 -129.999c0 -64.667 41.667 -106.334 125 -125.001v255z
M399.003 173.006c0 40.667 -11.333 70.666 -34 89.999h2c-16.667 16.667 -51 32 -103 46v-282c90 10.667 135 59.334 135 146.001z" />
    <glyph glyph-name="percent" unicode="%" horiz-adv-x="798" 
d="M753 153c0 -49.333 -12.332 -88.999 -36.999 -118.999s-59 -45 -103 -45c-22 0 -41.5 4.16699 -58.5 12.5s-31.333 19.833 -43 34.5s-20.667 32 -27 52s-9.5 41.667 -9.5 65c0 24 3 46 9 66s14.833 37.167 26.5 51.5s26 25.666 43 33.999s36.833 12.5 59.5 12.5
c20.667 0 39.667 -4.16699 57 -12.5s32.166 -19.833 44.499 -34.5s21.833 -32 28.5 -52s10 -41.667 10 -65zM248.001 0.000976562h-33l351 643h33zM342.001 492.001c0 -50.667 -12.332 -90.834 -36.999 -120.501s-59 -44.5 -103 -44.5c-44.667 0 -79.667 16 -105 48v-1
c-10.667 16.667 -18.834 34.667 -24.501 54s-8.5 40.666 -8.5 63.999c0 22.667 3 43.834 9 63.501s15 36.834 27 51.501s26.5 26 43.5 34s36.5 12 58.5 12s41.667 -4.16699 59 -12.5s32 -19.666 44 -33.999s21.167 -31.333 27.5 -51s9.5 -40.834 9.5 -63.501z
M706.002 153.001c0 90.667 -31 136 -93 136c-32 0 -55.167 -11.167 -69.5 -33.5s-21.5 -56.5 -21.5 -102.5s7.16699 -80.167 21.5 -102.5s37.5 -33.5 69.5 -33.5c62 0 93 45.333 93 136zM295.002 492.001c0 90 -31 135 -93 135s-93 -45 -93 -135c0 -91.333 31 -137 93 -137
s93 45.667 93 137z" />
    <glyph glyph-name="ampersand" unicode="&#x26;" horiz-adv-x="590" 
d="M507 -6l-59.002 77.001c-29.333 -28 -60.833 -48.667 -94.5 -62s-69.167 -20 -106.5 -20c-28 0 -54.167 4.5 -78.5 13.5s-45.5 21.667 -63.5 38s-32.167 35.666 -42.5 57.999s-15.5 46.5 -15.5 72.5c0 19.333 3 36.833 9 52.5s15 30.667 27 45s26.833 28.333 44.5 42
s38.167 28.167 61.5 43.5l-2 -1l23 12c-52 68 -78 119.667 -78 155c0 20 4 38.167 12 54.5s19 30.333 33 42s30.333 20.667 49 27s38.334 9.5 59.001 9.5c19.333 0 37.5 -3.16699 54.5 -9.5s32 -15.166 45 -26.499s23.167 -24.833 30.5 -40.5s11 -32.834 11 -51.501
c0 -54 -46.333 -109 -139 -165l162 -200c8 23.333 15 45.5 21 66.5s9.66699 41.167 11 60.5h60c-3.33301 -29.333 -9.66602 -58.5 -18.999 -87.5s-21.333 -57.5 -36 -85.5l33 -40l32 -41zM370.998 524.001c0 26 -8.83301 47.667 -26.5 65s-39.167 26 -64.5 26
s-46.833 -8.16699 -64.5 -24.5s-26.5 -36.833 -26.5 -61.5c0 -16 3.66699 -32.167 11 -48.5s18 -33.5 32 -51.5v2l30 -40c72.667 40.667 109 85 109 133zM238.998 333.001c-86.667 -50.667 -130.002 -103 -130.002 -157c0 -19.333 3.66699 -37.5 11 -54.5s17.333 -32 30 -45
s27.334 -23.333 44.001 -31s34.334 -11.5 53.001 -11.5c67.333 0 124 24.667 170 74z" />
    <glyph glyph-name="quotesingle" unicode="'" horiz-adv-x="169" 
d="M102 434h-28l-21 117v92h66v-92z" />
    <glyph glyph-name="parenleft.001" unicode="(" horiz-adv-x="386" 
d="M371 -150c-29.333 34.667 -56.833 74.833 -82.5 120.5s-48 92.5 -67 140.5s-33.833 95 -44.5 141s-16 87 -16 123c0 38 5.5 80.333 16.5 127s26 94 45 142s41.5 94.833 67.5 140.5s54.333 86.5 85 122.5c-56 -90.667 -98.5 -181 -127.5 -271s-43.5 -177 -43.5 -261
c0 -166 57.333 -341 172 -525h-5z" />
    <glyph glyph-name="parenright.001" unicode=")" horiz-adv-x="386" 
d="M292 375c0 -77.333 -17.501 -159.999 -52.501 -247.999s-87.833 -180.667 -158.5 -278h-6c118 178.667 177 354 177 526c0 88 -14.667 176.167 -44 264.5s-73 177.5 -131 267.5c28.667 -34 56 -73.667 82 -119s48.833 -92 68.5 -140s35.334 -95.833 47.001 -143.5
s17.5 -90.834 17.5 -129.501z" />
    <glyph glyph-name="asterisk.001" unicode="*" horiz-adv-x="557" 
d="M311 772l4.00293 -0.998047l20 13l-58 162l1 -1c-0.666992 3.33301 -1 6 -1 8c0 6 1.66699 12.167 5 18.5s7.66602 12.166 12.999 17.499s11.666 9.66602 18.999 12.999s14.666 5 21.999 5c16.667 0 30.5 -4.5 41.5 -13.5s16.5 -19.167 16.5 -30.5
c0 -3.33301 -0.333008 -6 -1 -8s-1 -3.33301 -1 -4l-57 -172l14 -9l2 -18l-18 -10h2l-4 -11l59 -170c0.666992 -0.666992 1 -2.66699 1 -6c0 -10.667 -6 -20.167 -18 -28.5s-25.667 -12.5 -41 -12.5c-14.667 0 -28 5.16699 -40 15.5s-18 22.833 -18 37.5l57 164l-3 7l5 4
l-18 11l-1 18zM91.0029 653.002c0 13.333 4.66699 25.832 14 37.499s20.333 18.834 33 21.501l167 32l-54.5 -61l-54.5 -61v2c-12 -12 -26.333 -18 -43 -18c-16 0 -30.333 4.16699 -43 12.5s-19 19.833 -19 34.5zM183.003 914.001l128 -142.001l-182 50
c-9.33301 4 -16.833 9.83301 -22.5 17.5s-8.5 17.834 -8.5 30.501c0 16 4.5 29.167 13.5 39.5s23.167 15.5 42.5 15.5c10 0 19.667 -4 29 -12v1zM573.003 645c0 -12 -5.83398 -22.668 -17.501 -32.001s-24.167 -14 -37.5 -14c-5.33301 0 -9.83301 0.833008 -13.5 2.5
s-7.16699 3.83398 -10.5 6.50098h2l-139 137l178 -37c4 -0.666992 8.16699 -3.16699 12.5 -7.5s8.33301 -9.5 12 -15.5s6.83398 -12.667 9.50098 -20s4 -14 4 -20zM364.002 775.999l124.002 131c4.66699 8 15 12 31 12c11.333 0 20.666 -1.5 27.999 -4.5
s12.666 -8.5 15.999 -16.5v1c1.33301 -4 3 -8.16699 5 -12.5s3 -9.5 3 -15.5c0 -15.333 -2.5 -27 -7.5 -35s-12.167 -13.667 -21.5 -17v1zM349.004 769.999v2l15 4l-9 -11zM305.004 743.999l9 10l1 -7zM351.004 751.999l6 -8l-6 3v5z" />
    <glyph glyph-name="plus.001" unicode="+" horiz-adv-x="728" 
d="M444 362v-362h-26v362h-368v27h368v360h26v-360h369v-27h-369z" />
    <glyph glyph-name="comma" unicode="," horiz-adv-x="250" 
d="M161 -15c0 -68.667 -22 -107.668 -66 -117.001v16c30.667 6.66699 46 45.334 46 116.001h-46v65h66v-80v0z" />
    <glyph glyph-name="hyphen.001" unicode="-" horiz-adv-x="446" 
d="M52 318v36h344v-36h-344z" />
    <glyph glyph-name="period" unicode="." horiz-adv-x="250" 
d="M95 0v65h66v-65h-66z" />
    <glyph glyph-name="slash.001" unicode="/" horiz-adv-x="315" 
d="M82 -255c-6 0 -10.668 -0.166992 -14.001 -0.5s-6.66602 -0.5 -9.99902 -0.5l240 1118c6.66699 0.666992 12 1 16 1h14z" />
    <glyph glyph-name="zero" unicode="0" horiz-adv-x="498" 
d="M460 322c0 -222 -68 -333 -204 -333c-138 0 -207 111 -207 333c0 220.667 69 331 207 331c136 0 204 -110.333 204 -331zM399 322c0 99.333 -10.832 173 -32.499 221s-58.5 72 -110.5 72c-26 0 -48.167 -6.83301 -66.5 -20.5s-33.333 -33.334 -45 -59.001
s-20 -56.5 -25 -92.5s-7.5 -76.333 -7.5 -121c0 -102 11.167 -176.5 33.5 -223.5s59.166 -70.5 110.499 -70.5c50.667 0 87.167 23.833 109.5 71.5s33.5 121.834 33.5 222.501z" />
    <glyph glyph-name="one" unicode="1" horiz-adv-x="435" 
d="M274 0v539.998c-22 -15.333 -46.333 -26.666 -73 -33.999s-56 -11.666 -88 -12.999v38c51.333 2 92 12.667 122 32s49.333 49.333 58 90h39v-653h-58z" />
    <glyph glyph-name="two" unicode="2" horiz-adv-x="481" 
d="M38 0c0.666992 18 4.16699 35.3359 10.5 52.0029s16.166 33.834 29.499 51.501s30.666 36.667 51.999 57s47.666 43.166 78.999 68.499c38.667 31.333 70 58.166 94 80.499s42.5 42.666 55.5 60.999s21.833 36 26.5 53s7 36.5 7 58.5c0 88.667 -45.333 133 -136 133
c-84 0 -130.667 -42.333 -140 -127h-59c7.33301 54.667 29 95.834 65 123.501s81 41.5 135 41.5c62 0 110.167 -16 144.5 -48s51.5 -73.667 51.5 -125c0 -24 -2.66699 -45.333 -8 -64s-15.166 -38 -29.499 -58s-34.166 -42 -59.499 -66s-58 -53.333 -98 -88
c-42.667 -34.667 -74.667 -64.834 -96 -90.501s-32.666 -45.834 -33.999 -60.501h326v-53h-416z" />
    <glyph glyph-name="three" unicode="3" horiz-adv-x="499" 
d="M461 185c0 -29.333 -5.33398 -56.002 -16.001 -80.002s-25.334 -44.667 -44.001 -62s-40.667 -30.666 -66 -39.999s-52.666 -14 -81.999 -14c-27.333 0 -52.666 3.5 -75.999 10.5s-43.833 17.333 -61.5 31s-32.334 30.5 -44.001 50.5s-18.834 42.667 -21.501 68h59
c4 -37.333 19.5 -66.833 46.5 -88.5s59.5 -32.5 97.5 -32.5c22.667 0 43.167 3.83301 61.5 11.5s33.833 18.334 46.5 32.001s22.5 29.834 29.5 48.501s10.5 39 10.5 61c0 98 -53.667 147 -161 147h-19v39h7c93.333 0 140 43.333 140 130c0 78.667 -40.333 118 -121 118
c-36 0 -65 -8.5 -87 -25.5s-35 -44.167 -39 -81.5h-61c8 45.333 27.333 81 58 107v-1c16.667 13.333 35.834 23.166 57.501 29.499s45.167 9.5 70.5 9.5c26 0 50.167 -3.5 72.5 -10.5s41.5 -17.333 57.5 -31s28.5 -30.334 37.5 -50.001s13.5 -42.167 13.5 -67.5
c0 -57.333 -40.667 -104.666 -122 -141.999c48.667 -12.667 86.834 -34.167 114.501 -64.5s41.5 -64.5 41.5 -102.5z" />
    <glyph glyph-name="four" unicode="4" horiz-adv-x="472" 
d="M368 161v-161h-58v161h-285v58l149 216.5l148 216.5h46v-444h91v-47h-91zM310 577l-247 -369h247v369z" />
    <glyph glyph-name="five" unicode="5" horiz-adv-x="499" 
d="M464 214c0 -33.333 -5.16797 -63.6699 -15.501 -91.0029s-25 -51 -44 -71s-41.667 -35.5 -68 -46.5s-55.833 -16.5 -88.5 -16.5c-55.333 0 -100.333 13.333 -135 40s-56 66.334 -64 119.001h60c7.33301 -41.333 22.666 -71.666 45.999 -90.999s54.333 -29 93 -29
c23.333 0 44.5 4.66699 63.5 14s35.333 22 49 38s24.167 34.833 31.5 56.5s11 44.5 11 68.5c0 24.667 -3.5 47.334 -10.5 68.001s-17.333 38.334 -31 53.001s-30.167 26.167 -49.5 34.5s-41 12.5 -65 12.5c-48.667 0 -90.667 -18.667 -126 -56h-47l26 326h333v-51h-285
l-19 -233c24.667 20 48.667 34.667 72 44s46 14 68 14c28 0 53.833 -5.33301 77.5 -16s44.334 -25.334 62.001 -44.001s31.334 -40.167 41.001 -64.5s14.5 -50.5 14.5 -78.5z" />
    <glyph glyph-name="six" unicode="6" horiz-adv-x="501" 
d="M462 203c0 -31.333 -4.99902 -60.166 -14.999 -86.499s-23.667 -49 -41 -68s-37.833 -33.667 -61.5 -44s-49.5 -15.5 -77.5 -15.5c-36 0 -67.667 7.5 -95 22.5s-50 36 -68 63s-31.667 59.667 -41 98s-14 80.833 -14 127.5c0 235.333 75 353 225 353
c50 0 89.333 -11 118 -33s47.667 -57 57 -105h-58c-7.33301 32 -21.5 56.667 -42.5 74s-47.5 26 -79.5 26c-96 0 -150 -103 -162 -309c57.333 67.333 113.666 101 168.999 101c27.333 0 52.5 -5.5 75.5 -16.5s42.667 -25.833 59 -44.5s29 -40.334 38 -65.001
s13.5 -50.667 13.5 -78zM402.001 199c0 23.333 -3.16895 45.167 -9.50195 65.5s-15.5 38.166 -27.5 53.499s-26.667 27.5 -44 36.5s-37 13.5 -59 13.5c-51.333 0 -102.666 -27.667 -153.999 -83c4 -171.333 56.667 -257 158 -257c20.667 0 39.334 4.5 56.001 13.5
s31 21.333 43 37s21.167 33.834 27.5 54.501s9.5 42.667 9.5 66z" />
    <glyph glyph-name="seven" unicode="7" horiz-adv-x="502" 
d="M220 0h-66l249 592h-350v51h407v-45z" />
    <glyph glyph-name="eight" unicode="8" horiz-adv-x="498" 
d="M462 165c0 -28 -5.5 -53.0029 -16.5 -75.0029s-26 -40.5 -45 -55.5s-40.833 -26.333 -65.5 -34s-51 -11.5 -79 -11.5c-31.333 0 -59.666 3.83301 -84.999 11.5s-47.333 19 -66 34s-33 33.5 -43 55.5s-15 47 -15 75c0 67.333 52.333 124.666 157 171.999
c-86.667 50 -130 105.333 -130 166c0 22.667 4.5 43.334 13.5 62.001s21.667 34.5 38 47.5s35.666 23 57.999 30s46.5 10.5 72.5 10.5c84.667 0 140.667 -30 168 -90v2c4 -9.33301 6.83301 -19.166 8.5 -29.499s2.5 -21.166 2.5 -32.499c0 -30 -10.5 -58.833 -31.5 -86.5
s-53.833 -54.167 -98.5 -79.5c104.667 -47.333 157 -104.666 157 -171.999zM376 502.997c0 74.667 -40 112 -120 112c-81.333 0 -122 -37.333 -122 -112c0 -59.333 40.667 -107.333 122 -144c80 36 120 84 120 144zM402 164.997c0 58.667 -48.667 108.667 -146 150
c-54 -24 -92.167 -48 -114.5 -72s-33.5 -50 -33.5 -78c0 -43.333 13.667 -77 41 -101s63 -36 107 -36s79.333 12 106 36s40 57.667 40 101z" />
    <glyph glyph-name="nine" unicode="9" horiz-adv-x="496" 
d="M460 343c0 -236 -74.334 -353.999 -223.001 -353.999c-47.333 0 -86.166 12.167 -116.499 36.5s-49.833 58.166 -58.5 101.499h60c5.33301 -34 17.833 -59 37.5 -75s46.834 -24 81.501 -24c94.667 0 148.667 102.333 162 307c-30 -32 -59 -56.5 -87 -73.5
s-55.333 -25.5 -82 -25.5s-51.5 5.33301 -74.5 16s-42.833 25.167 -59.5 43.5s-29.667 39.833 -39 64.5s-14 51 -14 79c0 32 5.16699 61 15.5 87s24.166 48.5 41.499 67.5s37.833 33.667 61.5 44s49.167 15.5 76.5 15.5c145.333 0 218 -103.333 218 -310zM401.999 362.001
c-3.33301 168.667 -55.334 252.999 -156.001 252.999c-21.333 0 -40.5 -4.66699 -57.5 -14s-31.5 -22 -43.5 -38s-21.167 -34.167 -27.5 -54.5s-9.5 -41.5 -9.5 -63.5c0 -23.333 3.16699 -45.166 9.5 -65.499s15.333 -38 27 -53s26.167 -27 43.5 -36s37 -13.5 59 -13.5
c52.667 0 103.334 25 152.001 75z" />
    <glyph glyph-name="colon" unicode=":" horiz-adv-x="250" 
d="M95 392v67h66v-67h-66zM95 0v65h66v-65h-66z" />
    <glyph glyph-name="semicolon" unicode=";" horiz-adv-x="250" 
d="M95 392v67h66v-67h-66zM161 -15c0 -68.667 -22 -107.668 -66 -117.001v16c30.667 6.66699 46 45.334 46 116.001h-46v65h66v-80z" />
    <glyph glyph-name="less" unicode="&#x3c;" horiz-adv-x="525" 
d="M60 288v58l416 177v-51l-376 -155l376 -153v-53z" />
    <glyph glyph-name="equal" unicode="=" horiz-adv-x="525" 
d="M60 395v49h416v-49h-416zM60 191v49h416v-49h-416z" />
    <glyph glyph-name="greater" unicode="&#x3e;" horiz-adv-x="525" 
d="M60 111v53l375 153l-375 155v52l416 -178v-58z" />
    <glyph glyph-name="question" unicode="?" horiz-adv-x="498" 
d="M458 486c0 -52.667 -31.3311 -105.331 -93.998 -157.998l-39 -33c-7.33301 -8 -13.833 -15.833 -19.5 -23.5s-10.167 -15.5 -13.5 -23.5v2c-4.66699 -8 -8.16699 -18.5 -10.5 -31.5s-3.5 -30.5 -3.5 -52.5h-52c2 62.667 15.667 108.667 41 138v-1l66 62
c21.333 20.667 37.166 39 47.499 55s15.5 34.667 15.5 56c0 20.667 -3.5 39.5 -10.5 56.5s-16.833 31.667 -29.5 44s-27.334 21.833 -44.001 28.5s-35 10 -55 10c-78 0 -125 -42.333 -141 -127h-63c2.66699 26 9.83398 49.167 21.501 69.5s26.334 37.666 44.001 51.999
s38.167 25.166 61.5 32.499s48.666 11 75.999 11c93.333 0 155.666 -33 186.999 -99v1c10 -22 15 -45 15 -69zM221.002 0.00292969v65h67v-65h-67z" />
    <glyph glyph-name="at" unicode="@" horiz-adv-x="909" 
d="M873 312c0 -48 -6.17188 -91.1689 -18.5049 -129.502s-30 -71 -53 -98s-50.667 -47.833 -83 -62.5s-68.166 -22 -107.499 -22c-46 0 -71.333 34 -76 102c-49.333 -68 -99.666 -102 -150.999 -102c-49.333 0 -88.333 17.333 -117 52h1c-25.333 32 -38 72 -38 120
c0 29.333 4.16699 57.833 12.5 85.5s20.166 56.167 35.499 85.5l-1 -1c10 18 21.667 34.667 35 50s27.666 28.666 42.999 39.999s31.333 20.333 48 27s33.667 10 51 10c60.667 0 112.334 -26.333 155.001 -79l12 64h52l-67 -289c-3.33301 -14 -6.16602 -26.667 -8.49902 -38
s-3.16602 -21.333 -2.49902 -30c0 -19.333 2.5 -34.166 7.5 -44.499s15.167 -15.5 30.5 -15.5c27.333 0 53.333 5.83301 78 17.5s46.167 29.167 64.5 52.5s32.833 52.333 43.5 87s16 75 16 121c0 44 -8.66699 84.833 -26 122.5s-41.166 70 -71.499 97
s-66.166 48.167 -107.499 63.5s-86 23 -134 23c-56 0 -108.333 -10.833 -157 -32.5s-91 -51.334 -127 -89.001s-64.333 -82.167 -85 -133.5s-31 -106.666 -31 -165.999c0 -57.333 9.16699 -108.5 27.5 -153.5s45 -82.833 80 -113.5s78 -54 129 -70s108.833 -24 173.5 -24
c72 0 134 10.667 186 32c4 -5.33301 7.5 -10.666 10.5 -15.999s5.83301 -10.666 8.5 -15.999c-32 -12.667 -64.167 -21.834 -96.5 -27.501s-68.5 -8.5 -108.5 -8.5c-70 0 -132.833 9.16699 -188.5 27.5s-102.834 44.5 -141.501 78.5s-68.167 75.5 -88.5 124.5
s-30.5 104.5 -30.5 166.5c0 65.333 10.833 125.833 32.5 181.5s52 103.834 91 144.501s85.333 72.5 139 95.5s112.834 34.5 177.501 34.5c56 0 107 -8.5 153 -25.5s85.5 -40.667 118.5 -71s58.667 -66.5 77 -108.5s27.5 -88.333 27.5 -139zM593.995 363.998
c-28 43.333 -72.666 64.999 -133.999 64.999c-22 0 -43.333 -7.5 -64 -22.5s-39 -34.667 -55 -59s-29 -51.666 -39 -81.999s-15 -60.5 -15 -90.5c0 -92 37.333 -138 112 -138c34 0 63.333 10 88 30s45.667 50.667 63 92v-2l5 12l1.5 4.5
c0.333008 1 0.666016 2.33301 0.999023 4s0.833008 4 1.5 7s1.66699 7.83301 3 14.5v-1l35 156z" />
    <glyph glyph-name="A" unicode="A" horiz-adv-x="649" 
d="M550 0l-78.001 202h-296l-37 -100.5c-13.333 -35 -25.666 -68.833 -36.999 -101.5h-61l61 161l60 157l60 156.5l61 160.5h76l261 -635h-70zM320.999 604l-132 -360h270z" />
    <glyph glyph-name="B" unicode="B" horiz-adv-x="625" 
d="M551 180c0 -120 -77.999 -180.001 -233.999 -180.001h-233v635h221c103.333 0 169.666 -30 198.999 -90v1c4.66699 -11.333 8.16699 -22.166 10.5 -32.499s3.5 -21.5 3.5 -33.5c0 -56.667 -42 -105.667 -126 -147c106 -24.667 159 -75.667 159 -153zM461.001 471.999
c0 58 -30.6689 93.332 -92.002 105.999h1c-9.33301 2.66699 -20.166 4.33398 -32.499 5.00098s-26.166 1 -41.499 1h-153v-227h161c104.667 0 157 38.333 157 115zM489.999 179.998c0 52.667 -21.333 88.333 -64 107h1c-26 12.667 -66.667 19 -122 19h-162v-254h174
c115.333 0 173 42.667 173 128z" />
    <glyph glyph-name="C" unicode="C" horiz-adv-x="645" 
d="M347 36c114 0 178.001 48.998 192.001 146.998h61c-4 -31.333 -13.333 -59 -28 -83s-33 -44.333 -55 -61s-47.5 -29.167 -76.5 -37.5s-60.167 -12.5 -93.5 -12.5c-45.333 0 -86.166 7.5 -122.499 22.5s-67.333 36.667 -93 65s-45.334 63 -59.001 104
s-20.5 87.167 -20.5 138.5c0 50 6.83301 95.167 20.5 135.5s33.334 74.666 59.001 102.999s56.667 50 93 65s77.166 22.5 122.499 22.5c66 0 120.167 -15.167 162.5 -45.5s72.166 -76.166 89.499 -137.499h-60c-9.33301 44 -31.5 77.667 -66.5 101s-76.5 35 -124.5 35
c-36 0 -68.5 -6.66699 -97.5 -20s-53.667 -32.166 -74 -56.499s-35.833 -53.666 -46.5 -87.999s-16 -72.5 -16 -114.5c0 -91.333 20.667 -161.333 62 -210s98.333 -73 171 -73zM617.001 182.998h-17l3 15z" />
    <glyph glyph-name="D" unicode="D" horiz-adv-x="675" 
d="M603 321c0 -214 -108.333 -321 -325 -321h-194v635h194c108.667 0 190 -25.667 244 -77s81 -130.333 81 -237zM541 321c0 90.667 -20.8311 157.167 -62.498 199.5s-108.834 63.5 -201.501 63.5h-136v-532h136c91.333 0 158.166 21.333 200.499 64s63.5 111 63.5 205z" />
    <glyph glyph-name="E" unicode="E" horiz-adv-x="624" 
d="M84 0v635h450v-51h-391v-230h366v-50h-366v-252h407v-52h-466z" />
    <glyph glyph-name="F" unicode="F" horiz-adv-x="578" 
d="M143 584v-232h312v-51h-312v-301h-59v635h419v-51h-360z" />
    <glyph glyph-name="G" unicode="G" horiz-adv-x="683" 
d="M604 0l-25.9971 84.001c-54 -63.333 -127 -95 -219 -95c-46.667 0 -88.834 8 -126.501 24s-69.834 38.5 -96.501 67.5s-47.334 63.833 -62.001 104.5s-22 85.334 -22 134.001c0 48 7.33301 91.833 22 131.5s35.167 74 61.5 103s58.333 51.5 96 67.5s79.5 24 125.5 24
c35.333 0 68 -3.5 98 -10.5s56.5 -18 79.5 -33s42.333 -34 58 -57s27.167 -50.5 34.5 -82.5h-62c-14 90.667 -83 136 -207 136c-37.333 0 -71.166 -6.5 -101.499 -19.5s-56 -31.5 -77 -55.5s-37.167 -53.333 -48.5 -88s-17 -73.334 -17 -116.001
c0 -44 5.66699 -83.333 17 -118s27.666 -64.334 48.999 -89.001s47 -43.5 77 -56.5s63.667 -19.5 101 -19.5c49.333 0 93 8.5 131 25.5s70 43.167 96 78.5v120h-175v50h232v-310h-38z" />
    <glyph glyph-name="H" unicode="H" horiz-adv-x="648" 
d="M517 0v311h-376v-311h-57v635h57v-272h376v272h59v-635h-59z" />
    <glyph glyph-name="I" unicode="I" horiz-adv-x="251" 
d="M97 0v635h60v-635h-60z" />
    <glyph glyph-name="J" unicode="J" horiz-adv-x="402" 
d="M373 198c0 -74 -14.5 -127.335 -43.5 -160.002s-72.167 -49 -129.5 -49c-25.333 0 -48.166 4.16699 -68.499 12.5s-37.5 19.833 -51.5 34.5s-24.833 32.334 -32.5 53.001s-11.5 43.334 -11.5 68.001v3h60c2 -80.667 36.667 -121 104 -121
c39.333 0 67.666 11.667 84.999 35s26 63 26 119v442h62v-437v0z" />
    <glyph glyph-name="K" unicode="K" horiz-adv-x="669" 
d="M502 0l-242 339l-119 -116v-223h-57v635h57v-348l345 348h77l-260 -256l280 -379h-81z" />
    <glyph glyph-name="L" unicode="L" horiz-adv-x="542" 
d="M85 0v635h58v-583h323v-52h-381z" />
    <glyph glyph-name="M" unicode="M" horiz-adv-x="749" 
d="M621 0v554l-26 3l-92 -278l-92 -279h-63l-186 557l-24 -3v-554h-56v635h109l188 -582l46 142l48.5 149l48.5 149l47 142h110v-635h-58z" />
    <glyph glyph-name="N" unicode="N" horiz-adv-x="648" 
d="M506 0l-368 555v-555h-54v635h67l369 -555v555h56v-635h-70z" />
    <glyph glyph-name="O" unicode="O" horiz-adv-x="699" 
d="M658 319c0 -48 -7.00098 -92.168 -21.001 -132.501s-34.167 -75.166 -60.5 -104.499s-58 -52.166 -95 -68.499s-78.5 -24.5 -124.5 -24.5c-47.333 0 -89.666 8.5 -126.999 25.5s-69.333 40.167 -96 69.5s-47 64.166 -61 104.499s-21 83.833 -21 130.5
c0 48 7.16699 92 21.5 132s34.666 74.333 60.999 103s58.333 51 96 67s79.834 24 126.501 24c46 0 87.5 -8 124.5 -24s68.5 -38.5 94.5 -67.5s46.167 -63.5 60.5 -103.5s21.5 -83.667 21.5 -131zM594.999 318.999c0 42.667 -5.66797 81.334 -17.001 116.001
s-27.5 64 -48.5 88s-46 42.5 -75 55.5s-61.167 19.5 -96.5 19.5c-38 0 -72 -6.83301 -102 -20.5s-55.667 -32.834 -77 -57.501s-37.666 -54.167 -48.999 -88.5s-17 -71.833 -17 -112.5c0 -42 6 -80.167 18 -114.5s29 -64.833 51 -91.5h-1
c21.333 -26.667 46.5 -46.167 75.5 -58.5s61.833 -18.5 98.5 -18.5s69.667 7 99 21s54.5 33.5 75.5 58.5s37.167 54.833 48.5 89.5s17 72.667 17 114z" />
    <glyph glyph-name="P" unicode="P" horiz-adv-x="632" 
d="M558 455c0 -127.333 -78.333 -191 -235 -191h-180v-264h-59v635h263c140.667 0 211 -60 211 -180zM496 453c0 44 -14 76.833 -42 98.5s-69 32.5 -123 32.5h-188v-268h180c115.333 0 173 45.667 173 137z" />
    <glyph glyph-name="Q" unicode="Q" horiz-adv-x="710" 
d="M631 -47l-107 84.002c-26.667 -16.667 -53.834 -28.834 -81.501 -36.501s-56.167 -11.5 -85.5 -11.5c-47.333 0 -89.666 8.5 -126.999 25.5s-69.333 40.167 -96 69.5s-47 64.166 -61 104.499s-21 83.833 -21 130.5c0 48 7.16699 92 21.5 132s34.666 74.333 60.999 103
s58.333 51 96 67s79.834 24 126.501 24c46 0 87.5 -8 124.5 -24s68.5 -38.5 94.5 -67.5s46.167 -63.5 60.5 -103.5s21.5 -83.667 21.5 -131c0 -48 -7.16699 -92.667 -21.5 -134s-37.5 -80 -69.5 -116l96 -76zM595 319.002c0 42.667 -5.66797 81.334 -17.001 116.001
s-27.5 64 -48.5 88s-46 42.5 -75 55.5s-61.167 19.5 -96.5 19.5c-38 0 -72 -6.83301 -102 -20.5s-55.667 -32.834 -77 -57.501s-37.666 -54.167 -48.999 -88.5s-17 -71.833 -17 -112.5c0 -42 6 -80.167 18 -114.5s29 -64.833 51 -91.5h-1
c21.333 -26.667 46.5 -46.167 75.5 -58.5s61.833 -18.5 98.5 -18.5c38.667 0 80.667 11.333 126 34l-73 57l35 39l81 -63c47.333 57.333 71 129.333 71 216z" />
    <glyph glyph-name="R" unicode="R" horiz-adv-x="679" 
d="M536 0l-60 167c-12.667 34 -33 61.833 -61 83.5s-59.667 32.5 -95 32.5h-179v-283h-57v635h279c76 0 132 -14.167 168 -42.5s54 -71.833 54 -130.5c0 -85.333 -61.333 -143 -184 -173c71.333 -22 118.333 -64.667 141 -128l29.5 -80.5l29.5 -80.5h-65zM522 462
c0 84.667 -52.333 127 -157 127h-224v-253h211c30 0 55.667 2.16699 77 6.5s39 11.5 53 21.5s24.167 23 30.5 39s9.5 35.667 9.5 59z" />
    <glyph glyph-name="S" unicode="S" horiz-adv-x="592" 
d="M551 172c0 -82 -45.3301 -139.001 -135.997 -171.001h1c-30 -8 -62 -12 -96 -12c-82.667 0 -146.834 17 -192.501 51s-71.5 82.667 -77.5 146h59c6.66699 -45.333 28.167 -81.166 64.5 -107.499s83.5 -39.5 141.5 -39.5c25.333 0 48.833 2.83301 70.5 8.5
s40.5 14 56.5 25s28.667 24.333 38 40s14 33.5 14 53.5c0 26.667 -5.33301 47.167 -16 61.5s-28.334 26.5 -53.001 36.5s-57.167 20.167 -97.5 30.5s-90.5 24.833 -150.5 43.5l1 -1c-38 16 -64.833 35 -80.5 57s-23.5 49.333 -23.5 82c0 50.667 18.5 91.5 55.5 122.5
s92.5 46.5 166.5 46.5c68 0 123.333 -14.167 166 -42.5s66.667 -70.833 72 -127.5h-59c-5.33301 42.667 -22.333 73.334 -51 92.001s-70 28 -124 28s-95.5 -9.83301 -124.5 -29.5s-43.5 -47.834 -43.5 -84.501c0 -48 29 -80.333 87 -97l155 -40
c63.333 -16 108.666 -37.5 135.999 -64.5s41 -62.833 41 -107.5z" />
    <glyph glyph-name="T" unicode="T" horiz-adv-x="549" 
d="M308 584v-584h-60v584h-218v51h498v-51h-220z" />
    <glyph glyph-name="U" unicode="U" horiz-adv-x="648" 
d="M576 266c0 -50 -4.50098 -92.499 -13.501 -127.499s-23.5 -63.667 -43.5 -86s-45.5 -38.5 -76.5 -48.5s-68.5 -15 -112.5 -15c-36.667 0 -68.667 3.16699 -96 9.5s-50.666 16.166 -69.999 29.499h1c-31.333 22.667 -52.666 53.167 -63.999 91.5s-17 87.166 -17 146.499
v369h57v-368c0 -41.333 3.16699 -76.5 9.5 -105.5s17 -52.5 32 -70.5s34.5 -31.167 58.5 -39.5s53.667 -12.5 89 -12.5c63.333 0 109.666 15.667 138.999 47v-1c32 32.667 48 93.334 48 182.001v368h59v-369v0z" />
    <glyph glyph-name="V" unicode="V" horiz-adv-x="599" 
d="M341 0h-74l-245 635h63l219 -594l53.5 145.5l55.5 151.5l56 151l54 146h64z" />
    <glyph glyph-name="W" unicode="W" horiz-adv-x="847" 
d="M663 0h-62l-169 617l-172 -617h-61l-177 635h63l131 -535h26l148 535h82l148 -535h26l65 267.5l65 267.5h63z" />
    <glyph glyph-name="X" unicode="X" horiz-adv-x="598" 
d="M507 0l-203 290l-204 -290h-74l245 337l-221 298h75l179 -255l181 255h71l-220 -298l123 -167.5l123 -169.5h-75z" />
    <glyph glyph-name="Y" unicode="Y" horiz-adv-x="598" 
d="M335 271v-271h-62v271l-123.5 182l-124.5 182h75l204 -318l206 318h73z" />
    <glyph glyph-name="Z" unicode="Z" horiz-adv-x="540" 
d="M26 0v65l428 519h-390v51h448v-64l-427 -519h438v-52h-497z" />
    <glyph glyph-name="bracketleft" unicode="[" horiz-adv-x="296" 
d="M75 -187v830h154v-39h-96v-749h96v-42h-154z" />
    <glyph glyph-name="backslash" unicode="\" horiz-adv-x="250" 
d="M203 0l-187 643h36l93 -321.5l94 -321.5h-36z" />
    <glyph glyph-name="bracketright" unicode="]" horiz-adv-x="203" 
d="M27 -187v42h97v749h-97v39h154v-830h-154z" />
    <glyph glyph-name="asciicircum" unicode="^" horiz-adv-x="421" 
d="M325 389l-111 217l-111 -217h-49l137 254h48l70 -127l69 -127h-53z" />
    <glyph glyph-name="underscore" unicode="_" horiz-adv-x="508" 
d="M2 -148v18h504v-18h-504z" />
    <glyph glyph-name="grave" unicode="`" horiz-adv-x="236" 
d="M145 555l-80 98h70c8 -18 16 -34.5 24 -49.5s16 -31.167 24 -48.5h-38z" />
    <glyph glyph-name="a" unicode="a" horiz-adv-x="472" 
d="M381 0v65.999c-28 -25.333 -57.333 -44.5 -88 -57.5s-63 -19.5 -97 -19.5c-21.333 0 -41.166 3 -59.499 9s-34.333 14.333 -48 25s-24.5 23.667 -32.5 39s-12 32.666 -12 51.999c0 105.333 93 158 279 158h58c0 62 -6.33301 102.667 -19 122v-2
c-9.33301 13.333 -23 23.166 -41 29.499s-41.667 9.5 -71 9.5c-42 0 -73.833 -6.66699 -95.5 -20s-34.167 -34.666 -37.5 -63.999h-57c11.333 81.333 75.666 122 192.999 122c34.667 0 63.667 -3.16699 87 -9.5s42.333 -16.166 57 -29.499s25.167 -30.666 31.5 -51.999
s9.5 -47.333 9.5 -78v-300h-57zM381 234.999h-73c-134.667 0 -202 -39 -202 -117c0 -60 38.333 -90 115 -90c66.667 0 120 27.667 160 83v124z" />
    <glyph glyph-name="b" unicode="b" horiz-adv-x="529" 
d="M469 232c0 -36.667 -4.66797 -69.8311 -14.001 -99.498s-22.5 -55.167 -39.5 -76.5s-37.333 -37.833 -61 -49.5s-49.5 -17.5 -77.5 -17.5c-24.667 0 -49 5.16699 -73 15.5s-48.667 27.166 -74 50.499v-55h-57v643h57v-264c52.667 60 103.667 90 153 90
c58.667 0 104.334 -20.833 137.001 -62.5s49 -99.834 49 -174.501zM406.999 232.003c0 132.667 -43.667 199 -131 199c-51.333 0 -100 -31.667 -146 -95v-241c42 -44.667 89.667 -67 143 -67c89.333 0 134 68 134 204z" />
    <glyph glyph-name="c" unicode="c" horiz-adv-x="469" 
d="M256 28c36 0 63.999 7.00098 83.999 21.001s31.667 36.667 35 68h59c-7.33301 -39.333 -26.833 -70.5 -58.5 -93.5s-71.5 -34.5 -119.5 -34.5c-36 0 -67.333 6 -94 18s-49 28.667 -67 50s-31.5 46.666 -40.5 75.999s-13.5 61.333 -13.5 96
c0 38.667 5.16699 72.834 15.5 102.501s24.833 54.667 43.5 75s41.334 35.833 68.001 46.5s56 16 88 16c46 0 85 -11.333 117 -34s52.667 -54 62 -94h-60c-4 29.333 -17.167 51.666 -39.5 66.999s-48.833 23 -79.5 23c-48 0 -85.667 -16.833 -113 -50.5
s-41 -84.167 -41 -151.5c0 -134 51.333 -201 154 -201z" />
    <glyph glyph-name="d" unicode="d" horiz-adv-x="469" 
d="M381 0l-0.000976562 80c-53.333 -60.667 -104.333 -91 -153 -91c-30.667 0 -57.667 5.83301 -81 17.5s-42.833 28 -58.5 49s-27.5 46 -35.5 75s-12 60.5 -12 94.5c0 36.667 4.66699 70 14 100s22.333 55.667 39 77s36.834 37.833 60.501 49.5s49.5 17.5 77.5 17.5
c25.333 0 50.5 -5.5 75.5 -16.5s49.5 -26.833 73.5 -47.5v238h58v-643h-58zM380.999 363c-22 23.333 -44.833 40.5 -68.5 51.5s-48.167 16.5 -73.5 16.5c-91.333 0 -137 -68.667 -137 -206c0 -131.333 44 -197 132 -197c52.667 0 101.667 31 147 93v242z" />
    <glyph glyph-name="e" unicode="e" horiz-adv-x="498" 
d="M102 223c3.33301 -65.333 19 -114.165 47 -146.498s67 -48.5 117 -48.5c32 0 60.5 7.33301 85.5 22s40.167 37 45.5 67h61c-4.66699 -20 -12.667 -38 -24 -54s-25.5 -29.5 -42.5 -40.5s-36.167 -19.333 -57.5 -25s-44 -8.5 -68 -8.5
c-71.333 0 -126.666 21.167 -165.999 63.5s-59 101.166 -59 176.499c0 38 5.16699 71.833 15.5 101.5s25.166 55.5 44.499 77.5v-1c20 19.333 42.833 34.5 68.5 45.5s54.5 16.5 86.5 16.5c34.667 0 65.167 -6 91.5 -18s48.5 -28.5 66.5 -49.5s31.667 -46.333 41 -76
s14 -61.834 14 -96.501v-6h-367zM406 278.001c-14 102 -64 153 -150 153s-137.333 -56.333 -154 -169h290z" />
    <glyph glyph-name="f" unicode="f" horiz-adv-x="276" 
d="M263 605c-6 0.666992 -12.333 1 -19 1h-21c-24 0 -42.333 -7.33301 -55 -22s-19 -38 -19 -70v-55h91v-41h-91v-418h-59v418h-72v41h72v55c0 48 9.83301 83.167 29.5 105.5s50.5 33.5 92.5 33.5h29c8 0 15.333 -0.333008 22 -1v-47z" />
    <glyph glyph-name="g" unicode="g" horiz-adv-x="469" 
d="M439 23c0 -146.667 -66.333 -220.001 -199 -220.001c-106.667 0 -167.334 39.333 -182.001 118h61c4.66699 -53.333 45 -80 121 -80c50 0 86 14.833 108 44.5s33 74.834 33 135.501v59c-53.333 -60.667 -104.333 -91 -153 -91c-30.667 0 -57.667 5.83301 -81 17.5
s-42.833 28 -58.5 49s-27.5 46 -35.5 75s-12 60.5 -12 94.5c0 36.667 4.66699 70 14 100s22.333 55.667 39 77s36.834 37.833 60.501 49.5s49.5 17.5 77.5 17.5c25.333 0 50.5 -5.5 75.5 -16.5s49.5 -26.833 73.5 -47.5v54h58v-436zM381 362.999
c-22 23.333 -44.833 40.5 -68.5 51.5s-48.167 16.5 -73.5 16.5c-91.333 0 -137 -68.667 -137 -206c0 -131.333 44 -197 132 -197c52.667 0 101.667 31 147 93v242z" />
    <glyph glyph-name="h" unicode="h" horiz-adv-x="502" 
d="M381 0v300c0 84 -35 126 -105 126c-47.333 0 -96 -29.333 -146 -88v-338h-57v643h57v-269c57.333 63.333 110.333 95 159 95c100.667 0 151 -54.667 151 -164v-305h-59z" />
    <glyph glyph-name="i" unicode="i" horiz-adv-x="205" 
d="M76 578v65h58v-65h-58zM76 0v459h58v-459h-58z" />
    <glyph glyph-name="j" unicode="j" horiz-adv-x="181" 
d="M77 578v65h58v-65h-58zM135 -41c0 -28 -1.66895 -52 -5.00195 -72s-9.16602 -36.167 -17.499 -48.5s-19.666 -21.333 -33.999 -27s-32.166 -8.5 -53.499 -8.5c-19.333 0 -34.333 1 -45 3v45c6.66699 -1.33301 12.667 -2.33301 18 -3s10.666 -1 15.999 -1
c24 0 40.5 9 49.5 27s13.5 47 13.5 87v498h58v-500z" />
    <glyph glyph-name="k" unicode="k" horiz-adv-x="507" 
d="M364 0l-162 255l-72 -69v-186h-57v643h57v-402l209 218h67l-167 -166l97 -146.5l98 -146.5h-70z" />
    <glyph glyph-name="l" unicode="l" horiz-adv-x="205" 
d="M76 0v643h58v-643h-58z" />
    <glyph glyph-name="m" unicode="m" horiz-adv-x="750" 
d="M640 0v300.001c0 84 -30 126 -90 126c-23.333 0 -46.333 -7 -69 -21s-45.667 -36 -69 -66v-339h-58v300c0 84 -30 126 -90 126c-23.333 0 -46.333 -7 -69 -21s-45 -36 -67 -66v-339h-58v459h58v-88c53.333 65.333 103 98 149 98c64.667 0 109 -34 133 -102
c32.667 39.333 61.167 66.166 85.5 80.499s46.5 21.5 66.5 21.5c90 0 135 -54.667 135 -164v-305h-57z" />
    <glyph glyph-name="n" unicode="n" horiz-adv-x="502" 
d="M381 0v300c0 84 -35 126 -105 126c-47.333 0 -96 -29.333 -146 -88v-338h-57v459h57v-85c57.333 63.333 110.333 95 159 95c100.667 0 151 -54.667 151 -164v-305h-59z" />
    <glyph glyph-name="o" unicode="o" horiz-adv-x="498" 
d="M469 229c0 -38 -5.16992 -71.8301 -15.5029 -101.497s-24.666 -54.834 -42.999 -75.501s-40.666 -36.334 -66.999 -47.001s-55.5 -16 -87.5 -16c-36 0 -67.333 6 -94 18s-49 28.667 -67 50s-31.5 46.666 -40.5 75.999s-13.5 61.333 -13.5 96
c0 38.667 5.16699 72.834 15.5 102.501s24.833 54.667 43.5 75s41.334 35.833 68.001 46.5s56 16 88 16c34.667 0 65.167 -6 91.5 -18s48.5 -28.5 66.5 -49.5s31.667 -46.333 41 -76s14 -61.834 14 -96.501zM406.997 229.003c0 66.667 -13.667 117 -41 151s-64 51 -110 51
c-48 0 -85.667 -16.833 -113 -50.5s-41 -84.167 -41 -151.5c0 -134 51.333 -201 154 -201c100.667 0 151 67 151 201z" />
    <glyph glyph-name="p" unicode="p" horiz-adv-x="529" 
d="M469 232c0 -36.667 -4.66797 -69.8311 -14.001 -99.498s-22.5 -55.167 -39.5 -76.5s-37.333 -37.833 -61 -49.5s-49.5 -17.5 -77.5 -17.5c-24.667 0 -49 5.16699 -73 15.5s-48.667 27.166 -74 50.499v-242h-57v646h57v-80c52.667 60 103.667 90 153 90
c58.667 0 104.334 -20.833 137.001 -62.5s49 -99.834 49 -174.501zM406.999 232.003c0 132.667 -43.667 199 -131 199c-51.333 0 -100 -31.667 -146 -95v-241c42 -44.667 89.667 -67 143 -67c89.333 0 134 68 134 204z" />
    <glyph glyph-name="q" unicode="q" horiz-adv-x="469" 
d="M381 -187l-0.000976562 267c-53.333 -60.667 -104.333 -91 -153 -91c-30.667 0 -57.667 5.83301 -81 17.5s-42.833 28 -58.5 49s-27.5 46 -35.5 75s-12 60.5 -12 94.5c0 36.667 4.66699 70 14 100s22.333 55.667 39 77s36.834 37.833 60.501 49.5s49.5 17.5 77.5 17.5
c25.333 0 50.5 -5.5 75.5 -16.5s49.5 -26.833 73.5 -47.5v54h58v-646h-58zM380.999 363c-22 23.333 -44.833 40.5 -68.5 51.5s-48.167 16.5 -73.5 16.5c-91.333 0 -137 -68.667 -137 -206c0 -131.333 44 -197 132 -197c52.667 0 101.667 31 147 93v242z" />
    <glyph glyph-name="r" unicode="r" horiz-adv-x="363" 
d="M272 469c3.33301 0 7.16504 -0.333008 11.498 -1l12.5 -2v-55c-5.33301 1.33301 -11.166 2 -17.499 2h-18.5c-50 0 -92.667 -26.667 -128 -80v-333h-58v459h58v-101c48.667 74 95.334 111 140.001 111z" />
    <glyph glyph-name="s" unicode="s" horiz-adv-x="443" 
d="M415 129c0 -16 -2.66699 -32.332 -8 -48.999s-15 -31.667 -29 -45s-32.833 -24.333 -56.5 -33s-53.834 -13 -90.501 -13c-116.667 0 -180.667 42.667 -192 128h57c6.66699 -59.333 51.667 -89 135 -89c82.667 0 124 30.333 124 91c0 22.667 -7.5 39.834 -22.5 51.501
s-33.833 20.834 -56.5 27.501s-47.334 12.5 -74.001 17.5s-51.334 12 -74.001 21s-41.5 21.667 -56.5 38s-22.5 39.166 -22.5 68.499c0 14.667 2.5 29.5 7.5 44.5s13.833 28.5 26.5 40.5s30 21.833 52 29.5s49.667 11.5 83 11.5c110 0 169.333 -36.333 178 -109h-58
c-5.33301 22.667 -17.666 40.167 -36.999 52.5s-46 18.5 -80 18.5c-38 0 -66.5 -6.83301 -85.5 -20.5s-28.5 -33.167 -28.5 -58.5c0 -22.667 7.66699 -39.834 23 -51.501s34.333 -20.834 57 -27.501s47.334 -12.5 74.001 -17.5s51.334 -12 74.001 -21s41.667 -21.5 57 -37.5
s23 -38.667 23 -68z" />
    <glyph glyph-name="t" unicode="t" horiz-adv-x="257" 
d="M207 32l15.0029 -0.000976562c5.33301 0 9.66602 0.333008 12.999 1v-35c-8 -1.33301 -15.833 -2.33301 -23.5 -3s-15.834 -1 -24.501 -1c-44.667 0 -73 10.667 -85 32v-1c-4.66699 9.33301 -8.33398 22.333 -11.001 39s-4 38.334 -4 65.001v289h-59v41h59v119h58v-119
h80v-41h-80v-302c0 -54.667 20.667 -82.667 62 -84z" />
    <glyph glyph-name="u" unicode="u" horiz-adv-x="498" 
d="M381 0v86c-56 -64.667 -109.667 -97 -161 -97c-99.333 0 -149 55.333 -149 166v304h58v-302c0 -83.333 35 -125 105 -125c54 0 103 29 147 87v340h57v-459h-57z" />
    <glyph glyph-name="v" unicode="v" horiz-adv-x="449" 
d="M258 0h-59l-172 459h63l140 -410l139 410h63z" />
    <glyph glyph-name="w" unicode="w" horiz-adv-x="647" 
d="M508 0h-59.999l-116 396l-117 -396h-60l-139 459h65l88 -368h24c17.333 61.333 35.666 122.833 54.999 184.5l56 183.5h55l123 -413l100 413h64z" />
    <glyph glyph-name="x" unicode="x" horiz-adv-x="449" 
d="M359 0l-129 200l-30.5 -48l-33.5 -51l-34 -52l-31 -49h-73l170 239l-156 220h74l114 -185l113 185h74l-156 -219l85 -119.5l86 -120.5h-73z" />
    <glyph glyph-name="y" unicode="y" horiz-adv-x="449" 
d="M255 -9l-32 -76.999c-8.66699 -20 -16.667 -36.5 -24 -49.5s-14.833 -23.333 -22.5 -31s-16.834 -14.5 -27.501 -20.5h1c-16.667 -6.66699 -33 -10 -49 -10c-8 0 -15.667 0.166992 -23 0.5s-13.666 1.16602 -18.999 2.49902v50c3.33301 -0.666992 7.83301 -1 13.5 -1
h13.5c50 0 89.333 43.333 118 130l-177 474h63l140 -410l139 410h63z" />
    <glyph glyph-name="z" unicode="z" horiz-adv-x="449" 
d="M28 0v54l319 359h-301v46h370v-57l-321 -356h336v-46h-403z" />
    <glyph glyph-name="braceleft" unicode="{" horiz-adv-x="304" 
d="M262 -197c-38.667 0 -67.501 6.33496 -86.501 19.002s-31.833 35 -38.5 67c-1.33301 3.33301 -2.66602 6.33301 -3.99902 9c-0.666992 0.666992 -1 1.33398 -1 2.00098c0.666992 0 1.33398 1.83301 2.00098 5.5s1 13.167 1 28.5c0 12.667 -0.5 30.834 -1.5 54.501
s-2.83301 55.5 -5.5 95.5c0 36 -7.66699 64.167 -23 84.5s-37.666 32.166 -66.999 35.499v48c15.333 1.33301 28.666 5.16602 39.999 11.499s20.833 16 28.5 29s13.5 29.833 17.5 50.5s6.66699 45.667 8 75c0 4 -0.333008 8.16699 -1 12.5s-1 9.16602 -1 14.499
c0 15.333 0.5 32.666 1.5 51.999s2.16699 40.666 3.5 63.999c5.33301 34.667 17.5 58.667 36.5 72s49.167 20 90.5 20h11v-40c-46.667 0 -74 -23 -82 -69v-106c0 -88.667 -18 -147 -54 -175h1c-6.66699 -4 -16.5 -8.66699 -29.5 -14s-31.833 -11.666 -56.5 -18.999
c27.333 -9.33301 50 -20.166 68 -32.499s32.167 -26.833 42.5 -43.5s17.666 -35.834 21.999 -57.501s6.5 -46.5 6.5 -74.5v-108c8 -44.667 35.333 -67 82 -67v-44h-11z" />
    <glyph glyph-name="bar" unicode="|" horiz-adv-x="234" 
d="M97 -197v840h44v-840h-44z" />
    <glyph glyph-name="braceright" unicode="}" horiz-adv-x="295" 
d="M269 192l-0.000976562 12.002c-16.667 -1.33301 -30.834 -5 -42.501 -11s-21.167 -15.333 -28.5 -28s-12.666 -29 -15.999 -49s-5 -45 -5 -75c0 -37.333 -0.833008 -70.833 -2.5 -100.5s-6.83398 -54.667 -15.501 -75s-22 -35.833 -40 -46.5s-43 -16 -75 -16h-12v44
c38.667 0 63 12 73 36v-1c7.33301 13.333 11 51 11 113v27c0 44.667 4.5 81 13.5 109s22.167 48.667 39.5 62h-2c7.33301 5.33301 17.5 10.833 30.5 16.5s32.167 12.5 57.5 20.5c-38.667 11.333 -69 27.5 -91 48.5s-35.667 46.5 -41 76.5
c-6 51.333 -9.16699 93.666 -9.5 126.999s-2.16602 59.666 -5.49902 78.999s-10.166 32.833 -20.499 40.5s-28.833 11.5 -55.5 11.5v40h12c75.333 0 117 -30.333 125 -91l9 -171c3.33301 -88 33.666 -134.333 90.999 -139v-48c2.66699 0.666992 7.33398 1 14.001 1z" />
    <glyph glyph-name="asciitilde" unicode="~" horiz-adv-x="524" 
d="M488 565l0.000976562 3.00195c-28 -28.667 -64.667 -43 -110 -43c-14 0 -31.667 3.16699 -53 9.5s-43 13.166 -65 20.499l-62.5 20.5c-19.667 6.33301 -34.5 9.5 -44.5 9.5c-18.667 0 -36.334 -3.5 -53.001 -10.5s-34 -18.167 -52 -33.5v57
c28.667 30 66.334 45 113.001 45c11.333 0 27.666 -3.16699 48.999 -9.5l66 -20.5l64 -20.5c20 -6.33301 34.667 -9.5 44 -9.5c17.333 0 35 3.66699 53 11s35 17.666 51 30.999v-57l4 6z" />
    <glyph glyph-name="uni0964" unicode="&#x964;" horiz-adv-x="349" 
d="M250 30v612l46 -30v-612z" />
    <glyph glyph-name="uni0965" unicode="&#x965;" horiz-adv-x="464" 
d="M180 30v612l46 -30v-612zM353 30v612l45 -30v-612z" />
    <glyph glyph-name="uni0B01" unicode="&#xb01;" horiz-adv-x="0" 
d="M124 866c0 -24 -4.33301 -47.332 -13 -69.999s-20.834 -42.834 -36.501 -60.501s-34.334 -31.667 -56.001 -42s-45.5 -15.5 -71.5 -15.5c-26.667 0 -51 5 -73 15s-40.667 23.5 -56 40.5s-27.333 36.667 -36 59s-13 45.833 -13 70.5v9c0 2.66699 0.333008 5.66699 1 9h45
c0 -10 1.16699 -24 3.5 -42s7.83301 -35.667 16.5 -53s21.834 -32.333 39.501 -45s41.834 -19 72.501 -19s54.667 6.33301 72 19s30.5 27.667 39.5 45s14.667 35 17 53s3.5 32.333 3.5 43h45v-16zM-16 859.001c0 -10.667 -3.16699 -19.5 -9.5 -26.5s-14.5 -10.5 -24.5 -10.5
c-10.667 0 -19 3.5 -25 10.5s-9 15.833 -9 26.5c0 9.33301 3 17.333 9 24s14.333 10 25 10c10 0 18.167 -3.33301 24.5 -10s9.5 -14.667 9.5 -24z" />
    <glyph glyph-name="uni0B02" unicode="&#xb02;" horiz-adv-x="208" 
d="M198 533c0 -18.667 -3.5 -36 -10.5 -52s-16.5 -30 -28.5 -42s-26 -21.5 -42 -28.5s-33.333 -10.5 -52 -10.5c-18 0 -34.833 3.5 -50.5 10.5s-29.5 16.5 -41.5 28.5s-21.333 26 -28 42s-10 33.333 -10 52c0 18 3.33301 34.833 10 50.5s16 29.5 28 41.5
s25.833 21.333 41.5 28s32.5 10 50.5 10c18.667 0 36 -3.33301 52 -10s30 -16 42 -28s21.5 -25.833 28.5 -41.5s10.5 -32.5 10.5 -50.5zM155 533c0 11.333 -2.5 22.333 -7.5 33s-11.5 20 -19.5 28s-17.5 14.333 -28.5 19s-22.5 7 -34.5 7s-23.167 -2.33301 -33.5 -7
s-19.5 -11 -27.5 -19s-14.333 -17.333 -19 -28s-7 -21.667 -7 -33c0 -12 2.33301 -23.5 7 -34.5s11 -20.5 19 -28.5s17.167 -14.5 27.5 -19.5s21.5 -7.5 33.5 -7.5s23.5 2.5 34.5 7.5s20.5 11.5 28.5 19.5s14.5 17.5 19.5 28.5s7.5 22.5 7.5 34.5z" />
    <glyph glyph-name="uni0B03" unicode="&#xb03;" horiz-adv-x="379" 
d="M341 141c0 -48.667 -13.999 -86.3369 -41.999 -113.004s-63.333 -40 -106 -40c-21.333 0 -41 3.5 -59 10.5s-33.833 17 -47.5 30s-24.334 28.833 -32.001 47.5s-11.5 39.334 -11.5 62.001c0 18.667 4.5 38.334 13.5 59.001s19.833 40.167 32.5 58.5s25.5 34.333 38.5 48
s23.5 23.5 31.5 29.5c-8.66699 4.66699 -19.834 13.167 -33.501 25.5s-27 26.666 -40 42.999s-24.167 34 -33.5 53s-14 38.167 -14 57.5c0 20.667 4 40.167 12 58.5s19 34.333 33 48s30.167 24.5 48.5 32.5s38.166 12 59.499 12c24 0 45.333 -3.83301 64 -11.5
s34.334 -18.167 47.001 -31.5s22.334 -29.166 29.001 -47.499s10 -37.833 10 -58.5c0 -20 -4.33301 -39.833 -13 -59.5s-18.667 -37.667 -30 -54s-23.166 -30.666 -35.499 -42.999s-21.833 -21.5 -28.5 -27.5c7.33301 -5.33301 17 -14.666 29 -27.999
s23.667 -28.833 35 -46.5s21.166 -36.5 29.499 -56.5s12.833 -39.333 13.5 -58zM295.001 508.997c0 32 -8.83301 58.333 -26.5 79s-42.834 31 -75.501 31c-14.667 0 -28.667 -2.83301 -42 -8.5s-25.166 -13.167 -35.499 -22.5s-18.5 -20.666 -24.5 -33.999
s-9 -27.333 -9 -42c0 -19.333 5 -37.833 15 -55.5s21.5 -33.5 34.5 -47.5s25.5 -25.5 37.5 -34.5s19.667 -14.5 23 -16.5c3.33301 2 10.5 7.16699 21.5 15.5s22.5 19.166 34.5 32.499s22.833 28.833 32.5 46.5s14.5 36.5 14.5 56.5zM294.001 138.997
c0 21.333 -4.5 41.498 -13.5 60.498s-19.333 36 -31 51s-23.167 27.667 -34.5 38s-19 17.166 -23 20.499c-4 -2 -11.667 -8.66699 -23 -20s-23 -25.166 -35 -41.499s-22.5 -34.333 -31.5 -54s-13.5 -39.167 -13.5 -58.5c0 -13.333 2.16699 -26.166 6.5 -38.499
s10.833 -23.166 19.5 -32.499s19.5 -16.833 32.5 -22.5s28.167 -8.5 45.5 -8.5c28.667 0 52.5 9 71.5 27s28.833 44.333 29.5 79z" />
    <glyph glyph-name="uni0B05" unicode="&#xb05;" horiz-adv-x="629" 
d="M546 0l-0.000976562 113.005c-11.333 -14 -25 -28 -41 -42s-34.333 -26.5 -55 -37.5s-43.5 -20 -68.5 -27s-51.833 -10.5 -80.5 -10.5c-29.333 0 -58.166 4.16699 -86.499 12.5s-53.833 20.333 -76.5 36s-41 35.167 -55 58.5s-21 50 -21 80c0 28 5.66699 52.167 17 72.5
s26.333 38 45 53s40.167 28.167 64.5 39.5s49.166 22 74.499 32c8 3.33301 19.833 9.16602 35.5 17.499s31.167 18.666 46.5 30.999s28.666 26.5 39.999 42.5s17 33.333 17 52c0 28 -6.5 49.333 -19.5 64s-30.167 22 -51.5 22c-13.333 0 -24.166 -1.83301 -32.499 -5.5
s-14.833 -7.83398 -19.5 -12.501s-7.66699 -9.5 -9 -14.5s-2 -8.83301 -2 -11.5v-82h-44v80c0 3.33301 -1 7.66602 -3 12.999s-5.66699 10.5 -11 15.5s-12.666 9.33301 -21.999 13s-21 5.5 -35 5.5c-23.333 0 -41 -7.83301 -53 -23.5s-18 -33.5 -18 -53.5
c0 -16 2.66699 -28.667 8 -38s11.833 -16.5 19.5 -21.5s15.667 -8.33301 24 -10s15.166 -2.5 20.499 -2.5v-39c-32 1.33301 -59.5 11.666 -82.5 30.999s-34.5 46 -34.5 80c0 16.667 3 32 9 46s14.333 26.167 25 36.5s23.167 18.5 37.5 24.5s29.833 9 46.5 9
c17.333 0 32.666 -2.33301 45.999 -7s28.333 -13.667 45 -27c15.333 14 30.333 23.167 45 27.5s31.334 6.5 50.001 6.5c16.667 0 31.5 -3.5 44.5 -10.5s24 -16.167 33 -27.5s15.833 -24.5 20.5 -39.5s7 -30.833 7 -47.5c0 -36 -8.33301 -65 -25 -87s-37.5 -40.667 -62.5 -56
s-52.167 -28.5 -81.5 -39.5s-56.5 -23.5 -81.5 -37.5s-45.833 -30.833 -62.5 -50.5s-25 -45.5 -25 -77.5c0 -24 7 -44.5 21 -61.5s31.333 -31 52 -42s42.667 -19 66 -24s44.333 -7.5 63 -7.5c26.667 0 54 5.66699 82 17s53.333 25.5 76 42.5s41.334 35.667 56.001 56
s22 39.833 22 58.5v427h46v-642h-46z" />
    <glyph glyph-name="uni0B06" unicode="&#xb06;" horiz-adv-x="777" 
d="M546 0l-0.000976562 113.005c-11.333 -14 -25 -28 -41 -42s-34.333 -26.5 -55 -37.5s-43.5 -20 -68.5 -27s-51.833 -10.5 -80.5 -10.5c-29.333 0 -58.166 4.16699 -86.499 12.5s-53.833 20.333 -76.5 36s-41 35.167 -55 58.5s-21 50 -21 80c0 28 5.66699 52.167 17 72.5
s26.333 38 45 53s40.167 28.167 64.5 39.5s49.166 22 74.499 32c8 3.33301 19.833 9.16602 35.5 17.499s31.167 18.666 46.5 30.999s28.666 26.5 39.999 42.5s17 33.333 17 52c0 28 -6.5 49.333 -19.5 64s-30.167 22 -51.5 22c-13.333 0 -24.166 -1.83301 -32.499 -5.5
s-14.833 -7.83398 -19.5 -12.501s-7.66699 -9.5 -9 -14.5s-2 -8.83301 -2 -11.5v-82h-44v80c0 3.33301 -1 7.66602 -3 12.999s-5.66699 10.5 -11 15.5s-12.666 9.33301 -21.999 13s-21 5.5 -35 5.5c-23.333 0 -41 -7.83301 -53 -23.5s-18 -33.5 -18 -53.5
c0 -16 2.66699 -28.667 8 -38s11.833 -16.5 19.5 -21.5s15.667 -8.33301 24 -10s15.166 -2.5 20.499 -2.5v-39c-32 1.33301 -59.5 11.666 -82.5 30.999s-34.5 46 -34.5 80c0 16.667 3 32 9 46s14.333 26.167 25 36.5s23.167 18.5 37.5 24.5s29.833 9 46.5 9
c17.333 0 32.666 -2.33301 45.999 -7s28.333 -13.667 45 -27c15.333 14 30.333 23.167 45 27.5s31.334 6.5 50.001 6.5c16.667 0 31.5 -3.5 44.5 -10.5s24 -16.167 33 -27.5s15.833 -24.5 20.5 -39.5s7 -30.833 7 -47.5c0 -36 -8.33301 -65 -25 -87s-37.5 -40.667 -62.5 -56
s-52.167 -28.5 -81.5 -39.5s-56.5 -23.5 -81.5 -37.5s-45.833 -30.833 -62.5 -50.5s-25 -45.5 -25 -77.5c0 -24 7 -44.5 21 -61.5s31.333 -31 52 -42s42.667 -19 66 -24s44.333 -7.5 63 -7.5c26.667 0 54 5.66699 82 17s53.333 25.5 76 42.5s41.334 35.667 56.001 56
s22 39.833 22 58.5v427h46v-642h-46zM694.999 0.00488281v642h45v-642h-45z" />
    <glyph glyph-name="uni0B07" unicode="&#xb07;" horiz-adv-x="724" 
d="M629 0l-85.001 134.002c4 5.33301 9.5 13.833 16.5 25.5s13.833 26 20.5 43s12.5 36.5 17.5 58.5s7.5 45.667 7.5 71c0 41.333 -7.66699 78.833 -23 112.5s-36 62.5 -62 86.5s-56.167 42.5 -90.5 55.5s-70.833 19.5 -109.5 19.5c-39.333 0 -73.833 -6.33301 -103.5 -19
s-54.667 -29.5 -75 -50.5s-35.666 -45 -45.999 -72s-15.5 -55.167 -15.5 -84.5c0 -21.333 2.83301 -39.833 8.5 -55.5s12.5 -29.334 20.5 -41.001s16 -21.334 24 -29.001s14.333 -14.167 19 -19.5l9 17.5c4 7.66699 9.33301 15.334 16 23.001s14.667 14.167 24 19.5
s20.333 8 33 8c10 0 19.333 -2.16699 28 -6.5s16.5 -9.5 23.5 -15.5s13 -12 18 -18s8.16699 -11 9.5 -15c1.33301 4 3.66602 9 6.99902 15s7.83301 12 13.5 18s13 11.167 22 15.5s20.167 6.5 33.5 6.5c34.667 0 60 -14.333 76 -43s24 -65.334 24 -110.001
c0 -20 -1.83301 -39.333 -5.5 -58s-9.83398 -35.167 -18.501 -49.5s-19.667 -25.666 -33 -33.999s-29.333 -12.5 -48 -12.5c-9.33301 0 -17.833 2.16699 -25.5 6.5s-14.5 9.5 -20.5 15.5s-11.167 12.167 -15.5 18.5s-7.5 11.5 -9.5 15.5l-10.5 -15.5
c-4.33301 -6.33301 -9.66602 -12.5 -15.999 -18.5s-13.833 -11.167 -22.5 -15.5s-18.334 -6.5 -29.001 -6.5c-12 0 -24 3.5 -36 10.5s-22.833 16.833 -32.5 29.5s-17.5 28.167 -23.5 46.5s-9 39.166 -9 62.499c0 13.333 0.5 24.333 1.5 33s1.5 14.667 1.5 18l-20.5 15.5
c-11 8.33301 -22.5 20.333 -34.5 36s-22.667 34.667 -32 57s-14 48.5 -14 78.5c0 44 9 82.667 27 116s40.833 61.166 68.5 83.499s57.834 39 90.501 50s63.667 16.5 93 16.5c38 0 76.833 -6.33301 116.5 -19s75.667 -32 108 -58s58.833 -59.167 79.5 -99.5
s31 -88.5 31 -144.5c0 -28 -2.33301 -52.833 -7 -74.5s-10.167 -40.167 -16.5 -55.5s-12.666 -27.666 -18.999 -36.999l-13.5 -20l93 -143zM453.999 153.002c0 14.667 -1.5 28.8311 -4.5 42.498s-7.33301 25.834 -13 36.501s-12.5 19.167 -20.5 25.5s-16.667 9.5 -26 9.5
c-12 0 -21.833 -4.66699 -29.5 -14s-13.667 -20.5 -18 -33.5s-7.33301 -26.5 -9 -40.5s-2.5 -25.333 -2.5 -34c0 -13.333 1.33301 -26.833 4 -40.5s6.5 -26.167 11.5 -37.5s11.167 -20.666 18.5 -27.999s15.666 -11 24.999 -11c10 0 19 3.5 27 10.5s14.833 16 20.5 27
s9.83398 23.5 12.501 37.5s4 28 4 42v8zM294.999 149.999c0 9.33301 -1.33496 20.668 -4.00195 34.001s-6.66699 26.166 -12 38.499s-11.666 22.833 -18.999 31.5s-15.666 13 -24.999 13c-12 0 -22 -4.66699 -30 -14s-14.333 -20.5 -19 -33.5s-8 -26.5 -10 -40.5
s-3 -25.333 -3 -34c0 -13.333 1 -26.666 3 -39.999s5.5 -25.333 10.5 -36s11.667 -19.334 20 -26.001s18.5 -10 30.5 -10c12.667 0 22.667 3.33301 30 10s13 15.334 17 26.001s6.83301 22.667 8.5 36s2.5 26.666 2.5 39.999v5z" />
    <glyph glyph-name="uni0B08" unicode="&#xb08;" horiz-adv-x="685" 
d="M648 333c0 -22 -3.16895 -43.502 -9.50195 -64.502s-14.333 -40 -24 -57s-20 -31.5 -31 -43.5s-20.833 -20 -29.5 -24l84 -145h-53l-88 142l25.5 26c11.667 12 23.334 26.5 35.001 43.5s21.834 36.167 30.501 57.5s13 44 13 68c0 48 -8.16699 89.333 -24.5 124
s-36.666 63.167 -60.999 85.5s-51 38.833 -80 49.5s-56.167 16 -81.5 16c-19.333 0 -35.333 -3.33301 -48 -10s-22.834 -15.334 -30.501 -26.001s-13 -22.334 -16 -35.001s-4.5 -25 -4.5 -37c0 -16.667 3.16699 -30.167 9.5 -40.5s17.5 -18.166 33.5 -23.499l81 -26l-15 -34
l-146 47c-5.33301 1.33301 -13.166 3.16602 -23.499 5.49902s-21.5 3.5 -33.5 3.5c-10 0 -19.833 -1.16699 -29.5 -3.5s-18.334 -6.66602 -26.001 -12.999s-14 -14.833 -19 -25.5s-7.5 -24.334 -7.5 -41.001c0 -11.333 1.83301 -21.666 5.5 -30.999
s8.16699 -17.666 13.5 -24.999s10.833 -13.166 16.5 -17.499s10.5 -6.83301 14.5 -7.5c1.33301 2.66699 3.5 6 6.5 10s7 7.66699 12 11s11.333 6.33301 19 9s16.834 4 27.501 4c18 0 33.167 -5.83301 45.5 -17.5s21.166 -23.834 26.499 -36.501l10 19.5
c3.33301 6.33301 7.66602 11.833 12.999 16.5s12.166 8.5 20.499 11.5s18.833 4.5 31.5 4.5c17.333 0 32.333 -4.33301 45 -13s23.167 -20 31.5 -34s14.5 -30.167 18.5 -48.5s6 -37.5 6 -57.5c0 -18 -1.5 -36 -4.5 -54s-8.16699 -34.5 -15.5 -49.5
s-17.666 -27.167 -30.999 -36.5s-30 -14 -50 -14c-10 0 -19 2 -27 6s-15 8.83301 -21 14.5s-11 11.5 -15 17.5s-7 11.333 -9 16l-11 -17.5c-4 -6.33301 -9 -12.166 -15 -17.499s-13 -9.83301 -21 -13.5s-17.333 -5.5 -28 -5.5c-17.333 0 -32 4 -44 12
s-21.667 18.833 -29 32.5s-12.666 29.5 -15.999 47.5s-5 37 -5 57c0 18 1 35.5 3 52.5s3.66699 27.833 5 32.5c-3.33301 2.66699 -8.83301 7.5 -16.5 14.5s-15.5 16 -23.5 27s-15.167 24.167 -21.5 39.5s-9.5 32.333 -9.5 51c0 24 3.83301 43.5 11.5 58.5
s17.5 26.5 29.5 34.5s25.167 13.5 39.5 16.5s28.166 4.5 41.499 4.5s24.833 -0.666992 34.5 -2s17.834 -2.66602 24.501 -3.99902c-2.66699 4 -5.16699 8.66699 -7.5 14s-3.5 12.666 -3.5 21.999c0 14 2.16699 29.5 6.5 46.5s11.833 32.833 22.5 47.5s25.167 27 43.5 37
s41.5 15 69.5 15c39.333 0 77 -7.66699 113 -23s67.833 -37 95.5 -65s49.667 -61.667 66 -101s24.5 -82.666 24.5 -129.999zM390.998 144.998c0 8.66699 -0.668945 19.334 -2.00195 32.001s-3.66602 25 -6.99902 37s-8.33301 22.167 -15 30.5s-15 12.5 -25 12.5
c-12 0 -21.167 -4.16699 -27.5 -12.5s-11.166 -18.333 -14.499 -30s-5.33301 -24 -6 -37s-1 -23.833 -1 -32.5c0 -13.333 0.833008 -26.333 2.5 -39s4.66699 -24 9 -34s9.83301 -18 16.5 -24s15 -9 25 -9s18 3.33301 24 10s10.5 15.167 13.5 25.5s5 21.666 6 33.999
s1.5 24.5 1.5 36.5zM245.996 144.998c0 12 -1.00098 24.5 -3.00098 37.5s-5.33301 25 -10 36s-10.667 20.167 -18 27.5s-16 11 -26 11c-11.333 0 -20 -4.16699 -26 -12.5s-10.5 -18.333 -13.5 -30s-4.66699 -24 -5 -37s-0.5 -23.833 -0.5 -32.5
c0 -13.333 0.833008 -26.333 2.5 -39s4.33398 -24 8.00098 -34s8.5 -18 14.5 -24s13.667 -9 23 -9c10 0 18.333 2.83301 25 8.5s12.167 13.5 16.5 23.5s7.5 21.333 9.5 34s3 26 3 40z" />
    <glyph glyph-name="uni0B09" unicode="&#xb09;" horiz-adv-x="745" 
d="M652 1l-89.998 139.997c2.66699 4 7.5 10.833 14.5 20.5s14.167 22.167 21.5 37.5s14 33.5 20 54.5s9 44.833 9 71.5c0 42.667 -7.83301 81.334 -23.5 116.001s-36.667 64.334 -63 89.001s-56.666 43.5 -90.999 56.5s-70.166 19.5 -107.499 19.5
c-35.333 0 -68.833 -6 -100.5 -18s-59.334 -28.167 -83.001 -48.5s-42.5 -43.833 -56.5 -70.5s-21 -54.667 -21 -84c0 -17.333 2 -31.5 6 -42.5s8.5 -19.833 13.5 -26.5s10.167 -11.667 15.5 -15s9.66602 -5.66602 12.999 -6.99902l78 80l33 -31l-59 -60
c-14 -15.333 -25.667 -29.666 -35 -42.999s-14 -30.666 -14 -51.999c0 -20 4 -39.167 12 -57.5s18.667 -34.166 32 -47.499s29.166 -24 47.499 -32s37.833 -12 58.5 -12c16.667 0 34 2.33301 52 7s34.667 12.5 50 23.5s28 25.5 38 43.5s15 40.667 15 68c0 8 -2 15.5 -6 22.5
s-8.66699 13.333 -14 19s-10.833 10.167 -16.5 13.5s-10.167 5.33301 -13.5 6l-73 -70l-34 32l152 151l35 -29l-45 -46c4 -2 9.33301 -5.66699 16 -11s13.167 -12.166 19.5 -20.499s11.833 -18.833 16.5 -31.5s7 -27.334 7 -44.001
c0 -28.667 -5.83301 -54.334 -17.5 -77.001s-26.834 -41.667 -45.501 -57s-39.667 -27.166 -63 -35.499s-46.666 -12.5 -69.999 -12.5c-30 0 -57.167 5.33301 -81.5 16s-45.333 24.667 -63 42s-31.167 37.166 -40.5 59.499s-14 45.166 -14 68.499c0 14 1.66699 28.5 5 43.5
s6.33301 25.5 9 31.5c-2.66699 2 -7.5 5.16699 -14.5 9.5s-14 11.166 -21 20.499s-13.333 22 -19 38s-8.5 37 -8.5 63c0 42.667 9.66699 80.667 29 114s43.666 61.166 72.999 83.499s61.666 39.333 96.999 51s69 17.5 101 17.5c38 0 76.833 -6.16699 116.5 -18.5
s75.667 -31.666 108 -57.999s59 -60.333 80 -102s31.5 -91.834 31.5 -150.501c0 -17.333 -1 -33.5 -3 -48.5s-5.16699 -29.667 -9.5 -44s-10.166 -28.666 -17.499 -42.999s-16 -29.5 -26 -45.5l91 -138h-56z" />
    <glyph glyph-name="uni0B0A" unicode="&#xb0a;" horiz-adv-x="747" 
d="M710 216c-2 -44 -25.001 -77.334 -69.001 -100.001l60 -115h-56l-76 143c7.33301 1.33301 16 3.5 26 6.5s19.5 7.5 28.5 13.5s16.667 13.5 23 22.5s9.5 20.5 9.5 34.5s-2.5 25.833 -7.5 35.5s-11.333 17.667 -19 24s-15.667 11.333 -24 15s-15.833 6.5 -22.5 8.5
c3.33301 14.667 6.83301 28.5 10.5 41.5s5.5 26.167 5.5 39.5c0 32 -6.83301 61.167 -20.5 87.5s-32.5 49 -56.5 68s-52 33.833 -84 44.5s-66.333 16 -103 16c-34 0 -66 -5.5 -96 -16.5s-56.333 -26.333 -79 -46s-40.667 -43 -54 -70s-20 -56.5 -20 -88.5
c0 -16 1.83301 -29.167 5.5 -39.5s8 -18.833 13 -25.5s9.83301 -11.667 14.5 -15s8 -5.33301 10 -6l78 80l37 -36l-62 -61c-14 -14.667 -25.333 -29 -34 -43s-13 -31 -13 -51c0 -19.333 3.83301 -37.5 11.5 -54.5s18.334 -31.833 32.001 -44.5s29.334 -22.667 47.001 -30
s36.5 -11 56.5 -11c16.667 0 33.667 2.5 51 7.5s33 12.833 47 23.5s25.333 23.834 34 39.501s13 34.167 13 55.5c0 15.333 -2.83301 29.5 -8.5 42.5s-14.834 26.167 -27.501 39.5l-79 -79l-32 37l152 149l33 -33l-39 -40c4 -3.33301 9.16699 -8.66602 15.5 -15.999
s12.333 -16 18 -26s10.5 -21 14.5 -33s6 -24.333 6 -37c0 -28.667 -5.83301 -54.334 -17.5 -77.001s-26.834 -41.667 -45.501 -57s-39.667 -27.166 -63 -35.499s-46.666 -12.5 -69.999 -12.5c-30 0 -57.5 5.5 -82.5 16.5s-46.333 25.333 -64 43s-31.5 38 -41.5 61
s-15 46.5 -15 70.5c0 21.333 2 37.166 6 47.499s8.33301 20.833 13 31.5l-15.5 6.5c-7 3 -14 8.66699 -21 17s-13.167 20.333 -18.5 36s-8 36.5 -8 62.5c0 42 9.16699 79.5 27.5 112.5s41.833 60.833 70.5 83.5s60.667 40 96 52s70 18 104 18c44.667 0 86 -6.66699 124 -20
s71 -31.833 99 -55.5s50 -52.167 66 -85.5s24 -70 24 -110c0 -7.33301 -1 -14 -3 -20s-3.66699 -14.333 -5 -25c24.667 -12.667 42.5 -29 53.5 -49s16.5 -42.667 16.5 -68z" />
    <glyph glyph-name="uni0B0B" unicode="&#xb0b;" horiz-adv-x="685" 
d="M648 161c0 -16 -3.16309 -30.6582 -9.49609 -43.9912s-13.833 -25.333 -22.5 -36s-17.834 -19.834 -27.501 -27.501s-17.5 -13.5 -23.5 -17.5l61 -144h-57l-76 178c7.33301 0 16.833 2 28.5 6s23.167 9.66699 34.5 17s21 16.666 29 27.999s12 24.333 12 39
c0 16.667 -3 30.334 -9 41.001s-13.5 19.167 -22.5 25.5s-18.667 11.166 -29 14.499s-19.833 6.66602 -28.5 9.99902l17.5 20c6.33301 7.33301 12.166 16.166 17.499 26.499s9.66602 22.666 12.999 36.999s5 31.5 5 51.5c0 32 -7 61.333 -21 88s-32.5 49.5 -55.5 68.5
s-49 33.833 -78 44.5s-58.833 16 -89.5 16c-32.667 0 -62.834 -6.33301 -90.501 -19s-51.5 -29.334 -71.5 -50.001s-35.667 -44.167 -47 -70.5s-17 -52.833 -17 -79.5c0 -20 3.33301 -36.667 10 -50s14.5 -24.5 23.5 -33.5s17.667 -16 26 -21s14.5 -8.83301 18.5 -11.5
c17.333 15.333 34 26.166 50 32.499s35.333 9.5 58 9.5c22 0 42.5 -4 61.5 -12s35.5 -19 49.5 -33s25 -30.5 33 -49.5s12 -39.167 12 -60.5c0 -22 -4 -42.5 -12 -61.5s-19 -35.5 -33 -49.5s-30.5 -25.167 -49.5 -33.5s-39.5 -12.5 -61.5 -12.5
c-21.333 0 -41.5 4.16699 -60.5 12.5s-35.5 19.666 -49.5 33.999s-25 31 -33 50s-12 39.167 -12 60.5c0 11.333 1.83301 23.666 5.5 36.999s6.83398 24.333 9.50098 33c-4.66699 2.66699 -12.5 7.66699 -23.5 15s-22.167 17.5 -33.5 30.5s-21.333 28.5 -30 46.5
s-13 38.667 -13 62c0 38.667 7.66699 74.5 23 107.5s36.166 61.5 62.499 85.5s57 42.833 92 56.5s71.833 20.5 110.5 20.5c37.333 0 73.166 -6.16699 107.499 -18.5s64.833 -30 91.5 -53s47.834 -50.667 63.501 -83s23.5 -68.5 23.5 -108.5c0 -61.333 -10 -101 -30 -119
c5.33301 -4 11.833 -8.33301 19.5 -13s15 -11 22 -19s13 -17.833 18 -29.5s7.5 -26.5 7.5 -44.5zM383.004 153.009c0 14 -2 27.499 -6 40.499s-10.333 24.5 -19 34.5s-19.667 18 -33 24s-29.333 9 -48 9c-14 0 -27.5 -3 -40.5 -9s-24.167 -13.833 -33.5 -23.5
s-16.833 -20.834 -22.5 -33.501s-8.5 -26 -8.5 -40c0 -16 3 -30.667 9 -44s14 -24.666 24 -33.999s21.667 -16.5 35 -21.5s27.333 -7.5 42 -7.5c14 0 27.167 3 39.5 9s23 13.833 32 23.5s16.167 20.834 21.5 33.501s8 25.667 8 39z" />
    <glyph glyph-name="uni0B0C" unicode="&#xb0c;" horiz-adv-x="513" 
d="M481 139c0 -26.667 -6 -49.502 -18 -68.502s-27.5 -34.5 -46.5 -46.5s-40.167 -20.833 -63.5 -26.5s-46 -8.5 -68 -8.5c-31.333 0 -61.833 4.66699 -91.5 14s-56.167 22.5 -79.5 39.5s-42 37.833 -56 62.5s-21 52.334 -21 83.001c0 36 8.16699 65.667 24.5 89
s36.833 43.166 61.5 59.499s51.5 30.333 80.5 42s55.833 24 80.5 37s45.167 28.333 61.5 46s24.5 40.167 24.5 67.5c0 14 -3 26 -9 36s-13.833 18.333 -23.5 25s-20.334 11.5 -32.001 14.5s-22.834 4.5 -33.501 4.5c-12 0 -24.333 -1.5 -37 -4.5
s-24.167 -7.83301 -34.5 -14.5s-18.666 -15.167 -24.999 -25.5s-9.5 -22.5 -9.5 -36.5c0 -9.33301 1 -18.333 3 -27s6.33301 -16.667 13 -24l-36 -22c-9.33301 12.667 -15.833 24 -19.5 34s-5.5 22.333 -5.5 37c0 19.333 4.16699 37 12.5 53s19.333 29.5 33 40.5
s29.334 19.5 47.001 25.5s36.167 9 55.5 9c20 0 39.167 -2.66699 57.5 -8s34.5 -13.333 48.5 -24s25.167 -24.167 33.5 -40.5s12.5 -35.833 12.5 -58.5c0 -30.667 -8.33301 -56.167 -25 -76.5s-37.334 -38.166 -62.001 -53.499s-51.5 -29.166 -80.5 -41.499
s-55.833 -25.666 -80.5 -39.999s-45.334 -30.833 -62.001 -49.5s-25 -42 -25 -70c0 -29.333 7 -53.833 21 -73.5s31 -35.5 51 -47.5s40.5 -20.5 61.5 -25.5s38.5 -7.5 52.5 -7.5c6.66699 0 11 0.333008 13 1c-17.333 7.33301 -30.666 19.666 -39.999 36.999
s-14 35.333 -14 54c0 14 2.66699 28.167 8 42.5s13.333 27.333 24 39s24 21.167 40 28.5s35 11 57 11c16.667 0 32.334 -2.83301 47.001 -8.5s27.5 -13.5 38.5 -23.5s19.667 -21.833 26 -35.5s9.5 -28.5 9.5 -44.5zM431 132.998c0 18.667 -6.16699 34.835 -18.5 48.502
s-30.166 20.5 -53.499 20.5c-19.333 0 -36.5 -6.83301 -51.5 -20.5s-22.5 -30.834 -22.5 -51.501c0 -10 2.33301 -19.5 7 -28.5s10.667 -17 18 -24s15.5 -12.5 24.5 -16.5s18.167 -6 27.5 -6c19.333 0 35.666 7.66699 48.999 23s20 33.666 20 54.999z" />
    <glyph glyph-name="uni0B0F" unicode="&#xb0f;" horiz-adv-x="656" 
d="M549 0l-548.998 453.999h62l511 -418v522c-10 -4 -21.333 -9 -34 -15s-25.834 -12.833 -39.501 -20.5s-27.167 -16 -40.5 -25s-25.666 -18.5 -36.999 -28.5c14 -8 23.833 -16.333 29.5 -25s8.5 -19 8.5 -31c0 -16.667 -5.83301 -31 -17.5 -43s-25.834 -18 -42.501 -18
c-19.333 0 -36.166 5.5 -50.499 16.5s-21.5 26.833 -21.5 47.5c0 14.667 3.16699 28.167 9.5 40.5s13.833 23.333 22.5 33s17.667 17.834 27 24.501l23 16c17.333 11.333 36.166 22.833 56.499 34.5s40.333 22.5 60 32.5l54 27c16.333 8 29.166 14 38.499 18v-642h-70z" />
    <glyph glyph-name="uni0B10" unicode="&#xb10;" horiz-adv-x="900" 
d="M863 739c0 -14.667 -2.50781 -28.3301 -7.50781 -40.9971s-10.5 -23.667 -16.5 -33s-11.5 -16.833 -16.5 -22.5s-7.5 -8.83398 -7.5 -9.50098v-633h-45v332c-9.33301 -8.66699 -19.666 -14.167 -30.999 -16.5s-27 -3.5 -47 -3.5c-19.333 0 -35.5 3.5 -48.5 10.5
s-23.167 15.167 -30.5 24.5v-347h-71l-542 453h62l505 -419v528c-9.33301 -2 -21.166 -6.66699 -35.499 -14s-28.833 -15.833 -43.5 -25.5s-28.5 -19.5 -41.5 -29.5s-22.833 -18.667 -29.5 -26c14 -8 23.833 -16.5 29.5 -25.5s8.5 -19.167 8.5 -30.5
c0 -16 -5.66699 -30.333 -17 -43s-25.666 -19 -42.999 -19c-19.333 0 -35.666 5.83301 -48.999 17.5s-20 27.167 -20 46.5s5.66699 38 17 56s25.833 34.833 43.5 50.5s37.5 30 59.5 43s43.5 24.667 64.5 35s40.667 18.833 59 25.5s32.833 11.667 43.5 15v-214
c2.66699 -7.33301 5.83398 -15 9.50098 -23s8.5 -15.5 14.5 -22.5s13.5 -12.833 22.5 -17.5s20.5 -7 34.5 -7c17.333 0 32.333 2.5 45 7.5s23 14.833 31 29.5v233c2 11.333 5.33301 21.333 10 30s9.66699 17 15 25s10 16.167 14 24.5s6 17.5 6 27.5
c0 10.667 -3 20.167 -9 28.5s-13.667 15.166 -23 20.499s-19.666 9.33301 -30.999 12s-22.666 4 -33.999 4c-14 0 -26.833 -1.33301 -38.5 -4s-23.667 -5.66699 -36 -9s-26 -6.33301 -41 -9s-32.5 -4 -52.5 -4c-24.667 0 -44.667 2.33301 -60 7s-27.666 9.66699 -36.999 15
l21 43c6 -3.33301 16 -7.16602 30 -11.499s37.333 -6.5 70 -6.5c18 0 34.167 1.16699 48.5 3.5s27.833 5 40.5 8s25.334 5.66699 38.001 8s26.334 3.5 41.001 3.5c15.333 0 30.166 -2 44.499 -6s27.166 -10.333 38.499 -19s20.5 -19.334 27.5 -32.001
s10.5 -27.334 10.5 -44.001z" />
    <glyph glyph-name="uni0B13" unicode="&#xb13;" horiz-adv-x="590" 
d="M554 180c0 -33.333 -6.83203 -61.6621 -20.499 -84.9951s-31.167 -42.5 -52.5 -57.5s-44.833 -26 -70.5 -33s-50.834 -10.5 -75.501 -10.5c-61.333 0 -111.333 11.167 -150 33.5s-69 51.166 -91 86.499s-37 74.5 -45 117.5s-12 85.5 -12 127.5
c0 38 4.33301 73.167 13 105.5s18.5 60.666 29.5 84.999s22 44.5 33 60.5s18.5 26.667 22.5 32h53c-8.66699 -11.333 -18.834 -25.833 -30.501 -43.5s-23 -38.5 -34 -62.5s-20.333 -50.833 -28 -80.5s-11.5 -61.834 -11.5 -96.501c0 -36 3.66699 -72.833 11 -110.5
s20.166 -72.167 38.499 -103.5s43.5 -57 75.5 -77s73 -30 123 -30c20.667 0 41.334 2.5 62.001 7.5s39.167 13.167 55.5 24.5s29.5 26.166 39.5 44.499s15 40.5 15 66.5c0 19.333 -3.33301 37.5 -10 54.5s-15.834 31.833 -27.501 44.5s-25.334 22.667 -41.001 30
s-32.167 11 -49.5 11c-10 0 -20.167 -2 -30.5 -6s-20 -9 -29 -15s-17.333 -12.333 -25 -19s-14.167 -12.667 -19.5 -18l-33 38c4 4.66699 9.83301 10.667 17.5 18s16.5 14.5 26.5 21.5s21.333 13 34 18s26.334 8.16699 41.001 9.5c40 1.33301 72.5 14.666 97.5 39.999
s37.5 59 37.5 101c0 26 -7.16699 48.167 -21.5 66.5s-33.833 27.5 -58.5 27.5c-10 0 -20 -1.66699 -30 -5s-19.333 -8.16602 -28 -14.499s-15.667 -13.833 -21 -22.5s-8 -18 -8 -28c0 -14.667 1.83301 -25.834 5.5 -33.501s7.16699 -14.167 10.5 -19.5l-39 -25
c-9.33301 10 -15.833 20.667 -19.5 32s-5.5 23.333 -5.5 36c0 18 3.5 34.667 10.5 50s16.5 28.666 28.5 39.999s26 20.166 42 26.499s33 9.5 51 9.5c20.667 0 39.334 -4.16699 56.001 -12.5s30.834 -19.333 42.501 -33s20.667 -29.5 27 -47.5s9.5 -37 9.5 -57
c0 -23.333 -3.5 -43.833 -10.5 -61.5s-15.333 -32.667 -25 -45s-19.334 -22.166 -29.001 -29.499s-17.167 -12.333 -22.5 -15c4.66699 -3.33301 12.334 -8.16602 23.001 -14.499s21.5 -15.833 32.5 -28.5s20.5 -29.167 28.5 -49.5s12 -45.5 12 -75.5z" />
    <glyph glyph-name="uni0B14" unicode="&#xb14;" horiz-adv-x="797" 
d="M760 738c0 -10.667 -1.50488 -21.499 -4.50488 -32.499s-6.66699 -21.167 -11 -30.5s-8.66602 -17.5 -12.999 -24.5s-7.83301 -11.5 -10.5 -13.5v-637h-46v135c-8 -4 -16.833 -7.83301 -26.5 -11.5s-23.167 -5.5 -40.5 -5.5c-30 0 -52.333 7.66699 -67 23
c-1.33301 -10 -5.83301 -23.333 -13.5 -40s-19.5 -33 -35.5 -49s-37 -29.667 -63 -41s-58 -17 -96 -17c-40 0 -75.167 5.16699 -105.5 15.5s-56.5 24.333 -78.5 42s-40.167 38.334 -54.5 62.001s-25.833 48.834 -34.5 75.501s-14.667 54.334 -18 83.001s-5 57 -5 85
c0 38 4.33301 73 13 105s18.5 60.167 29.5 84.5s21.833 44.333 32.5 60s18 26.167 22 31.5h55c-8.66699 -10.667 -19 -24.834 -31 -42.501s-23.5 -38.334 -34.5 -62.001s-20.333 -50.334 -28 -80.001s-11.5 -61.834 -11.5 -96.501c0 -37.333 3.33301 -74.666 10 -111.999
s19 -71 37 -101s43 -54.333 75 -73s73.333 -28 124 -28c20 0 40 2.33301 60 7s38 12.5 54 23.5s29 25.333 39 43s15 39.834 15 66.501c0 18.667 -3 36.167 -9 52.5s-14.333 30.666 -25 42.999s-23.334 22.166 -38.001 29.499s-30.667 11 -48 11
c-10.667 0 -21.167 -1.83301 -31.5 -5.5s-20 -8.33398 -29 -14.001s-17.333 -11.834 -25 -18.501s-13.834 -13.334 -18.501 -20.001l-34 32c4 5.33301 9.66699 11.833 17 19.5s16 15.167 26 22.5s21.333 13.666 34 18.999s26.334 8 41.001 8c20 0 38.167 4.33301 54.5 13
s30.5 19.5 42.5 32.5s21.167 27.167 27.5 42.5s9.5 29.666 9.5 42.999c0 12.667 -2 25.5 -6 38.5s-9.5 24.5 -16.5 34.5s-15.5 18.167 -25.5 24.5s-21 9.5 -33 9.5c-10 0 -20.333 -2 -31 -6s-20.167 -9.33301 -28.5 -16s-15.166 -14.5 -20.499 -23.5s-8 -18.5 -8 -28.5
c0 -9.33301 1.5 -18.5 4.5 -27.5s6.5 -16.167 10.5 -21.5l-43 -24c-6.66699 12 -11.334 22.833 -14.001 32.5s-4 21.167 -4 34.5c0 18 3.5 34.667 10.5 50s16.5 28.666 28.5 39.999s25.833 20.166 41.5 26.499s32.167 9.5 49.5 9.5c20 0 38.333 -3.66699 55 -11
s30.834 -17.666 42.501 -30.999s20.834 -29.166 27.501 -47.499s10 -38.5 10 -60.5c0 -25.333 -4.5 -47.666 -13.5 -66.999s-19 -35.333 -30 -48s-21.167 -22.334 -30.5 -29.001l-14 -10c-0.666992 0 1.5 -1.33301 6.5 -4s11.167 -6.33398 18.5 -11.001
s14.833 -10.5 22.5 -17.5s13.834 -15.167 18.501 -24.5c2 7.33301 4.33301 13.5 7 18.5s5 10.167 7 15.5l38 -18c-6 -10.667 -11 -23.834 -15 -39.501s-6 -30.167 -6 -43.5c0 -15.333 4.5 -28.166 13.5 -38.499s22.5 -15.5 40.5 -15.5s33.333 3.33301 46 10
s20.667 11.334 24 14.001v457c1.33301 2.66699 4 6.83398 8 12.501s8.16699 12.334 12.5 20.001s8.16602 15.834 11.499 24.501s5 17.667 5 27c0 14 -2 25 -6 33s-9.66699 14 -17 18s-15.833 6.66699 -25.5 8s-20.167 2 -31.5 2c-13.333 0 -26.166 -1.16699 -38.499 -3.5
l-39.5 -7.5c-14 -2.66699 -29 -5.16699 -45 -7.5s-34 -3.5 -54 -3.5c-21.333 0 -40 2.16699 -56 6.5s-29.333 8.5 -40 12.5l20 44c8 -4 18.833 -8.16699 32.5 -12.5s30.5 -6.5 50.5 -6.5c18.667 0 36.5 1.33301 53.5 4s33.333 5.83398 49 9.50098
s30.834 6.83398 45.501 9.50098s29 4 43 4c14.667 0 28.5 -2.66699 41.5 -8s24.333 -12.5 34 -21.5s17.334 -19.667 23.001 -32s8.5 -25.5 8.5 -39.5z" />
    <glyph glyph-name="uni0B15" unicode="&#xb15;" horiz-adv-x="667" 
d="M630 344c0 -7.33301 -0.833008 -15.3291 -2.5 -23.9961s-3.16699 -17 -4.5 -25c-2.66699 -9.33301 -5 -19 -7 -29l-38 22c1.33301 7.33301 2.5 16.666 3.5 27.999s1.5 21.666 1.5 30.999c0 34.667 -6.83301 67.667 -20.5 99s-32.167 58.5 -55.5 81.5s-51 41.333 -83 55
s-66 20.5 -102 20.5c-34 0 -65.5 -5.83301 -94.5 -17.5s-54.333 -27.334 -76 -47.001s-38.667 -42.167 -51 -67.5s-18.5 -51.666 -18.5 -78.999c0 -28 3.66699 -51.667 11 -71s14 -33 20 -41c2.66699 4.66699 6.83398 10.334 12.501 17.001s12.5 12.834 20.5 18.501
s17.333 10.5 28 14.5s22.667 6 36 6c25.333 0 44.833 -4.66699 58.5 -14s25.5 -21.666 35.5 -36.999c9.33301 15.333 22 27.166 38 35.499s32.333 12.5 49 12.5c26.667 0 47.834 -5 63.501 -15s27.5 -21.333 35.5 -34s13 -24.334 15 -35.001s3 -17 3 -19v-230h-46v213
c0 6.66699 -0.833008 14.334 -2.5 23.001s-4.66699 16.667 -9 24s-10.833 13.666 -19.5 18.999s-20 8 -34 8c-22 0 -37.333 -5 -46 -15s-13 -20.333 -13 -31v-241h-45v84c-7.33301 -11.333 -18.333 -21 -33 -29s-30.667 -12 -48 -12c-26.667 0 -48 5.5 -64 16.5
s-28.333 24.5 -37 40.5s-14.334 32.833 -17.001 50.5s-4 33.167 -4 46.5c0 9.33301 0.166992 16.5 0.5 21.5s1.16602 10.5 2.49902 16.5c-2 2.66699 -6 8.66699 -12 18s-12.333 20.5 -19 33.5s-12.5 27.667 -17.5 44s-7.5 33.166 -7.5 50.499c0 38 7.66699 73.333 23 106
s36 61 62 85s56 42.833 90 56.5s70 20.5 108 20.5c40 0 78.667 -7.33301 116 -22s70.333 -35.334 99 -62.001s51.667 -58.834 69 -96.501s26 -79.167 26 -124.5zM284 191.004c0 12.667 -1.5 25 -4.5 37s-7.66699 22.5 -14 31.5s-14.333 16.167 -24 21.5s-20.834 8 -33.501 8
c-11.333 0 -21.5 -2.83301 -30.5 -8.5s-16.667 -13.167 -23 -22.5s-11.166 -19.833 -14.499 -31.5s-5 -23.5 -5 -35.5s1.66699 -24.167 5 -36.5s8 -23.5 14 -33.5s13.5 -18.167 22.5 -24.5s19.5 -9.5 31.5 -9.5c13.333 0 24.833 3 34.5 9s17.5 14 23.5 24
s10.5 21.167 13.5 33.5s4.5 24.833 4.5 37.5z" />
    <glyph glyph-name="uni0B16" unicode="&#xb16;" horiz-adv-x="641" 
d="M557 0l-0.00390625 488.001c-4 -6.66699 -10.333 -15.334 -19 -26.001s-19.167 -21 -31.5 -31s-26.166 -18.667 -41.499 -26s-32 -11 -50 -11c-16.667 0 -32.667 2.5 -48 7.5s-28.666 12.167 -39.999 21.5s-20.5 21.166 -27.5 35.499s-10.5 30.833 -10.5 49.5
c0 8 0.833008 16.667 2.5 26s3.5 18.5 5.5 27.5s4.16699 17.5 6.5 25.5s4.5 14.333 6.5 19c-6 0 -15.833 -1.66699 -29.5 -5s-28.667 -8.5 -45 -15.5s-33.333 -16.333 -51 -28s-33.667 -25.667 -48 -42s-26.166 -35.833 -35.499 -58.5s-14 -48.334 -14 -77.001
c0 -22.667 4.16699 -40.667 12.5 -54s17.666 -23.666 27.999 -30.999s20.5 -12.333 30.5 -15s16.667 -4.66699 20 -6l12.5 9c5.66699 4 12.667 7.83301 21 11.5s17.666 7 27.999 10s21.5 4.5 33.5 4.5c21.333 0 41.166 -3.83301 59.499 -11.5s34.333 -18.167 48 -31.5
s24.334 -29.333 32.001 -48s11.5 -39 11.5 -61c0 -26 -3.83301 -49.167 -11.5 -69.5s-18 -37.5 -31 -51.5s-28.5 -24.5 -46.5 -31.5s-37 -10.5 -57 -10.5c-23.333 0 -44.666 4.33301 -63.999 13s-36.333 20.334 -51 35.001s-26 32 -34 52s-12 41 -12 63
c0 12.667 2.33301 26.167 7 40.5s11 26.833 19 37.5l-25.5 10c-11.667 4.66699 -23.5 12.167 -35.5 22.5s-22.5 24.333 -31.5 42s-13.5 40.5 -13.5 68.5c0 38.667 7.5 74.5 22.5 107.5s35.5 61.667 61.5 86s56.5 43.333 91.5 57s72.5 20.5 112.5 20.5
c9.33301 0 19 -0.833008 29 -2.5s20 -3.83398 30 -6.50098c-10 -15.333 -20 -34.5 -30 -57.5s-15 -47.5 -15 -73.5c0 -17.333 6.33301 -32.5 19 -45.5s31 -19.5 55 -19.5c12 0 23.833 3 35.5 9s22.834 13.667 33.501 23s20.667 19.333 30 30s17.333 20.667 24 30
s11.834 17.333 15.501 24s5.5 10.334 5.5 11.001v71h46v-642h-46zM374.996 157.001c0 14 -2.16699 27.167 -6.5 39.5s-10.833 23.166 -19.5 32.499s-19.334 16.833 -32.001 22.5s-27.334 8.5 -44.001 8.5c-14 0 -27.167 -2.83301 -39.5 -8.5s-23.166 -13.167 -32.499 -22.5
s-16.833 -20.5 -22.5 -33.5s-8.5 -26.5 -8.5 -40.5c0 -14.667 2.33301 -28.667 7 -42s11.334 -25.166 20.001 -35.499s19.5 -18.5 32.5 -24.5s27.5 -9 43.5 -9c17.333 0 32.5 3 45.5 9s23.667 14.167 32 24.5s14.5 22.333 18.5 36s6 28.167 6 43.5z" />
    <glyph glyph-name="uni0B17" unicode="&#xb17;" horiz-adv-x="662" 
d="M555 0l-0.000976562 454.998c0 2.66699 -5.33301 12 -16 28s-26.5 33.167 -47.5 51.5s-47.167 34.833 -78.5 49.5s-68 22 -110 22c-33.333 0 -63.333 -6 -90 -18s-49.5 -28 -68.5 -48s-33.667 -43.333 -44 -70s-15.5 -54.667 -15.5 -84c0 -22 3.66699 -40.5 11 -55.5
s15.666 -27.167 24.999 -36.5s18.5 -16.5 27.5 -21.5s15.167 -7.83301 18.5 -8.5c2.66699 2.66699 7.33398 6.5 14.001 11.5s14.834 10 24.501 15s20.167 9.33301 31.5 13s23.333 5.5 36 5.5c21.333 0 41.166 -3.83301 59.499 -11.5s34.333 -18.167 48 -31.5
s24.334 -29.333 32.001 -48s11.5 -39 11.5 -61c0 -23.333 -3.83301 -45 -11.5 -65s-18 -37.167 -31 -51.5s-28.333 -25.666 -46 -33.999s-36.834 -12.5 -57.501 -12.5c-22.667 0 -43.5 4.33301 -62.5 13s-35.5 20.5 -49.5 35.5s-24.833 32.333 -32.5 52
s-11.5 40.5 -11.5 62.5c0 12 1.83301 24.833 5.5 38.5s7.16699 24.5 10.5 32.5c-5.33301 2 -13.5 6.33301 -24.5 13s-22.167 16.167 -33.5 28.5s-21.333 27.833 -30 46.5s-13 41 -13 67c0 42.667 7.16699 80.834 21.5 114.501s33.833 61.834 58.5 84.501
s53.334 40 86.001 52s67 18 103 18c32 0 61.667 -4.33301 89 -13s51.5 -19.334 72.5 -32.001s39 -25.667 54 -39s26.167 -24.333 33.5 -33v107h45v-642h-45zM375.999 156.998c-0.666992 28 -9.99902 52.666 -27.999 73.999s-43.333 32 -76 32c-14 0 -27.167 -3 -39.5 -9
s-23 -14 -32 -24s-16 -21.5 -21 -34.5s-7.5 -26.5 -7.5 -40.5c0 -14.667 2.16699 -28.834 6.5 -42.501s10.666 -25.667 18.999 -36s18.833 -18.666 31.5 -24.999s27 -9.5 43 -9.5c17.333 0 32.5 3.16699 45.5 9.5s23.833 14.833 32.5 25.5s15.167 22.834 19.5 36.501
s6.5 28.167 6.5 43.5z" />
    <glyph glyph-name="uni0B18" unicode="&#xb18;" horiz-adv-x="658" 
d="M551 0l0.00390625 41.0039c-8.66699 -10.667 -20.5 -21.667 -35.5 -33s-35.833 -17 -62.5 -17c-14.667 0 -27.834 2.5 -39.501 7.5s-21.834 11.333 -30.501 19s-15.5 15.5 -20.5 23.5s-8.5 15 -10.5 21c-2.66699 -5.33301 -6.66699 -12 -12 -20
s-12.333 -15.833 -21 -23.5s-19 -14.334 -31 -20.001s-25.667 -8.5 -41 -8.5c-20.667 0 -39.167 4 -55.5 12s-30.333 18.333 -42 31s-20.667 27 -27 43s-9.5 32.333 -9.5 49c0 29.333 4.33301 53 13 71s16.667 31.667 24 41l-27 10.5c-12.667 5 -25.334 13.333 -38.001 25
s-23.834 27.5 -33.501 47.5s-14.5 45.667 -14.5 77c0 41.333 7.83301 77.666 23.5 108.999s36.667 57.666 63 78.999s57 37.333 92 48s71.5 16 109.5 16c30 0 57.5 -3.66699 82.5 -11s47.333 -15.833 67 -25.5s36 -19.334 49 -29.001s22.167 -17.167 27.5 -22.5v81h46v-642
h-46zM551.004 498.004c-2.66699 3.33301 -9.82812 10.832 -21.4951 22.499s-27.334 23.667 -47.001 36s-43 23.5 -70 33.5s-57.167 15 -90.5 15c-28 0 -56.167 -4.16699 -84.5 -12.5s-53.833 -21 -76.5 -38s-41.167 -38.5 -55.5 -64.5s-21.5 -56.333 -21.5 -91
c0 -18 2.66699 -34.5 8 -49.5s12.5 -27.667 21.5 -38s19.167 -18.5 30.5 -24.5s22.666 -9 33.999 -9c10 14 21.833 26.667 35.5 38s24.834 20 33.501 26l35 -37c-8 -5.33301 -18.5 -13.5 -31.5 -24.5s-25.833 -24.333 -38.5 -40s-23.667 -33.334 -33 -53.001
s-14 -41.167 -14 -64.5s8.16699 -43.166 24.5 -59.499s37.166 -24.5 62.499 -24.5c11.333 0 21.666 3.5 30.999 10.5s17.166 15.333 23.499 25s11.166 19.667 14.499 30s5 18.833 5 25.5v80h47v-78c0 -4.66699 1.5 -11.834 4.5 -21.501s7.83301 -19.5 14.5 -29.5
s15.667 -18.667 27 -26s25 -11 41 -11c17.333 0 31.833 4.66699 43.5 14s21 19.833 28 31.5s12 22.334 15 32.001s4.5 14.834 4.5 15.501v361z" />
    <glyph glyph-name="uni0B19" unicode="&#xb19;" horiz-adv-x="667" 
d="M704 427c0 -16.667 -3.16309 -32.502 -9.49609 -47.502s-15 -28 -26 -39s-23.833 -19.833 -38.5 -26.5s-30.334 -10 -47.001 -10c-17.333 0 -33.5 3 -48.5 9s-28.167 14.5 -39.5 25.5s-20.333 24 -27 39s-10 31.5 -10 49.5c0 17.333 3.66699 35 11 53
s18.666 32.667 33.999 44c-3.33301 4 -9.66602 10.5 -18.999 19.5s-21.833 17.833 -37.5 26.5s-34.834 16.334 -57.501 23.001s-48.667 10 -78 10c-34 0 -64.833 -5.66699 -92.5 -17s-51.334 -27 -71.001 -47s-34.834 -43.5 -45.501 -70.5s-16 -56.5 -16 -88.5
c0 -17.333 3.83301 -31.166 11.5 -41.499s16.5 -18.333 26.5 -24s19.5 -9.5 28.5 -11.5s14.833 -3 17.5 -3l75 74l38 -35l-55 -56c-15.333 -16 -29 -32.5 -41 -49.5s-18 -37.167 -18 -60.5c0 -18 3.16699 -34.833 9.5 -50.5s15.333 -29.334 27 -41.001
s25.834 -21 42.501 -28s35.667 -10.5 57 -10.5c39.333 0 71.166 13 95.499 39s36.5 59.667 36.5 101c0 10.667 -0.666992 19.167 -2 25.5s-3.5 11.833 -6.5 16.5s-6.5 9 -10.5 13s-9 8.66699 -15 14l-71 -75l-39 35l140 137l32 -33l-26 -28c10.667 -8 22 -22.167 34 -42.5
s18 -44.5 18 -72.5s-5.16699 -53.167 -15.5 -75.5s-23.833 -41.333 -40.5 -57s-36 -27.834 -58 -36.501s-44.333 -13 -67 -13c-30 0 -57 5.16699 -81 15.5s-44.333 24 -61 41s-29.5 36.333 -38.5 58s-13.5 44.167 -13.5 67.5c0 18.667 3 35.334 9 50.001
s11 26.334 15 35.001c-4 0.666992 -11.667 2.66699 -23 6s-23 9.33301 -35 18s-22.5 21 -31.5 37s-13.5 37.333 -13.5 64c0 42.667 8 80.667 24 114s37 61.166 63 83.499s55.5 39.333 88.5 51s66.167 17.5 99.5 17.5c37.333 0 69.833 -4.66699 97.5 -14s51 -20 70 -32
s33.5 -23.667 43.5 -35s16 -19 18 -23l16.5 4c5.66699 1.33301 14.167 2 25.5 2c16.667 0 32.5 -3.16699 47.5 -9.5s27.833 -15.166 38.5 -26.499s19.167 -24.5 25.5 -39.5s9.5 -31.167 9.5 -48.5zM654.004 427.998c0 20.667 -6.83398 38.334 -20.501 53.001
s-31.167 22 -52.5 22c-24 0 -42.833 -7.66699 -56.5 -23s-20.5 -33.333 -20.5 -54s7.83301 -37.834 23.5 -51.501s33.834 -20.5 54.501 -20.5c24 0 42 7.5 54 22.5s18 32.167 18 51.5z" />
    <glyph glyph-name="uni0B1A" unicode="&#xb1a;" horiz-adv-x="710" 
d="M673 342c0 -21.333 -2.16016 -40.6719 -6.49316 -58.0049s-9.5 -32.666 -15.5 -45.999s-12 -24.666 -18 -33.999s-10.667 -17 -14 -23l-47 17c4 5.33301 8.66699 12.333 14 21s10.666 18.834 15.999 30.501s9.83301 24.834 13.5 39.501s5.5 31 5.5 49
c0 24 -4.83301 51.167 -14.5 81.5s-25.334 59.166 -47.001 86.499s-49.834 50.333 -84.501 69s-76.667 28 -126 28c-30 0 -60.5 -5.83301 -91.5 -17.5s-59 -27.334 -84 -47.001s-45.333 -42.667 -61 -69s-23.5 -54.166 -23.5 -83.499c0 -26.667 4.5 -50.667 13.5 -72
s19.667 -39.833 32 -55.5s25 -28.5 38 -38.5s23.5 -16.667 31.5 -20c14 30 33.5 54.167 58.5 72.5s53.167 27.5 84.5 27.5c20.667 0 40.334 -3.83301 59.001 -11.5s34.834 -18.334 48.501 -32.001s24.5 -29.667 32.5 -48s12 -37.833 12 -58.5
c0 -21.333 -4 -41.166 -12 -59.499s-18.833 -34.166 -32.5 -47.499s-29.834 -24 -48.501 -32s-38.334 -12 -59.001 -12c-20 0 -39 3.66699 -57 11s-33.667 17.5 -47 30.5s-24.333 28.833 -33 47.5s-13.334 39 -14.001 61c-4.66699 2 -15.667 7.66699 -33 17
s-35.333 23.333 -54 42s-35.334 42.334 -50.001 71.001s-22 63.334 -22 104.001c0 43.333 9.83301 81.666 29.5 114.999s44.667 61.5 75 84.5s63.666 40.333 99.999 52s71.166 17.5 104.499 17.5c46 0 88.833 -8.33301 128.5 -25s74.167 -39 103.5 -67
s52.5 -60.833 69.5 -98.5s25.5 -77.5 25.5 -119.5zM449.007 149.994c0 14 -2.66699 27 -8 39s-12.666 22.667 -21.999 32s-20.166 16.666 -32.499 21.999s-25.5 8 -39.5 8c-13.333 0 -26.166 -2.66699 -38.499 -8s-23 -12.666 -32 -21.999s-16.167 -20 -21.5 -32
s-8 -25 -8 -39s2.66699 -27 8 -39s12.5 -22.667 21.5 -32s19.667 -16.666 32 -21.999s25.166 -8 38.499 -8c14 0 27.167 2.66699 39.5 8s23.166 12.666 32.499 21.999s16.666 20 21.999 32s8 25 8 39z" />
    <glyph glyph-name="uni0B1B" unicode="&#xb1b;" horiz-adv-x="641" 
d="M556 403c0 -10 -0.661133 -20.8271 -1.99414 -32.4941l-4 -33.5l-42 21c1.33301 5.33301 2.66602 11.833 3.99902 19.5s2 15.167 2 22.5c0 29.333 -6.83301 56.5 -20.5 81.5s-31.334 46.833 -53.001 65.5s-46.334 33.167 -74.001 43.5s-55.5 15.5 -83.5 15.5
c-24 0 -47.833 -4.66699 -71.5 -14s-44.834 -22.5 -63.501 -39.5s-33.667 -37.333 -45 -61s-17 -49.834 -17 -78.501c0 -14 2.33301 -26 7 -36s10 -18.167 16 -24.5s12 -11.333 18 -15s10.667 -5.83398 14 -6.50098c2 4 6.16699 10.833 12.5 20.5s15 19.5 26 29.5
s24.333 18.667 40 26s33.834 11 54.501 11c30.667 0 55.834 -6.33301 75.501 -19s35 -27.5 46 -44.5s18.5 -34.333 22.5 -52s6 -31.5 6 -41.5c0 -16.667 -1.33301 -30.834 -4 -42.501s-5 -20.167 -7 -25.5c6 0 15 -0.833008 27 -2.5s23.667 -5.5 35 -11.5
s21.333 -14.833 30 -26.5s13 -27.5 13 -47.5s-3.33301 -37.167 -10 -51.5s-15.667 -26.333 -27 -36s-24.166 -16.834 -38.499 -21.501s-28.833 -7 -43.5 -7c-12 0 -24.333 2 -37 6s-24.834 8.83301 -36.501 14.5s-22 11.667 -31 18s-15.833 11.833 -20.5 16.5
c-4 -3.33301 -10.167 -8 -18.5 -14s-17.666 -11.833 -27.999 -17.5s-21.333 -10.667 -33 -15s-22.834 -6.5 -33.501 -6.5c-16 0 -31.333 2.5 -46 7.5s-27.834 12.167 -39.501 21.5s-20.834 20.333 -27.501 33s-10 27 -10 43c0 14 2.16699 25.667 6.5 35
s9.5 17.166 15.5 23.499s12.333 11.666 19 15.999s12.667 8.5 18 12.5c-16 10.667 -27.833 17.5 -35.5 20.5s-15.834 5.83301 -24.501 8.5l13 41l37 -10.5c13.333 -3.66699 28.666 -12.834 45.999 -27.501c-2 6.66699 -3.66699 13.667 -5 21s-2.33301 14.5 -3 21.5
s-1 13.333 -1 19v12.5c-4.66699 1.33301 -11.667 4.66602 -21 9.99902s-18.833 13.333 -28.5 24s-18.167 23.834 -25.5 39.501s-11 34.167 -11 55.5c0 32.667 6.5 63.167 19.5 91.5s30.5 52.833 52.5 73.5s47.5 36.834 76.5 48.501s59.833 17.5 92.5 17.5
c36.667 0 71.5 -6 104.5 -18s62.167 -28.833 87.5 -50.5s45.5 -47.5 60.5 -77.5s23.167 -63.333 24.5 -100zM375.006 260.006c0 14 -2.33105 27.667 -6.99805 41s-11.334 25.166 -20.001 35.499s-19 18.666 -31 24.999s-25.333 9.5 -40 9.5s-28.167 -3.16699 -40.5 -9.5
s-23 -14.666 -32 -24.999s-16.167 -22.166 -21.5 -35.499s-8 -27 -8 -41c0 -31.333 10 -56.5 30 -75.5s44.667 -28.5 74 -28.5s52.666 10 69.999 30s26 44.667 26 74zM459.008 100.006c0 14.667 -5.33301 25.167 -16 31.5s-22.334 9.5 -35.001 9.5
c-11.333 0 -22.666 -2.33301 -33.999 -7s-22 -10 -32 -16s-18.333 -11.833 -25 -17.5s-10.334 -9.16699 -11.001 -10.5c0.666992 -2 4.16699 -5.66699 10.5 -11s13.833 -10.833 22.5 -16.5s18.334 -10.667 29.001 -15s21 -6.5 31 -6.5c16 0 30 5 42 15s18 24.667 18 44z
M244.008 91.0059c-1.33301 2 -4.66699 6.33301 -10 13s-12.166 13.667 -20.499 21s-18 14 -29 20s-22.833 9 -35.5 9c-15.333 0 -28.833 -5 -40.5 -15s-17.5 -23 -17.5 -39c0 -18 6.5 -32 19.5 -42s27.833 -15 44.5 -15c11.333 0 22 2.16699 32 6.5s19 9.33301 27 15
s14.667 11 20 16s8.66602 8.5 9.99902 10.5z" />
    <glyph glyph-name="uni0B1C" unicode="&#xb1c;" horiz-adv-x="685" 
d="M647 338c0 -13.333 -2.49902 -27.667 -7.49902 -43s-8.16699 -28 -9.5 -38l-45 10l7.5 37c3 14.667 4.5 28 4.5 40c0 34.667 -7.16699 67.667 -21.5 99s-33.833 58.833 -58.5 82.5s-53.667 42.5 -87 56.5s-69 21 -107 21c-31.333 0 -61.166 -5.66699 -89.499 -17
s-53.166 -27 -74.499 -47s-38.333 -43.5 -51 -70.5s-19 -56.5 -19 -88.5c0 -21.333 2.66699 -39 8 -53s11.333 -25.167 18 -33.5s13.334 -14.333 20.001 -18s11.334 -5.83398 14.001 -6.50098l11.5 11c5 4.66699 11.5 9.33398 19.5 14.001s17.333 8.83398 28 12.501
s23 6.16699 37 7.5v-46h-6c-10.667 0 -21 -2.66699 -31 -8s-19 -13.166 -27 -23.499s-14.333 -22.833 -19 -37.5s-7 -31.334 -7 -50.001c0 -14 1.83301 -27.833 5.5 -41.5s9.33398 -25.667 17.001 -36s17 -18.666 28 -24.999s23.833 -9.5 38.5 -9.5
c11.333 0 21.166 1.83301 29.499 5.5s15.5 8.5 21.5 14.5s11 12.5 15 19.5s7 13.833 9 20.5c-17.333 13.333 -30 27.166 -38 41.499s-12 31.166 -12 50.499c0 22.667 4.83301 41.5 14.5 56.5s21.167 27 34.5 36s27.166 15.333 41.499 19s26.5 5.5 36.5 5.5
c30 0 54.167 -4.16699 72.5 -12.5s31.166 -14.833 38.499 -19.5v-274h-43v239c-2.66699 4 -7 7.33301 -13 10c-5.33301 2.66699 -12.333 5.16699 -21 7.5s-20.667 3.5 -36 3.5c-9.33301 0 -18.666 -1.5 -27.999 -4.5s-17.833 -7.5 -25.5 -13.5s-13.834 -13.667 -18.501 -23
s-7 -20.333 -7 -33c0 -18 5.66699 -31.5 17 -40.5s23.666 -15.167 36.999 -18.5c0 -9.33301 -1.33301 -21.833 -4 -37.5s-8.33398 -31 -17.001 -46s-21.334 -28 -38.001 -39s-38.667 -16.5 -66 -16.5c-21.333 0 -40.666 4.66699 -57.999 14s-32.166 21.666 -44.499 36.999
s-21.833 33 -28.5 53s-10 40.667 -10 62c0 14 1.16699 26.333 3.5 37s6.5 24 12.5 40c-12.667 10.667 -24 20.667 -34 30s-18.5 19.333 -25.5 30s-12.333 22.834 -16 36.501s-5.5 30.5 -5.5 50.5c0 38 7.66699 73.5 23 106.5s36 61.667 62 86s56.167 43.5 90.5 57.5
s70.833 21 109.5 21c45.333 0 87.666 -8 126.999 -24s73.666 -37.833 102.999 -65.5s52.333 -60.5 69 -98.5s25 -79 25 -123z" />
    <glyph glyph-name="uni0B1D" unicode="&#xb1d;" horiz-adv-x="669" 
d="M632 544c0 -26.667 -4.3291 -49.6699 -12.9961 -69.0029s-20 -35.333 -34 -48s-30 -22 -48 -28s-36.667 -9 -56 -9c-56 0 -96.5 15.333 -121.5 46s-37.5 70.334 -37.5 119.001c0 5.33301 0.166992 9.83301 0.5 13.5s0.5 6.83398 0.5 9.50098
c-21.333 -0.666992 -45.833 -3.5 -73.5 -8.5s-53.667 -15 -78 -30s-44.833 -36.167 -61.5 -63.5s-25 -63.333 -25 -108c0 -22 4.16699 -39.333 12.5 -52s18 -22.334 29 -29.001s21.833 -11 32.5 -13s18 -3.66699 22 -5c2 2 5.66699 5.16699 11 9.5s12.333 8.5 21 12.5
s18.334 7.5 29.001 10.5s22 4.5 34 4.5c21.333 0 41.5 -4 60.5 -12s35.5 -18.833 49.5 -32.5s25 -29.834 33 -48.501s12 -38.667 12 -60c0 -8 -0.666992 -15.667 -2 -23s-3 -15.666 -5 -24.999l144 -62l-24 -48l-150 62c-2 -5.33301 -6.16699 -11.5 -12.5 -18.5
s-14.333 -13.833 -24 -20.5s-21 -12.334 -34 -17.001s-27.5 -7 -43.5 -7c-23.333 0 -44.833 4.33301 -64.5 13s-36.834 20.334 -51.501 35.001s-26 31.667 -34 51s-12 40 -12 62c0 18.667 2.5 33.834 7.5 45.501s10.833 21.834 17.5 30.501c-6 2 -14.833 5.5 -26.5 10.5
s-23.334 12.833 -35.001 23.5s-21.834 24.667 -30.501 42s-13 39.333 -13 66c0 39.333 7.33301 74.333 22 105s35 56.667 61 78s56.5 37.666 91.5 48.999s72.5 17 112.5 17c22.667 0 37.667 -2 45 -6s12.666 -9.33301 15.999 -16
c-7.33301 -4 -12.666 -9.83301 -15.999 -17.5s-5 -22.167 -5 -43.5c0 -10.667 2 -22.167 6 -34.5s10.5 -23.833 19.5 -34.5s20.667 -19.5 35 -26.5s31.833 -10.5 52.5 -10.5c32 0 58.5 10.333 79.5 31s31.5 49 31.5 85c0 12.667 -2.66699 24.5 -8 35.5s-12 20.833 -20 29.5
s-16.667 15.834 -26 21.501s-18.333 9.83398 -27 12.501l15 41c9.33301 -4 20.166 -9.16699 32.499 -15.5s24.166 -15 35.499 -26s21 -24.833 29 -41.5s12 -37.334 12 -62.001zM375.004 154.997c-0.666992 28 -9.16504 52.001 -25.498 72.001s-40.833 30 -73.5 30
c-14 0 -27.5 -2.66699 -40.5 -8s-24.167 -12.833 -33.5 -22.5s-16.833 -20.834 -22.5 -33.501s-8.5 -26 -8.5 -40s2.16699 -27.667 6.5 -41s11 -25.166 20 -35.499s20 -18.5 33 -24.5s28.167 -9 45.5 -9c16 0 30.167 2.83301 42.5 8.5s22.666 13.167 30.999 22.5
s14.666 20.166 18.999 32.499s6.5 25.5 6.5 39.5v9z" />
    <glyph glyph-name="uni0B1E" unicode="&#xb1e;" horiz-adv-x="641" 
d="M576 208c0 -32 -6.50195 -61.332 -19.502 -87.999s-31 -49.5 -54 -68.5s-49.833 -33.833 -80.5 -44.5s-64 -16 -100 -16c-37.333 0 -73.166 6.33301 -107.499 19s-64.5 30.167 -90.5 52.5s-46.833 49.166 -62.5 80.499s-23.5 65.666 -23.5 102.999
c0 30 3.66699 56.5 11 79.5s21 48.167 41 75.5c-2 2.66699 -6 7.5 -12 14.5s-12 16 -18 27s-11.333 23.667 -16 38s-7 30.166 -7 47.499c0 14 1.33301 27 4 39s6 22.833 10 32.5s8.16699 18 12.5 25l10.5 16.5h43c-13.333 -19.333 -22.5 -37.166 -27.5 -53.499
s-7.5 -34.5 -7.5 -54.5c0 -30 6.83301 -55.833 20.5 -77.5s31.334 -39.334 53.001 -53.001s46.167 -23.667 73.5 -30s54.666 -9.5 81.999 -9.5c30.667 0 58.834 3.33301 84.501 10s47.667 16.334 66 29.001s32.5 27.834 42.5 45.501s15 37.5 15 59.5
c0 30 -6.33301 53.667 -19 71s-29 26 -49 26c-17.333 0 -31 -1.66699 -41 -5s-17.667 -7.5 -23 -12.5s-8.83301 -10.5 -10.5 -16.5s-2.5 -11.333 -2.5 -16v-83h-44v79c0 5.33301 -0.5 11 -1.5 17s-3.66699 11.333 -8 16s-11 8.5 -20 11.5s-21.167 4.5 -36.5 4.5
c-17.333 0 -32 -5.83301 -44 -17.5s-18 -26.167 -18 -43.5c0 -12 2.5 -22 7.5 -30s10.167 -15 15.5 -21l-33 -25c-11.333 10 -20.166 20.833 -26.499 32.5s-9.5 25.167 -9.5 40.5c0 14.667 2.83301 28.5 8.5 41.5s13.5 24.5 23.5 34.5s21.5 17.833 34.5 23.5
s26.833 8.5 41.5 8.5c16 0 30.667 -2.16699 44 -6.5s27.666 -12.166 42.999 -23.499c15.333 14 29.833 23.333 43.5 28s29.5 7 47.5 7c41.333 0 72.333 -12.333 93 -37s31 -55.334 31 -92.001c0 -28 -5.83301 -55.167 -17.5 -81.5s-28.167 -47.5 -49.5 -63.5
c26 -14 45.333 -34.167 58 -60.5s19 -61.5 19 -105.5zM528.998 216.001c0 38.667 -6.83496 68.5049 -20.502 89.5049s-33.834 31.5 -60.501 31.5c-14.667 0 -27.167 -1.83301 -37.5 -5.5s-18.666 -8 -24.999 -13s-10.833 -9.83301 -13.5 -14.5s-4 -8.33398 -4 -11.001v-106
h-45v96l-2 6c-1.33301 4 -4.16602 8.33301 -8.49902 13s-10.666 8.83398 -18.999 12.501s-19.5 5.5 -33.5 5.5c-18.667 0 -33.834 -6.16699 -45.501 -18.5s-17.5 -27.5 -17.5 -45.5c0 -18.667 4.5 -33.334 13.5 -44.001s18.5 -18.334 28.5 -23.001l-32 -29
c-4 2 -9.16699 5.16699 -15.5 9.5s-12.5 10.166 -18.5 17.499s-11.167 16.666 -15.5 27.999s-6.5 25 -6.5 41c0 21.333 3.83301 38.166 11.5 50.499s14.5 21.166 20.5 26.499l-61 40l-11 -17c-4.66699 -7.33301 -9.16699 -16.333 -13.5 -27s-8 -23 -11 -37
s-4.5 -29.667 -4.5 -47c0 -29.333 7 -56.666 21 -81.999s32.5 -47.333 55.5 -66s49 -33.5 78 -44.5s58.833 -16.5 89.5 -16.5s58.5 4.5 83.5 13.5s46.333 21.5 64 37.5s31.334 35 41.001 57s14.5 46 14.5 72z" />
    <glyph glyph-name="uni0B1F" unicode="&#xb1f;" horiz-adv-x="653" 
d="M555 314l0.00292969 193.996c-4 5.33301 -10.333 12.833 -19 22.5s-21.667 19.167 -39 28.5s-39.666 17.5 -66.999 24.5s-61.333 10.5 -102 10.5c-32 0 -62.5 -3.83301 -91.5 -11.5s-54.667 -18.834 -77 -33.501s-40 -32.667 -53 -54s-19.5 -45.666 -19.5 -72.999
c0 -22.667 5.33301 -43.334 16 -62.001s23.167 -34.667 37.5 -48s28.666 -23.833 42.999 -31.5s25.166 -11.834 32.499 -12.501c6 4 16.667 10.333 32 19s36.666 13 63.999 13c20 0 39 -3.83301 57 -11.5s33.833 -18.167 47.5 -31.5s24.5 -29.166 32.5 -47.499
s12 -38.5 12 -60.5c0 -21.333 -4 -41.166 -12 -59.499s-18.833 -34.166 -32.5 -47.499s-29.5 -23.833 -47.5 -31.5s-37 -11.5 -57 -11.5c-22.667 0 -43.334 4.16699 -62.001 12.5s-34.667 19.666 -48 33.999s-23.666 31 -30.999 50s-11 39.5 -11 61.5
c0 11.333 1.66699 23.5 5 36.5s7.66602 24.5 12.999 34.5c-6 2.66699 -16.667 8.33398 -32 17.001s-31 20.667 -47 36s-30.333 34.5 -43 57.5s-19 50.5 -19 82.5c0 42 9.83301 77.167 29.5 105.5s44 51.333 73 69s60 30.334 93 38.001s62.833 11.5 89.5 11.5
c40 0 73.833 -3.16699 101.5 -9.5s50.5 -13.666 68.5 -21.999s31.833 -16.666 41.5 -24.999l20.5 -17.5l1 71h45v-328h-45zM412.003 150.996c0 14 -2.83496 27.1689 -8.50195 39.502s-13.167 23 -22.5 32s-20.166 16 -32.499 21s-25.5 7.5 -39.5 7.5
c-12 0 -24 -2.33301 -36 -7s-22.667 -11.5 -32 -20.5s-17 -19.667 -23 -32s-9 -26.5 -9 -42.5c0 -12 2.16699 -24 6.5 -36s10.833 -22.667 19.5 -32s18.834 -17 30.501 -23s25.167 -9 40.5 -9c16.667 0 31.667 2.83301 45 8.5s24.5 13.167 33.5 22.5
s15.833 20.166 20.5 32.499s7 25.166 7 38.499z" />
    <glyph glyph-name="uni0B20" unicode="&#xb20;" horiz-adv-x="679" 
d="M606 325c0 -42.667 -6.83398 -84.167 -20.501 -124.5s-33.167 -76 -58.5 -107s-55.666 -55.833 -90.999 -74.5s-74.333 -28 -117 -28s-81.334 9.5 -116.001 28.5s-64.334 44.167 -89.001 75.5s-43.667 67 -57 107s-20 81 -20 123c0 41.333 6.83301 81.5 20.5 120.5
s32.834 73.5 57.501 103.5s54.334 54.167 89.001 72.5s73 27.5 115 27.5s80.5 -9 115.5 -27s65 -42 90 -72s44.667 -64.5 59 -103.5s21.833 -79.5 22.5 -121.5zM557.999 325c0 36 -5.66992 71.167 -17.0029 105.5s-27.166 64.833 -47.499 91.5s-45.166 48 -74.499 64
s-62 24 -98 24c-36.667 0 -69.5 -8 -98.5 -24s-53.667 -37.333 -74 -64s-36 -57 -47 -91s-16.5 -69.333 -16.5 -106c0 -36 5.33301 -71.167 16 -105.5s26 -64.833 46 -91.5s44.333 -48.167 73 -64.5s61 -24.5 97 -24.5c36.667 0 69.834 8 99.501 24s55 37.333 76 64
s37.167 57.167 48.5 91.5s17 69.833 17 106.5z" />
    <glyph glyph-name="uni0B21" unicode="&#xb21;" horiz-adv-x="663" 
d="M626 347c0 -28.667 -4.16699 -51.3311 -12.5 -67.998s-16.166 -29 -23.499 -37l-39 25c3.33301 6.66699 8.5 16 15.5 28s10.5 29.667 10.5 53c0 37.333 -6.5 71.666 -19.5 102.999s-31 58.166 -54 80.499s-50.333 39.833 -82 52.5s-65.834 19 -102.501 19
c-34 0 -65.167 -6.66699 -93.5 -20s-52.833 -30.5 -73.5 -51.5s-36.667 -44.5 -48 -70.5s-17 -51.333 -17 -76c0 -21.333 3.83301 -38.333 11.5 -51s16.5 -22.5 26.5 -29.5s19.5 -11.667 28.5 -14s14.833 -3.5 17.5 -3.5l14.5 14.5c7.66699 7.66699 17.334 15.667 29.001 24
s24.667 16.333 39 24s29.166 12.834 44.499 15.501l35 -34c-13.333 -4 -28.666 -10 -45.999 -18s-33.5 -18.833 -48.5 -32.5s-27.667 -30 -38 -49s-15.5 -40.833 -15.5 -65.5c0 -18 3.66699 -34.5 11 -49.5s17.166 -28.167 29.499 -39.5s26.666 -20.166 42.999 -26.499
s33.5 -9.5 51.5 -9.5c19.333 0 37.166 3.5 53.499 10.5s30.5 16.333 42.5 28s21.333 25.5 28 41.5s10 33 10 51c0 15.333 -4 30.166 -12 44.499s-16.333 26.166 -25 35.499l-71 -75l-41 35l154 155l37 -37l-46 -43c4 -3.33301 9 -8.5 15 -15.5s12 -15.5 18 -25.5
s11 -21.167 15 -33.5s6 -25.5 6 -39.5c0 -28 -5 -53.167 -15 -75.5s-23.5 -41.333 -40.5 -57s-36.5 -27.834 -58.5 -36.501s-44.667 -13 -68 -13c-30 0 -57 5.16699 -81 15.5s-44.333 24 -61 41s-29.5 36.333 -38.5 58s-13.5 44.167 -13.5 67.5c0 18 1.83301 32 5.5 42
s7.16699 18.667 10.5 26c-7.33301 1.33301 -17 4.33301 -29 9s-23.667 12.334 -35 23.001s-21.333 24.834 -30 42.501s-13 40.167 -13 67.5c0 40.667 8.83301 77.667 26.5 111s40.334 61.666 68.001 84.999s58.667 41.333 93 54s68.166 19 101.499 19
c42.667 0 82.334 -7.5 119.001 -22.5s68.334 -36 95.001 -63s47.667 -59.167 63 -96.5s23 -78.333 23 -123z" />
    <glyph glyph-name="uni0B22" unicode="&#xb22;" horiz-adv-x="679" 
d="M642 349c0 -13.333 -1.50293 -25.3311 -4.50293 -35.998s-7.16699 -22 -12.5 -34l-38 17l7 26.5c2 7.66699 3 16.167 3 25.5c0 34.667 -6.83301 67.167 -20.5 97.5s-33.167 57 -58.5 80s-56 41.167 -92 54.5s-76.667 20 -122 20c-28 0 -55 -6.16699 -81 -18.5
s-49.333 -28.833 -70 -49.5s-37.167 -44.167 -49.5 -70.5s-18.5 -53.833 -18.5 -82.5c0 -14 3 -26.333 9 -37s13 -19.667 21 -27s15.833 -13.166 23.5 -17.499s13.167 -6.83301 16.5 -7.5c2 2 5.5 6.16699 10.5 12.5s11.333 13.5 19 21.5s16.5 16 26.5 24s21 15 33 21
l36 -33c-8.66699 -5.33301 -19.5 -12.666 -32.5 -21.999s-25.667 -21 -38 -35s-22.833 -30 -31.5 -48s-13 -38.333 -13 -61c0 -20 3.83301 -38.167 11.5 -54.5s17.5 -30.333 29.5 -42s25.833 -20.5 41.5 -26.5s31.5 -9 47.5 -9c2.66699 0 5.33398 0.166992 8.00098 0.5
s6.33398 1.16602 11.001 2.49902c-1.33301 4.66699 -3.5 11.667 -6.5 21s-6 19.666 -9 30.999s-5.66699 23 -8 35s-3.5 22.667 -3.5 32c0 20 2.83301 39 8.5 57s13.667 33.667 24 47s23 24 38 32s31.833 12 50.5 12c36.667 0 65.5 -11.167 86.5 -33.5
s31.5 -50.166 31.5 -83.499c0 -25.333 -5 -48.5 -15 -69.5s-22.167 -39.167 -36.5 -54.5s-29.166 -27.833 -44.499 -37.5s-28 -15.834 -38 -18.501l29 -21c6.66699 -4.66699 12.167 -8.16699 16.5 -10.5s8.33301 -4.16602 12 -5.49902s8.5 -3.33301 14.5 -6l-29 -36
c-16.667 7.33301 -33.5 17.166 -50.5 29.499s-29.5 23.833 -37.5 34.5c-4 -1.33301 -10.5 -2.83301 -19.5 -4.5s-20.167 -2.5 -33.5 -2.5c-31.333 0 -58 6.16699 -80 18.5s-40.333 27.833 -55 46.5s-25.334 38.5 -32.001 59.5s-10 40.5 -10 58.5s1.33301 33 4 45
s5.66699 22 9 30c-4.66699 2 -12.167 5.66699 -22.5 11s-20.666 13.166 -30.999 23.499s-19.5 23.666 -27.5 39.999s-12 36.833 -12 61.5c0 42.667 8.33301 80.667 25 114s38.167 61.166 64.5 83.499s55.833 39.333 88.5 51s65 17.5 97 17.5c44.667 0 87 -7.16699 127 -21.5
s75 -34.666 105 -60.999s53.833 -58 71.5 -95s26.5 -77.833 26.5 -122.5zM480.997 192.002c0 18 -5.66406 33.833 -16.9971 47.5s-29 20.5 -53 20.5c-10.667 0 -20.5 -2.83301 -29.5 -8.5s-16.833 -13 -23.5 -22s-11.834 -19 -15.501 -30s-5.5 -21.833 -5.5 -32.5
c0 -11.333 0.666992 -23.166 2 -35.499s3.16602 -24.166 5.49902 -35.499s5.16602 -21.333 8.49902 -30s7.33301 -14.334 12 -17.001c5.33301 1.33301 14.5 5.16602 27.5 11.499s26 15.5 39 27.5s24.5 26.667 34.5 44s15 37.333 15 60z" />
    <glyph glyph-name="uni0B23" unicode="&#xb23;" horiz-adv-x="638" 
d="M556 0l-0.00292969 495.996c0 0.666992 -5.33301 6.5 -16 17.5s-25.167 23 -43.5 36s-39.833 24.833 -64.5 35.5s-50.667 16 -78 16c-14.667 0 -26.834 -3.66699 -36.501 -11s-17.334 -16.666 -23.001 -27.999s-9.66699 -23.833 -12 -37.5s-3.5 -26.5 -3.5 -38.5
c0 -6.66699 1.66699 -12.667 5 -18s7.33301 -10 12 -14s9.33398 -7.66699 14.001 -11s8.33398 -6.33301 11.001 -9l49 -29l-32 -36l-107 68c-1.33301 0 -5.66602 -0.666992 -12.999 -2s-16.166 -3.83301 -26.499 -7.5s-21 -8.33398 -32 -14.001
s-20.833 -12.834 -29.5 -21.501c-8.66699 -9.33301 -15.667 -19.5 -21 -30.5s-9.33301 -21.833 -12 -32.5s-4.5 -20.5 -5.5 -29.5s-1.5 -16.167 -1.5 -21.5c10.667 2.66699 25.834 5.83398 45.501 9.50098s37.5 5.5 53.5 5.5c74 -2 130.5 -17.667 169.5 -47
s58.5 -69 58.5 -119c0 -15.333 -2.5 -31 -7.5 -47s-13.333 -30.333 -25 -43s-26.667 -23 -45 -31s-40.5 -12 -66.5 -12c-32 0 -62.333 9 -91 27s-53.667 40.833 -75 68.5s-38.166 57.5 -50.499 89.5s-18.5 62 -18.5 90c0 32 4.16699 59.5 12.5 82.5s19 42.333 32 58
s27.333 28.334 43 38.001s30.667 17.334 45 23.001s27.333 9.33398 39 11.001s20.167 2.83398 25.5 3.50098v13c0 10.667 1.16699 24.5 3.5 41.5s7.5 33.667 15.5 50s20.167 30.333 36.5 42s38.5 17.5 66.5 17.5c21.333 0 42.666 -3.5 63.999 -10.5s41 -15.167 59 -24.5
s33.667 -18.5 47 -27.5s23 -15.833 29 -20.5v75h45v-641h-45zM364.997 139.996c-1.33301 16.667 -7.00293 31.332 -17.0029 43.999s-23 23.334 -39 32.001s-34 15.167 -54 19.5s-41 6.5 -63 6.5c-8 0 -16.833 -0.5 -26.5 -1.5s-19 -2.33301 -28 -4
s-17.5 -3.16699 -25.5 -4.5s-14.333 -2.33301 -19 -3c0.666992 -4 2.66699 -11.5 6 -22.5s8.33301 -23.333 15 -37s14.834 -28 24.501 -43s21.167 -28.667 34.5 -41s28.833 -22.5 46.5 -30.5s37.834 -12 60.501 -12c16 0 29.333 2.5 40 7.5s19.334 11.5 26.001 19.5
s11.5 17 14.5 27s4.5 20.333 4.5 31v12z" />
    <glyph glyph-name="uni0B24" unicode="&#xb24;" horiz-adv-x="665" 
d="M629 385c0 -22 -2.33008 -41.833 -6.99707 -59.5s-9.33398 -31.167 -14.001 -40.5l-41 29c4.66699 8 8.66699 16.333 12 25s5 22.334 5 41.001c0 29.333 -7.16699 57.5 -21.5 84.5s-34 50.667 -59 71s-54.5 36.666 -88.5 48.999s-70.667 18.5 -110 18.5
c-28 0 -55.167 -5.66699 -81.5 -17s-49.666 -27 -69.999 -47s-36.666 -43.5 -48.999 -70.5s-18.5 -56.5 -18.5 -88.5c0 -14 2.16699 -26.167 6.5 -36.5s10 -19.5 17 -27.5s14.833 -14.667 23.5 -20s17.334 -9.33301 26.001 -12c6.66699 12.667 15.167 24.5 25.5 35.5
s20.166 20.5 29.499 28.5c11.333 9.33301 22.666 17.666 33.999 24.999l36 -36l-31 -27c-12.667 -11.333 -25.334 -24.166 -38.001 -38.499s-23.5 -29.666 -32.5 -45.999s-13.5 -32.833 -13.5 -49.5c0 -20 3.83301 -38.333 11.5 -55s17.667 -31 30 -43
s26.666 -21.5 42.999 -28.5s33.5 -10.5 51.5 -10.5c24 0 46.167 3.5 66.5 10.5s37.833 16.5 52.5 28.5s26.167 26.333 34.5 43s12.5 34.667 12.5 54c0 4 -0.5 8.83301 -1.5 14.5s-4.16699 12.167 -9.5 19.5c-10 -4.66699 -21 -7 -33 -7c-18 0 -33.833 5.83301 -47.5 17.5
s-20.5 25.5 -20.5 41.5c0 17.333 6.5 32 19.5 44s28.167 18 45.5 18c15.333 0 29.333 -3.66699 42 -11s23.5 -17.5 32.5 -30.5s15.833 -28.5 20.5 -46.5s7 -37.333 7 -58c0 -30.667 -7 -57.5 -21 -80.5s-31.5 -42.333 -52.5 -58s-44.333 -27.5 -70 -35.5
s-49.834 -12 -72.501 -12c-30 0 -57 5.16699 -81 15.5s-44.333 24 -61 41s-29.5 36.333 -38.5 58s-13.5 44.167 -13.5 67.5c0 11.333 1.66699 23 5 35s8.66602 24.667 15.999 38c-9.33301 2.66699 -19.666 7 -30.999 13s-22.166 14.167 -32.499 24.5s-19 23.5 -26 39.5
s-10.5 36 -10.5 60c0 42.667 8.33301 80.667 25 114s38.5 61.166 65.5 83.499s57 39.333 90 51s66.167 17.5 99.5 17.5c38.667 0 76.667 -6.5 114 -19.5s70.666 -31.333 99.999 -55s53 -51.667 71 -84s27 -67.5 27 -105.5z" />
    <glyph glyph-name="uni0B25" unicode="&#xb25;" horiz-adv-x="630" 
d="M523 0l0.00488281 111.999c-12 -13.333 -26.167 -26.666 -42.5 -39.999s-34.833 -25.333 -55.5 -36s-43.334 -19.334 -68.001 -26.001s-51.334 -10 -80.001 -10c-26.667 0 -54.167 4.66699 -82.5 14s-54.166 22.666 -77.499 39.999s-42.5 38.333 -57.5 63
s-22.5 52.334 -22.5 83.001c0 36 9.16699 64.167 27.5 84.5s41.166 36.5 68.499 48.5s57.166 21.833 89.499 29.5s62.166 16.667 89.499 27s50.166 24.166 68.499 41.499s27.5 41.666 27.5 72.999c0 12.667 -2.5 25.167 -7.5 37.5s-12 23.5 -21 33.5s-20.333 18 -34 24
s-28.834 9 -45.501 9c-10.667 0 -22.167 -2.16699 -34.5 -6.5s-23.833 -10.833 -34.5 -19.5s-19.5 -19.334 -26.5 -32.001s-10.5 -27.334 -10.5 -44.001c0 -15.333 2.83301 -28.666 8.5 -39.999s11.167 -20.666 16.5 -27.999l-36 -16
c-7.33301 8 -14.166 18.833 -20.499 32.5s-9.5 30.834 -9.5 51.501s4 39.5 12 56.5s18.667 31.833 32 44.5s28.666 22.5 45.999 29.5s35.666 10.5 54.999 10.5c22 0 42 -4 60 -12s33.5 -18.667 46.5 -32s23.167 -28.833 30.5 -46.5s11 -35.834 11 -54.501
c0 -28 -5.16699 -51.167 -15.5 -69.5s-24.166 -33.666 -41.499 -45.999s-36.833 -22.333 -58.5 -30s-44 -14.834 -67 -21.501l-67 -20c-21.667 -6.66699 -41.167 -15.167 -58.5 -25.5s-31.166 -23.333 -41.499 -39s-15.5 -35.5 -15.5 -59.5
c0 -23.333 6.83301 -44.166 20.5 -62.499s30.667 -33.833 51 -46.5s42 -22.167 65 -28.5s43.833 -9.5 62.5 -9.5c28.667 0 56.667 4.83301 84 14.5s52 22.334 74 38.001s40.667 33.334 56 53.001s25 39.167 29 58.5v434h45v-642h-45z" />
    <glyph glyph-name="uni0B26" unicode="&#xb26;" horiz-adv-x="667" 
d="M619 353c0 -32.667 -3.83301 -60.0029 -11.5 -82.0029s-14.5 -38.667 -20.5 -50l-46 23c1.33301 2 3.66602 5.16699 6.99902 9.5s6.66602 10.666 9.99902 18.999s6.33301 19 9 32s4 28.833 4 47.5c0 34.667 -6.33301 67.167 -19 97.5s-30.5 57 -53.5 80
s-50.667 41.167 -83 54.5s-67.833 20 -106.5 20c-27.333 0 -54.333 -5.66699 -81 -17s-50.5 -26.666 -71.5 -45.999s-38 -42 -51 -68s-19.5 -54 -19.5 -84c0 -18.667 3.33301 -34.5 10 -47.5s14.5 -23.833 23.5 -32.5s17.833 -15.5 26.5 -20.5s15.334 -8.5 20.001 -10.5
l17 17c8 8 16 14.333 24 19c12.667 6 25.334 11.167 38.001 15.5s23.667 7.5 33 9.5l22 -46c-9.33301 -2 -20.666 -5.33301 -33.999 -10s-26.166 -11.334 -38.499 -20.001s-22.833 -19.5 -31.5 -32.5s-13 -29.5 -13 -49.5c0 -13.333 2.66699 -25.666 8 -36.999
s12.5 -21.5 21.5 -30.5s19.5 -16 31.5 -21s25 -7.5 39 -7.5c21.333 0 39.5 4.33301 54.5 13s27.167 18.334 36.5 29.001s16.166 20.5 20.499 29.5l6.5 13.5v152h47v-322h-47v86c-5.33301 -3.33301 -11.666 -7.66602 -18.999 -12.999s-16 -10.5 -26 -15.5
s-21.5 -9.5 -34.5 -13.5s-27.833 -6 -44.5 -6c-26.667 0 -49 5.33301 -67 16s-32.333 23.834 -43 39.501s-18.334 31.834 -23.001 48.501s-7 31 -7 43c0 9.33301 1.33301 19.166 4 29.499s5 17.5 7 21.5c-33.333 14 -60 34 -80 60s-30 59 -30 99c0 36 7.5 69.333 22.5 100
s35 57.5 60 80.5s54 41 87 54s67.5 19.5 103.5 19.5c41.333 0 80.666 -7 117.999 -21s70 -34 98 -60s50.333 -57.167 67 -93.5s25 -76.833 25 -121.5z" />
    <glyph glyph-name="uni0B27" unicode="&#xb27;" horiz-adv-x="605" 
d="M498 0l0.00292969 86.001c-6 -6.66699 -14.5 -15.167 -25.5 -25.5s-24.833 -20.5 -41.5 -30.5s-36.334 -18.5 -59.001 -25.5s-48.667 -10.5 -78 -10.5c-30.667 0 -61.334 5 -92.001 15s-58.167 25.167 -82.5 45.5s-44.166 45.666 -59.499 75.999s-23 65.833 -23 106.5
c0 30 5.83301 56.5 17.5 79.5s25.167 42.333 40.5 58s31 28 47 37s28 14.833 36 17.5c8 2 16.333 3.83301 25 5.5s15.667 2.5 21 2.5l-177 205h59l252 -304l-28 -27l-52 60c-6 6 -11.833 10.167 -17.5 12.5s-16.5 3.5 -32.5 3.5c-16.667 0 -33.334 -3.83301 -50.001 -11.5
s-31.834 -18.167 -45.501 -31.5s-24.834 -29.333 -33.501 -48s-13 -39 -13 -61c0 -36 6.33301 -66.333 19 -91s29.334 -44.5 50.001 -59.5s44 -25.667 70 -32s52.667 -9.5 80 -9.5c29.333 0 56 5.5 80 16.5s44.333 25.5 61 43.5s29.5 38 38.5 60s13.5 44 13.5 66v413h46
v-642h-46z" />
    <glyph glyph-name="uni0B28" unicode="&#xb28;" horiz-adv-x="685" 
d="M648 369c0 -25.333 -3.66699 -47.8428 -11 -67.5098s-16.333 -36.667 -27 -51s-21.5 -26.166 -32.5 -35.499s-20.167 -16.333 -27.5 -21l-28 37c-0.666992 0 3 2.66699 11 8s16.833 13.5 26.5 24.5s18.5 24.833 26.5 41.5s12 36.667 12 60
c0 34.667 -7.16699 66.167 -21.5 94.5s-33.333 52.5 -57 72.5s-50.667 35.5 -81 46.5s-61.833 16.5 -94.5 16.5c-29.333 0 -59.166 -5.5 -89.499 -16.5s-57.833 -26.333 -82.5 -46s-45 -43.167 -61 -70.5s-24 -57.666 -24 -90.999c0 -25.333 4.5 -46.333 13.5 -63
s19.333 -30.167 31 -40.5s23.167 -18 34.5 -23s19.666 -8.5 24.999 -10.5c4 4.66699 11.5 11.334 22.5 20.001s24.333 17.334 40 26.001s33.167 16.167 52.5 22.5s39.666 9.5 60.999 9.5c25.333 0 42.833 -1.83301 52.5 -5.5s14.5 -5.83398 14.5 -6.50098v-302h-45v259h-6
c-2 0 -4.16699 0.166992 -6.5 0.5s-5.16602 0.5 -8.49902 0.5c-7.33301 0 -16.166 -0.666992 -26.499 -2s-21.333 -3.66602 -33 -6.99902s-23.334 -8.16602 -35.001 -14.499s-22.834 -14.833 -33.501 -25.5c-12 -12 -21.667 -24 -29 -36s-13 -23.333 -17 -34
s-6.66699 -20.167 -8 -28.5s-2.33301 -15.166 -3 -20.499c4.66699 0 10.834 -0.333008 18.501 -1s15.334 -2.5 23.001 -5.5s14.167 -7.66699 19.5 -14s8 -15.166 8 -26.499c0 -19.333 -5.16699 -33.166 -15.5 -41.499s-23.5 -12.5 -39.5 -12.5c-12 0 -22.5 3 -31.5 9
s-16.333 14 -22 24s-9.83398 21.5 -12.501 34.5s-4 26.167 -4 39.5c0 20.667 4.16699 40 12.5 58s15.5 30.667 21.5 38c-5.33301 2.66699 -14.833 7.83398 -28.5 15.501s-27.5 18.334 -41.5 32.001s-26.333 31.167 -37 52.5s-16 47.666 -16 78.999
c0 38.667 8.66699 74.5 26 107.5s40.5 61.667 69.5 86s62 43.333 99 57s75.5 20.5 115.5 20.5c37.333 0 74 -7 110 -21s68 -33.167 96 -57.5s50.667 -53.166 68 -86.499s26 -69.333 26 -108z" />
    <glyph glyph-name="uni0B2A" unicode="&#xb2a;" horiz-adv-x="668" 
d="M561 0l-0.00195312 108.006c-5.33301 -6.66699 -13.666 -15.834 -24.999 -27.501s-25.666 -23.334 -42.999 -35.001s-37.333 -21.834 -60 -30.501s-47.667 -13 -75 -13c-35.333 0 -67.166 5.33301 -95.499 16s-52.333 24.5 -72 41.5s-34.834 36.167 -45.501 57.5
s-16 42.666 -16 63.999c0 15.333 2.16699 30.166 6.5 44.499s7.83301 24.166 10.5 29.499c-12.667 3.33301 -25.5 8 -38.5 14s-24.667 14.5 -35 25.5s-18.833 25.5 -25.5 43.5s-10 41 -10 69c0 38 7.33301 71.833 22 101.5s34.667 55 60 76s54.833 37 88.5 48
s69.5 16.5 107.5 16.5c32.667 0 62.834 -5 90.501 -15s52.167 -21.667 73.5 -35s39.166 -26.5 53.499 -39.5s24.5 -22.833 30.5 -29.5v112h43v-642h-45zM560.998 451.006c0 2.66699 -5.66602 12.1689 -16.999 28.502s-27.666 33.833 -48.999 52.5s-47 35.5 -77 50.5
s-63.667 22.5 -101 22.5s-70.5 -5.66699 -99.5 -17s-53.667 -26.333 -74 -45s-35.833 -40 -46.5 -64s-16 -48.667 -16 -74s4.66699 -45.666 14 -60.999s19.833 -27 31.5 -35s22.834 -13.333 33.501 -16s17.667 -4 21 -4c2.66699 5.33301 7 9.66602 13 12.999
s12.167 5.83301 18.5 7.5s12.666 2.83398 18.999 3.50098s11.166 1 14.499 1l31 -31c-12 -2 -23.667 -5.83301 -35 -11.5s-21.666 -12.834 -30.999 -21.501s-16.833 -18.334 -22.5 -29.001s-8.5 -22.334 -8.5 -35.001c0 -15.333 3.5 -31.333 10.5 -48s17.667 -32 32 -46
s32.166 -25.667 53.499 -35s46.333 -14 75 -14s55.5 6 80.5 18s46.833 25.833 65.5 41.5s33.667 31.5 45 47.5s17.666 28 18.999 36v265z" />
    <glyph glyph-name="uni0B2B" unicode="&#xb2b;" horiz-adv-x="691" 
d="M561 0l-0.00195312 108.006c-5.33301 -6.66699 -13.666 -15.834 -24.999 -27.501s-25.666 -23.334 -42.999 -35.001s-37.333 -21.834 -60 -30.501s-47.667 -13 -75 -13c-35.333 0 -67.166 5.33301 -95.499 16s-52.333 24.5 -72 41.5s-34.834 36.167 -45.501 57.5
s-16 42.666 -16 63.999c0 15.333 2.16699 30.166 6.5 44.499s7.83301 24.166 10.5 29.499c-12.667 3.33301 -25.5 8 -38.5 14s-24.667 14.5 -35 25.5s-18.833 25.5 -25.5 43.5s-10 41 -10 69c0 38 7.33301 71.833 22 101.5s34.667 55 60 76s54.833 37 88.5 48
s69.5 16.5 107.5 16.5c32.667 0 62.834 -5 90.501 -15s52.167 -21.667 73.5 -35s39.166 -26.5 53.499 -39.5s24.5 -22.833 30.5 -29.5v112h43v-26c13.333 11.333 29 17 47 17c21.333 0 39.666 -7 54.999 -21s23 -31.333 23 -52s-7.66699 -38.167 -23 -52.5
s-33.666 -21.5 -54.999 -21.5c-8.66699 0 -17 1.5 -25 4.5s-15.333 7.16699 -22 12.5v-503h-45zM560.998 451.006c0 2.66699 -5.66602 12.1689 -16.999 28.502s-27.666 33.833 -48.999 52.5s-47 35.5 -77 50.5s-63.667 22.5 -101 22.5s-70.5 -5.66699 -99.5 -17
s-53.667 -26.333 -74 -45s-35.833 -40 -46.5 -64s-16 -48.667 -16 -74s4.66699 -45.666 14 -60.999s19.833 -27 31.5 -35s22.834 -13.333 33.501 -16s17.667 -4 21 -4c2.66699 5.33301 7 9.66602 13 12.999s12.167 5.83301 18.5 7.5s12.666 2.83398 18.999 3.50098
s11.166 1 14.499 1l31 -31c-12 -2 -23.667 -5.83301 -35 -11.5s-21.666 -12.834 -30.999 -21.501s-16.833 -18.334 -22.5 -29.001s-8.5 -22.334 -8.5 -35.001c0 -15.333 3.5 -31.333 10.5 -48s17.667 -32 32 -46s32.166 -25.667 53.499 -35s46.333 -14 75 -14
s55.5 6 80.5 18s46.833 25.833 65.5 41.5s33.667 31.5 45 47.5s17.666 28 18.999 36v265zM699.999 560.008c0 12 -4.5 22.5 -13.5 31.5s-20.167 13.5 -33.5 13.5c-10 0 -18.833 -2.83301 -26.5 -8.5s-12.834 -13.167 -15.501 -22.5v-28
c2.66699 -9.33301 7.83398 -17 15.501 -23s16.5 -9 26.5 -9c13.333 0 24.5 4.66699 33.5 14s13.5 20 13.5 32z" />
    <glyph glyph-name="uni0B2C" unicode="&#xb2c;" horiz-adv-x="662" 
d="M624 342c-1.33301 -30 -5.16797 -54.6689 -11.501 -74.002s-12.166 -34.333 -17.499 -45l-46 17l7 22c2.66699 8.66699 5.16699 18.167 7.5 28.5s4.33301 20.833 6 31.5s2.5 20.667 2.5 30c0 24 -4.16699 50.5 -12.5 79.5s-22.166 56.333 -41.499 82
s-44.666 47 -75.999 64s-70 25.5 -116 25.5c-30 0 -59.167 -5.66699 -87.5 -17s-53.833 -26.666 -76.5 -45.999s-40.834 -42.333 -54.501 -69s-20.5 -55 -20.5 -85c0 -22 3.66699 -41.333 11 -58s16.166 -31 26.499 -43s21.333 -22 33 -30s22.167 -14.333 31.5 -19
c14.667 28.667 33.5 50.834 56.5 66.501s48.5 23.5 76.5 23.5c20 0 38.833 -3.66699 56.5 -11s33.334 -17.5 47.001 -30.5s24.334 -28.333 32.001 -46s11.5 -36.5 11.5 -56.5v-188h-46v83c-19.333 -14.667 -36.833 -24.834 -52.5 -30.501s-31.834 -8.5 -48.501 -8.5
c-19.333 0 -37.333 3.5 -54 10.5s-31.5 16.667 -44.5 29s-23.5 27.166 -31.5 44.499s-12.667 36 -14 56l-12 8c-24.667 12 -46.334 27 -65.001 45c-16 15.333 -30.667 35.5 -44 60.5s-20 55.5 -20 91.5c0 42.667 9.16699 80.834 27.5 114.501s41.5 61.834 69.5 84.501
s58.667 40 92 52s65 18 95 18c46 0 87.5 -8.33301 124.5 -25s68.833 -39 95.5 -67s47.167 -60.833 61.5 -98.5s21.5 -77.5 21.5 -119.5zM418.998 181.998c0 13.333 -2.5 25.833 -7.5 37.5s-12 21.834 -21 30.501s-19.333 15.5 -31 20.5s-24.167 7.5 -37.5 7.5
c-12.667 0 -24.667 -2.5 -36 -7.5s-21.333 -11.833 -30 -20.5s-15.5 -18.834 -20.5 -30.501s-7.5 -24.167 -7.5 -37.5c0 -12.667 2.5 -24.667 7.5 -36s11.833 -21.5 20.5 -30.5s18.667 -16.167 30 -21.5s23.333 -8 36 -8c13.333 0 25.833 2.66699 37.5 8s22 12.5 31 21.5
s16 19.167 21 30.5s7.5 23.333 7.5 36z" />
    <glyph glyph-name="uni0B2D" unicode="&#xb2d;" horiz-adv-x="679" 
d="M638 1l-89 139.999c2 4 6.33301 10.833 13 20.5s13.5 22.167 20.5 37.5s13.333 33.5 19 54.5s8.5 44.833 8.5 71.5c0 42 -6.5 80 -19.5 114s-31.5 62.833 -55.5 86.5s-52.667 41.834 -86 54.501s-70.333 19 -111 19c-37.333 0 -71.666 -5.5 -102.999 -16.5
s-58.333 -26.167 -81 -45.5s-40.334 -42 -53.001 -68s-19 -54 -19 -84c0 -16 2.83301 -29.667 8.5 -41s12.167 -20.5 19.5 -27.5s14.666 -12.167 21.999 -15.5s12.666 -5.66602 15.999 -6.99902l38 85l45 -31c-5.33301 -7.33301 -11.5 -17.5 -18.5 -30.5
s-13.5 -27.667 -19.5 -44s-11.167 -34.166 -15.5 -53.499s-6.5 -39 -6.5 -59s4.33301 -37.667 13 -53s19.167 -28.166 31.5 -38.499s25.333 -18 39 -23s25.5 -7.5 35.5 -7.5c28 0 51.167 3.83301 69.5 11.5s33.333 17 45 28s20.334 22.5 26.001 34.5
s9.83398 22.333 12.501 31c-7.33301 -6 -17.666 -13 -30.999 -21s-28 -12 -44 -12c-17.333 0 -32.166 3.5 -44.499 10.5s-22.333 16 -30 27s-13.334 23.667 -17.001 38s-5.5 28.833 -5.5 43.5c0 22 3.83301 42.667 11.5 62s13.5 33 17.5 41l47 -14
c-4.66699 -10.667 -10.334 -26.167 -17.001 -46.5s-10 -39.833 -10 -58.5c0 -14 3.16699 -25.833 9.5 -35.5s17.5 -14.5 33.5 -14.5c13.333 0 25.5 2.33301 36.5 7s20.333 9.83398 28 15.501s13.5 11 17.5 16l6 7.5l-1 110h47l-1 -158
c-0.666992 -25.333 -6.33398 -48.333 -17.001 -69s-25 -38.334 -43 -53.001s-39.167 -26 -63.5 -34s-50.5 -12 -78.5 -12c-20 0 -40 4 -60 12s-38.167 19.167 -54.5 33.5s-29.666 31.833 -39.999 52.5s-15.5 43.667 -15.5 69c0 15.333 1.16699 31.166 3.5 47.499
s4.83301 29.5 7.5 39.5l-23 10c-10.667 4.66699 -21.5 12 -32.5 22s-20.833 23.167 -29.5 39.5s-13 37.5 -13 63.5c0 42.667 8.66699 80.667 26 114s39.833 61.166 67.5 83.499s58.667 39.333 93 51s68.166 17.5 101.499 17.5c50 0 95.833 -8.16699 137.5 -24.5
s77.167 -38.833 106.5 -67.5s52.166 -62.5 68.499 -101.5s24.5 -80.833 24.5 -125.5c0 -20 -1.16699 -38.167 -3.5 -54.5s-5.66602 -31.833 -9.99902 -46.5s-10.166 -29.334 -17.499 -44.001s-16 -30 -26 -46l91 -138h-58z" />
    <glyph glyph-name="uni0B2E" unicode="&#xb2e;" horiz-adv-x="630" 
d="M523 0l-0.0136719 434.001c0 0.666992 -1.66699 5.16699 -5 13.5s-8.66602 18.666 -15.999 30.999s-16.666 25.666 -27.999 39.999s-24.833 27.5 -40.5 39.5s-34 22 -55 30s-44.5 12 -70.5 12c-35.333 0 -66.5 -5.16699 -93.5 -15.5s-49.833 -24.666 -68.5 -42.999
s-32.667 -40.166 -42 -65.499s-14 -52.666 -14 -81.999c0 -18.667 3.33301 -34.834 10 -48.501s14.834 -25.167 24.501 -34.5s20 -17 31 -23s21.167 -10.667 30.5 -14c38 21.333 70.333 37.5 97 48.5s49.334 17.5 68.001 19.5l28 -37l-20 -7.5
c-13.333 -5 -29.333 -11.5 -48 -19.5s-38 -17.167 -58 -27.5s-37 -20.833 -51 -31.5s-25.333 -22.167 -34 -34.5s-15.5 -24.166 -20.5 -35.499s-8.5 -21.5 -10.5 -30.5s-3 -15.833 -3 -20.5c4.66699 0 11 -0.666992 19 -2s15.833 -3.83301 23.5 -7.5
s14.334 -9.16699 20.001 -16.5s8.5 -17 8.5 -29c0 -17.333 -6.16699 -29.833 -18.5 -37.5s-26.166 -11.5 -41.499 -11.5c-12 0 -22.167 2.83301 -30.5 8.5s-15.166 13 -20.499 22s-9.16602 19.5 -11.499 31.5s-3.5 24.333 -3.5 37c0 16.667 2.83301 33 8.5 49
s12.334 30.667 20.001 44s15.334 24.666 23.001 33.999s13.5 16 17.5 20c-6 2 -15.167 6 -27.5 12s-24.666 14.833 -36.999 26.5s-23.166 27 -32.499 46s-14 42.5 -14 70.5c0 36.667 6.66699 70.5 20 101.5s31.833 57.667 55.5 80s51.334 39.833 83.001 52.5
s65.834 19 102.501 19c33.333 0 62.833 -4 88.5 -12s47.667 -17.667 66 -29s33.333 -22.833 45 -34.5s20.167 -20.834 25.5 -27.501v97h45v-642h-45z" />
    <glyph glyph-name="uni0B2F" unicode="&#xb2f;" horiz-adv-x="736" 
d="M629 0l-0.000976562 108.007c-5.33301 -6.66699 -13.666 -15.834 -24.999 -27.501s-25.666 -23.334 -42.999 -35.001s-37.333 -21.834 -60 -30.501s-47.667 -13 -75 -13c-35.333 0 -67.166 5.33301 -95.499 16s-52.333 24.5 -72 41.5s-34.834 36.167 -45.501 57.5
s-16 42.666 -16 63.999v8c0 2.66699 0.333008 5.66699 1 9l-86 -53c18 -13.333 27 -27.666 27 -42.999c0 -16 -4.66699 -28.833 -14 -38.5s-21 -14.5 -35 -14.5s-26.333 5.16699 -37 15.5s-16 23.166 -16 38.499c0 21.333 3.83301 38.166 11.5 50.499
s19.834 23.5 36.501 33.5l119 70c-12 4 -23.833 9.16699 -35.5 15.5s-22.334 15.166 -32.001 26.499s-17.334 25.666 -23.001 42.999s-8.5 39 -8.5 65c0 38 7.33301 71.833 22 101.5s34.667 55 60 76s54.833 37 88.5 48s69.5 16.5 107.5 16.5c32.667 0 62.834 -5 90.501 -15
s52.167 -21.667 73.5 -35s39.166 -26.5 53.499 -39.5s24.5 -22.833 30.5 -29.5v112h43v-642h-45zM271.999 244.007c-7.33301 -8 -13.333 -16.833 -18 -26.5s-7 -20.167 -7 -31.5c0 -15.333 3.5 -31.333 10.5 -48s17.667 -32 32 -46s32.166 -25.667 53.499 -35
s46.333 -14 75 -14s55.5 6 80.5 18s46.833 25.833 65.5 41.5s33.667 31.5 45 47.5s18 28 20 36v265c0 2.66699 -5.66699 12.167 -17 28.5s-27.666 33.833 -48.999 52.5s-47 35.5 -77 50.5s-63.667 22.5 -101 22.5s-70.666 -5.66699 -99.999 -17s-54 -26.333 -74 -45
s-35.333 -40 -46 -64s-16 -48.667 -16 -74s4.66699 -45.666 14 -60.999s19.666 -27 30.999 -35s22.333 -13.333 33 -16s17.667 -4 21 -4c4 7.33301 12.5 13.666 25.5 18.999s30.167 12 51.5 20l27 -35z" />
    <glyph glyph-name="uni0B30" unicode="&#xb30;" horiz-adv-x="691" 
d="M589 -2l-89.999 139.002l21.5 25.5c10.333 12.333 21 27.166 32 44.499s20.833 36.333 29.5 57s13 41.667 13 63c0 43.333 -6.5 82.166 -19.5 116.499s-31.5 63.333 -55.5 87s-52.667 41.667 -86 54s-70.333 18.5 -111 18.5c-32.667 0 -63.167 -6.5 -91.5 -19.5
s-53 -30 -74 -51s-37.667 -44.667 -50 -71s-18.5 -53.166 -18.5 -80.499c0 -20.667 3.33301 -37.834 10 -51.501s14.334 -24.667 23.001 -33s17.5 -14.833 26.5 -19.5s15.833 -8 20.5 -10c17.333 16 34.333 27.167 51 33.5s36 9.5 58 9.5s42.5 -4.16699 61.5 -12.5
s35.5 -19.5 49.5 -33.5s25 -30.5 33 -49.5s12 -39.167 12 -60.5c0 -22 -4 -42.667 -12 -62s-19 -36 -33 -50s-30.5 -25.167 -49.5 -33.5s-39.5 -12.5 -61.5 -12.5c-21.333 0 -41.5 4.16699 -60.5 12.5s-35.5 19.666 -49.5 33.999s-25 31.166 -33 50.499
s-12 39.666 -12 60.999c0 16.667 1.16699 30.334 3.5 41.001s6.16602 20.334 11.499 29.001c-5.33301 2.66699 -13.5 7.83398 -24.5 15.501s-22.167 17.834 -33.5 30.501s-21.333 28.167 -30 46.5s-13 39.166 -13 62.499c0 38.667 7.83301 74.5 23.5 107.5
s36.667 61.5 63 85.5s57 42.833 92 56.5s71.833 20.5 110.5 20.5c37.333 0 74.833 -6 112.5 -18s71.667 -31 102 -57s55 -59.667 74 -101s28.5 -91.333 28.5 -150c0 -22 -3.83301 -43.5 -11.5 -64.5s-16.334 -40.167 -26.001 -57.5s-19.167 -32 -28.5 -44s-16 -20 -20 -24
l90 -138zM386.001 154.002c0 14 -3 27.167 -9 39.5s-14 23.333 -24 33s-21.5 17.167 -34.5 22.5s-26.5 8 -40.5 8s-27.167 -2.66699 -39.5 -8s-23 -12.833 -32 -22.5s-16.167 -20.667 -21.5 -33s-8 -25.5 -8 -39.5c0 -14.667 2.5 -28.5 7.5 -41.5s12 -24.5 21 -34.5
s19.667 -17.833 32 -23.5s25.833 -8.5 40.5 -8.5s28.5 2.83301 41.5 8.5s24.5 13.5 34.5 23.5s17.833 21.5 23.5 34.5s8.5 26.833 8.5 41.5z" />
    <glyph glyph-name="uni0B32" unicode="&#xb32;" horiz-adv-x="705" 
d="M663 1l-87.0049 133.998c4 4.66699 10 12.167 18 22.5s15.833 23 23.5 38s14.334 31.833 20.001 50.5s8.5 38.667 8.5 60c0 34.667 -6.16699 69.167 -18.5 103.5s-30.5 65.166 -54.5 92.499s-53.5 49.5 -88.5 66.5s-75.167 25.5 -120.5 25.5
c-33.333 0 -66.5 -3.16699 -99.5 -9.5s-62.833 -18 -89.5 -35s-48.167 -40.667 -64.5 -71s-24.5 -69.833 -24.5 -118.5c0 -14 3.5 -27.5 10.5 -40.5s15 -25 24 -36s18.167 -20.333 27.5 -28s16.333 -13.167 21 -16.5c0.666992 2.66699 2.83398 6.83398 6.50098 12.501
s8.83398 11.167 15.501 16.5s15.5 10 26.5 14s24.5 6 40.5 6c10.667 0 20.5 -1.5 29.5 -4.5s17 -6.33301 24 -10s12.833 -7.33398 17.5 -11.001s8 -6.16699 10 -7.5c2.66699 2 7 4.83301 13 8.5s12.667 7.33398 20 11.001s15 6.83398 23 9.50098s15.333 4 22 4
c26.667 0 47.5 -5 62.5 -15s26.333 -21 34 -33s12.5 -23 14.5 -33l3 -15v-191h-51v197c0 1.33301 -1 4.33301 -3 9s-5.16699 9.5 -9.5 14.5s-10.166 9.5 -17.499 13.5s-16.333 6 -27 6c-10 0 -18.5 -2.16699 -25.5 -6.5s-12.5 -9.16602 -16.5 -14.499
c-5.33301 -6 -9.33301 -12.667 -12 -20v-199h-50v201l-3 6c-2 4 -5.5 8.33301 -10.5 13s-11.5 8.83398 -19.5 12.501s-18 5.5 -30 5.5c-10.667 0 -19.667 -2 -27 -6s-13.166 -8.5 -17.499 -13.5s-7.5 -9.66699 -9.5 -14s-3 -6.83301 -3 -7.5v-197h-49v192
c-6 2 -15.167 7 -27.5 15s-24.833 19.333 -37.5 34s-23.834 32.667 -33.501 54s-14.5 46 -14.5 74c0 42.667 7.66699 81.167 23 115.5s37 63.166 65 86.499s61.667 41.333 101 54s83.333 19 132 19c61.333 0 113.333 -11 156 -33s77.5 -50 104.5 -84s46.667 -71.667 59 -113
s18.5 -81.333 18.5 -120c0 -16.667 -2.16699 -33.667 -6.5 -51s-9.66602 -33.333 -15.999 -48s-13.333 -27.5 -21 -38.5s-14.5 -18.5 -20.5 -22.5l86 -134h-55z" />
    <glyph glyph-name="uni0B33" unicode="&#xb33;" horiz-adv-x="688" 
d="M651 353c0 -9.33301 -0.99707 -19.502 -2.99707 -30.502s-4.33301 -21.667 -7 -32s-5.66699 -20.333 -9 -30l-8 -23.5l-46 18c5.33301 9.33301 11 22.833 17 40.5s9 36.167 9 55.5c0 34 -6.83301 66.167 -20.5 96.5s-32.834 57 -57.501 80s-53.667 41.333 -87 55
s-69.333 20.5 -108 20.5c-29.333 0 -58.333 -5.16699 -87 -15.5s-54.5 -26 -77.5 -47s-41.667 -47.667 -56 -80s-21.5 -70.5 -21.5 -114.5c0 -17.333 2.33301 -33 7 -47s10.5 -26.167 17.5 -36.5s14.333 -19 22 -26s14.167 -11.5 19.5 -13.5c7.33301 17.333 20 32.333 38 45
s38.667 19 62 19c10.667 0 20.5 -1.5 29.5 -4.5s17 -6.33301 24 -10s12.833 -7.16699 17.5 -10.5l10 -7c2.66699 2 7 4.66699 13 8s12.667 6.83301 20 10.5s14.833 6.83398 22.5 9.50098s14.834 4 21.501 4c26.667 0 47.667 -5 63 -15s26.833 -21 34.5 -33
s12.5 -23 14.5 -33l3 -15v-191h-51v197c0 1.33301 -0.833008 4.33301 -2.5 9s-4.83398 9.66699 -9.50098 15s-10.667 10 -18 14s-16.666 6 -27.999 6c-10 0 -18.333 -2.16699 -25 -6.5s-12 -9.16602 -16 -14.499c-4.66699 -6.66699 -8.33398 -13.667 -11.001 -21v-199h-52
v200c0 0.666992 -1 3 -3 7s-5.5 8.33301 -10.5 13s-11.5 9 -19.5 13s-18 6 -30 6c-10 0 -18.5 -2.16699 -25.5 -6.5s-12.833 -9 -17.5 -14s-8 -9.66699 -10 -14s-3 -6.83301 -3 -7.5v-197h-48v164c-4.66699 2 -13 7.5 -25 16.5s-24.333 21.5 -37 37.5s-24 35.333 -34 58
s-15 49 -15 79c0 42.667 6.83301 82 20.5 118s33.167 67 58.5 93s56.333 46.333 93 61s77.667 22 123 22c42.667 0 83.167 -7.5 121.5 -22.5s72.166 -35.667 101.499 -62s52.666 -57.5 69.999 -93.5s26 -75.333 26 -118z" />
    <glyph glyph-name="uni0B35" unicode="&#xb35;" horiz-adv-x="662" 
d="M624 342c-1.33301 -30 -5.16797 -54.6689 -11.501 -74.002s-12.166 -34.333 -17.499 -45l-46 17l7 22c2.66699 8.66699 5.16699 18.167 7.5 28.5s4.33301 20.833 6 31.5s2.5 20.667 2.5 30c0 24 -4.16699 50.5 -12.5 79.5s-22.166 56.333 -41.499 82
s-44.666 47 -75.999 64s-70 25.5 -116 25.5c-30 0 -59.167 -5.66699 -87.5 -17s-53.833 -26.666 -76.5 -45.999s-40.834 -42.333 -54.501 -69s-20.5 -55 -20.5 -85c0 -22 3.66699 -41.333 11 -58s16.166 -31 26.499 -43s21.333 -22 33 -30s22.167 -14.333 31.5 -19
c14.667 28.667 33.5 50.834 56.5 66.501s48.5 23.5 76.5 23.5c20 0 38.833 -3.66699 56.5 -11s33.334 -17.5 47.001 -30.5s24.334 -28.333 32.001 -46s11.5 -36.5 11.5 -56.5v-188h-46v83c-19.333 -14.667 -36.833 -24.834 -52.5 -30.501s-31.834 -8.5 -48.501 -8.5
c-19.333 0 -37.333 3.5 -54 10.5s-31.5 16.667 -44.5 29s-23.5 27.166 -31.5 44.499s-12.667 36 -14 56l-12 8c-24.667 12 -46.334 27 -65.001 45c-16 15.333 -30.667 35.5 -44 60.5s-20 55.5 -20 91.5c0 42.667 9.16699 80.834 27.5 114.501s41.5 61.834 69.5 84.501
s58.667 40 92 52s65 18 95 18c46 0 87.5 -8.33301 124.5 -25s68.833 -39 95.5 -67s47.167 -60.833 61.5 -98.5s21.5 -77.5 21.5 -119.5zM418.998 181.998c0 13.333 -2.5 25.833 -7.5 37.5s-12 21.834 -21 30.501s-19.333 15.5 -31 20.5s-24.167 7.5 -37.5 7.5
c-12.667 0 -24.667 -2.5 -36 -7.5s-21.333 -11.833 -30 -20.5s-15.5 -18.834 -20.5 -30.501s-7.5 -24.167 -7.5 -37.5c0 -12.667 2.5 -24.667 7.5 -36s11.833 -21.5 20.5 -30.5s18.667 -16.167 30 -21.5s23.333 -8 36 -8c13.333 0 25.833 2.66699 37.5 8s22 12.5 31 21.5
s16 19.167 21 30.5s7.5 23.333 7.5 36zM359.998 180.998c0 -9.33301 -3.66699 -17.666 -11 -24.999s-16 -11 -26 -11c-9.33301 0 -17.666 3.66699 -24.999 11s-11 15.666 -11 24.999s3.66699 17.5 11 24.5s15.666 10.5 24.999 10.5c10 0 18.667 -3.5 26 -10.5
s11 -15.167 11 -24.5z" />
    <glyph glyph-name="uni0B36" unicode="&#xb36;" horiz-adv-x="695" 
d="M588 0l-0.00195312 445.999c0 0.666992 -2.83301 5 -8.5 13s-13.5 17.667 -23.5 29s-22.167 23.833 -36.5 37.5s-30.166 26.167 -47.499 37.5s-36 20.833 -56 28.5s-40.667 11.5 -62 11.5c-12 0 -23.5 -2.5 -34.5 -7.5s-20.667 -11.667 -29 -20s-15 -18 -20 -29
s-7.5 -22.5 -7.5 -34.5c0 -13.333 1.33301 -23.666 4 -30.999s6.5 -13.333 11.5 -18s10.833 -8.5 17.5 -11.5l21 -9.5l78 -37l-25 -34l-154 61h-6c-2 0 -4.33301 0.166992 -7 0.5s-5.66699 0.5 -9 0.5c-9.33301 0 -20.333 -1 -33 -3s-24.667 -6 -36 -12s-21 -15 -29 -27
s-12 -28 -12 -48c0 -17.333 4.66699 -31.833 14 -43.5s20 -21 32 -28s23.667 -12.167 35 -15.5s18.666 -5 21.999 -5c33.333 28.667 72.666 43 117.999 43c21.333 0 41.5 -4.16699 60.5 -12.5s35.667 -19.5 50 -33.5s25.666 -30.5 33.999 -49.5s12.5 -39.167 12.5 -60.5
c0 -22 -4.16699 -42.667 -12.5 -62s-19.666 -36 -33.999 -50s-31 -25.167 -50 -33.5s-39.167 -12.5 -60.5 -12.5s-41.5 4 -60.5 12s-35.5 19 -49.5 33s-25.167 30.5 -33.5 49.5s-12.5 39.167 -12.5 60.5c0 12.667 0.5 24.334 1.5 35.001s4.83301 24.667 11.5 42
c-5.33301 1.33301 -14.833 4.66602 -28.5 9.99902s-27.667 13 -42 23s-27 23.167 -38 39.5s-16.5 36.166 -16.5 59.499c0 30 5.33301 54 16 72s23.667 31.833 39 41.5s31.5 16 48.5 19s31.833 4.5 44.5 4.5c4.66699 0 8.83398 -0.166992 12.501 -0.5
s6.83398 -0.5 9.50098 -0.5c0 6.66699 1.5 19.5 4.5 38.5s9.5 38.333 19.5 58s25.167 37.167 45.5 52.5s48.166 23 83.499 23c26 0 51.333 -5.33301 76 -16s47.334 -23.167 68.001 -37.5s38.334 -28.666 53.001 -42.999s25 -24.833 31 -31.5v118h45v-642h-45z
M417.998 137.999c0 14.667 -3.16602 28.668 -9.49902 42.001s-14.833 25 -25.5 35s-22.834 18 -36.501 24s-27.834 9 -42.501 9s-28.667 -2.66699 -42 -8s-25 -12.666 -35 -21.999s-18 -20.833 -24 -34.5s-9 -28.834 -9 -45.501c0 -17.333 2.83301 -33 8.5 -47
s13.5 -26 23.5 -36s21.667 -17.833 35 -23.5s27.666 -8.5 42.999 -8.5c14.667 0 28.834 3.16699 42.501 9.5s25.834 14.666 36.501 24.999s19.167 22.5 25.5 36.5s9.5 28.667 9.5 44z" />
    <glyph glyph-name="uni0B37" unicode="&#xb37;" horiz-adv-x="670" 
d="M563 0l-0.00390625 108.002c-5.33301 -7.33301 -14.5 -17.333 -27.5 -30s-30 -25 -51 -37s-46.167 -22.5 -75.5 -31.5s-63 -13.5 -101 -13.5c-24 0 -47.5 4 -70.5 12s-43.667 19.167 -62 33.5s-33.166 31.166 -44.499 50.499s-17 40.333 -17 63
c0 24.667 3.33301 44.5 10 59.5s14.667 27.5 24 37.5c-7.33301 1.33301 -17.166 4.5 -29.499 9.5s-24.5 12.667 -36.5 23s-22.5 23.5 -31.5 39.5s-13.5 35.667 -13.5 59c0 37.333 7.33301 72.166 22 104.499s34.667 60.5 60 84.5s54.833 42.833 88.5 56.5
s69.5 20.5 107.5 20.5c39.333 0 73.333 -5 102 -15s52.834 -21.667 72.501 -35s35.334 -26.5 47.001 -39.5l26.5 -29.5v112h46v-642h-46zM562.996 451.002c0 2.66699 -4.66699 12.167 -14 28.5s-24 33.833 -44 52.5s-45.5 35.5 -76.5 50.5s-68.167 22.5 -111.5 22.5
c-17.333 0 -32.5 -1.33301 -45.5 -4s-24 -6 -33 -10s-16.333 -7.83301 -22 -11.5s-9.5 -6.5 -11.5 -8.5l358 -359v239zM165.996 550.002c-4 -2.66699 -10.832 -8.49902 -20.499 -17.499s-19.334 -20.667 -29.001 -35s-18.334 -31 -26.001 -50s-11.5 -40.167 -11.5 -63.5
c0 -14 3.5 -27 10.5 -39s15.833 -22.333 26.5 -31s22.334 -15.334 35.001 -20.001s25 -7 37 -7c12.667 0 23 2.66699 31 8l122 84zM369.997 349.003l-145.997 -97.001c-4 -2.66699 -9.33301 -7 -16 -13s-13.334 -13.5 -20.001 -22.5s-12.334 -19.5 -17.001 -31.5
s-7 -25.333 -7 -40c0 -14 3.66699 -27.167 11 -39.5s17.666 -23.166 30.999 -32.499s29.666 -16.833 48.999 -22.5s41 -8.5 65 -8.5c40.667 0 75.834 6.83301 105.501 20.5s54 28.5 73 44.5s32.833 30.833 41.5 44.5s12.667 20.5 12 20.5z" />
    <glyph glyph-name="uni0B38" unicode="&#xb38;" horiz-adv-x="627" 
d="M515 0l-438 123.001l138 108c-9.33301 2 -23.833 6 -43.5 12s-39.5 15.333 -59.5 28s-37.5 29.5 -52.5 50.5s-22.5 47.5 -22.5 79.5c0 44 8.33301 81.5 25 112.5s38 56.5 64 76.5s54.833 34.667 86.5 44s62.5 14 92.5 14c32 0 60.167 -4.33301 84.5 -13
s45.333 -18.834 63 -30.501s32 -23.667 43 -36s19.167 -22.5 24.5 -30.5v104h46v-642h-51zM520 434.001c0 1.33301 -4.33203 10.8311 -12.999 28.498s-21.834 37 -39.501 58s-39.667 40 -66 57s-57.5 25.5 -93.5 25.5c-33.333 0 -63.5 -6 -90.5 -18
s-50.167 -27.5 -69.5 -46.5s-34.333 -40.167 -45 -63.5s-16 -46 -16 -68c0 -19.333 4.5 -37.166 13.5 -53.499s20.833 -30.5 35.5 -42.5s31.167 -21.333 49.5 -28s36.5 -10 54.5 -10c3.33301 0 8 1 14 3s11.667 4.33301 17 7c6.66699 2.66699 13.667 6.33398 21 11.001
l102 71l32 -32l-254 -189l348 -102v392z" />
    <glyph glyph-name="uni0B39" unicode="&#xb39;" horiz-adv-x="641" 
d="M581 383c0 -20 -2.49609 -40.666 -7.49609 -61.999s-10.167 -38.666 -15.5 -51.999l-43 24c0.666992 4.66699 2 10.5 4 17.5s3.83301 14.5 5.5 22.5s3.16699 16.333 4.5 25s2 17 2 25c0 26 -5.33301 52.167 -16 78.5s-26.167 50 -46.5 71s-45.333 38 -75 51
s-63.5 19.5 -101.5 19.5c-24 0 -48 -3.83301 -72 -11.5s-45.667 -19.167 -65 -34.5s-35.166 -34.666 -47.499 -57.999s-18.5 -50.333 -18.5 -81c0 -14 2.5 -25.833 7.5 -35.5s11.167 -17.834 18.5 -24.501s15 -12.334 23 -17.001s15 -8.33398 21 -11.001
c4 21.333 12.833 38 26.5 50s27.167 22.333 40.5 31l34 -35c-6.66699 -4.66699 -13.834 -10.667 -21.501 -18s-14.834 -15.333 -21.501 -24s-12.334 -17.834 -17.001 -27.501s-7 -19.167 -7 -28.5c0 -26.667 8.5 -47.5 25.5 -62.5s39.833 -22.5 68.5 -22.5
c12 0 23.333 2.16699 34 6.5s20 9.5 28 15.5s14.667 12 20 18s9.33301 10.333 12 13v133h46v-278h-46v86c-7.33301 -4 -14.333 -8.33301 -21 -13s-14 -9 -22 -13s-17 -7.16699 -27 -9.5s-21.667 -3.5 -35 -3.5h-19l-96 -74l343 -51l-22 -38l-417 63l145 113
c-9.33301 6 -19 13.667 -29 23s-19 20.666 -27 33.999c-2.66699 4.66699 -4.83398 10.334 -6.50098 17.001s-2.83398 13.334 -3.50098 20.001s-1 12.834 -1 18.501v13.5c-4.66699 1.33301 -12.834 4.16602 -24.501 8.49902s-23.5 11.5 -35.5 21.5s-22.5 23.5 -31.5 40.5
s-13.5 38.5 -13.5 64.5c0 33.333 6.83301 63.833 20.5 91.5s32.167 51.5 55.5 71.5s50.333 35.667 81 47s63 17 97 17c46 0 86.833 -7.66699 122.5 -23s65.834 -35.5 90.501 -60.5s43.5 -53.5 56.5 -85.5s19.5 -64.333 19.5 -97z" />
    <glyph glyph-name="uni0B3C" unicode="&#xb3c;" horiz-adv-x="0" 
d="M-299 -132c0 -14.667 -5 -27.334 -15 -38.001s-22.667 -16 -38 -16c-16 0 -29.167 5.33301 -39.5 16s-15.5 23.334 -15.5 38.001c0 15.333 5.16699 28.5 15.5 39.5s23.5 16.5 39.5 16.5c15.333 0 28 -5.5 38 -16.5s15 -24.167 15 -39.5z" />
    <glyph glyph-name="uni0B3D" unicode="&#xb3d;" horiz-adv-x="464" 
d="M321 0l-283 183l218 150l-214 137l236 172h61l-226 -170l215 -137l-215 -150l277 -185h-69z" />
    <glyph glyph-name="uni0B3E" unicode="&#xb3e;" horiz-adv-x="178" 
d="M71 0v642h46v-642h-46z" />
    <glyph glyph-name="uni0B3F" unicode="&#xb3f;" horiz-adv-x="0" 
d="M-118 699c-32.667 29.333 -64.832 50.334 -96.499 63.001s-68.5 19 -110.5 19c-23.333 0 -44.5 -1.5 -63.5 -4.5s-37.333 -7.66699 -55 -14s-34.667 -14.833 -51 -25.5s-33.5 -23.334 -51.5 -38.001l-31 35c36.667 32.667 73.167 56.834 109.5 72.501
s79.166 23.5 128.499 23.5c26 0 50 -1.83301 72 -5.5s43 -9.33398 63 -17.001s39.333 -17.667 58 -30s37.667 -27.5 57 -45.5z" />
    <glyph glyph-name="uni0B40" unicode="&#xb40;" horiz-adv-x="263" 
d="M156 0v574l-93 -59l-26 35l165 102v-652h-46z" />
    <glyph glyph-name="uni0B41" unicode="&#xb41;" horiz-adv-x="0" 
d="M204 -156c-3.33301 -5.33301 -8.17188 -12.4912 -14.5049 -21.4912s-14.166 -17.833 -23.499 -26.5s-20 -16.334 -32 -23.001s-25 -10 -39 -10c-15.333 0 -30.333 2.33301 -45 7s-28.167 10.167 -40.5 16.5s-23.5 12.666 -33.5 18.999s-18 11.166 -24 14.499
c-1.33301 -7.33301 -5.33301 -17 -12 -29s-15.667 -23.833 -27 -35.5s-25.333 -21.834 -42 -30.501s-35.667 -13 -57 -13c-35.333 0 -64.666 10.5 -87.999 31.5s-35 49.5 -35 85.5c0 14.667 3 29 9 43s14.333 26.167 25 36.5s23 18.666 37 24.999s29 9.5 45 9.5
c22.667 0 44.334 -4.66699 65.001 -14s36 -18 46 -26v97h41v-129l18 -13c9.33301 -6.66699 20.333 -13.834 33 -21.501s25.834 -14.334 39.501 -20.001s25.834 -8.5 36.501 -8.5c9.33301 0 18.5 2.16699 27.5 6.5s17.5 9.66602 25.5 15.999s15.167 13.166 21.5 20.499
s11.5 14 15.5 20zM-81.0059 -154.991c-2 4 -6.16699 8.99805 -12.5 14.998s-14.333 12 -24 18s-20.5 11.167 -32.5 15.5s-24.667 6.5 -38 6.5c-20 0 -37.167 -7.33301 -51.5 -22s-21.5 -31.667 -21.5 -51c0 -25.333 8 -43.166 24 -53.499s34 -15.5 54 -15.5
c21.333 0 41 7.33301 59 22s32.333 36.334 43 65.001z" />
    <glyph glyph-name="uni0B42" unicode="&#xb42;" horiz-adv-x="0" 
d="M289 -130c-3.33301 -4.66699 -8.49609 -10.835 -15.4961 -18.502s-15.833 -15.167 -26.5 -22.5s-22.834 -13.666 -36.501 -18.999s-28.834 -8 -45.501 -8s-31.167 2.66699 -43.5 8s-26.5 15.333 -42.5 30c-3.33301 -6.66699 -9.66602 -15.834 -18.999 -27.501
s-20.833 -23 -34.5 -34s-29.5 -20.667 -47.5 -29s-37.667 -12.5 -59 -12.5c-18 0 -35.333 3 -52 9s-31.334 14.333 -44.001 25s-22.834 23.667 -30.501 39s-11.5 32 -11.5 50c0 15.333 3.16699 29.666 9.5 42.999s15 25 26 35s24 17.833 39 23.5s31.167 8.5 48.5 8.5h10v30
h42v-74l-24 2c-8 0.666992 -15.667 1 -23 1c-21.333 0 -40 -6.5 -56 -19.5s-24 -31.167 -24 -54.5c0 -12 2.66699 -22.667 8 -32s12.166 -17.166 20.499 -23.499s17.5 -11.166 27.5 -14.499s20 -5 30 -5c20.667 0 39.334 4.5 56.001 13.5s31.167 20 43.5 33s23 27 32 42
s16.167 28.5 21.5 40.5c11.333 -21.333 25.666 -37.166 42.999 -47.499s36.666 -15.5 57.999 -15.5c10.667 0 20.834 1.66699 30.501 5s18.167 7.33301 25.5 12s13.833 9.5 19.5 14.5s10.167 9.5 13.5 13.5l31 -21v0z" />
    <glyph glyph-name="uni0B43" unicode="&#xb43;" horiz-adv-x="0" 
d="M132 -173c0 -21.333 -4.83105 -38.833 -14.498 -52.5s-22 -24.5 -37 -32.5s-31.833 -13.667 -50.5 -17s-37.334 -5 -56.001 -5c-20 0 -39.667 3 -59 9s-36.5 14.667 -51.5 26s-27.167 25.333 -36.5 42s-14 35.667 -14 57c0 18 5.16699 36.5 15.5 55.5
s22.166 36.333 35.499 52s26.166 29 38.499 40s20.5 18.167 24.5 21.5l41 -21c-8 -4.66699 -18.167 -12.167 -30.5 -22.5s-24.166 -22.333 -35.499 -36s-21 -28.334 -29 -44.001s-12 -30.834 -12 -45.501c0 -13.333 3.16699 -25.666 9.5 -36.999
s14.666 -21.166 24.999 -29.499s22.166 -14.833 35.499 -19.5s27 -7 41 -7c12.667 0 25.834 1 39.501 3s26.167 5.33301 37.5 10s20.833 11 28.5 19s11.5 18 11.5 30c0 10.667 -2.33301 19.667 -7 27s-10.5 13.333 -17.5 18s-14.833 8 -23.5 10s-17 3 -25 3
c-7.33301 0 -15.166 -0.5 -23.499 -1.5s-16.833 -3.16699 -25.5 -6.5l22 42c5.33301 0.666992 11 1.33398 17 2.00098s12.333 1 19 1c14 0 27.333 -2 40 -6s24 -9.66699 34 -17s18 -16.833 24 -28.5s9 -24.834 9 -39.501z" />
    <glyph glyph-name="uni0B56.126" unicode="&#xb44;" horiz-adv-x="0" 
d="M-68 -197c-25.333 -19.333 -42.498 -40.3291 -51.498 -62.9961s-10.833 -43.5 -5.5 -62.5s17.166 -34.833 35.499 -47.5s42.166 -19 71.499 -19c12.667 0 25.334 1.5 38.001 4.5s24 7.66699 34 14s18.167 14 24.5 23s9.5 19.5 9.5 31.5c0 10.667 -2.33301 19.667 -7 27
s-10.5 13.333 -17.5 18s-14.833 8 -23.5 10s-17 3 -25 3c-7.33301 0 -15.166 -0.5 -23.499 -1.5s-16.833 -3.16699 -25.5 -6.5l22 42c5.33301 0.666992 11 1.33398 17 2.00098s12.333 1 19 1c14 0 27.333 -2 40 -6s24 -9.66699 34 -17s18 -16.833 24 -28.5
s9 -24.834 9 -39.501c0 -21.333 -4.16699 -39.333 -12.5 -54s-19.333 -26.834 -33 -36.501s-29.334 -16.667 -47.001 -21s-35.834 -6.5 -54.501 -6.5c-37.333 0 -68.333 7.66699 -93 23s-42.334 34.166 -53.001 56.499s-13.667 46.333 -9 72s17.667 48.834 39 69.501
c-18.667 13.333 -32.5 26 -41.5 38s-13.5 27 -13.5 45s4.16699 35 12.5 51s18.5 30.333 30.5 43s24.5 23.667 37.5 33s24.167 16.666 33.5 21.999l41 -21c-8 -4.66699 -18.333 -11.167 -31 -19.5s-24.667 -18 -36 -29s-21 -23.333 -29 -37s-11.667 -27.834 -11 -42.501
s8.33398 -27.834 23.001 -39.501s30.667 -22.167 48 -31.5z" />
    <glyph glyph-name="uni0B47" unicode="&#xb47;" horiz-adv-x="492" 
d="M458 156c0 -17.333 -3.49805 -35.832 -10.498 -55.499s-17 -37.667 -30 -54s-29.167 -30 -48.5 -41s-41.333 -16.5 -66 -16.5c-42.667 0 -80.334 10 -113.001 30s-60 46.167 -82 78.5s-38.667 69.166 -50 110.499s-17 83 -17 125c0 46.667 5.66699 89.334 17 128.001
s27.833 72 49.5 100s48.167 49.667 79.5 65s67 23 107 23c28 0 51.667 -4.5 71 -13.5s35.166 -19.333 47.499 -31s21.666 -23.334 27.999 -35.001s10.5 -20.167 12.5 -25.5l-36 -29c-3.33301 6.66699 -8 15 -14 25s-13.833 19.833 -23.5 29.5s-21.667 18 -36 25
s-30.833 10.5 -49.5 10.5c-28 0 -52.5 -5 -73.5 -15s-38.833 -22.5 -53.5 -37.5s-26.667 -31.833 -36 -50.5s-16.666 -36.5 -21.999 -53.5s-9 -32.333 -11 -46s-3 -23.167 -3 -28.5c2.66699 0 7.16699 0.333008 13.5 1s13.333 1.16699 21 1.5s15.667 0.833008 24 1.5
s15.833 1 22.5 1c40 0 77.333 -6.16699 112 -18.5s64.5 -28.833 89.5 -49.5s44.667 -44.5 59 -71.5s21.5 -54.833 21.5 -83.5zM408.002 165.001c0 24 -7.49902 46.501 -22.499 67.501s-34.167 39 -57.5 54s-49 26.833 -77 35.5s-54.667 13 -80 13
c-13.333 0 -27.833 -0.833008 -43.5 -2.5s-26.167 -3.16699 -31.5 -4.5c0 -2.66699 0.5 -11.834 1.5 -27.501s3.5 -34.334 7.5 -56.001s10.167 -44.667 18.5 -69s20.166 -46.666 35.499 -66.999s34.333 -37.333 57 -51s50.667 -20.5 84 -20.5c14.667 0 28.5 3.33301 41.5 10
s24.5 15.667 34.5 27s17.833 24.833 23.5 40.5s8.5 32.5 8.5 50.5z" />
    <glyph glyph-name="uni0B48" unicode="&#xb48;" horiz-adv-x="1161" 
d="M458 156c0 -17.333 -3.49805 -35.832 -10.498 -55.499s-17 -37.667 -30 -54s-29.167 -30 -48.5 -41s-41.333 -16.5 -66 -16.5c-42.667 0 -80.334 10 -113.001 30s-60 46.167 -82 78.5s-38.667 69.166 -50 110.499s-17 83 -17 125c0 46.667 5.66699 89.334 17 128.001
s27.833 72 49.5 100s48.167 49.667 79.5 65s67 23 107 23c28 0 51.667 -4.5 71 -13.5s35.166 -19.333 47.499 -31s21.666 -23.334 27.999 -35.001s10.5 -20.167 12.5 -25.5l-36 -29c-3.33301 6.66699 -8 15 -14 25s-13.833 19.833 -23.5 29.5s-21.667 18 -36 25
s-30.833 10.5 -49.5 10.5c-28 0 -52.5 -5 -73.5 -15s-38.833 -22.5 -53.5 -37.5s-26.667 -31.833 -36 -50.5s-16.666 -36.5 -21.999 -53.5s-9 -32.333 -11 -46s-3 -23.167 -3 -28.5c2.66699 0 7.16699 0.333008 13.5 1s13.333 1.16699 21 1.5s15.667 0.833008 24 1.5
s15.833 1 22.5 1c40 0 77.333 -6.16699 112 -18.5s64.5 -28.833 89.5 -49.5s44.667 -44.5 59 -71.5s21.5 -54.833 21.5 -83.5zM408.002 165.001c0 24 -7.49902 46.501 -22.499 67.501s-34.167 39 -57.5 54s-49 26.833 -77 35.5s-54.667 13 -80 13
c-13.333 0 -27.833 -0.833008 -43.5 -2.5s-26.167 -3.16699 -31.5 -4.5c0 -2.66699 0.5 -11.834 1.5 -27.501s3.5 -34.334 7.5 -56.001s10.167 -44.667 18.5 -69s20.166 -46.666 35.499 -66.999s34.333 -37.333 57 -51s50.667 -20.5 84 -20.5c14.667 0 28.5 3.33301 41.5 10
s24.5 15.667 34.5 27s17.833 24.833 23.5 40.5s8.5 32.5 8.5 50.5zM1128 768.002c0 -12.667 -1.99902 -24.501 -5.99902 -35.501s-8.33301 -21.167 -13 -30.5l-13 -25c-4 -7.33301 -6 -13.666 -6 -18.999v-6c0 -2 0.666992 -5.33301 2 -10h-44
c-0.666992 0 -1.83398 0.5 -3.50098 1.5s-2.5 4.5 -2.5 10.5c0 10 2.16699 18.833 6.5 26.5s9.16602 15.334 14.499 23.001s10.166 16 14.499 25s6.5 19.833 6.5 32.5c0 13.333 -3.5 23.833 -10.5 31.5s-15.5 13.5 -25.5 17.5s-21 6.5 -33 7.5s-23 1.5 -33 1.5
c-13.333 0 -26 -2 -38 -6s-24.333 -8.33301 -37 -13s-25.834 -9 -39.501 -13s-28.5 -6 -44.5 -6c-17.333 0 -34 2.33301 -50 7s-30.667 10 -44 16s-25.166 12.167 -35.499 18.5s-18.5 11.5 -24.5 15.5l15 43l23 -15c9.33301 -6 19.833 -11.833 31.5 -17.5
s24.334 -10.5 38.001 -14.5s27.5 -6 41.5 -6c18 0 34.5 2 49.5 6s29 8.16699 42 12.5l37.5 12.5c12 4 24.333 6 37 6c18.667 0 36.834 -2.33301 54.501 -7s33 -11.334 46 -20.001s23.5 -19 31.5 -31s12 -25 12 -39z" />
    <glyph glyph-name="uni0B4B" unicode="&#xb4b;" horiz-adv-x="1151" 
d="M458 156c0 -17.333 -3.49805 -35.832 -10.498 -55.499s-17 -37.667 -30 -54s-29.167 -30 -48.5 -41s-41.333 -16.5 -66 -16.5c-42.667 0 -80.334 10 -113.001 30s-60 46.167 -82 78.5s-38.667 69.166 -50 110.499s-17 83 -17 125c0 46.667 5.66699 89.334 17 128.001
s27.833 72 49.5 100s48.167 49.667 79.5 65s67 23 107 23c28 0 51.667 -4.5 71 -13.5s35.166 -19.333 47.499 -31s21.666 -23.334 27.999 -35.001s10.5 -20.167 12.5 -25.5l-36 -29c-3.33301 6.66699 -8 15 -14 25s-13.833 19.833 -23.5 29.5s-21.667 18 -36 25
s-30.833 10.5 -49.5 10.5c-28 0 -52.5 -5 -73.5 -15s-38.833 -22.5 -53.5 -37.5s-26.667 -31.833 -36 -50.5s-16.666 -36.5 -21.999 -53.5s-9 -32.333 -11 -46s-3 -23.167 -3 -28.5c2.66699 0 7.16699 0.333008 13.5 1s13.333 1.16699 21 1.5s15.667 0.833008 24 1.5
s15.833 1 22.5 1c40 0 77.333 -6.16699 112 -18.5s64.5 -28.833 89.5 -49.5s44.667 -44.5 59 -71.5s21.5 -54.833 21.5 -83.5zM408.002 165.001c0 24 -7.49902 46.501 -22.499 67.501s-34.167 39 -57.5 54s-49 26.833 -77 35.5s-54.667 13 -80 13
c-13.333 0 -27.833 -0.833008 -43.5 -2.5s-26.167 -3.16699 -31.5 -4.5c0 -2.66699 0.5 -11.834 1.5 -27.501s3.5 -34.334 7.5 -56.001s10.167 -44.667 18.5 -69s20.166 -46.666 35.499 -66.999s34.333 -37.333 57 -51s50.667 -20.5 84 -20.5c14.667 0 28.5 3.33301 41.5 10
s24.5 15.667 34.5 27s17.833 24.833 23.5 40.5s8.5 32.5 8.5 50.5zM1055 0.00195312v642h46v-642h-46z" />
    <glyph glyph-name="uni0B4C" unicode="&#xb4c;" horiz-adv-x="1180" 
d="M458 156c0 -17.333 -3.49805 -35.832 -10.498 -55.499s-17 -37.667 -30 -54s-29.167 -30 -48.5 -41s-41.333 -16.5 -66 -16.5c-42.667 0 -80.334 10 -113.001 30s-60 46.167 -82 78.5s-38.667 69.166 -50 110.499s-17 83 -17 125c0 46.667 5.66699 89.334 17 128.001
s27.833 72 49.5 100s48.167 49.667 79.5 65s67 23 107 23c28 0 51.667 -4.5 71 -13.5s35.166 -19.333 47.499 -31s21.666 -23.334 27.999 -35.001s10.5 -20.167 12.5 -25.5l-36 -29c-3.33301 6.66699 -8 15 -14 25s-13.833 19.833 -23.5 29.5s-21.667 18 -36 25
s-30.833 10.5 -49.5 10.5c-28 0 -52.5 -5 -73.5 -15s-38.833 -22.5 -53.5 -37.5s-26.667 -31.833 -36 -50.5s-16.666 -36.5 -21.999 -53.5s-9 -32.333 -11 -46s-3 -23.167 -3 -28.5c2.66699 0 7.16699 0.333008 13.5 1s13.333 1.16699 21 1.5s15.667 0.833008 24 1.5
s15.833 1 22.5 1c40 0 77.333 -6.16699 112 -18.5s64.5 -28.833 89.5 -49.5s44.667 -44.5 59 -71.5s21.5 -54.833 21.5 -83.5zM408.002 165.001c0 24 -7.49902 46.501 -22.499 67.501s-34.167 39 -57.5 54s-49 26.833 -77 35.5s-54.667 13 -80 13
c-13.333 0 -27.833 -0.833008 -43.5 -2.5s-26.167 -3.16699 -31.5 -4.5c0 -2.66699 0.5 -11.834 1.5 -27.501s3.5 -34.334 7.5 -56.001s10.167 -44.667 18.5 -69s20.166 -46.666 35.499 -66.999s34.333 -37.333 57 -51s50.667 -20.5 84 -20.5c14.667 0 28.5 3.33301 41.5 10
s24.5 15.667 34.5 27s17.833 24.833 23.5 40.5s8.5 32.5 8.5 50.5zM1140 761.002c0 -16.667 -1.99805 -30.5039 -5.99805 -41.5039s-8.33301 -20.167 -13 -27.5c-6 -8 -12.333 -14.333 -19 -19l-2 -5v-668h-46v673c8 9.33301 17.333 20.833 28 34.5s16 30.5 16 50.5
c0 21.333 -6.16699 36.833 -18.5 46.5s-27.5 14.5 -45.5 14.5c-12 0 -25.833 -1.66699 -41.5 -5s-31.834 -7.16602 -48.501 -11.499s-33 -8.16602 -49 -11.499s-30.667 -5 -44 -5c-20.667 0 -39.667 2 -57 6s-32.833 8.66699 -46.5 14s-25.5 10.833 -35.5 16.5
s-17.333 10.167 -22 13.5l17 39c6 -4 14.167 -8.83301 24.5 -14.5s21.666 -11.167 33.999 -16.5s25.166 -9.83301 38.499 -13.5s26.333 -5.5 39 -5.5c20.667 0 38.834 1.83301 54.501 5.5s30.167 7.83398 43.5 12.501s26 8.83398 38 12.501s24.667 5.5 38 5.5
c82 0 123 -33.333 123 -100z" />
    <glyph glyph-name="uni0B4D" unicode="&#xb4d;" horiz-adv-x="0" 
d="M69 -258l-225 247h77l182 -250z" />
    <glyph glyph-name="uni0B4E" unicode="&#xb4e;" horiz-adv-x="0" 
 />
    <glyph glyph-name="uni0B56" unicode="&#xb56;" horiz-adv-x="0" 
d="M-16 768c0 -12.667 -1.99707 -24.501 -5.99707 -35.501s-8.33301 -21.167 -13 -30.5l-13 -25c-4 -7.33301 -6 -13.666 -6 -18.999v-6c0 -2 0.666992 -5.33301 2 -10h-44c-0.666992 0 -1.83398 0.5 -3.50098 1.5s-2.5 4.5 -2.5 10.5c0 10 2.16699 18.833 6.5 26.5
s9.16602 15.334 14.499 23.001s10.166 16 14.499 25s6.5 19.833 6.5 32.5c0 13.333 -3.5 23.833 -10.5 31.5s-15.5 13.5 -25.5 17.5s-21 6.5 -33 7.5s-23 1.5 -33 1.5c-13.333 0 -26 -2 -38 -6s-24.333 -8.33301 -37 -13s-25.834 -9 -39.501 -13s-28.5 -6 -44.5 -6
c-17.333 0 -33.833 2.33301 -49.5 7s-30.334 10 -44.001 16s-25.667 12.167 -36 18.5s-18.5 11.5 -24.5 15.5l15 43l23 -15c9.33301 -6 19.833 -11.833 31.5 -17.5s24.334 -10.5 38.001 -14.5s27.5 -6 41.5 -6c18 0 34.5 2 49.5 6s29 8.16699 42 12.5l37.5 12.5
c12 4 24.333 6 37 6c18.667 0 36.834 -2.33301 54.501 -7s33 -11.334 46 -20.001s23.5 -19 31.5 -31s12 -25 12 -39z" />
    <glyph glyph-name="uni0B57" unicode="&#xb57;" horiz-adv-x="165" 
d="M156 761c0 -16.667 -1.99805 -30.5039 -5.99805 -41.5039s-8.33301 -20.167 -13 -27.5c-6 -8 -12.333 -14.333 -19 -19l-2 -5v-668h-46v673c8 9.33301 17.333 20.833 28 34.5s16 30.5 16 50.5c0 21.333 -6.16699 36.833 -18.5 46.5s-27.5 14.5 -45.5 14.5
c-12 0 -25.833 -1.66699 -41.5 -5s-31.834 -7.16602 -48.501 -11.499s-33 -8.16602 -49 -11.499s-30.667 -5 -44 -5c-20.667 0 -39.667 2 -57 6s-32.833 8.66699 -46.5 14s-25.5 10.833 -35.5 16.5s-17.333 10.167 -22 13.5l17 39c6 -4 14.167 -8.83301 24.5 -14.5
s21.666 -11.167 33.999 -16.5s25.166 -9.83301 38.499 -13.5s26.333 -5.5 39 -5.5c20.667 0 38.834 1.83301 54.501 5.5s30.167 7.83398 43.5 12.501s26 8.83398 38 12.501s24.667 5.5 38 5.5c82 0 123 -33.333 123 -100z" />
    <glyph glyph-name="uni0B5C" unicode="&#xb5c;" horiz-adv-x="652" 
d="M627 347c0 -28.667 -4.00391 -51.3311 -12.0039 -67.998s-15.667 -29 -23 -37l-40 25c3.33301 6.66699 8.5 16 15.5 28s10.5 29.667 10.5 53c0 37.333 -6.5 71.666 -19.5 102.999s-31 58.166 -54 80.499s-50.167 39.833 -81.5 52.5s-65.666 19 -102.999 19
c-34 0 -65 -6.66699 -93 -20s-52.333 -30.5 -73 -51.5s-36.667 -44.5 -48 -70.5s-17 -51.333 -17 -76c0 -21.333 3.83301 -38.333 11.5 -51s16.334 -22.5 26.001 -29.5s19 -11.667 28 -14s14.833 -3.5 17.5 -3.5l14.5 14.5c7.66699 7.66699 17.334 15.667 29.001 24
s24.667 16.333 39 24s29.166 12.834 44.499 15.501l36 -34c-14 -4 -29.5 -10 -46.5 -18s-33.167 -18.833 -48.5 -32.5s-28.166 -30 -38.499 -49s-15.5 -40.833 -15.5 -65.5c0 -18 3.66699 -34.5 11 -49.5s17.333 -28.167 30 -39.5s27 -20.166 43 -26.499s33 -9.5 51 -9.5
c19.333 0 37.166 3.5 53.499 10.5s30.5 16.333 42.5 28s21.333 25.5 28 41.5s10 33 10 51c0 15.333 -4 30.166 -12 44.499s-16.333 26.166 -25 35.499l-71 -75l-41 35l154 155l37 -37l-46 -43c4 -3.33301 9.16699 -8.5 15.5 -15.5s12.333 -15.5 18 -25.5
s10.667 -21.167 15 -33.5s6.5 -25.5 6.5 -39.5c0 -28 -5.16699 -53.167 -15.5 -75.5s-24 -41.333 -41 -57s-36.5 -27.834 -58.5 -36.501s-44.667 -13 -68 -13c-30 0 -57 5.16699 -81 15.5s-44.333 24 -61 41s-29.5 36.333 -38.5 58s-13.5 44.167 -13.5 67.5
c0 18 1.83301 32 5.5 42s7.16699 18.667 10.5 26c-7.33301 1.33301 -17 4.33301 -29 9s-23.667 12.334 -35 23.001s-21.333 24.834 -30 42.501s-13 40.167 -13 67.5c0 40.667 8.83301 77.667 26.5 111s40.334 61.666 68.001 84.999s58.667 41.333 93 54
s68.166 19 101.499 19c42.667 0 82.334 -7.5 119.001 -22.5s68.334 -36 95.001 -63s47.667 -59.167 63 -96.5s23 -78.333 23 -123zM367.996 -131.997c0 -14.667 -5.16699 -27.334 -15.5 -38.001s-22.833 -16 -37.5 -16c-16 0 -29.167 5.33301 -39.5 16
s-15.5 23.334 -15.5 38.001c0 15.333 5.16699 28.5 15.5 39.5s23.5 16.5 39.5 16.5c14.667 0 27.167 -5.5 37.5 -16.5s15.5 -24.167 15.5 -39.5z" />
    <glyph glyph-name="uni0B5D" unicode="&#xb5d;" horiz-adv-x="669" 
d="M645 349c0 -13.333 -1.67383 -25.3311 -5.00684 -35.998s-7.66602 -22 -12.999 -34l-38 17l7 26.5c2 7.66699 3 16.167 3 25.5c0 34.667 -6.83301 67.167 -20.5 97.5s-33.167 57 -58.5 80s-56 41.167 -92 54.5s-76.667 20 -122 20
c-27.333 0 -54.166 -6.16699 -80.499 -18.5s-49.833 -28.833 -70.5 -49.5s-37.167 -44.167 -49.5 -70.5s-18.5 -53.833 -18.5 -82.5c0 -14 3 -26.333 9 -37s13 -19.667 21 -27s15.833 -13.166 23.5 -17.499s13.167 -6.83301 16.5 -7.5c2 2 5.5 6.16699 10.5 12.5
s11.333 13.5 19 21.5s16.5 16 26.5 24s21 15 33 21l37 -33c-8.66699 -5.33301 -19.667 -12.666 -33 -21.999s-26.166 -21 -38.499 -35s-22.833 -30 -31.5 -48s-13 -38.333 -13 -61c0 -20 3.83301 -38.167 11.5 -54.5s17.667 -30.333 30 -42s26.333 -20.5 42 -26.5
s31.5 -9 47.5 -9c2.66699 0 5.33398 0.166992 8.00098 0.5s6 1.16602 10 2.49902c-1.33301 4.66699 -3.5 11.667 -6.5 21s-6 19.666 -9 30.999s-5.66699 23 -8 35s-3.5 22.667 -3.5 32c0 20 2.83301 39 8.5 57s13.834 33.667 24.501 47s23.5 24 38.5 32s31.833 12 50.5 12
c36 0 64.667 -11.167 86 -33.5s32 -50.166 32 -83.499c0 -25.333 -5.16699 -48.5 -15.5 -69.5s-22.5 -39.167 -36.5 -54.5s-28.667 -27.833 -44 -37.5s-28 -15.834 -38 -18.501l29 -21c6.66699 -4.66699 12.167 -8.16699 16.5 -10.5s8.16602 -4.16602 11.499 -5.49902
s8 -3.33301 14 -6l-28 -36c-16.667 7.33301 -33.667 17.166 -51 29.499s-30 23.833 -38 34.5c-3.33301 -1.33301 -9.66602 -2.83301 -18.999 -4.5s-20.666 -2.5 -33.999 -2.5c-31.333 0 -58 6.16699 -80 18.5s-40.333 27.833 -55 46.5s-25.334 38.5 -32.001 59.5
s-10 40.5 -10 58.5s1.5 33 4.5 45s6.16699 22 9.5 30c-5.33301 2 -13.166 5.66699 -23.499 11s-20.666 13.166 -30.999 23.499s-19.5 23.666 -27.5 39.999s-12 36.833 -12 61.5c0 42.667 8.33301 80.667 25 114s38.167 61.166 64.5 83.499s56 39.333 89 51
s65.5 17.5 97.5 17.5c44.667 0 87 -7.16699 127 -21.5s75 -34.666 105 -60.999s53.833 -58 71.5 -95s26.5 -77.833 26.5 -122.5zM482.993 192.002c0 18 -5.66602 33.833 -16.999 47.5s-29 20.5 -53 20.5c-10.667 0 -20.5 -2.83301 -29.5 -8.5s-16.833 -13 -23.5 -22
s-11.834 -19 -15.501 -30s-5.5 -21.833 -5.5 -32.5c0 -11.333 0.666992 -23.166 2 -35.499s3.16602 -24.166 5.49902 -35.499s5.33301 -21.333 9 -30s7.83398 -14.334 12.501 -17.001c5.33301 1.33301 14.333 5.16602 27 11.499s25.5 15.5 38.5 27.5s24.5 26.667 34.5 44
s15 37.333 15 60zM367.994 -131.998c0 -14.667 -5.16699 -27.334 -15.5 -38.001s-22.833 -16 -37.5 -16c-16 0 -29.167 5.33301 -39.5 16s-15.5 23.334 -15.5 38.001c0 15.333 5.16699 28.5 15.5 39.5s23.5 16.5 39.5 16.5c14.667 0 27.167 -5.5 37.5 -16.5
s15.5 -24.167 15.5 -39.5z" />
    <glyph glyph-name="uni0B5F" unicode="&#xb5f;" horiz-adv-x="750" 
d="M734 65c0 -24 -4 -43.501 -12 -58.501s-17.167 -27 -27.5 -36s-20.5 -15.333 -30.5 -19s-17 -5.83398 -21 -6.50098l-3 -13l77 -43l-33 -19l-159 77c16 3.33301 33.833 8 53.5 14s38.167 13.5 55.5 22.5s31.833 19.5 43.5 31.5s17.5 26 17.5 42
c0 22 -5.5 39.167 -16.5 51.5s-28.167 18.5 -51.5 18.5c-22 0 -40.167 -6.66699 -54.5 -20s-29.333 -28.166 -45 -44.499s-34.5 -31.166 -56.5 -44.499s-52 -20 -90 -20c-25.333 0 -49.833 3.83301 -73.5 11.5s-44.5 18.334 -62.5 32.001s-32.333 30 -43 49
s-16 39.833 -16 62.5c0 1.33301 0.833008 6.33301 2.5 15l4.5 24l-84 -49c9.33301 -7.33301 16 -14.166 20 -20.499s6 -13.5 6 -21.5c0 -15.333 -4.33301 -27.833 -13 -37.5s-19.667 -14.5 -33 -14.5s-25.333 5.16699 -36 15.5s-16 23.166 -16 38.499
c0 20.667 3.66699 36.834 11 48.501s19.666 22.167 36.999 31.5l120 70c-9.33301 2.66699 -19.833 7 -31.5 13s-22.5 14.333 -32.5 25s-18.5 23.5 -25.5 38.5s-10.5 32.833 -10.5 53.5c0 37.333 7.33301 72.166 22 104.499s34.667 60.5 60 84.5s54.833 42.833 88.5 56.5
s69.5 20.5 107.5 20.5c34.667 0 66 -4.66699 94 -14s52.5 -20.333 73.5 -33s38.167 -25.834 51.5 -39.501s22.666 -24.5 27.999 -32.5v112h45v-478c2.66699 -2 7.33398 -5.16699 14.001 -9.5s13.334 -10.5 20.001 -18.5s12.5 -17.833 17.5 -29.5s7.5 -25.5 7.5 -41.5z
M630 450.999c0 2.66699 -5.49707 12.167 -16.4971 28.5s-26.833 33.833 -47.5 52.5s-46.334 35.5 -77.001 50.5s-65.334 22.5 -104.001 22.5c-37.333 0 -70.333 -6.33301 -99 -19s-52.834 -29.5 -72.501 -50.5s-34.5 -45 -44.5 -72s-15 -54.833 -15 -83.5
c0 -14 2.66699 -26.667 8 -38s12.166 -21 20.499 -29s18 -14.333 29 -19s22.5 -7 34.5 -7c7.33301 0 14.166 0.666992 20.499 2s13.166 3.66602 20.499 6.99902l75 43l25 -30l-108 -64l-6.5 -6c-4.33301 -4 -9 -10 -14 -18s-9.5 -18.333 -13.5 -31s-6 -27.667 -6 -45
c0 -18 4.83301 -33.5 14.5 -46.5s21.834 -23.667 36.501 -32s31 -14.666 49 -18.999s35 -6.5 51 -6.5c17.333 0 32.333 3.16699 45 9.5s24.334 14.333 35.001 24s20.834 20 30.501 31s20.5 21.333 32.5 31s25.667 17.667 41 24s34 9.5 56 9.5v281z" />
    <glyph glyph-name="uni0B60" unicode="&#xb60;" horiz-adv-x="695" 
d="M642 117c0 -7.33301 -1.00195 -15.8291 -3.00195 -25.4961s-5.83301 -18.834 -11.5 -27.501s-13.834 -16.167 -24.501 -22.5s-24.667 -9.83301 -42 -10.5l64 -97h-51l-96 151c10.667 -4.66699 21 -8.66699 31 -12s21 -5 33 -5c20.667 0 35.334 4.16699 44.001 12.5
s13 19.166 13 32.499s-4.66699 27 -14 41s-25.666 27 -48.999 39c23.333 10.667 38.833 22.5 46.5 35.5s11.5 25.833 11.5 38.5c0 13.333 -4.5 25.666 -13.5 36.999s-24.5 17 -46.5 17c6.66699 10.667 13 21.5 19 32.5s9 22.167 9 33.5c0 32 -6.83301 61.167 -20.5 87.5
s-31.834 49 -54.501 68s-48.5 33.833 -77.5 44.5s-58.833 16 -89.5 16c-33.333 0 -64 -6.33301 -92 -19s-52.333 -29.5 -73 -50.5s-36.667 -44.833 -48 -71.5s-17 -53.667 -17 -81c0 -20 3.33301 -36.833 10 -50.5s14.5 -24.834 23.5 -33.501s18 -15.167 27 -19.5l19.5 -9.5
c17.333 15.333 34.333 26.166 51 32.499s36 9.5 58 9.5s42.5 -4.16699 61.5 -12.5s35.333 -19.5 49 -33.5s24.5 -30.333 32.5 -49s12 -38.667 12 -60c0 -22 -4 -42.5 -12 -61.5s-18.833 -35.833 -32.5 -50.5s-30 -26.167 -49 -34.5s-39.5 -12.5 -61.5 -12.5
s-42.5 4.16699 -61.5 12.5s-35.5 19.833 -49.5 34.5s-25 31.667 -33 51s-12 39.666 -12 60.999c0 11.333 1.83301 23.666 5.5 36.999s6.83398 24 9.50098 32c-4.66699 2.66699 -12.5 7.83398 -23.5 15.501s-22.167 17.834 -33.5 30.501s-21.333 28.167 -30 46.5
s-13 39.166 -13 62.499c0 38.667 7.66699 74.5 23 107.5s36.166 61.5 62.499 85.5s57 42.833 92 56.5s71.833 20.5 110.5 20.5c37.333 0 73 -6.16699 107 -18.5s64 -30 90 -53s46.667 -50.667 62 -83s23 -68.166 23 -107.499c0 -6 -0.333008 -12.833 -1 -20.5
s-3.66699 -15.167 -9 -22.5c10.667 -7.33301 20.667 -16.666 30 -27.999s14 -26.333 14 -45c0 -15.333 -2.66699 -29.5 -8 -42.5s-15.666 -25.5 -30.999 -37.5c16.667 -12.667 27.334 -25.667 32.001 -39s7 -25 7 -35zM385.998 155.004c0 14 -2.83203 27.333 -8.49902 40
s-13.334 23.834 -23.001 33.501s-21 17.5 -34 23.5s-26.833 9 -41.5 9s-28.667 -3 -42 -9s-25 -14 -35 -24s-18 -21.5 -24 -34.5s-9 -26.5 -9 -40.5c0 -15.333 3 -29.5 9 -42.5s14 -24.5 24 -34.5s21.667 -17.833 35 -23.5s27.333 -8.5 42 -8.5c14 0 27.5 3 40.5 9
s24.5 14.167 34.5 24.5s17.833 22.166 23.5 35.499s8.5 27.333 8.5 42z" />
    <glyph glyph-name="uni0B61" unicode="&#xb61;" horiz-adv-x="517" 
d="M478 -258l-224.997 246.996h26c-30.667 0.666992 -60.334 5.83398 -89.001 15.501s-54 23.167 -76 40.5s-39.667 38 -53 62s-20 51 -20 81c0 36 8.16699 65.667 24.5 89s36.833 43.166 61.5 59.499s51.5 30.333 80.5 42s55.833 24 80.5 37s45.167 28.333 61.5 46
s24.5 40.167 24.5 67.5c0 14 -3 26 -9 36s-13.833 18.333 -23.5 25s-20.334 11.5 -32.001 14.5s-22.834 4.5 -33.501 4.5c-12.667 0 -25.334 -1.5 -38.001 -4.5s-24 -7.83301 -34 -14.5s-18.167 -15.167 -24.5 -25.5s-9.5 -22.5 -9.5 -36.5
c0 -9.33301 0.833008 -18.333 2.5 -27s6.16699 -16.667 13.5 -24l-36 -22c-9.33301 12.667 -16 24 -20 34s-6 22.333 -6 37c0 19.333 4.16699 37 12.5 53s19.333 29.5 33 40.5s29.5 19.5 47.5 25.5s36.667 9 56 9c20 0 39.167 -2.66699 57.5 -8s34.333 -13.333 48 -24
s24.667 -24.167 33 -40.5s12.5 -35.833 12.5 -58.5c0 -30.667 -8.16699 -56.167 -24.5 -76.5s-37 -38.166 -62 -53.499s-51.833 -29.166 -80.5 -41.499s-55.5 -25.666 -80.5 -39.999s-45.667 -30.833 -62 -49.5s-24.5 -42 -24.5 -70c0 -29.333 7 -53.833 21 -73.5
s31 -35.5 51 -47.5s40.5 -20.5 61.5 -25.5s38.5 -7.5 52.5 -7.5h6.5c2.33301 0 4.5 0.333008 6.5 1c-17.333 7.33301 -30.666 19.666 -39.999 36.999s-14 35.333 -14 54c0 14 2.66699 28.167 8 42.5s13.333 27.333 24 39s24 21.167 40 28.5s35 11 57 11
c16 0 31.333 -2.83301 46 -8.5s27.5 -13.5 38.5 -23.5s19.833 -21.833 26.5 -35.5s10 -28.5 10 -44.5c0 -25.333 -5.5 -47.166 -16.5 -65.499s-25.333 -33.5 -43 -45.5s-37.5 -21.167 -59.5 -27.5s-43.667 -10.166 -65 -11.499h30l182 -250zM434.003 132.996
c0 18.667 -6.16504 34.835 -18.498 48.502s-29.833 20.5 -52.5 20.5c-19.333 0 -36.5 -6.83301 -51.5 -20.5s-22.5 -30.834 -22.5 -51.501c0 -10 2.16699 -19.5 6.5 -28.5s10.166 -17 17.499 -24s15.5 -12.5 24.5 -16.5s18.167 -6 27.5 -6
c19.333 0 35.666 7.66699 48.999 23s20 33.666 20 54.999z" />
    <glyph glyph-name="uni0B66" unicode="&#xb66;" horiz-adv-x="740" 
d="M710 328c0 -46.667 -9 -90.333 -27 -131s-42.5 -76 -73.5 -106s-67 -53.667 -108 -71s-84.833 -26 -131.5 -26c-46 0 -89 8.83301 -129 26.5s-75 41.5 -105 71.5s-53.667 65.167 -71 105.5s-26 83.166 -26 128.499s8.83301 87.666 26.5 126.999s41.667 73.5 72 102.5
s65.5 51.833 105.5 68.5s82.333 25 127 25c45.333 0 88.5 -8.16699 129.5 -24.5s77 -38.666 108 -66.999s55.667 -62.166 74 -101.499s27.833 -82 28.5 -128zM662 328.001c-0.666992 38.667 -8.83398 74.832 -24.501 108.499s-36.667 62.834 -63 87.501
s-56.666 44.167 -90.999 58.5s-70.833 21.5 -109.5 21.5s-75.5 -7 -110.5 -21s-65.667 -33.333 -92 -58s-47.166 -53.834 -62.499 -87.501s-23 -70.167 -23 -109.5s7.16699 -76.5 21.5 -111.5s34.166 -65.667 59.499 -92s55.333 -47.166 90 -62.499s72 -23 112 -23
c40.667 0 78.667 7.5 114 22.5s66.333 35.5 93 61.5s47.667 56.5 63 91.5s23 72.833 23 113.5z" />
    <glyph glyph-name="uni0B67" unicode="&#xb67;" horiz-adv-x="740" 
d="M565 487c0 -26.667 -4.49805 -51.8301 -13.498 -75.4971s-21.667 -44.5 -38 -62.5s-35.5 -32.333 -57.5 -43s-46 -16 -72 -16c-24.667 0 -47 4.33301 -67 13s-43 24.667 -69 48c3.33301 -14.667 10 -34.834 20 -60.501s25.5 -53.667 46.5 -84s48.333 -61.833 82 -94.5
s75.834 -63.334 126.501 -92.001l-33 -32c-6.66699 3.33301 -17.334 9.83301 -32.001 19.5s-30.667 20.834 -48 33.501s-34.5 26.167 -51.5 40.5s-30.833 28.166 -41.5 41.499c-12.667 14.667 -26.834 33.667 -42.501 57s-30.5 49.666 -44.5 78.999s-25.667 61 -35 95
s-14 69 -14 105c0 33.333 4.83301 63 14.5 89s23.167 47.833 40.5 65.5s37.833 31.167 61.5 40.5s49.5 14 77.5 14c25.333 0 49.333 -4.5 72 -13.5s42.667 -21.5 60 -37.5s31.166 -35.167 41.499 -57.5s15.833 -46.5 16.5 -72.5zM512.002 480.004
c0 19.333 -3.66699 37.5 -11 54.5s-17.333 31.833 -30 44.5s-27.5 22.667 -44.5 30s-34.833 11 -53.5 11c-19.333 0 -37.5 -3.66699 -54.5 -11s-31.667 -17.333 -44 -30s-22.166 -27.5 -29.499 -44.5s-11 -35.167 -11 -54.5s3.66699 -37.666 11 -54.999
s17.166 -32.5 29.499 -45.5s27 -23.167 44 -30.5s35.167 -11 54.5 -11c18.667 0 36.5 3.66699 53.5 11s31.833 17.5 44.5 30.5s22.667 28.167 30 45.5s11 35.666 11 54.999z" />
    <glyph glyph-name="uni0B68" unicode="&#xb68;" horiz-adv-x="740" 
d="M584 466c0 -37.333 -4.50293 -73.3311 -13.5029 -107.998s-20.5 -66.834 -34.5 -96.501s-29.5 -56.667 -46.5 -81s-33.5 -45.166 -49.5 -62.499c-11.333 -12.667 -25.666 -26.167 -42.999 -40.5l-52 -41.5c-17.333 -13.333 -33.666 -25.333 -48.999 -36
s-27 -18.334 -35 -23.001l-25 39c52 28.667 95.167 59.167 129.5 91.5s62 63.333 83 93s36.5 56.167 46.5 79.5s16.667 40.666 20 51.999l-20.5 -11.5c-7.66699 -4.33301 -16.667 -8.5 -27 -12.5s-22.333 -7.33301 -36 -10s-29.5 -4 -47.5 -4c-28 0 -54.667 5 -80 15
s-47.5 23.833 -66.5 41.5s-34 38.5 -45 62.5s-16.5 49.667 -16.5 77s5.5 52.5 16.5 75.5s26 42.833 45 59.5s40.833 29.667 65.5 39s50.667 14 78 14c28.667 0 55.334 -4.66699 80.001 -14s46 -23 64 -41s32.333 -40.167 43 -66.5s16 -56.5 16 -90.5zM538.997 485.002
c0 20.667 -4.16406 40.5 -12.4971 59.5s-19.833 35.5 -34.5 49.5s-31.5 25.167 -50.5 33.5s-39.167 12.5 -60.5 12.5s-41.666 -4 -60.999 -12s-36.166 -19 -50.499 -33s-25.666 -30.5 -33.999 -49.5s-12.5 -39.167 -12.5 -60.5s4.16699 -41.5 12.5 -60.5
s19.666 -35.667 33.999 -50s31.166 -25.666 50.499 -33.999s39.666 -12.5 60.999 -12.5s41.666 4.16699 60.999 12.5s36.166 19.666 50.499 33.999s25.666 31 33.999 50s12.5 39.167 12.5 60.5z" />
    <glyph glyph-name="uni0B69" unicode="&#xb69;" horiz-adv-x="740" 
d="M638 0l0.00390625 534.999c0 12 -2.83301 24 -8.5 36s-13.834 22.833 -24.501 32.5s-23.334 17.5 -38.001 23.5s-31 9 -49 9c-15.333 0 -30.333 -2.66699 -45 -8s-27.667 -12.333 -39 -21s-20.666 -18.834 -27.999 -30.501s-11 -23.5 -11 -35.5v-541h-44v541
c0 0.666992 -2.16699 5.66699 -6.5 15s-11.166 19.5 -20.499 30.5s-22 21 -38 30s-35.333 13.5 -58 13.5c-22 0 -41.667 -5.83301 -59 -17.5s-32.333 -26.834 -45 -45.501s-22.334 -39.667 -29.001 -63s-10 -46.666 -10 -69.999c0 -7.33301 0.5 -19.166 1.5 -35.499
s3.66699 -33 8 -50s10.666 -32 18.999 -45s19.833 -19.5 34.5 -19.5c5.33301 0 11.166 0.333008 17.499 1s12.333 2.5 18 5.5s10.5 7.5 14.5 13.5s6 14 6 24c0 15.333 -4.66699 28 -14 38s-19 17.667 -29 23l10 39c6 -2 13.333 -5.16699 22 -9.5s17 -10.166 25 -17.499
s15 -16.166 21 -26.499s9 -22.833 9 -37.5c0 -26 -7.83301 -48.833 -23.5 -68.5s-37.167 -29.5 -64.5 -29.5c-22 0 -40.5 5.16699 -55.5 15.5s-27.167 24 -36.5 41s-16.166 36.667 -20.499 59s-6.5 45.5 -6.5 69.5c0 31.333 3.5 61.833 10.5 91.5s18.167 56.167 33.5 79.5
s35 42.166 59 56.499s53 21.5 87 21.5c29.333 0 54.5 -5.16699 75.5 -15.5s42.167 -26.833 63.5 -49.5c2.66699 3.33301 7.5 8.83301 14.5 16.5s16.167 15.5 27.5 23.5s25.166 15 41.499 21s35.166 9 56.499 9c26.667 0 49.5 -3.5 68.5 -10.5s35 -15.833 48 -26.5
s23.167 -22.167 30.5 -34.5s13 -24 17 -35s6.66699 -20.167 8 -27.5l2 -11v-533h-46z" />
    <glyph glyph-name="uni0B6A" unicode="&#xb6a;" horiz-adv-x="740" 
d="M673 657c-10 -18.667 -19.998 -35.501 -29.998 -50.501s-20.333 -29.167 -31 -42.5s-22.334 -26.333 -35.001 -39s-26.667 -25.667 -42 -39c-8.66699 -8 -18.334 -16.167 -29.001 -24.5l-32 -24.5l-30 -22.5c-9.33301 -7 -16.333 -12.833 -21 -17.5
c8 -3.33301 20.333 -11 37 -23s33.334 -27.167 50.001 -45.5s31.167 -39.333 43.5 -63s18.5 -49.5 18.5 -77.5c0 -30.667 -5.16699 -58.167 -15.5 -82.5s-24.5 -45.166 -42.5 -62.499s-39 -30.666 -63 -39.999s-49.667 -14 -77 -14s-53.166 4.83301 -77.499 14.5
s-45.5 23.167 -63.5 40.5s-32.167 38 -42.5 62s-15.5 50.333 -15.5 79c0 27.333 6.5 53.166 19.5 77.499s28.167 46.166 45.5 65.499s34.666 35.833 51.999 49.5s30.666 23.5 39.999 29.5c-8.66699 2 -18.334 5.83301 -29.001 11.5s-21.5 12 -32.5 19
s-21.833 14.5 -32.5 22.5s-20 15.333 -28 22c-16.667 13.333 -31.5 26.333 -44.5 39s-25.333 25.5 -37 38.5s-23.167 27 -34.5 42s-23 31.833 -35 50.5l55 27c5.33301 -13.333 17 -31.5 35 -54.5s41.667 -49.833 71 -80.5c12.667 -14 26.334 -27 41.001 -39
s29.167 -22.833 43.5 -32.5s27.666 -18 39.999 -25s22.5 -12.167 30.5 -15.5c26 13.333 51.333 28.833 76 46.5s48.667 39.5 72 65.5c30 34.667 51.333 63.334 64 86.001s21.334 39.667 26.001 51zM523.002 188.999c0 24.667 -7.1709 48.167 -21.5039 70.5
s-30.5 42 -48.5 59s-35 30.667 -51 41s-25.667 16.5 -29 18.5c-3.33301 -2 -12.666 -8.33301 -27.999 -19s-31.666 -24.667 -48.999 -42s-32.833 -37.5 -46.5 -60.5s-20.5 -47.5 -20.5 -73.5c0 -20 3.66699 -38.833 11 -56.5s17.333 -33.167 30 -46.5
s27.667 -23.833 45 -31.5s36 -11.5 56 -11.5c20.667 0 40.334 3.5 59.001 10.5s34.834 17.167 48.501 30.5s24.5 29.333 32.5 48s12 39.667 12 63z" />
    <glyph glyph-name="uni0B6B" unicode="&#xb6b;" horiz-adv-x="740" 
d="M661 161c-4 4.66699 -8.99902 10.1729 -14.999 16.5059s-12.5 12.833 -19.5 19.5l-22 20c-7.66699 6.66699 -15.167 12.667 -22.5 18c-8.66699 6 -18.667 12 -30 18l-34 17.5l-33 16c-10.667 5 -19.334 9.5 -26.001 13.5c4 -8 8.83301 -16.833 14.5 -26.5
s11.167 -20.167 16.5 -31.5s9.83301 -23.5 13.5 -36.5s5.5 -26.5 5.5 -40.5c0 -26.667 -4.33301 -50.334 -13 -71.001s-20.5 -38 -35.5 -52s-32.667 -24.5 -53 -31.5s-41.833 -10.5 -64.5 -10.5c-23.333 0 -45 3.83301 -65 11.5s-37.667 18.667 -53 33
s-27.333 31.666 -36 51.999s-13 43.166 -13 68.499c0 21.333 6.5 42.333 19.5 63s27.5 38.667 43.5 54c18.667 18 40 35 64 51c-19.333 5.33301 -38.333 11.333 -57 18c-16 5.33301 -32.667 11.666 -50 18.999s-32.333 15.666 -45 24.999c-9.33301 6 -19 13.167 -29 21.5
l-29 25l-26 23.5l-20 18l34 32c7.33301 -9.33301 18 -21.166 32 -35.499s30.333 -28.5 49 -42.5c28 -21.333 53.833 -36.333 77.5 -45s41.5 -14.667 53.5 -18c-2 4.66699 -5.66699 11 -11 19s-10.833 17.667 -16.5 29s-10.5 24.166 -14.5 38.499s-6 29.833 -6 46.5
c0 22.667 4.16699 44.167 12.5 64.5s20 38.166 35 53.499s32.667 27.5 53 36.5s42.5 13.5 66.5 13.5c22.667 0 44 -4.33301 64 -13s37.333 -20.5 52 -35.5s26.334 -32.5 35.001 -52.5s13 -41.333 13 -64c0 -27.333 -7 -51.5 -21 -72.5s-29.333 -38.833 -46 -53.5
c-20 -17.333 -42.333 -32.333 -67 -45l50 -16l41.5 -15c14.333 -5.33301 26.166 -10.333 35.499 -15c16 -8 30.5 -16.833 43.5 -26.5s24.5 -19 34.5 -28s18.667 -17.167 26 -24.5l17 -17zM528.001 517.006c0 35.333 -10.667 62.999 -32 82.999s-49.666 30 -84.999 30
c-16 0 -31 -3.16699 -45 -9.5s-26.167 -14.666 -36.5 -24.999s-18.5 -22.5 -24.5 -36.5s-9 -29 -9 -45c0 -25.333 3.83301 -47.5 11.5 -66.5s16.167 -34.833 25.5 -47.5s18.333 -22.5 27 -29.5s14 -10.833 16 -11.5c3.33301 0.666992 13.166 3.5 29.499 8.5
s33.5 13.5 51.5 25.5s34.333 28 49 48s22 45.333 22 76zM464.001 171.005c0 20.667 -4.16699 40.002 -12.5 58.002s-17.833 33.5 -28.5 46.5s-20.667 23.5 -30 31.5s-15.333 12.667 -18 14c-2.66699 -1.33301 -12 -5.5 -28 -12.5s-33 -17 -51 -30s-34.333 -28.833 -49 -47.5
s-22 -40 -22 -64c0 -18 3 -34.333 9 -49s14.333 -27.334 25 -38.001s23 -18.834 37 -24.501s29 -8.5 45 -8.5c16.667 0 32.5 2.5 47.5 7.5s28 12.5 39 22.5s19.833 22.833 26.5 38.5s10 34.167 10 55.5z" />
    <glyph glyph-name="uni0B6C" unicode="&#xb6c;" horiz-adv-x="740" 
d="M673 458c0 -40.667 -6.50684 -78.6738 -19.5068 -114.007s-30 -67.833 -51 -97.5s-45.167 -56.5 -72.5 -80.5s-55.333 -45.333 -84 -64c-31.333 -20 -65.166 -36.5 -101.499 -49.5s-71.166 -23.333 -104.499 -31s-63.166 -13 -89.499 -16s-45.5 -4.83301 -57.5 -5.5v49
c11.333 0 29.166 1.5 53.499 4.5s51.833 8.16699 82.5 15.5s63.167 17.333 97.5 30s67.5 29 99.5 49c27.333 16.667 53 35.834 77 57.501s45 45 63 70s32.333 52 43 81s16 59.5 16 91.5c0 25.333 -5 49.666 -15 72.999s-23.167 43.833 -39.5 61.5s-35.5 31.834 -57.5 42.501
s-45 16 -69 16c-14.667 0 -29.334 -2 -44.001 -6s-27.667 -10 -39 -18s-20.666 -17.833 -27.999 -29.5s-11 -25.167 -11 -40.5c0 -11.333 3.5 -20.666 10.5 -27.999s15.833 -14.166 26.5 -20.499s22.334 -12.666 35.001 -18.999s24.334 -13.666 35.001 -21.999
s19.5 -18.333 26.5 -30s10.5 -25.834 10.5 -42.501c0 -19.333 -4 -37.166 -12 -53.499s-18.833 -30.5 -32.5 -42.5s-29.334 -21.333 -47.001 -28s-36.167 -10 -55.5 -10c-24 0 -45.5 4 -64.5 12s-35.667 17.5 -50 28.5s-26.166 22.167 -35.499 33.5s-16 20 -20 26l38 27
c4 -6 10.333 -13.333 19 -22s18.667 -17.167 30 -25.5s23.833 -15.333 37.5 -21s27.834 -8.5 42.501 -8.5c12.667 0 25.167 1.83301 37.5 5.5s23.333 9 33 16s17.5 15.667 23.5 26s9 21.833 9 34.5c0 12 -3.66699 21.833 -11 29.5s-16.666 14.667 -27.999 21
s-23.333 12.5 -36 18.5s-24.667 13 -36 21s-20.666 17.667 -27.999 29s-11 25.333 -11 42c0 22 4.83301 41.833 14.5 59.5s22.667 32.834 39 45.501s35 22.334 56 29.001s42.5 10 64.5 10c32 0 62 -5.66699 90 -17s52.333 -27 73 -47s37 -44.167 49 -72.5s18 -59.5 18 -93.5
z" />
    <glyph glyph-name="uni0B6D" unicode="&#xb6d;" horiz-adv-x="740" 
d="M648 407c0 -40 -5.99902 -75.6777 -17.999 -107.011s-28.667 -60 -50 -86s-46.333 -49.667 -75 -71s-59.334 -41.666 -92.001 -60.999c-26.667 -15.333 -55 -28.5 -85 -39.5s-58.833 -20 -86.5 -27s-52.5 -12.333 -74.5 -16s-38.333 -6.5 -49 -8.5l1 46
c24 4 52.5 10 85.5 18s67.167 18.833 102.5 32.5s70.333 30.334 105 50.001s65.834 42.834 93.501 69.501s50 56.834 67 90.501s25.5 71.5 25.5 113.5c0 30.667 -5.5 59.834 -16.5 87.501s-26.167 51.834 -45.5 72.501s-42.833 37 -70.5 49s-57.834 18 -90.501 18
s-62 -6.16699 -88 -18.5s-48 -28.166 -66 -47.499s-31.833 -40.833 -41.5 -64.5s-14.5 -46.5 -14.5 -68.5c0 -11.333 1.66699 -23.5 5 -36.5s7.5 -25.667 12.5 -38s10.833 -23.333 17.5 -33s13 -16.5 19 -20.5c-4.66699 8 -8.33398 15.167 -11.001 21.5s-4 15.166 -4 26.499
c0 8 2.16699 17.833 6.5 29.5s11 22.834 20 33.501s20.5 19.834 34.5 27.501s31 11.5 51 11.5c16 0 31 -2.83301 45 -8.5s26.333 -13.5 37 -23.5s19.167 -22 25.5 -36s9.5 -29.333 9.5 -46c0 -16 -3.16699 -30.667 -9.5 -44s-14.666 -25 -24.999 -35
s-22.666 -18 -36.999 -24s-29.5 -9.33301 -45.5 -10c-28 0 -54.167 5.5 -78.5 16.5s-45.333 25.667 -63 44s-31.5 40 -41.5 65s-15 51.5 -15 79.5c0 31.333 7 61.833 21 91.5s32.833 55.834 56.5 78.501s51.167 40.834 82.5 54.501s64.666 20.5 99.999 20.5
c38 0 73.5 -7.33301 106.5 -22s61.5 -34.667 85.5 -60s43 -54.666 57 -87.999s21 -69 21 -107zM385.001 345.989c0 19.333 -6.16895 36.001 -18.502 50.001s-28.166 21 -47.499 21c-20 0 -37.167 -6.5 -51.5 -19.5s-21.5 -29.167 -21.5 -48.5
c0 -18.667 7 -34.834 21 -48.501s31.333 -20.5 52 -20.5c20 0 35.833 6.5 47.5 19.5s17.834 28.5 18.501 46.5z" />
    <glyph glyph-name="uni0B6E" unicode="&#xb6e;" horiz-adv-x="740" 
d="M180 643v-643h-45v684h443v-41h-398z" />
    <glyph glyph-name="uni0B6F" unicode="&#xb6f;" horiz-adv-x="740" 
d="M332 636c-5.33301 -4 -14.334 -11.999 -27.001 -23.999s-25.834 -28.5 -39.501 -49.5s-25.667 -46.333 -36 -76s-15.5 -64.167 -15.5 -103.5c0 -52 10.333 -98.667 31 -140s45 -77.5 73 -108.5s56.5 -56.667 85.5 -77s51.833 -34.833 68.5 -43.5l-46 -23
c-5.33301 2.66699 -15.333 8.83398 -30 18.501s-31.5 22.5 -50.5 38.5s-38.667 35 -59 57s-39.166 47 -56.499 75s-31.5 59 -42.5 93s-16.5 70.667 -16.5 110c0 37.333 3.83301 70.5 11.5 99.5s17.167 54.5 28.5 76.5s23.833 40.833 37.5 56.5s26.834 28.667 39.501 39
s23.667 18.166 33 23.499s15.333 8.66602 18 9.99902l12 -11.5l30.5 -29.5l41 -39.5l43 -42l38 -37l25.5 -24.5v181h44v-288z" />
    <glyph glyph-name="uni0B70" unicode="&#xb70;" horiz-adv-x="620" 
d="M221 -23l-199 344h53l146 -253l324 574h50zM273 355c0 -14.667 -5.33398 -27.001 -16.001 -37.001s-23 -15 -37 -15c-13.333 0 -25.166 4.83301 -35.499 14.5s-15.5 21.834 -15.5 36.501c0 15.333 5 28.5 15 39.5s22 16.5 36 16.5c15.333 0 28 -5.33301 38 -16
s15 -23.667 15 -39z" />
    <glyph glyph-name="uni0B71" unicode="&#xb71;" horiz-adv-x="619" 
d="M555 472c-4 10.667 -11.332 24.6621 -21.999 41.9951s-25.667 34.333 -45 51s-43.833 31.167 -73.5 43.5s-65.834 18.5 -108.501 18.5c-27.333 0 -53.833 -4.66699 -79.5 -14s-48.167 -22.5 -67.5 -39.5s-34.833 -37.833 -46.5 -62.5s-17.5 -52 -17.5 -82
c0 -29.333 6.66699 -55 20 -77s30.5 -40.333 51.5 -55s44.167 -25.667 69.5 -33s50.333 -11 75 -11c20.667 0 40.5 2.66699 59.5 8s35.667 12 50 20s25.666 16.5 33.999 25.5s12.5 17.5 12.5 25.5c0 19.333 -4.83301 33 -14.5 41s-20.834 12 -33.501 12
c-12 0 -23 -3.33301 -33 -10l-42 -29l-29 34l37 23c7.33301 5.33301 12 11.333 14 18s3 14.667 3 24c0 15.333 -5.66699 29 -17 41s-26 18 -44 18c-12.667 0 -22.834 -2.16699 -30.501 -6.5s-13.5 -9.66602 -17.5 -15.999s-6.5 -13.666 -7.5 -21.999s-1.5 -16.5 -1.5 -24.5
v-13c0 -4.66699 0.666992 -9.33398 2 -14.001l-40 -7c-2 6 -3.5 12.5 -4.5 19.5s-1.5 13.167 -1.5 18.5c0 30 8.5 55.333 25.5 76s41.5 31 73.5 31c19.333 0 35.666 -3.83301 48.999 -11.5s24.166 -17.167 32.499 -28.5s14.333 -23.333 18 -36s5.5 -23.667 5.5 -33
c0 -7.33301 -0.333008 -12.333 -1 -15c8.66699 0 18.834 -1 30.501 -3s22.834 -6.5 33.501 -13.5s19.834 -17.333 27.501 -31s11.5 -32.167 11.5 -55.5v-319h-46v97c-5.33301 -4 -13.5 -9.5 -24.5 -16.5s-24.5 -14 -40.5 -21s-34.333 -13 -55 -18s-43.667 -7.5 -69 -7.5
c-15.333 0 -32.333 1.83301 -51 5.5s-36 10.834 -52 21.501s-29.5 25.5 -40.5 44.5s-16.5 44.167 -16.5 75.5c0 6.66699 1.33301 14 4 22s5.83398 15.5 9.50098 22.5s7.33398 13.333 11.001 19l8.5 13.5l-24.5 18c-11.667 8.66699 -23.5 20.334 -35.5 35.001
s-22.5 32.167 -31.5 52.5s-13.5 43.833 -13.5 70.5c0 34 6.5 65.333 19.5 94s31 53.334 54 74.001s50.333 36.834 82 48.501s66.5 17.5 104.5 17.5c51.333 0 94.5 -7.5 129.5 -22.5s63.5 -32.333 85.5 -52s38.5 -39 49.5 -58s18.167 -32.167 21.5 -39.5zM467.001 257.995
c-4.66699 -3.33301 -12.001 -7.5 -22.001 -12.5s-22 -10 -36 -15s-29.333 -9.33301 -46 -13s-34 -5.5 -52 -5.5c-34.667 0 -61.5 3.33301 -80.5 10s-31.167 11.667 -36.5 15c-1.33301 -2 -3.66602 -5.16699 -6.99902 -9.5s-6.5 -9.83301 -9.5 -16.5s-5.66699 -14 -8 -22
s-3.5 -16.333 -3.5 -25c0 -19.333 4.5 -34.666 13.5 -45.999s19.667 -19.833 32 -25.5s25 -9.33398 38 -11.001s23.167 -2.5 30.5 -2.5c26 0 50 3 72 9s41.167 13 57.5 21s29.5 15.5 39.5 22.5s16 11.5 18 13.5v113z" />
    <glyph glyph-name="uni0B56.134" unicode="&#xb77;" horiz-adv-x="0" 
 />
    <glyph glyph-name="uni0B78" unicode="&#xb78;" horiz-adv-x="695" 
d="M642 117c0 -7.33301 -1.00195 -15.8291 -3.00195 -25.4961s-5.83301 -18.834 -11.5 -27.501s-13.834 -16.167 -24.501 -22.5s-24.667 -9.83301 -42 -10.5l64 -97h-51l-96 151c10.667 -4.66699 21 -8.66699 31 -12s21 -5 33 -5c20.667 0 35.334 4.16699 44.001 12.5
s13 19.166 13 32.499s-4.66699 27 -14 41s-25.666 27 -48.999 39c23.333 10.667 38.833 22.5 46.5 35.5s11.5 25.833 11.5 38.5c0 13.333 -4.5 25.666 -13.5 36.999s-24.5 17 -46.5 17c6.66699 10.667 13 21.5 19 32.5s9 22.167 9 33.5c0 32 -6.83301 61.167 -20.5 87.5
s-31.834 49 -54.501 68s-48.5 33.833 -77.5 44.5s-58.833 16 -89.5 16c-33.333 0 -64 -6.33301 -92 -19s-52.333 -29.5 -73 -50.5s-36.667 -44.833 -48 -71.5s-17 -53.667 -17 -81c0 -20 3.33301 -36.833 10 -50.5s14.5 -24.834 23.5 -33.501s18 -15.167 27 -19.5l19.5 -9.5
c17.333 15.333 34.333 26.166 51 32.499s36 9.5 58 9.5s42.5 -4.16699 61.5 -12.5s35.333 -19.5 49 -33.5s24.5 -30.333 32.5 -49s12 -38.667 12 -60c0 -22 -4 -42.5 -12 -61.5s-18.833 -35.833 -32.5 -50.5s-30 -26.167 -49 -34.5s-39.5 -12.5 -61.5 -12.5
s-42.5 4.16699 -61.5 12.5s-35.5 19.833 -49.5 34.5s-25 31.667 -33 51s-12 39.666 -12 60.999c0 11.333 1.83301 23.666 5.5 36.999s6.83398 24 9.50098 32c-4.66699 2.66699 -12.5 7.83398 -23.5 15.501s-22.167 17.834 -33.5 30.501s-21.333 28.167 -30 46.5
s-13 39.166 -13 62.499c0 38.667 7.66699 74.5 23 107.5s36.166 61.5 62.499 85.5s57 42.833 92 56.5s71.833 20.5 110.5 20.5c37.333 0 73 -6.16699 107 -18.5s64 -30 90 -53s46.667 -50.667 62 -83s23 -68.166 23 -107.499c0 -6 -0.333008 -12.833 -1 -20.5
s-3.66699 -15.167 -9 -22.5c10.667 -7.33301 20.667 -16.666 30 -27.999s14 -26.333 14 -45c0 -15.333 -2.66699 -29.5 -8 -42.5s-15.666 -25.5 -30.999 -37.5c16.667 -12.667 27.334 -25.667 32.001 -39s7 -25 7 -35zM385.998 155.004c0 14 -2.83203 27.333 -8.49902 40
s-13.334 23.834 -23.001 33.501s-21 17.5 -34 23.5s-26.833 9 -41.5 9s-28.667 -3 -42 -9s-25 -14 -35 -24s-18 -21.5 -24 -34.5s-9 -26.5 -9 -40.5c0 -15.333 3 -29.5 9 -42.5s14 -24.5 24 -34.5s21.667 -17.833 35 -23.5s27.333 -8.5 42 -8.5c14 0 27.5 3 40.5 9
s24.5 14.167 34.5 24.5s17.833 22.166 23.5 35.499s8.5 27.333 8.5 42zM332.999 848.004l157 -61l-46 -26l-160 66v52l337 108l29 -37z" />
    <glyph glyph-name="uni200B" unicode="&#x200b;" horiz-adv-x="0" 
d="M-22 -165v1116h44v-1116h-44z" />
    <glyph glyph-name="afii61664" unicode="&#x200c;" horiz-adv-x="0" 
d="M-22 -165v1116h44v-1116h-44z" />
    <glyph glyph-name="afii301" unicode="&#x200d;" horiz-adv-x="0" 
d="M102 793l-80 82v-1040h-44v1040l-80 -82l-30 29l104 102l-104 101l30 29l102 -103l102 103l30 -29l-104 -101l104 -102z" />
    <glyph glyph-name="endash" unicode="&#x2013;" horiz-adv-x="546" 
d="M52 318v36h444v-36h-444z" />
    <glyph glyph-name="emdash" unicode="&#x2014;" horiz-adv-x="746" 
d="M52 318v36h644v-36h-644z" />
    <glyph glyph-name="quoteleft" unicode="&#x2018;" horiz-adv-x="288" 
d="M240 748c-19.333 -13.333 -36.167 -29.668 -50.5 -49.001s-22.833 -43.666 -25.5 -72.999h12c37.333 0 56 -14 56 -42c0 -18.667 -4.33301 -33.167 -13 -43.5s-21.667 -15.5 -39 -15.5c-46 0 -69 26.333 -69 79c0 55.333 35 111 105 167l24 -23v0z" />
    <glyph glyph-name="quoteright" unicode="&#x2019;" horiz-adv-x="288" 
d="M203 702c-1.33301 -58 -35.666 -113.665 -102.999 -166.998c-2 2 -4.66699 4.5 -8 7.5s-7.33301 7.16699 -12 12.5c7.33301 4.66699 15 11.167 23 19.5s15.667 17.666 23 27.999s13.833 21.333 19.5 33s9.5 23.167 11.5 34.5c-48.667 0 -74.667 17 -78 51
c0 19.333 4.5 34.166 13.5 44.499s22.833 15.5 41.5 15.5c21.333 0 38.166 -6.83301 50.499 -20.5s18.5 -33.167 18.5 -58.5z" />
    <glyph glyph-name="quotedblleft" unicode="&#x201c;" horiz-adv-x="529" 
d="M481 748c-19.333 -13.333 -36.167 -29.6689 -50.5 -49.002s-22.833 -43.666 -25.5 -72.999h12c18 0 32 -3.66699 42 -11s15 -17.666 15 -30.999c0 -18.667 -4.5 -33.167 -13.5 -43.5s-22.167 -15.5 -39.5 -15.5c-46 0 -69 26.333 -69 79c0 55.333 35.333 111 106 167z
M239.999 747.997c-19.333 -13.333 -36.167 -29.668 -50.5 -49.001s-22.833 -43.666 -25.5 -72.999h12c37.333 0 56 -14 56 -42c0 -18.667 -4.33301 -33.167 -13 -43.5s-21.667 -15.5 -39 -15.5c-46 0 -69 26.333 -69 79c0 55.333 35 111 105 167z" />
    <glyph glyph-name="quotedblright" unicode="&#x201d;" horiz-adv-x="525" 
d="M481 692c0 -54 -35.3311 -109.669 -105.998 -167.002l-23 24c19.333 12.667 36.166 28.834 50.499 48.501s22.833 43.834 25.5 72.501c-2.66699 0 -5 -0.166992 -7 -0.5s-4 -0.5 -6 -0.5c-37.333 0 -56 14.333 -56 43c0 18.667 4.16699 33.167 12.5 43.5
s21.833 15.5 40.5 15.5c23.333 0 40.666 -6.16699 51.999 -18.5s17 -32.5 17 -60.5zM240.002 691.998c0 -54 -35.333 -109.669 -106 -167.002l-23 24c19.333 12.667 36.166 28.834 50.499 48.501s22.833 43.834 25.5 72.501c-2.66699 0 -5 -0.166992 -7 -0.5
s-4.33301 -0.5 -7 -0.5c-36.667 0 -55 14.333 -55 43c0 18.667 4.16699 33.167 12.5 43.5s21.833 15.5 40.5 15.5c22.667 0 39.834 -6.16699 51.501 -18.5s17.5 -32.5 17.5 -60.5z" />
    <glyph glyph-name="bullet" unicode="&#x2022;" horiz-adv-x="523" 
d="M442 253c0 -25.333 -4.83887 -48.9941 -14.5059 -70.9941s-22.667 -41.333 -39 -58s-35.666 -29.834 -57.999 -39.501s-46.166 -14.5 -71.499 -14.5s-49.166 4.83301 -71.499 14.5s-41.666 22.667 -57.999 39s-29.333 35.666 -39 57.999s-14.5 46.166 -14.5 71.499
s4.83301 49.166 14.5 71.499s22.834 41.666 39.501 57.999s36 29.333 58 39s45.667 14.5 71 14.5c24.667 0 48.167 -4.83301 70.5 -14.5s41.833 -22.834 58.5 -39.501s29.834 -36.167 39.501 -58.5s14.5 -45.833 14.5 -70.5z" />
    <glyph glyph-name="uni0B39.004" unicode="&#x20b9;" horiz-adv-x="520" 
d="M451 602l-117.004 0.000976562c10.667 -10.667 19.167 -22.334 25.5 -35.001s10.5 -25 12.5 -37h124l-45 -67h-75c-2 -22.667 -8.83301 -44.5 -20.5 -65.5s-27.167 -40 -46.5 -57s-42.666 -30.5 -69.999 -40.5s-58 -15 -92 -15l259 -285h-114l-246 277v74h71
c24.667 0 47.334 2.5 68.001 7.5s38.167 12.333 52.5 22s25.5 21.5 33.5 35.5s12.667 29.667 14 47h-261l43 67h210c-5.33301 10 -11.666 19.333 -18.999 28s-16.333 16.167 -27 22.5s-23.667 11.5 -39 15.5s-33.666 6 -54.999 6h-113l43 67h429z" />
    <glyph glyph-name="Dotted_Circle" unicode="&#x25cc;" horiz-adv-x="603" 
d="M433 426c-16.667 26.667 -38.668 48.667 -66.001 66l36 50c34.667 -22 62.334 -49 83.001 -81zM304.999 520c-10.667 3.33301 -26.333 5 -47 5c-20 0 -35.333 -1.66699 -46 -5l-12 62l30 4c10 1.33301 19.333 2 28 2c9.33301 0 18.833 -0.666992 28.5 -2l29.5 -4z
M522 326c0 -18.667 -2.66699 -38.001 -8 -58.001l-61 10c3.33301 10.667 5 26.334 5 47.001c0 21.333 -1.66699 37.333 -5 48l61 10c5.33301 -20 8 -39 8 -57zM486 188.999c-21.333 -33.333 -49 -60.666 -83 -81.999l-36 52c28.667 17.333 50.667 39.666 66 66.999z
M150 491.999c-28.667 -17.333 -50.667 -39.333 -66 -66l-52 35c20.667 32.667 47.667 59.667 81 81zM2 267.999l-4 28.001c-1.33301 9.33301 -2 19.333 -2 30c0 10 0.666992 19.667 2 29l4 28l62 -10c-3.33301 -10.667 -5 -26.667 -5 -48
c0 -20.667 1.66699 -36.334 5 -47.001zM316 69c-10 -2 -19.835 -3.5 -29.502 -4.5s-19.167 -1.5 -28.5 -1.5c-8.66699 0 -18 0.5 -28 1.5s-20 2.5 -30 4.5l12 63c8.66699 -2 16.834 -3.66699 24.501 -5s14.834 -2 21.501 -2s14 0.666992 22 2s16.333 3 25 5zM112.998 107
c-32 20.667 -59 47.999 -81 81.999l52 37c15.333 -27.333 37.333 -49.666 66 -66.999z" />
    <glyph glyph-name="NULL" horiz-adv-x="0" 
 />
    <glyph glyph-name="nonmarkingreturn" horiz-adv-x="615" 
 />
    <glyph glyph-name="parenleft" horiz-adv-x="26" 
d="M0 383h26v-29h-26v29z" />
    <glyph glyph-name="parenright" horiz-adv-x="26" 
d="M0 383h26v-29h-26v29z" />
    <glyph glyph-name="asterisk" horiz-adv-x="26" 
d="M0 383h26v-29h-26v29z" />
    <glyph glyph-name="plus" horiz-adv-x="26" 
d="M0 383h26v-29h-26v29z" />
    <glyph glyph-name="hyphen" horiz-adv-x="26" 
d="M0 383h26v-29h-26v29z" />
    <glyph glyph-name="slash" horiz-adv-x="26" 
d="M0 383h26v-29h-26v29z" />
    <glyph glyph-name="glyph98" 
d="M-7 514v19h17v-19h-17z" />
    <glyph glyph-name="Adieresis" 
d="M-7 514v19h17v-19h-17z" />
    <glyph glyph-name="Aring" 
d="M-7 514v19h17v-19h-17z" />
    <glyph glyph-name="Ccedilla" 
d="M-7 514v19h17v-19h-17z" />
    <glyph glyph-name="Eacute" 
d="M-7 514v19h17v-19h-17z" />
    <glyph glyph-name="Ntilde" 
d="M-7 514v19h17v-19h-17z" />
    <glyph glyph-name="Odieresis" 
d="M-7 514v19h17v-19h-17z" />
    <glyph glyph-name="Udieresis" 
d="M-7 514v19h17v-19h-17z" />
    <glyph glyph-name="aacute" 
d="M-7 514v19h17v-19h-17z" />
    <glyph glyph-name="agrave" 
d="M-7 514v19h17v-19h-17z" />
    <glyph glyph-name="acircumflex" 
d="M-7 514v19h17v-19h-17z" />
    <glyph glyph-name="adieresis" 
d="M-7 514v19h17v-19h-17z" />
    <glyph glyph-name="atilde" 
d="M-7 514v19h17v-19h-17z" />
    <glyph glyph-name="aring" 
d="M-7 514v19h17v-19h-17z" />
    <glyph glyph-name="ccedilla" 
d="M-7 514v19h17v-19h-17z" />
    <glyph glyph-name="eacute" 
d="M-7 514v19h17v-19h-17z" />
    <glyph glyph-name="egrave" 
d="M-7 514v19h17v-19h-17z" />
    <glyph glyph-name="ecircumflex" 
d="M-7 514v19h17v-19h-17z" />
    <glyph glyph-name="edieresis" 
d="M-7 514v19h17v-19h-17z" />
    <glyph glyph-name="iacute" 
d="M-7 514v19h17v-19h-17z" />
    <glyph glyph-name="igrave" 
d="M-7 514v19h17v-19h-17z" />
    <glyph glyph-name="icircumflex" 
d="M-7 514v19h17v-19h-17z" />
    <glyph glyph-name="idieresis" 
d="M-7 514v19h17v-19h-17z" />
    <glyph glyph-name="ntilde" 
d="M-7 514v19h17v-19h-17z" />
    <glyph glyph-name="oacute" 
d="M-7 514v19h17v-19h-17z" />
    <glyph glyph-name="ograve" 
d="M-7 514v19h17v-19h-17z" />
    <glyph glyph-name="ocircumflex" 
d="M-7 514v19h17v-19h-17z" />
    <glyph glyph-name="odieresis" 
d="M-7 514v19h17v-19h-17z" />
    <glyph glyph-name="otilde" 
d="M-7 514v19h17v-19h-17z" />
    <glyph glyph-name="uacute" horiz-adv-x="726" 
d="M710 -66c0 -28 -7.16504 -52.668 -21.498 -74.001s-32.833 -39.166 -55.5 -53.499s-48.5 -25.166 -77.5 -32.499s-57.833 -11 -86.5 -11c-42 0 -79 4.5 -111 13.5s-59.667 19.833 -83 32.5s-42.333 25.667 -57 39s-25.667 24.333 -33 33l35 22
c5.33301 -5.33301 14.666 -13 27.999 -23s30.166 -20 50.499 -30s44.333 -18.667 72 -26s58.834 -11 93.501 -11c14.667 0 28.5 1.33301 41.5 4s22.167 5 27.5 7c-4 4 -8.83301 9.83301 -14.5 17.5s-11.167 16.334 -16.5 26.001s-9.83301 20 -13.5 31s-5.5 22.167 -5.5 33.5
c0 16.667 3.5 31.334 10.5 44.001s15 23 24 31s17.833 14.167 26.5 18.5s14.667 7.16602 18 8.49902v77c-5.33301 -6.66699 -13.666 -15.834 -24.999 -27.501s-25.833 -23.334 -43.5 -35.001s-37.834 -21.834 -60.501 -30.501s-47.667 -13 -75 -13
c-35.333 0 -67.166 5.33301 -95.499 16s-52.333 24.5 -72 41.5s-34.667 36.167 -45 57.5s-15.5 42.333 -15.5 63c0 15.333 2 30 6 44s7.33301 23.667 10 29c-12.667 4 -25.334 9 -38.001 15s-24.167 14.667 -34.5 26s-18.833 26 -25.5 44s-10 41 -10 69
c0 36.667 7.33301 69.834 22 99.501s34.667 54.834 60 75.501s54.833 36.5 88.5 47.5s69.5 16.5 107.5 16.5c32 0 62 -4.16699 90 -12.5s52.833 -18.5 74.5 -30.5s39.5 -24.833 53.5 -38.5s23.333 -25.834 28 -36.501v111h46v-604c15.333 0 29.166 -3.5 41.499 -10.5
s23 -15.833 32 -26.5s16 -22 21 -34s7.5 -23 7.5 -33zM562.002 452.999c0 2 -4.16602 10.998 -12.499 26.998s-22 33.333 -41 52s-44.167 35.5 -75.5 50.5s-70 22.5 -116 22.5c-36.667 0 -69.5 -5.33301 -98.5 -16s-53.667 -25 -74 -43s-35.833 -39 -46.5 -63
s-16 -49.333 -16 -76c0 -24 4.66699 -43.5 14 -58.5s19.833 -26.667 31.5 -35s22.834 -14.166 33.501 -17.499s17.667 -5.33301 21 -6c2.66699 4.66699 6.66699 8.66699 12 12s11.166 6 17.499 8s12.666 3.33301 18.999 4s11.833 1 16.5 1l30 -31
c-12 -1.33301 -23.667 -4.66602 -35 -9.99902s-21.666 -12.333 -30.999 -21s-16.833 -18.5 -22.5 -29.5s-8.5 -22.833 -8.5 -35.5c0 -15.333 3.5 -31.333 10.5 -48s17.667 -32 32 -46s32.166 -25.5 53.499 -34.5s46.333 -13.5 75 -13.5s55.5 5.83301 80.5 17.5
s46.833 25.5 65.5 41.5s33.667 31.833 45 47.5s18 27.5 20 35.5v265zM665.003 -64.0029c0 21.333 -7.00098 37.1641 -21.001 47.4971s-29.333 15.5 -46 15.5c-18 0 -33.667 -7.16699 -47 -21.5s-20 -31.166 -20 -50.499c0 -8.66699 1.66699 -17.667 5 -27
s7.66602 -18 12.999 -26s11.333 -14.5 18 -19.5s13.334 -7.5 20.001 -7.5c13.333 0 24.833 2.83301 34.5 8.5s17.834 12.834 24.501 21.501s11.5 18.334 14.5 29.001s4.5 20.667 4.5 30z" />
    <glyph glyph-name="ugrave" 
d="M-7 514v19h17v-19h-17z" />
    <glyph glyph-name="ucircumflex" 
d="M-7 514v19h17v-19h-17z" />
    <glyph glyph-name="udieresis" 
d="M-7 514v19h17v-19h-17z" />
    <glyph glyph-name="dagger" horiz-adv-x="387" 
 />
    <glyph glyph-name="degree" horiz-adv-x="215" 
d="M69 323v79h77v-79h-77zM75 -154v416h63v-416h-63z" />
    <glyph glyph-name="cent" horiz-adv-x="432" 
d="M392 121c-5.33301 -42.667 -22.833 -75.168 -52.5 -97.501s-65.834 -33.5 -108.501 -33.5c-5.33301 0 -11.333 0.333008 -18 1s-14.667 2 -24 4l-24 -90l-40 11l25 90c-71.333 32 -107 96.667 -107 194c0 66.667 16.667 118.334 50 155.001s79.333 55 138 55h17
c4.66699 0 9.33398 -0.666992 14.001 -2l23 88l41 -10l-25 -87c54.667 -20.667 85 -59.667 91 -117h-72c-0.666992 26 -12.334 45.667 -35.001 59l-80 -291c6.66699 -2 15.334 -3 26.001 -3c55.333 0 85 24.667 89 74h72zM246 353.999c-2.66699 0.666992 -7.66699 1 -15 1
c-35.333 0 -63.333 -12.833 -84 -38.5s-31 -64.5 -31 -116.5c0 -64.667 16.667 -108.667 50 -132z" />
    <glyph glyph-name="sterling" horiz-adv-x="432" 
d="M400 7c-26.667 -11.333 -53.334 -17.002 -80.001 -17.002c-0.666992 0 -5.16699 0.833008 -13.5 2.5s-18.5 3.83398 -30.5 6.50098l-39 8.5l-39 8.5c-12 2.66699 -22.167 4.83398 -30.5 6.50098s-13.166 2.5 -14.499 2.5c-20.667 0 -42.334 -2.83301 -65.001 -8.5
s-46 -14.5 -70 -26.5v69c53.333 28 80 76 80 144c0 16 -2 32 -6 48h-74v55h59c-12.667 40 -19 73.333 -19 100c0 48 15.5 86.167 46.5 114.5s72.833 42.5 125.5 42.5c48 0 86.833 -12.167 116.5 -36.5s46.5 -59.5 50.5 -105.5h-74c-4 58 -35.667 87 -95 87
c-28 0 -51.333 -9 -70 -27s-28 -41 -28 -69c0 -26.667 7.66699 -62 23 -106h118v-55h-106c4 -11.333 6 -23 6 -35c0 -57.333 -23 -104.333 -69 -141c16 6 34.333 9 55 9c14 0 42.333 -4.33301 85 -13l45 -8c6.66699 -1.33301 12.334 -2.33301 17.001 -3s8.66699 -1 12 -1
c28.667 0 56.667 7 84 21v-73v0z" />
    <glyph glyph-name="section" horiz-adv-x="432" 
d="M358 89l-53 52c-26 -18 -56 -27 -90 -27c-32 0 -62 9 -90 27l-51 -52l-46 44l53 53c-18 28 -27 57.333 -27 88c0 29.333 9 58.666 27 87.999l-53 54l46 44l51 -53c27.333 18.667 57.333 28 90 28c33.333 0 63.333 -9.33301 90 -28l53 53l44 -44l-53 -54
c9.33301 -14.667 16.166 -29.167 20.499 -43.5s6.5 -29.166 6.5 -44.499s-2.16699 -30.333 -6.5 -45s-11.166 -29 -20.499 -43l53 -53zM314 274c0 13.333 -2.66699 26 -8 38s-12.5 22.5 -21.5 31.5s-19.5 16.167 -31.5 21.5s-24.667 8 -38 8s-26 -2.66699 -38 -8
s-22.5 -12.5 -31.5 -21.5s-16 -19.5 -21 -31.5s-7.5 -24.667 -7.5 -38c0 -27.333 9.5 -50.5 28.5 -69.5s42.167 -28.5 69.5 -28.5c13.333 0 26 2.5 38 7.5s22.5 12 31.5 21s16.167 19.5 21.5 31.5s8 24.667 8 38z" />
    <glyph glyph-name="paragraph" horiz-adv-x="202" 
d="M71 264v291h59v-291h-59zM71 -162v289h59v-289h-59z" />
    <glyph glyph-name="germandbls" horiz-adv-x="432" 
d="M397 176c0 -44.667 -28.6689 -81.3291 -86.002 -109.996c40 -24.667 60 -59.334 60 -104.001c0 -18 -3.83301 -34.667 -11.5 -50s-18.167 -28.5 -31.5 -39.5s-29.166 -19.5 -47.499 -25.5s-38.166 -9 -59.499 -9c-46 0 -83.833 11.667 -113.5 35s-47.167 57 -52.5 101h74
c5.33301 -53.333 36 -80 92 -80c23.333 0 42.333 5.5 57 16.5s22 27.833 22 50.5c0 8 -1 15.167 -3 21.5s-7.66699 13.833 -17 22.5s-23.5 19.167 -42.5 31.5s-45.833 28.5 -80.5 48.5c-24.667 14.667 -45 28 -61 40s-28.833 24 -38.5 36s-16.334 24.667 -20.001 38
s-5.5 28.333 -5.5 45c0 45.333 28.667 81 86 107c-33.333 29.333 -50 60.666 -50 93.999c0 15.333 3 30.166 9 44.499s14.833 27 26.5 38s26.167 19.667 43.5 26s37.333 9.5 60 9.5c97.333 0 150 -43.333 158 -130h-73c-5.33301 50 -32.666 75 -81.999 75
c-47.333 0 -71 -20 -71 -60c0 -12.667 3.66699 -23.834 11 -33.501s19 -20.334 35 -32.001s36.5 -25 61.5 -40s55.167 -34.5 90.5 -58.5c24 -19.333 40 -37.166 48 -53.499s12 -34.5 12 -54.5zM329.998 162.005c0 16.667 -3.49902 29.5 -10.499 38.5
s-17.833 18.333 -32.5 28l-56 35.5c-22.667 14 -49.334 34.333 -80.001 61c-33.333 -16 -50 -40.333 -50 -73c0 -12 1.83301 -22.667 5.5 -32s10.834 -19 21.501 -29s25.5 -21 44.5 -33l73.5 -45l19 -10.5c5.33301 -3 9.66602 -6.16699 12.999 -9.5c34.667 16 52 39 52 69z
" />
    <glyph glyph-name="registered" horiz-adv-x="258" 
d="M165 474v77h69v-77h-69zM25 474v77h68v-77h-68z" />
    <glyph glyph-name="copyright" horiz-adv-x="571" 
d="M571 279c0 -38.667 -7.66406 -75.334 -22.9971 -110.001s-36 -65 -62 -91s-56.333 -46.5 -91 -61.5s-71.334 -22.5 -110.001 -22.5s-75.334 7.5 -110.001 22.5s-65 35.5 -91 61.5s-46.5 56.333 -61.5 91s-22.5 71.334 -22.5 110.001s7.66699 75.167 23 109.5
s36 64.5 62 90.5s56.333 46.5 91 61.5s71 22.5 109 22.5s74.333 -7.66699 109 -23s65.167 -36 91.5 -62s47.166 -56.167 62.499 -90.5s23 -70.5 23 -108.5zM524.003 279c0 32 -6.33496 62.334 -19.002 91.001s-29.834 54 -51.501 76s-47 39.333 -76 52s-59.833 19 -92.5 19
c-32 0 -62.5 -6.33301 -91.5 -19s-54.333 -29.834 -76 -51.501s-38.834 -47 -51.501 -76s-19 -59.5 -19 -91.5c0 -32.667 6.33301 -63.5 19 -92.5s29.834 -54.5 51.501 -76.5s46.834 -39.333 75.501 -52s59.334 -19 92.001 -19s63.5 6.5 92.5 19.5s54.333 30.5 76 52.5
s38.834 47.5 51.501 76.5s19 59.5 19 91.5zM422.001 219.001c-19.333 -70 -64.333 -104.999 -135 -104.999c-24 0 -45.167 4.16699 -63.5 12.5s-34 19.833 -47 34.5s-22.833 32 -29.5 52s-10 41.667 -10 65c0 49.333 13.333 88.333 40 117s64 43 112 43
c32.667 0 61 -8.33301 85 -25s38.667 -40 44 -70h-53c-7.33301 36 -33 54 -77 54c-66.667 0 -100 -40 -100 -120c0 -34.667 8.66699 -62.834 26 -84.501s41 -32.5 71 -32.5c46.667 0 74.667 19.667 84 59h53z" />
    <glyph glyph-name="trademark" horiz-adv-x="287" 
d="M204 289l-0.00195312 27c-24 -22 -56 -33 -96 -33c-24.667 0 -46.167 6.83301 -64.5 20.5s-27.5 32.5 -27.5 56.5c0 63.333 54.667 95 164 95h24c0 26 -5.16699 43.167 -15.5 51.5s-26.166 12.5 -47.499 12.5c-40 0 -60.333 -12.333 -61 -37h-55
c4.66699 54 44.334 81 119.001 81c76 0 114 -33.667 114 -101v-173h-54zM29.998 196v44h223v-44h-223zM203.998 415h-33.999c-64 0 -96 -17.667 -96 -53c0 -23.333 16.333 -35 49 -35c13.333 0 28.166 4.16699 44.499 12.5s28.5 17.833 36.5 28.5v47z" />
    <glyph glyph-name="acute" horiz-adv-x="432" 
d="M321 27l-119 173l119 173h57l-99 -173l99 -173h-57zM173 27l-120 173l120 173h57l-100 -173l100 -173h-57z" />
    <glyph glyph-name="dieresis" horiz-adv-x="453" 
d="M346 157v169h-303v64h367v-233h-64z" />
    <glyph glyph-name="notequal" horiz-adv-x="37" 
d="M-5 173v56h42v-56h-42z" />
    <glyph glyph-name="AE" horiz-adv-x="571" 
d="M571 279c0 -38.667 -7.66406 -75.334 -22.9971 -110.001s-36 -65 -62 -91s-56.333 -46.5 -91 -61.5s-71.334 -22.5 -110.001 -22.5s-75.334 7.5 -110.001 22.5s-65 35.5 -91 61.5s-46.5 56.333 -61.5 91s-22.5 71.334 -22.5 110.001s7.66699 75.167 23 109.5
s36 64.5 62 90.5s56.333 46.5 91 61.5s71 22.5 109 22.5s74.333 -7.66699 109 -23s65.167 -36 91.5 -62s47.166 -56.167 62.499 -90.5s23 -70.5 23 -108.5zM524.003 279c0 32 -6.33496 62.334 -19.002 91.001s-29.834 54 -51.501 76s-47 39.333 -76 52s-59.833 19 -92.5 19
c-32 0 -62.5 -6.33301 -91.5 -19s-54.333 -29.834 -76 -51.501s-38.834 -47 -51.501 -76s-19 -59.5 -19 -91.5c0 -32.667 6.33301 -63.5 19 -92.5s29.834 -54.5 51.501 -76.5s46.834 -39.333 75.501 -52s59.334 -19 92.001 -19s63.5 6.5 92.5 19.5s54.333 30.5 76 52.5
s38.834 47.5 51.501 76.5s19 59.5 19 91.5zM358.001 121.001l-25 65.999c-13.333 40 -40.333 60 -81 60h-39v-126h-49v307h115c81.333 0 122 -28.333 122 -85c0 -54 -26.667 -83 -80 -87c27.333 -9.33301 47.333 -28.666 60 -57.999l34 -77h-57zM348.001 338
c0 32 -25 48 -75 48h-60v-96h63c48 0 72 16 72 48z" />
    <glyph glyph-name="Oslash" horiz-adv-x="258" 
d="M11 483v57h236v-57h-236z" />
    <glyph glyph-name="infinity" horiz-adv-x="310" 
d="M260 458c0 -14.667 -2.83301 -28.5029 -8.5 -41.5029s-13.167 -24.167 -22.5 -33.5s-20.333 -16.833 -33 -22.5s-26.334 -8.5 -41.001 -8.5s-28.334 2.83301 -41.001 8.5s-23.834 13.334 -33.501 23.001s-17.167 20.834 -22.5 33.501s-8 26.334 -8 41.001
c0 14 2.66699 27.333 8 40s12.833 23.834 22.5 33.501s20.834 17.167 33.501 22.5s26.334 8 41.001 8s28.334 -2.83301 41.001 -8.5s23.667 -13.334 33 -23.001s16.833 -20.667 22.5 -33s8.5 -25.5 8.5 -39.5zM219 457.997c0 17.333 -6.33301 31.999 -19 43.999
s-27.667 18 -45 18c-18 0 -33 -6 -45 -18s-18 -26.667 -18 -44c0 -19.333 6 -35.166 18 -47.499s27 -18.5 45 -18.5c17.333 0 32.333 6.5 45 19.5s19 28.5 19 46.5z" />
    <glyph glyph-name="glyph148" horiz-adv-x="453" 
d="M258 258v-152h-64v152h-151v63h151v153h64v-153h152v-63h-152zM43 0v64h367v-64h-367z" />
    <glyph glyph-name="lessequal" horiz-adv-x="258" 
d="M9 278c3.33301 19.333 13.001 39.1689 29.001 59.502s39 39.166 69 56.499c16.667 9.33301 30 17.666 40 24.999s17.667 14 23 20s8.83301 11.833 10.5 17.5s2.5 11.834 2.5 18.501c0 28 -17 42 -51 42c-32.667 0 -51.667 -12.333 -57 -37h-58
c10.667 54.667 49.334 82 116.001 82c33.333 0 60.166 -7.5 80.499 -22.5s30.5 -35.5 30.5 -61.5c0 -38.667 -26.333 -73.334 -79 -104.001c-28.667 -16.667 -51.334 -33.667 -68.001 -51h148v-45h-236z" />
    <glyph glyph-name="greaterequal" horiz-adv-x="258" 
d="M244 358c0 -24.667 -9.66699 -45.3311 -29 -61.998s-48 -25 -86 -25c-70 0 -109 27 -117 81h59c4 -24.667 22.667 -37 56 -37c38.667 0 58 16.667 58 50c0 25.333 -20 38 -60 38h-20v42c44.667 0 67 13.667 67 41c0 21.333 -15 32 -45 32c-29.333 0 -46 -10.333 -50 -31
h-59c10 50 46.333 75 109 75c69.333 0 104 -23.667 104 -71c0 -34.667 -17 -56.334 -51 -65.001c42.667 -8.66699 64 -31.334 64 -68.001z" />
    <glyph glyph-name="yen" horiz-adv-x="258" 
d="M141 458h-55l51 105h88z" />
    <glyph glyph-name="mu" horiz-adv-x="432" 
d="M422 -7c-4 -2 -10.667 -3 -20 -3c-50 0 -81 21.333 -93 64c-34.667 -42.667 -75 -64 -121 -64c-24 0 -45.667 6.33301 -65 19l1 -163h-71v556h71v-274c0 -52 26.333 -78 79 -78c39.333 0 74.333 21.333 105 64v288h70v-311c0 -27.333 10.667 -41 32 -41
c6 0 10 0.666992 12 2v-59v0z" />
    <glyph glyph-name="partialdiff" horiz-adv-x="416" 
d="M364 499l0.000976562 -653h-64v653h-85v-653h-62v395c-46.667 3.33301 -83.834 18 -111.501 44s-41.5 62.667 -41.5 110c-0 51.333 15.833 90.833 47.5 118.5s75.167 41.5 130.5 41.5h240v-56h-54z" />
    <glyph glyph-name="summation" horiz-adv-x="215" 
d="M69 234v77h77v-77h-77z" />
    <glyph glyph-name="product" horiz-adv-x="258" 
d="M204 -89c0 -48.667 -38.334 -73 -115.001 -73h-18.5c-6.33301 0 -13.166 0.333008 -20.499 1v44c7.33301 -0.666992 14.5 -1.16699 21.5 -1.5s13.833 -0.5 20.5 -0.5c32 0 48 10 48 30s-17.667 30 -53 30v59h53v-28c42.667 -6 64 -26.333 64 -61z" />
    <glyph glyph-name="pi" horiz-adv-x="258" 
d="M125 278v184c-17.333 -12 -46 -18 -86 -18v47c66.667 0 100 23.667 100 71h41v-284h-55z" />
    <glyph glyph-name="integral" horiz-adv-x="283" 
d="M267 422c0 -42.667 -10.5 -77.002 -31.5 -103.002s-52.5 -39 -94.5 -39c-39.333 0 -69.833 12.833 -91.5 38.5s-32.5 60.167 -32.5 103.5c0 42.667 10.333 76.834 31 102.501s51.667 38.5 93 38.5c42 0 73.5 -13.167 94.5 -39.5s31.5 -60.166 31.5 -101.499zM30 195.998
v44h223v-44h-223zM209 421.998c0 60.667 -22.667 91 -68 91c-44.667 0 -67 -30.333 -67 -91c0 -61.333 22.333 -92 67 -92c45.333 0 68 30.667 68 92z" />
    <glyph glyph-name="ordfeminine" horiz-adv-x="432" 
d="M257 27h-55l98 173l-98 173h55l121 -173zM109 27h-56l100 173l-100 173h56l121 -173z" />
    <glyph glyph-name="ordmasculine" horiz-adv-x="646" 
d="M572 58v-58h-54v58h-145v47l152 179h47v-177h39v-49h-39zM148 0h-59l393 555h60zM133 278l-0.000976562 184c-17.333 -12 -45.666 -18 -84.999 -18v47c65.333 0 98 23.667 98 71h41v-284h-54zM517.999 214l-92 -107h92v107z" />
    <glyph glyph-name="Omega" horiz-adv-x="646" 
d="M389 0c6 42 38.668 80.666 98.001 115.999l42 27c14 9.33301 23.167 18.333 27.5 27s6.5 18 6.5 28c0 28 -17 42 -51 42c-32.667 0 -52 -12.333 -58 -37h-58c10.667 54 49.667 81 117 81c32 0 58.167 -7.33301 78.5 -22s30.5 -34.667 30.5 -60
c0 -20.667 -4.83301 -37.5 -14.5 -50.5s-21.834 -24.833 -36.501 -35.5s-30.5 -21.167 -47.5 -31.5s-32.833 -23.166 -47.5 -38.499h148v-46h-235zM148.001 -0.000976562h-59l393 555h60zM133.001 277.999l-0.000976562 184c-17.333 -12 -45.666 -18 -84.999 -18v47
c65.333 0 98 23.667 98 71h41v-284h-54z" />
    <glyph glyph-name="ae" horiz-adv-x="646" 
d="M572 58v-58h-54v58h-145v47l152 179h47v-177h39v-49h-39zM169 0h-60l395 555h59zM252 358c0 -26 -10.667 -47 -32 -63s-49 -24 -83 -24c-71.333 0 -110 27 -116 81h58c2.66699 -24.667 21 -37 55 -37c39.333 0 59 16.667 59 50c0 25.333 -20 38 -60 38h-21v42
c45.333 0 68 13.667 68 41c0 21.333 -15.333 32 -46 32c-28.667 0 -45 -10.333 -49 -31h-59c10.667 50 46.667 75 108 75c30 0 55 -6.33301 75 -19s30 -30 30 -52c0 -34 -17.333 -55.667 -52 -65c43.333 -9.33301 65 -32 65 -68zM518 214l-92 -107h92v107z" />
    <glyph glyph-name="oslash" horiz-adv-x="432" 
d="M177 323v79h79v-79h-79zM395 -2c-4.66699 -50 -23.3311 -89.168 -55.998 -117.501s-74 -42.5 -124 -42.5c-24.667 0 -47.834 3.16699 -69.501 9.5s-40.5 15.833 -56.5 28.5s-28.667 28.334 -38 47.001s-14 40.334 -14 65.001s6.66699 48.167 20 70.5
s33.666 45.5 60.999 69.5l32 28c6.66699 6 12.167 11.667 16.5 17s7.83301 11.666 10.5 18.999s4.66699 16.666 6 27.999s2 26 2 44h67c0 -24.667 -1.16699 -45 -3.5 -61s-6.33301 -30 -12 -42s-13.334 -23.167 -23.001 -33.5s-22.167 -22.166 -37.5 -35.499
c-15.333 -12.667 -27.166 -23.5 -35.499 -32.5s-14.833 -17 -19.5 -24s-7.5 -13.667 -8.5 -20s-1.5 -13.5 -1.5 -21.5c0 -30 9.83301 -54.333 29.5 -73s44.167 -28 73.5 -28c61.333 0 97 35 107 105h74z" />
    <glyph glyph-name="questiondown" horiz-adv-x="517" 
d="M526 0l-78.001 202h-296l-37 -100.5c-13.333 -35 -25.666 -68.833 -36.999 -101.5h-61l61 161l60 157l60 156.5l61 160.5h76l261 -635h-70zM296.999 604l-132 -360h270zM265.999 711l-80 98h70c8 -18 16 -34.5 24 -49.5s16 -31.167 24 -48.5h-38z" />
    <glyph glyph-name="exclamdown" horiz-adv-x="517" 
d="M526 0l-78.001 202h-296l-37 -100.5c-13.333 -35 -25.666 -68.833 -36.999 -101.5h-61l61 161l60 157l60 156.5l61 160.5h76l261 -635h-70zM296.999 604l-132 -360h270zM262.999 614h-55l51 105h88z" />
    <glyph glyph-name="logicalnot" horiz-adv-x="517" 
d="M526 0l-78.001 202h-296l-37 -100.5c-13.333 -35 -25.666 -68.833 -36.999 -101.5h-61l61 161l60 157l60 156.5l61 160.5h76l261 -635h-70zM296.999 604l-132 -360h270zM295.999 614l-43 64l-44 -64h-76l84 105h72l84 -105h-77z" />
    <glyph glyph-name="radical" horiz-adv-x="517" 
d="M526 0l-78.001 202h-296l-37 -100.5c-13.333 -35 -25.666 -68.833 -36.999 -101.5h-61l61 161l60 157l60 156.5l61 160.5h76l261 -635h-70zM296.999 604l-132 -360h270zM382.999 688c0 -58 -25.666 -87 -76.999 -87c-6.66699 0 -24.667 5.33301 -54 16
c-28 10.667 -43.667 16 -47 16c-15.333 0 -24.333 -11.333 -27 -34h-49c0 25.333 6.83301 46.333 20.5 63s32.167 25 55.5 25c10.667 0 29.667 -5.33301 57 -16l28 -11c7.33301 -3.33301 12.666 -5 15.999 -5c16 0 25 11 27 33h50v0z" />
    <glyph glyph-name="florin" horiz-adv-x="517" 
d="M526 0l-78.001 202h-296l-37 -100.5c-13.333 -35 -25.666 -68.833 -36.999 -101.5h-61l61 161l60 157l60 156.5l61 160.5h76l261 -635h-70zM296.999 604l-132 -360h270zM287.999 630v77h69v-77h-69zM147.999 630v77h68v-77h-68z" />
    <glyph glyph-name="approxequal" horiz-adv-x="517" 
d="M435 0l-65.001 168.999h-232l-61 -169h-77l213 555h31c-17.333 1.33301 -31.5 8.5 -42.5 21.5s-16.5 28.167 -16.5 45.5c0 19.333 6.33301 35.666 19 48.999s28.667 20 48 20s35.5 -6.66699 48.5 -20s19.5 -29.666 19.5 -48.999c0 -18.667 -5.66699 -34.167 -17 -46.5
s-25.666 -19.166 -42.999 -20.499h32l226 -555h-83zM251.999 484.999l-95 -257h192zM292.999 621.999c0 12 -4.16699 22 -12.5 30s-17.833 12 -28.5 12c-26 0 -39 -14 -39 -42c0 -26.667 13 -40 39 -40c12 0 21.833 4 29.5 12s11.5 17.333 11.5 28z" />
    <glyph glyph-name="Delta" horiz-adv-x="775" 
d="M369 0v160h-196l-88 -160h-85l320 555h400v-67h-277v-168h254v-67h-254v-187h289v-66h-363zM369 488h-15l-145 -263h160v263z" />
    <glyph glyph-name="guillemotleft" horiz-adv-x="560" 
d="M347 36c114 0 178.001 48.998 192.001 146.998h61c-4 -31.333 -13.333 -59 -28 -83s-33 -44.333 -55 -61s-47.5 -29.167 -76.5 -37.5s-60.167 -12.5 -93.5 -12.5c-45.333 0 -86.166 7.5 -122.499 22.5s-67.333 36.667 -93 65s-45.334 63 -59.001 104
s-20.5 87.167 -20.5 138.5c0 50 6.83301 95.167 20.5 135.5s33.334 74.666 59.001 102.999s56.667 50 93 65s77.166 22.5 122.499 22.5c66 0 120.167 -15.167 162.5 -45.5s72.166 -76.166 89.499 -137.499h-60c-9.33301 44 -31.5 77.667 -66.5 101s-76.5 35 -124.5 35
c-36 0 -68.5 -6.66699 -97.5 -20s-53.667 -32.166 -74 -56.499s-35.833 -53.666 -46.5 -87.999s-16 -72.5 -16 -114.5c0 -91.333 20.667 -161.333 62 -210s98.333 -73 171 -73zM617.001 182.998h-17l3 15zM374.001 -89.002c0 -48.667 -38.334 -73 -115.001 -73h-18.5
c-6.33301 0 -13.166 0.333008 -20.499 1v44c7.33301 -0.666992 14.5 -1.16699 21.5 -1.5s13.833 -0.5 20.5 -0.5c32 0 48 10 48 30s-17.667 30 -53 30v59h53v-28c42.667 -6 64 -26.333 64 -61z" />
    <glyph glyph-name="guillemotright" horiz-adv-x="517" 
d="M84 0v635h450v-51h-391v-230h366v-50h-366v-252h407v-52h-466zM280 711l-80 98h70c8 -18 16 -34.5 24 -49.5s16 -31.167 24 -48.5h-38z" />
    <glyph glyph-name="ellipsis" horiz-adv-x="517" 
d="M84 0v635h450v-51h-391v-230h366v-50h-366v-252h407v-52h-466zM270 614h-55l51 105h88z" />
    <glyph glyph-name="uni00A0" horiz-adv-x="517" 
d="M84 0v635h450v-51h-391v-230h366v-50h-366v-252h407v-52h-466zM310 614l-43 64l-44 -64h-76l84 105h72l84 -105h-77z" />
    <glyph glyph-name="Agrave" horiz-adv-x="517" 
d="M84 0v635h450v-51h-391v-230h366v-50h-366v-252h407v-52h-466zM303 630v77h69v-77h-69zM163 630v77h68v-77h-68z" />
    <glyph glyph-name="Atilde" horiz-adv-x="215" 
d="M97 0v635h60v-635h-60zM128 711l-80 98h70c8 -18 16 -34.5 24 -49.5s16 -31.167 24 -48.5h-38z" />
    <glyph glyph-name="Otilde" horiz-adv-x="215" 
d="M97 0v635h60v-635h-60zM114 614h-55l51 105h88z" />
    <glyph glyph-name="OE" horiz-adv-x="215" 
d="M97 0v635h60v-635h-60zM154 614l-43 64l-44 -64h-76l84 105h72l84 -105h-77z" />
    <glyph glyph-name="oe" horiz-adv-x="215" 
d="M146 630v77h69v-77h-69zM6 630v77h68v-77h-68zM97 0v635h60v-635h-60z" />
    <glyph glyph-name="glyph181" horiz-adv-x="603" 
d="M658 319c0 -48 -7.00098 -92.168 -21.001 -132.501s-34.167 -75.166 -60.5 -104.499s-58 -52.166 -95 -68.499s-78.5 -24.5 -124.5 -24.5c-47.333 0 -89.666 8.5 -126.999 25.5s-69.333 40.167 -96 69.5s-47 64.166 -61 104.499s-21 83.833 -21 130.5
c0 48 7.16699 92 21.5 132s34.666 74.333 60.999 103s58.333 51 96 67s79.834 24 126.501 24c46 0 87.5 -8 124.5 -24s68.5 -38.5 94.5 -67.5s46.167 -63.5 60.5 -103.5s21.5 -83.667 21.5 -131zM594.999 318.999c0 42.667 -5.66797 81.334 -17.001 116.001
s-27.5 64 -48.5 88s-46 42.5 -75 55.5s-61.167 19.5 -96.5 19.5c-38 0 -72 -6.83301 -102 -20.5s-55.667 -32.834 -77 -57.501s-37.666 -54.167 -48.999 -88.5s-17 -71.833 -17 -112.5c0 -42 6 -80.167 18 -114.5s29 -64.833 51 -91.5h-1
c21.333 -26.667 46.5 -46.167 75.5 -58.5s61.833 -18.5 98.5 -18.5s69.667 7 99 21s54.5 33.5 75.5 58.5s37.167 54.833 48.5 89.5s17 72.667 17 114zM326.998 710.999l-80 98h70c8 -18 16 -34.5 24 -49.5s16 -31.167 24 -48.5h-38z" />
    <glyph glyph-name="glyph182" horiz-adv-x="603" 
d="M658 319c0 -48 -7.00098 -92.168 -21.001 -132.501s-34.167 -75.166 -60.5 -104.499s-58 -52.166 -95 -68.499s-78.5 -24.5 -124.5 -24.5c-47.333 0 -89.666 8.5 -126.999 25.5s-69.333 40.167 -96 69.5s-47 64.166 -61 104.499s-21 83.833 -21 130.5
c0 48 7.16699 92 21.5 132s34.666 74.333 60.999 103s58.333 51 96 67s79.834 24 126.501 24c46 0 87.5 -8 124.5 -24s68.5 -38.5 94.5 -67.5s46.167 -63.5 60.5 -103.5s21.5 -83.667 21.5 -131zM594.999 318.999c0 42.667 -5.66797 81.334 -17.001 116.001
s-27.5 64 -48.5 88s-46 42.5 -75 55.5s-61.167 19.5 -96.5 19.5c-38 0 -72 -6.83301 -102 -20.5s-55.667 -32.834 -77 -57.501s-37.666 -54.167 -48.999 -88.5s-17 -71.833 -17 -112.5c0 -42 6 -80.167 18 -114.5s29 -64.833 51 -91.5h-1
c21.333 -26.667 46.5 -46.167 75.5 -58.5s61.833 -18.5 98.5 -18.5s69.667 7 99 21s54.5 33.5 75.5 58.5s37.167 54.833 48.5 89.5s17 72.667 17 114zM313.998 613.999h-55l51 105h88z" />
    <glyph glyph-name="glyph183" horiz-adv-x="603" 
d="M658 319c0 -48 -7.00098 -92.168 -21.001 -132.501s-34.167 -75.166 -60.5 -104.499s-58 -52.166 -95 -68.499s-78.5 -24.5 -124.5 -24.5c-47.333 0 -89.666 8.5 -126.999 25.5s-69.333 40.167 -96 69.5s-47 64.166 -61 104.499s-21 83.833 -21 130.5
c0 48 7.16699 92 21.5 132s34.666 74.333 60.999 103s58.333 51 96 67s79.834 24 126.501 24c46 0 87.5 -8 124.5 -24s68.5 -38.5 94.5 -67.5s46.167 -63.5 60.5 -103.5s21.5 -83.667 21.5 -131zM594.999 318.999c0 42.667 -5.66797 81.334 -17.001 116.001
s-27.5 64 -48.5 88s-46 42.5 -75 55.5s-61.167 19.5 -96.5 19.5c-38 0 -72 -6.83301 -102 -20.5s-55.667 -32.834 -77 -57.501s-37.666 -54.167 -48.999 -88.5s-17 -71.833 -17 -112.5c0 -42 6 -80.167 18 -114.5s29 -64.833 51 -91.5h-1
c21.333 -26.667 46.5 -46.167 75.5 -58.5s61.833 -18.5 98.5 -18.5s69.667 7 99 21s54.5 33.5 75.5 58.5s37.167 54.833 48.5 89.5s17 72.667 17 114zM344.998 613.999l-43 64l-44 -64h-76l84 105h72l84 -105h-77z" />
    <glyph glyph-name="glyph184" horiz-adv-x="603" 
d="M658 319c0 -48 -7.00098 -92.168 -21.001 -132.501s-34.167 -75.166 -60.5 -104.499s-58 -52.166 -95 -68.499s-78.5 -24.5 -124.5 -24.5c-47.333 0 -89.666 8.5 -126.999 25.5s-69.333 40.167 -96 69.5s-47 64.166 -61 104.499s-21 83.833 -21 130.5
c0 48 7.16699 92 21.5 132s34.666 74.333 60.999 103s58.333 51 96 67s79.834 24 126.501 24c46 0 87.5 -8 124.5 -24s68.5 -38.5 94.5 -67.5s46.167 -63.5 60.5 -103.5s21.5 -83.667 21.5 -131zM594.999 318.999c0 42.667 -5.66797 81.334 -17.001 116.001
s-27.5 64 -48.5 88s-46 42.5 -75 55.5s-61.167 19.5 -96.5 19.5c-38 0 -72 -6.83301 -102 -20.5s-55.667 -32.834 -77 -57.501s-37.666 -54.167 -48.999 -88.5s-17 -71.833 -17 -112.5c0 -42 6 -80.167 18 -114.5s29 -64.833 51 -91.5h-1
c21.333 -26.667 46.5 -46.167 75.5 -58.5s61.833 -18.5 98.5 -18.5s69.667 7 99 21s54.5 33.5 75.5 58.5s37.167 54.833 48.5 89.5s17 72.667 17 114zM427.998 711.999c0 -58 -25.666 -87 -76.999 -87c-6.66699 0 -24.667 5.33301 -54 16c-28 10.667 -43.667 16 -47 16
c-15.333 0 -24.333 -11.333 -27 -34h-49c0 25.333 6.83301 46.333 20.5 63s32.167 25 55.5 25c10.667 0 29.667 -5.33301 57 -16l28 -11c7.33301 -3.33301 12.666 -5 15.999 -5c16 0 25 11 27 33h50v0z" />
    <glyph glyph-name="divide" horiz-adv-x="603" 
d="M658 319c0 -48 -7.00098 -92.168 -21.001 -132.501s-34.167 -75.166 -60.5 -104.499s-58 -52.166 -95 -68.499s-78.5 -24.5 -124.5 -24.5c-47.333 0 -89.666 8.5 -126.999 25.5s-69.333 40.167 -96 69.5s-47 64.166 -61 104.499s-21 83.833 -21 130.5
c0 48 7.16699 92 21.5 132s34.666 74.333 60.999 103s58.333 51 96 67s79.834 24 126.501 24c46 0 87.5 -8 124.5 -24s68.5 -38.5 94.5 -67.5s46.167 -63.5 60.5 -103.5s21.5 -83.667 21.5 -131zM594.999 318.999c0 42.667 -5.66797 81.334 -17.001 116.001
s-27.5 64 -48.5 88s-46 42.5 -75 55.5s-61.167 19.5 -96.5 19.5c-38 0 -72 -6.83301 -102 -20.5s-55.667 -32.834 -77 -57.501s-37.666 -54.167 -48.999 -88.5s-17 -71.833 -17 -112.5c0 -42 6 -80.167 18 -114.5s29 -64.833 51 -91.5h-1
c21.333 -26.667 46.5 -46.167 75.5 -58.5s61.833 -18.5 98.5 -18.5s69.667 7 99 21s54.5 33.5 75.5 58.5s37.167 54.833 48.5 89.5s17 72.667 17 114zM337.998 629.999v77h69v-77h-69zM197.998 629.999v77h68v-77h-68z" />
    <glyph glyph-name="lozenge" horiz-adv-x="453" 
d="M344 109l-118 120l-119 -120l-44 46l118 119l-118 117l44 46l119 -118l118 118l46 -46l-118 -117l118 -119z" />
    <glyph glyph-name="ydieresis" horiz-adv-x="603" 
d="M507 470c40 -51.333 59.999 -115.334 59.999 -192.001c0 -43.333 -6.5 -82.666 -19.5 -117.999s-31.167 -65.5 -54.5 -90.5s-51.166 -44.5 -83.499 -58.5s-67.833 -21 -106.5 -21c-66 0 -123 20 -171 60l-64 -71l-38 32l67 74c-40.667 54 -61 118.333 -61 193
c0 42 6.5 80.333 19.5 115s31.167 64.667 54.5 90s51.333 45 84 59s69 21 109 21c66.667 0 122.667 -19 168 -57l64 70l38 -32zM425.999 453.999c-32.667 31.333 -73.332 47.001 -121.999 47.001c-29.333 0 -55.833 -5.5 -79.5 -16.5s-43.834 -26.167 -60.501 -45.5
s-29.5 -42.833 -38.5 -70.5s-13.5 -57.834 -13.5 -90.501c0 -56 11 -102.333 33 -139zM491.001 278c0 54 -11.001 99.999 -33.001 137.999l-281 -315c34.667 -32 76 -48 124 -48c28.667 0 54.834 5.5 78.501 16.5s43.667 26.333 60 46s29 43.334 38 71.001
s13.5 58.167 13.5 91.5z" />
    <glyph glyph-name="Ydieresis" horiz-adv-x="560" 
d="M576 266c0 -50 -4.50098 -92.499 -13.501 -127.499s-23.5 -63.667 -43.5 -86s-45.5 -38.5 -76.5 -48.5s-68.5 -15 -112.5 -15c-36.667 0 -68.667 3.16699 -96 9.5s-50.666 16.166 -69.999 29.499h1c-31.333 22.667 -52.666 53.167 -63.999 91.5s-17 87.166 -17 146.499
v369h57v-368c0 -41.333 3.16699 -76.5 9.5 -105.5s17 -52.5 32 -70.5s34.5 -31.167 58.5 -39.5s53.667 -12.5 89 -12.5c63.333 0 109.666 15.667 138.999 47v-1c32 32.667 48 93.334 48 182.001v368h59v-369v0zM298.999 711.001l-80 98h70c8 -18 16 -34.5 24 -49.5
s16 -31.167 24 -48.5h-38z" />
    <glyph glyph-name="fraction" horiz-adv-x="560" 
d="M576 266c0 -50 -4.50098 -92.499 -13.501 -127.499s-23.5 -63.667 -43.5 -86s-45.5 -38.5 -76.5 -48.5s-68.5 -15 -112.5 -15c-36.667 0 -68.667 3.16699 -96 9.5s-50.666 16.166 -69.999 29.499h1c-31.333 22.667 -52.666 53.167 -63.999 91.5s-17 87.166 -17 146.499
v369h57v-368c0 -41.333 3.16699 -76.5 9.5 -105.5s17 -52.5 32 -70.5s34.5 -31.167 58.5 -39.5s53.667 -12.5 89 -12.5c63.333 0 109.666 15.667 138.999 47v-1c32 32.667 48 93.334 48 182.001v368h59v-369v0zM291.999 614.001h-55l51 105h88z" />
    <glyph glyph-name="Euro" horiz-adv-x="560" 
d="M576 266c0 -50 -4.50098 -92.499 -13.501 -127.499s-23.5 -63.667 -43.5 -86s-45.5 -38.5 -76.5 -48.5s-68.5 -15 -112.5 -15c-36.667 0 -68.667 3.16699 -96 9.5s-50.666 16.166 -69.999 29.499h1c-31.333 22.667 -52.666 53.167 -63.999 91.5s-17 87.166 -17 146.499
v369h57v-368c0 -41.333 3.16699 -76.5 9.5 -105.5s17 -52.5 32 -70.5s34.5 -31.167 58.5 -39.5s53.667 -12.5 89 -12.5c63.333 0 109.666 15.667 138.999 47v-1c32 32.667 48 93.334 48 182.001v368h59v-369v0zM322.999 614.001l-43 64l-44 -64h-76l84 105h72l84 -105h-77z
" />
    <glyph glyph-name="guilsinglleft" horiz-adv-x="560" 
d="M576 266c0 -50 -4.50098 -92.499 -13.501 -127.499s-23.5 -63.667 -43.5 -86s-45.5 -38.5 -76.5 -48.5s-68.5 -15 -112.5 -15c-36.667 0 -68.667 3.16699 -96 9.5s-50.666 16.166 -69.999 29.499h1c-31.333 22.667 -52.666 53.167 -63.999 91.5s-17 87.166 -17 146.499
v369h57v-368c0 -41.333 3.16699 -76.5 9.5 -105.5s17 -52.5 32 -70.5s34.5 -31.167 58.5 -39.5s53.667 -12.5 89 -12.5c63.333 0 109.666 15.667 138.999 47v-1c32 32.667 48 93.334 48 182.001v368h59v-369v0zM285.999 630.001v77h69v-77h-69zM145.999 630.001v77h68v-77
h-68z" />
    <glyph glyph-name="guilsinglright" horiz-adv-x="517" 
d="M335 271v-271h-62v271l-123.5 182l-124.5 182h75l204 -318l206 318h73zM270 590h-55l51 105h88z" />
    <glyph glyph-name="fi" horiz-adv-x="517" 
d="M483 284c0 -114.667 -69 -172 -207 -172h-141v-112h-72v555h72v-110h134c76.667 0 131.5 -13.667 164.5 -41s49.5 -67.333 49.5 -120zM407 282c0 36 -10.833 61.333 -32.5 76s-55.167 22 -100.5 22h-139v-202h141c87.333 0 131 34.667 131 104z" />
    </font>
</defs>
</svg>
