<?xml version="1.0" standalone="no"?>
<!DOCTYPE svg PUBLIC "-//W3C//DTD SVG 1.1//EN" "http://www.w3.org/Graphics/SVG/1.1/DTD/svg11.dtd" >
<svg>
<metadata>
Created by FontForge 20090914 at Mon Dec 19 06:18:20 2022
 By www-data
Copyright (c) 2018 by &#194;&#169; Summit Information Technologies Pvt. Ltd.. All rights reserved.
</metadata>
<defs>
<font id="KalingaVUni-BoldItalic" horiz-adv-x="14" >
  <font-face 
    font-family="KalingaVUni"
    font-weight="700"
    font-style="italic"
    font-stretch="normal"
    units-per-em="1000"
    panose-1="2 0 8 6 2 0 0 2 0 4"
    ascent="800"
    descent="-200"
    x-height="466"
    cap-height="642"
    bbox="-641.429 -567.995 1728.01 1061"
    underline-thickness="40"
    underline-position="-170"
    unicode-range="U+0020-U+25CC"
  />
<missing-glyph horiz-adv-x="615" 
d="M307 923h462l-230 -923h-462zM480 77l191 769h-307l-191 -769h307z" />
    <glyph glyph-name=".notdef" horiz-adv-x="615" 
d="M307 923h462l-230 -923h-462zM480 77l191 769h-307l-191 -769h307z" />
    <glyph glyph-name="space" unicode=" " horiz-adv-x="332" 
 />
    <glyph glyph-name="exclam" unicode="!" horiz-adv-x="250" 
d="M136 160l121 482h73l-121 -482h-73zM80 0l22 90h90l-22 -90h-90z" />
    <glyph glyph-name="quotedbl" unicode="&#x22;" horiz-adv-x="317" 
d="M364 415h-48l35 227h89l-26 -104zM210 415h-49l36 227h90l-26 -104z" />
    <glyph glyph-name="numbersign" unicode="#" horiz-adv-x="498" 
d="M501 400l-71 -159h83l-16 -64h-96l-80 -177h-68l81 177h-140l-80 -177h-66l80 177h-74l16 64h87l71 159h-83l17 66h97l79 176h67l-81 -176h141l81 176h65l-79 -176h72l-17 -66h-86zM295 400l-71 -159h140l70 159h-139z" />
    <glyph glyph-name="dollar" unicode="$" horiz-adv-x="493" 
d="M505 186c-7.33301 -28 -18.499 -53.6709 -33.499 -77.0039s-33 -43.5 -54 -60.5s-44.167 -30.667 -69.5 -41s-51.666 -16.166 -78.999 -17.499l-17 -69h-47l17 68c-115.333 12 -163 76 -143 192h85c-12.667 -72.667 12 -114.667 74 -126l61 245
c-56 12.667 -95.167 33.167 -117.5 61.5s-27.5 66.166 -15.5 113.499c13.333 53.333 39.666 94.833 78.999 124.5s86.666 47.167 141.999 52.5l17 69h47l-17 -69c102 -6 146.333 -58.667 133 -158h-86c8 54 -13 85 -63 93l-55 -220c34 -7.33301 61.667 -16.166 83 -26.499
s37.5 -22.666 48.5 -36.999s17 -31.166 18 -50.499s-1.5 -41.666 -7.5 -66.999zM371.001 587.996c-64.667 -11.333 -104.333 -47.333 -119 -108c-13.333 -54 8.66699 -88.667 66 -104zM417.002 179.996c4 15.333 5.83203 28.668 5.49902 40.001s-3.16602 21.333 -8.49902 30
s-13.833 16.167 -25.5 22.5s-26.5 12.166 -44.5 17.499l-59 -235c70 9.33301 114 51 132 125z" />
    <glyph glyph-name="percent" unicode="%" horiz-adv-x="798" 
d="M781 160c-12.667 -50.667 -35.5 -91.832 -68.5 -123.499s-73.5 -47.5 -121.5 -47.5c-43.333 0 -74.5 15.667 -93.5 47s-22.167 72.666 -9.5 123.999c6 24.667 14.833 47.334 26.5 68.001s25.667 38.667 42 54s34.5 27.333 54.5 36s41.667 13 65 13
c22 0 41.167 -4.33301 57.5 -13s29 -20.667 38 -36s14.333 -33.333 16 -54s-0.5 -43.334 -6.5 -68.001zM255 0.00195312h-64l510 642h64zM469 483.002c-13.333 -52 -36.5 -93.501 -69.5 -124.501s-73.167 -46.5 -120.5 -46.5c-44.667 0 -76.167 15.5 -94.5 46.5
s-20.833 72.5 -7.5 124.5c6 24 14.833 46.333 26.5 67s25.5 38.5 41.5 53.5s34 26.833 54 35.5s41.667 13 65 13s43 -4.33301 59 -13s28.5 -20.667 37.5 -36s14.167 -33.166 15.5 -53.499s-1 -42.5 -7 -66.5zM709 160.001c20 78 4.66699 117 -46 117
c-49.333 0 -84 -39 -104 -117c-18.667 -78 -3.66699 -117 45 -117c51.333 0 86.333 39 105 117zM398 483.001c18.667 78 3.00098 117 -46.999 117c-50.667 0 -85.334 -39 -104.001 -117c-20 -77.333 -4.66699 -116 46 -116c50 0 85 38.667 105 116z" />
    <glyph glyph-name="ampersand" unicode="&#x26;" horiz-adv-x="590" 
d="M485 -11l-38.002 71.002c-60 -47.333 -129.333 -71 -208 -71c-28 0 -53.167 4.66699 -75.5 14s-40.666 22.5 -54.999 39.5s-24 36.833 -29 59.5s-4.16699 47.667 2.5 75c10 40 30.667 74.333 62 103s76 58 134 88c-14.667 29.333 -25 55.5 -31 78.5
s-6.33301 44.167 -1 63.5c5.33301 22 14.333 41.667 27 59s27.834 32.166 45.501 44.499s37 21.833 58 28.5s42.5 10 64.5 10c20 0 38.167 -3.33301 54.5 -10s29.666 -16.167 39.999 -28.5s17.333 -26.833 21 -43.5s3.16699 -35 -1.5 -55
c-14 -56.667 -69.333 -110.334 -166 -161.001l91 -161c20 32.667 36 68.667 48 108h86c-21.333 -64.667 -53.666 -123.667 -96.999 -177l45 -81zM475.998 514.002c5.33301 21.333 2.5 39 -8.5 53s-26.833 21 -47.5 21c-20 0 -38.833 -6.66699 -56.5 -20
s-29.167 -29.666 -34.5 -48.999c-3.33301 -13.333 -3.33301 -26.833 0 -40.5s9.33301 -28.834 18 -45.501l15 -27c66 32.667 104 68.667 114 108zM308.998 315.002c-81.333 -42 -128 -86.332 -140 -132.999c-4 -16.667 -4.83301 -32.334 -2.5 -47.001s7.5 -27.5 15.5 -38.5
s18.333 -19.833 31 -26.5s27 -10 43 -10c60 0 113 19.333 159 58z" />
    <glyph glyph-name="quotesingle" unicode="'" horiz-adv-x="169" 
d="M214 415h-49l8 123l26 104h90l-26 -104z" />
    <glyph glyph-name="parenleft.001" unicode="(" horiz-adv-x="386" 
d="M317 -144c-20 34.667 -36.999 74.167 -50.999 118.5s-24.667 90 -32 137s-10.833 93.167 -10.5 138.5s5.16602 86.333 14.499 123c9.33301 38 25 79.5 47 124.5s48.167 90.667 78.5 137s64 91.833 101 136.5s75.5 85.667 115.5 123h31
c-161.333 -180 -263 -353.667 -305 -521c-41.333 -165.333 -25.333 -338.333 48 -519z" />
    <glyph glyph-name="parenright.001" unicode=")" horiz-adv-x="386" 
d="M388 373c-38 -152.667 -150.67 -325.333 -338.003 -518l-35 -1c163.333 177.333 266 350.333 308 519c43.333 171.333 27.333 345 -48 521h31c20.667 -34.667 38.334 -74 53.001 -118s25.834 -89.5 33.501 -136.5s11.334 -93.5 11.001 -139.5s-5.5 -88.333 -15.5 -127z
" />
    <glyph glyph-name="asterisk.001" unicode="*" horiz-adv-x="557" 
d="M725 630c-2 -7.33301 -5.83105 -14.5078 -11.498 -21.5078s-12.334 -13.167 -20.001 -18.5s-15.834 -9.5 -24.501 -12.5s-17 -4.5 -25 -4.5c-11.333 0 -20.666 3.66699 -27.999 11l-101 134l15 -160c1.33301 -2.66699 1.33301 -7.33398 0 -14.001
c-2 -6.66699 -5.66699 -13.167 -11 -19.5s-11.666 -11.833 -18.999 -16.5s-15.666 -8.5 -24.999 -11.5s-18.333 -4.5 -27 -4.5c-18 0 -32.667 6.16699 -44 18.5s-14.666 27.5 -9.99902 45.5c1.33301 4.66699 3.66602 8.66699 6.99902 12l93 154l-141 -122
c-8.66699 -7.33301 -17.834 -12.666 -27.501 -15.999s-19.167 -5 -28.5 -5c-20 0 -35.833 5.16699 -47.5 15.5s-14.834 24.833 -9.50098 43.5c3.33301 15.333 12.5 30 27.5 44s30.167 22.667 45.5 26l171 31l-162 47c-24.667 6.66699 -33 26.334 -25 59.001
c5.33301 20.667 15.833 36.834 31.5 48.501s33.167 17.5 52.5 17.5c8 0 14.667 -1.33301 20 -4s10 -6.66699 14 -12l89 -132l-17 150c-0.666992 2.66699 -0.833984 4.66699 -0.500977 6l1.5 6c2 6.66699 6 13.834 12 21.501s13 14.834 21 21.501s16.667 12 26 16
s18.333 6 27 6c20 0 35.167 -5.66699 45.5 -17s13.833 -24 10.5 -38c-1.33301 -3.33301 -2.33301 -6.33301 -3 -9s-1.66699 -5 -3 -7l-94 -160l158 134c4 4.66699 9.5 7.83398 16.5 9.50098s14.833 2.5 23.5 2.5c19.333 0 33.5 -4.66699 42.5 -14s10.833 -24.333 5.5 -45
c-8 -33.333 -25.333 -53.666 -52 -60.999l-189 -46l162 -34c4 -1.33301 8.16699 -4.5 12.5 -9.5s7.83301 -11.167 10.5 -18.5s4.66699 -15.166 6 -23.499s1 -16.166 -1 -23.499z" />
    <glyph glyph-name="plus.001" unicode="+" horiz-adv-x="728" 
d="M534 346l-86 -346h-52l86 346h-352l13 53h352l86 344h52l-86 -344h352l-13 -53h-352z" />
    <glyph glyph-name="comma" unicode="," horiz-adv-x="250" 
d="M170 0c-21.333 -84.667 -62 -127 -122 -127l10 42c29.333 0 51.333 28.333 66 85h-44l22 90h90l-22 -90v0z" />
    <glyph glyph-name="hyphen.001" unicode="-" horiz-adv-x="446" 
d="M120 303l15 61h357l-15 -61h-357z" />
    <glyph glyph-name="period" unicode="." horiz-adv-x="250" 
d="M80 0l22 90h90l-22 -90h-90z" />
    <glyph glyph-name="slash.001" unicode="/" horiz-adv-x="315" 
d="M31 -245h-50l508 1095l59 4z" />
    <glyph glyph-name="zero" unicode="0" horiz-adv-x="498" 
d="M539 321c-56 -221.333 -153.333 -332 -292 -332c-141.333 0 -184 110.667 -128 332c54 220.667 151.667 331 293 331c138.667 0 181 -110.333 127 -331zM453 321c22.667 92 29.833 159.499 21.5 202.499s-34.5 64.5 -78.5 64.5c-44.667 0 -82.167 -22.167 -112.5 -66.5
s-56.5 -111.166 -78.5 -200.499c-23.333 -93.333 -30.5 -161.166 -21.5 -203.499s35.5 -63.5 79.5 -63.5s80.833 21.667 110.5 65s56.167 110.666 79.5 201.999z" />
    <glyph glyph-name="one" unicode="1" horiz-adv-x="435" 
d="M253 0l126 506c-39.333 -23.333 -93.333 -35 -162 -35l16 64c100.667 0 168 39 202 117h63l-162 -652h-83z" />
    <glyph glyph-name="two" unicode="2" horiz-adv-x="481" 
d="M28 0c4.66699 20 12.002 39.1689 22.002 57.502s23.833 37 41.5 56s40 39 67 60s59.833 44.5 98.5 70.5c44 29.333 79.667 54.166 107 74.499s49.166 38.833 65.499 55.5s28.333 32.667 36 48s14.167 33 19.5 53c19.333 75.333 -10.334 113 -89.001 113
c-76 0 -126.667 -40.333 -152 -121h-85c10 29.333 23.333 55.5 40 78.5s36 42.333 58 58s46.167 27.667 72.5 36s54.166 12.5 83.499 12.5c32 0 59.167 -4.5 81.5 -13.5s40 -21.5 53 -37.5s21.333 -35 25 -57s2.16699 -46 -4.5 -72c-6 -24 -13.833 -45.5 -23.5 -64.5
s-24 -38.5 -43 -58.5s-43.833 -41.667 -74.5 -65l-117 -85c-47.333 -32.667 -83.166 -58.834 -107.499 -78.501s-37.833 -34.167 -40.5 -43.5h310l-19 -77h-425z" />
    <glyph glyph-name="three" unicode="3" horiz-adv-x="499" 
d="M507 189c-7.33301 -30 -19.4971 -57.166 -36.4971 -81.499s-37.333 -45.333 -61 -63s-49.667 -31.334 -78 -41.001s-57.5 -14.5 -87.5 -14.5c-28.667 0 -54.167 4.16699 -76.5 12.5s-40.833 20.166 -55.5 35.499s-24.834 34.333 -30.501 57s-5.83398 48 -0.500977 76h85
c-4.66699 -17.333 -5.5 -33.166 -2.5 -47.499s8.66699 -26.5 17 -36.5s19.333 -17.833 33 -23.5s29.167 -8.5 46.5 -8.5c20 0 38.667 3.33301 56 10s33 16 47 28s26 26 36 42s17.333 33.667 22 53c21.333 84.667 -14.667 127 -108 127h-31l16 64h19c80 0 129 36.667 147 110
c16.667 66.667 -8.66602 100 -75.999 100c-66.667 0 -111.334 -34 -134.001 -102h-85c18.667 52 48.167 92.667 88.5 122s88.833 44 145.5 44c26.667 0 50.5 -3.5 71.5 -10.5s38 -17.333 51 -31s21.667 -30.834 26 -51.501s3.16602 -45 -3.50098 -73
c-16 -61.333 -56.333 -105.666 -121 -132.999c36 -9.33301 60.667 -29 74 -59s15.333 -65 6 -105z" />
    <glyph glyph-name="four" unicode="4" horiz-adv-x="472" 
d="M408 154l-38 -154h-82l38 154h-273l18 72l397 425h64l-106 -425h88l-18 -72h-88zM417 520l-271 -294h198z" />
    <glyph glyph-name="five" unicode="5" horiz-adv-x="499" 
d="M516 218c-8 -33.333 -20.832 -63.999 -38.499 -91.999s-38.5 -52.167 -62.5 -72.5s-50.833 -36.166 -80.5 -47.499s-60.834 -17 -93.501 -17c-58.667 0 -102.334 15.667 -131.001 47s-39 75.666 -31 132.999h86c-10 -76.667 20.667 -115 92 -115
c19.333 0 38.333 4.16699 57 12.5s35.667 19.5 51 33.5s28.666 30.5 39.999 49.5s19.666 39.167 24.999 60.5c10.667 43.333 7.33398 78.666 -9.99902 105.999s-47 41 -89 41c-44 0 -87.667 -17.667 -131 -53h-63l112 338h344l-19 -76h-274l-59 -179c38 26 80.667 39 128 39
c28.667 0 53.834 -5.5 75.501 -16.5s39 -25.833 52 -44.5s21.333 -40.667 25 -66s1.83398 -52.333 -5.49902 -81z" />
    <glyph glyph-name="six" unicode="6" horiz-adv-x="501" 
d="M512 208c-8 -32 -20.335 -61.333 -37.002 -88s-36.334 -49.667 -59.001 -69s-47.667 -34.5 -75 -45.5s-55 -16.5 -83 -16.5c-36 0 -66 7.16699 -90 21.5s-42.167 35 -54.5 62s-18.5 59.667 -18.5 98s6 81.5 18 129.5c58.667 234.667 164.334 352 317.001 352
c106.667 0 154 -53 142 -159h-83c6.66699 63.333 -20 95 -80 95c-83.333 0 -149.666 -80.667 -198.999 -242c26.667 24 53.334 41.667 80.001 53s54 17 82 17s52.333 -5.66699 73 -17s37.167 -26.5 49.5 -45.5s20 -41 23 -66s1.16699 -51.5 -5.5 -79.5zM425.998 204
c5.33301 20 7.50195 39 6.50195 57s-5 33.833 -12 47.5s-17 24.334 -30 32.001s-28.833 11.5 -47.5 11.5c-45.333 0 -95.333 -23.333 -150 -70c-36 -152 -9.33301 -228 80 -228c17.333 0 34.166 4 50.499 12s31.166 18.667 44.499 32s25 29.166 35 47.499
s17.667 37.833 23 58.5z" />
    <glyph glyph-name="seven" unicode="7" horiz-adv-x="502" 
d="M225 0h-92l379 566h-328l19 76h416l-15 -58z" />
    <glyph glyph-name="eight" unicode="8" horiz-adv-x="498" 
d="M503 171c-7.33301 -28 -19.167 -53.3311 -35.5 -75.998s-35.833 -41.834 -58.5 -57.501s-47.834 -27.667 -75.501 -36s-56.5 -12.5 -86.5 -12.5c-31.333 0 -59 4 -83 12s-43.5 19.667 -58.5 35s-25 34.333 -30 57s-3.83301 48.667 3.5 78
c9.33301 35.333 28.333 66.666 57 93.999s68.334 51.333 119.001 72c-62 41.333 -85 93.666 -69 156.999c6 23.333 15.833 44.666 29.5 63.999s30.5 36 50.5 50s42.333 24.833 67 32.5s51 11.5 79 11.5c26 0 49.5 -3.33301 70.5 -10s38.167 -16.5 51.5 -29.5
s22.333 -29.5 27 -49.5s3.66699 -43 -3 -69c-16.667 -63.333 -65.667 -115.666 -147 -156.999c79.333 -41.333 110 -96.666 92 -165.999zM474.999 494.002c14.667 62.667 -11.666 94 -78.999 94c-68.667 0 -110.334 -31.333 -125.001 -94
c-12.667 -50.667 11 -91.667 71 -123c76 31.333 120.333 72.333 133 123zM417.999 171.002c12 49.333 -19.332 92.334 -93.999 129.001c-52 -20 -89.833 -40.333 -113.5 -61s-38.834 -43.334 -45.501 -68.001c-9.33301 -37.333 -4.83301 -66.166 13.5 -86.499
s46.5 -30.5 84.5 -30.5s71 10.167 99 30.5s46.667 49.166 56 86.499z" />
    <glyph glyph-name="nine" unicode="9" horiz-adv-x="496" 
d="M544 342c-59.333 -235.333 -164.33 -353.002 -314.997 -353.002c-52 0 -90.5 14.167 -115.5 42.5s-34.833 67.166 -29.5 116.499h86c-8 -62.667 18.333 -94 79 -94c81.333 0 147.666 80.667 198.999 242c-54.667 -46.667 -109 -70 -163 -70
c-27.333 0 -51.5 5.33301 -72.5 16s-37.667 25.334 -50 44.001s-20.333 40.5 -24 65.5s-1.83398 52.167 5.49902 81.5c8 32 20.5 61.333 37.5 88s37 49.834 60 69.501s48 34.834 75 45.501s54.5 16 82.5 16c147.333 0 195.666 -103.333 144.999 -310zM465.003 358.998
c34.667 152.667 8.66699 228.999 -78 228.999c-18.667 0 -36.334 -4 -53.001 -12s-31.667 -18.667 -45 -32s-25 -29.166 -35 -47.499s-17.333 -37.5 -22 -57.5c-5.33301 -20 -7.5 -39 -6.5 -57s4.83301 -33.667 11.5 -47s16.334 -23.833 29.001 -31.5s28.667 -11.5 48 -11.5
c46 0 96.333 22.333 151 67z" />
    <glyph glyph-name="colon" unicode=":" horiz-adv-x="250" 
d="M173 375l23 91h90l-23 -91h-90zM80 0l22 90h90l-22 -90h-90z" />
    <glyph glyph-name="semicolon" unicode=";" horiz-adv-x="250" 
d="M173 375l23 91h90l-23 -91h-90zM170 0c-21.333 -84.667 -62 -127 -122 -127l10 42c29.333 0 51.333 28.333 66 85h-44l22 90h90z" />
    <glyph glyph-name="less" unicode="&#x3c;" horiz-adv-x="525" 
d="M119 280l19 73l470 181l-20 -78l-372 -139l303 -139l-20 -78z" />
    <glyph glyph-name="equal" unicode="=" horiz-adv-x="525" 
d="M144 378l18 73h425l-18 -73h-425zM95 182l18 74h425l-18 -74h-425z" />
    <glyph glyph-name="greater" unicode="&#x3e;" horiz-adv-x="525" 
d="M74 100l20 78l371 139l-302 139l20 78l380 -181l-19 -73z" />
    <glyph glyph-name="question" unicode="?" horiz-adv-x="498" 
d="M575 478c-7.33301 -28.667 -22.1699 -55.6689 -44.5029 -81.002s-52.166 -52 -89.499 -80l-44 -32c-10 -7.33301 -18.333 -14.166 -25 -20.499s-12.667 -14 -18 -23s-10.333 -20 -15 -33s-9.66699 -29.5 -15 -49.5h-77c16.667 68 43.667 119 81 153l79 61
c14.667 10.667 26.667 20.334 36 29.001s16.833 16.667 22.5 24s10.167 14.666 13.5 21.999s6 15.333 8 24c4 17.333 4.66699 33.166 2 47.499s-8 26.5 -16 36.5s-18.5 17.833 -31.5 23.5s-27.833 8.5 -44.5 8.5c-71.333 0 -122.666 -40.333 -153.999 -121h-85
c8.66699 28.667 21.334 54.334 38.001 77.001s36.167 42 58.5 58s47 28.333 74 37s54.833 13 83.5 13s54.667 -3.66699 78 -11s42.5 -18.166 57.5 -32.499s25.167 -32.5 30.5 -54.5s4.33301 -47.333 -3 -76zM203.996 -0.00195312l22 90h90l-22 -90h-90z" />
    <glyph glyph-name="at" unicode="@" horiz-adv-x="909" 
d="M936 312c-12 -47.333 -29.0068 -90.335 -51.0068 -129.002s-48 -71.5 -78 -98.5s-63.167 -47.833 -99.5 -62.5s-74.166 -22 -113.499 -22c-52 0 -74 24.333 -66 73c-46.667 -48.667 -97.334 -73 -152.001 -73c-24 0 -44.833 4.33301 -62.5 13s-31.5 20.834 -41.5 36.501
s-16.167 34.5 -18.5 56.5s-0.166016 46 6.50098 72c8 32.667 22.333 66.5 43 101.5s44.834 67 72.501 96s57.667 52.833 90 71.5s64.5 28 96.5 28c61.333 0 103 -19 125 -57l20 43h77l-139 -292c-8.66699 -17.333 -15.167 -32 -19.5 -44s-7.5 -22.667 -9.5 -32
c-5.33301 -20 -0.666016 -30 14.001 -30c24.667 0 49.167 5.16699 73.5 15.5s47.333 26 69 47s41.167 47.333 58.5 79s31.333 68.5 42 110.5c10 40.667 11.333 78 4 112s-21.833 63.333 -43.5 88s-49.667 44 -84 58s-73.833 21 -118.5 21c-52.667 0 -104 -10.167 -154 -30.5
s-95.667 -48 -137 -83s-77.166 -76.167 -107.499 -123.5s-52.166 -98 -65.499 -152c-13.333 -52.667 -16.666 -99.667 -9.99902 -141s22.667 -76.166 48 -104.499s59.5 -49.833 102.5 -64.5s94.167 -22 153.5 -22c74 0 138.333 11.667 193 35l19 -54
c-36 -13.333 -72.667 -23.666 -110 -30.999s-76.333 -11 -117 -11c-69.333 0 -129.166 9.16699 -179.499 27.5s-90.166 44.5 -119.499 78.5s-48.166 75.333 -56.499 124s-4.83301 103 10.5 163c16 64 41.5 123.333 76.5 178s76.833 102.167 125.5 142.5
s102.5 71.833 161.5 94.5s120.167 34 183.5 34c55.333 0 103.666 -8.5 144.999 -25.5s74.666 -40.833 99.999 -71.5s41.833 -66.834 49.5 -108.501s5.5 -87.167 -6.5 -136.5zM654.993 353.998c-8 18.667 -20.332 32.832 -36.999 42.499s-38.667 14.5 -66 14.5
c-19.333 0 -39.666 -6.83301 -60.999 -20.5s-41.833 -31.5 -61.5 -53.5s-37.334 -46.667 -53.001 -74s-26.834 -54.666 -33.501 -81.999c-20 -78.667 1 -118 63 -118c14.667 0 30.5 3 47.5 9s33.5 15 49.5 27s31.167 26.833 45.5 44.5s26.5 38.167 36.5 61.5z" />
    <glyph glyph-name="A" unicode="A" horiz-adv-x="649" 
d="M529 0l-27 196h-269l-119 -196h-89l406 642h91l103 -642h-96zM455 561l-183 -298h222z" />
    <glyph glyph-name="B" unicode="B" horiz-adv-x="625" 
d="M598 187c-31.333 -124.667 -126.668 -187.001 -286.001 -187.001h-239l160 642h227c68 0 118.167 -13.667 150.5 -41s41.833 -68.333 28.5 -123c-16 -62 -58.333 -107.667 -127 -137c78.667 -19.333 107.334 -70.666 86.001 -153.999zM554.998 470.999
c8.66699 34 2.83203 58.333 -17.501 73s-55.166 22 -104.499 22h-136l-49 -193h143c93.333 0 148 32.667 164 98zM510.996 186.999c9.33301 38.667 3.66699 66.5 -17 83.5s-61 25.5 -121 25.5h-144l-54 -219h156c102 0 162 36.667 180 110z" />
    <glyph glyph-name="C" unicode="C" horiz-adv-x="645" 
d="M653 204c-12 -34 -28.3301 -64.167 -48.9971 -90.5s-44.667 -48.833 -72 -67.5s-57.333 -32.834 -90 -42.501s-67.334 -14.5 -104.001 -14.5c-45.333 0 -84.5 7.83301 -117.5 23.5s-59 38 -78 67s-30.333 64 -34 105s0.833008 86.833 13.5 137.5
s31.167 96.334 55.5 137.001s53 75.334 86 104.001s69.833 50.667 110.5 66s83.667 23 129 23c34 0 64.833 -4.16699 92.5 -12.5s50.667 -21 69 -38s31.833 -38.333 40.5 -64s11.667 -55.5 9 -89.5h-89c3.33301 21.333 2.33301 40.166 -3 56.499s-14.333 30 -27 41
s-28.334 19.333 -47.001 25s-39.334 8.5 -62.001 8.5c-34 0 -65.667 -6.16699 -95 -18.5s-56 -29.833 -80 -52.5s-44.667 -49.667 -62 -81s-30.666 -66.333 -39.999 -105c-21.333 -84 -18.833 -148.333 7.5 -193s72.833 -67 139.5 -67c107.333 0 176.666 47.333 207.999 142
h89v0z" />
    <glyph glyph-name="D" unicode="D" horiz-adv-x="675" 
d="M684 325c-54.667 -216.667 -191.332 -325 -409.999 -325h-201l160 642h201c219.333 0 302.666 -105.667 249.999 -317zM596.002 325c10.667 42.667 15.166 79.334 13.499 110.001s-9.83398 55.667 -24.501 75s-36.167 33.5 -64.5 42.5s-63.833 13.5 -106.5 13.5h-117
l-122 -489h117c42.667 0 80.334 4.5 113.001 13.5s61.334 23.333 86.001 43s45.5 45.167 62.5 76.5s31.167 69.666 42.5 114.999z" />
    <glyph glyph-name="E" unicode="E" horiz-adv-x="624" 
d="M73 0l160 642h462l-19 -76h-379l-49 -196h356l-19 -76h-356l-54 -217h395l-19 -77h-478z" />
    <glyph glyph-name="F" unicode="F" horiz-adv-x="578" 
d="M297 566l-50 -198h303l-19 -76h-303l-72 -292h-83l160 642h433l-19 -76h-350z" />
    <glyph glyph-name="G" unicode="G" horiz-adv-x="683" 
d="M579 0l-5.00195 65.998c-57.333 -51.333 -132 -77 -224 -77c-45.333 0 -85 8 -119 24s-61.167 38.5 -81.5 67.5s-33.166 64 -38.499 105s-1.66602 86.5 11.001 136.5c12 48.667 30.5 93.334 55.5 134.001s54.667 75.5 89 104.5s72.5 51.5 114.5 67.5s86 24 132 24
c37.333 0 71 -4.16699 101 -12.5s55 -21 75 -38s34.5 -38.333 43.5 -64s11.5 -55.5 7.5 -89.5h-88c14 87.333 -38 131 -156 131c-35.333 0 -68.5 -6.16699 -99.5 -18.5s-58.667 -29.666 -83 -51.999s-45.5 -49.333 -63.5 -81s-31.667 -66.834 -41 -105.501
c-10 -40 -13.833 -76.167 -11.5 -108.5s10.5 -59.666 24.5 -81.999s33.167 -39.5 57.5 -51.5s53.5 -18 87.5 -18c92 0 168.333 30.667 229 92l24 97h-169l19 76h252l-81 -327h-62z" />
    <glyph glyph-name="H" unicode="H" horiz-adv-x="648" 
d="M492 0l75 301h-336l-75 -301h-83l160 642h83l-66 -263h336l66 263h84l-160 -642h-84z" />
    <glyph glyph-name="I" unicode="I" horiz-adv-x="251" 
d="M82 0l160 642h87l-160 -642h-87z" />
    <glyph glyph-name="J" unicode="J" horiz-adv-x="402" 
d="M429 205c-19.333 -76 -48.334 -131 -87.001 -165s-88 -51 -148 -51c-26.667 0 -49.5 4.33301 -68.5 13s-34 20.834 -45 36.501s-17.833 34.334 -20.5 56.001s-0.666992 45.5 6 71.5l4 16h84c-19.333 -78 0.333984 -117 59.001 -117c16.667 0 31.5 2.16699 44.5 6.5
s24.5 11.666 34.5 21.999s19 24.166 27 41.499s15.333 39 22 65l111 442h86l-109 -437v0z" />
    <glyph glyph-name="K" unicode="K" horiz-adv-x="669" 
d="M485 0l-149 321l-125 -98l-55 -223h-83l160 642h83l-79 -317l393 317h115l-335 -263l187 -379h-112z" />
    <glyph glyph-name="L" unicode="L" horiz-adv-x="542" 
d="M73 0l160 642h83l-141 -565h314l-19 -77h-397z" />
    <glyph glyph-name="M" unicode="M" horiz-adv-x="749" 
d="M594 0l136 546l-318 -546h-77l-46 546l-136 -546h-80l160 642h126l40 -535l310 535h128l-160 -642h-83z" />
    <glyph glyph-name="N" unicode="N" horiz-adv-x="648" 
d="M488 0l-209 507l-126 -507h-80l160 642h86l210 -507l127 507h80l-160 -642h-88z" />
    <glyph glyph-name="O" unicode="O" horiz-adv-x="699" 
d="M737 322c-12.667 -49.333 -31.4961 -94.5039 -56.4961 -135.504s-54.667 -76.167 -89 -105.5s-72.333 -52 -114 -68s-84.834 -24 -129.501 -24c-46.667 0 -86.834 8.33301 -120.501 25s-60.334 39.834 -80.001 69.501s-31.834 64.834 -36.501 105.501s-1 85 11 133
s30.5 92.333 55.5 133s54.667 75.5 89 104.5s72.5 51.667 114.5 68s86 24.5 132 24.5c46.667 0 86.834 -8.16699 120.501 -24.5s60.167 -39.166 79.5 -68.499s31.166 -64.166 35.499 -104.499s0.5 -84.5 -11.5 -132.5zM648.004 321.996c10 39.333 13.667 74.833 11 106.5
s-10.667 58.667 -24 81s-31.833 39.5 -55.5 51.5s-51.5 18 -83.5 18c-34.667 0 -67.334 -6.33301 -98.001 -19s-58.5 -30.167 -83.5 -52.5s-46.5 -49.333 -64.5 -81s-31.667 -66.5 -41 -104.5s-12.833 -73 -10.5 -105s10.333 -59.5 24 -82.5s32.334 -40.833 56.001 -53.5
s52.167 -19 85.5 -19c34 0 66.167 6.33301 96.5 19s57.833 30.5 82.5 53.5s46 50.5 64 82.5s31.667 67 41 105z" />
    <glyph glyph-name="P" unicode="P" horiz-adv-x="632" 
d="M673 454c-33.333 -132 -130.333 -198 -291 -198h-163l-63 -256h-83l160 642h268c146 0 203.333 -62.667 172 -188zM583 451c10 40 5.16699 69.167 -14.5 87.5s-53.5 27.5 -101.5 27.5h-170l-58 -233h163c100.667 0 161 39.333 181 118z" />
    <glyph glyph-name="Q" unicode="Q" horiz-adv-x="710" 
d="M606 -52l-85.998 84.9961c-29.333 -15.333 -58.166 -26.5 -86.499 -33.5s-56.833 -10.5 -85.5 -10.5c-46.667 0 -86.834 8.33301 -120.501 25s-60.334 39.834 -80.001 69.501s-31.834 64.834 -36.501 105.501s-1 85 11 133s30.5 92.333 55.5 133s54.667 75.5 89 104.5
s72.5 51.667 114.5 68s86 24.5 132 24.5c46.667 0 86.834 -8.16699 120.501 -24.5s60.167 -39.166 79.5 -68.499s31.166 -64.166 35.499 -104.499s0.5 -84.5 -11.5 -132.5c-24 -96.667 -71.667 -176.667 -143 -240l76 -73zM648.002 321.996
c10 39.333 13.667 74.833 11 106.5s-10.667 58.667 -24 81s-31.833 39.5 -55.5 51.5s-51.5 18 -83.5 18c-34.667 0 -67.334 -6.33301 -98.001 -19s-58.5 -30.167 -83.5 -52.5s-46.5 -49.333 -64.5 -81s-31.667 -66.5 -41 -104.5s-12.833 -73 -10.5 -105
s10.333 -59.5 24 -82.5s32.334 -40.833 56.001 -53.5s52.167 -19 85.5 -19c36 0 69.667 7.33301 101 22l-51 50l67 59l62 -60c50 47.333 85 110.333 105 189z" />
    <glyph glyph-name="R" unicode="R" horiz-adv-x="679" 
d="M515 0l-19 171c-3.33301 30.667 -15 55.5 -35 74.5s-46 28.5 -78 28.5h-159l-68 -274h-83l160 642h284c76.667 0 130 -14.667 160 -44s37.333 -75 22 -137c-22 -90 -83.667 -146.333 -185 -169c40 -14.667 63.667 -53.667 71 -117l21 -175h-91zM611 461
c19.333 73.333 -17.333 110 -110 110h-203l-55 -219h190c53.333 0 93.833 8 121.5 24s46.5 44.333 56.5 85z" />
    <glyph glyph-name="S" unicode="S" horiz-adv-x="592" 
d="M597 181c-6.66699 -26 -18 -50.667 -34 -74s-36 -43.833 -60 -61.5s-52 -31.5 -84 -41.5s-67.667 -15 -107 -15c-86.667 0 -149 19.167 -187 57.5s-49.667 91.833 -35 160.5h84c-8 -46 1.83301 -81.167 29.5 -105.5s68.5 -36.5 122.5 -36.5c22.667 0 44.5 2.5 65.5 7.5
s39.667 12.333 56 22s30.333 21.167 42 34.5s19.5 28.666 23.5 45.999c6 22.667 5.16699 40.167 -2.5 52.5s-22.334 23.166 -44.001 32.499s-50.167 18.666 -85.5 27.999s-78 22.333 -128 39c-36 16.667 -59.167 36.834 -69.5 60.501s-11.166 52.834 -2.49902 87.501
c6.66699 26 17.334 49.833 32.001 71.5s33.5 40.334 56.5 56.001s50 27.834 81 36.501s65.5 13 103.5 13c72.667 0 126.667 -15.833 162 -47.5s46.333 -79.834 33 -144.501h-82c12 78 -31 117 -129 117c-46 0 -84.5 -8.33301 -115.5 -25s-50.5 -40.667 -58.5 -72
c-8.66699 -38 9.66602 -65 54.999 -81l140 -39c58.667 -16 99.167 -38.167 121.5 -66.5s27.833 -65.833 16.5 -112.5z" />
    <glyph glyph-name="T" unicode="T" horiz-adv-x="549" 
d="M457 566l-141 -566h-85l141 566h-211l19 76h509l-19 -76h-213z" />
    <glyph glyph-name="U" unicode="U" horiz-adv-x="648" 
d="M643 271c-12.667 -50.667 -28.165 -93.8311 -46.498 -129.498s-40.5 -64.834 -66.5 -87.501s-56 -39.167 -90 -49.5s-73.333 -15.5 -118 -15.5c-47.333 0 -85.833 5.5 -115.5 16.5s-51.5 28 -65.5 51s-20.667 52.167 -20 87.5s7 77.666 19 126.999l93 371h83l-93 -370
c-9.33301 -38.667 -14.5 -71.167 -15.5 -97.5s3.16699 -47.666 12.5 -63.999s23.833 -28 43.5 -35s45.5 -10.5 77.5 -10.5c30.667 0 57.5 3.5 80.5 10.5s43.167 18.667 60.5 35s32.166 37.666 44.499 63.999s23.166 58.833 32.499 97.5l93 370h84l-93 -371v0z" />
    <glyph glyph-name="V" unicode="V" horiz-adv-x="599" 
d="M343 0h-88l-89 642h90l65 -551l341 551h91z" />
    <glyph glyph-name="W" unicode="W" horiz-adv-x="847" 
d="M659 0h-81l-15 558l-294 -558h-81l-18 642h90l-2 -523l275 523h102l14 -523l259 523h90z" />
    <glyph glyph-name="X" unicode="X" horiz-adv-x="598" 
d="M490 0l-124 272l-258 -272h-104l331 339l-147 303h105l106 -237l227 237h103l-299 -303l164 -339h-104z" />
    <glyph glyph-name="Y" unicode="Y" horiz-adv-x="598" 
d="M409 272l-67 -272h-86l67 272l-159 370h104l117 -296l267 296h102z" />
    <glyph glyph-name="Z" unicode="Z" horiz-adv-x="540" 
d="M16 0l19 80l522 486h-363l19 76h460l-20 -80l-520 -485h410l-19 -77h-508z" />
    <glyph glyph-name="bracketleft" unicode="[" horiz-adv-x="296" 
d="M17 -178l205 820h173l-17 -65h-91l-171 -689h91l-17 -66h-173z" />
    <glyph glyph-name="backslash" unicode="\" horiz-adv-x="250" 
d="M186 0l-26 642h63l27 -642h-64z" />
    <glyph glyph-name="bracketright" unicode="]" horiz-adv-x="203" 
d="M-29 -178l17 66h91l171 689h-92l17 65h173l-205 -820h-172z" />
    <glyph glyph-name="asciicircum" unicode="^" horiz-adv-x="421" 
d="M398 371l-49 191l-145 -191h-79l213 271h63l78 -271h-81z" />
    <glyph glyph-name="underscore" unicode="_" horiz-adv-x="508" 
d="M-41 -141l11 44h507l-11 -44h-507z" />
    <glyph glyph-name="grave" unicode="`" horiz-adv-x="236" 
d="M266 530l-67 122h104l28 -122h-65z" />
    <glyph glyph-name="a" unicode="a" horiz-adv-x="472" 
d="M357 0l11.002 48c-52.667 -39.333 -112.334 -59 -179.001 -59c-22.667 0 -42.834 3.16699 -60.501 9.5s-32.167 15.5 -43.5 27.5s-19 26.167 -23 42.5s-3.33301 34.5 2 54.5c27.333 109.333 134.666 164 321.999 164h42c6.66699 26.667 10.334 48.167 11.001 64.5
s-2.16602 29 -8.49902 38s-16.5 15 -30.5 18s-32 4.5 -54 4.5c-74 0 -119 -26.667 -135 -80h-81c31.333 95.333 109.666 143 234.999 143c36 0 65.333 -3.33301 88 -10s39.667 -17 51 -31s17.5 -32.167 18.5 -54.5s-2.5 -48.833 -10.5 -79.5l-74 -300h-81zM413.002 225
l-58.001 0.000976562c-120.667 0 -189 -32.667 -205 -98c-12 -48.667 14.333 -73 79 -73c31.333 0 59.833 5.66699 85.5 17s49.834 28.666 72.501 51.999z" />
    <glyph glyph-name="b" unicode="b" horiz-adv-x="529" 
d="M525 236c-9.33301 -37.333 -22.5 -71.166 -39.5 -101.499s-36.833 -56.333 -59.5 -78s-47.5 -38.334 -74.5 -50.001s-54.833 -17.5 -83.5 -17.5c-52 0 -90.667 15.667 -116 47l-8 -36h-82l160 642h82l-58 -231c48 42.667 97.667 64 149 64c57.333 0 98 -21.167 122 -63.5
s26.667 -100.833 8 -175.5zM439 236c30 117.333 7.33301 175.999 -68 175.999c-46 0 -94.333 -27 -145 -81l-55 -220c13.333 -19.333 28.833 -33.666 46.5 -42.999s38.5 -14 62.5 -14c75.333 0 128.333 60.667 159 182z" />
    <glyph glyph-name="c" unicode="c" horiz-adv-x="469" 
d="M472 139c-8 -22.667 -19.501 -43.167 -34.501 -61.5s-32.167 -34 -51.5 -47s-40.833 -23.167 -64.5 -30.5s-48.5 -11 -74.5 -11c-34.667 0 -64.167 5.83301 -88.5 17.5s-43.166 28 -56.499 49s-21.333 46.5 -24 76.5s0.666016 63.333 9.99902 100
c10 38.667 24 73.167 42 103.5s39.167 55.833 63.5 76.5s51.166 36.334 80.499 47.001s60.666 16 93.999 16c50.667 0 90 -12.833 118 -38.5s39 -62.5 33 -110.5h-86c4.66699 26.667 -0.666016 47.667 -15.999 63s-37 23 -65 23c-40.667 0 -76.667 -14.833 -108 -44.5
s-54.666 -74.834 -69.999 -135.501c-29.333 -118.667 0.333984 -178 89.001 -178c64 0 105 28.333 123 85h86v0z" />
    <glyph glyph-name="d" unicode="d" horiz-adv-x="469" 
d="M357 0l13 55.002c-51.333 -44 -101.333 -66 -150 -66c-31.333 0 -57.5 5.83301 -78.5 17.5s-37 28 -48 49s-17 46.167 -18 75.5s3.16699 62 12.5 98c9.33301 37.333 22.5 71.166 39.5 101.499s36.833 56.166 59.5 77.499s47.5 37.833 74.5 49.5s55.167 17.5 84.5 17.5
c49.333 0 88.333 -15.333 117 -46l54 213h81l-160 -642h-81zM445 354.002c-27.333 38.667 -63.666 58 -108.999 58c-78 0 -132 -61 -162 -183c-30 -116.667 -7.33301 -175 68 -175c45.333 0 94.666 26.667 147.999 80z" />
    <glyph glyph-name="e" unicode="e" horiz-adv-x="498" 
d="M171 213c-10 -51.333 -6.50293 -90.667 10.4971 -118s47.5 -41 91.5 -41c28.667 0 55.834 7.16699 81.501 21.5s43.167 35.5 52.5 63.5h86c-9.33301 -23.333 -22 -44.166 -38 -62.499s-34.167 -34 -54.5 -47s-42.833 -23 -67.5 -30s-50 -10.5 -76 -10.5
c-36 0 -66.667 5.66699 -92 17s-45.333 27.666 -60 48.999s-23.5 46.833 -26.5 76.5s0.166992 63.167 9.5 100.5c9.33301 36.667 22.833 70 40.5 100s38.834 55.5 63.501 76.5s51.834 37.333 81.501 49s61.167 17.5 94.5 17.5c34.667 0 64 -5.83301 88 -17.5
s42.667 -28 56 -49s21 -46.5 23 -76.5s-1.66699 -63.333 -11 -100l-4 -19h-349zM448.997 277.999c10 89.333 -22.333 134 -97 134c-73.333 0 -128 -44.667 -164 -134h261z" />
    <glyph glyph-name="f" unicode="f" horiz-adv-x="276" 
d="M411 576c-12 2 -29.001 3 -51.001 3c-38 0 -63 -24.333 -75 -73l-10 -40h87l-17 -66h-87l-99 -400h-84l99 400h-68l17 66h68l10 40c24 97.333 79.333 146 166 146c30.667 0 51.334 -1.33301 62.001 -4l-18 -72v0z" />
    <glyph glyph-name="g" unicode="g" horiz-adv-x="469" 
d="M446 36c-36.667 -149.333 -122.664 -223.998 -257.997 -223.998c-56.667 0 -99.334 11.833 -128.001 35.5s-37.334 58.5 -26.001 104.5h87c-13.333 -50.667 14.334 -76 83.001 -76c43.333 0 77.666 12.5 102.999 37.5s44.666 64.833 57.999 119.5l5 22
c-51.333 -44 -101.333 -66 -150 -66c-31.333 0 -57.5 5.83301 -78.5 17.5s-37 28 -48 49s-17 46.167 -18 75.5s3.16699 62 12.5 98c9.33301 37.333 22.5 71.166 39.5 101.499s36.833 56.166 59.5 77.499s47.5 37.833 74.5 49.5s55.167 17.5 84.5 17.5
c49.333 0 88.333 -15.333 117 -46l10 37h81zM445.003 354.002c-27.333 38.667 -63.666 58 -108.999 58c-78 0 -132 -61 -162 -183c-30 -116.667 -7.33301 -175 68 -175c45.333 0 94.666 26.667 147.999 80z" />
    <glyph glyph-name="h" unicode="h" horiz-adv-x="502" 
d="M357 0l74 300c18 71.333 -2.33301 107 -61 107c-20.667 0 -42.834 -6 -66.501 -18s-49.167 -30.667 -76.5 -56l-83 -333h-82l160 642h82l-59 -236c54 46 105.667 69 155 69c104.667 0 143.334 -56.667 116.001 -170l-76 -305h-83z" />
    <glyph glyph-name="i" unicode="i" horiz-adv-x="205" 
d="M199 552l23 90h82l-23 -90h-82zM62 0l116 466h82l-116 -466h-82z" />
    <glyph glyph-name="j" unicode="j" horiz-adv-x="181" 
d="M199 552l23 90h82l-23 -90h-82zM137 -26c-14 -57.333 -32.834 -98.668 -56.501 -124.001s-57.5 -38 -101.5 -38c-12.667 0 -23.5 0.333008 -32.5 1s-16.5 2.33398 -22.5 5.00098l18 70c12 -4.66699 26.667 -7 44 -7c16.667 0 30.334 7.5 41.001 22.5s20 38.833 28 71.5
l123 491h82z" />
    <glyph glyph-name="k" unicode="k" horiz-adv-x="507" 
d="M346 0l-92 236l-64 -50l-46 -186h-82l160 642h82l-91 -364l226 188h104l-220 -174l122 -292h-99z" />
    <glyph glyph-name="l" unicode="l" horiz-adv-x="205" 
d="M62 0l160 642h82l-160 -642h-82z" />
    <glyph glyph-name="m" unicode="m" horiz-adv-x="750" 
d="M606 0l74 300.001c18 71.333 3 107 -45 107c-20 0 -41.333 -6 -64 -18s-46.667 -30.667 -72 -56l-83 -333h-83l74 300c18 71.333 3 107 -45 107c-20.667 0 -42 -6 -64 -18s-45.667 -30.667 -71 -56l-83 -333h-82l116 466h82l-15 -60c50 46 98.667 69 146 69
c69.333 0 106.333 -28 111 -84c18 16.667 34.5 30.5 49.5 41.5s29 19.667 42 26s25.167 10.666 36.5 12.999s22.666 3.5 33.999 3.5c94.667 0 128.334 -56.667 101.001 -170l-76 -305h-83z" />
    <glyph glyph-name="n" unicode="n" horiz-adv-x="502" 
d="M357 0l74 300c18 71.333 -2.33301 107 -61 107c-20.667 0 -42.834 -6 -66.501 -18s-49.167 -30.667 -76.5 -56l-83 -333h-82l116 466h82l-15 -60c54 46 105.667 69 155 69c104.667 0 143.334 -56.667 116.001 -170l-76 -305h-83z" />
    <glyph glyph-name="o" unicode="o" horiz-adv-x="498" 
d="M524 232c-9.33301 -38 -22.998 -72.168 -40.998 -102.501s-39 -55.833 -63 -76.5s-50.667 -36.5 -80 -47.5s-60.333 -16.5 -93 -16.5c-34.667 0 -64.167 5.83301 -88.5 17.5s-43.166 28 -56.499 49s-21.333 46.5 -24 76.5s0.666016 63.333 9.99902 100
c10 38.667 24 73.167 42 103.5s39.167 55.833 63.5 76.5s51.166 36.334 80.499 47.001s60.666 16 93.999 16c34.667 0 64 -5.83301 88 -17.5s42.667 -28 56 -49s21 -46.5 23 -76.5s-1.66699 -63.333 -11 -100zM438.002 231.999c14.667 59.333 13.667 104.168 -3 134.501
s-44.334 45.5 -83.001 45.5c-40.667 0 -76.667 -14.833 -108 -44.5s-54.666 -74.834 -69.999 -135.501c-29.333 -118.667 0.333984 -178 89.001 -178c87.333 0 145.666 59.333 174.999 178z" />
    <glyph glyph-name="p" unicode="p" horiz-adv-x="529" 
d="M525 236c-9.33301 -37.333 -22.5 -71.166 -39.5 -101.499s-36.833 -56.333 -59.5 -78s-47.5 -38.334 -74.5 -50.001s-54.833 -17.5 -83.5 -17.5c-52 0 -90.667 15.667 -116 47l-53 -214h-82l161 644h82l-14 -55c48 42.667 97.667 64 149 64
c57.333 0 98 -21.167 122 -63.5s26.667 -100.833 8 -175.5zM439 236c30 117.333 7.33301 175.999 -68 175.999c-46 0 -94.333 -27 -145 -81l-55 -220c13.333 -19.333 28.833 -33.666 46.5 -42.999s38.5 -14 62.5 -14c75.333 0 128.333 60.667 159 182z" />
    <glyph glyph-name="q" unicode="q" horiz-adv-x="469" 
d="M312 -178l58 233.002c-51.333 -44 -101.333 -66 -150 -66c-31.333 0 -57.5 5.83301 -78.5 17.5s-37 28 -48 49s-17 46.167 -18 75.5s3.16699 62 12.5 98c9.33301 37.333 22.5 71.166 39.5 101.499s36.833 56.166 59.5 77.499s47.5 37.833 74.5 49.5
s55.167 17.5 84.5 17.5c49.333 0 88.333 -15.333 117 -46l10 37h81l-161 -644h-81zM445 354.002c-27.333 38.667 -63.666 58 -108.999 58c-78 0 -132 -61 -162 -183c-30 -116.667 -7.33301 -175 68 -175c45.333 0 94.666 26.667 147.999 80z" />
    <glyph glyph-name="r" unicode="r" horiz-adv-x="363" 
d="M397 389c-5.33301 2.66699 -12 4.33301 -20 5s-17 1 -27 1c-43.333 0 -85 -22.333 -125 -67l-81 -328h-82l116 466h82l-17 -66c46 50 92.333 75 139 75c7.33301 0 13.833 -0.5 19.5 -1.5s11.167 -1.83301 16.5 -2.5l-21 -82v0z" />
    <glyph glyph-name="s" unicode="s" horiz-adv-x="443" 
d="M449 137c-5.33301 -20.667 -14.335 -39.999 -27.002 -57.999s-28.667 -33.667 -48 -47s-41.666 -23.833 -66.999 -31.5s-53.333 -11.5 -84 -11.5c-127.333 0 -181 50 -161 150h83c-12.667 -56.667 18.666 -85 93.999 -85c70 0 111 24.667 123 74
c3.33301 13.333 2.33301 23.833 -3 31.5s-15.5 14.5 -30.5 20.5s-34.667 12.333 -59 19s-53.833 15.667 -88.5 27c-27.333 9.33301 -45.666 24 -54.999 44s-10.333 44 -3 72c4.66699 18.667 12.834 36.167 24.501 52.5s26.334 30.5 44.001 42.5s38.334 21.333 62.001 28
s49.5 10 77.5 10c120.667 0 171.667 -43.667 153 -131h-83c9.33301 45.333 -18.334 68 -83.001 68c-63.333 0 -100 -21 -110 -63c-3.33301 -11.333 -3.83301 -20.333 -1.5 -27s9.66602 -12.667 21.999 -18s30.833 -11.5 55.5 -18.5l100 -29.5
c57.333 -20.667 79 -60.334 65 -119.001z" />
    <glyph glyph-name="t" unicode="t" horiz-adv-x="257" 
d="M241 0c-19.333 -4 -39.668 -6.00195 -61.001 -6.00195c-22 0 -39.667 2 -53 6s-22.666 11.333 -27.999 22s-7.16602 25.334 -5.49902 44.001s6.16699 42.334 13.5 71.001l65 263h-57l17 66h57l28 113h82l-28 -113h76l-17 -66h-76l-66 -267
c-4 -15.333 -6.33301 -28 -7 -38s0.333008 -17.667 3 -23s6.5 -9 11.5 -11s11.167 -3 18.5 -3c8 0 15.667 0.333008 23 1s13.666 1.66699 18.999 3l-15 -62v0z" />
    <glyph glyph-name="u" unicode="u" horiz-adv-x="498" 
d="M357 0l14 60c-53.333 -47.333 -106 -71 -158 -71c-104 0 -141.667 57.333 -113 172l76 305h83l-76 -302c-16.667 -70.667 3.33301 -106 60 -106c46 0 95 25 147 75l83 333h81l-116 -466h-81z" />
    <glyph glyph-name="v" unicode="v" horiz-adv-x="449" 
d="M261 0h-74l-60 466h90l33 -365l214 365h90z" />
    <glyph glyph-name="w" unicode="w" horiz-adv-x="647" 
d="M504 0h-80l-14 342l-186 -342h-79l-25 466h92l-4 -355l195 355h73l18 -355l174 355h91z" />
    <glyph glyph-name="x" unicode="x" horiz-adv-x="449" 
d="M341 0l-71 181l-162 -181h-102l232 241l-102 225h103l61 -165l142 165h103l-214 -224l112 -242h-102z" />
    <glyph glyph-name="y" unicode="y" horiz-adv-x="449" 
d="M261 0c-24 -36.667 -44.6689 -67.001 -62.002 -91.001s-33.5 -43.167 -48.5 -57.5s-30.167 -24.5 -45.5 -30.5s-32.333 -9 -51 -9c-10.667 0 -20.167 0.333008 -28.5 1s-16.166 2.33398 -23.499 5.00098l19 75c6.66699 -2 13 -3.33301 19 -4s12.333 -1 19 -1
c40.667 0 83.334 37.333 128.001 112l-60 466h90l33 -365l214 365h90z" />
    <glyph glyph-name="z" unicode="z" horiz-adv-x="449" 
d="M18 0l17 70l371 325h-274l18 71h382l-18 -71l-372 -325h306l-17 -70h-413z" />
    <glyph glyph-name="braceleft" unicode="{" horiz-adv-x="304" 
d="M206 -188c-40.667 0 -69.3291 7.49609 -85.9961 22.4961s-24.334 41.167 -23.001 78.5c0 2.66699 1 7.83398 3 15.501s4.66699 18.5 8 32.5s7.16602 31.667 11.499 53s9.16602 47.333 14.499 78c8.66699 34 8.16699 59.833 -1.5 77.5s-28.834 26.834 -57.501 27.501
l17 71c16 0 30 2.16699 42 6.5s22.833 12 32.5 23s18.667 25.833 27 44.5s16.5 42.334 24.5 71.001c1.33301 4 2.16602 8 2.49902 12s1.16602 8.66699 2.49902 14c8.66699 36.667 17.834 68.334 27.501 95.001s21.5 48.667 35.5 66s31.333 30.333 52 39s46.334 13 77.001 13
h25l-17 -67h-14c-35.333 0 -61.333 -18 -78 -54l-25 -99c-15.333 -61.333 -35.166 -107.5 -59.499 -138.5s-54.833 -51.5 -91.5 -61.5c32 -11.333 52.167 -33 60.5 -65s5.5 -76.333 -8.5 -133l-25 -100c-0.666992 -35.333 16.666 -53 51.999 -53h14l-17 -69h-25z" />
    <glyph glyph-name="bar" unicode="|" horiz-adv-x="234" 
d="M35 -188l207 830h69l-207 -830h-69z" />
    <glyph glyph-name="braceright" unicode="}" horiz-adv-x="295" 
d="M323 197c-17.333 -0.666992 -32.1689 -3.33203 -44.502 -7.99902s-23.166 -12.334 -32.499 -23.001s-17.833 -25.167 -25.5 -43.5s-14.834 -41.5 -21.501 -69.5c-10 -41.333 -20 -77 -30 -107s-22 -55 -36 -75s-31.5 -34.833 -52.5 -44.5s-47.833 -14.5 -80.5 -14.5h-25
l17 69h12c14 0 25.5 1 34.5 3s17 7.16699 24 15.5s13.5 21 19.5 38s13 40.833 21 71.5c8.66699 35.333 17.834 65.666 27.501 90.999s20.5 46.833 32.5 64.5s25.833 31.834 41.5 42.501s33.834 19 54.501 25c-48.667 15.333 -70.334 55 -65.001 119
c6.66699 50 13.834 90.167 21.501 120.5s12.5 54 14.5 71s-0.5 28.333 -7.5 34s-21.5 8.5 -43.5 8.5h-13l17 67h25c81.333 0 117 -33.333 107 -100l-32 -165c-18 -79.333 1 -119 57 -119l-17 -71v0z" />
    <glyph glyph-name="asciitilde" unicode="~" horiz-adv-x="524" 
d="M624 554c-38.667 -34.667 -82.667 -52 -132 -52c-13.333 0 -29.666 3 -48.999 9s-39 12.667 -59 20l-55.5 20c-17 6 -29.833 9 -38.5 9c-36.667 0 -79.334 -20.333 -128.001 -61l22 90c40 35.333 85.333 53 136 53c10.667 0 25.334 -3 44.001 -9s38 -12.667 58 -20
l56 -20c17.333 -6 30.666 -9 39.999 -9c38 0 80.667 19.667 128 59l-22 -89v0z" />
    <glyph glyph-name="uni0964" unicode="&#x964;" horiz-adv-x="363" 
d="M489 669l-166 -669l-66 30l167 669z" />
    <glyph glyph-name="uni0965" unicode="&#x965;" horiz-adv-x="540" 
d="M419 669l-166 -669l-66 30l167 669zM616 669l-166 -669l-66 30l167 669z" />
    <glyph glyph-name="uni0B01" unicode="&#xb01;" horiz-adv-x="0" 
d="M146 822c-6 -24.667 -20.333 -37 -43 -37c-22 0 -30 12.333 -24 37c6 22.667 20 34 42 34c22.667 0 31 -11.333 25 -34zM292 835c-6 -22.667 -15.498 -43.834 -28.498 -63.501s-28.833 -36.667 -47.5 -51s-39.834 -25.666 -63.501 -33.999s-49.167 -12.5 -76.5 -12.5
c-57.333 0 -98 14.5 -122 43.5s-29.667 68.5 -17 118.5h59c-8.66699 -34 -6.33398 -60.333 6.99902 -79s39.333 -28 78 -28c37.333 0 69.5 7.83301 96.5 23.5s45.5 43.167 55.5 82.5h59z" />
    <glyph glyph-name="uni0B02" unicode="&#xb02;" horiz-adv-x="207" 
d="M223 645c17.333 -0.666992 33.001 -4.49902 47.001 -11.499s25.5 -16.333 34.5 -28s15 -25.334 18 -41.001s2.5 -32.5 -1.5 -50.5s-11.5 -35 -22.5 -51s-23.833 -30 -38.5 -42s-31 -21.5 -49 -28.5s-36 -10.833 -54 -11.5c-18.667 0 -35.334 3.33301 -50.001 10
s-26.667 16 -36 28s-15.666 26.167 -18.999 42.5s-2.66602 33.5 2.00098 51.5s12.667 35 24 51s24.666 30 39.999 42s32.166 21.5 50.499 28.5s36.5 10.5 54.5 10.5zM208.001 585.001c-21.333 0 -40.667 -6.83105 -58 -20.498s-28.666 -30.834 -33.999 -51.501
c-5.33301 -21.333 -3.16602 -39 6.50098 -53s26.167 -20.667 49.5 -20c23.333 1.33301 42.666 8.5 57.999 21.5s25.666 30.167 30.999 51.5c5.33301 19.333 3.5 36.166 -5.5 50.499s-24.833 21.5 -47.5 21.5z" />
    <glyph glyph-name="uni0B03" unicode="&#xb03;" horiz-adv-x="379" 
d="M314 141c6 30.667 -0.669922 62 -20.0029 94l-32 42c-7.33301 -2.66699 -17.166 -9 -29.499 -19s-24.666 -21.833 -36.999 -35.5s-23.666 -28.167 -33.999 -43.5s-16.833 -29 -19.5 -41c-6 -24 -3.66699 -44.167 7 -60.5s27.667 -24.5 51 -24.5
c26.667 0 50.5 7.83301 71.5 23.5s35.167 37.167 42.5 64.5zM396.997 485c14 59.333 -8 89.001 -66 89.001c-12 0 -23.667 -2.16699 -35 -6.5s-22 -10.5 -32 -18.5s-18.667 -17.167 -26 -27.5s-12.333 -21.5 -15 -33.5c-6 -24.667 -4.5 -48.5 4.5 -71.5
s26.167 -46.5 51.5 -70.5c6 2 15 8.33301 27 19s24.333 23.167 37 37.5s24.167 29.166 34.5 44.499s16.833 28 19.5 38zM375.997 144.001c-11.333 -48 -33.832 -85.998 -67.499 -113.998s-73.167 -42 -118.5 -42c-21.333 0 -40.333 3.66699 -57 11
s-30.167 17.666 -40.5 30.999s-17 29.333 -20 48s-1.83301 39.334 3.5 62.001c2 9.33301 6.5 19.833 13.5 31.5s15 23.667 24 36s18.833 24.333 29.5 36s21 22.167 31 31.5s19.167 17.166 27.5 23.499s14.833 10.166 19.5 11.499c-11.333 9.33301 -21.5 21.333 -30.5 36
s-16.333 30 -22 46s-9.66699 32 -12 48s-1.83301 30 1.5 42c5.33301 21.333 14.333 41.666 27 60.999s27.5 36.333 44.5 51s35.667 26.334 56 35.001s40.5 13 60.5 13c46.667 0 80.667 -13.833 102 -41.5s26 -65.167 14 -112.5c-3.33301 -13.333 -10.5 -29 -21.5 -47
s-23.5 -35.833 -37.5 -53.5s-28.333 -33.5 -43 -47.5s-27 -24 -37 -30c5.33301 -1.33301 11.5 -8 18.5 -20s13.5 -26.5 19.5 -43.5s10.667 -34.833 14 -53.5s3.66602 -35 0.999023 -49z" />
    <glyph glyph-name="uni0B05" unicode="&#xb05;" horiz-adv-x="649" 
d="M547 97c-69.333 -67.333 -150.331 -100.999 -242.998 -100.999c-32.667 0 -62.334 4.66699 -89.001 14s-49 22.333 -67 39s-30.667 36.667 -38 60s-7.33301 48.666 0 75.999c20.667 85.333 103 153.666 247 204.999c17.333 6 34.333 13.833 51 23.5
s31.834 20.167 45.501 31.5s25.334 23.5 35.001 36.5s16.167 25.833 19.5 38.5c5.33301 20 5.5 35.167 0.5 45.5s-14.167 15.5 -27.5 15.5c-32 0 -51.333 -12.333 -58 -37l-17 -69h-79l16 65c2.66699 10.667 0.5 19.5 -6.5 26.5s-16.167 10.5 -27.5 10.5
c-14.667 0 -28.334 -4.16699 -41.001 -12.5s-21 -20.166 -25 -35.499c-3.33301 -13.333 -0.5 -24.5 8.5 -33.5s20.167 -13.5 33.5 -13.5l-17 -67c-17.333 0 -32.833 2.5 -46.5 7.5s-25 12.167 -34 21.5s-15 21.166 -18 35.499s-2.16699 30.833 2.5 49.5
c4 16.667 11 32.334 21 47.001s21.667 27.5 35 38.5s28 19.5 44 25.5s32.667 9 50 9c18 0 33.667 -2.5 47 -7.5s24.666 -13.5 33.999 -25.5c13.333 10 28.5 18 45.5 24s35.5 9 55.5 9c16.667 0 31 -3.5 43 -10.5s21.333 -16.333 28 -28s10.5 -25.334 11.5 -41.001
s-0.5 -32.167 -4.5 -49.5c-12 -47.333 -40.333 -88.333 -85 -123c-8 -6.66699 -19.833 -14.5 -35.5 -23.5l-51 -28l-56 -28.5l-51.5 -25l-37 -17.5c-9.33301 -4.33301 -13.666 -6.16602 -12.999 -5.49902c-36.667 -22 -59 -48 -67 -78
c-4.66699 -18 -4.33398 -34.667 0.999023 -50s14.333 -28.333 27 -39s28.167 -19 46.5 -25s38.166 -9 59.499 -9c28 0 56.5 5.5 85.5 16.5s56 25.5 81 43.5s46.667 38.667 65 62s30.5 47.333 36.5 72l95 380h74l-160 -642h-74z" />
    <glyph glyph-name="uni0B06" unicode="&#xb06;" horiz-adv-x="831" 
d="M547 97c-69.333 -67.333 -150.331 -100.999 -242.998 -100.999c-32.667 0 -62.334 4.66699 -89.001 14s-49 22.333 -67 39s-30.667 36.667 -38 60s-7.33301 48.666 0 75.999c20.667 85.333 103 153.666 247 204.999c17.333 6 34.333 13.833 51 23.5
s31.834 20.167 45.501 31.5s25.334 23.5 35.001 36.5s16.167 25.833 19.5 38.5c5.33301 20 5.5 35.167 0.5 45.5s-14.167 15.5 -27.5 15.5c-32 0 -51.333 -12.333 -58 -37l-17 -69h-79l16 65c2.66699 10.667 0.5 19.5 -6.5 26.5s-16.167 10.5 -27.5 10.5
c-14.667 0 -28.334 -4.16699 -41.001 -12.5s-21 -20.166 -25 -35.499c-3.33301 -13.333 -0.5 -24.5 8.5 -33.5s20.167 -13.5 33.5 -13.5l-17 -67c-17.333 0 -32.833 2.5 -46.5 7.5s-25 12.167 -34 21.5s-15 21.166 -18 35.499s-2.16699 30.833 2.5 49.5
c4 16.667 11 32.334 21 47.001s21.667 27.5 35 38.5s28 19.5 44 25.5s32.667 9 50 9c18 0 33.667 -2.5 47 -7.5s24.666 -13.5 33.999 -25.5c13.333 10 28.5 18 45.5 24s35.5 9 55.5 9c16.667 0 31 -3.5 43 -10.5s21.333 -16.333 28 -28s10.5 -25.334 11.5 -41.001
s-0.5 -32.167 -4.5 -49.5c-12 -47.333 -40.333 -88.333 -85 -123c-8 -6.66699 -19.833 -14.5 -35.5 -23.5l-51 -28l-56 -28.5l-51.5 -25l-37 -17.5c-9.33301 -4.33301 -13.666 -6.16602 -12.999 -5.49902c-36.667 -22 -59 -48 -67 -78
c-4.66699 -18 -4.33398 -34.667 0.999023 -50s14.333 -28.333 27 -39s28.167 -19 46.5 -25s38.166 -9 59.499 -9c28 0 56.5 5.5 85.5 16.5s56 25.5 81 43.5s46.667 38.667 65 62s30.5 47.333 36.5 72l95 380h74l-160 -642h-74zM867.002 642.001h73l-160 -642h-73z" />
    <glyph glyph-name="uni0B07" unicode="&#xb07;" horiz-adv-x="717" 
d="M268 148c7.33301 30 10.834 53.499 10.501 70.499s-6.83301 25.5 -19.5 25.5c-14 0 -26 -7.83301 -36 -23.5s-18.667 -37.5 -26 -65.5c-16 -65.333 -10.667 -98 16 -98c5.33301 0 10.333 1 15 3s9 6.33301 13 13s8.16699 15.834 12.5 27.501s9.16602 27.5 14.499 47.5z
M406.001 147.999c7.33301 30 10.834 53.499 10.501 70.499s-6.83301 25.5 -19.5 25.5c-13.333 0 -25.333 -7.83301 -36 -23.5s-19.667 -37.5 -27 -65.5c-16 -65.333 -10.333 -98 17 -98c6 0 11.167 1 15.5 3s8.5 6.33301 12.5 13s8.16699 15.834 12.5 27.501
s9.16602 27.5 14.499 47.5zM539.002 143.998c60 48 98.998 107.667 116.998 179c8 33.333 9.5 65.333 4.5 96s-15.833 57.667 -32.5 81s-38.5 42 -65.5 56s-58.167 21 -93.5 21c-28 0 -56.5 -5.5 -85.5 -16.5s-55.833 -25.667 -80.5 -44s-46 -39.333 -64 -63
s-30 -47.834 -36 -72.501c-3.33301 -13.333 -5.16602 -25.666 -5.49902 -36.999s1.5 -21.333 5.5 -30l10 -24c15.333 12.667 36.333 19 63 19c30.667 0 48 -16.333 52 -49c22.667 32 51 48 85 48c33.333 0 55.333 -14.167 66 -42.5s10.334 -65.833 -0.999023 -112.5
c-13.333 -50.667 -32.333 -89.5 -57 -116.5s-55 -40.5 -91 -40.5c-17.333 0 -32 5 -44 15l-12 19c-27.333 -22.667 -55.333 -34 -84 -34c-13.333 0 -25 4.16699 -35 12.5s-18 19.5 -24 33.5s-9.66699 30.167 -11 48.5s0.333984 37.5 5.00098 57.5
c7.33301 27.333 17.666 49.666 30.999 66.999c-31.333 48 -39.333 103.333 -24 166c9.33301 38 25.833 73.333 49.5 106s51.5 61 83.5 85s66.5 42.833 103.5 56.5s73.5 20.5 109.5 20.5c47.333 0 89.333 -7.83301 126 -23.5s66.167 -38 88.5 -67s36.833 -63.667 43.5 -104
s4 -85.166 -8 -134.499c-16 -64 -48 -123.667 -96 -179l56 -141h-91z" />
    <glyph glyph-name="uni0B08" unicode="&#xb08;" horiz-adv-x="711" 
d="M275 148c7.33301 30 10.168 53.499 8.50098 70.499s-8.16699 25.5 -19.5 25.5c-13.333 0 -25 -7 -35 -21s-18 -33 -24 -57c-9.33301 -36.667 -12.333 -64 -9 -82s11 -27 23 -27c6 0 11.333 1 16 3s9 6.33301 13 13s8.16699 15.834 12.5 27.501s9.16602 27.5 14.499 47.5z
M412.002 147.999c7.33301 30 10.832 53.5 10.499 70.5s-6.83301 25.5 -19.5 25.5c-13.333 0 -25.333 -7 -36 -21s-19 -33 -25 -57c-9.33301 -36.667 -12.166 -64 -8.49902 -82s11.5 -27 23.5 -27c6 0 11.333 1 16 3s9 6.16699 13 12.5s8 15.5 12 27.5s8.66699 28 14 48z
M543.001 132.999l39.0029 47.001c11.333 14 21.166 27.667 29.499 41s15.5 26.833 21.5 40.5s11 29.167 15 46.5c8.66699 34 10.5 67.167 5.5 99.5s-14.833 61 -29.5 86s-33.167 45.167 -55.5 60.5s-46.5 23 -72.5 23c-51.333 0 -82 -21 -92 -63
c-4.66699 -18 -4.83398 -32 -0.500977 -42s13.5 -17.667 27.5 -23l65 -23l-36 -64l-136 44c-14 4 -27.667 6 -41 6c-43.333 0 -70.333 -23.333 -81 -70c-3.33301 -13.333 -2 -27.333 4 -42l12 -16c20.667 16.667 42 25 64 25c30.667 0 48.334 -16.333 53.001 -49
c22 32 50 48 84 48s56.167 -14.167 66.5 -42.5s9.83301 -65.833 -1.5 -112.5c-13.333 -50.667 -32.166 -89.5 -56.499 -116.5s-54.833 -40.5 -91.5 -40.5c-17.333 0 -32 5 -44 15l-12 19c-27.333 -22.667 -55.333 -34 -84 -34c-13.333 0 -24.833 4.33301 -34.5 13
s-17.167 20 -22.5 34s-8.33301 30.167 -9 48.5s1.33301 37.166 6 56.499c6 25.333 16.333 50.333 31 75c-7.33301 4 -13.833 10.833 -19.5 20.5s-10.334 20.667 -14.001 33s-6 25.333 -7 39s0.166992 26.834 3.5 39.501c21.333 85.333 79.666 128 174.999 128h10.5
c3 0 6.16699 -0.333008 9.5 -1l11 46c29.333 80.667 85.333 121 168 121c38.667 0 74.167 -9 106.5 -27s59 -42.333 80 -73s35.167 -65.834 42.5 -105.501s5.66602 -80.834 -5.00098 -123.501c-17.333 -69.333 -50 -131.666 -98 -186.999l49 -133h-82z" />
    <glyph glyph-name="uni0B09" unicode="&#xb09;" horiz-adv-x="734" 
d="M569 135c25.333 28 46.8271 57.5 64.4941 88.5s30.834 63.5 39.501 97.5c8.66699 34.667 9.83398 67.5 3.50098 98.5s-18.5 58.167 -36.5 81.5s-41.333 41.833 -70 55.5s-61 20.5 -97 20.5c-28 0 -56.5 -5.16699 -85.5 -15.5s-56 -24.333 -81 -42
s-46.833 -38.5 -65.5 -62.5s-31.334 -50 -38.001 -78c-7.33301 -28 -7.33301 -48 0 -60l15 -10l88 70l37 -51l-71 -57c-36.667 -30.667 -59 -61 -67 -91c-4 -16 -4.33301 -31 -1 -45s9.33301 -26.167 18 -36.5s19.834 -18.5 33.501 -24.5s28.834 -9 45.501 -9
s33.334 2.66699 50.001 8s31.667 12.5 45 21.5s24.833 19.333 34.5 31s16.167 23.834 19.5 36.501c3.33301 13.333 4 26.166 2 38.499s-6.66699 22.833 -14 31.5l-82 -65l-35 51l194 156l36 -51l-48 -38c12 -17.333 20.5 -35 25.5 -53s4.83301 -36.667 -0.5 -56
c-6.66699 -26 -18.167 -50.333 -34.5 -73s-35.5 -42.334 -57.5 -59.001s-45.667 -29.667 -71 -39s-50.333 -14 -75 -14c-30 0 -56.333 5 -79 15s-40.834 23.833 -54.501 41.5s-22.667 38.5 -27 62.5s-3.16602 50 3.50098 78c6.66699 26 16.334 47.333 29.001 64l-26 24
c-13.333 22 -14.666 57 -3.99902 105c10 38.667 26.333 74.334 49 107.001s49.834 61 81.501 85s66.334 42.667 104.001 56s76.167 20 115.5 20c48.667 0 92.167 -8.5 130.5 -25.5s69.666 -40.5 93.999 -70.5s40.666 -65.167 48.999 -105.5s6.83301 -83.833 -4.5 -130.5
c-16 -63.333 -48.333 -123 -97 -179l48 -138h-81z" />
    <glyph glyph-name="uni0B0A" unicode="&#xb0a;" horiz-adv-x="740" 
d="M761 218c-14 -45.333 -43.0039 -79.998 -87.0039 -103.998l31 -114h-89l-35 150c1.33301 -0.666992 4 -1 8 -1c9.33301 0 19.166 1.83301 29.499 5.5s19.833 8.5 28.5 14.5s16.334 13 23.001 21s11 16.667 13 26c6.66699 25.333 5.16699 43.166 -4.5 53.499
s-26.167 15.5 -49.5 15.5c8.66699 13.333 16.5 27.166 23.5 41.499s12.167 28.5 15.5 42.5c6.66699 28.667 7 55.667 1 81s-17.5 47.5 -34.5 66.5s-38.5 33.833 -64.5 44.5s-55.333 16 -88 16c-28.667 0 -58.167 -5.16699 -88.5 -15.5s-58.5 -24.5 -84.5 -42.5
s-48.5 -39 -67.5 -63s-31.833 -49.667 -38.5 -77c-7.33301 -28 -7.33301 -48 0 -60l15 -10l88 70l37 -51l-71 -57c-36.667 -30.667 -59 -61 -67 -91c-4 -16 -4.33301 -31 -1 -45s9.33301 -26.167 18 -36.5s19.834 -18.5 33.501 -24.5s28.834 -9 45.501 -9
c16 0 32 2.5 48 7.5s31 12.167 45 21.5s26.167 20.333 36.5 33s17.5 26.667 21.5 42c6 24 3 46 -9 66l-87 -68l-35 51l194 156l36 -51l-48 -38c12 -17.333 20.5 -35 25.5 -53s4.83301 -36.667 -0.5 -56c-6.66699 -26 -18.167 -50.333 -34.5 -73s-35.5 -42.334 -57.5 -59.001
s-45.667 -29.667 -71 -39s-50.333 -14 -75 -14c-30 0 -56.333 5 -79 15s-40.834 23.833 -54.501 41.5s-22.667 38.5 -27 62.5s-3.16602 50 3.50098 78c6.66699 26 16.334 47.333 29.001 64l-15 9c-12.667 7.33301 -20.167 21.666 -22.5 42.999s0.166992 47 7.5 77
c10 38 27 73.333 51 106s52.333 61 85 85s68.167 42.833 106.5 56.5s76.5 20.5 114.5 20.5c44.667 0 84.834 -6.83301 120.501 -20.5s65 -32.667 88 -57s38.667 -53.166 47 -86.499s7.5 -69.666 -2.5 -108.999c-1.33301 -7.33301 -7 -21 -17 -41
c20.667 -13.333 33.5 -29.5 38.5 -48.5s4.16699 -41.833 -2.5 -68.5z" />
    <glyph glyph-name="uni0B0B" unicode="&#xb0b;" horiz-adv-x="695" 
d="M398 154c6 24 3.16699 44.502 -8.5 61.502s-28.5 25.5 -50.5 25.5c-11.333 0 -22.333 -2.33301 -33 -7s-20.667 -10.834 -30 -18.501s-17.5 -16.834 -24.5 -27.501s-11.833 -22 -14.5 -34c-6 -24 -3.5 -44.833 7.5 -62.5s27.833 -26.5 50.5 -26.5
c11.333 0 22.5 2.5 33.5 7.5s21.167 11.667 30.5 20s17.333 17.833 24 28.5s11.667 21.667 15 33zM538 103.002l43.001 34.001c28.667 26 46 50 52 72c2 7.33301 2.16699 16.5 0.5 27.5s-4 21.833 -7 32.5s-6.5 20 -10.5 28s-7.33301 12.667 -10 14
c13.333 22.667 22 42.334 26 59.001c7.33301 30 8.5 57.667 3.5 83s-15 47.166 -30 65.499s-34.333 32.5 -58 42.5s-50.167 15 -79.5 15c-26.667 0 -54.167 -5.16699 -82.5 -15.5s-54.833 -24.5 -79.5 -42.5s-46.334 -39 -65.001 -63s-31.334 -49.333 -38.001 -76
c-5.33301 -20.667 -4 -38.334 4 -53.001s21 -29.334 39 -44.001c32.667 22 67.667 33 105 33c22 0 42 -4.33301 60 -13s32.667 -20.167 44 -34.5s19 -31.333 23 -51s3.33301 -40.5 -2 -62.5s-14.5 -42.667 -27.5 -62s-28.5 -36 -46.5 -50s-37.667 -25.167 -59 -33.5
s-43 -12.5 -65 -12.5s-41.5 4.16699 -58.5 12.5s-31 19.5 -42 33.5s-18.167 30.667 -21.5 50s-2.33301 40 3 62c2 7.33301 5.33301 16.5 10 27.5s11.334 23.833 20.001 38.5l-40 38c-23.333 32.667 -29.666 70.334 -18.999 113.001c10 39.333 26.833 76 50.5 110
s51.834 63.5 84.501 88.5s68.167 44.5 106.5 58.5s76.833 21 115.5 21s73.667 -6.66699 105 -20s57.166 -31.833 77.499 -55.5s34.166 -51.5 41.499 -83.5s6.33301 -67 -3 -105c-8 -33.333 -14.333 -52.333 -19 -57c23.333 -30 29.333 -67.333 18 -112
c-11.333 -47.333 -37.333 -86 -78 -116l43 -100h-87z" />
    <glyph glyph-name="uni0B0C" unicode="&#xb0c;" horiz-adv-x="515" 
d="M439 133c3.33301 12 1.66699 22.5 -5 31.5s-16 13.5 -28 13.5s-23.5 -4.5 -34.5 -13.5s-18.167 -19.5 -21.5 -31.5s-1.5 -22.333 5.5 -31s16.5 -13 28.5 -13s23.333 4.33301 34 13s17.667 19 21 31zM520.001 141c-6 -23.333 -16.332 -44.5039 -30.999 -63.5039
s-32.5 -35 -53.5 -48s-44.333 -23 -70 -30s-52.5 -10.5 -80.5 -10.5c-33.333 0 -63.666 5 -90.999 15s-50 24 -68 42s-30.667 39.333 -38 64s-7.33301 51.667 0 81c6 23.333 13 43.333 21 60s19.667 32.334 35 47.001s35.833 29.667 61.5 45s59.5 33 101.5 53l107 49
c34 19.333 54.667 44.333 62 75c4.66699 18 2 32.833 -8 44.5s-24.667 17.5 -44 17.5c-21.333 0 -41 -5.83301 -59 -17.5s-29.333 -26.5 -34 -44.5c-3.33301 -15.333 -1.33301 -28.666 6 -39.999l-77 -36c-13.333 23.333 -16.333 49.666 -9 78.999
c4.66699 19.333 13.167 37 25.5 53s27 29.833 44 41.5s35.5 20.667 55.5 27s40 9.5 60 9.5c45.333 0 79 -12.167 101 -36.5s28 -57.166 18 -98.499c-12 -47.333 -41.667 -86.666 -89 -117.999c-8 -5.33301 -23.833 -14.166 -47.5 -26.499s-54.5 -27.166 -92.5 -44.499
c-28.667 -13.333 -52.334 -25.333 -71.001 -36s-34 -21 -46 -31s-21.167 -20.167 -27.5 -30.5s-11.166 -22.166 -14.499 -35.499c-4.66699 -17.333 -4.83398 -34 -0.500977 -50s11.666 -30 21.999 -42s22.833 -21.5 37.5 -28.5s30.334 -10.5 47.001 -10.5
c4 0 7.33301 0.666992 10 2c-14 18 -18 38.667 -12 62c4 17.333 11 33.666 21 48.999s21.667 28.666 35 39.999s28.166 20.333 44.499 27s33.166 10 50.499 10c16.667 0 31.834 -3 45.501 -9s25 -14.167 34 -24.5s15.167 -22.5 18.5 -36.5s3.33301 -29 0 -45z" />
    <glyph glyph-name="uni0B0F" unicode="&#xb0f;" horiz-adv-x="672" 
d="M114 458l108.001 -0.00195312l346 -367l110 440l-58 -32c-14.667 -8 -27 -15.333 -37 -22s-17.667 -12 -23 -16c5.33301 -6 9.33301 -13 12 -21s2.66699 -17 0 -27c-4.66699 -19.333 -15.667 -35.833 -33 -49.5s-36.666 -20.5 -57.999 -20.5
c-18.667 0 -33 6.83301 -43 20.5s-12.667 30.167 -8 49.5c7.33301 27.333 23.666 51.333 48.999 72l18 12.5c10 7 24 16 42 27s39.667 23.333 65 37s53.666 27.834 84.999 42.501l60.5 27c15 6.66699 24.833 10.334 29.5 11.001l-160 -642h-75z" />
    <glyph glyph-name="uni0B10" unicode="&#xb10;" horiz-adv-x="916" 
d="M1099 734c-11.333 -41.333 -34.667 -76.0039 -70 -104.004l-157 -630h-71l83 335c-10.667 -9.33301 -22 -16 -34 -20s-23.667 -6 -35 -6c-16.667 0 -30.167 2.5 -40.5 7.5s-16.166 13.167 -17.499 24.5l-85 -341h-75l-429 458h108l346 -367l109 438
c-6.66699 -2 -14.834 -5.66699 -24.501 -11l-30.5 -17.5c-10.667 -6.33301 -21.167 -13.166 -31.5 -20.499s-19.166 -14.333 -26.499 -21c9.33301 -15.333 12 -30.666 8 -45.999c-2 -8.66699 -5.66699 -17 -11 -25s-11.833 -15.167 -19.5 -21.5s-16.167 -11.333 -25.5 -15
s-18.666 -5.5 -27.999 -5.5c-48.667 0 -67.334 23.667 -56.001 71c6 24 21.667 46 47 66c0.666992 0.666992 6.5 4.83398 17.5 12.501s25.833 17.5 44.5 29.5s40.667 25.333 66 40s53 29.334 83 44.001l89 40l-33 -135l28 -8c-10.667 -15.333 -19.334 -29 -26.001 -41
s-11 -22 -13 -30c-4 -16 -2 -29 6 -39s23.667 -15 47 -15c20.667 0 40.667 9 60 27l55 221c5.33301 3.33301 11.666 9 18.999 17s14.333 16.5 21 25.5s12.5 17.667 17.5 26s8.16699 14.833 9.5 19.5c8.66699 36 -11.666 54 -60.999 54c-7.33301 0 -17 -1.33301 -29 -4
s-25.667 -5.5 -41 -8.5s-32.166 -5.66699 -50.499 -8s-37.5 -3.5 -57.5 -3.5c-50 0 -80.333 6.33301 -91 19l41 68l27 -10c19.333 -6.66699 39.333 -10 60 -10c12.667 0 28.5 1.33301 47.5 4s37.667 5.66699 56 9l48.5 9c14 2.66699 23 4 27 4c16 0 31 -2.33301 45 -7
s25.667 -11.5 35 -20.5s15.666 -20 18.999 -33s3 -28.167 -1 -45.5z" />
    <glyph glyph-name="uni0B13" unicode="&#xb13;" horiz-adv-x="588" 
d="M602 182c-7.33301 -28 -19.6719 -53.5049 -37.0049 -76.5049s-37.833 -42.833 -61.5 -59.5s-50 -29.5 -79 -38.5s-58.833 -13.5 -89.5 -13.5c-93.333 0 -158.166 31.333 -194.499 94s-39.833 152.334 -10.5 269.001c13.333 52.667 33.333 102.334 60 149.001
s62.667 92 108 136h97c-105.333 -84.667 -170.666 -178 -195.999 -280c-25.333 -99.333 -25.166 -173.666 0.500977 -222.999s74.5 -74 146.5 -74c19.333 0 39 3.16699 59 9.5s38.667 14.833 56 25.5s32.333 23.334 45 38.001s21 30.334 25 47.001
c3.33301 14 3.83301 27.833 1.5 41.5s-7 26 -14 37s-16.167 19.833 -27.5 26.5s-24.333 10 -39 10c-6.66699 0 -15.167 -1.83301 -25.5 -5.5s-20.833 -8.16699 -31.5 -13.5s-20.667 -11.333 -30 -18s-16.333 -13 -21 -19l-35 55l46 33
c16.667 11.333 33.167 20.833 49.5 28.5s31.833 13.834 46.5 18.501c40.667 11.333 73.834 26.166 99.501 44.499s42.167 41.5 49.5 69.5c5.33301 21.333 4.5 40.5 -2.5 57.5s-20.167 25.5 -39.5 25.5c-21.333 0 -38.5 -5.66699 -51.5 -17s-21.833 -26 -26.5 -44
c-2.66699 -10.667 -1.66699 -22.334 3 -35.001l-74 -36c-10 21.333 -11.333 46.333 -4 75c4.66699 18 12.5 35 23.5 51s24 29.833 39 41.5s31.5 20.834 49.5 27.501s36 10 54 10c19.333 0 36.5 -4 51.5 -12s27 -18.833 36 -32.5s14.833 -29.5 17.5 -47.5
s1.66699 -36.667 -3 -56c-16 -66.667 -56.333 -118 -121 -154c10.667 -5.33301 20 -14 28 -26s14.333 -25.667 19 -41s7.33398 -31.5 8.00098 -48.5s-1 -33.5 -5 -49.5z" />
    <glyph glyph-name="uni0B14" unicode="&#xb14;" horiz-adv-x="758" 
d="M941 734c-9.33301 -38.667 -33.0068 -73.332 -71.0068 -103.999l-157 -630h-71l32 132c-10.667 -6.66699 -20 -11.334 -28 -14.001s-15 -4 -21 -4c-7.33301 0 -14.666 1.66699 -21.999 5s-14.666 7.66602 -21.999 12.999l-28 -39
c-28 -33.333 -60.5 -58.166 -97.5 -74.499s-77.167 -24.5 -120.5 -24.5c-96 0 -161.5 31.167 -196.5 93.5s-38.833 149.166 -11.5 260.499c13.333 52.667 33.666 103.167 60.999 151.5s64 95.833 110 142.5h97c-105.333 -84.667 -170.666 -178 -195.999 -280
c-25.333 -99.333 -25.166 -173.666 0.500977 -222.999s74.5 -74 146.5 -74c19.333 0 39 3.16699 59 9.5s38.667 14.833 56 25.5s32.333 23.334 45 38.001s21 30.334 25 47.001c3.33301 14 3.83301 27.833 1.5 41.5s-7 26 -14 37s-16.167 19.833 -27.5 26.5
s-24.333 10 -39 10c-6.66699 0 -15.167 -1.83301 -25.5 -5.5s-20.833 -8.16699 -31.5 -13.5s-20.667 -11.333 -30 -18s-16.333 -13 -21 -19l-35 55l46 33c16.667 11.333 33.167 20.833 49.5 28.5s31.833 13.834 46.5 18.501c40.667 11.333 73.834 26.166 99.501 44.499
s42.167 41.5 49.5 69.5c5.33301 21.333 4.5 40.5 -2.5 57.5s-20.167 25.5 -39.5 25.5c-21.333 0 -38.5 -5.66699 -51.5 -17s-21.833 -26 -26.5 -44c-2.66699 -10.667 -1.66699 -22.334 3 -35.001l-74 -36c-10 21.333 -11.333 46.333 -4 75c4.66699 18 12.5 35 23.5 51
s24 29.833 39 41.5s31.5 20.834 49.5 27.501s36 10 54 10c19.333 0 36.5 -4 51.5 -12s27 -18.833 36 -32.5s14.833 -29.5 17.5 -47.5s1.66699 -36.667 -3 -56c-16 -66.667 -56.333 -118 -121 -154l32 -42l16 21l44 -21c-17.333 -22 -28 -41.333 -32 -58
c-11.333 -43.333 0 -65 34 -65c12.667 0 21.834 2.33301 27.501 7l19.5 16l109 437c36.667 26 58 51 64 75c8.66699 36 -12.333 54 -63 54c-8 0 -18.167 -1.33301 -30.5 -4l-41 -8.5c-15 -3 -31.333 -5.66699 -49 -8s-36.5 -3.5 -56.5 -3.5
c-25.333 0 -46.166 2.33301 -62.499 7s-32.166 12 -47.499 22l37 67l32 -16c22 -9.33301 48.333 -14 79 -14c14 0 29.333 1.33301 46 4s33.5 5.66699 50.5 9s33.333 6.33301 49 9s29.5 4 41.5 4c14.667 0 28.334 -2.66699 41.001 -8s23 -12.833 31 -22.5
s13.667 -20.834 17 -33.501s3.66602 -26.334 0.999023 -41.001z" />
    <glyph glyph-name="uni0B15" unicode="&#xb15;" horiz-adv-x="672" 
d="M319 193c12 50 -0.666992 74.999 -38 74.999c-16.667 0 -31.667 -7.66699 -45 -23s-22.333 -32.666 -27 -51.999c-5.33301 -20 -5 -38.167 1 -54.5s17.333 -24.5 34 -24.5c36.667 0 61.667 26.333 75 79zM715 342.999c-2.66699 -10 -6.33496 -21.665 -11.002 -34.998
s-10.667 -28.666 -18 -45.999l-59 22c4 13.333 7.66699 25 11 35s6 19 8 27c8 32 9.5 62 4.5 90s-15.5 52.333 -31.5 73s-36.833 37 -62.5 49s-54.834 18 -87.501 18c-28 0 -56 -4.83301 -84 -14.5s-53.833 -22.834 -77.5 -39.501s-44 -36.167 -61 -58.5
s-28.833 -46.5 -35.5 -72.5c-5.33301 -19.333 -7.16602 -34.5 -5.49902 -45.5s5.5 -22.5 11.5 -34.5c24.667 20 52.334 30 83.001 30c18 0 33.5 -3.16699 46.5 -9.5s24.167 -15.833 33.5 -28.5c27.333 22.667 60 34 98 34c16.667 0 31.667 -2.83301 45 -8.5
s24 -13.334 32 -23.001s13.333 -21 16 -34s2.33398 -26.5 -0.999023 -40.5l-57 -231h-73l53 214c6 33.333 -6.33301 50 -37 50c-30 0 -48.667 -15.333 -56 -46l-54 -218h-73l16 65l-25 -11c-8 -3.33301 -15.167 -5.83301 -21.5 -7.5s-12.166 -2.5 -17.499 -2.5
c-19.333 0 -36 3.83301 -50 11.5s-24.833 18.167 -32.5 31.5s-12.167 29 -13.5 47s0.666992 37.667 6 59c4.66699 21.333 12 37.333 22 48c-9.33301 13.333 -16.5 25.166 -21.5 35.499s-8.5 20.666 -10.5 30.999s-2.33301 21.166 -1 32.499s4 24.333 8 39
c9.33301 38 25.666 73.5 48.999 106.5s50.833 61.5 82.5 85.5s66.5 43 104.5 57s76.667 21 116 21c42 0 79.667 -7.83301 113 -23.5s60.5 -37.167 81.5 -64.5s35 -59.666 42 -96.999s5.16699 -77.666 -5.5 -120.999z" />
    <glyph glyph-name="uni0B16" unicode="&#xb16;" horiz-adv-x="658" 
d="M647 467l-40.4922 -36.4971c-11.667 -10.333 -23 -18.833 -34 -25.5s-22.167 -11.667 -33.5 -15s-24 -5 -38 -5c-34.667 0 -60.834 10.667 -78.501 32s-21.834 50.333 -12.501 87c3.33301 14.667 7.66602 27.5 12.999 38.5s11.333 21.167 18 30.5
c-129.333 -26 -207 -90.667 -233 -194c-2.66699 -11.333 -4.33398 -20.833 -5.00098 -28.5s0.333008 -15 3 -22s7.5 -14.333 14.5 -22s17.167 -16.834 30.5 -27.501l-1 3c40.667 22 75.667 33 105 33c20.667 0 39.167 -4 55.5 -12s29.666 -19 39.999 -33
s17.166 -30.5 20.499 -49.5s2.33301 -39.5 -3 -61.5c-5.33301 -21.333 -14.333 -41.833 -27 -61.5s-27.5 -37.167 -44.5 -52.5s-35.5 -27.666 -55.5 -36.999s-40.333 -14 -61 -14c-22.667 0 -43 4.16699 -61 12.5s-32.5 19.666 -43.5 33.999s-18.333 31.333 -22 51
s-2.83398 40.5 2.49902 62.5c4 15.333 9.83301 29.833 17.5 43.5s13.5 23.167 17.5 28.5c-32 18 -52.333 38.5 -61 61.5s-8.33398 52.5 0.999023 88.5c9.33301 38 25.833 73.667 49.5 107s51.834 62.166 84.501 86.499s68.167 43.666 106.5 57.999s76.833 21.5 115.5 21.5
c20.667 0 38.5 -0.5 53.5 -1.5s28.167 -3.16699 39.5 -6.5c-4.66699 -3.33301 -11.834 -10.833 -21.501 -22.5s-19.5 -24.5 -29.5 -38.5s-19.333 -28.167 -28 -42.5s-14 -26.166 -16 -35.499c-8 -29.333 3.33301 -44 34 -44c12.667 0 28 6.5 46 19.5s35.333 27.667 52 44
s31 32.166 43 47.499s18.667 25.333 20 30l11 43h74l-160 -642h-74zM396.008 159.003c6 24 3.83203 44.167 -6.50098 60.5s-27.833 24.5 -52.5 24.5c-11.333 0 -22.666 -2.33301 -33.999 -7s-21.833 -11 -31.5 -19s-18 -17.333 -25 -28s-11.833 -22 -14.5 -34
c-6 -24 -3.33301 -44.667 8 -62s29 -26 53 -26s45.5 8.33301 64.5 25s31.833 38.667 38.5 66z" />
    <glyph glyph-name="uni0B17" unicode="&#xb17;" horiz-adv-x="654" 
d="M394 159c6 24 3.66797 44.167 -6.99902 60.5s-27.667 24.5 -51 24.5c-11.333 0 -22.5 -2.5 -33.5 -7.5s-21.333 -11.5 -31 -19.5s-18 -17.333 -25 -28s-11.833 -21.667 -14.5 -33c-6 -24.667 -3.83301 -45.5 6.5 -62.5s28.166 -25.5 53.499 -25.5
c23.333 0 44.5 8.33301 63.5 25s31.833 38.667 38.5 66zM626.001 391c6 25.333 -1.33301 57.666 -22 96.999c-29.333 59.333 -81.333 89 -156 89c-25.333 0 -51 -5.16699 -77 -15.5s-50 -24.333 -72 -42s-41.167 -38.167 -57.5 -61.5s-27.833 -47.666 -34.5 -72.999
c-6 -28.667 -1 -54 15 -76l28 -27c40.667 22 75.667 33 105 33c20.667 0 39.167 -4 55.5 -12s29.666 -19 39.999 -33s17.166 -30.5 20.499 -49.5s2.33301 -39.5 -3 -61.5c-5.33301 -21.333 -14.333 -41.833 -27 -61.5s-27.5 -37.167 -44.5 -52.5
s-35.5 -27.666 -55.5 -36.999s-40.333 -14 -61 -14c-23.333 0 -43.666 4.33301 -60.999 13s-31.166 20.5 -41.499 35.5s-16.833 32.5 -19.5 52.5s-1.33398 41.333 3.99902 64c4.66699 19.333 14.334 41.666 29.001 66.999c-56 33.333 -75.667 85 -59 155
c10 40 25.833 76.667 47.5 110s47.5 61.833 77.5 85.5s63.167 42.167 99.5 55.5s74.5 20 114.5 20c58 0 107.667 -16 149 -48l46 -52l23 90h72l-160 -642h-72z" />
    <glyph glyph-name="uni0B18" unicode="&#xb18;" horiz-adv-x="664" 
d="M617 518c-26 36.667 -74.998 54.999 -146.998 54.999c-28 0 -55.833 -4.5 -83.5 -13.5s-53.167 -21.667 -76.5 -38s-43.333 -35.666 -60 -57.999s-28.334 -46.833 -35.001 -73.5s-4.66699 -49.5 6 -68.5s27.667 -28.5 51 -28.5l10.5 7.5c7 5 15.833 11 26.5 18l34 22
c12 7.66699 23.333 14.167 34 19.5l38 -49c-101.333 -40 -161.333 -99 -180 -177c-4.66699 -17.333 -3 -33 5 -47s20 -21 36 -21c42.667 0 70.667 26 84 78l19 76h72l-19 -77c-2 -8.66699 -2.5 -17.5 -1.5 -26.5s3.33301 -17 7 -24s8.66699 -12.667 15 -17
s13.833 -6.5 22.5 -6.5c11.333 0 23.166 3.33301 35.499 10s23.833 15.167 34.5 25.5s20 21.833 28 34.5s13.667 25 17 37l65 259zM558.002 47.999c-26 -31.333 -61.001 -47.002 -105.001 -47.002c-36 0 -59.333 20.333 -70 61l-42 -36c-25.333 -17.333 -53.333 -26 -84 -26
c-17.333 0 -32.833 3.66699 -46.5 11s-25 17.333 -34 30s-15 26.834 -18 42.501s-2.5 32.167 1.5 49.5c12.667 52.667 30 88 52 106c-33.333 0 -57.166 12.833 -71.499 38.5s-16.166 59.5 -5.49902 101.5c9.33301 37.333 25.5 72.333 48.5 105s50.5 61.334 82.5 86.001
s66.833 44 104.5 58s75.5 21 113.5 21c24.667 0 46.5 -1.33301 65.5 -4s36.167 -7.5 51.5 -14.5s29.666 -16.667 42.999 -29s27 -27.833 41 -46.5l22 87h73l-160 -642h-73z" />
    <glyph glyph-name="uni0B19" unicode="&#xb19;" horiz-adv-x="712" 
d="M738 423c4.66699 19.333 3.33203 34.5 -4.00098 45.5s-21.333 16.5 -42 16.5c-19.333 0 -36.166 -5.83301 -50.499 -17.5s-23.833 -26.834 -28.5 -45.501c-4.66699 -17.333 -2.16699 -31.666 7.5 -42.999s23.167 -17 40.5 -17c18.667 0 35 5.83301 49 17.5
s23.333 26.167 28 43.5zM801.998 422c-4.66699 -17.333 -12.1719 -33.668 -22.5049 -49.001s-22.5 -28.666 -36.5 -39.999s-29.333 -20.333 -46 -27s-33.334 -10 -50.001 -10c-17.333 0 -33.166 3.33301 -47.499 10s-26 15.667 -35 27s-15 24.666 -18 39.999
s-2.16699 31.666 2.5 48.999c3.33301 15.333 9.33301 29.5 18 42.5s19.667 25.5 33 37.5c-38 50 -85 75 -141 75c-26 0 -52.667 -5 -80 -15s-52.833 -24 -76.5 -42s-44.5 -39 -62.5 -63s-30.333 -50 -37 -78c-6.66699 -27.333 -0.333984 -47.333 18.999 -60l33 -10l87 70
l38 -51l-71 -57c-36.667 -30.667 -59 -61 -67 -91c-4 -16 -4.83301 -30.833 -2.5 -44.5s7.33301 -25.834 15 -36.501s17.5 -19 29.5 -25s26 -9 42 -9s31.5 2.83301 46.5 8.5s28.833 13.334 41.5 23.001s23.334 21 32.001 34s15 27.167 19 42.5
c4.66699 19.333 1.33398 40 -9.99902 62l-80 -64l-43 47l182 144l38 -50l-38 -27c26.667 -35.333 35 -71.666 25 -108.999c-6.66699 -26.667 -17.667 -51.334 -33 -74.001s-33.166 -42.167 -53.499 -58.5s-42.5 -29.166 -66.5 -38.499s-48 -14 -72 -14
c-29.333 0 -54.666 5 -75.999 15s-38.166 23.833 -50.499 41.5s-20 38.5 -23 62.5s-1.16699 50 5.5 78c6.66699 26 16.334 47.333 29.001 64c-28.667 8.66699 -49.334 23 -62.001 43s-14.334 48.667 -5.00098 86c10 38.667 26.167 74.334 48.5 107.001s49 61 80 85
s65 42.667 102 56s74.833 20 113.5 20c20.667 0 39 -1.5 55 -4.5s30.833 -8.5 44.5 -16.5s27.334 -19.167 41.001 -33.5s28.834 -32.5 45.501 -54.5c10 6 26 9 48 9c18 0 33.667 -3.33301 47 -10s24 -15.834 32 -27.501s13.167 -25.167 15.5 -40.5s1.5 -31.666 -2.5 -48.999
z" />
    <glyph glyph-name="uni0B1A" unicode="&#xb1a;" horiz-adv-x="688" 
d="M460 156c5.33301 22 2.16406 40.833 -9.50293 56.5s-28.5 23.5 -50.5 23.5c-11.333 0 -22.333 -2.16699 -33 -6.5s-20.5 -10 -29.5 -17s-16.833 -15.5 -23.5 -25.5s-11.334 -20.333 -14.001 -31s-3 -20.834 -1 -30.501s5.83301 -18 11.5 -25s12.834 -12.667 21.501 -17
s18.334 -6.5 29.001 -6.5s21.334 2.16699 32.001 6.5s20.5 10 29.5 17s16.833 15.333 23.5 25s11.334 19.834 14.001 30.501zM740.998 343c-6 -20 -13.3311 -40 -21.998 -60s-20 -39.333 -34 -58l-41 -50l-69 28l35 34c24 29.333 41 63 51 101
c6.66699 27.333 6.66699 55 0 83s-18.334 53.333 -35.001 76s-37.834 41.167 -63.501 55.5s-53.834 21.5 -84.501 21.5c-28.667 0 -58.167 -5.5 -88.5 -16.5s-58.833 -25.667 -85.5 -44s-49.667 -39.5 -69 -63.5s-32.333 -49 -39 -75c-4 -16 -4.83301 -32 -2.5 -48
s6.83301 -30.833 13.5 -44.5s14.334 -25.334 23.001 -35.001s17.667 -15.834 27 -18.501c6 12 14.833 23.333 26.5 34s24.834 19.667 39.501 27s30.5 13.166 47.5 17.499s33.5 6.5 49.5 6.5c21.333 0 40.5 -4.16699 57.5 -12.5s30.833 -19.833 41.5 -34.5
s17.667 -31.5 21 -50.5s2.33301 -39.167 -3 -60.5s-14.5 -41.5 -27.5 -60.5s-28.333 -35.5 -46 -49.5s-37 -25.167 -58 -33.5s-42.167 -12.5 -63.5 -12.5s-40.333 3.5 -57 10.5s-30.667 16.667 -42 29s-19.333 27.166 -24 44.499s-5 36.333 -1 57
c-26 16.667 -47.167 33.834 -63.5 51.501s-28.5 36 -36.5 55s-12.167 39.5 -12.5 61.5s2.5 46 8.5 72c9.33301 36 26.666 70.333 51.999 103s55.833 61.334 91.5 86.001s74.5 44.334 116.5 59.001s84 22 126 22c42.667 0 81.167 -8.33301 115.5 -25s62.5 -39 84.5 -67
s36.833 -60.667 44.5 -98s6.5 -76.666 -3.5 -117.999z" />
    <glyph glyph-name="uni0B1B" unicode="&#xb1b;" horiz-adv-x="652" 
d="M299 103c0.666992 4.66699 -0.833984 9.5 -4.50098 14.5s-8.5 9.66699 -14.5 14s-12.667 7.83301 -20 10.5s-14.666 4 -21.999 4c-30.667 0 -49 -13.333 -55 -40c-8 -29.333 3.66699 -44 35 -44c8 0 16.833 1.5 26.5 4.5s19.167 8.16699 28.5 15.5zM501.999 103
c7.33301 28.667 -3.66699 43.001 -33 43.001c-7.33301 0 -15.5 -1.5 -24.5 -4.5s-17.667 -6.83301 -26 -11.5s-15.5 -9.33398 -21.5 -14.001s-10 -9 -12 -13c22 -27.333 41.333 -41 58 -41c15.333 0 28 3 38 9s17 16.667 21 32zM460.999 260.001
c6.66699 24.667 4.66699 46.333 -6 65s-27.667 28 -51 28c-11.333 0 -22.5 -2.5 -33.5 -7.5s-21.167 -11.833 -30.5 -20.5s-17.5 -18.5 -24.5 -29.5s-12.167 -22.833 -15.5 -35.5c-5.33301 -23.333 -2.33301 -43.666 9 -60.999s28 -26 50 -26c10.667 0 21.5 2.5 32.5 7.5
s21.167 11.5 30.5 19.5s17.5 17.167 24.5 27.5s11.833 21.166 14.5 32.499zM693.999 402c-3.33301 -14 -7.16992 -27.002 -11.5029 -39.002s-9.83301 -23.667 -16.5 -35l-63 25c2 2.66699 4.66699 9.66699 8 21c7.33301 28.667 9.5 55.5 6.5 80.5s-10.5 46.5 -22.5 64.5
s-28.333 32.167 -49 42.5s-45 15.5 -73 15.5c-24.667 0 -48.5 -4.16699 -71.5 -12.5s-43.833 -20 -62.5 -35s-34.667 -32.667 -48 -53s-23 -42.5 -29 -66.5c-5.33301 -21.333 -4.66602 -35.333 2.00098 -42l16 -8l12.5 10c8.33301 6.66699 19 13.834 32 21.501
s27.667 14.834 44 21.501s33.166 10 50.499 10c105.333 0 143.333 -57.667 114 -173c-1.33301 -6.66699 -3 -13 -5 -19s-4 -11.667 -6 -17c24 -9.33301 41 -22.666 51 -39.999s11.333 -39.333 4 -66c-9.33301 -37.333 -26.666 -66.5 -51.999 -87.5s-56.333 -31.5 -93 -31.5
c-8.66699 0 -18.834 1.83301 -30.501 5.5s-23.167 8.16699 -34.5 13.5s-21.333 10.666 -30 15.999s-14 10 -16 14c-6 -5.33301 -14.167 -10.666 -24.5 -15.999s-21.166 -10.333 -32.499 -15s-22.166 -8.5 -32.499 -11.5s-18.833 -4.5 -25.5 -4.5
c-17.333 0 -33.166 3.16699 -47.499 9.5s-26.166 14.666 -35.499 24.999s-15.666 22.666 -18.999 36.999s-3 29.5 1 45.5c10 38.667 31.667 65.334 65 80.001c-8 12.667 -22.667 19 -44 19l30 53c12.667 -1.33301 25 -6.33301 37 -15s20.667 -15.667 26 -21l13 60
c-6.66699 0 -13.834 3.66699 -21.501 11s-14.334 17 -20.001 29s-9.66699 25.667 -12 41s-1.5 31 2.5 47c8 33.333 22 64.333 42 93s43.5 53.5 70.5 74.5s56.667 37.667 89 50s64.833 18.833 97.5 19.5c36 0 68.667 -6.16699 98 -18.5s53.833 -29.5 73.5 -51.5
s33.5 -48 41.5 -78s8.33301 -63 1 -99z" />
    <glyph glyph-name="uni0B1C" unicode="&#xb1c;" horiz-adv-x="664" 
d="M724 337c-5.33301 -15.333 -10.9912 -30.334 -16.9912 -45.001s-12.667 -28.667 -20 -42l-68 14c5.33301 6.66699 10.833 16.5 16.5 29.5s11.167 29.5 16.5 49.5c7.33301 29.333 8 58 2 86s-17.5 52.833 -34.5 74.5s-39.167 39.167 -66.5 52.5s-58.666 20 -93.999 20
c-29.333 0 -58 -5 -86 -15s-53.667 -23.667 -77 -41s-43.5 -37.666 -60.5 -60.999s-28.833 -48.666 -35.5 -75.999c-2.66699 -10 -4.33398 -18.833 -5.00098 -26.5s0.166016 -15 2.49902 -22s6.16602 -14.333 11.499 -22s12.666 -16.834 21.999 -27.501
c30 20.667 58 32.334 84 35.001l-17 -68c-46 -16 -75.667 -50 -89 -102c-6.66699 -25.333 -5.66699 -47.166 3 -65.499s22.667 -27.5 42 -27.5c24 0 46 11.333 66 34c-24 26.667 -31.333 58 -22 94c4.66699 18 12.167 34.667 22.5 50s23 28.666 38 39.999
s31.667 20.166 50 26.499s37.5 9.5 57.5 9.5c42 0 74.333 -11.333 97 -34l-69 -277h-72l59 237c-5.33301 5.33301 -13.333 8 -24 8c-10 0 -19.833 -1.5 -29.5 -4.5s-18.834 -7.16699 -27.501 -12.5s-16 -11.5 -22 -18.5s-10 -14.833 -12 -23.5
c-7.33301 -27.333 3 -45 31 -53c-24 -96.667 -77.333 -145 -160 -145c-21.333 0 -39.833 4.33301 -55.5 13s-28.334 20.5 -38.001 35.5s-15.667 32.167 -18 51.5s-0.833008 40 4.5 62c6.66699 26 20 53 40 81c-12.667 13.333 -22.834 25.5 -30.501 36.5s-13.167 22 -16.5 33
s-4.83301 22.5 -4.5 34.5s2.16602 25.667 5.49902 41c9.33301 38 25.666 73.667 48.999 107s51 62.333 83 87s67 44 105 58s76.667 21 116 21c44.667 0 84.834 -8.16699 120.501 -24.5s64.667 -38.5 87 -66.5s37.166 -61 44.499 -99s5.66602 -78.667 -5.00098 -122z" />
    <glyph glyph-name="uni0B1D" unicode="&#xb1d;" horiz-adv-x="669" 
d="M398 154c6 24 3.16699 44.502 -8.5 61.502s-28.5 25.5 -50.5 25.5c-11.333 0 -22.333 -2.33301 -33 -7s-20.667 -10.834 -30 -18.501s-17.5 -16.834 -24.5 -27.501s-11.833 -22 -14.5 -34c-6 -24 -3.5 -44.833 7.5 -62.5s27.833 -26.5 50.5 -26.5
c11.333 0 22.5 2.5 33.5 7.5s21.167 11.667 30.5 20s17.333 17.833 24 28.5s11.667 21.667 15 33zM767 486.002c-6 -22.667 -15.3311 -43.667 -27.998 -63s-27.667 -36.166 -45 -50.499s-36.333 -25.666 -57 -33.999s-41.667 -12.5 -63 -12.5s-40.666 4 -57.999 12
s-31.5 18.833 -42.5 32.5s-18.5 29.667 -22.5 48s-3.33301 37.833 2 58.5c7.33301 28 13.666 43.667 18.999 47c-4 10 -10.333 15 -19 15c-30 0 -58.5 -4 -85.5 -12s-51.333 -19.167 -73 -33.5s-40 -31.333 -55 -51s-25.5 -40.834 -31.5 -63.501c-12 -46.667 4 -79 48 -97
c16.667 10.667 33.334 18.834 50.001 24.501s33.667 8.5 51 8.5c21.333 0 40.666 -4 57.999 -12s31.5 -18.833 42.5 -32.5s18.5 -29.834 22.5 -48.501s3.33301 -39 -2 -61l-12 -29l170 -67l-40 -69l-175 66c-1.33301 -5.33301 -6.5 -11.666 -15.5 -18.999
s-20.333 -14.5 -34 -21.5s-28.667 -13 -45 -18s-32.5 -7.5 -48.5 -7.5c-24 0 -44.833 4.16699 -62.5 12.5s-31.834 19.666 -42.501 33.999s-17.5 31.5 -20.5 51.5s-1.5 41.667 4.5 65c4.66699 19.333 15.667 40.666 33 63.999l-39 41c-10 17.333 -16.333 36 -19 56
s-1.33398 41.667 3.99902 65c8.66699 34 23.334 64.833 44.001 92.5s46 51.334 76 71.001s64 35 102 46s78 16.5 120 16.5c57.333 0 90.666 -22 99.999 -66c-25.333 -20.667 -41 -42.334 -47 -65.001c-5.33301 -21.333 -2.16602 -39.5 9.50098 -54.5
s29.167 -22.5 52.5 -22.5c21.333 0 41.166 7.83301 59.499 23.5s30.5 35.5 36.5 59.5c8 31.333 -1.33301 60.333 -28 87l-35 36l67 54c65.333 -54.667 90 -113.667 74 -177z" />
    <glyph glyph-name="uni0B1E" unicode="&#xb1e;" horiz-adv-x="633" 
d="M563 218c4 14.667 6.16895 28.8301 6.50195 42.4971s-1.33398 25.667 -5.00098 36s-9.5 18.5 -17.5 24.5s-18.333 9 -31 9c-32.667 0 -52 -13.333 -58 -40l-26 -105h-67l23 94c1.33301 4.66699 -1.5 11.167 -8.5 19.5s-19.167 12.5 -36.5 12.5
c-12.667 0 -24.334 -3.83301 -35.001 -11.5s-18 -20.167 -22 -37.5c-3.33301 -14 -3.33301 -26.167 0 -36.5s11.666 -19.166 24.999 -26.499l-60 -46c-34 22 -45.333 56.333 -34 103c6 21.333 13.333 37.333 22 48l20 24l-28 15c-27.333 -22 -46.333 -54.333 -57 -97
c-6 -24.667 -6 -48.167 0 -70.5s16.667 -42.166 32 -59.499s34.333 -31.166 57 -41.499s47.334 -15.5 74.001 -15.5s52.167 3.83301 76.5 11.5s46.5 18.5 66.5 32.5s37.167 30.833 51.5 50.5s24.833 41.167 31.5 64.5zM633.002 208.996
c-9.33301 -32 -23.8311 -61.334 -43.498 -88.001s-43.167 -49.5 -70.5 -68.5s-57.666 -33.833 -90.999 -44.5s-68 -16.334 -104 -17.001c-37.333 0 -71.5 6.5 -102.5 19.5s-56.833 30.833 -77.5 53.5s-34.834 49.667 -42.501 81s-6.83398 65.333 2.49902 102
c7.33301 28 18.333 54.5 33 79.5s33 49.167 55 72.5c-3.33301 0 -6.83301 4 -10.5 12s-6.83398 18 -9.50098 30s-4.16699 25.333 -4.5 40s1.16699 29 4.5 43c5.33301 22 13.666 42.833 24.999 62.5s25.666 38.167 42.999 55.5h82c-39.333 -32 -64.333 -69.667 -75 -113
c-5.33301 -21.333 -5.33301 -41.5 0 -60.5s15 -35.5 29 -49.5s31.667 -25 53 -33s45.333 -12 72 -12c25.333 0 50.5 3.16699 75.5 9.5s47.667 15.333 68 27s37.833 25.334 52.5 41.001s24.334 33.167 29.001 52.5c5.33301 21.333 4.5 39.666 -2.5 54.999
s-20.167 23 -39.5 23c-11.333 0 -23.166 -3.66699 -35.499 -11s-19.833 -16.333 -22.5 -27l-20 -82h-70l20 82c-1.33301 22 -15 33 -41 33c-28.667 0 -47 -14.667 -55 -44c-4 -16.667 -1 -32 9 -46l-57 -36c-9.33301 10 -16 21.667 -20 35s-4 28.333 0 45
c4 14.667 10.5 28.834 19.5 42.501s19.667 25.667 32 36s26.166 18.5 41.499 24.5s31 9 47 9c30.667 0 55.334 -9 74.001 -27c30.667 22 63 33 97 33c42 0 71 -12 87 -36s18 -60.333 6 -109c-14 -57.333 -44 -100.666 -90 -129.999c11.333 -14.667 20 -27.667 26 -39
s10 -23 12 -35s1.83301 -25.167 -0.5 -39.5s-5.83301 -31.5 -10.5 -51.5z" />
    <glyph glyph-name="uni0B1F" unicode="&#xb1f;" horiz-adv-x="642" 
d="M433 159c4 24 1.16699 44.167 -8.5 60.5s-26.5 24.5 -50.5 24.5c-10.667 0 -21.5 -2.33301 -32.5 -7s-21.167 -11 -30.5 -19s-17.5 -17.333 -24.5 -28s-11.833 -22 -14.5 -34c-6 -24 -4.16699 -44.667 5.5 -62s27.167 -26 52.5 -26c26.667 0 49 8.83301 67 26.5
s30 39.167 36 64.5zM634 426c4.66699 18.667 4.32715 36.9961 -1.00586 54.9961s-15.166 33.833 -29.499 47.5s-32.5 24.667 -54.5 33s-47.333 12.5 -76 12.5c-29.333 0 -58.166 -4.16699 -86.499 -12.5s-54.166 -19.833 -77.499 -34.5s-43.166 -32 -59.499 -52
s-27.5 -41.667 -33.5 -65c-9.33301 -35.333 0.666992 -65.666 30 -90.999l47 -30c22.667 17.333 55.667 26 99 26c20.667 0 39.334 -4 56.001 -12s30.334 -19 41.001 -33s17.834 -30.5 21.501 -49.5s2.83398 -39.5 -2.49902 -61.5
c-5.33301 -21.333 -14.166 -41.666 -26.499 -60.999s-27 -36.666 -44 -51.999s-35.833 -27.666 -56.5 -36.999s-42 -14.333 -64 -15c-23.333 0 -43.833 4.16699 -61.5 12.5s-31.834 20 -42.501 35s-17.667 32.5 -21 52.5s-2 41.667 4 65c4.66699 20 15.334 42.333 32.001 67
c-78 45.333 -107.667 105.333 -89 180c8.66699 36 23.667 68.667 45 98s47.166 54.5 77.499 75.5s64.166 37.167 101.499 48.5s76.666 17 117.999 17c80 0 144 -22 192 -66l22 88h70l-89 -356h-71z" />
    <glyph glyph-name="uni0B20" unicode="&#xb20;" horiz-adv-x="651" 
d="M609 323c8.66699 34 11.5 66.334 8.5 97.001s-10.833 57.5 -23.5 80.5s-30 41.333 -52 55s-47.333 20.5 -76 20.5c-30 0 -59.167 -6.5 -87.5 -19.5s-54.333 -30.833 -78 -53.5s-44.5 -49.5 -62.5 -80.5s-31.333 -64.167 -40 -99.5
c-8.66699 -34.667 -11.667 -67.167 -9 -97.5s10.167 -56.833 22.5 -79.5s29.166 -40.834 50.499 -54.501s46.333 -20.834 75 -21.501c30 0 59.333 6.66699 88 20s55.334 31.5 80.001 54.5s46 49.833 64 80.5s31.333 63.334 40 98.001zM688 323.001
c-11.333 -44.667 -29.1641 -87 -53.4971 -127s-53 -75.167 -86 -105.5s-69.167 -54.5 -108.5 -72.5s-79.333 -27 -120 -27s-76.167 8.66699 -106.5 26s-54.5 41 -72.5 71s-29.333 64.667 -34 104s-1.33398 81 9.99902 125c10.667 44 28.167 86 52.5 126
s52.833 75.333 85.5 106s68.5 55 107.5 73s78.5 27 118.5 27s75.333 -8.33301 106 -25s55.167 -39.667 73.5 -69s30.166 -63.833 35.499 -103.5s2.66602 -82.5 -8.00098 -128.5z" />
    <glyph glyph-name="uni0B21" unicode="&#xb21;" horiz-adv-x="662" 
d="M715 343c-9.33301 -38 -24.3252 -75 -44.9922 -111l-62 28c9.33301 12.667 17.166 26 23.499 40s11.166 28 14.499 42c8 31.333 9.16699 61.166 3.5 89.499s-16.834 53.333 -33.501 75s-38.334 38.834 -65.001 51.501s-57 19 -91 19c-26 0 -52.833 -5 -80.5 -15
s-53.334 -24 -77.001 -42s-44.5 -39 -62.5 -63s-30.333 -50 -37 -78c-5.33301 -20 -2.83301 -36.167 7.5 -48.5s24.166 -18.5 41.499 -18.5h4.5c1.66699 0 3.16699 0.666992 4.5 2c21.333 17.333 40 31.5 56 42.5s28.667 19.167 38 24.5l37 -53
c-78.667 -45.333 -124.667 -94.666 -138 -147.999c-4 -16 -4.33301 -31 -1 -45s9.33301 -26.167 18 -36.5s19.834 -18.5 33.501 -24.5s29.167 -9 46.5 -9c15.333 0 31 2.5 47 7.5s31 12.167 45 21.5s26.167 20.333 36.5 33s17.5 26.667 21.5 42c6 24 3 46 -9 66l-87 -68
l-35 51l194 156l36 -51l-48 -38c12 -17.333 20.5 -35 25.5 -53s4.83301 -36.667 -0.5 -56c-6.66699 -26 -18 -50.333 -34 -73s-35 -42.334 -57 -59.001s-45.833 -29.667 -71.5 -39s-50.834 -14 -75.501 -14c-30 0 -56.167 5.16699 -78.5 15.5s-40.5 24.166 -54.5 41.499
s-23.167 37.333 -27.5 60s-3.5 46.667 2.5 72c2.66699 10 6.5 21.167 11.5 33.5s11.167 25.166 18.5 38.499c-32.667 8.66699 -56.334 23.167 -71.001 43.5s-17.334 48.833 -8.00098 85.5c10 38.667 26.167 74.334 48.5 107.001s49 61 80 85s65 42.667 102 56
s74.833 20 113.5 20c44.667 0 84 -7.5 118 -22.5s61.667 -36 83 -63s35.5 -59.167 42.5 -96.5s5.5 -78.666 -4.5 -123.999z" />
    <glyph glyph-name="uni0B22" unicode="&#xb22;" horiz-adv-x="678" 
d="M732 349c-6 -22 -14.999 -45.9922 -26.999 -71.9922l-70 19c4.66699 9.33301 8.66699 18.833 12 28.5s6.33301 19.167 9 28.5c8 32 9.16699 61.667 3.5 89s-17 51 -34 71s-39.167 35.667 -66.5 47s-59 17 -95 17c-27.333 0 -54.833 -5 -82.5 -15
s-53.667 -23.833 -78 -41.5s-45.5 -38.667 -63.5 -63s-30.333 -50.5 -37 -78.5c-5.33301 -20.667 -3 -35.834 7 -45.501s25.667 -17.834 47 -24.501c6 9.33301 16.833 19.833 32.5 31.5s34.167 23.5 55.5 35.5l36 -50c-79.333 -47.333 -125.333 -96 -138 -146
c-4 -16 -5 -31.333 -3 -46s6.66699 -27.834 14 -39.501s16.833 -20.834 28.5 -27.501s25.167 -10 40.5 -10c11.333 0 20.333 1.66699 27 5c-4.66699 45.333 -4 79.666 2 102.999c4.66699 20.667 12.334 39.834 23.001 57.501s23.167 33.167 37.5 46.5s30.333 23.833 48 31.5
s36.167 11.5 55.5 11.5c35.333 0 61.833 -11.167 79.5 -33.5s22.167 -50.833 13.5 -85.5c-5.33301 -19.333 -14.666 -39.166 -27.999 -59.499s-27.833 -38.833 -43.5 -55.5s-31 -30.334 -46 -41.001s-26.167 -16 -33.5 -16c5.33301 -7.33301 13.166 -13.833 23.499 -19.5
s20.166 -10.167 29.499 -13.5l-68 -58c-17.333 8.66699 -31 19.5 -41 32.5s-17 23.167 -21 30.5c-6 -2 -17.667 -3 -35 -3c-32 0 -60.5 4.5 -85.5 13.5s-45.167 21.833 -60.5 38.5s-25.666 37.167 -30.999 61.5s-4 52.166 4 83.499c2.66699 10.667 6.66699 21.667 12 33
s11.666 23.333 18.999 36l-25 7c-43.333 19.333 -58 58.666 -44 117.999c9.33301 38 25.333 73.333 48 106s49.5 61 80.5 85s64.833 42.833 101.5 56.5s74 20.5 112 20.5c44 0 84.167 -7.33301 120.5 -22s66.166 -35.334 89.499 -62.001s39.333 -58.334 48 -95.001
s7.66699 -77 -3 -121zM533.001 193.008c8 32 -3.33105 47.999 -33.998 47.999c-16.667 0 -31.334 -6.66699 -44.001 -20s-22.334 -33.333 -29.001 -60c-2 -6.66699 -3.33301 -14.667 -4 -24s-1.16699 -18.166 -1.5 -26.499s-0.166016 -15.833 0.500977 -22.5
s1.66699 -10.667 3 -12c6.66699 0 15.5 3.5 26.5 10.5s22 16.167 33 27.5s21.167 24 30.5 38s15.666 27.667 18.999 41z" />
    <glyph glyph-name="uni0B23" unicode="&#xb23;" horiz-adv-x="658" 
d="M384 141c3.33301 14 2.1709 26.499 -3.49609 37.499s-15.334 20.5 -29.001 28.5s-30.334 14 -50.001 18s-41.834 6 -66.501 6c0.666992 0 -1.83301 -0.333008 -7.5 -1s-12 -1.66699 -19 -3s-13.667 -3.16602 -20 -5.49902s-9.83301 -4.83301 -10.5 -7.5
c-2 -3.33301 1 -15.333 9 -36c10.667 -33.333 25.667 -59 45 -77s42 -27 68 -27c23.333 0 41.666 5.5 54.999 16.5s23 27.833 29 50.5zM645.005 457.999c2 8.66699 -0.333008 19.834 -7 33.501s-16.667 26.834 -30 39.501s-29.333 23.5 -48 32.5s-38.667 13.5 -60 13.5
c-34 0 -58 -27 -72 -81c-3.33301 -13.333 -2.66602 -23.5 2.00098 -30.5l15 -21.5l47 -36l-60 -48l-86 63c-0.666992 0 -1.16699 0.166992 -1.5 0.5s-1.16602 0.5 -2.49902 0.5c-46 -8.66699 -80.5 -24 -103.5 -46s-39.833 -53.333 -50.5 -94c16 4 31 7.5 45 10.5
s25.667 4.5 35 4.5c74.667 -2 127.5 -18.333 158.5 -49s39.833 -73 26.5 -127c-4.66699 -18.667 -12.334 -35.834 -23.001 -51.501s-23.834 -29.334 -39.501 -41.001s-33.334 -20.667 -53.001 -27s-40.5 -9.5 -62.5 -9.5c-28 0 -54 8 -78 24s-44.167 36.5 -60.5 61.5
s-27.666 53 -33.999 84s-5.83301 61.5 1.5 91.5c16 64.667 45.167 117.5 87.5 158.5s96.5 66.833 162.5 77.5c13.333 52 33.5 91.333 60.5 118s61.5 40 103.5 40c67.333 0 119.333 -24.333 156 -73l17 66h74l-160 -642h-74z" />
    <glyph glyph-name="uni0B24" unicode="&#xb24;" horiz-adv-x="679" 
d="M728 347c-4.66699 -18.667 -10.5068 -37.165 -17.5068 -55.498s-15.833 -36.5 -26.5 -54.5l-64 27c8.66699 12.667 15.667 25.334 21 38.001s9.66602 25.667 12.999 39c8 31.333 9 61.333 3 90s-17.833 53.834 -35.5 75.501s-40.167 38.834 -67.5 51.501
s-58.666 19 -93.999 19c-26 0 -52.833 -5 -80.5 -15s-53.334 -24 -77.001 -42s-44.5 -39 -62.5 -63s-30.333 -50 -37 -78c-2 -8.66699 -1.83301 -16.834 0.5 -24.501s6 -14.5 11 -20.5s10.667 -10.667 17 -14s12.5 -5 18.5 -5c2 0 7 2.83301 15 8.5l27 19.5l30 22
c10 7.33301 18 12.666 24 15.999l47 -49c-80 -39.333 -127.333 -87.333 -142 -144c-3.33301 -14 -2.83301 -28 1.5 -42s11.166 -26.667 20.499 -38s20.5 -20.5 33.5 -27.5s26.833 -10.5 41.5 -10.5c16 0 32 2.33301 48 7s30.833 11.167 44.5 19.5s25.334 18.5 35.001 30.5
s16.5 25.333 20.5 40c2 7.33301 3.33301 13.666 4 18.999s1 10.666 1 15.999c-9.33301 -6 -21.333 -9 -36 -9c-9.33301 0 -18.166 1.66699 -26.499 5s-15.166 8 -20.499 14s-9.16602 13 -11.499 21s-2.5 17 -0.5 27c5.33301 19.333 16.5 35.5 33.5 48.5
s35.167 19.5 54.5 19.5c16.667 0 31 -4.5 43 -13.5s21.333 -20.5 28 -34.5s10.834 -29.833 12.501 -47.5s0.5 -35.167 -3.5 -52.5c-6.66699 -26.667 -18 -51.334 -34 -74.001s-35.167 -42.334 -57.5 -59.001s-46.666 -29.667 -72.999 -39s-52.833 -14 -79.5 -14
c-25.333 0 -48.666 5.33301 -69.999 16s-39.166 24.667 -53.499 42s-24.166 37.5 -29.499 60.5s-5 47.167 1 72.5c6.66699 26.667 16 50.334 28 71.001l-47 24c-28 23.333 -37 57 -27 101c10 39.333 26.167 75.333 48.5 108s49 60.834 80 84.501s64.833 42.167 101.5 55.5
s74.667 20 114 20c44.667 0 84.834 -7.33301 120.501 -22s65 -35.334 88 -62.001s38.667 -58.5 47 -95.5s7.16602 -77.833 -3.50098 -122.5z" />
    <glyph glyph-name="uni0B25" unicode="&#xb25;" horiz-adv-x="624" 
d="M521 97c-70.667 -67.333 -151.668 -101.002 -243.001 -101.002c-34 0 -64.5 5 -91.5 15s-49 24 -66 42s-28.667 39.667 -35 65s-5.5 53.333 2.5 84c13.333 53.333 44 93 92 119c12.667 8 62.334 27.333 149.001 58c70 24 111 62 123 114c2.66699 10 2.66699 20 0 30
s-7.16699 19 -13.5 27s-13.833 14.333 -22.5 19s-18 7 -28 7s-20.667 -2 -32 -6s-22 -9.66699 -32 -17s-18.833 -15.833 -26.5 -25.5s-12.834 -20.167 -15.501 -31.5c-6 -25.333 -3 -49.333 9 -72l-72 -35c-19.333 22.667 -24 54.667 -14 96c6 23.333 15.667 45 29 65
s29 37.333 47 52s37.667 26.167 59 34.5s43 12.5 65 12.5s41.5 -4.16699 58.5 -12.5s30.833 -19.666 41.5 -33.999s17.834 -30.666 21.501 -48.999s3.16699 -37.5 -1.5 -57.5c-18 -71.333 -72 -128 -162 -170l-123 -48c-42.667 -20.667 -69 -49.667 -79 -87
c-10 -40 -2 -70.5 24 -91.5s65.667 -31.5 119 -31.5c26 0 53 5.66699 81 17s54 26 78 44s45 38.667 63 62s30 47 36 71l95 380h71l-160 -642h-71z" />
    <glyph glyph-name="uni0B26" unicode="&#xb26;" horiz-adv-x="656" 
d="M714 352c-4 -16 -8.99805 -32.3311 -14.998 -48.998s-14.667 -32.334 -26 -47.001l-28 -41l-59 26c27.333 36.667 45.666 73.667 54.999 111c7.33301 28.667 8.66602 56.5 3.99902 83.5s-14.5 51 -29.5 72s-34.5 37.833 -58.5 50.5s-51.333 19 -82 19
c-25.333 0 -51 -5.33301 -77 -16s-50 -25 -72 -43s-41.167 -38.5 -57.5 -61.5s-27.5 -46.833 -33.5 -71.5c-6 -26 0 -44.333 18 -55l37 -14c20 13.333 37.167 24.333 51.5 33s26.166 15.334 35.499 20.001l35 -66c-5.33301 0 -14.333 -3.33301 -27 -10
s-25.667 -14.667 -39 -24s-25.333 -19.5 -36 -30.5s-17 -20.833 -19 -29.5c-3.33301 -11.333 -4 -22.833 -2 -34.5s5.83301 -22.334 11.5 -32.001s12.834 -17.667 21.501 -24s18 -9.5 28 -9.5s21.333 2.16699 34 6.5s25 10 37 17s22.5 15.167 31.5 24.5s14.833 19 17.5 29
l35 140h73l-82 -328h-73l18 73c-40 -24.667 -81.333 -37 -124 -37c-19.333 0 -37 4.83301 -53 14.5s-29.5 22 -40.5 37s-18.833 31.667 -23.5 50s-5 35.833 -1 52.5c8 30.667 18 53 30 67c-66 26.667 -92 68.667 -78 126c9.33301 37.333 25.333 72.166 48 104.499
s49.334 60.5 80.001 84.5s64 43 100 57s72.667 21.333 110 22c40.667 0 77.167 -7.83301 109.5 -23.5s58.666 -37 78.999 -64s34 -58.5 41 -94.5s5.5 -74.333 -4.5 -115z" />
    <glyph glyph-name="uni0B27" unicode="&#xb27;" horiz-adv-x="597" 
d="M518 71c-62.667 -48.667 -137.662 -72.999 -224.995 -72.999c-37.333 0 -70.5 5 -99.5 15s-52.5 24.5 -70.5 43.5s-30 41.833 -36 68.5s-5 56.667 3 90c6 24.667 16.667 48.334 32 71.001s33.166 42.5 53.499 59.5s41.833 30.5 64.5 40.5s44.667 15 66 15
c3.33301 0 6.5 -0.166992 9.5 -0.5s6.16699 -0.833008 9.5 -1.5l-123 243h93l157 -312l-62 -46l-29 46c-6 5.33301 -16.333 8 -31 8c-16.667 0 -33.834 -3.5 -51.501 -10.5s-34.334 -16.333 -50.001 -28s-29.334 -25.334 -41.001 -41.001s-19.5 -32.167 -23.5 -49.5
c-5.33301 -22 -5.66602 -41.5 -0.999023 -58.5s13.667 -31.5 27 -43.5s30.333 -21 51 -27s44.667 -9 72 -9c26 0 52.667 5.16699 80 15.5s52.666 24.166 75.999 41.499s43.666 37.333 60.999 60s29 46.667 35 72l96 382h71l-160 -642h-71z" />
    <glyph glyph-name="uni0B28" unicode="&#xb28;" horiz-adv-x="664" 
d="M738 339c-5.33301 -20.667 -10.667 -38.6689 -16 -54.002s-11.333 -29.166 -18 -41.499s-14.167 -23.833 -22.5 -34.5s-17.833 -21.667 -28.5 -33l-65 26l25.5 37.5c7.66699 11 14.5 22 20.5 33s11.333 22.5 16 34.5s9 25.333 13 40c7.33301 30.667 7.5 60 0.5 88
s-19.5 52.667 -37.5 74s-40.333 38.333 -67 51s-56 19 -88 19c-25.333 0 -53.166 -5.83301 -83.499 -17.5s-59.166 -27 -86.499 -46s-51.333 -40.5 -72 -64.5s-34 -48.333 -40 -73c-14 -58 0.666992 -98.667 44 -122l27 -11c18.667 12.667 38.334 23.334 59.001 32.001
s40.167 15.834 58.5 21.501s34.666 9.83398 48.999 12.501s25.166 4 32.499 4c42 0 67.667 -5.66699 77 -17l-75 -300h-71l61 246c-53.333 0 -97 -13.833 -131 -41.5s-61 -62.834 -81 -105.501l6 2c2 0.666992 4.33301 1 7 1c12.667 0 22.667 -6 30 -18
s9.33301 -24.667 6 -38c-4.66699 -19.333 -13 -34 -25 -44s-26.667 -15 -44 -15c-27.333 0 -46 10.333 -56 31s-11 46.334 -3 77.001c13.333 54.667 26.666 86.667 39.999 96c-23.333 13.333 -42.166 26.333 -56.499 39s-25 26.167 -32 40.5s-10.5 30.5 -10.5 48.5
s3 38.667 9 62c8.66699 34.667 26.334 68.667 53.001 102s58 62.666 94 87.999s74.5 45.833 115.5 61.5s80.167 23.5 117.5 23.5c45.333 0 85.666 -8.33301 120.999 -25s64.333 -39.334 87 -68.001s37.667 -62.167 45 -100.5s5.66602 -78.833 -5.00098 -121.5z" />
    <glyph glyph-name="uni0B2A" unicode="&#xb2a;" horiz-adv-x="663" 
d="M629 385c4.66699 18.667 3.83105 39.1689 -2.50195 61.502s-17.166 43 -32.499 62s-34.5 35 -57.5 48s-48.833 19.5 -77.5 19.5c-27.333 0 -54.5 -5 -81.5 -15s-52.167 -23.5 -75.5 -40.5s-43.5 -37.333 -60.5 -61s-28.833 -48.834 -35.5 -75.501
c-5.33301 -23.333 -0.833008 -42.833 13.5 -58.5s33.833 -24.5 58.5 -26.5c54 25.333 93.667 42.666 119 51.999l16 -66c-18.667 -4 -37.167 -10.167 -55.5 -18.5s-35.166 -18.5 -50.499 -30.5s-28.5 -25.167 -39.5 -39.5s-18.5 -29.5 -22.5 -45.5
c-14 -56.667 28 -85 126 -85c62 0 130.333 34.667 205 104zM549.997 68.002c-12.667 -9.33301 -27.001 -18.332 -43.001 -26.999s-32.667 -16.334 -50 -23.001s-34.333 -12 -51 -16s-31.667 -6 -45 -6c-70 0 -122.333 13.5 -157 40.5s-46 64.5 -34 112.5
c9.33301 37.333 24.333 68.333 45 93c-74 26.667 -103 73 -87 139c9.33301 37.333 25.5 72.333 48.5 105s50.333 61 82 85s66.167 43 103.5 57s75 21 113 21c24 0 45.333 -2.33301 64 -7s35.5 -11.5 50.5 -20.5s28.833 -20 41.5 -33s25.334 -27.833 38.001 -44.5l25 98h72
l-160 -642h-72z" />
    <glyph glyph-name="uni0B2B" unicode="&#xb2b;" horiz-adv-x="765" 
d="M846 647c17.333 0.666992 32.665 -2.33008 45.998 -8.99707s24 -15.834 32 -27.501s13.167 -25.334 15.5 -41.001s1.5 -32.167 -2.5 -49.5c-4.66699 -17.333 -12 -33.5 -22 -48.5s-22 -28.167 -36 -39.5s-29.333 -20.333 -46 -27s-33.334 -10 -50.001 -10
c-14.667 0 -28.167 2.33301 -40.5 7s-23.166 11 -32.499 19l-104 -421h-72l16 68c-12.667 -9.33301 -27 -18.333 -43 -27s-32.667 -16.334 -50 -23.001s-34.333 -12 -51 -16s-31.667 -6 -45 -6c-70 0 -122.333 13.5 -157 40.5s-46 64.5 -34 112.5
c9.33301 37.333 24.333 68.333 45 93c-74 26.667 -103 73 -87 139c9.33301 37.333 25.5 72.333 48.5 105s50.333 61 82 85s66.167 43 103.5 57s75 21 113 21c24 0 45.333 -2.33301 64 -7s35.5 -11.5 50.5 -20.5s28.833 -20 41.5 -33s25.334 -27.833 38.001 -44.5l25 98h72
l-6 -23c26.667 18 55.334 27.333 86.001 28zM628.999 385.003c4.66699 18.667 3.83105 39.1689 -2.50195 61.502s-17.166 43 -32.499 62s-34.5 35 -57.5 48s-48.833 19.5 -77.5 19.5c-27.333 0 -54.5 -5 -81.5 -15s-52.167 -23.5 -75.5 -40.5s-43.5 -37.333 -60.5 -61
s-28.833 -48.834 -35.5 -75.501c-5.33301 -23.333 -0.833008 -42.833 13.5 -58.5s33.833 -24.5 58.5 -26.5c54 25.333 93.667 42.666 119 51.999l16 -66c-18.667 -4 -37.167 -10.167 -55.5 -18.5s-35.166 -18.5 -50.499 -30.5s-28.5 -25.167 -39.5 -39.5
s-18.5 -29.5 -22.5 -45.5c-14 -56.667 28 -85 126 -85c62 0 130.333 34.667 205 104zM873.996 522.005c4.66699 19.333 3.16504 34.333 -4.50195 45s-21.5 16 -41.5 16s-37.167 -5.83301 -51.5 -17.5s-23.833 -26.834 -28.5 -45.501c-4 -17.333 -1.5 -31.666 7.5 -42.999
s22.167 -17 39.5 -17c18.667 0 35.334 6 50.001 18s24.334 26.667 29.001 44z" />
    <glyph glyph-name="uni0B2C" unicode="&#xb2c;" horiz-adv-x="664" 
d="M431 180c5.33301 20 2.66699 37.167 -8 51.5s-26 21.5 -46 21.5c-20.667 0 -40 -7.16699 -58 -21.5s-29.667 -31.5 -35 -51.5c-5.33301 -20.667 -2.5 -38.167 8.5 -52.5s26.833 -21.5 47.5 -21.5c20 0 38.833 7.16699 56.5 21.5s29.167 31.833 34.5 52.5zM732.001 343
c-5.33301 -20 -12.0029 -40.3369 -20.0029 -61.0039s-18.667 -41 -32 -61l-36 -54l-67 26c19.333 24 35.5 47.333 48.5 70s23.167 48.667 30.5 78c8 32 8.83301 62.333 2.5 91s-18.333 53.834 -36 75.501s-39.667 38.667 -66 51s-55.5 18.5 -87.5 18.5
c-27.333 0 -55.833 -5.5 -85.5 -16.5s-57.5 -26 -83.5 -45s-48.833 -40.833 -68.5 -65.5s-32.834 -50.334 -39.501 -77.001c-14.667 -59.333 1 -101.666 47 -126.999c27.333 27.333 52.833 48.166 76.5 62.499s49.167 21.5 76.5 21.5c46.667 0 80.167 -15 100.5 -45
s24.833 -68 13.5 -114l-44 -177h-74l14 58c-17.333 -14 -45.666 -21 -84.999 -21c-41.333 0 -72.666 11.167 -93.999 33.5s-27.666 50.5 -18.999 84.5c-42 26.667 -71.167 57.834 -87.5 93.501s-17.833 81.167 -4.5 136.5c8.66699 34.667 25.5 68.334 50.5 101.001
s54.833 61.834 89.5 87.501s72.667 46.334 114 62.001s82.333 23.5 123 23.5c42.667 0 81.334 -8.33301 116.001 -25s63 -39.334 85 -68.001s37 -61.667 45 -99s7 -76.666 -3 -117.999z" />
    <glyph glyph-name="uni0B2D" unicode="&#xb2d;" horiz-adv-x="748" 
d="M582 123c28.667 24.667 51.8252 51.665 69.4922 80.998s31.167 61.666 40.5 96.999c9.33301 37.333 10.5 72.5 3.5 105.5s-20.333 61.833 -40 86.5s-44.667 44.167 -75 58.5s-63.833 21.5 -100.5 21.5c-31.333 0 -62.666 -5.33301 -93.999 -16
s-60.166 -25.334 -86.499 -44.001s-49.166 -40.667 -68.499 -66s-32.666 -52.666 -39.999 -81.999c-3.33301 -12.667 -4.83301 -23 -4.5 -31s1.5 -14.667 3.5 -20s4.83301 -10.333 8.5 -15s7.16699 -9.66699 10.5 -15c8 16 16.667 30.5 26 43.5s17.666 24.167 24.999 33.5
c8.66699 11.333 17.334 21.333 26.001 30l55 -44c-5.33301 -2 -12.5 -8.5 -21.5 -19.5s-18 -24 -27 -39s-17.5 -31.167 -25.5 -48.5s-14 -33.666 -18 -48.999c-9.33301 -37.333 -6.66602 -67.833 8.00098 -91.5s40.667 -35.5 78 -35.5c58 0 108 27.333 150 82l-11.5 -4
c-5.66699 -2 -12 -4 -19 -6s-14.167 -3.66699 -21.5 -5s-14 -2 -20 -2c-30.667 0 -52 10.333 -64 31s-14 47 -6 79c4.66699 17.333 11.334 34.833 20.001 52.5s19.334 35.834 32.001 54.501l68 -25c-2 -1.33301 -5 -5.5 -9 -12.5s-8.16699 -15 -12.5 -24
s-8.5 -18.333 -12.5 -28s-7 -17.834 -9 -24.501c-8 -34 -1.66699 -51 19 -51c12 0 31.667 11.667 59 35l27 106h75l-40 -158c-6 -25.333 -16 -48.333 -30 -69s-31 -38.5 -51 -53.5s-42.667 -26.667 -68 -35s-52.666 -12.5 -81.999 -12.5c-30.667 0 -57.334 5 -80.001 15
s-41 23.833 -55 41.5s-23 38.834 -27 63.501s-2.33301 52 5 82l2.5 7.5c1 3 2.16699 6.16699 3.5 9.5c-58 32.667 -77.333 89.667 -58 171c9.33301 37.333 25.833 72 49.5 104s52.5 59.667 86.5 83s71.833 41.833 113.5 55.5s85.167 20.834 130.5 21.501
c46 0 88.167 -8.83301 126.5 -26.5s70.166 -41.667 95.499 -72s42.833 -66 52.5 -107s8.83398 -84.5 -2.49902 -130.5c-17.333 -70.667 -52.666 -133.667 -105.999 -189l49 -123h-91z" />
    <glyph glyph-name="uni0B2E" unicode="&#xb2e;" horiz-adv-x="664" 
d="M648 434c-10.667 45.333 -34.1738 81.1689 -70.5068 107.502s-79.166 39.5 -128.499 39.5c-24 0 -48.667 -5.16699 -74 -15.5s-49.166 -24.5 -71.499 -42.5s-42 -38.833 -59 -62.5s-28.833 -48.834 -35.5 -75.501c-12.667 -54 15 -93.333 83 -118l94 36l95 29l13 -56
c-11.333 0 -80.666 -26.333 -207.999 -79c-57.333 -24.667 -88.333 -47.334 -93 -68.001c-2 -8 -0.333008 -13.833 5 -17.5l18 -12.5c6.66699 -4.66699 12.334 -10.5 17.001 -17.5s5.33398 -17.5 2.00098 -31.5c-5.33301 -19.333 -14 -33.5 -26 -42.5
s-29.333 -13.5 -52 -13.5c-23.333 0 -39.666 9.5 -48.999 28.5s-10.333 42.5 -3 70.5c3.33301 14 8.5 27.5 15.5 40.5s15.167 25.333 24.5 37s19.333 22 30 31s21.667 16.167 33 21.5c-12 2.66699 -23.5 9.33398 -34.5 20.001s-20.167 23.5 -27.5 38.5
s-12.5 31.167 -15.5 48.5s-2.5 34.333 1.5 51c8.66699 36 24.334 70.167 47.001 102.5s49 60.666 79 84.999s62.167 43.833 96.5 58.5s67.833 22 100.5 22c43.333 0 81.833 -6.33301 115.5 -19s62.167 -30 85.5 -52l21 -26l23 90h71l-160 -642h-71z" />
    <glyph glyph-name="uni0B2F" unicode="&#xb2f;" horiz-adv-x="661" 
d="M72 106c3.33301 -4.66699 5.83008 -11.165 7.49707 -19.498s0.833984 -18.833 -2.49902 -31.5c-3.33301 -14 -11.5 -26 -24.5 -36s-28.5 -15 -46.5 -15c-15.333 0 -26.166 5.66699 -32.499 17s-6.5 28.666 -0.5 51.999c8 33.333 30 60.333 66 81l160 94
c-62 28.667 -85.667 73 -71 133c9.33301 37.333 25.5 72.333 48.5 105s50.333 61 82 85s66.167 43 103.5 57s75 21 113 21c24 0 45.333 -2.33301 64 -7s35.5 -11.5 50.5 -20.5s28.833 -20 41.5 -33s25.334 -27.833 38.001 -44.5l25 98h72l-160 -642h-72l16 68
c-12.667 -9.33301 -27 -18.333 -43 -27s-32.667 -16.334 -50 -23.001s-34.333 -12 -51 -16s-31.667 -6 -45 -6c-70 0 -122.333 13.5 -157 40.5s-46 64.5 -34 112.5l3 15zM628.997 385.002c4.66699 18.667 3.83203 39.1699 -2.50098 61.5029s-17.166 43 -32.499 62
s-34.5 35 -57.5 48s-48.833 19.5 -77.5 19.5c-27.333 0 -54.5 -5 -81.5 -15s-52.167 -23.5 -75.5 -40.5s-43.5 -37.333 -60.5 -61s-28.833 -48.834 -35.5 -75.501c-5.33301 -23.333 -0.833008 -42.833 13.5 -58.5s33.833 -24.5 58.5 -26.5l50 26v-3
c14.667 7.33301 27.5 13.166 38.5 17.499s21.167 8.16602 30.5 11.499l16 -66l-34.5 -10c-11 -3.33301 -22.167 -8 -33.5 -14l-20 -11c-0.666992 -0.666992 -1 -1.33398 -1 -2.00098h-1c-21.333 -12.667 -38.333 -27.167 -51 -43.5s-21.667 -34.166 -27 -53.499
c-14 -56.667 28 -85 126 -85c62 0 130.333 34.667 205 104z" />
    <glyph glyph-name="uni0B30" unicode="&#xb30;" horiz-adv-x="664" 
d="M384 154c5.33301 24 2.49805 44.502 -8.50195 61.502s-27.5 25.5 -49.5 25.5c-10.667 0 -21.5 -2.33301 -32.5 -7s-21.167 -10.834 -30.5 -18.501s-17.666 -16.834 -24.999 -27.501s-12.333 -22 -15 -34c-3.33301 -11.333 -4.16602 -22.333 -2.49902 -33
s5 -20.167 10 -28.5s11.833 -15 20.5 -20s19 -7.5 31 -7.5c11.333 0 22.5 2.5 33.5 7.5s21 11.667 30 20s16.833 17.833 23.5 28.5s11.667 21.667 15 33zM727.998 371.002c-22 -86.667 -63.665 -156.664 -124.998 -209.997l12 -163h-88l-13 162c24 25.333 43.833 47 59.5 65
s28.334 34.667 38.001 50s17.334 30.666 23.001 45.999s11.167 33 16.5 53c7.33301 28.667 7.66602 55.334 0.999023 80.001s-18.834 46 -36.501 64s-40.334 32.167 -68.001 42.5s-58.834 15.5 -93.501 15.5c-26.667 0 -53.834 -5.16699 -81.501 -15.5
s-53.667 -24.5 -78 -42.5s-45.5 -39 -63.5 -63s-30.333 -49.333 -37 -76c-5.33301 -20.667 -4.16602 -38.334 3.50098 -53.001s20.5 -29.334 38.5 -44.001c32.667 22 67.667 33 105 33c22 0 42 -4.33301 60 -13s32.667 -20.167 44 -34.5s19 -31.333 23 -51
s3.33301 -40.5 -2 -62.5c-5.33301 -21.333 -14.5 -41.5 -27.5 -60.5s-28.333 -35.833 -46 -50.5s-37.334 -26.167 -59.001 -34.5s-43.5 -12.5 -65.5 -12.5c-21.333 0 -40.833 4.16699 -58.5 12.5s-32 19.5 -43 33.5s-18.5 30.667 -22.5 50s-3.33301 40 2 62
c8 31.333 17.333 54.666 28 69.999c-52 31.333 -70 81 -54 149c9.33301 38 25.833 73.667 49.5 107s51.5 62.5 83.5 87.5s66.833 44.833 104.5 59.5s75.5 22 113.5 22c44.667 0 85 -7.33301 121 -22s65.667 -34.667 89 -60s39.333 -54.833 48 -88.5
s8.33398 -69.5 -0.999023 -107.5z" />
    <glyph glyph-name="uni0B32" unicode="&#xb32;" horiz-adv-x="673" 
d="M590 162c18 14.667 32.833 27.8291 44.5 39.4961s21.5 23.834 29.5 36.501s14.667 26.667 20 42s10.666 33.666 15.999 54.999c8 31.333 7.66699 61.333 -1 90s-23 53.834 -43 75.501s-44.333 39 -73 52s-59.334 19.5 -92.001 19.5c-30.667 0 -61.5 -5.16699 -92.5 -15.5
s-59.667 -24.333 -86 -42s-49 -38 -68 -61s-31.833 -47.167 -38.5 -72.5c-12 -49.333 0 -92.333 36 -129c31.333 24.667 62.333 37 93 37c38.667 0 60.667 -9.33301 66 -28c22 18 50.333 27 85 27c22.667 0 41 -7.16699 55 -21.5s21.667 -37.166 23 -68.499l-49 -198h-76
l44 178c2.66699 10 2 18.167 -2 24.5s-11.333 9.5 -22 9.5c-10 0 -18 -2.66699 -24 -8s-10.667 -14.666 -14 -27.999l-43 -176h-77l45 182c4.66699 20.667 -4.33301 31 -27 31c-16 0 -27.333 -10.333 -34 -31l-45 -182h-74l45 183l-29 17c-24.667 19.333 -41 44.333 -49 75
s-7 67 3 109c10 38.667 27.333 74.334 52 107.001s54.167 60.667 88.5 84s72 41.5 113 54.5s82.167 19.5 123.5 19.5c46.667 0 88.834 -8.33301 126.501 -25s68.334 -39.5 92.001 -68.5s39.667 -63.333 48 -103s6.83301 -82.167 -4.5 -127.5
c-20 -79.333 -52.333 -140 -97 -182l34 -143h-88z" />
    <glyph glyph-name="uni0B33" unicode="&#xb33;" horiz-adv-x="669" 
d="M735 352c-17.333 -68.667 -47.3281 -124.333 -89.9951 -167l-51 49c14.667 17.333 26.834 34.833 36.501 52.5s17.834 39.167 24.501 64.5c8 30.667 9.16699 59.5 3.5 86.5s-16.5 50.5 -32.5 70.5s-36.167 35.667 -60.5 47s-51.5 17 -81.5 17
c-28.667 0 -57.834 -5.83301 -87.501 -17.5s-57.334 -27.334 -83.001 -47.001s-48.167 -42.334 -67.5 -68.001s-32.333 -52.167 -39 -79.5c-15.333 -62.667 -15 -104.334 1 -125.001c26.667 42 62.334 63 107.001 63c38 0 61.333 -11.333 70 -34c33.333 22.667 62 34 86 34
c16 0 30.5 -2.66699 43.5 -8s23.667 -12.666 32 -21.999s14 -20 17 -32s2.83301 -25 -0.5 -39l-49 -197h-75l48 196c1.33301 5.33301 -0.833984 11.666 -6.50098 18.999s-13.5 11 -23.5 11c-22.667 0 -39.334 -11.333 -50.001 -34l-47 -192h-77l48 193c2 22 -8 33 -30 33
c-5.33301 0 -10.833 -1.33301 -16.5 -4s-10.834 -5.66699 -15.501 -9s-8.66699 -6.66602 -12 -9.99902s-5.33301 -5.66602 -6 -6.99902l-48 -196h-73l33 133c-10 10.667 -18.333 24.334 -25 41.001s-11.5 34.667 -14.5 54s-4.33301 39.5 -4 60.5
s3.16602 41.167 8.49902 60.5c10 40 27.5 78.167 52.5 114.5s54.667 68.333 89 96s72 49.5 113 65.5s82.5 24 124.5 24c39.333 0 75.166 -8 107.499 -24s59.166 -37.667 80.499 -65s35.833 -59 43.5 -95s6.5 -73.667 -3.5 -113z" />
    <glyph glyph-name="uni0B35" unicode="&#xb35;" horiz-adv-x="664" 
d="M773 343c-1.33301 -4 -2.8252 -10 -4.49219 -18s-4.16699 -16.5 -7.5 -25.5s-7.16602 -18.167 -11.499 -27.5s-9.5 -18 -15.5 -26l-14 -25l-36 -54l-67 26c2 3.33301 4.16699 6.16602 6.5 8.49902s4.83301 5.16602 7.5 8.49902l17 24c6 8.66699 13.5 21.167 22.5 37.5
s16.167 35.166 21.5 56.499l5 20c0 0.666992 0.833008 4 2.5 10s3 12.667 4 20s1.66699 14.5 2 21.5s-0.833984 12.167 -3.50098 15.5l-4 20c-1.33301 12 -4.83301 23.333 -10.5 34s-11.834 20.667 -18.501 30l-33 36l-14.5 10.5c-5 3.66699 -10.833 7.16699 -17.5 10.5
l-6 4l-43 12c-5.33301 1.33301 -11 2.33301 -17 3s-12.333 1.33398 -19 2.00098h-9c-10.667 0 -22.5 -1.66699 -35.5 -5s-24.167 -5 -33.5 -5l-17 -6c-0.666992 0 -1.33398 -0.166992 -2.00098 -0.5s-1.66699 -0.5 -3 -0.5l-25 -11c-10 -5.33301 -19.667 -11 -29 -17
l-27 -18l-16 -12c-12.667 -9.33301 -23 -18.5 -31 -27.5s-15 -18 -21 -27s-11.667 -18.333 -17 -28l-17 -30.5l-6 -25c-6.66699 -27.333 -5.33398 -50.666 3.99902 -69.999s24.666 -35.333 45.999 -48l22.5 22c7.66699 7.33301 15.834 14.333 24.501 21l39 25
c11.333 4.66699 22.5 8.5 33.5 11.5s22.167 4.5 33.5 4.5h8c32 0 59 -10 81 -30l14 -21l4 -8c1.33301 -2.66699 2.33301 -5.33398 3 -8.00098l2 -3c0 -1.33301 0.333008 -2.33301 1 -3l4 -15v-3l2 -15c1.33301 -8 1 -16.833 -1 -26.5s-3.66699 -18.5 -5 -26.5l-44 -177h-73
l14 58l-8 -5c-2 -2 -5.83301 -4.33301 -11.5 -7s-12.834 -4.66699 -21.501 -6l-12 -2c-2 0 -3.83301 -0.166992 -5.5 -0.5s-3.16699 -0.5 -4.5 -0.5h-22c-14.667 0 -26.667 0.666992 -36 2s-17.666 4 -24.999 8c-11.333 0 -20.833 3.83301 -28.5 11.5s-13.667 17 -18 28
s-7.16602 22.333 -8.49902 34s-1 21.167 1 28.5l2 6c-0.666992 0 -1.33398 0.166992 -2.00098 0.5s-1.33398 0.5 -2.00098 0.5l-43 30c-8 8 -15.167 16.333 -21.5 25s-12.166 17.667 -17.499 27l-2 7c-4.66699 6 -8.16699 14.167 -10.5 24.5s-3.66602 21.5 -3.99902 33.5
s0.166992 24.167 1.5 36.5s3.33301 23.5 6 33.5l8 32c2 6.66699 4.5 13.334 7.5 20.001s6.16699 13.334 9.5 20.001l6 10c12 20 27.5 40.167 46.5 60.5s40.167 39.333 63.5 57s48.166 33.167 74.499 46.5s52.5 23 78.5 29l12 4c2 0 4.5 0.333008 7.5 1s6.16699 1 9.5 1l14 3
c6.66699 0.666992 13.667 1.16699 21 1.5s14.666 0.5 21.999 0.5h12c2.66699 0 5 -0.166992 7 -0.5s3.66699 -0.5 5 -0.5h8c3.33301 -0.666992 6.16602 -1.33398 8.49902 -2.00098s5.16602 -1 8.49902 -1l13 -2c6 -1.33301 13.167 -3.66602 21.5 -6.99902s15.5 -5 21.5 -5
l10 -5c4 -1.33301 7 -3 9 -5l21 -11c7.33301 -3.33301 15.666 -9.66602 24.999 -18.999s17 -18 23 -26l18 -23l19 -33l15 -42c5.33301 -16.667 7.66602 -36.834 6.99902 -60.501s-3.66699 -46.167 -9 -67.5zM485.008 175c6 24.667 2.66797 45.334 -9.99902 62.001
s-31.334 25 -56.001 25s-47.667 -8.33301 -69 -25s-35 -37.334 -41 -62.001c-6 -24 -2.33301 -44.333 11 -61s32 -25 56 -25c12 0 23.833 2.16699 35.5 6.5s22.5 10.5 32.5 18.5s18.5 17.167 25.5 27.5s12.167 21.5 15.5 33.5zM432.009 175
c-2 -9.33301 -7.66602 -17.5 -16.999 -24.5s-18.333 -10.5 -27 -10.5c-9.33301 0 -16.5 3.5 -21.5 10.5s-6.5 15.167 -4.5 24.5c2.66699 9.33301 8.33398 17.5 17.001 24.5s17.667 10.5 27 10.5s16.666 -3.5 21.999 -10.5s6.66602 -15.167 3.99902 -24.5z" />
    <glyph glyph-name="uni0B36" unicode="&#xb36;" horiz-adv-x="688" 
d="M421 140c5.33301 23.333 2.66699 43.499 -8 60.499s-27 25.5 -49 25.5c-11.333 0 -22.5 -2.33301 -33.5 -7s-21.167 -11 -30.5 -19s-17.666 -17.167 -24.999 -27.5s-12.333 -21.166 -15 -32.499c-6 -24 -3.83301 -45 6.5 -63s28.166 -27 53.499 -27
c11.333 0 22.333 2.5 33 7.5s20.5 11.5 29.5 19.5s16.833 17.5 23.5 28.5s11.667 22.5 15 34.5zM662.001 398.999c0.666992 3.33301 0.333984 9.16699 -0.999023 17.5s-4.66602 19.166 -9.99902 32.499c-14 40 -33.833 71.333 -59.5 94s-55.834 34 -90.501 34
c-9.33301 0 -18.833 -1.66699 -28.5 -5s-18.667 -8 -27 -14s-15.666 -13.5 -21.999 -22.5s-10.833 -18.833 -13.5 -29.5c-4 -14.667 -2.66699 -27.167 4 -37.5s13.667 -16.166 21 -17.499l65 -24l-37 -67l-144 48c-37.333 0 -64.5 -4.83301 -81.5 -14.5
s-28.5 -26.5 -34.5 -50.5c-2.66699 -10.667 -2.33398 -20.667 0.999023 -30s8.5 -17.333 15.5 -24s15 -12 24 -16s17.5 -6 25.5 -6c34.667 22 70 33 106 33c22 0 42 -4.16699 60 -12.5s32.833 -19.666 44.5 -33.999s19.5 -31.333 23.5 -51s3 -40.5 -3 -62.5
c-5.33301 -22 -14.666 -42.667 -27.999 -62s-28.833 -36.333 -46.5 -51s-37.167 -26.167 -58.5 -34.5s-42.666 -12.5 -63.999 -12.5c-22 0 -41.667 4 -59 12s-31.5 19.167 -42.5 33.5s-18.333 31.166 -22 50.499s-2.83398 40 2.49902 62
c3.33301 14 7.16602 26.667 11.499 38s9.83301 21.666 16.5 30.999c-74.667 23.333 -104 67.333 -88 132c11.333 46.667 33.166 82.334 65.499 107.001s71.5 37 117.5 37h12.5c3.66699 0 6.16699 -0.333008 7.5 -1c12.667 51.333 36 92 70 122s73.333 45 118 45
c76 0 137.667 -35 185 -105l25 98h72l-160 -642h-72z" />
    <glyph glyph-name="uni0B37" unicode="&#xb37;" horiz-adv-x="663" 
d="M561 95l-32.002 -24.998c-34 -26 -69.167 -45.667 -105.5 -59s-73.166 -20 -110.499 -20c-24 0 -46.833 4.5 -68.5 13.5s-40 21 -55 36s-25.833 32.5 -32.5 52.5s-7.33398 41 -2.00098 63c5.33301 21.333 12 39.333 20 54s18 26.667 30 36c-18 10 -32.667 19.667 -44 29
s-19.833 19.166 -25.5 29.499s-8.66699 21.666 -9 33.999s1.5 26.5 5.5 42.5c9.33301 37.333 25.5 72.333 48.5 105s50.333 61 82 85s66 43 103 57s74.5 21 112.5 21c24.667 0 46.334 -2.33301 65.001 -7s35.5 -11.5 50.5 -20.5s28.833 -20 41.5 -33
s25.334 -27.833 38.001 -44.5l25 98h72l-160 -642h-72zM294.998 241.002c-13.333 -6.66699 -25.999 -18.666 -37.999 -35.999s-20.667 -35.666 -26 -54.999c-3.33301 -12 -2.66602 -23.167 2.00098 -33.5s11.667 -19.333 21 -27s20.666 -13.834 33.999 -18.501
s27.666 -7 42.999 -7c22.667 0 47 5 73 15s50.167 21.833 72.5 35.5s41.333 27.667 57 42s24.5 26.166 26.5 35.499l-111 146zM632.999 385.003c4 20 2.83301 41.332 -3.5 63.999s-17.166 43.334 -32.499 62.001s-34.333 34.167 -57 46.5s-48.334 18.5 -77.001 18.5
c-12 0 -24.667 -1.16699 -38 -3.5s-28 -5.83301 -44 -10.5l222 -298zM311.999 523.002c-24 -14.667 -45.5 -35.333 -64.5 -62s-32.167 -54 -39.5 -82c-5.33301 -23.333 -2.66602 -41.833 8.00098 -55.5s24.667 -20.5 42 -20.5c11.333 0 22.666 3 33.999 9l124 71z" />
    <glyph glyph-name="uni0B38" unicode="&#xb38;" horiz-adv-x="678" 
d="M654 412c2 6 -0.335938 20.666 -7.00293 43.999c-11.333 38.667 -31.333 68.5 -60 89.5s-65 31.5 -109 31.5c-29.333 0 -58.166 -4.16699 -86.499 -12.5s-54.166 -20.166 -77.499 -35.499s-43.5 -33.5 -60.5 -54.5s-28.5 -43.833 -34.5 -68.5
c-4 -16 -4.66699 -31.333 -2 -46s8 -27.5 16 -38.5s18.5 -19.833 31.5 -26.5s28.167 -10 45.5 -10c28.667 0 58.334 10 89.001 30l87 58l37 -53l-251 -159l298 -87zM105.997 122.999l138 92c-45.333 18 -77 42.833 -95 74.5s-21.333 70.5 -10 116.5
c8 33.333 23 64.833 45 94.5s48.5 55.5 79.5 77.5s65.5 39.333 103.5 52s77 19 117 19c24.667 0 49.667 -3.66699 75 -11s48 -15.833 68 -25.5s36 -19.5 48 -29.5s17.333 -17.667 16 -23l21 82h73l-160 -642h-73z" />
    <glyph glyph-name="uni0B39" unicode="&#xb39;" horiz-adv-x="626" 
d="M675 381c-1.33301 -6.66699 -4.16895 -16.0049 -8.50195 -28.0049s-9.33301 -24 -15 -36l-16.5 -33.5c-5.33301 -10.333 -9.66602 -17.5 -12.999 -21.5l-55 37l5.5 11l10 20.5l11 23.5c3.66699 8 6.16699 14.667 7.5 20c6.66699 28 7.83398 54.5 3.50098 79.5
s-13.333 47 -27 66s-31.667 34 -54 45s-47.5 16.5 -75.5 16.5c-25.333 0 -50.666 -4 -75.999 -12s-48.5 -19.167 -69.5 -33.5s-39.333 -31.666 -55 -51.999s-26.5 -42.5 -32.5 -66.5c-5.33301 -24 -1.33301 -41.667 12 -53l25 -12l23 24
c25.333 20.667 44.333 34.334 57 41.001l36 -49c-3.33301 0 -9.33301 -3.5 -18 -10.5s-17.667 -15.333 -27 -25s-17.833 -19.667 -25.5 -30s-12.5 -19.166 -14.5 -26.499c-8.66699 -37.333 8.66602 -58 51.999 -62c6 0 13.5 1.66699 22.5 5s18 7.5 27 12.5s17 10.333 24 16
s11.5 10.5 13.5 14.5l30 123h72l-71 -288h-69l20 83c-12 -10 -21.833 -17.5 -29.5 -22.5s-14.667 -8.5 -21 -10.5s-12.666 -3 -18.999 -3h-22.5l-89 -57l295 -49l-70 -50c-22 0 -148.333 20.667 -379 62l174 115c-9.33301 4.66699 -17.166 10.334 -23.499 17.001
s-11 14.667 -14 24s-4.33301 20.666 -4 33.999s2.83301 29.333 7.5 48l-24 10c-40 23.333 -54.333 63.333 -43 120c8 32.667 22 63 42 91s44 52.333 72 73s59 36.834 93 48.501s69 17.834 105 18.501c41.333 0 77.666 -6.83301 108.999 -20.5s56.833 -32.5 76.5 -56.5
s32.667 -52.333 39 -85s5.16602 -68 -3.50098 -106z" />
    <glyph glyph-name="uni0B3C" unicode="&#xb3c;" horiz-adv-x="221" 
d="M150 -132c-5.33301 -19.333 -15.8301 -35.333 -31.4971 -48s-33.167 -19 -52.5 -19s-34 6.33301 -44 19s-12.333 28.667 -7 48c4.66699 19.333 15.167 35.5 31.5 48.5s34.166 19.5 53.499 19.5s33.666 -6.5 42.999 -19.5s11.666 -29.167 6.99902 -48.5z" />
    <glyph glyph-name="uni0B3D" unicode="&#xb3d;" horiz-adv-x="462" 
d="M84 186l205 144l-132 136l271 176h117l-273 -176l140 -134l-204 -144l188 -188h-128z" />
    <glyph glyph-name="uni0B3E" unicode="&#xb3e;" horiz-adv-x="178" 
d="M213 642h72l-160 -642h-72z" />
    <glyph glyph-name="uni0B3F" unicode="&#xb3f;" horiz-adv-x="15" 
d="M13 668c-48 44 -106.666 66 -175.999 66c-78.667 0 -153 -24 -223 -72l-33 51c42 29.333 84.667 51.833 128 67.5s87.666 23.5 132.999 23.5c46.667 0 88.5 -7 125.5 -21s70.833 -36 101.5 -66l-56 -49v0z" />
    <glyph glyph-name="uni0B40" unicode="&#xb40;" horiz-adv-x="218" 
d="M223 528l-75 -41l-18 57l197 108l-162 -652h-73z" />
    <glyph glyph-name="uni0B41" unicode="&#xb41;" horiz-adv-x="15" 
d="M-156 -154c-2 3.33301 -5.66797 7.16699 -11.001 11.5s-11.5 8.33301 -18.5 12s-14.667 6.66699 -23 9s-16.166 3.5 -23.499 3.5c-14 0 -27.667 -5.33301 -41 -16s-21.666 -23 -24.999 -37c-4 -16 -2 -28.833 6 -38.5s22.333 -14.5 43 -14.5c10 0 20 1.83301 30 5.5
s19.167 8.5 27.5 14.5s15.666 13.333 21.999 22s10.833 18 13.5 28zM149.999 -150.999c-19.333 -26.667 -40.5 -47.166 -63.5 -61.499s-47.5 -23.166 -73.5 -26.499c-6 0 -15.167 2 -27.5 6s-24.833 8.83301 -37.5 14.5s-24.167 11.5 -34.5 17.5s-16.5 11 -18.5 15
c-6 -10.667 -15 -21.834 -27 -33.501s-25.667 -22.334 -41 -32.001s-31.5 -17.667 -48.5 -24s-33.167 -9.5 -48.5 -9.5c-16 0 -30.833 2.66699 -44.5 8s-25.167 13 -34.5 23s-15.833 22 -19.5 36s-3.5 29.333 0.5 46c4 15.333 11.167 30 21.5 44s22.666 26.5 36.999 37.5
s29.833 19.833 46.5 26.5s33.334 10 50.001 10c12.667 0 26.5 -3.33301 41.5 -10s24.833 -13.667 29.5 -21l22 87h68l-30 -120c0 -1.33301 4 -5 12 -11s17.5 -12.667 28.5 -20s22.167 -13.833 33.5 -19.5s20 -8.5 26 -8.5c34 0 66.333 20.333 97 61z" />
    <glyph glyph-name="uni0B42" unicode="&#xb42;" horiz-adv-x="15" 
d="M237 -134c-41.333 -49.333 -89.335 -73.999 -144.002 -73.999c-29.333 0 -55 8.33301 -77 25c-9.33301 -11.333 -21.166 -22.166 -35.499 -32.499s-29.833 -19.5 -46.5 -27.5s-33.5 -14.333 -50.5 -19s-32.833 -7 -47.5 -7c-18 0 -34.667 3 -50 9
s-28.166 14.167 -38.499 24.5s-17.5 22.666 -21.5 36.999s-4 30.166 0 47.499c4 16 10.833 31.167 20.5 45.5s21.334 26.833 35.001 37.5s28.334 19 44.001 25s31.5 9 47.5 9l10 40h66l-25 -99c-5.33301 2 -10.333 3.66699 -15 5s-10 2 -16 2
c-28.667 0 -51.334 -6 -68.001 -18s-27 -26.667 -31 -44c-4.66699 -17.333 -1.83398 -32 8.49902 -44s24.833 -18 43.5 -18c18 0 37.167 5 57.5 15s39.166 21.833 56.499 35.5s32.333 27.667 45 42s20 25.5 22 33.5c6 -40 30.667 -60 74 -60c38.667 0 71.334 16 98.001 48
l38 -38v0z" />
    <glyph glyph-name="uni0B43" unicode="&#xb43;" horiz-adv-x="15" 
d="M44 -169c-4 -16 -11.166 -30.499 -21.499 -43.499s-23.333 -24.167 -39 -33.5s-33.334 -16.666 -53.001 -21.999s-40.834 -8 -63.501 -8c-21.333 0 -40.666 3.5 -57.999 10.5s-31.5 16.5 -42.5 28.5s-18.667 26.167 -23 42.5s-4.16602 34.166 0.500977 53.499
c3.33301 14 11.833 30.5 25.5 49.5s28.834 37.333 45.501 55s32.5 32.834 47.5 45.501s25.833 19.667 32.5 21l48 -28c-4 -0.666992 -12.667 -6.5 -26 -17.5s-27.333 -24 -42 -39s-28.334 -30.333 -41.001 -46s-20 -27.834 -22 -36.501c-6 -24 -3 -43 9 -57
s31.667 -22 59 -24c24.667 0 47.167 4.16699 67.5 12.5s32.166 19.166 35.499 32.499c7.33301 28.667 -2.33398 43 -29.001 43c-33.333 0 -54.666 -3.66699 -63.999 -11l43 61c8.66699 2.66699 21.667 4 39 4c31.333 0 52.833 -8 64.5 -24s14.167 -39 7.5 -69z" />
    <glyph glyph-name="uni0B56.126" unicode="&#xb44;" horiz-adv-x="0" 
d="M-141 -215c-22 -19.333 -36.165 -34.665 -42.498 -45.998s-10.5 -21.333 -12.5 -30c-6 -24 -3.66699 -43 7 -57s29.667 -22 57 -24c24.667 0 44.667 4.16699 60 12.5s24.333 18.166 27 29.499c2.66699 12 1.66699 21.167 -3 27.5s-11 10.5 -19 12.5
s-16.833 2.33301 -26.5 1s-17.834 -3.33301 -24.501 -6l42 61c36 6 63.167 0.666992 81.5 -16s23.5 -41 15.5 -73s-26.5 -57.833 -55.5 -77.5s-66.167 -29.5 -111.5 -29.5c-21.333 0 -40.333 3.5 -57 10.5s-30.334 16.5 -41.001 28.5s-17.834 26.167 -21.501 42.5
s-3.16699 34.166 1.5 53.499c2 8 5.5 17.333 10.5 28s11.5 21.667 19.5 33c-13.333 12 -21.666 25.167 -24.999 39.5s-2.33301 32.166 3 53.499c3.33301 14 10 29 20 45s22 31.667 36 47s29.333 30 46 44s33 25.667 49 35l48 -28
c-15.333 -9.33301 -30.333 -20.166 -45 -32.499s-28 -24.833 -40 -37.5s-22.167 -25.167 -30.5 -37.5s-13.5 -22.833 -15.5 -31.5c-5.33301 -20.667 -3.83301 -37.167 4.5 -49.5s22.5 -21.833 42.5 -28.5z" />
    <glyph glyph-name="uni0B47" unicode="&#xb47;" horiz-adv-x="514" 
d="M452 170c9.33301 48.667 -3.83301 85.0029 -39.5 109.003s-89.5 36 -161.5 36l-56 -4c-8 -30.667 -10.667 -60.834 -8 -90.501s9.66699 -56.334 21 -80.001s26.833 -42.667 46.5 -57s42.5 -21.5 68.5 -21.5c33.333 0 60.833 8.66699 82.5 26s37.167 44.666 46.5 81.999z
M521.001 159.003c-6.66699 -26.667 -17.167 -50.5 -31.5 -71.5s-31.166 -38.833 -50.499 -53.5s-40.833 -25.834 -64.5 -33.501s-48.5 -11.5 -74.5 -11.5c-38 0 -70.833 8.83301 -98.5 26.5s-49.334 42 -65.001 73s-24.834 67.333 -27.501 109s2 86.5 14 134.5
c12 46.667 28.5 89.167 49.5 127.5s45.833 71 74.5 98s60.5 48 95.5 63s72.167 22.5 111.5 22.5c93.333 0 146.333 -36 159 -108l-68 -38l-15 38c-18 24 -49.333 36 -94 36c-25.333 0 -50 -5.16699 -74 -15.5s-46 -24 -66 -41s-37.333 -36.833 -52 -59.5s-25 -46 -31 -70
c17.333 2.66699 32 4.16699 44 4.5s23.333 0.5 34 0.5c42.667 0 80.334 -5.5 113.001 -16.5s59.167 -26.5 79.5 -46.5s33.833 -44.167 40.5 -72.5s5.66699 -60.166 -3 -95.499z" />
    <glyph glyph-name="uni0B48" unicode="&#xb48;" horiz-adv-x="935" 
d="M452 170c9.33301 48.667 -3.83301 85.0029 -39.5 109.003s-89.5 36 -161.5 36l-56 -4c-8 -30.667 -10.667 -60.834 -8 -90.501s9.66699 -56.334 21 -80.001s26.833 -42.667 46.5 -57s42.5 -21.5 68.5 -21.5c33.333 0 60.833 8.66699 82.5 26s37.167 44.666 46.5 81.999z
M521.001 159.003c-6.66699 -26.667 -17.167 -50.5 -31.5 -71.5s-31.166 -38.833 -50.499 -53.5s-40.833 -25.834 -64.5 -33.501s-48.5 -11.5 -74.5 -11.5c-38 0 -70.833 8.83301 -98.5 26.5s-49.334 42 -65.001 73s-24.834 67.333 -27.501 109s2 86.5 14 134.5
c12 46.667 28.5 89.167 49.5 127.5s45.833 71 74.5 98s60.5 48 95.5 63s72.167 22.5 111.5 22.5c93.333 0 146.333 -36 159 -108l-68 -38l-15 38c-18 24 -49.333 36 -94 36c-25.333 0 -50 -5.16699 -74 -15.5s-46 -24 -66 -41s-37.333 -36.833 -52 -59.5s-25 -46 -31 -70
c17.333 2.66699 32 4.16699 44 4.5s23.333 0.5 34 0.5c42.667 0 80.334 -5.5 113.001 -16.5s59.167 -26.5 79.5 -46.5s33.833 -44.167 40.5 -72.5s5.66699 -60.166 -3 -95.499zM1130 771.003c-0.666992 -1.33301 -0.833984 -3.16699 -0.500977 -5.5
s0.166016 -4.5 -0.500977 -6.5c-2 -8 -6.16699 -16.833 -12.5 -26.5s-13 -19 -20 -28l-20 -26.5c-6.33301 -8.66699 -10.166 -16 -11.499 -22c-1.33301 -5.33301 -1.33301 -10 0 -14h-72c-0.666992 3.33301 -0.333984 7.33301 0.999023 12c2 8 6 15.667 12 23l18.5 22
l18.5 22c6 7.33301 10 14.666 12 21.999c8 32.667 -7.33301 49 -46 49c-13.333 0 -27.166 -1.33301 -41.499 -4s-29 -5.66699 -44 -9s-30.5 -6.33301 -46.5 -9s-32.333 -4 -49 -4c-12.667 0 -28 1.83301 -46 5.5s-35.667 8 -53 13s-32.333 10 -45 15s-20 8.83301 -22 11.5
l38 61c48.667 -27.333 95.334 -41 140.001 -41c9.33301 0 23 1.33301 41 4l56.5 8.5l54.5 8.5c16.667 2.66699 28 4.33398 34 5.00098c38 0 65.667 -6.5 83 -19.5s24.333 -35.167 21 -66.5z" />
    <glyph glyph-name="uni0B4B" unicode="&#xb4b;" horiz-adv-x="1021" 
d="M452 170c9.33301 48.667 -3.83301 85.0029 -39.5 109.003s-89.5 36 -161.5 36l-56 -4c-8 -30.667 -10.667 -60.834 -8 -90.501s9.66699 -56.334 21 -80.001s26.833 -42.667 46.5 -57s42.5 -21.5 68.5 -21.5c33.333 0 60.833 8.66699 82.5 26s37.167 44.666 46.5 81.999z
M521.001 159.003c-6.66699 -26.667 -17.167 -50.5 -31.5 -71.5s-31.166 -38.833 -50.499 -53.5s-40.833 -25.834 -64.5 -33.501s-48.5 -11.5 -74.5 -11.5c-38 0 -70.833 8.83301 -98.5 26.5s-49.334 42 -65.001 73s-24.834 67.333 -27.501 109s2 86.5 14 134.5
c12 46.667 28.5 89.167 49.5 127.5s45.833 71 74.5 98s60.5 48 95.5 63s72.167 22.5 111.5 22.5c93.333 0 146.333 -36 159 -108l-68 -38l-15 38c-18 24 -49.333 36 -94 36c-25.333 0 -50 -5.16699 -74 -15.5s-46 -24 -66 -41s-37.333 -36.833 -52 -59.5s-25 -46 -31 -70
c17.333 2.66699 32 4.16699 44 4.5s23.333 0.5 34 0.5c42.667 0 80.334 -5.5 113.001 -16.5s59.167 -26.5 79.5 -46.5s33.833 -44.167 40.5 -72.5s5.66699 -60.166 -3 -95.499zM1074 642.003h72l-160 -642h-72z" />
    <glyph glyph-name="uni0B4C" unicode="&#xb4c;" horiz-adv-x="1021" 
d="M452 170c9.33301 48.667 -3.83301 85.0029 -39.5 109.003s-89.5 36 -161.5 36l-56 -4c-8 -30.667 -10.667 -60.834 -8 -90.501s9.66699 -56.334 21 -80.001s26.833 -42.667 46.5 -57s42.5 -21.5 68.5 -21.5c33.333 0 60.833 8.66699 82.5 26s37.167 44.666 46.5 81.999z
M521.001 159.003c-6.66699 -26.667 -17.167 -50.5 -31.5 -71.5s-31.166 -38.833 -50.499 -53.5s-40.833 -25.834 -64.5 -33.501s-48.5 -11.5 -74.5 -11.5c-38 0 -70.833 8.83301 -98.5 26.5s-49.334 42 -65.001 73s-24.834 67.333 -27.501 109s2 86.5 14 134.5
c12 46.667 28.5 89.167 49.5 127.5s45.833 71 74.5 98s60.5 48 95.5 63s72.167 22.5 111.5 22.5c93.333 0 146.333 -36 159 -108l-68 -38l-15 38c-18 24 -49.333 36 -94 36c-25.333 0 -50 -5.16699 -74 -15.5s-46 -24 -66 -41s-37.333 -36.833 -52 -59.5s-25 -46 -31 -70
c17.333 2.66699 32 4.16699 44 4.5s23.333 0.5 34 0.5c42.667 0 80.334 -5.5 113.001 -16.5s59.167 -26.5 79.5 -46.5s33.833 -44.167 40.5 -72.5s5.66699 -60.166 -3 -95.499zM1209 771.003c-1.33301 -2.66699 -1.83008 -4.83301 -1.49707 -6.5
s0.166016 -3.5 -0.500977 -5.5c-2.66699 -10.667 -6.83398 -20.667 -12.501 -30s-11.667 -18.5 -18 -27.5s-12.333 -18.333 -18 -28s-9.83398 -19.834 -12.501 -30.501l-160 -643h-72l160 643c2.66699 10.667 7 20.334 13 29.001s12.167 17 18.5 25l18.5 24.5
c6 8.33301 10 17.166 12 26.499c3.33301 14 0.666016 24.833 -8.00098 32.5s-21.667 11.5 -39 11.5c-13.333 0 -27.166 -1.33301 -41.499 -4s-29.166 -5.66699 -44.499 -9s-31 -6.33301 -47 -9s-32.333 -4 -49 -4c-12 0 -27.167 1.83301 -45.5 5.5s-36 8 -53 13
s-31.833 10 -44.5 15s-20 8.83301 -22 11.5l37 61c47.333 -27.333 94.333 -41 141 -41c9.33301 0 23 1.33301 41 4l56.5 8.5l54.5 8.5c16.667 2.66699 28 4.33398 34 5.00098c37.333 0 64.666 -6.5 81.999 -19.5s24.333 -35.167 21 -66.5z" />
    <glyph glyph-name="uni0B4D" unicode="&#xb4d;" horiz-adv-x="15" 
d="M-196 -11h130l88 -218h-67z" />
    <glyph glyph-name="uni0B4E" unicode="&#xb4e;" horiz-adv-x="0" 
d="M121 514l4 19h17l-4 -19h-17z" />
    <glyph glyph-name="uni0B56" unicode="&#xb56;" horiz-adv-x="12" 
d="M186 771c-1.33301 -2.66699 -1.83496 -4.83301 -1.50195 -6.5s0.166016 -3.5 -0.500977 -5.5c-2.66699 -10.667 -6.83398 -20.667 -12.501 -30s-11.667 -18.5 -18 -27.5s-12.333 -18.333 -18 -28s-9.83398 -19.834 -12.501 -30.501h-72
c2.66699 10.667 6.83398 20.334 12.501 29.001s11.834 17 18.501 25s12.834 16.167 18.501 24.5s9.5 17.166 11.5 26.499c3.33301 14 0.833008 24.833 -7.5 32.5s-21.5 11.5 -39.5 11.5c-13.333 0 -27.166 -1.33301 -41.499 -4s-29 -5.66699 -44 -9s-30.333 -6.33301 -46 -9
s-31.834 -4 -48.501 -4c-12 0 -27 1.83301 -45 5.5s-35.5 8 -52.5 13s-32 10 -45 15s-20.5 8.83301 -22.5 11.5l37 61c47.333 -27.333 94.333 -41 141 -41c9.33301 0 23 1.33301 41 4l56 8.5l54 8.5c16.667 2.66699 28 4.33398 34 5.00098
c36.667 0 63.834 -6.5 81.501 -19.5s24.834 -35.167 21.501 -66.5z" />
    <glyph glyph-name="uni0B57" unicode="&#xb57;" horiz-adv-x="165" 
d="M348 771c-1.33301 -2.66699 -1.8291 -4.83301 -1.49609 -6.5s0.166016 -3.5 -0.500977 -5.5c-2.66699 -10.667 -6.83398 -20.667 -12.501 -30s-11.667 -18.5 -18 -27.5s-12.333 -18.333 -18 -28s-9.83398 -19.834 -12.501 -30.501l-160 -643h-72l160 643
c2.66699 10.667 7 20.334 13 29.001s12.167 17 18.5 25l18.5 24.5c6 8.33301 10 17.166 12 26.499c3.33301 14 0.666016 24.833 -8.00098 32.5s-21.667 11.5 -39 11.5c-13.333 0 -27.166 -1.33301 -41.499 -4s-29.166 -5.66699 -44.499 -9s-31 -6.33301 -47 -9
s-32.333 -4 -49 -4c-12 0 -26.833 1.83301 -44.5 5.5s-35 8 -52 13s-32 10 -45 15s-20.5 8.83301 -22.5 11.5l37 61c47.333 -27.333 94 -41 140 -41c9.33301 0 23.166 1.33301 41.499 4l56.5 8.5l54 8.5c16.667 2.66699 28 4.33398 34 5.00098
c37.333 0 64.666 -6.5 81.999 -19.5s24.333 -35.167 21 -66.5z" />
    <glyph glyph-name="uni0B5C" unicode="&#xb5c;" horiz-adv-x="662" 
d="M372 -132c-5.33301 -19.333 -15.999 -35.333 -31.999 -48s-33.667 -19 -53 -19s-34 6.33301 -44 19s-12.333 28.667 -7 48c4.66699 19.333 15.167 35.5 31.5 48.5s34.166 19.5 53.499 19.5s33.833 -6.5 43.5 -19.5s12.167 -29.167 7.5 -48.5zM715.001 343
c-9.33301 -38 -24.3252 -75 -44.9922 -111l-62 28c9.33301 12.667 17.166 26 23.499 40s11.166 28 14.499 42c8 31.333 9.16699 61.166 3.5 89.499s-16.834 53.333 -33.501 75s-38.334 38.834 -65.001 51.501s-57 19 -91 19c-26 0 -52.833 -5 -80.5 -15
s-53.334 -24 -77.001 -42s-44.5 -39 -62.5 -63s-30.333 -50 -37 -78c-5.33301 -20 -2.83301 -36.167 7.5 -48.5s24.166 -18.5 41.499 -18.5h4.5c1.66699 0 3.16699 0.666992 4.5 2c21.333 17.333 40 31.5 56 42.5s28.667 19.167 38 24.5l37 -53
c-78.667 -45.333 -124.667 -94.666 -138 -147.999c-4 -16 -4.33301 -31 -1 -45s9.33301 -26.167 18 -36.5s19.834 -18.5 33.501 -24.5s29.167 -9 46.5 -9c15.333 0 31 2.5 47 7.5s31 12.167 45 21.5s26.167 20.333 36.5 33s17.5 26.667 21.5 42c6 24 3 46 -9 66l-87 -68
l-35 51l194 156l36 -51l-48 -38c12 -17.333 20.5 -35 25.5 -53s4.83301 -36.667 -0.5 -56c-6.66699 -26 -18 -50.333 -34 -73s-35 -42.334 -57 -59.001s-45.833 -29.667 -71.5 -39s-50.834 -14 -75.501 -14c-30 0 -56.167 5.16699 -78.5 15.5s-40.5 24.166 -54.5 41.499
s-23.167 37.333 -27.5 60s-3.5 46.667 2.5 72c2.66699 10 6.5 21.167 11.5 33.5s11.167 25.166 18.5 38.499c-32.667 8.66699 -56.334 23.167 -71.001 43.5s-17.334 48.833 -8.00098 85.5c10 38.667 26.167 74.334 48.5 107.001s49 61 80 85s65 42.667 102 56
s74.833 20 113.5 20c44.667 0 84 -7.5 118 -22.5s61.667 -36 83 -63s35.5 -59.167 42.5 -96.5s5.5 -78.666 -4.5 -123.999z" />
    <glyph glyph-name="uni0B5D" unicode="&#xb5d;" horiz-adv-x="678" 
d="M732 349c-6 -22 -15.0029 -45.9951 -27.0029 -71.9951l-70 19c4.66699 9.33301 8.66699 18.666 12 27.999s6 18.666 8 27.999c8.66699 34 9.83398 64.833 3.50098 92.5s-18.5 51.334 -36.5 71.001s-40.667 34.834 -68 45.501s-57.666 16 -90.999 16
c-26.667 0 -54 -5 -82 -15s-54 -23.833 -78 -41.5s-45 -38.667 -63 -63s-30.333 -50.5 -37 -78.5c-5.33301 -20.667 -3 -35.834 7 -45.501s25.667 -17.834 47 -24.501c6 9.33301 16.833 19.833 32.5 31.5s34.167 23.5 55.5 35.5l36 -50
c-79.333 -47.333 -125.333 -96 -138 -146c-4 -16 -5 -31.333 -3 -46s6.66699 -27.834 14 -39.501s16.833 -20.834 28.5 -27.501s25.167 -10 40.5 -10c11.333 0 20.333 1.66699 27 5c-4.66699 45.333 -4 79.666 2 102.999c4.66699 20.667 12.334 39.834 23.001 57.501
s23.167 33.167 37.5 46.5s30.333 23.833 48 31.5s36.167 11.5 55.5 11.5c35.333 0 61.833 -11.167 79.5 -33.5s22.167 -50.833 13.5 -85.5c-5.33301 -19.333 -14.666 -39.166 -27.999 -59.499s-27.833 -38.833 -43.5 -55.5s-31 -30.334 -46 -41.001s-26.167 -16 -33.5 -16
c5.33301 -7.33301 13.166 -13.833 23.499 -19.5s20.166 -10.167 29.499 -13.5l-68 -58c-17.333 8.66699 -31 19.5 -41 32.5s-17 23.167 -21 30.5c-6 -2 -17.667 -3 -35 -3c-32 0 -60.5 4.5 -85.5 13.5s-45.167 21.833 -60.5 38.5s-25.666 37.167 -30.999 61.5
s-4 52.166 4 83.499c2.66699 10.667 6.66699 21.667 12 33s11.666 23.333 18.999 36l-25 7c-43.333 19.333 -58 58.666 -44 117.999c10 38.667 26.333 74.334 49 107.001s49.334 61 80.001 85s64.334 42.667 101.001 56s74 20 112 20
c43.333 0 83.166 -7.16699 119.499 -21.5s66.333 -34.5 90 -60.5s40 -57.5 49 -94.5s7.83301 -78.167 -3.5 -123.5zM371.997 -131.995c-5.33301 -19.333 -15.999 -35.333 -31.999 -48s-33.667 -19 -53 -19s-34 6.33301 -44 19s-12.333 28.667 -7 48
c4.66699 19.333 15.167 35.5 31.5 48.5s34.166 19.5 53.499 19.5s33.833 -6.5 43.5 -19.5s12.167 -29.167 7.5 -48.5zM532.998 193.005c8 32 -3.33105 47.999 -33.998 47.999c-16.667 0 -31.334 -6.66699 -44.001 -20s-22.334 -33.333 -29.001 -60
c-2 -6.66699 -3.33301 -14.667 -4 -24s-1.16699 -18.166 -1.5 -26.499s-0.166016 -15.833 0.500977 -22.5s1.66699 -10.667 3 -12c6.66699 0 15.5 3.5 26.5 10.5s22 16.167 33 27.5s21.167 24 30.5 38s15.666 27.667 18.999 41z" />
    <glyph glyph-name="uni0B5F" unicode="&#xb5f;" horiz-adv-x="736" 
d="M690 385c4.66699 18.667 3.83105 39.165 -2.50195 61.498s-17 43 -32 62s-34 35 -57 48s-48.833 19.5 -77.5 19.5c-28 0 -55.5 -4.5 -82.5 -13.5s-52 -21.5 -75 -37.5s-42.667 -35 -59 -57s-27.833 -46 -34.5 -72c-5.33301 -22 -2.16602 -39 9.50098 -51
s33.834 -19.333 66.501 -22c26 13.333 48.833 24.333 68.5 33s36.167 15 49.5 19l16 -65c-94 -20 -149 -60.667 -165 -122c-12 -50.667 11.667 -76 71 -76c18.667 0 39.667 3 63 9s47 14.333 71 25s47.5 23.334 70.5 38.001s43.5 30.334 61.5 47.001zM451.997 -68.002
l36.999 61.001l60 -20c1.33301 -0.666992 4.33301 -1 9 -1c6 0 12.667 1.83301 20 5.5s14.333 8.5 21 14.5s12.5 12.667 17.5 20s8.5 14.666 10.5 21.999c10 41.333 -0.333008 62 -31 62c-3.33301 0 -7 -0.333008 -11 -1s-8.66699 -1.66699 -14 -3
c-55.333 -30 -116 -45 -182 -45c-27.333 0 -51.5 3.16699 -72.5 9.5s-38.167 15.5 -51.5 27.5s-22.166 26.667 -26.499 44s-3.83301 36.666 1.5 57.999l3 14l-70 -33c3.33301 -4 6 -10.333 8 -19s1.33301 -19 -2 -31c-3.33301 -14 -11.5 -26.167 -24.5 -36.5
s-28.5 -15.5 -46.5 -15.5c-34 0 -45 24 -33 72c8 35.333 29.667 61.333 65 78l127 58c-30 14 -51.333 31.167 -64 51.5s-15.667 43.5 -9 69.5c8.66699 36.667 24.167 70.667 46.5 102s49 58.333 80 81s65 40.334 102 53.001s74.833 19 113.5 19c24 0 45.333 -2.33301 64 -7
s35.667 -11.5 51 -20.5s29.333 -20 42 -33s25 -27.833 37 -44.5l25 98h73l-136 -544c4.66699 -14 7.5 -26.333 8.5 -37s0.833008 -19.667 -0.5 -27c-4.66699 -19.333 -13.167 -36.333 -25.5 -51s-30.5 -28 -54.5 -40l86 -35l-42 -59z" />
    <glyph glyph-name="uni0B60" unicode="&#xb60;" horiz-adv-x="695" 
d="M503 1l41.002 25c27.333 20 44 43 50 69c2 7.33301 2.66699 15.833 2 25.5s-2.33398 19 -5.00098 28s-5.66699 17.167 -9 24.5s-6.66602 12.666 -9.99902 15.999l40 21c26.667 18 42.667 38.333 48 61c3.33301 13.333 1.66602 28.333 -5.00098 45s-15.667 28.667 -27 36
l24 26c7.33301 8.66699 13.833 17.667 19.5 27s9.5 18 11.5 26c24 96.667 -45.333 145 -208 145c-30.667 0 -59.834 -4.16699 -87.501 -12.5s-52.667 -20 -75 -35s-41.333 -33.167 -57 -54.5s-26.834 -45 -33.501 -71c-2.66699 -10 -3.83398 -20.833 -3.50098 -32.5
s1.66602 -23.167 3.99902 -34.5s5.5 -21.833 9.5 -31.5s8.66699 -17.167 14 -22.5c32.667 22 67.667 33 105 33c22 0 42 -4.33301 60 -13s32.667 -20.167 44 -34.5s19 -31.333 23 -51s3.33301 -40.5 -2 -62.5s-14.5 -42.667 -27.5 -62s-28.5 -36 -46.5 -50
s-37.667 -25.167 -59 -33.5s-43 -12.5 -65 -12.5s-41.5 4.16699 -58.5 12.5s-31 19.5 -42 33.5s-18.167 30.667 -21.5 50s-2.33301 40 3 62c2 7.33301 5.33301 16.5 10 27.5s11.334 23.833 20.001 38.5c-20.667 28.667 -34.5 57.667 -41.5 87s-6.83301 59.333 0.5 90
c10 39.333 26 74.666 48 105.999s48.333 57.833 79 79.5s65.167 38.167 103.5 49.5s78.5 17 120.5 17c46 0 86.833 -4.83301 122.5 -14.5s64.834 -23.334 87.501 -41.001s38.5 -39.167 47.5 -64.5s9.5 -53.333 1.5 -84c-5.33301 -21.333 -12.166 -39.5 -20.499 -54.5
s-18.166 -27.167 -29.499 -36.5l22 -15c10.667 -14 12.667 -34 6 -60c-6 -24 -15.333 -41.667 -28 -53l-51 -35c8.66699 -12 14.167 -25.667 16.5 -41s0.833008 -33 -4.5 -53c-3.33301 -11.333 -6.83301 -21.166 -10.5 -29.499s-8.33398 -16.166 -14.001 -23.499
s-12.5 -14.666 -20.5 -21.999s-18 -15.333 -30 -24l54 -138h-80zM398.002 154c6 24 3.16699 44.502 -8.5 61.502s-28.5 25.5 -50.5 25.5c-11.333 0 -22.333 -2.33301 -33 -7s-20.667 -10.834 -30 -18.501s-17.5 -16.834 -24.5 -27.501s-11.833 -22 -14.5 -34
c-6 -24 -3.5 -44.833 7.5 -62.5s27.833 -26.5 50.5 -26.5c11.333 0 22.5 2.5 33.5 7.5s21.167 11.667 30.5 20s17.333 17.833 24 28.5s11.667 21.667 15 33z" />
    <glyph glyph-name="uni0B61" unicode="&#xb61;" horiz-adv-x="515" 
d="M520 141c-3.33301 -12.667 -8.33008 -25.5039 -14.9971 -38.5039s-14.834 -25.333 -24.501 -37s-20.834 -22 -33.501 -31s-27 -15.833 -43 -20.5h2l106 -249h-68l-141 225c-3.33301 -0.666992 -6.33301 -1 -9 -1h-9c-33.333 0 -63.666 5 -90.999 15s-50 24 -68 42
s-30.667 39.333 -38 64s-7.33301 51.667 0 81c6 23.333 13 43.333 21 60s19.667 32.334 35 47.001s35.833 29.667 61.5 45s59.5 33 101.5 53l107 49c34 19.333 54.667 44.333 62 75c4.66699 18 2 32.833 -8 44.5s-24.667 17.5 -44 17.5c-21.333 0 -41 -5.83301 -59 -17.5
s-29.333 -26.5 -34 -44.5c-3.33301 -15.333 -1.33301 -28.666 6 -39.999l-77 -36c-13.333 23.333 -16.333 49.666 -9 78.999c4.66699 19.333 13.167 37 25.5 53s27 29.833 44 41.5s35.5 20.667 55.5 27s40 9.5 60 9.5c45.333 0 79 -12.167 101 -36.5s28 -57.166 18 -98.499
c-12 -47.333 -41.667 -86.666 -89 -117.999c-8 -5.33301 -23.833 -14.166 -47.5 -26.499s-54.5 -27.166 -92.5 -44.499c-28.667 -13.333 -52.334 -25.333 -71.001 -36s-34 -21 -46 -31s-21.167 -20.167 -27.5 -30.5s-11.166 -22.166 -14.499 -35.499
c-4.66699 -17.333 -4.83398 -34 -0.500977 -50s11.666 -30 21.999 -42s22.833 -21.5 37.5 -28.5s30.334 -10.5 47.001 -10.5c4 0 7.33301 0.666992 10 2c-14 18 -18 38.667 -12 62c4 17.333 11 33.666 21 48.999s21.667 28.666 35 39.999s28.166 20.333 44.499 27
s33.166 10 50.499 10c16.667 0 31.834 -3 45.501 -9s25 -14.167 34 -24.5s15.167 -22.5 18.5 -36.5s3.33301 -29 0 -45zM439.003 132.996c3.33301 12 1.66699 22.5 -5 31.5s-16 13.5 -28 13.5s-23.5 -4.5 -34.5 -13.5s-18.167 -19.5 -21.5 -31.5s-1.5 -22.333 5.5 -31
s16.5 -13 28.5 -13s23.333 4.33301 34 13s17.667 19 21 31z" />
    <glyph glyph-name="uni0B66" unicode="&#xb66;" horiz-adv-x="740" 
d="M722 327c8 34.667 8.49902 67.502 1.49902 98.502s-19.667 58 -38 81s-41.833 41.167 -70.5 54.5s-60.667 20 -96 20c-36 0 -71.667 -6.5 -107 -19.5s-67.833 -31 -97.5 -54s-55.5 -49.833 -77.5 -80.5s-38 -64 -48 -100c-9.33301 -36.667 -11 -70.834 -5 -102.501
s17.833 -59.5 35.5 -83.5s40.667 -42.833 69 -56.5s60.5 -20.834 96.5 -21.501c38 0 75.167 7 111.5 21s69.833 33 100.5 57s56.834 52 78.501 84s37.167 66 46.5 102zM791.999 327.002c-11.333 -45.333 -30.8301 -88.168 -58.4971 -128.501s-60.5 -75.666 -98.5 -105.999
s-79.667 -54.333 -125 -72s-91 -26.5 -137 -26.5s-87 8.5 -123 25.5s-65.5 40.333 -88.5 70s-38.333 64.5 -46 104.5s-5.83398 82.667 5.49902 128s30.666 87.833 57.999 127.5s59.666 74.167 96.999 103.5s78 52.5 122 69.5s88.333 25.833 133 26.5
c45.333 0 86.5 -8.33301 123.5 -25s67.333 -39.5 91 -68.5s40 -63.167 49 -102.5s8.16699 -81.333 -2.5 -126z" />
    <glyph glyph-name="uni0B67" unicode="&#xb67;" horiz-adv-x="740" 
d="M617 482c4 17.333 4.66406 33.5 1.99707 48.5s-8.16699 28 -16.5 39s-19.166 19.667 -32.499 26s-28.666 9.5 -45.999 9.5s-34.166 -3.16699 -50.499 -9.5s-31.333 -15 -45 -26s-25.5 -24 -35.5 -39s-17 -31.167 -21 -48.5c-4 -16.667 -4.83301 -32.5 -2.5 -47.5
s7.66602 -28 15.999 -39s19 -19.667 32 -26s28.167 -9.5 45.5 -9.5s34.333 3.16699 51 9.5s31.834 15 45.501 26s25.667 24 36 39s17.5 30.833 21.5 47.5zM702.997 491c-7.33301 -28 -19.3398 -54.168 -36.0068 -78.501s-36.334 -45.666 -59.001 -63.999
s-47.667 -32.666 -75 -42.999s-55 -15.5 -83 -15.5c-15.333 0 -30.166 1.66699 -44.499 5s-27.166 8.66602 -38.499 15.999c2.66699 -10.667 4.16699 -21.5 4.5 -32.5s1.83301 -21.833 4.5 -32.5c4.66699 -23.333 14.334 -46.333 29.001 -69s30.834 -43.5 48.501 -62.5
s34.834 -35.5 51.501 -49.5s29.334 -23.667 38.001 -29l-56 -59c-10.667 5.33301 -32 22 -64 50c-30 26.667 -56 56.667 -78 90s-39.167 68.5 -51.5 105.5s-19.5 75.333 -21.5 115s2 79.167 12 118.5c8.66699 34 21.334 64.833 38.001 92.5s36.167 51 58.5 70
s47.333 33.667 75 44s56.834 15.5 87.501 15.5c26.667 0 51.167 -4.66699 73.5 -14s40.833 -22.333 55.5 -39s25 -36.5 31 -59.5s6 -47.833 0 -74.5z" />
    <glyph glyph-name="uni0B68" unicode="&#xb68;" horiz-adv-x="740" 
d="M624 482c4 17.333 4.66602 33.5 1.99902 48.5s-8.16699 28 -16.5 39s-19.166 19.667 -32.499 26s-28.666 9.5 -45.999 9.5s-34.166 -3.16699 -50.499 -9.5s-31.5 -15 -45.5 -26s-26 -24 -36 -39s-17 -31.167 -21 -48.5c-4 -16.667 -4.83301 -32.5 -2.5 -47.5
s7.66602 -28 15.999 -39s19.166 -19.667 32.499 -26s28.666 -9.5 45.999 -9.5c16.667 0 33.334 3.16699 50.001 9.5s32 15 46 26s26.167 24 36.5 39s17.5 30.833 21.5 47.5zM698.999 462c-6.66699 -27.333 -17.002 -55.8291 -31.002 -85.4961s-30.833 -59.5 -50.5 -89.5
s-41.834 -59.5 -66.501 -88.5s-50.667 -55.833 -78 -80.5c-10 -9.33301 -25.833 -21.5 -47.5 -36.5l-67.5 -45c-23.333 -15 -44.666 -28.167 -63.999 -39.5s-32 -18 -38 -20l-28 59c1.33301 1.33301 15.333 8.66602 42 21.999c50.667 25.333 95.5 54.666 134.5 87.999
s71.833 66.666 98.5 99.999l20 33l20 32c-14.667 -6 -29.167 -11 -43.5 -15s-28.5 -6 -42.5 -6c-28 0 -53.5 4.83301 -76.5 14.5s-41.833 23 -56.5 40s-24.667 37.5 -30 61.5s-4.33301 50.667 3 80c6.66699 26.667 18.167 51.667 34.5 75s35.833 43.666 58.5 60.999
s47.334 31 74.001 41s53.667 15 81 15c30 0 56.5 -4.83301 79.5 -14.5s41.333 -23.667 55 -42s22.334 -41 26.001 -68s1.5 -57.5 -6.5 -91.5z" />
    <glyph glyph-name="uni0B69" unicode="&#xb69;" horiz-adv-x="740" 
d="M740 520c2.66699 11.333 2.66504 22.4971 -0.00195312 33.4971s-7.66699 20.667 -15 29s-16.666 15.166 -27.999 20.499s-23.666 8 -36.999 8c-12.667 0 -26 -2.66699 -40 -8s-27.333 -12.5 -40 -21.5s-23.667 -19 -33 -30s-15.333 -21.833 -18 -32.5l-129 -519h-72
l129 519c-1.33301 60.667 -26.666 91 -75.999 91c-16 0 -32.5 -4.83301 -49.5 -14.5s-33.167 -22.667 -48.5 -39s-28.833 -35.166 -40.5 -56.499s-20.5 -43.333 -26.5 -66c-11.333 -44 -16.333 -78 -15 -102s10.666 -36 27.999 -36c10 0 19 2.5 27 7.5
s13.667 14.167 17 27.5c3.33301 12 2.66602 21.167 -2.00098 27.5s-11.667 9.5 -21 9.5l28 64c6.66699 0 14.334 -2.66699 23.001 -8s16.334 -12.333 23.001 -21s11.667 -18.667 15 -30s3.66602 -23.333 0.999023 -36c-3.33301 -13.333 -8.83301 -26.166 -16.5 -38.499
s-16.667 -23.166 -27 -32.499s-22 -16.833 -35 -22.5s-26.833 -8.5 -41.5 -8.5c-40 0 -66.167 16.167 -78.5 48.5s-10.833 78.833 4.5 139.5c9.33301 37.333 22.333 71.333 39 102s36.167 57 58.5 79s47 39 74 51s55.167 18 84.5 18c47.333 0 84.666 -20.667 111.999 -62
l48 35c38.667 21.333 77 32 115 32c46.667 0 82.334 -13.667 107.001 -41s34 -66.666 28 -117.999l-129 -519h-72z" />
    <glyph glyph-name="uni0B6A" unicode="&#xb6a;" horiz-adv-x="740" 
d="M555 191c16 62 -14.998 117.333 -92.998 166c-10 0 -35.667 -15.667 -77 -47c-28.667 -21.333 -51 -42.833 -67 -64.5s-27 -44.167 -33 -67.5c-4.66699 -18 -5.33398 -34.5 -2.00098 -49.5s9.66602 -27.667 18.999 -38s21.333 -18.5 36 -24.5s31 -9 49 -9
c38.667 0 73.667 11.833 105 35.5s52.333 56.5 63 98.5zM836.002 654c-18.667 -23.333 -39.8271 -46.998 -63.4941 -70.998s-48.667 -47 -75 -69s-53.666 -42.833 -81.999 -62.5s-56.5 -36.834 -84.5 -51.501c11.333 -4 23.166 -13.5 35.499 -28.5s23.333 -32.667 33 -53
s16.667 -41.833 21 -64.5s4.16602 -43.334 -0.500977 -62.001c-7.33301 -30 -19.166 -57.5 -35.499 -82.5s-35.666 -46.5 -57.999 -64.5s-46.833 -31.833 -73.5 -41.5s-54 -14.5 -82 -14.5c-26.667 0 -50.834 4.83301 -72.501 14.5s-39.334 23.167 -53.001 40.5
s-22.834 38 -27.501 62s-3.33398 50.333 3.99902 79c9.33301 38 30.166 75.667 62.499 113s74.5 71.333 126.5 102c-13.333 13.333 -26.833 26.166 -40.5 38.499l-40.5 36.5c-46 48.667 -82.667 106.667 -110 174l90 34c2 -17.333 7.66699 -37.166 17 -59.499
s21.666 -45 36.999 -68s33 -44.833 53 -65.5s41.667 -38 65 -52c28 13.333 54.5 28.5 79.5 45.5s48.167 34.667 69.5 53s40.666 37 57.999 56s32.333 36.833 45 53.5l25 40z" />
    <glyph glyph-name="uni0B6B" unicode="&#xb6b;" horiz-adv-x="740" 
d="M488 171c8 33.333 6.33105 65.002 -5.00195 95.002l-22 39c-9.33301 0 -23.166 -4.33301 -41.499 -13s-37.166 -19.667 -56.499 -33s-37 -27.833 -53 -43.5s-25.667 -30.834 -29 -45.501c-7.33301 -30.667 -4 -56.334 10 -77.001s35.667 -31 65 -31
c68.667 0 112.667 36.333 132 109zM639.998 508.002c7.33301 30 3.99902 54.499 -10.001 73.499s-35.667 28.5 -65 28.5c-14.667 0 -29 -2.83301 -43 -8.5s-26.667 -13.334 -38 -23.001s-21.166 -20.667 -29.499 -33s-14.166 -25.166 -17.499 -38.499
c-4 -14.667 -5.5 -29.667 -4.5 -45s3.33301 -29.666 7 -42.999s8.33398 -24.833 14.001 -34.5s11.5 -16.5 17.5 -20.5c10.667 0 24.667 4.33301 42 13s34.666 20 51.999 34s33.166 29.5 47.499 46.5s23.5 33.833 27.5 50.5zM677.997 141.001
c-0.666992 2 -7.33203 12.001 -19.999 30.001c-11.333 16 -22.5 29.667 -33.5 41s-21.667 21 -32 29s-19.666 14.5 -27.999 19.5l-21.5 12.5c7.33301 -15.333 12.333 -31.833 15 -49.5s1.33398 -36.5 -3.99902 -56.5c-6 -24.667 -15.5 -47.334 -28.5 -68.001
s-28.5 -38.334 -46.5 -53.001s-38.167 -26 -60.5 -34s-46.5 -12 -72.5 -12c-23.333 -0 -44.333 3.83301 -63 11.5s-34 18.834 -46 33.501s-19.833 32.334 -23.5 53.001s-2.5 43.667 3.5 69c4 14.667 10.833 30 20.5 46s21.167 31.333 34.5 46s28.166 28 44.499 40
s32.833 21.667 49.5 29l-64 31c-17.333 8.66699 -33.166 18.334 -47.499 29.001s-28.333 23.167 -42 37.5s-28.834 33.166 -45.501 56.499l71 49c21.333 -28.667 41.833 -54.5 61.5 -77.5s39.167 -39.833 58.5 -50.5l25 -9c-9.33301 15.333 -15.333 32.166 -18 50.499
s-1.33398 38.166 3.99902 59.499c6 22.667 15.667 44.167 29 64.5s29.5 38.333 48.5 54s40 28.167 63 37.5s46.833 14 71.5 14c22 0 42 -4.16699 60 -12.5s32.5 -19.833 43.5 -34.5s18.5 -31.667 22.5 -51s3 -40.333 -3 -63c-21.333 -87.333 -74.333 -142.666 -159 -165.999
c20.667 -9.33301 41.667 -19.833 63 -31.5s41.166 -24 59.499 -37s34 -26.333 47 -40s21.167 -27.5 24.5 -41.5z" />
    <glyph glyph-name="uni0B6C" unicode="&#xb6c;" horiz-adv-x="740" 
d="M786 455c-17.333 -70.667 -51.8311 -134.834 -103.498 -192.501s-121.167 -110.834 -208.5 -159.501c-24 -13.333 -52.667 -26.333 -86 -39s-67.666 -23.667 -102.999 -33s-70 -16.833 -104 -22.5s-63.333 -8.5 -88 -8.5l16 68c13.333 0 29.333 0.833008 48 2.5
s40.667 5.16699 66 10.5c67.333 13.333 128.666 32.5 183.999 57.5s103.833 53.833 145.5 86.5s76 67.834 103 105.501s45.833 76.167 56.5 115.5c5.33301 22.667 6.66602 44.334 3.99902 65.001s-9.16699 39 -19.5 55s-24.166 28.833 -41.499 38.5
s-37.666 14.5 -60.999 14.5c-14 0 -27.667 -1.83301 -41 -5.5s-25.5 -8.66699 -36.5 -15s-20.5 -14.166 -28.5 -23.499s-13.333 -19.666 -16 -30.999c-5.33301 -20 2.33398 -34 23.001 -42c18.667 -8.66699 33.667 -16.667 45 -24s19.5 -15.166 24.5 -23.499
s7.33301 -18 7 -29s-2.5 -24.5 -6.5 -40.5c-4.66699 -19.333 -13 -37.333 -25 -54s-26.333 -31.167 -43 -43.5s-35 -22.166 -55 -29.499s-40.333 -11 -61 -11c-18.667 0 -36.834 3.66699 -54.501 11s-33.334 16.166 -47.001 26.499s-24.834 21.666 -33.501 33.999
s-13 23.5 -13 33.5l69 38c9.33301 -22 21.333 -39 36 -51s32.667 -18 54 -18c10.667 0 21.5 1.5 32.5 4.5s21.333 7.16699 31 12.5s18 12 25 20s11.5 16.667 13.5 26c2 8 1.5 15 -1.5 21s-7.5 11.167 -13.5 15.5s-12.833 8.33301 -20.5 12s-15.167 7.5 -22.5 11.5
c-33.333 23.333 -45.333 54 -36 92c5.33301 21.333 14.833 41.166 28.5 59.499s30.167 34.333 49.5 48s40.666 24.5 63.999 32.5s47.333 12 72 12c32 0 60.5 -5.83301 85.5 -17.5s45.167 -27.834 60.5 -48.501s25.5 -45.167 30.5 -73.5s3.5 -59.5 -4.5 -93.5z" />
    <glyph glyph-name="uni0B6D" unicode="&#xb6d;" horiz-adv-x="740" 
d="M453 343c3.33301 13.333 1.66699 25.5 -5 36.5s-17.667 16.5 -33 16.5c-14 0 -27.5 -4.66699 -40.5 -14s-21.167 -21.333 -24.5 -36c-4 -15.333 -2 -27.833 6 -37.5s19.333 -14.5 34 -14.5c33.333 0 54.333 16.333 63 49zM749.001 405
c-8 -33.333 -19.8359 -64.3262 -35.5029 -92.9932s-36 -55.834 -61 -81.501s-55.167 -50.667 -90.5 -75s-77 -48.833 -125 -73.5c-21.333 -11.333 -47.833 -22.333 -79.5 -33s-63.334 -20.334 -95.001 -29.001s-61 -15.667 -88 -21s-46.833 -8 -59.5 -8l17 68
c5.33301 0 16.666 1.66699 33.999 5s40 8.66602 68 15.999c73.333 18.667 136.5 40.334 189.5 65.001s97.333 51.167 133 79.5s63.5 57.666 83.5 87.999s33.667 60.166 41 89.499c6.66699 28 7.66699 54.833 3 80.5s-14 48.5 -28 68.5s-31.667 35.833 -53 47.5
s-44.666 17.5 -69.999 17.5c-24 0 -48.833 -5.33301 -74.5 -16s-49.667 -24.667 -72 -42s-41.666 -36.833 -57.999 -58.5s-27.5 -43.834 -33.5 -66.501c-2 -10 -1.33301 -20.333 2 -31l6 -15l35 39c30 24 63.333 36 100 36c16 0 30.167 -3 42.5 -9s22.333 -14.333 30 -25
s12.834 -22.834 15.501 -36.501s2 -28.5 -2 -44.5c-4 -17.333 -11.167 -33.166 -21.5 -47.499s-22.666 -26.666 -36.999 -36.999s-30.166 -18.5 -47.499 -24.5s-35 -9 -53 -9c-26.667 0 -50.167 5.66699 -70.5 17s-36.666 26.666 -48.999 45.999s-20.333 41.666 -24 66.999
s-1.83398 51.666 5.49902 78.999c8 32 22.833 62.667 44.5 92s47.167 55.166 76.5 77.499s61.5 40.333 96.5 54s69.833 20.834 104.5 21.501c36.667 0 69.5 -7.16699 98.5 -21.5s52.667 -34 71 -59s30.5 -54.5 36.5 -88.5s4 -70.333 -6 -109z" />
    <glyph glyph-name="uni0B6E" unicode="&#xb6e;" horiz-adv-x="740" 
d="M207 0h-72l170 683h442l-17 -67h-370z" />
    <glyph glyph-name="uni0B6F" unicode="&#xb6f;" horiz-adv-x="740" 
d="M479 601c-68.667 -54.667 -114.332 -127.332 -136.999 -217.999c-9.33301 -38 -12.333 -73.167 -9 -105.5s12.5 -62.833 27.5 -91.5s35.5 -56 61.5 -82s57 -52 93 -78l-94 -35c-10.667 4 -29 19.667 -55 47c-49.333 50 -82.166 104.167 -98.499 162.5
s-16.833 119.833 -1.5 184.5c17.333 67.333 47.166 127.666 89.499 180.999s96.166 94 161.499 122l114 -164l40 159h72l-82 -330l-182 248v0z" />
    <glyph glyph-name="uni0B70" unicode="&#xb70;" horiz-adv-x="620" 
d="M371 357c-5.33301 -18 -15.668 -33.001 -31.001 -45.001s-31.666 -18 -48.999 -18c-16 0 -29.167 5.83301 -39.5 17.5s-13.5 26.167 -9.5 43.5c4.66699 18 14.667 33.833 30 47.5s32.333 20.5 51 20.5s32.5 -6.16699 41.5 -18.5s11.167 -28.166 6.5 -47.499z
M91.998 327.999h86l66 -210l430 524h83l-545 -665z" />
    <glyph glyph-name="uni0B71" unicode="&#xb71;" horiz-adv-x="609" 
d="M625 480c-1.33301 8.66699 -7.83496 18.835 -19.502 30.502s-26 23 -43 34s-35.833 20.333 -56.5 28s-40.667 11.5 -60 11.5c-28 0 -54.5 -3.16699 -79.5 -9.5s-47.167 -15.333 -66.5 -27s-35.666 -25.5 -48.999 -41.5s-22.333 -33.667 -27 -53
c-5.33301 -20 -4.66602 -38.667 2.00098 -56s17.5 -32.166 32.5 -44.499s33.833 -22.166 56.5 -29.499s48 -11 76 -11c34.667 0 63.5 5.33301 86.5 16s36.5 24 40.5 40c2.66699 9.33301 1.16699 17.166 -4.5 23.499s-12.167 9.5 -19.5 9.5
c-6.66699 0 -13.334 -1.66699 -20.001 -5l-57 -36l-23 42l45 30c6 2.66699 10 9.66699 12 21c2.66699 8.66699 1 16.5 -5 23.5s-13 10.5 -21 10.5s-17 -3.66699 -27 -11s-16.667 -16.666 -20 -27.999c-0.666992 -2.66699 -1.16699 -5 -1.5 -7s-0.5 -4.33301 -0.5 -7l-58 -8
c-3.33301 4.66699 -3.66602 13.667 -0.999023 27c7.33301 26.667 22.833 48.5 46.5 65.5s49.167 25.5 76.5 25.5c53.333 0 78 -28.667 74 -86c19.333 -2 34.833 -5.83301 46.5 -11.5s20.334 -12.834 26.001 -21.501s8.83398 -17.834 9.50098 -27.501
s-0.333008 -19.5 -3 -29.5l-91 -368h-73l27 112c-42.667 -33.333 -89.334 -50 -140.001 -50c-24.667 0 -47.334 3.5 -68.001 10.5s-38 17.333 -52 31s-23.667 30.167 -29 49.5s-5 41.333 1 66c6.66699 26.667 19.334 52.334 38.001 77.001
c-52.667 36 -69.334 92 -50.001 168c6.66699 27.333 19.167 52.333 37.5 75s40.666 42.167 66.999 58.5s56.333 29 90 38s69.167 13.5 106.5 13.5c26.667 0 52.5 -3.33301 77.5 -10s48.333 -16.334 70 -29.001s40.834 -27.834 57.501 -45.501s29.667 -37.834 39 -60.501z
M459.998 199.001c18 22 29.665 44.6689 34.998 68.002c-2 -0.666992 -7.66699 -2.16699 -17 -4.5s-20.166 -4.66602 -32.499 -6.99902s-25 -4.5 -38 -6.5s-24.5 -3 -34.5 -3c-9.33301 0 -19.666 0.833008 -30.999 2.5s-22.5 3.66699 -33.5 6s-20.5 4.66602 -28.5 6.99902
s-13 4.16602 -15 5.49902c-6 -8.66699 -11.167 -16.834 -15.5 -24.501s-7.5 -15.167 -9.5 -22.5c-3.33301 -12 -3.33301 -23.5 0 -34.5s9 -20.667 17 -29s17.667 -15 29 -20s24 -7.5 38 -7.5c28 0 53.333 6 76 18s42.667 29.333 60 52z" />
    <glyph glyph-name="uni0B56.134" unicode="&#xb77;" horiz-adv-x="0" 
 />
    <glyph glyph-name="uni0B78" unicode="&#xb78;" horiz-adv-x="695" 
d="M503 1l41.002 25c27.333 20 44 43 50 69c2 7.33301 2.66699 15.833 2 25.5s-2.33398 19 -5.00098 28s-5.66699 17.167 -9 24.5s-6.66602 12.666 -9.99902 15.999l40 21c26.667 18 42.667 38.333 48 61c3.33301 13.333 1.66602 28.333 -5.00098 45s-15.667 28.667 -27 36
l24 26c7.33301 8.66699 13.833 17.667 19.5 27s9.5 18 11.5 26c24 96.667 -45.333 145 -208 145c-30.667 0 -59.834 -4.16699 -87.501 -12.5s-52.667 -20 -75 -35s-41.333 -33.167 -57 -54.5s-26.834 -45 -33.501 -71c-2.66699 -10 -3.83398 -20.833 -3.50098 -32.5
s1.66602 -23.167 3.99902 -34.5s5.5 -21.833 9.5 -31.5s8.66699 -17.167 14 -22.5c32.667 22 67.667 33 105 33c22 0 42 -4.33301 60 -13s32.667 -20.167 44 -34.5s19 -31.333 23 -51s3.33301 -40.5 -2 -62.5s-14.5 -42.667 -27.5 -62s-28.5 -36 -46.5 -50
s-37.667 -25.167 -59 -33.5s-43 -12.5 -65 -12.5s-41.5 4.16699 -58.5 12.5s-31 19.5 -42 33.5s-18.167 30.667 -21.5 50s-2.33301 40 3 62c2 7.33301 5.33301 16.5 10 27.5s11.334 23.833 20.001 38.5c-20.667 28.667 -34.5 57.667 -41.5 87s-6.83301 59.333 0.5 90
c10 39.333 26 74.666 48 105.999s48.333 57.833 79 79.5s65.167 38.167 103.5 49.5s78.5 17 120.5 17c46 0 86.833 -4.83301 122.5 -14.5s64.834 -23.334 87.501 -41.001s38.5 -39.167 47.5 -64.5s9.5 -53.333 1.5 -84c-5.33301 -21.333 -12.166 -39.5 -20.499 -54.5
s-18.166 -27.167 -29.499 -36.5l22 -15c10.667 -14 12.667 -34 6 -60c-6 -24 -15.333 -41.667 -28 -53l-51 -35c8.66699 -12 14.167 -25.667 16.5 -41s0.833008 -33 -4.5 -53c-3.33301 -11.333 -6.83301 -21.166 -10.5 -29.499s-8.33398 -16.166 -14.001 -23.499
s-12.5 -14.666 -20.5 -21.999s-18 -15.333 -30 -24l54 -138h-80zM398.002 154c6 24 3.16699 44.502 -8.5 61.502s-28.5 25.5 -50.5 25.5c-11.333 0 -22.333 -2.33301 -33 -7s-20.667 -10.834 -30 -18.501s-17.5 -16.834 -24.5 -27.501s-11.833 -22 -14.5 -34
c-6 -24 -3.5 -44.833 7.5 -62.5s27.833 -26.5 50.5 -26.5c11.333 0 22.5 2.5 33.5 7.5s21.167 11.667 30.5 20s17.333 17.833 24 28.5s11.667 21.667 15 33zM885.002 881.002l-304 -91l128 -79l-75 -38l-153 93l15 57l368 114z" />
    <glyph glyph-name="uni200B" unicode="&#x200b;" horiz-adv-x="0" 
d="M-63 -165l278 1116h44l-278 -1116h-44z" />
    <glyph glyph-name="afii61664" unicode="&#x200c;" horiz-adv-x="0" 
d="M-63 -165l278 1116h44l-278 -1116h-44z" />
    <glyph glyph-name="afii301" unicode="&#x200d;" horiz-adv-x="0" 
d="M299 793l-59 82l-259 -1040h-44l259 1040l-101 -82l-23 29l130 102l-79 101l37 29l77 -103l127 103l23 -29l-129 -101l78 -102z" />
    <glyph glyph-name="endash" unicode="&#x2013;" horiz-adv-x="546" 
d="M120 303l15 61h457l-15 -61h-457z" />
    <glyph glyph-name="emdash" unicode="&#x2014;" horiz-adv-x="746" 
d="M120 303l15 61h656l-15 -61h-656z" />
    <glyph glyph-name="quoteleft" unicode="&#x2018;" horiz-adv-x="288" 
d="M426 748c-22 -13.333 -42.834 -29.668 -62.501 -49.001s-34.167 -43.666 -43.5 -72.999c21.333 0 37.166 -3 47.499 -9s13.5 -17 9.5 -33c-4.66699 -18.667 -12.667 -33.167 -24 -43.5s-25.666 -15.5 -42.999 -15.5c-45.333 0 -61.666 26.333 -48.999 79
c14 55.333 63 111 147 167l18 -23v0z" />
    <glyph glyph-name="quoteright" unicode="&#x2019;" horiz-adv-x="288" 
d="M378 702c-16 -58 -64.3311 -113.665 -144.998 -166.998c-1.33301 2 -3.33301 4.5 -6 7.5s-5.66699 7.16699 -9 12.5c8.66699 4.66699 18 11.167 28 19.5s20 17.666 30 27.999s19.167 21.333 27.5 33s15.166 23.167 20.499 34.5c-49.333 0 -71.333 17 -66 51
c5.33301 19.333 13.666 34.166 24.999 44.499s26.333 15.5 45 15.5c21.333 0 36.5 -6.83301 45.5 -20.5s10.5 -33.167 4.5 -58.5z" />
    <glyph glyph-name="quotedblleft" unicode="&#x201c;" horiz-adv-x="529" 
d="M667 748c-22 -13.333 -42.833 -29.668 -62.5 -49.001s-34.167 -43.666 -43.5 -72.999c21.333 0 37.333 -3 48 -9s14 -17 10 -33c-4.66699 -18.667 -12.834 -33.167 -24.501 -43.5s-26.167 -15.5 -43.5 -15.5c-45.333 0 -61.666 26.333 -48.999 79
c14 55.333 63.333 111 148 167zM426 747.998c-22 -13.333 -42.834 -29.668 -62.501 -49.001s-34.167 -43.666 -43.5 -72.999c21.333 0 37.166 -3 47.499 -9s13.5 -17 9.5 -33c-4.66699 -18.667 -12.667 -33.167 -24 -43.5s-25.666 -15.5 -42.999 -15.5
c-45.333 0 -61.666 26.333 -48.999 79c14 55.333 63 111 147 167z" />
    <glyph glyph-name="quotedblright" unicode="&#x201d;" horiz-adv-x="525" 
d="M653 692c-14 -54.667 -63.332 -110.335 -147.999 -167.002l-17 24c22.667 12.667 43.667 28.834 63 48.501s34 43.834 44 72.501c-2.66699 0 -5.16699 -0.166992 -7.5 -0.5s-4.5 -0.5 -6.5 -0.5c-37.333 0 -52.333 14.333 -45 43c4.66699 18.667 12.5 33.167 23.5 43.5
s25.833 15.5 44.5 15.5c23.333 0 39.166 -6.16699 47.499 -18.5s8.83301 -32.5 1.5 -60.5zM412.001 691.999c-14 -54.667 -63.334 -110.335 -148.001 -167.002l-17 24c22.667 12.667 43.667 28.834 63 48.501s34 43.834 44 72.501c-2.66699 0 -5.16699 -0.166992 -7.5 -0.5
s-4.83301 -0.5 -7.5 -0.5c-36.667 0 -51.334 14.333 -44.001 43c4.66699 18.667 12.5 33.167 23.5 43.5s25.833 15.5 44.5 15.5c22.667 0 38.334 -6.16699 47.001 -18.5s9.33398 -32.5 2.00098 -60.5z" />
    <glyph glyph-name="bullet" unicode="&#x2022;" horiz-adv-x="523" 
d="M505 253c-6 -25.333 -16.6641 -48.9941 -31.9971 -70.9941s-33.333 -41.333 -54 -58s-43.334 -29.834 -68.001 -39.501s-49.667 -14.5 -75 -14.5s-47.833 4.83301 -67.5 14.5s-35.834 22.667 -48.501 39s-21 35.666 -25 57.999s-2.66699 46.166 4 71.499
c6 25.333 16.667 49.166 32 71.499s33.333 41.666 54 57.999s43.167 29.333 67.5 39s49.166 14.5 74.499 14.5c24.667 0 47 -4.83301 67 -14.5s36.333 -22.834 49 -39.501s21 -36.167 25 -58.5s3 -45.833 -3 -70.5z" />
    <glyph glyph-name="uni0B39.004" unicode="&#x20b9;" horiz-adv-x="520" 
d="M601 602l-116.999 0.000976562c8 -10.667 13.5 -22.334 16.5 -35.001s4.16699 -25 3.5 -37h124l-62 -67h-75c-8 -22.667 -20.333 -44.5 -37 -65.5s-36.834 -40 -60.501 -57s-50.334 -30.5 -80.001 -40.5s-61.5 -15 -95.5 -15l188 -285h-114l-177 277l18 74h71
c24.667 0 48 2.5 70 7.5s41.333 12.333 58 22s30.667 21.5 42 35.5s20 29.667 26 47h-261l60 67h210c-3.33301 10 -7.5 19.333 -12.5 28s-12 16.167 -21 22.5s-20.667 11.5 -35 15.5s-32.166 6 -53.499 6h-113l59 67h429z" />
    <glyph glyph-name="Dotted_Circle" unicode="&#x25cc;" horiz-adv-x="520" 
d="M539 426c-10 26.667 -26.668 48.667 -50.001 66l49 50c28.667 -21.333 49.334 -48.333 62.001 -81zM433.999 520c-11.333 3.33301 -26.665 5 -45.998 5c-18.667 0 -34.334 -1.66699 -47.001 -5l4 62l30.5 4c10.333 1.33301 19.833 2 28.5 2
c9.33301 0 18.666 -0.666992 27.999 -2l29 -4zM603 326c-4.66699 -18.667 -12.333 -38 -23 -58l-58 10c6 12 11.667 27.667 17 47c4.66699 19.333 6.66699 35.333 6 48l64 10c0.666992 -20 -1.33301 -39 -6 -57zM533.001 189c-30 -33.333 -64.667 -60.666 -104 -81.999
l-23 52c33.333 17.333 61 39.666 83 66.999zM272.001 492c-32.667 -17.333 -60 -39.333 -82 -66l-44 35c29.333 32.667 63.333 59.667 102 81zM68.001 268c1.33301 9.33301 2.49805 18.667 3.49805 28s2.83301 19.333 5.5 30c2.66699 10 5.83398 19.667 9.50098 29l10.5 28
l59 -10c-6 -12.667 -11.333 -28.667 -16 -48c-5.33301 -19.333 -7.66602 -35 -6.99902 -47zM332.999 69.001c-10.667 -2 -20.999 -3.5 -30.999 -4.5s-19.667 -1.5 -29 -1.5c-8.66699 0 -17.834 0.5 -27.501 1.5s-19.167 2.5 -28.5 4.5l27 63
c17.333 -4.66699 32.333 -7 45 -7c13.333 0 29.333 2.33301 48 7zM139 107.001c-27.333 21.333 -47.333 48.666 -60 81.999l61 37c8.66699 -27.333 25 -49.666 49 -66.999z" />
    <glyph glyph-name="NULL" horiz-adv-x="0" 
 />
    <glyph glyph-name="nonmarkingreturn" horiz-adv-x="615" 
 />
    <glyph glyph-name="parenleft" horiz-adv-x="26" 
d="M95 383h26l-7 -29h-26z" />
    <glyph glyph-name="parenright" horiz-adv-x="26" 
d="M95 383h26l-7 -29h-26z" />
    <glyph glyph-name="asterisk" horiz-adv-x="26" 
d="M95 383h26l-7 -29h-26z" />
    <glyph glyph-name="plus" horiz-adv-x="26" 
d="M95 383h26l-7 -29h-26z" />
    <glyph glyph-name="hyphen" horiz-adv-x="26" 
d="M95 383h26l-7 -29h-26z" />
    <glyph glyph-name="slash" horiz-adv-x="26" 
d="M95 383h26l-7 -29h-26z" />
    <glyph glyph-name="glyph98" 
d="M121 514l4 19h17l-4 -19h-17z" />
    <glyph glyph-name="Adieresis" 
d="M121 514l4 19h17l-4 -19h-17z" />
    <glyph glyph-name="Aring" 
d="M121 514l4 19h17l-4 -19h-17z" />
    <glyph glyph-name="Ccedilla" 
d="M121 514l4 19h17l-4 -19h-17z" />
    <glyph glyph-name="Eacute" 
d="M121 514l4 19h17l-4 -19h-17z" />
    <glyph glyph-name="Ntilde" 
d="M121 514l4 19h17l-4 -19h-17z" />
    <glyph glyph-name="Odieresis" 
d="M121 514l4 19h17l-4 -19h-17z" />
    <glyph glyph-name="Udieresis" 
d="M121 514l4 19h17l-4 -19h-17z" />
    <glyph glyph-name="aacute" 
d="M121 514l4 19h17l-4 -19h-17z" />
    <glyph glyph-name="agrave" 
d="M121 514l4 19h17l-4 -19h-17z" />
    <glyph glyph-name="acircumflex" 
d="M121 514l4 19h17l-4 -19h-17z" />
    <glyph glyph-name="adieresis" 
d="M121 514l4 19h17l-4 -19h-17z" />
    <glyph glyph-name="atilde" 
d="M121 514l4 19h17l-4 -19h-17z" />
    <glyph glyph-name="aring" 
d="M121 514l4 19h17l-4 -19h-17z" />
    <glyph glyph-name="ccedilla" 
d="M121 514l4 19h17l-4 -19h-17z" />
    <glyph glyph-name="eacute" 
d="M121 514l4 19h17l-4 -19h-17z" />
    <glyph glyph-name="egrave" 
d="M121 514l4 19h17l-4 -19h-17z" />
    <glyph glyph-name="ecircumflex" 
d="M121 514l4 19h17l-4 -19h-17z" />
    <glyph glyph-name="edieresis" 
d="M121 514l4 19h17l-4 -19h-17z" />
    <glyph glyph-name="iacute" 
d="M121 514l4 19h17l-4 -19h-17z" />
    <glyph glyph-name="igrave" 
d="M121 514l4 19h17l-4 -19h-17z" />
    <glyph glyph-name="icircumflex" 
d="M121 514l4 19h17l-4 -19h-17z" />
    <glyph glyph-name="idieresis" 
d="M121 514l4 19h17l-4 -19h-17z" />
    <glyph glyph-name="ntilde" 
d="M121 514l4 19h17l-4 -19h-17z" />
    <glyph glyph-name="oacute" 
d="M121 514l4 19h17l-4 -19h-17z" />
    <glyph glyph-name="ograve" 
d="M121 514l4 19h17l-4 -19h-17z" />
    <glyph glyph-name="ocircumflex" 
d="M121 514l4 19h17l-4 -19h-17z" />
    <glyph glyph-name="odieresis" 
d="M121 514l4 19h17l-4 -19h-17z" />
    <glyph glyph-name="otilde" 
d="M121 514l4 19h17l-4 -19h-17z" />
    <glyph glyph-name="uacute" 
d="M121 514l4 19h17l-4 -19h-17z" />
    <glyph glyph-name="ugrave" 
d="M121 514l4 19h17l-4 -19h-17z" />
    <glyph glyph-name="ucircumflex" 
d="M121 514l4 19h17l-4 -19h-17z" />
    <glyph glyph-name="udieresis" 
d="M121 514l4 19h17l-4 -19h-17z" />
    <glyph glyph-name="dagger" horiz-adv-x="387" 
 />
    <glyph glyph-name="degree" horiz-adv-x="215" 
d="M149 323l20 79h77l-20 -79h-77zM36 -154l104 416h63l-104 -416h-63z" />
    <glyph glyph-name="cent" horiz-adv-x="432" 
d="M422 121c-16.667 -42.667 -42.498 -75.168 -77.498 -97.501s-73.833 -33.5 -116.5 -33.5c-5.33301 0 -11.333 0.333008 -18 1s-14.334 2 -23.001 4l-46 -90l-37 11l47 90c-63.333 32 -83 96.667 -59 194c17.333 66.667 47.166 118.334 89.499 155.001s92.833 55 151.5 55
h17c4.66699 0 9 -0.666992 13 -2l45 88l39 -10l-47 -87c49.333 -20.667 70 -59.667 62 -117h-72c4.66699 26 -2 45.667 -20 59l-153 -291c6 -2 14.333 -3 25 -3c55.333 0 91.333 24.667 108 74h72zM334.002 353.999c-2.66699 0.666992 -7.66699 1 -15 1
c-35.333 0 -66.5 -12.833 -93.5 -38.5s-47.167 -64.5 -60.5 -116.5c-16 -64.667 -10.333 -108.667 17 -132z" />
    <glyph glyph-name="sterling" horiz-adv-x="432" 
d="M401 7c-28.667 -11.333 -56.6689 -17 -84.002 -17c-1.33301 0 -10 1.83301 -26 5.5l-52.5 12l-52.5 12c-16 3.66699 -25 5.5 -27 5.5c-20.667 0 -43 -2.83301 -67 -8.5s-49.667 -14.5 -77 -26.5l17 69c60.667 28 99.334 76 116.001 144c4 16 6 32 6 48h-74l14 55h59
c-2.66699 40.667 -0.666992 74 6 100c12 48 37 86.167 75 114.5s83.333 42.5 136 42.5c48 0 83.667 -12.167 107 -36.5s31.333 -59.5 24 -105.5h-74c11.333 58 -13 87 -73 87c-14 0 -27.5 -2.5 -40.5 -7.5s-25 -11.667 -36 -20s-20.5 -18.333 -28.5 -30
s-13.667 -24.5 -17 -38.5c-3.33301 -13.333 -5.16602 -29 -5.49902 -47s0.5 -37.667 2.5 -59h118l-14 -55h-106c1.33301 -11.333 0.333008 -23 -3 -35c-14 -56.667 -48.667 -103.667 -104 -141c18 6 37 9 57 9c14 0 41.333 -4.33301 82 -13l43 -8
c6 -1.33301 11.333 -2.33301 16 -3s8.66699 -1 12 -1c29.333 0 59 7 89 21l-18 -73v0z" />
    <glyph glyph-name="section" horiz-adv-x="432" 
d="M380 89l-39.999 52c-31.333 -18 -63.666 -27 -96.999 -27c-32.667 0 -60.334 9 -83.001 27l-64 -52l-35 44l66 53c-11.333 28.667 -13 58 -5 88c7.33301 29.333 23.666 58.666 48.999 87.999l-40 54l57 44l38 -53c32.667 18.667 65 28 97 28c34 0 61.667 -9.33301 83 -28
l66 53l33 -44l-66 -54c11.333 -27.333 13 -56.666 5 -87.999c-4 -15.333 -9.83301 -30.333 -17.5 -45s-18.167 -29 -31.5 -43l40 -53zM382.001 274c3.33301 13.333 3.83496 26 1.50195 38s-7 22.5 -14 31.5s-15.833 16.167 -26.5 21.5s-22.667 8 -36 8
s-26.666 -2.66699 -39.999 -8s-25.5 -12.5 -36.5 -21.5s-20.5 -19.5 -28.5 -31.5s-13.667 -24.667 -17 -38s-4 -26 -2 -38s6.33301 -22.5 13 -31.5s15.334 -16 26.001 -21s22.667 -7.5 36 -7.5s26.666 2.5 39.999 7.5s25.666 12 36.999 21s21.166 19.5 29.499 31.5
s14.166 24.667 17.499 38z" />
    <glyph glyph-name="paragraph" horiz-adv-x="202" 
d="M136 264l73 291h59l-73 -291h-59zM30 -162l72 289h59l-72 -289h-59z" />
    <glyph glyph-name="germandbls" horiz-adv-x="432" 
d="M440 176c-10.667 -44.667 -48.333 -81.3291 -113 -109.996c34 -24.667 45.333 -59.334 34 -104.001c-4.66699 -18 -12.667 -34.667 -24 -50s-25.166 -28.5 -41.499 -39.5s-34.333 -19.5 -54 -25.5s-40.167 -9 -61.5 -9c-46 0 -80.833 11.667 -104.5 35
s-32.834 57 -27.501 101h74c-8 -53.333 16 -80 72 -80c23.333 0 43.833 5.5 61.5 16.5s29.167 27.833 34.5 50.5c2 8 2.83301 15.167 2.5 21.5s-4.16602 13.833 -11.499 22.5s-19 19.167 -35 31.5s-38.667 28.5 -68 48.5c-21.333 14.667 -38.5 28 -51.5 40
s-22.667 24 -29 36s-9.83301 24.667 -10.5 38s1 28.333 5 45c12 46 49.667 81.667 113 107c-26 29.333 -35 60.666 -27 93.999c4 15.333 10.833 30.166 20.5 44.499s21.667 27 36 38s31 19.667 50 26s39.833 9.5 62.5 9.5c97.333 0 139 -43.333 125 -130h-73
c8 50 -13 75 -63 75c-47.333 0 -76 -20 -86 -60c-3.33301 -12.667 -2.5 -23.834 2.5 -33.501s14 -20.334 27 -32.001s30.167 -25 51.5 -40s46.666 -34.5 75.999 -58.5c19.333 -19.333 31 -37.166 35 -53.499s3.33301 -34.5 -2 -54.5zM370.001 162.005
c4 16.667 3.5 29.5 -1.5 38.5s-13.5 18.333 -25.5 28s-27.5 21.5 -46.5 35.5s-40.5 34.333 -64.5 61c-38 -16.667 -61 -41 -69 -73c-3.33301 -12 -4.16602 -22.667 -2.49902 -32s6.66699 -19 15 -29s20.333 -21 36 -33s36.5 -27 62.5 -45l15.5 -10.5
c4.33301 -3 8.16602 -6.16699 11.499 -9.5c38.667 16.667 61.667 39.667 69 69z" />
    <glyph glyph-name="registered" horiz-adv-x="258" 
d="M283 474l19 77h69l-19 -77h-69zM143 474l19 77h68l-19 -77h-68z" />
    <glyph glyph-name="copyright" horiz-adv-x="571" 
d="M640 279c-10 -38.667 -26.834 -75.334 -50.501 -110.001s-51.834 -65 -84.501 -91s-68.167 -46.5 -106.5 -61.5s-76.833 -22.5 -115.5 -22.5s-73.5 7.5 -104.5 22.5s-56.167 35.5 -75.5 61.5s-32.333 56.333 -39 91s-5 71.334 5 110.001
c9.33301 38.667 26 75.167 50 109.5s52.333 64.5 85 90.5s68.167 46.5 106.5 61.5s76.5 22.5 114.5 22.5s72.5 -7.66699 103.5 -23s56.333 -36 76 -62s32.834 -56.167 39.501 -90.5s5.33398 -70.5 -3.99902 -108.5zM592.999 279c8 32 9.16699 62.334 3.5 91.001
s-16.667 54 -33 76s-37.333 39.333 -63 52s-54.834 19 -87.501 19c-32 0 -64 -6.33301 -96 -19s-61.5 -29.834 -88.5 -51.501s-50.5 -47 -70.5 -76s-34 -59.5 -42 -91.5c-8 -32.667 -9.33301 -63.5 -4 -92.5s16 -54.5 32 -76.5s36.833 -39.333 62.5 -52
s54.834 -19 87.501 -19s65 6.5 97 19.5s61.667 30.5 89 52.5s51 47.5 71 76.5s34 59.5 42 91.5zM475.999 219.001c-36 -70 -89.668 -104.999 -161.001 -104.999c-24 0 -44.167 4.16699 -60.5 12.5s-29 19.833 -38 34.5s-14.5 32 -16.5 52s0 41.667 6 65
c12 49.333 35 88.333 69 117s75 43 123 43c32.667 0 58.834 -8.33301 78.501 -25s28.5 -40 26.5 -70h-53c2 36 -19.333 54 -64 54c-66 0 -109 -40 -129 -120c-9.33301 -34.667 -8 -62.834 4 -84.501s33 -32.5 63 -32.5c46.667 0 79.667 19.667 99 59h53z" />
    <glyph glyph-name="trademark" horiz-adv-x="287" 
d="M276 289l5.99805 27c-29.333 -22 -64 -33 -104 -33c-24.667 0 -44.5 6.83301 -59.5 20.5s-19.5 32.5 -13.5 56.5c16 63.333 78.667 95 188 95h24c6.66699 26 5.83398 43.167 -2.49902 51.5s-23.166 12.5 -44.499 12.5c-40 0 -63.333 -12.333 -70 -37h-55
c18 54 64.333 81 139 81c76 0 105.667 -33.667 89 -101l-43 -173h-54zM77.998 196l11 44h223l-11 -44h-223zM306.998 415h-33.999c-64.667 0 -101 -17.667 -109 -53c-6 -23.333 7.33301 -35 40 -35c13.333 0 29.166 4.16699 47.499 12.5s32.833 17.833 43.5 28.5z" />
    <glyph glyph-name="acute" horiz-adv-x="432" 
d="M327 27l-76 173l162 173h57l-142 -173l56 -173h-57zM179 27l-77 173l163 173h57l-143 -173l57 -173h-57z" />
    <glyph glyph-name="dieresis" horiz-adv-x="453" 
d="M385 157l42 169h-303l16 64h367l-58 -233h-64z" />
    <glyph glyph-name="notequal" horiz-adv-x="37" 
d="M38 173l14 56h42l-14 -56h-42z" />
    <glyph glyph-name="AE" horiz-adv-x="571" 
d="M640 279c-10 -38.667 -26.834 -75.334 -50.501 -110.001s-51.834 -65 -84.501 -91s-68.167 -46.5 -106.5 -61.5s-76.833 -22.5 -115.5 -22.5s-73.5 7.5 -104.5 22.5s-56.167 35.5 -75.5 61.5s-32.333 56.333 -39 91s-5 71.334 5 110.001
c9.33301 38.667 26 75.167 50 109.5s52.333 64.5 85 90.5s68.167 46.5 106.5 61.5s76.5 22.5 114.5 22.5s72.5 -7.66699 103.5 -23s56.333 -36 76 -62s32.834 -56.167 39.501 -90.5s5.33398 -70.5 -3.99902 -108.5zM592.999 279c8 32 9.16699 62.334 3.5 91.001
s-16.667 54 -33 76s-37.333 39.333 -63 52s-54.834 19 -87.501 19c-32 0 -64 -6.33301 -96 -19s-61.5 -29.834 -88.5 -51.501s-50.5 -47 -70.5 -76s-34 -59.5 -42 -91.5c-8 -32.667 -9.33301 -63.5 -4 -92.5s16 -54.5 32 -76.5s36.833 -39.333 62.5 -52
s54.834 -19 87.501 -19s65 6.5 97 19.5s61.667 30.5 89 52.5s51 47.5 71 76.5s34 59.5 42 91.5zM387.999 121.001l-9 65.999c-4 40 -26 60 -66 60h-39l-31 -126h-49l76 307h115c81.333 0 115 -28.333 101 -85c-12.667 -54 -46.667 -83 -102 -87
c26 -9.33301 41.333 -28.666 46 -57.999l15 -77h-57zM431.999 338c8 32 -13 48 -63 48h-60l-24 -96h63c48 0 76 16 84 48z" />
    <glyph glyph-name="Oslash" horiz-adv-x="258" 
d="M131 483l14 57h236l-14 -57h-236z" />
    <glyph glyph-name="infinity" horiz-adv-x="310" 
d="M374 458c-4 -14.667 -10.333 -28.5029 -19 -41.5029s-19 -24.167 -31 -33.5s-25 -16.833 -39 -22.5s-28.333 -8.5 -43 -8.5s-27.667 2.83301 -39 8.5s-20.5 13.334 -27.5 23.001s-11.667 20.834 -14 33.501s-1.5 26.334 2.5 41.001c3.33301 14 9.33301 27.333 18 40
s19 23.834 31 33.501s25 17.167 39 22.5s28.333 8 43 8s27.667 -2.83301 39 -8.5s20.5 -13.334 27.5 -23.001s11.667 -20.667 14 -33s1.83301 -25.5 -1.5 -39.5zM333 457.997c4 17.333 1.16699 31.999 -8.5 43.999s-23.167 18 -40.5 18c-18 0 -34.5 -6 -49.5 -18
s-24.5 -26.667 -28.5 -44c-5.33301 -19.333 -3.5 -35.166 5.5 -47.499s22.5 -18.5 40.5 -18.5c17.333 0 34 6.5 50 19.5s26.333 28.5 31 46.5z" />
    <glyph glyph-name="glyph148" horiz-adv-x="453" 
d="M322 258l-38 -152h-64l38 152h-151l16 63h151l38 153h64l-38 -153h152l-16 -63h-152zM43 0l15 64h367l-15 -64h-367z" />
    <glyph glyph-name="lessequal" horiz-adv-x="258" 
d="M78 278c8 19.333 22.498 39.1689 43.498 59.502s48.833 39.166 83.5 56.499c18.667 9.33301 33.834 17.666 45.501 24.999s21 14 28 20s12 11.833 15 17.5s5.5 11.834 7.5 18.501c6.66699 28 -7 42 -41 42c-32.667 0 -54.667 -12.333 -66 -37h-58
c24.667 54.667 70.334 82 137.001 82c33.333 0 58.333 -7.5 75 -22.5s21.667 -35.5 15 -61.5c-10 -38.667 -45 -73.334 -105 -104.001c-32 -16 -59 -33 -81 -51h148l-11 -45h-236z" />
    <glyph glyph-name="greaterequal" horiz-adv-x="258" 
d="M333 358c-6 -24.667 -20.834 -45.333 -44.501 -62s-54.5 -25 -92.5 -25c-70 0 -102.333 27 -97 81h59c-2 -24.667 13.667 -37 47 -37c38 0 61.667 16.667 71 50c6 25.333 -11 38 -51 38h-20l10 42c44.667 0 70.667 13.667 78 41c5.33301 21.333 -7 32 -37 32
s-49.333 -10.333 -58 -31h-59c22.667 50 65.334 75 128.001 75c69.333 0 98 -23.667 86 -71c-8 -34 -30.333 -55.667 -67 -65c40 -9.33301 55.667 -32 47 -68z" />
    <glyph glyph-name="yen" horiz-adv-x="258" 
d="M255 458h-55l77 105h88z" />
    <glyph glyph-name="mu" horiz-adv-x="432" 
d="M420 -7c-5.33301 -2 -12.332 -3 -20.999 -3c-50.667 0 -76.334 21.333 -77.001 64c-45.333 -42.667 -91 -64 -137 -64c-23.333 0 -43.333 6.33301 -60 19l-40 -163h-71l139 556h71l-69 -274c-13.333 -52 6.66699 -78 60 -78c38.667 0 79 21.333 121 64l72 288h70
l-78 -311c-7.33301 -27.333 0 -41 22 -41c6 0 10 0.666992 12 2l-14 -59v0z" />
    <glyph glyph-name="partialdiff" horiz-adv-x="416" 
d="M488 499l-163.001 -653h-64l163 653h-85l-163 -653h-62l99 395c-46 3.33301 -79.5 18 -100.5 44s-25.833 62.667 -14.5 110c12.667 51.333 38.334 90.833 77.001 118.5s85.667 41.5 141 41.5h240l-14 -56h-54z" />
    <glyph glyph-name="summation" horiz-adv-x="215" 
d="M127 234l19 77h77l-19 -77h-77z" />
    <glyph glyph-name="product" horiz-adv-x="258" 
d="M181 -89c-12 -48.667 -56.333 -73 -133 -73h-18.5c-6.33301 0 -13.166 0.333008 -20.499 1l11 44c7.33301 -0.666992 14.5 -1.16699 21.5 -1.5s13.833 -0.5 20.5 -0.5c31.333 0 49.666 10 54.999 30c4.66699 20 -10.333 30 -45 30l15 59h53l-7 -28
c40.667 -6 56.667 -26.333 48 -61z" />
    <glyph glyph-name="pi" horiz-adv-x="258" 
d="M194 278l46 184c-20 -12 -50.333 -18 -91 -18l12 47c66.667 0 106 23.667 118 71h41l-71 -284h-55z" />
    <glyph glyph-name="integral" horiz-adv-x="283" 
d="M372 422c-10.667 -42.667 -29.834 -77.001 -57.501 -103.001s-62.5 -39 -104.5 -39c-39.333 0 -66.666 12.833 -81.999 38.5s-17.333 60.167 -6 103.5c10.667 42.667 29.5 76.834 56.5 102.501s61.167 38.5 102.5 38.5c20.667 0 38 -3.5 52 -10.5
s24.667 -16.833 32 -29.5s11.5 -27.5 12.5 -44.5s-0.833008 -35.833 -5.5 -56.5zM78 195.999l11 44h223l-11 -44h-223zM314 421.999c15.333 60.667 0 91 -46 91c-44 0 -73.667 -30.333 -89 -91c-16 -61.333 -1.33301 -92 44 -92c44.667 0 75 30.667 91 92z" />
    <glyph glyph-name="ordfeminine" horiz-adv-x="432" 
d="M263 27h-55l141 173l-55 173h55l78 -173zM115 27h-56l143 173l-57 173h56l78 -173z" />
    <glyph glyph-name="ordmasculine" horiz-adv-x="646" 
d="M586 58l-14 -58h-54l14 58h-145l12 47l196 179h47l-44 -177h39l-12 -49h-39zM148 0h-59l531 555h60zM202 278l46 184c-20 -12 -50 -18 -90 -18l12 47c65.333 0 104 23.667 116 71h41l-71 -284h-54zM571 214l-119 -107h92z" />
    <glyph glyph-name="Omega" horiz-adv-x="646" 
d="M389 0c16 42 57.999 80.666 125.999 115.999l49 27c16.667 9.33301 28.167 18.333 34.5 27s10.833 18 13.5 28c6.66699 28 -7 42 -41 42c-32.667 0 -55 -12.333 -67 -37h-58c24.667 54 70.334 81 137.001 81c32 0 56.5 -7.33301 73.5 -22s22.167 -34.667 15.5 -60
c-5.33301 -20.667 -14.5 -37.5 -27.5 -50.5s-28.167 -24.833 -45.5 -35.5s-35.833 -21.167 -55.5 -31.5s-38.5 -23.166 -56.5 -38.499h148l-11 -46h-235zM147.999 -0.000976562h-59l531 555h60zM201.999 277.999l46 184c-20 -12 -50 -18 -90 -18l12 47
c65.333 0 104 23.667 116 71h41l-71 -284h-54z" />
    <glyph glyph-name="ae" horiz-adv-x="646" 
d="M586 58l-14 -58h-54l14 58h-145l12 47l196 179h47l-44 -177h39l-12 -49h-39zM169 0h-60l533 555h59zM341 358c-6.66699 -26 -22.6641 -47 -47.9971 -63s-55 -24 -89 -24c-71.333 0 -103.333 27 -96 81h58c-2.66699 -24.667 12.666 -37 45.999 -37
c38.667 0 62.667 16.667 72 50c6 25.333 -11 38 -51 38h-21l10 42c45.333 0 71.666 13.667 78.999 41c5.33301 21.333 -7.33398 32 -38.001 32c-29.333 0 -48.333 -10.333 -57 -31h-59c23.333 50 65.666 75 126.999 75c30 0 53.333 -6.33301 70 -19s22.334 -30 17.001 -52
c-8 -34 -30.667 -55.667 -68 -65c40.667 -9.33301 56.667 -32 48 -68zM571.003 214l-119 -107h92z" />
    <glyph glyph-name="oslash" horiz-adv-x="432" 
d="M257 323l20 79h79l-20 -79h-79zM394 -2c-17.333 -50 -45.8311 -89.168 -85.498 -117.501s-84.5 -42.5 -134.5 -42.5c-24.667 0 -47 3.16699 -67 9.5s-36.5 15.833 -49.5 28.5s-21.667 28.334 -26 47.001s-3.5 40.334 2.5 65.001s18.333 48.167 37 70.5
s44.667 45.5 78 69.5l39 28c8 6 14.833 11.667 20.5 17s10.834 11.666 15.501 18.999s9 16.666 13 27.999s8.33301 26 13 44h67c-6 -24.667 -12 -45 -18 -61s-13.333 -30 -22 -42s-19.334 -23.167 -32.001 -33.5s-28.334 -22.166 -47.001 -35.499
c-18 -12.667 -32.333 -23.5 -43 -32.5s-19.167 -17 -25.5 -24s-10.833 -13.667 -13.5 -20s-5 -13.5 -7 -21.5c-7.33301 -30 -3.5 -54.333 11.5 -73s37.167 -28 66.5 -28c61.333 0 105.666 35 132.999 105h74z" />
    <glyph glyph-name="questiondown" horiz-adv-x="517" 
d="M505 0l-27 196h-269l-119 -196h-89l406 642h91l103 -642h-96zM431 561l-183 -298h222zM387 686l-67 122h104l28 -122h-65z" />
    <glyph glyph-name="exclamdown" horiz-adv-x="517" 
d="M505 0l-27 196h-269l-119 -196h-89l406 642h91l103 -642h-96zM431 561l-183 -298h222zM377 614h-55l77 105h88z" />
    <glyph glyph-name="logicalnot" horiz-adv-x="517" 
d="M505 0l-27 196h-269l-119 -196h-89l406 642h91l103 -642h-96zM431 561l-183 -298h222zM410 614l-27 64l-60 -64h-76l110 105h72l58 -105h-77z" />
    <glyph glyph-name="radical" horiz-adv-x="517" 
d="M505 0l-27 196h-269l-119 -196h-89l406 642h91l103 -642h-96zM431 561l-183 -298h222zM521 688c-14 -58 -47 -87 -99 -87c-6 0 -22.667 5.33301 -50 16c-25.333 10.667 -39.666 16 -42.999 16c-14.667 0 -26.334 -11.333 -35.001 -34h-49c6 25.333 18 46.333 36 63
s38.667 25 62 25c11.333 0 29 -5.33301 53 -16l25 -11c6.66699 -3.33301 11.667 -5 15 -5c16 0 27.667 11 35 33h50v0z" />
    <glyph glyph-name="florin" horiz-adv-x="517" 
d="M505 0l-27 196h-269l-119 -196h-89l406 642h91l103 -642h-96zM431 561l-183 -298h222zM406 630l19 77h69l-19 -77h-69zM266 630l19 77h68l-19 -77h-68z" />
    <glyph glyph-name="approxequal" horiz-adv-x="517" 
d="M435 0l-23.002 168.999h-232l-103 -169h-77l351 555h31c-16.667 1.33301 -29 8.5 -37 21.5s-9.66699 28.167 -5 45.5c4.66699 19.333 15 35.666 31 48.999s33.667 20 53 20s33.833 -6.66699 43.5 -20s12.167 -29.666 7.5 -48.999
c-5.33301 -18.667 -15.166 -34.167 -29.499 -46.5s-30.166 -19.166 -47.499 -20.499h32l88 -555h-83zM371.998 484.999l-159 -257h192zM447.998 621.999c3.33301 12 1.66895 22 -4.99805 30s-15.334 12 -26.001 12c-26 0 -42.333 -14 -49 -42c-6.66699 -26.667 3 -40 29 -40
c12 0 22.667 4 32 12s15.666 17.333 18.999 28z" />
    <glyph glyph-name="Delta" horiz-adv-x="775" 
d="M369 0l39 160h-196l-127 -160h-85l458 555h400l-17 -67h-277l-42 -168h254l-16 -67h-254l-47 -187h289l-16 -66h-363zM490 488h-15l-210 -263h160z" />
    <glyph glyph-name="guillemotleft" horiz-adv-x="560" 
d="M653 204c-12 -34 -28.3301 -64.167 -48.9971 -90.5s-44.667 -48.833 -72 -67.5s-57.333 -32.834 -90 -42.501s-67.334 -14.5 -104.001 -14.5c-45.333 0 -84.5 7.83301 -117.5 23.5s-59 38 -78 67s-30.333 64 -34 105s0.833008 86.833 13.5 137.5
s31.167 96.334 55.5 137.001s53 75.334 86 104.001s69.833 50.667 110.5 66s83.667 23 129 23c34 0 64.833 -4.16699 92.5 -12.5s50.667 -21 69 -38s31.833 -38.333 40.5 -64s11.667 -55.5 9 -89.5h-89c3.33301 21.333 2.33301 40.166 -3 56.499s-14.333 30 -27 41
s-28.334 19.333 -47.001 25s-39.334 8.5 -62.001 8.5c-34 0 -65.667 -6.16699 -95 -18.5s-56 -29.833 -80 -52.5s-44.667 -49.667 -62 -81s-30.666 -66.333 -39.999 -105c-21.333 -84 -18.833 -148.333 7.5 -193s72.833 -67 139.5 -67c107.333 0 176.666 47.333 207.999 142
h89v0zM351.003 -89c-12 -48.667 -56.333 -73 -133 -73h-18.5c-6.33301 0 -13.166 0.333008 -20.499 1l11 44c7.33301 -0.666992 14.5 -1.16699 21.5 -1.5s13.833 -0.5 20.5 -0.5c31.333 0 49.666 10 54.999 30c4.66699 20 -10.333 30 -45 30l15 59h53l-7 -28
c40.667 -6 56.667 -26.333 48 -61z" />
    <glyph glyph-name="guillemotright" horiz-adv-x="517" 
d="M73 0l160 642h462l-19 -76h-379l-49 -196h356l-19 -76h-356l-54 -217h395l-19 -77h-478zM401 686l-67 122h104l28 -122h-65z" />
    <glyph glyph-name="ellipsis" horiz-adv-x="517" 
d="M73 0l160 642h462l-19 -76h-379l-49 -196h356l-19 -76h-356l-54 -217h395l-19 -77h-478zM384 614h-55l77 105h88z" />
    <glyph glyph-name="uni00A0" horiz-adv-x="517" 
d="M73 0l160 642h462l-19 -76h-379l-49 -196h356l-19 -76h-356l-54 -217h395l-19 -77h-478zM424 614l-27 64l-60 -64h-76l110 105h72l58 -105h-77z" />
    <glyph glyph-name="Agrave" horiz-adv-x="517" 
d="M73 0l160 642h462l-19 -76h-379l-49 -196h356l-19 -76h-356l-54 -217h395l-19 -77h-478zM421 630l19 77h69l-19 -77h-69zM281 630l19 77h68l-19 -77h-68z" />
    <glyph glyph-name="Atilde" horiz-adv-x="215" 
d="M82 0l160 642h87l-160 -642h-87zM249 686l-67 122h104l28 -122h-65z" />
    <glyph glyph-name="Otilde" horiz-adv-x="215" 
d="M82 0l160 642h87l-160 -642h-87zM228 614h-55l77 105h88z" />
    <glyph glyph-name="OE" horiz-adv-x="215" 
d="M82 0l160 642h87l-160 -642h-87zM268 614l-27 64l-60 -64h-76l110 105h72l58 -105h-77z" />
    <glyph glyph-name="oe" horiz-adv-x="215" 
d="M264 630l19 77h69l-19 -77h-69zM124 630l19 77h68l-19 -77h-68zM82 0l160 642h87l-160 -642h-87z" />
    <glyph glyph-name="glyph181" horiz-adv-x="603" 
d="M737 322c-12.667 -49.333 -31.4961 -94.5039 -56.4961 -135.504s-54.667 -76.167 -89 -105.5s-72.333 -52 -114 -68s-84.834 -24 -129.501 -24c-46.667 0 -86.834 8.33301 -120.501 25s-60.334 39.834 -80.001 69.501s-31.834 64.834 -36.501 105.501s-1 85 11 133
s30.5 92.333 55.5 133s54.667 75.5 89 104.5s72.5 51.667 114.5 68s86 24.5 132 24.5c46.667 0 86.834 -8.16699 120.501 -24.5s60.167 -39.166 79.5 -68.499s31.166 -64.166 35.499 -104.499s0.5 -84.5 -11.5 -132.5zM648.004 321.996c10 39.333 13.667 74.833 11 106.5
s-10.667 58.667 -24 81s-31.833 39.5 -55.5 51.5s-51.5 18 -83.5 18c-34.667 0 -67.334 -6.33301 -98.001 -19s-58.5 -30.167 -83.5 -52.5s-46.5 -49.333 -64.5 -81s-31.667 -66.5 -41 -104.5s-12.833 -73 -10.5 -105s10.333 -59.5 24 -82.5s32.334 -40.833 56.001 -53.5
s52.167 -19 85.5 -19c34 0 66.167 6.33301 96.5 19s57.833 30.5 82.5 53.5s46 50.5 64 82.5s31.667 67 41 105zM448.004 685.996l-67 122h104l28 -122h-65z" />
    <glyph glyph-name="glyph182" horiz-adv-x="603" 
d="M737 322c-12.667 -49.333 -31.4961 -94.5039 -56.4961 -135.504s-54.667 -76.167 -89 -105.5s-72.333 -52 -114 -68s-84.834 -24 -129.501 -24c-46.667 0 -86.834 8.33301 -120.501 25s-60.334 39.834 -80.001 69.501s-31.834 64.834 -36.501 105.501s-1 85 11 133
s30.5 92.333 55.5 133s54.667 75.5 89 104.5s72.5 51.667 114.5 68s86 24.5 132 24.5c46.667 0 86.834 -8.16699 120.501 -24.5s60.167 -39.166 79.5 -68.499s31.166 -64.166 35.499 -104.499s0.5 -84.5 -11.5 -132.5zM648.004 321.996c10 39.333 13.667 74.833 11 106.5
s-10.667 58.667 -24 81s-31.833 39.5 -55.5 51.5s-51.5 18 -83.5 18c-34.667 0 -67.334 -6.33301 -98.001 -19s-58.5 -30.167 -83.5 -52.5s-46.5 -49.333 -64.5 -81s-31.667 -66.5 -41 -104.5s-12.833 -73 -10.5 -105s10.333 -59.5 24 -82.5s32.334 -40.833 56.001 -53.5
s52.167 -19 85.5 -19c34 0 66.167 6.33301 96.5 19s57.833 30.5 82.5 53.5s46 50.5 64 82.5s31.667 67 41 105zM428.004 613.996h-55l77 105h88z" />
    <glyph glyph-name="glyph183" horiz-adv-x="603" 
d="M737 322c-12.667 -49.333 -31.4961 -94.5039 -56.4961 -135.504s-54.667 -76.167 -89 -105.5s-72.333 -52 -114 -68s-84.834 -24 -129.501 -24c-46.667 0 -86.834 8.33301 -120.501 25s-60.334 39.834 -80.001 69.501s-31.834 64.834 -36.501 105.501s-1 85 11 133
s30.5 92.333 55.5 133s54.667 75.5 89 104.5s72.5 51.667 114.5 68s86 24.5 132 24.5c46.667 0 86.834 -8.16699 120.501 -24.5s60.167 -39.166 79.5 -68.499s31.166 -64.166 35.499 -104.499s0.5 -84.5 -11.5 -132.5zM648.004 321.996c10 39.333 13.667 74.833 11 106.5
s-10.667 58.667 -24 81s-31.833 39.5 -55.5 51.5s-51.5 18 -83.5 18c-34.667 0 -67.334 -6.33301 -98.001 -19s-58.5 -30.167 -83.5 -52.5s-46.5 -49.333 -64.5 -81s-31.667 -66.5 -41 -104.5s-12.833 -73 -10.5 -105s10.333 -59.5 24 -82.5s32.334 -40.833 56.001 -53.5
s52.167 -19 85.5 -19c34 0 66.167 6.33301 96.5 19s57.833 30.5 82.5 53.5s46 50.5 64 82.5s31.667 67 41 105zM459.004 613.996l-27 64l-60 -64h-76l110 105h72l58 -105h-77z" />
    <glyph glyph-name="glyph184" horiz-adv-x="603" 
d="M737 322c-12.667 -49.333 -31.4961 -94.5039 -56.4961 -135.504s-54.667 -76.167 -89 -105.5s-72.333 -52 -114 -68s-84.834 -24 -129.501 -24c-46.667 0 -86.834 8.33301 -120.501 25s-60.334 39.834 -80.001 69.501s-31.834 64.834 -36.501 105.501s-1 85 11 133
s30.5 92.333 55.5 133s54.667 75.5 89 104.5s72.5 51.667 114.5 68s86 24.5 132 24.5c46.667 0 86.834 -8.16699 120.501 -24.5s60.167 -39.166 79.5 -68.499s31.166 -64.166 35.499 -104.499s0.5 -84.5 -11.5 -132.5zM648.004 321.996c10 39.333 13.667 74.833 11 106.5
s-10.667 58.667 -24 81s-31.833 39.5 -55.5 51.5s-51.5 18 -83.5 18c-34.667 0 -67.334 -6.33301 -98.001 -19s-58.5 -30.167 -83.5 -52.5s-46.5 -49.333 -64.5 -81s-31.667 -66.5 -41 -104.5s-12.833 -73 -10.5 -105s10.333 -59.5 24 -82.5s32.334 -40.833 56.001 -53.5
s52.167 -19 85.5 -19c34 0 66.167 6.33301 96.5 19s57.833 30.5 82.5 53.5s46 50.5 64 82.5s31.667 67 41 105zM566.004 711.996c-14 -58 -47 -87 -99 -87c-6 0 -22.667 5.33301 -50 16c-25.333 10.667 -39.666 16 -42.999 16c-14.667 0 -26.334 -11.333 -35.001 -34h-49
c6 25.333 18 46.333 36 63s38.667 25 62 25c11.333 0 29 -5.33301 53 -16l25 -11c6.66699 -3.33301 11.667 -5 15 -5c16 0 27.667 11 35 33h50v0z" />
    <glyph glyph-name="divide" horiz-adv-x="603" 
d="M737 322c-12.667 -49.333 -31.4961 -94.5039 -56.4961 -135.504s-54.667 -76.167 -89 -105.5s-72.333 -52 -114 -68s-84.834 -24 -129.501 -24c-46.667 0 -86.834 8.33301 -120.501 25s-60.334 39.834 -80.001 69.501s-31.834 64.834 -36.501 105.501s-1 85 11 133
s30.5 92.333 55.5 133s54.667 75.5 89 104.5s72.5 51.667 114.5 68s86 24.5 132 24.5c46.667 0 86.834 -8.16699 120.501 -24.5s60.167 -39.166 79.5 -68.499s31.166 -64.166 35.499 -104.499s0.5 -84.5 -11.5 -132.5zM648.004 321.996c10 39.333 13.667 74.833 11 106.5
s-10.667 58.667 -24 81s-31.833 39.5 -55.5 51.5s-51.5 18 -83.5 18c-34.667 0 -67.334 -6.33301 -98.001 -19s-58.5 -30.167 -83.5 -52.5s-46.5 -49.333 -64.5 -81s-31.667 -66.5 -41 -104.5s-12.833 -73 -10.5 -105s10.333 -59.5 24 -82.5s32.334 -40.833 56.001 -53.5
s52.167 -19 85.5 -19c34 0 66.167 6.33301 96.5 19s57.833 30.5 82.5 53.5s46 50.5 64 82.5s31.667 67 41 105zM456.004 629.996l19 77h69l-19 -77h-69zM316.004 629.996l19 77h68l-19 -77h-68z" />
    <glyph glyph-name="lozenge" horiz-adv-x="453" 
d="M371 109l-88 120l-149 -120l-33 46l148 119l-89 117l55 46l90 -118l147 118l35 -46l-147 -117l88 -119z" />
    <glyph glyph-name="ydieresis" horiz-adv-x="603" 
d="M624 470c26.667 -51.333 30.665 -115.334 11.998 -192.001c-10.667 -43.333 -27 -82.666 -49 -117.999s-47.667 -65.5 -77 -90.5s-62 -44.5 -98 -58.5s-73.333 -21 -112 -21c-66 0 -118 20 -156 60l-82 -71l-30 32l86 74c-27.333 54 -31.666 118.333 -12.999 193
c10 42 25.833 80.333 47.5 115s47.334 64.667 77.001 90s62.667 45 99 59s74.5 21 114.5 21c66.667 0 118 -19 154 -57l81 70l30 -32zM538.998 453.999c-25.333 31.333 -62.333 47.001 -111 47.001c-29.333 0 -57.166 -5.5 -83.499 -16.5s-50.333 -26.167 -72 -45.5
s-40.334 -42.833 -56.001 -70.5s-27.5 -57.834 -35.5 -90.501c-14 -56 -14.667 -102.333 -2 -139zM559.998 278c13.333 55.333 13.667 101.332 1 137.999l-359 -315c26.667 -32 64 -48 112 -48c28.667 0 56.167 5.5 82.5 16.5s50.166 26.333 71.499 46
s39.833 43.334 55.5 71.001s27.834 58.167 36.501 91.5z" />
    <glyph glyph-name="Ydieresis" horiz-adv-x="560" 
d="M643 271c-12.667 -50.667 -28.165 -93.8311 -46.498 -129.498s-40.5 -64.834 -66.5 -87.501s-56 -39.167 -90 -49.5s-73.333 -15.5 -118 -15.5c-47.333 0 -85.833 5.5 -115.5 16.5s-51.5 28 -65.5 51s-20.667 52.167 -20 87.5s7 77.666 19 126.999l93 371h83l-93 -370
c-9.33301 -38.667 -14.5 -71.167 -15.5 -97.5s3.16699 -47.666 12.5 -63.999s23.833 -28 43.5 -35s45.5 -10.5 77.5 -10.5c30.667 0 57.5 3.5 80.5 10.5s43.167 18.667 60.5 35s32.166 37.666 44.499 63.999s23.166 58.833 32.499 97.5l93 370h84l-93 -371v0z
M420.002 686.003l-67 122h104l28 -122h-65z" />
    <glyph glyph-name="fraction" horiz-adv-x="560" 
d="M643 271c-12.667 -50.667 -28.165 -93.8311 -46.498 -129.498s-40.5 -64.834 -66.5 -87.501s-56 -39.167 -90 -49.5s-73.333 -15.5 -118 -15.5c-47.333 0 -85.833 5.5 -115.5 16.5s-51.5 28 -65.5 51s-20.667 52.167 -20 87.5s7 77.666 19 126.999l93 371h83l-93 -370
c-9.33301 -38.667 -14.5 -71.167 -15.5 -97.5s3.16699 -47.666 12.5 -63.999s23.833 -28 43.5 -35s45.5 -10.5 77.5 -10.5c30.667 0 57.5 3.5 80.5 10.5s43.167 18.667 60.5 35s32.166 37.666 44.499 63.999s23.166 58.833 32.499 97.5l93 370h84l-93 -371v0z
M406.002 614.003h-55l77 105h88z" />
    <glyph glyph-name="Euro" horiz-adv-x="560" 
d="M643 271c-12.667 -50.667 -28.165 -93.8311 -46.498 -129.498s-40.5 -64.834 -66.5 -87.501s-56 -39.167 -90 -49.5s-73.333 -15.5 -118 -15.5c-47.333 0 -85.833 5.5 -115.5 16.5s-51.5 28 -65.5 51s-20.667 52.167 -20 87.5s7 77.666 19 126.999l93 371h83l-93 -370
c-9.33301 -38.667 -14.5 -71.167 -15.5 -97.5s3.16699 -47.666 12.5 -63.999s23.833 -28 43.5 -35s45.5 -10.5 77.5 -10.5c30.667 0 57.5 3.5 80.5 10.5s43.167 18.667 60.5 35s32.166 37.666 44.499 63.999s23.166 58.833 32.499 97.5l93 370h84l-93 -371v0z
M437.002 614.003l-27 64l-60 -64h-76l110 105h72l58 -105h-77z" />
    <glyph glyph-name="guilsinglleft" horiz-adv-x="560" 
d="M643 271c-12.667 -50.667 -28.165 -93.8311 -46.498 -129.498s-40.5 -64.834 -66.5 -87.501s-56 -39.167 -90 -49.5s-73.333 -15.5 -118 -15.5c-47.333 0 -85.833 5.5 -115.5 16.5s-51.5 28 -65.5 51s-20.667 52.167 -20 87.5s7 77.666 19 126.999l93 371h83l-93 -370
c-9.33301 -38.667 -14.5 -71.167 -15.5 -97.5s3.16699 -47.666 12.5 -63.999s23.833 -28 43.5 -35s45.5 -10.5 77.5 -10.5c30.667 0 57.5 3.5 80.5 10.5s43.167 18.667 60.5 35s32.166 37.666 44.499 63.999s23.166 58.833 32.499 97.5l93 370h84l-93 -371v0z
M404.002 630.003l19 77h69l-19 -77h-69zM264.002 630.003l19 77h68l-19 -77h-68z" />
    <glyph glyph-name="guilsinglright" horiz-adv-x="517" 
d="M409 272l-67 -272h-86l67 272l-159 370h104l117 -296l267 296h102zM384 590h-55l77 105h88z" />
    <glyph glyph-name="fi" horiz-adv-x="517" 
d="M553 284c-28 -114.667 -111.333 -172.001 -250 -172.001h-141l-27 -112h-72l138 555h72l-28 -110h134c38.667 0 70.667 -3.5 96 -10.5s44.833 -17.167 58.5 -30.5s22 -30.166 25 -50.499s1.16699 -43.5 -5.5 -69.5zM477 281.999c9.33301 36 4.83301 61.333 -13.5 76
s-50.166 22 -95.499 22h-139l-50 -202h141c87.333 0 139.666 34.667 156.999 104z" />
    <glyph glyph-name="fl" horiz-adv-x="474" 
d="M477 118c-4.66699 -19.333 -12.666 -36.8311 -23.999 -52.498s-24.833 -29.167 -40.5 -40.5s-32.667 -20 -51 -26s-36.833 -9 -55.5 -9c-17.333 0 -33.5 2.33301 -48.5 7s-27.5 11.5 -37.5 20.5s-17 19.833 -21 32.5s-4.33301 27 -1 43h67c-4 -30.667 14 -46 54 -46
c19.333 0 37 6 53 18s26.333 27.667 31 47c4.66699 18 1.66699 34 -9 48c-15.333 15.333 -29.333 28.333 -42 39s-23.334 20.667 -32.001 30s-14.667 18.666 -18 27.999s-3.33301 20.333 0 33c2 8 8.16699 19.667 18.5 35l33 48l32.5 46.5
c10 14.333 15.667 24.166 17 29.499c4.66699 18.667 0.5 33.167 -12.5 43.5s-29.5 15.5 -49.5 15.5c-33.333 0 -59.5 -10.833 -78.5 -32.5s-34.167 -55.167 -45.5 -100.5l-93 -375h-71l94 378c30.667 123.333 100.334 185 209.001 185c42 0 74 -9.33301 96 -28
s28.667 -45 20 -79c-6 -24.667 -27.667 -60.334 -65 -107.001c-18.667 -23.333 -29 -39.333 -31 -48c-4 -15.333 3.33301 -30.333 22 -45c21.333 -18 38.166 -32.667 50.499 -44s21.166 -21.833 26.499 -31.5s7.83301 -19.167 7.5 -28.5s-2.16602 -20.666 -5.49902 -33.999z
" />
    <glyph glyph-name="daggerdbl" horiz-adv-x="432" 
d="M357 0l11.002 48c-52.667 -39.333 -112.334 -59 -179.001 -59c-22.667 0 -42.834 3.16699 -60.501 9.5s-32.167 15.5 -43.5 27.5s-19 26.167 -23 42.5s-3.33301 34.5 2 54.5c27.333 109.333 134.666 164 321.999 164h42c6.66699 26.667 10.334 48.167 11.001 64.5
s-2.16602 29 -8.49902 38s-16.5 15 -30.5 18s-32 4.5 -54 4.5c-74 0 -119 -26.667 -135 -80h-81c31.333 95.333 109.666 143 234.999 143c36 0 65.333 -3.33301 88 -10s39.667 -17 51 -31s17.5 -32.167 18.5 -54.5s-2.5 -48.833 -10.5 -79.5l-74 -300h-81zM413.002 225
l-58.001 0.000976562c-120.667 0 -189 -32.667 -205 -98c-12 -48.667 14.333 -73 79 -73c31.333 0 59.833 5.66699 85.5 17s49.834 28.666 72.501 51.999zM350.001 530.001l-67 122h104l28 -122h-65z" />
    <glyph glyph-name="periodcentered" horiz-adv-x="432" 
d="M357 0l11.002 48c-52.667 -39.333 -112.334 -59 -179.001 -59c-22.667 0 -42.834 3.16699 -60.501 9.5s-32.167 15.5 -43.5 27.5s-19 26.167 -23 42.5s-3.33301 34.5 2 54.5c27.333 109.333 134.666 164 321.999 164h42c6.66699 26.667 10.334 48.167 11.001 64.5
s-2.16602 29 -8.49902 38s-16.5 15 -30.5 18s-32 4.5 -54 4.5c-74 0 -119 -26.667 -135 -80h-81c31.333 95.333 109.666 143 234.999 143c36 0 65.333 -3.33301 88 -10s39.667 -17 51 -31s17.5 -32.167 18.5 -54.5s-2.5 -48.833 -10.5 -79.5l-74 -300h-81zM413.002 225
l-58.001 0.000976562c-120.667 0 -189 -32.667 -205 -98c-12 -48.667 14.333 -73 79 -73c31.333 0 59.833 5.66699 85.5 17s49.834 28.666 72.501 51.999zM342.001 458.001h-55l77 105h88z" />
    <glyph glyph-name="quotesinglbase" horiz-adv-x="432" 
d="M357 0l11.002 48c-52.667 -39.333 -112.334 -59 -179.001 -59c-22.667 0 -42.834 3.16699 -60.501 9.5s-32.167 15.5 -43.5 27.5s-19 26.167 -23 42.5s-3.33301 34.5 2 54.5c27.333 109.333 134.666 164 321.999 164h42c6.66699 26.667 10.334 48.167 11.001 64.5
s-2.16602 29 -8.49902 38s-16.5 15 -30.5 18s-32 4.5 -54 4.5c-74 0 -119 -26.667 -135 -80h-81c31.333 95.333 109.666 143 234.999 143c36 0 65.333 -3.33301 88 -10s39.667 -17 51 -31s17.5 -32.167 18.5 -54.5s-2.5 -48.833 -10.5 -79.5l-74 -300h-81zM413.002 225
l-58.001 0.000976562c-120.667 0 -189 -32.667 -205 -98c-12 -48.667 14.333 -73 79 -73c31.333 0 59.833 5.66699 85.5 17s49.834 28.666 72.501 51.999zM373.001 458.001l-27 64l-60 -64h-76l110 105h72l58 -105h-77z" />
    <glyph glyph-name="quotedblbase" horiz-adv-x="432" 
d="M357 0l11.002 48c-52.667 -39.333 -112.334 -59 -179.001 -59c-22.667 0 -42.834 3.16699 -60.501 9.5s-32.167 15.5 -43.5 27.5s-19 26.167 -23 42.5s-3.33301 34.5 2 54.5c27.333 109.333 134.666 164 321.999 164h42c6.66699 26.667 10.334 48.167 11.001 64.5
s-2.16602 29 -8.49902 38s-16.5 15 -30.5 18s-32 4.5 -54 4.5c-74 0 -119 -26.667 -135 -80h-81c31.333 95.333 109.666 143 234.999 143c36 0 65.333 -3.33301 88 -10s39.667 -17 51 -31s17.5 -32.167 18.5 -54.5s-2.5 -48.833 -10.5 -79.5l-74 -300h-81zM413.002 225
l-58.001 0.000976562c-120.667 0 -189 -32.667 -205 -98c-12 -48.667 14.333 -73 79 -73c31.333 0 59.833 5.66699 85.5 17s49.834 28.666 72.501 51.999zM479.001 556.001c-14 -58 -47 -87 -99 -87c-6 0 -22.667 5.33301 -50 16c-25.333 10.667 -39.666 16 -42.999 16
c-14.667 0 -26.334 -11.333 -35.001 -34h-49c6 25.333 18 46.333 36 63s38.667 25 62 25c11.333 0 29 -5.33301 53 -16l25 -11c6.66699 -3.33301 11.667 -5 15 -5c16 0 27.667 11 35 33h50v0z" />
    <glyph glyph-name="perthousand" horiz-adv-x="432" 
d="M357 0l11.002 48c-52.667 -39.333 -112.334 -59 -179.001 -59c-22.667 0 -42.834 3.16699 -60.501 9.5s-32.167 15.5 -43.5 27.5s-19 26.167 -23 42.5s-3.33301 34.5 2 54.5c27.333 109.333 134.666 164 321.999 164h42c6.66699 26.667 10.334 48.167 11.001 64.5
s-2.16602 29 -8.49902 38s-16.5 15 -30.5 18s-32 4.5 -54 4.5c-74 0 -119 -26.667 -135 -80h-81c31.333 95.333 109.666 143 234.999 143c36 0 65.333 -3.33301 88 -10s39.667 -17 51 -31s17.5 -32.167 18.5 -54.5s-2.5 -48.833 -10.5 -79.5l-74 -300h-81zM413.002 225
l-58.001 0.000976562c-120.667 0 -189 -32.667 -205 -98c-12 -48.667 14.333 -73 79 -73c31.333 0 59.833 5.66699 85.5 17s49.834 28.666 72.501 51.999zM370.001 474.001l19 77h69l-19 -77h-69zM230.001 474.001l19 77h68l-19 -77h-68z" />
    <glyph glyph-name="Acircumflex" horiz-adv-x="432" 
d="M411 513c-2 -9.33301 -5.99902 -18 -11.999 -26s-12.833 -15.167 -20.5 -21.5s-16.167 -11.333 -25.5 -15s-18.333 -5.5 -27 -5.5c-19.333 0 -33.833 6.83301 -43.5 20.5s-12.167 29.5 -7.5 47.5c5.33301 19.333 16.166 35.833 32.499 49.5s34.166 20.5 53.499 20.5
s33.833 -6.83301 43.5 -20.5s11.834 -30.167 6.50098 -49.5zM308.001 0l9.99805 42c-45.333 -34.667 -97 -52 -155 -52c-40 0 -70 10.833 -90 32.5s-25.667 49.5 -17 83.5c22.667 94 115 141 277 141h36c6 22.667 9.33301 41 10 55s-1.66602 25 -6.99902 33
s-14 13.333 -26 16s-28 4 -48 4c-64.667 0 -103 -22.667 -115 -68h-70c26.667 82 94.334 123 203.001 123c30.667 0 55.667 -2.83301 75 -8.5s34 -14.5 44 -26.5s15.333 -27.5 16 -46.5s-2.33301 -41.833 -9 -68.5l-64 -260h-70zM382.999 513
c3.33301 11.333 2 21.167 -4 29.5s-14.333 12.5 -25 12.5c-27.333 0 -44.333 -14 -51 -42c-6 -27.333 4 -41 30 -41c10.667 0 21 4.16699 31 12.5s16.333 17.833 19 28.5zM355.999 194.001h-50.001c-103.333 0 -162 -28.333 -176 -85c-11.333 -41.333 11.334 -62 68.001 -62
c52 0 97.333 19.667 136 59z" />
    <glyph glyph-name="Ecircumflex" horiz-adv-x="689" 
d="M415 183c-18 -90.667 9.33105 -136.001 81.998 -136.001c24.667 0 47.834 6.33301 69.501 19s36.5 31 44.5 55h73c-8 -20 -18.667 -38 -32 -54s-28.833 -29.833 -46.5 -41.5s-36.834 -20.5 -57.501 -26.5s-42.334 -9 -65.001 -9c-70.667 0 -116.334 26 -137.001 78
c-45.333 -52 -107.666 -78 -186.999 -78c-18.667 0 -35.334 2.66699 -50.001 8s-26.667 13 -36 23s-15.666 22.167 -18.999 36.5s-2.66602 30.5 2.00098 48.5c22.667 94 112.334 141 269.001 141h35c10 40 11 68 3 84s-30.667 24 -68 24
c-59.333 0 -96.666 -22.667 -111.999 -68h-70c26.667 82 93 123 199 123c68.667 0 110.667 -17 126 -51c21.333 16.667 43.5 29.334 66.5 38.001s47.833 13 74.5 13c58.667 0 99.5 -18.5 122.5 -55.5s26.167 -88.5 9.5 -154.5l-4 -17h-292zM645.998 239.999
c6.66699 76.667 -20.333 115 -81 115c-58.667 0 -103 -38.333 -133 -115h214zM346.998 193.999h-48c-98.667 0 -155 -28.333 -169 -85c-11.333 -41.333 10 -62 64 -62c77.333 0 126 39.667 146 119z" />
    <glyph glyph-name="Aacute" horiz-adv-x="387" 
d="M472 139c-8 -22.667 -19.501 -43.167 -34.501 -61.5s-32.167 -34 -51.5 -47s-40.833 -23.167 -64.5 -30.5s-48.5 -11 -74.5 -11c-34.667 0 -64.167 5.83301 -88.5 17.5s-43.166 28 -56.499 49s-21.333 46.5 -24 76.5s0.666016 63.333 9.99902 100
c10 38.667 24 73.167 42 103.5s39.167 55.833 63.5 76.5s51.166 36.334 80.499 47.001s60.666 16 93.999 16c50.667 0 90 -12.833 118 -38.5s39 -62.5 33 -110.5h-86c4.66699 26.667 -0.666016 47.667 -15.999 63s-37 23 -65 23c-40.667 0 -76.667 -14.833 -108 -44.5
s-54.666 -74.834 -69.999 -135.501c-29.333 -118.667 0.333984 -178 89.001 -178c64 0 105 28.333 123 85h86v0zM276.999 -89c-12 -48.667 -56.333 -73 -133 -73h-18.5c-6.33301 0 -13.166 0.333008 -20.499 1l11 44c7.33301 -0.666992 14.5 -1.16699 21.5 -1.5
s13.833 -0.5 20.5 -0.5c31.333 0 49.666 10 54.999 30c4.66699 20 -10.333 30 -45 30l15 59h53l-7 -28c40.667 -6 56.667 -26.333 48 -61z" />
    <glyph glyph-name="Edieresis" horiz-adv-x="432" 
d="M171 213c-10 -51.333 -6.50293 -90.667 10.4971 -118s47.5 -41 91.5 -41c28.667 0 55.834 7.16699 81.501 21.5s43.167 35.5 52.5 63.5h86c-9.33301 -23.333 -22 -44.166 -38 -62.499s-34.167 -34 -54.5 -47s-42.833 -23 -67.5 -30s-50 -10.5 -76 -10.5
c-36 0 -66.667 5.66699 -92 17s-45.333 27.666 -60 48.999s-23.5 46.833 -26.5 76.5s0.166992 63.167 9.5 100.5c9.33301 36.667 22.833 70 40.5 100s38.834 55.5 63.501 76.5s51.834 37.333 81.501 49s61.167 17.5 94.5 17.5c34.667 0 64 -5.83301 88 -17.5
s42.667 -28 56 -49s21 -46.5 23 -76.5s-1.66699 -63.333 -11 -100l-4 -19h-349zM448.997 277.999c10 89.333 -22.333 134 -97 134c-73.333 0 -128 -44.667 -164 -134h261zM352.997 529.999l-67 122h104l28 -122h-65z" />
    <glyph glyph-name="Egrave" horiz-adv-x="432" 
d="M171 213c-10 -51.333 -6.50293 -90.667 10.4971 -118s47.5 -41 91.5 -41c28.667 0 55.834 7.16699 81.501 21.5s43.167 35.5 52.5 63.5h86c-9.33301 -23.333 -22 -44.166 -38 -62.499s-34.167 -34 -54.5 -47s-42.833 -23 -67.5 -30s-50 -10.5 -76 -10.5
c-36 0 -66.667 5.66699 -92 17s-45.333 27.666 -60 48.999s-23.5 46.833 -26.5 76.5s0.166992 63.167 9.5 100.5c9.33301 36.667 22.833 70 40.5 100s38.834 55.5 63.501 76.5s51.834 37.333 81.501 49s61.167 17.5 94.5 17.5c34.667 0 64 -5.83301 88 -17.5
s42.667 -28 56 -49s21 -46.5 23 -76.5s-1.66699 -63.333 -11 -100l-4 -19h-349zM448.997 277.999c10 89.333 -22.333 134 -97 134c-73.333 0 -128 -44.667 -164 -134h261zM341.997 457.999h-55l77 105h88z" />
    <glyph glyph-name="Iacute" horiz-adv-x="432" 
d="M171 213c-10 -51.333 -6.50293 -90.667 10.4971 -118s47.5 -41 91.5 -41c28.667 0 55.834 7.16699 81.501 21.5s43.167 35.5 52.5 63.5h86c-9.33301 -23.333 -22 -44.166 -38 -62.499s-34.167 -34 -54.5 -47s-42.833 -23 -67.5 -30s-50 -10.5 -76 -10.5
c-36 0 -66.667 5.66699 -92 17s-45.333 27.666 -60 48.999s-23.5 46.833 -26.5 76.5s0.166992 63.167 9.5 100.5c9.33301 36.667 22.833 70 40.5 100s38.834 55.5 63.501 76.5s51.834 37.333 81.501 49s61.167 17.5 94.5 17.5c34.667 0 64 -5.83301 88 -17.5
s42.667 -28 56 -49s21 -46.5 23 -76.5s-1.66699 -63.333 -11 -100l-4 -19h-349zM448.997 277.999c10 89.333 -22.333 134 -97 134c-73.333 0 -128 -44.667 -164 -134h261zM372.997 457.999l-27 64l-60 -64h-76l110 105h72l58 -105h-77z" />
    <glyph glyph-name="Icircumflex" horiz-adv-x="432" 
d="M171 213c-10 -51.333 -6.50293 -90.667 10.4971 -118s47.5 -41 91.5 -41c28.667 0 55.834 7.16699 81.501 21.5s43.167 35.5 52.5 63.5h86c-9.33301 -23.333 -22 -44.166 -38 -62.499s-34.167 -34 -54.5 -47s-42.833 -23 -67.5 -30s-50 -10.5 -76 -10.5
c-36 0 -66.667 5.66699 -92 17s-45.333 27.666 -60 48.999s-23.5 46.833 -26.5 76.5s0.166992 63.167 9.5 100.5c9.33301 36.667 22.833 70 40.5 100s38.834 55.5 63.501 76.5s51.834 37.333 81.501 49s61.167 17.5 94.5 17.5c34.667 0 64 -5.83301 88 -17.5
s42.667 -28 56 -49s21 -46.5 23 -76.5s-1.66699 -63.333 -11 -100l-4 -19h-349zM448.997 277.999c10 89.333 -22.333 134 -97 134c-73.333 0 -128 -44.667 -164 -134h261zM369.997 473.999l19 77h69l-19 -77h-69zM229.997 473.999l19 77h68l-19 -77h-68z" />
    <glyph glyph-name="Idieresis" horiz-adv-x="177" 
d="M190 458l-57 105h88l25 -105h-56zM53 0l100 402h71l-100 -402h-71z" />
    <glyph glyph-name="Igrave" horiz-adv-x="177" 
d="M216 458h-56l76 105h90zM53 0l100 402h71l-100 -402h-71z" />
    <glyph glyph-name="Oacute" horiz-adv-x="177" 
d="M244 458l-25 64l-59 -64h-78l110 105h72l58 -105h-78zM53 0l100 402h71l-100 -402h-71z" />
    <glyph glyph-name="Ocircumflex" horiz-adv-x="177" 
d="M242 474l19 77h70l-19 -77h-70zM102 474l19 77h70l-19 -77h-70zM53 0l100 402h71l-100 -402h-71z" />
    <glyph glyph-name="uniF8FF" horiz-adv-x="432" 
d="M451 196c-8 -32.667 -19.6689 -61.6699 -35.002 -87.0029s-33.333 -46.833 -54 -64.5s-43.834 -31.167 -69.501 -40.5s-52.5 -14 -80.5 -14c-58 0 -99.167 18.333 -123.5 55s-28.833 87 -13.5 151c8 32 19.667 60.667 35 86s33.333 46.833 54 64.5
s43.834 31.334 69.501 41.001s52.834 14.5 81.501 14.5c12 0 22.5 -1.16699 31.5 -3.5s17.5 -6.16602 25.5 -11.499c-7.33301 28.667 -18 53.334 -32 74.001l-102 -42l-11 37l91 37c-8.66699 10.667 -18 21.167 -28 31.5s-21.333 20.5 -34 30.5h82l37 -38l91 38l11 -37
l-76 -32c58.667 -95.333 75.334 -192 50.001 -290zM377.998 195.997c12.667 49.333 11.6699 86.667 -2.99707 112s-39.334 38 -74.001 38c-35.333 0 -66.333 -12.5 -93 -37.5s-46.334 -62.5 -59.001 -112.5c-11.333 -46.667 -10.666 -83.167 2.00098 -109.5
s37.667 -39.5 75 -39.5s69.166 13.167 95.499 39.5s45.166 62.833 56.499 109.5z" />
    <glyph glyph-name="Ograve" horiz-adv-x="432" 
d="M357 0l74 300c18 71.333 -2.33301 107 -61 107c-20.667 0 -42.834 -6 -66.501 -18s-49.167 -30.667 -76.5 -56l-83 -333h-82l116 466h82l-15 -60c54 46 105.667 69 155 69c104.667 0 143.334 -56.667 116.001 -170l-76 -305h-83zM479 556c-14 -58 -47 -87 -99 -87
c-6 0 -22.667 5.33301 -50 16c-25.333 10.667 -39.666 16 -42.999 16c-14.667 0 -26.334 -11.333 -35.001 -34h-49c6 25.333 18 46.333 36 63s38.667 25 62 25c11.333 0 29 -5.33301 53 -16l25 -11c6.66699 -3.33301 11.667 -5 15 -5c16 0 27.667 11 35 33h50v0z" />
    <glyph glyph-name="Uacute" horiz-adv-x="432" 
d="M524 232c-9.33301 -38 -22.998 -72.168 -40.998 -102.501s-39 -55.833 -63 -76.5s-50.667 -36.5 -80 -47.5s-60.333 -16.5 -93 -16.5c-34.667 0 -64.167 5.83301 -88.5 17.5s-43.166 28 -56.499 49s-21.333 46.5 -24 76.5s0.666016 63.333 9.99902 100
c10 38.667 24 73.167 42 103.5s39.167 55.833 63.5 76.5s51.166 36.334 80.499 47.001s60.666 16 93.999 16c34.667 0 64 -5.83301 88 -17.5s42.667 -28 56 -49s21 -46.5 23 -76.5s-1.66699 -63.333 -11 -100zM438.002 231.999c14.667 59.333 13.667 104.168 -3 134.501
s-44.334 45.5 -83.001 45.5c-40.667 0 -76.667 -14.833 -108 -44.5s-54.666 -74.834 -69.999 -135.501c-29.333 -118.667 0.333984 -178 89.001 -178c87.333 0 145.666 59.333 174.999 178zM352.002 530.001l-67 122h104l28 -122h-65z" />
    <glyph glyph-name="Ucircumflex" horiz-adv-x="432" 
d="M524 232c-9.33301 -38 -22.998 -72.168 -40.998 -102.501s-39 -55.833 -63 -76.5s-50.667 -36.5 -80 -47.5s-60.333 -16.5 -93 -16.5c-34.667 0 -64.167 5.83301 -88.5 17.5s-43.166 28 -56.499 49s-21.333 46.5 -24 76.5s0.666016 63.333 9.99902 100
c10 38.667 24 73.167 42 103.5s39.167 55.833 63.5 76.5s51.166 36.334 80.499 47.001s60.666 16 93.999 16c34.667 0 64 -5.83301 88 -17.5s42.667 -28 56 -49s21 -46.5 23 -76.5s-1.66699 -63.333 -11 -100zM438.002 231.999c14.667 59.333 13.667 104.168 -3 134.501
s-44.334 45.5 -83.001 45.5c-40.667 0 -76.667 -14.833 -108 -44.5s-54.666 -74.834 -69.999 -135.501c-29.333 -118.667 0.333984 -178 89.001 -178c87.333 0 145.666 59.333 174.999 178zM342.002 458.001h-55l77 105h88z" />
    <glyph glyph-name="Ugrave" horiz-adv-x="432" 
d="M524 232c-9.33301 -38 -22.998 -72.168 -40.998 -102.501s-39 -55.833 -63 -76.5s-50.667 -36.5 -80 -47.5s-60.333 -16.5 -93 -16.5c-34.667 0 -64.167 5.83301 -88.5 17.5s-43.166 28 -56.499 49s-21.333 46.5 -24 76.5s0.666016 63.333 9.99902 100
c10 38.667 24 73.167 42 103.5s39.167 55.833 63.5 76.5s51.166 36.334 80.499 47.001s60.666 16 93.999 16c34.667 0 64 -5.83301 88 -17.5s42.667 -28 56 -49s21 -46.5 23 -76.5s-1.66699 -63.333 -11 -100zM438.002 231.999c14.667 59.333 13.667 104.168 -3 134.501
s-44.334 45.5 -83.001 45.5c-40.667 0 -76.667 -14.833 -108 -44.5s-54.666 -74.834 -69.999 -135.501c-29.333 -118.667 0.333984 -178 89.001 -178c87.333 0 145.666 59.333 174.999 178zM374.002 458.001l-27 64l-60 -64h-76l110 105h72l58 -105h-77z" />
    <glyph glyph-name="dotlessi" horiz-adv-x="432" 
d="M524 232c-9.33301 -38 -22.998 -72.168 -40.998 -102.501s-39 -55.833 -63 -76.5s-50.667 -36.5 -80 -47.5s-60.333 -16.5 -93 -16.5c-34.667 0 -64.167 5.83301 -88.5 17.5s-43.166 28 -56.499 49s-21.333 46.5 -24 76.5s0.666016 63.333 9.99902 100
c10 38.667 24 73.167 42 103.5s39.167 55.833 63.5 76.5s51.166 36.334 80.499 47.001s60.666 16 93.999 16c34.667 0 64 -5.83301 88 -17.5s42.667 -28 56 -49s21 -46.5 23 -76.5s-1.66699 -63.333 -11 -100zM438.002 231.999c14.667 59.333 13.667 104.168 -3 134.501
s-44.334 45.5 -83.001 45.5c-40.667 0 -76.667 -14.833 -108 -44.5s-54.666 -74.834 -69.999 -135.501c-29.333 -118.667 0.333984 -178 89.001 -178c87.333 0 145.666 59.333 174.999 178zM480.002 556.001c-14 -58 -47 -87 -99 -87c-6 0 -22.667 5.33301 -50 16
c-25.333 10.667 -39.666 16 -42.999 16c-14.667 0 -26.334 -11.333 -35.001 -34h-49c6 25.333 18 46.333 36 63s38.667 25 62 25c11.333 0 29 -5.33301 53 -16l25 -11c6.66699 -3.33301 11.667 -5 15 -5c16 0 27.667 11 35 33h50v0z" />
    <glyph glyph-name="circumflex" horiz-adv-x="432" 
d="M524 232c-9.33301 -38 -22.998 -72.168 -40.998 -102.501s-39 -55.833 -63 -76.5s-50.667 -36.5 -80 -47.5s-60.333 -16.5 -93 -16.5c-34.667 0 -64.167 5.83301 -88.5 17.5s-43.166 28 -56.499 49s-21.333 46.5 -24 76.5s0.666016 63.333 9.99902 100
c10 38.667 24 73.167 42 103.5s39.167 55.833 63.5 76.5s51.166 36.334 80.499 47.001s60.666 16 93.999 16c34.667 0 64 -5.83301 88 -17.5s42.667 -28 56 -49s21 -46.5 23 -76.5s-1.66699 -63.333 -11 -100zM438.002 231.999c14.667 59.333 13.667 104.168 -3 134.501
s-44.334 45.5 -83.001 45.5c-40.667 0 -76.667 -14.833 -108 -44.5s-54.666 -74.834 -69.999 -135.501c-29.333 -118.667 0.333984 -178 89.001 -178c87.333 0 145.666 59.333 174.999 178zM370.002 474.001l19 77h69l-19 -77h-69zM230.002 474.001l19 77h68l-19 -77h-68z
" />
    <glyph glyph-name="tilde" horiz-adv-x="453" 
d="M276 357l19 77h77l-19 -77h-77zM103 242l16 63h367l-16 -63h-367zM215 113l19 78h77l-19 -78h-77z" />
    <glyph glyph-name="macron" horiz-adv-x="432" 
d="M452 200c-16.667 -66.667 -46.3311 -118.333 -88.998 -155s-93 -55 -151 -55c-40.667 0 -74.334 10.667 -101.001 32l-50 -49l-29 27c6 5.33301 13.333 12.333 22 21l31 31c-20.667 36.667 -23.667 86 -9 148c17.333 68 47.666 120 90.999 156s93.333 54 150 54
c42 0 76 -10 102 -30l49 49l31 -27l-54 -53c20.667 -37.333 23 -87 7 -149zM367.003 330.001c-14.667 16.667 -36 24.999 -64 24.999c-35.333 0 -66.333 -12.833 -93 -38.5s-46.667 -64.5 -60 -116.5c-8.66699 -37.333 -10.667 -67.666 -6 -90.999zM379.003 200
c9.33301 37.333 11 68 5 92l-222 -219c14.667 -17.333 36 -26 64 -26c76.667 0 127.667 51 153 153z" />
    <glyph glyph-name="breve" horiz-adv-x="432" 
d="M357 0l14 60c-53.333 -47.333 -106 -71 -158 -71c-104 0 -141.667 57.333 -113 172l76 305h83l-76 -302c-16.667 -70.667 3.33301 -106 60 -106c46 0 95 25 147 75l83 333h81l-116 -466h-81zM355 530l-67 122h104l28 -122h-65z" />
    <glyph glyph-name="dotaccent" horiz-adv-x="432" 
d="M357 0l14 60c-53.333 -47.333 -106 -71 -158 -71c-104 0 -141.667 57.333 -113 172l76 305h83l-76 -302c-16.667 -70.667 3.33301 -106 60 -106c46 0 95 25 147 75l83 333h81l-116 -466h-81zM342 458h-55l77 105h88z" />
    <glyph glyph-name="ring" horiz-adv-x="432" 
d="M357 0l14 60c-53.333 -47.333 -106 -71 -158 -71c-104 0 -141.667 57.333 -113 172l76 305h83l-76 -302c-16.667 -70.667 3.33301 -106 60 -106c46 0 95 25 147 75l83 333h81l-116 -466h-81zM373 458l-27 64l-60 -64h-76l110 105h72l58 -105h-77z" />
    <glyph glyph-name="cedilla" horiz-adv-x="432" 
d="M357 0l14 60c-53.333 -47.333 -106 -71 -158 -71c-104 0 -141.667 57.333 -113 172l76 305h83l-76 -302c-16.667 -70.667 3.33301 -106 60 -106c46 0 95 25 147 75l83 333h81l-116 -466h-81zM370 474l19 77h69l-19 -77h-69zM230 474l19 77h68l-19 -77h-68z" />
    <glyph glyph-name="hungarumlaut" horiz-adv-x="387" 
d="M261 0c-24 -36.667 -44.6689 -67.001 -62.002 -91.001s-33.5 -43.167 -48.5 -57.5s-30.167 -24.5 -45.5 -30.5s-32.333 -9 -51 -9c-10.667 0 -20.167 0.333008 -28.5 1s-16.166 2.33398 -23.499 5.00098l19 75c6.66699 -2 13 -3.33301 19 -4s12.333 -1 19 -1
c40.667 0 83.334 37.333 128.001 112l-60 466h90l33 -365l214 365h90zM319.998 457.999h-55l77 105h88z" />
    <glyph glyph-name="ogonek" horiz-adv-x="432" 
d="M453 204c-8 -32 -19.502 -61.167 -34.502 -87.5s-32.167 -48.833 -51.5 -67.5s-40.666 -33.167 -63.999 -43.5s-47.333 -15.5 -72 -15.5c-43.333 0 -76.666 13.667 -99.999 41l-46 -185h-71l177 709h71l-50 -201c41.333 37.333 84.333 56 129 56
c51.333 0 86.833 -18.333 106.5 -55s21.5 -87 5.5 -151zM379.998 204c26 100.667 6 151 -60 151c-39.333 0 -81 -23.333 -125 -70l-48 -189c22.667 -32.667 54 -49 94 -49c66.667 0 113 52.333 139 157z" />
    <glyph glyph-name="caron" horiz-adv-x="387" 
d="M261 0c-24 -36.667 -44.6689 -67.001 -62.002 -91.001s-33.5 -43.167 -48.5 -57.5s-30.167 -24.5 -45.5 -30.5s-32.333 -9 -51 -9c-10.667 0 -20.167 0.333008 -28.5 1s-16.166 2.33398 -23.499 5.00098l19 75c6.66699 -2 13 -3.33301 19 -4s12.333 -1 19 -1
c40.667 0 83.334 37.333 128.001 112l-60 466h90l33 -365l214 365h90zM347.998 473.999l19 77h69l-19 -77h-69zM207.998 473.999l19 77h68l-19 -77h-68z" />
    <glyph glyph-name="glyph227" horiz-adv-x="775" 
d="M423 0l17.998 74.002c-23.333 -25.333 -51 -45.666 -83 -60.999s-63 -23 -93 -23c-36 0 -66.667 6.66699 -92 20s-44.833 32.5 -58.5 57.5s-21.5 55.333 -23.5 91s2.66699 75.5 14 119.5c10.667 44 25.834 83.667 45.501 119s42.5 65.166 68.5 89.499
s55 43.166 87 56.499s66 20 102 20c30 0 57.333 -7.33301 82 -22s42.334 -34.334 53.001 -59.001l18 73h298l-17 -67h-224l-42 -168h203l-16 -67h-203l-47 -187h237l-16 -66h-311zM491.998 278.002c36.667 148.667 3.66797 222.999 -98.999 222.999
c-49.333 0 -92.5 -18.833 -129.5 -56.5s-64.5 -93.167 -82.5 -166.5c-18.667 -73.333 -18.834 -129.166 -0.500977 -167.499s51.5 -57.5 99.5 -57.5c103.333 0 174 75 212 225z" />
    </font>
</defs>
</svg>
