<?xml version="1.0" standalone="no"?>
<!DOCTYPE svg PUBLIC "-//W3C//DTD SVG 1.1//EN" "http://www.w3.org/Graphics/SVG/1.1/DTD/svg11.dtd" >
<svg>
<metadata>
Created by FontForge 20090914 at Mon Dec 19 06:18:10 2022
 By www-data
Copyright (c) 2018 by &#194;&#169; Summit Information Technologies Pvt. Ltd.. All rights reserved.
</metadata>
<defs>
<font id="KalingaVUni-Bold" horiz-adv-x="14" >
  <font-face 
    font-family="KalingaVUni"
    font-weight="700"
    font-stretch="normal"
    units-per-em="1000"
    panose-1="2 0 8 6 2 0 0 2 0 4"
    ascent="800"
    descent="-200"
    x-height="466"
    cap-height="642"
    bbox="-602.998 -567.995 1509 1061"
    underline-thickness="40"
    underline-position="-170"
    unicode-range="U+0020-U+25CC"
  />
<missing-glyph horiz-adv-x="615" 
d="M77 923h462v-923h-462v923zM461 77v769h-307v-769h307z" />
    <glyph glyph-name=".notdef" horiz-adv-x="615" 
d="M77 923h462v-923h-462v923zM461 77v769h-307v-769h307z" />
    <glyph glyph-name="space" unicode=" " horiz-adv-x="332" 
 />
    <glyph glyph-name="exclam" unicode="!" horiz-adv-x="250" 
d="M97 160v482h73v-482h-73zM80 0v90h90v-90h-90z" />
    <glyph glyph-name="quotedbl" unicode="&#x22;" horiz-adv-x="317" 
d="M261 415h-48l-22 227h89v-104zM107 415h-49l-21 227h90v-104z" />
    <glyph glyph-name="numbersign" unicode="#" horiz-adv-x="498" 
d="M402 400l-32 -159h83v-64h-96l-36 -177h-68l37 177h-140l-36 -177h-66l36 177h-74v64h87l32 159h-83v66h97l35 176h67l-37 -176h141l37 176h65l-35 -176h72v-66h-86zM196 400l-32 -159h140l31 159h-139z" />
    <glyph glyph-name="dollar" unicode="$" horiz-adv-x="493" 
d="M459 186c0 -28 -4.66602 -53.6709 -13.999 -77.0039s-22.333 -43.5 -39 -60.5s-36.5 -30.667 -59.5 -41s-47.833 -16.166 -74.5 -17.499v-69h-47v68c-118.667 12 -182.334 76 -191.001 192h85c6 -72.667 41.333 -114.667 106 -126v245
c-59.333 12.667 -103.666 33.167 -132.999 61.5s-44 66.166 -44 113.499c0 53.333 16 94.833 48 124.5s75 47.167 129 52.5v69h47v-69c103.333 -6 160.666 -58.667 171.999 -158h-86c-4.66699 54 -33.334 85 -86.001 93v-220c36 -7.33301 65.833 -16.166 89.5 -26.499
s42.834 -22.666 57.501 -36.999s25 -31.166 31 -50.499s9 -41.666 9 -66.999zM225.001 587.996c-61.333 -11.333 -92 -47.333 -92 -108c0 -54 30.667 -88.667 92 -104v212zM373.001 179.996c0 15.333 -1.5 28.668 -4.5 40.001s-8.33301 21.333 -16 30s-18 16.167 -31 22.5
s-29.5 12.166 -49.5 17.499v-235c67.333 9.33301 101 51 101 125z" />
    <glyph glyph-name="percent" unicode="%" horiz-adv-x="798" 
d="M742 160c0 -50.667 -12.666 -91.832 -37.999 -123.499s-62 -47.5 -110 -47.5c-43.333 0 -78.333 15.667 -105 47s-40 72.666 -40 123.999c0 24.667 3.16699 47.334 9.5 68.001s15.666 38.667 27.999 54s27.5 27.333 45.5 36s38.667 13 62 13
c22 0 42.167 -4.33301 60.5 -13s34 -20.667 47 -36s23 -33.333 30 -54s10.5 -43.334 10.5 -68.001zM255.001 0.00195312h-64l350 642h64zM349.001 483.002c0 -52 -12.665 -93.501 -37.998 -124.501s-61.666 -46.5 -108.999 -46.5c-44.667 0 -80 15.5 -106 46.5
s-39 72.5 -39 124.5c0 24 3.16699 46.333 9.5 67s15.666 38.5 27.999 53.5s27.5 26.833 45.5 35.5s38.667 13 62 13s44.166 -4.33301 62.499 -13s33.666 -20.667 45.999 -36s21.833 -33.166 28.5 -53.499s10 -42.5 10 -66.5zM670.003 160.001c0 78 -25.333 117 -76 117
c-49.333 0 -74 -39 -74 -117s24.667 -117 74 -117c50.667 0 76 39 76 117zM278.003 483.001c0 78 -25.333 117 -76 117c-50 0 -75 -39 -75 -117c0 -77.333 25 -116 75 -116c50.667 0 76 38.667 76 116z" />
    <glyph glyph-name="ampersand" unicode="&#x26;" horiz-adv-x="590" 
d="M488 -11l-54.998 71.002c-24.667 -24 -53 -41.833 -85 -53.5s-67.333 -17.5 -106 -17.5c-28 0 -54.333 4.66699 -79 14s-46.334 22.5 -65.001 39.5s-33.334 36.833 -44.001 59.5s-16 47.667 -16 75c0 40 12.167 74.333 36.5 103s61.833 58 112.5 88
c-22 29.333 -38.833 55.5 -50.5 78.5s-17.5 44.167 -17.5 63.5c0 22 4.33301 41.667 13 59s20.167 32.166 34.5 44.499s31.166 21.833 50.499 28.5s40 10 62 10c20 0 39 -3.33301 57 -10s33.667 -16.167 47 -28.5s24 -26.833 32 -43.5s12 -35 12 -55
c0 -56.667 -42 -110.334 -126 -161.001l131 -161c12 32.667 19 68.667 21 108h86c-5.33301 -64.667 -22.666 -123.667 -51.999 -177l65 -81zM348.002 514.002c0 21.333 -7.16699 39 -21.5 53s-31.833 21 -52.5 21c-20 0 -37.333 -6.66699 -52 -20s-22 -29.666 -22 -48.999
c0 -13.333 3.33301 -26.833 10 -40.5s16.667 -28.834 30 -45.501l21 -27c58 32.667 87 68.667 87 108zM231.002 315.002c-71.333 -42 -107 -86.332 -107 -132.999c0 -16.667 3.16699 -32.334 9.5 -47.001s14.833 -27.5 25.5 -38.5s23.167 -19.833 37.5 -26.5
s29.5 -10 45.5 -10c60.667 0 108.667 19.333 144 58z" />
    <glyph glyph-name="quotesingle" unicode="'" horiz-adv-x="169" 
d="M111 415h-49l-23 123v104h90v-104z" />
    <glyph glyph-name="parenleft.001" unicode="(" horiz-adv-x="386" 
d="M353 -144c-28.667 34.667 -55.501 74.168 -80.501 118.501s-46.833 90 -65.5 137s-33.5 93.167 -44.5 138.5s-16.5 86.333 -16.5 123c0 38 5.33301 79.5 16 124.5s25.334 90.667 44.001 137s41 91.833 67 136.5s54.333 85.667 85 123h31
c-116.667 -180.667 -175 -354.334 -175 -521.001c0 -166 59 -339 177 -519z" />
    <glyph glyph-name="parenright.001" unicode=")" horiz-adv-x="386" 
d="M296 373c0 -152.667 -69.667 -325.334 -209 -518.001l-35 -1c119.333 177.333 179 350.333 179 519c0 170.667 -59.333 344.334 -178 521.001h31c28.667 -34.667 56 -74 82 -118s48.5 -89.5 67.5 -136.5s34.167 -93.5 45.5 -139.5s17 -88.333 17 -127z" />
    <glyph glyph-name="asterisk.001" unicode="*" horiz-adv-x="557" 
d="M568 630c0 -7.33301 -2 -14.5098 -6 -21.5098s-9 -13.167 -15 -18.5s-13 -9.5 -21 -12.5s-16 -4.5 -24 -4.5c-11.333 0 -21.666 3.66699 -30.999 11l-135 134l55 -160c2.66699 -3.33301 4 -8 4 -14c0 -13.333 -7 -25.333 -21 -36s-30 -16 -48 -16
s-34.167 6.16699 -48.5 18.5s-21.5 27.5 -21.5 45.5c0 4 1.33301 8 4 12l54 154l-110 -122c-6.66699 -7.33301 -14.5 -12.666 -23.5 -15.999s-18.167 -5 -27.5 -5c-20 0 -37 5.16699 -51 15.5s-21 24.833 -21 43.5c0 15.333 5.5 30 16.5 44s24.167 22.667 39.5 26l163 31
l-173 47c-26.667 6.66699 -40 26.334 -40 59.001c0 20.667 6.33301 36.834 19 48.501s28.667 17.5 48 17.5c14.667 0 27.334 -5.33301 38.001 -16l122 -132l-54 150c-1.33301 3.33301 -2 7.33301 -2 12c0 6.66699 2 13.834 6 21.501s9.33301 14.834 16 21.501
s14.167 12 22.5 16s16.833 6 25.5 6c20 0 36.5 -5.66699 49.5 -17s19.5 -24 19.5 -38c0 -5.33301 -0.666992 -10.666 -2 -15.999l-54 -160l125 134c3.33301 4.66699 8.16602 7.83398 14.499 9.50098s13.833 2.5 22.5 2.5c19.333 0 34.666 -4.66699 45.999 -14
s17 -24.333 17 -45c0 -33.333 -12.333 -53.666 -37 -60.999l-178 -46l171 -34c4.66699 -1.33301 9.66699 -4.5 15 -9.5s10.333 -11.167 15 -18.5s8.5 -15.166 11.5 -23.499s4.5 -16.166 4.5 -23.499z" />
    <glyph glyph-name="plus.001" unicode="+" horiz-adv-x="728" 
d="M448 346v-346h-52v346h-352v53h352v344h52v-344h352v-53h-352z" />
    <glyph glyph-name="comma" unicode="," horiz-adv-x="250" 
d="M170 0c0 -84.667 -30 -127 -90 -127v42c29.333 0 44 28.333 44 85h-44v90h90v-90v0z" />
    <glyph glyph-name="hyphen.001" unicode="-" horiz-adv-x="446" 
d="M45 303v61h357v-61h-357z" />
    <glyph glyph-name="period" unicode="." horiz-adv-x="250" 
d="M80 0v90h90v-90h-90z" />
    <glyph glyph-name="slash.001" unicode="/" horiz-adv-x="315" 
d="M93 -245h-51l236 1095l58 4z" />
    <glyph glyph-name="zero" unicode="0" horiz-adv-x="498" 
d="M459 321c0 -221.333 -69.667 -332 -209 -332c-140.667 0 -211 110.667 -211 332c0 220.667 70.333 331 211 331c139.333 0 209 -110.333 209 -331zM373 321c0 92 -9.5 159.499 -28.5 202.499s-50.5 64.5 -94.5 64.5c-44.667 0 -76.667 -22.167 -96 -66.5
s-29 -111.166 -29 -200.499c0 -93.333 9.83301 -161.166 29.5 -203.499s51.5 -63.5 95.5 -63.5s75.5 21.667 94.5 65s28.5 110.666 28.5 201.999z" />
    <glyph glyph-name="one" unicode="1" horiz-adv-x="435" 
d="M253 0v506c-33.333 -23.333 -84.333 -35 -153 -35v64c100 0 157.667 39 173 117h63v-652h-83z" />
    <glyph glyph-name="two" unicode="2" horiz-adv-x="481" 
d="M28 0c0 20 2.83398 39.168 8.50098 57.501s15 37 28 56s30.333 39 52 60s48.5 44.5 80.5 70.5c36.667 29.333 66.167 54.166 88.5 74.499s39.5 38.833 51.5 55.5s20 32.667 24 48s6 33 6 53c0 75.333 -39 113 -117 113c-75.333 0 -116 -40.333 -122 -121h-85
c5.33301 59.333 26.666 105 63.999 137s85.333 48 144 48c32 0 60.333 -4.5 85 -13.5s45.5 -21.5 62.5 -37.5s30 -35 39 -57s13.5 -46 13.5 -72c0 -24 -2.5 -45.5 -7.5 -64.5s-14.5 -38.5 -28.5 -58.5s-33.333 -41.667 -58 -65s-56.667 -51.666 -96 -84.999
c-78 -64.667 -117.333 -105.334 -118 -122.001h310v-77h-425z" />
    <glyph glyph-name="three" unicode="3" horiz-adv-x="499" 
d="M460 189c0 -30 -5.50293 -57.165 -16.5029 -81.498s-26 -45.333 -45 -63s-41.5 -31.334 -67.5 -41.001s-54 -14.5 -84 -14.5c-28.667 0 -55.167 4.16699 -79.5 12.5s-45.833 20.166 -64.5 35.499s-33.5 34.333 -44.5 57s-17.5 48 -19.5 76h85
c0 -35.333 11.833 -63.5 35.5 -84.5s52.834 -31.5 87.501 -31.5c20 0 37.833 3.33301 53.5 10s29 16 40 28s19.5 26 25.5 42s9 33.667 9 53c0 84.667 -46.667 127 -140 127h-31v64h19c80 0 120 36.667 120 110c0 66.667 -33.667 100 -101 100c-66.667 0 -103 -34 -109 -102
h-85c6 52 25.5 92.667 58.5 122s77.833 44 134.5 44c26.667 0 51.334 -3.5 74.001 -10.5s42.334 -17.333 59.001 -31s29.667 -30.834 39 -51.501s14 -45 14 -73c0 -61.333 -29.333 -105.666 -88 -132.999c38 -9.33301 67.667 -29 89 -59s32 -65 32 -105z" />
    <glyph glyph-name="four" unicode="4" horiz-adv-x="472" 
d="M370 154v-154h-82v154h-273v72l291 425h64v-425h88v-72h-88zM288 520l-198 -294h198v294z" />
    <glyph glyph-name="five" unicode="5" horiz-adv-x="499" 
d="M462 218c0 -33.333 -5.16602 -63.999 -15.499 -91.999s-25 -52.167 -44 -72.5s-42 -36.166 -69 -47.499s-56.833 -17 -89.5 -17c-58.667 0 -106.167 15.667 -142.5 47s-57.833 75.666 -64.5 132.999h86c10 -76.667 50.333 -115 121 -115
c19.333 0 37.166 4.16699 53.499 12.5s30.5 19.5 42.5 33.5s21.333 30.5 28 49.5s10 39.167 10 60.5c0 43.333 -12.167 78.666 -36.5 105.999s-57.5 41 -99.5 41c-44 0 -83 -17.667 -117 -53h-63l27 338h344v-76h-274l-14 -179c32 26 71.333 39 118 39
c28.667 0 55.167 -5.5 79.5 -16.5s45.333 -25.833 63 -44.5s31.5 -40.667 41.5 -66s15 -52.333 15 -81z" />
    <glyph glyph-name="six" unicode="6" horiz-adv-x="501" 
d="M461 208c0 -32 -5.16602 -61.333 -15.499 -88s-24.5 -49.667 -42.5 -69s-39.167 -34.5 -63.5 -45.5s-50.5 -16.5 -78.5 -16.5c-36 0 -67.833 7.16699 -95.5 21.5s-50.834 35 -69.501 62s-32.834 59.667 -42.501 98s-14.5 81.5 -14.5 129.5c0 234.667 76.333 352 229 352
c106.667 0 167.334 -53 182.001 -159h-83c-8.66699 63.333 -43.334 95 -104.001 95c-83.333 0 -129.666 -80.667 -138.999 -242c40 46.667 88.333 70 145 70c28 0 53.667 -5.66699 77 -17s43.5 -26.5 60.5 -45.5s30.333 -41 40 -66s14.5 -51.5 14.5 -79.5zM376.001 204
c0 20 -2.66797 39 -8.00098 57s-13.166 33.833 -23.499 47.5s-23 24.334 -38 32.001s-31.833 11.5 -50.5 11.5c-45.333 0 -89.666 -23.333 -132.999 -70c2 -152 47.667 -228 137 -228c17.333 0 33.166 4 47.499 12s26.5 18.667 36.5 32s17.833 29.166 23.5 47.499
s8.5 37.833 8.5 58.5z" />
    <glyph glyph-name="seven" unicode="7" horiz-adv-x="502" 
d="M225 0h-92l238 566h-328v76h416v-58z" />
    <glyph glyph-name="eight" unicode="8" horiz-adv-x="498" 
d="M461 171c0 -28 -5.33496 -53.3311 -16.002 -75.998s-25.5 -41.834 -44.5 -57.501s-41.333 -27.667 -67 -36s-53.5 -12.5 -83.5 -12.5c-31.333 0 -60 4 -86 12s-48.5 19.667 -67.5 35s-33.667 34.333 -44 57s-15.5 48.667 -15.5 78c0 70 44.667 125.333 134 166
c-72 41.333 -108 93.666 -108 156.999c0 23.333 4.5 44.666 13.5 63.999s21.833 36 38.5 50s36.334 24.833 59.001 32.5s48 11.5 76 11.5c26 0 50.333 -3.33301 73 -10s42.334 -16.5 59.001 -29.5s29.667 -29.5 39 -49.5s14 -43 14 -69
c0 -63.333 -36 -115.666 -108 -156.999c89.333 -40.667 134 -96 134 -166zM351.998 494.002c0 62.667 -34 94 -102 94s-102 -31.333 -102 -94c0 -51.333 34 -92.333 102 -123c68 31.333 102 72.333 102 123zM375.998 171.002c0 49.333 -42 92.332 -126 128.999
c-47.333 -20 -80.333 -40.167 -99 -60.5s-28 -43.166 -28 -68.499c0 -37.333 11.667 -66.166 35 -86.499s54 -30.5 92 -30.5s68.5 10.167 91.5 30.5s34.5 49.166 34.5 86.499z" />
    <glyph glyph-name="nine" unicode="9" horiz-adv-x="496" 
d="M459 342c0 -235.333 -75.666 -353.002 -226.999 -353.002c-52 0 -93.833 14.167 -125.5 42.5s-51.167 67.166 -58.5 116.499h86c6.66699 -62.667 40.667 -94 102 -94c81.333 0 127.666 80.667 138.999 242c-43.333 -46.667 -92 -70 -146 -70
c-27.333 0 -52.833 5.33301 -76.5 16s-44 25.334 -61 44.001s-30.333 40.5 -40 65.5s-14.5 52.167 -14.5 81.5c0 32 5.16699 61.333 15.5 88s24.5 49.834 42.5 69.501s39.167 34.834 63.5 45.501s50.5 16 78.5 16c148 0 222 -103.333 222 -310zM376.001 358.998
c-2.66699 152.667 -47.666 228.999 -134.999 228.999c-18.667 0 -35.334 -4 -50.001 -12s-27 -18.667 -37 -32s-17.667 -29.166 -23 -47.499s-8 -37.5 -8 -57.5s2.66699 -39 8 -57s13 -33.667 23 -47s22.333 -23.833 37 -31.5s31.667 -11.5 51 -11.5
c46 0 90.667 22.333 134 67z" />
    <glyph glyph-name="colon" unicode=":" horiz-adv-x="250" 
d="M80 375v91h90v-91h-90zM80 0v90h90v-90h-90z" />
    <glyph glyph-name="semicolon" unicode=";" horiz-adv-x="250" 
d="M80 375v91h90v-91h-90zM170 0c0 -84.667 -30 -127 -90 -127v42c29.333 0 44 28.333 44 85h-44v90h90v-90z" />
    <glyph glyph-name="less" unicode="&#x3c;" horiz-adv-x="525" 
d="M50 280v73l425 181v-78l-338 -139l338 -139v-78z" />
    <glyph glyph-name="equal" unicode="=" horiz-adv-x="525" 
d="M50 378v73h425v-73h-425zM50 182v74h425v-74h-425z" />
    <glyph glyph-name="greater" unicode="&#x3e;" horiz-adv-x="525" 
d="M50 100v78l336 139l-336 139v78l425 -181v-73z" />
    <glyph glyph-name="question" unicode="?" horiz-adv-x="498" 
d="M456 478c0 -28.667 -8.00293 -55.6689 -24.0029 -81.002s-39.333 -52 -70 -80l-36 -32c-8 -7.33301 -14.5 -14.166 -19.5 -20.499s-9 -14 -12 -23s-5.16699 -20 -6.5 -33s-2.33301 -29.5 -3 -49.5h-77c0 68 14.333 119 43 153l64 61c12 10.667 21.5 20.334 28.5 29.001
s12.5 16.667 16.5 24s6.66699 14.666 8 21.999s2 15.333 2 24c0 17.333 -3.16699 33.166 -9.5 47.499s-14.833 26.5 -25.5 36.5s-23.167 17.833 -37.5 23.5s-29.833 8.5 -46.5 8.5c-70.667 0 -112 -40.333 -124 -121h-85c1.33301 28.667 7.5 54.334 18.5 77.001
s25.833 42 44.5 58s40.334 28.333 65.001 37s51.334 13 80.001 13s55.5 -3.66699 80.5 -11s46.833 -18.166 65.5 -32.499s33.334 -32.5 44.001 -54.5s16 -47.333 16 -76zM203.997 -0.00195312v90h90v-90h-90z" />
    <glyph glyph-name="at" unicode="@" horiz-adv-x="909" 
d="M859 312c0 -47.333 -6.33008 -90.335 -18.9971 -129.002s-30.667 -71.5 -54 -98.5s-51.333 -47.833 -84 -62.5s-68.667 -22 -108 -22c-52 0 -80 24.333 -84 73c-34.667 -48.667 -79.334 -73 -134.001 -73c-24 0 -45.833 4.33301 -65.5 13s-36.5 20.834 -50.5 36.501
s-24.833 34.5 -32.5 56.5s-11.5 46 -11.5 72c0 32.667 5.83301 66.5 17.5 101.5s27.834 67 48.501 96s44.834 52.833 72.501 71.5s57.5 28 89.5 28c61.333 0 107.666 -19 138.999 -57l10 43h77l-67 -292c-4 -17.333 -6.66699 -32 -8 -44s-2 -22.667 -2 -32
c0 -20 7.33301 -30 22 -30c24.667 0 47.834 5.16699 69.501 15.5s40.667 26 57 47s29.333 47.333 39 79s14.5 68.5 14.5 110.5c0 40.667 -7.83301 78 -23.5 112s-37.5 63.333 -65.5 88s-61 44 -99 58s-79.333 21 -124 21c-52.667 0 -101.334 -10.167 -146.001 -30.5
s-83.334 -48 -116.001 -83s-58.334 -76.167 -77.001 -123.5s-28 -98 -28 -152c0 -52.667 8.5 -99.667 25.5 -141s41.667 -76.166 74 -104.499s71.833 -49.833 118.5 -64.5s99.667 -22 159 -22c74 0 135.333 11.667 184 35l33 -54c-32 -13.333 -66 -23.666 -102 -30.999
s-74.333 -11 -115 -11c-69.333 0 -131.333 9.16699 -186 27.5s-101 44.5 -139 78.5s-67.167 75.333 -87.5 124s-30.5 103 -30.5 163c0 64 10.667 123.333 32 178s51.333 102.167 90 142.5s84.667 71.833 138 94.5s111.666 34 174.999 34c55.333 0 105.833 -8.5 151.5 -25.5
s85 -40.833 118 -71.5s58.667 -66.834 77 -108.501s27.5 -87.167 27.5 -136.5zM567.003 353.998c-12.667 18.667 -28.5 32.832 -47.5 42.499s-42.167 14.5 -69.5 14.5c-19.333 0 -38 -6.83301 -56 -20.5s-34.167 -31.5 -48.5 -53.5s-25.833 -46.667 -34.5 -74
s-13 -54.666 -13 -81.999c0 -78.667 31 -118 93 -118c14.667 0 29.667 3 45 9s29.5 15 42.5 27s24.5 26.833 34.5 44.5s17 38.167 21 61.5z" />
    <glyph glyph-name="A" unicode="A" horiz-adv-x="649" 
d="M529 0l-75 196h-269l-71 -196h-89l246 642h91l263 -642h-96zM316 561l-109 -298h222z" />
    <glyph glyph-name="B" unicode="B" horiz-adv-x="625" 
d="M552 187c0 -124.667 -80 -187.001 -240 -187.001h-239v642h227c68 0 121.667 -13.667 161 -41s59 -68.333 59 -123c0 -62 -31 -107.667 -93 -137c83.333 -19.333 125 -70.666 125 -153.999zM438 470.999c0 34 -12 58.333 -36 73s-60.667 22 -110 22h-136v-193h143
c92.667 0 139 32.667 139 98zM465 186.999c0 38.667 -12.668 66.5 -38.001 83.5s-67.666 25.5 -126.999 25.5h-144v-219h156c102 0 153 36.667 153 110z" />
    <glyph glyph-name="C" unicode="C" horiz-adv-x="645" 
d="M603 204c-4 -34 -13.001 -64.166 -27.001 -90.499s-32.333 -48.833 -55 -67.5s-49.167 -32.834 -79.5 -42.501s-63.833 -14.5 -100.5 -14.5c-45.333 0 -86.5 7.83301 -123.5 23.5s-68.5 38 -94.5 67s-46 64 -60 105s-21 86.833 -21 137.5s7.16699 96.334 21.5 137.001
s34.5 75.334 60.5 104.001s57.333 50.667 94 66s77.667 23 123 23c68.667 0 126.667 -16.833 174 -50.5s76.666 -84.834 87.999 -153.501h-89c-2 21.333 -7.66699 40.166 -17 56.499s-21.666 30 -36.999 41s-33.166 19.333 -53.499 25s-41.833 8.5 -64.5 8.5
c-34 0 -64.167 -6.16699 -90.5 -18.5s-48.5 -29.833 -66.5 -52.5s-31.833 -49.667 -41.5 -81s-14.5 -66.333 -14.5 -105c0 -84 18.667 -148.333 56 -193s89.333 -67 156 -67c107.333 0 165 47.333 173 142h89v0z" />
    <glyph glyph-name="D" unicode="D" horiz-adv-x="675" 
d="M603 325c0 -216.667 -109.667 -325 -329 -325h-201v642h201c219.333 0 329 -105.667 329 -317zM515 325c0 42.667 -4.49805 79.334 -13.498 110.001s-23.333 55.667 -43 75s-44.834 33.5 -75.501 42.5s-67.334 13.5 -110.001 13.5h-117v-489h117
c42.667 0 79.167 4.5 109.5 13.5s55.333 23.333 75 43s34.167 45.167 43.5 76.5s14 69.666 14 114.999z" />
    <glyph glyph-name="E" unicode="E" horiz-adv-x="624" 
d="M73 0v642h462v-76h-379v-196h356v-76h-356v-217h395v-77h-478z" />
    <glyph glyph-name="F" unicode="F" horiz-adv-x="578" 
d="M156 566v-198h303v-76h-303v-292h-83v642h433v-76h-350z" />
    <glyph glyph-name="G" unicode="G" horiz-adv-x="683" 
d="M579 0l-20.999 65.999c-44 -51.333 -112.333 -77 -205 -77c-45.333 0 -87 8 -125 24s-70.833 38.5 -98.5 67.5s-49.167 64 -64.5 105s-23 86.5 -23 136.5c0 48.667 7.5 93.334 22.5 134.001s36 75.5 63 104.5s59.5 51.5 97.5 67.5s80 24 126 24
c75.333 0 138.166 -16.833 188.499 -50.5s80.166 -84.834 89.499 -153.501h-88c-8 87.333 -71 131 -189 131c-35.333 0 -66.833 -6.16699 -94.5 -18.5s-51 -29.666 -70 -51.999s-33.5 -49.333 -43.5 -81s-15 -66.834 -15 -105.501c0 -40 5.16699 -76.167 15.5 -108.5
s25.333 -59.666 45 -81.999s43.167 -39.5 70.5 -51.5s58 -18 92 -18c92.667 0 161.334 30.667 206.001 92v97h-169v76h252v-327h-62z" />
    <glyph glyph-name="H" unicode="H" horiz-adv-x="648" 
d="M492 0v301h-336v-301h-83v642h83v-263h336v263h84v-642h-84z" />
    <glyph glyph-name="I" unicode="I" horiz-adv-x="251" 
d="M82 0v642h87v-642h-87z" />
    <glyph glyph-name="J" unicode="J" horiz-adv-x="402" 
d="M378 205c0 -76 -15.167 -131.002 -45.5 -165.002s-75.5 -51 -135.5 -51c-26.667 0 -50.667 4.33301 -72 13s-39.333 20.834 -54 36.501s-26 34.334 -34 56.001s-12 45.5 -12 71.5v16h84c0 -78 29.333 -117 88 -117c32.667 0 56.667 9.5 72 28.5s23 54.5 23 106.5v442h86
v-437v0z" />
    <glyph glyph-name="K" unicode="K" horiz-adv-x="669" 
d="M485 0l-229 321l-100 -98v-223h-83v642h83v-317l314 317h115l-269 -263l281 -379h-112z" />
    <glyph glyph-name="L" unicode="L" horiz-adv-x="542" 
d="M73 0v642h83v-565h314v-77h-397z" />
    <glyph glyph-name="M" unicode="M" horiz-adv-x="749" 
d="M594 0v546l-182 -546h-77l-182 546v-546h-80v642h126l174 -535l176 535h128v-642h-83z" />
    <glyph glyph-name="N" unicode="N" horiz-adv-x="648" 
d="M488 0l-335 507v-507h-80v642h86l337 -507v507h80v-642h-88z" />
    <glyph glyph-name="O" unicode="O" horiz-adv-x="699" 
d="M657 322c0 -49.333 -7.50098 -94.5039 -22.501 -135.504s-36 -76.167 -63 -105.5s-59.333 -52 -97 -68s-78.834 -24 -123.501 -24c-46.667 0 -89 8.33301 -127 25s-70.5 39.834 -97.5 69.501s-47.833 64.834 -62.5 105.501s-22 85 -22 133s7.5 92.333 22.5 133
s36 75.5 63 104.5s59.5 51.667 97.5 68s80 24.5 126 24.5c46.667 0 88.834 -8.16699 126.501 -24.5s69.834 -39.166 96.501 -68.499s47.167 -64.166 61.5 -104.499s21.5 -84.5 21.5 -132.5zM567.999 321.996c0 39.333 -5.16504 74.833 -15.498 106.5s-25 58.667 -44 81
s-41.833 39.5 -68.5 51.5s-56 18 -88 18c-34.667 0 -65.834 -6.33301 -93.501 -19s-51 -30.167 -70 -52.5s-33.667 -49.333 -44 -81s-15.5 -66.5 -15.5 -104.5s5.16699 -73 15.5 -105s25.166 -59.5 44.499 -82.5s42.5 -40.833 69.5 -53.5s57.167 -19 90.5 -19
c34 0 64.5 6.33301 91.5 19s50 30.5 69 53.5s33.5 50.5 43.5 82.5s15 67 15 105z" />
    <glyph glyph-name="P" unicode="P" horiz-adv-x="632" 
d="M560 454c0 -132 -80.333 -198 -241 -198h-163v-256h-83v642h268c146 0 219 -62.667 219 -188zM471 451c0 40 -12.167 69.167 -36.5 87.5s-60.5 27.5 -108.5 27.5h-170v-233h163c101.333 0 152 39.333 152 118z" />
    <glyph glyph-name="Q" unicode="Q" horiz-adv-x="710" 
d="M619 -52l-107.001 84.9961c-25.333 -15.333 -51.333 -26.5 -78 -33.5s-54.334 -10.5 -83.001 -10.5c-46.667 0 -89 8.33301 -127 25s-70.5 39.834 -97.5 69.501s-47.833 64.834 -62.5 105.501s-22 85 -22 133s7.5 92.333 22.5 133s36 75.5 63 104.5s59.5 51.667 97.5 68
s80 24.5 126 24.5c46.667 0 88.834 -8.16699 126.501 -24.5s69.834 -39.166 96.501 -68.499s47.167 -64.166 61.5 -104.499s21.5 -84.5 21.5 -132.5c0 -96.667 -27.667 -176.667 -83 -240l94 -73zM567.999 321.996c0 39.333 -5.16504 74.833 -15.498 106.5
s-25 58.667 -44 81s-41.833 39.5 -68.5 51.5s-56 18 -88 18c-34.667 0 -65.834 -6.33301 -93.501 -19s-51 -30.167 -70 -52.5s-33.667 -49.333 -44 -81s-15.5 -66.5 -15.5 -104.5s5.16699 -73 15.5 -105s25.166 -59.5 44.499 -82.5s42.5 -40.833 69.5 -53.5
s57.167 -19 90.5 -19c35.333 0 67.333 7.33301 96 22l-64 50l52 59l77 -60c38.667 46.667 58 109.667 58 189z" />
    <glyph glyph-name="R" unicode="R" horiz-adv-x="679" 
d="M515 0l-61 171c-11.333 30.667 -29.333 55.5 -54 74.5s-53 28.5 -85 28.5h-159v-274h-83v642h284c76.667 0 133.834 -14.667 171.501 -44s56.5 -75 56.5 -137c0 -90 -47.667 -146.333 -143 -169c43.333 -14.667 76.666 -53.667 99.999 -117l64 -175h-91zM497 461
c0 73.333 -46 110 -138 110h-203v-219h190c54 0 92.667 8 116 24s35 44.333 35 85z" />
    <glyph glyph-name="S" unicode="S" horiz-adv-x="592" 
d="M552 181c0 -26 -4.99902 -50.667 -14.999 -74s-24.833 -43.833 -44.5 -61.5s-44.334 -31.5 -74.001 -41.5s-64.167 -15 -103.5 -15c-86.667 0 -153.667 19.167 -201 57.5s-72.333 91.833 -75 160.5h84c3.33301 -46 21.833 -81.167 55.5 -105.5s77.5 -36.5 131.5 -36.5
c22.667 0 43.834 2.5 63.501 7.5s36.667 12.333 51 22s25.5 21.167 33.5 34.5s12 28.666 12 45.999c0 22.667 -5.33301 40.167 -16 52.5s-27.834 23.166 -51.501 32.499s-54.5 18.666 -92.5 27.999s-84 22.333 -138 39c-40 16.667 -68.167 36.834 -84.5 60.501
s-24.5 52.834 -24.5 87.501c0 26 4.83301 49.833 14.5 71.5s24 40.334 43 56.001s42.833 27.834 71.5 36.501s62 13 100 13c72.667 0 130.667 -15.833 174 -47.5s66.333 -79.834 69 -144.501h-82c-8 78 -60.667 117 -158 117c-46 0 -82.5 -8.33301 -109.5 -25
s-40.5 -40.667 -40.5 -72c0 -38 25 -65 75 -81l150 -39c62.667 -16 108.667 -38.167 138 -66.5s44 -65.833 44 -112.5z" />
    <glyph glyph-name="T" unicode="T" horiz-adv-x="549" 
d="M316 566v-566h-85v566h-211v76h509v-76h-213z" />
    <glyph glyph-name="U" unicode="U" horiz-adv-x="648" 
d="M576 271c0 -50.667 -4.66699 -93.8311 -14 -129.498s-24.166 -64.834 -44.499 -87.501s-46.333 -39.167 -78 -49.5s-69.834 -15.5 -114.501 -15.5c-47.333 0 -87.166 5.5 -119.499 16.5s-58.333 28 -78 51s-33.667 52.167 -42 87.5s-12.5 77.666 -12.5 126.999v371h83
v-370c0 -38.667 2.83301 -71.167 8.5 -97.5s15.167 -47.666 28.5 -63.999s30.666 -28 51.999 -35s48 -10.5 80 -10.5c30.667 0 56.667 3.5 78 10.5s38.5 18.667 51.5 35s22.5 37.666 28.5 63.999s9 58.833 9 97.5v370h84v-371v0z" />
    <glyph glyph-name="V" unicode="V" horiz-adv-x="599" 
d="M343 0h-88l-249 642h90l203 -551l203 551h91z" />
    <glyph glyph-name="W" unicode="W" horiz-adv-x="847" 
d="M659 0h-81l-154 558l-155 -558h-81l-178 642h90l129 -523l144 523h102l145 -523l128 523h90z" />
    <glyph glyph-name="X" unicode="X" horiz-adv-x="598" 
d="M490 0l-191 272l-191 -272h-104l247 339l-223 303h105l166 -237l167 237h103l-223 -303l248 -339h-104z" />
    <glyph glyph-name="Y" unicode="Y" horiz-adv-x="598" 
d="M342 272v-272h-86v272l-252 370h104l191 -296l193 296h102z" />
    <glyph glyph-name="Z" unicode="Z" horiz-adv-x="540" 
d="M16 0v80l400 486h-363v76h460v-80l-399 -485h410v-77h-508z" />
    <glyph glyph-name="bracketleft" unicode="[" horiz-adv-x="296" 
d="M62 -178v820h173v-65h-91v-689h91v-66h-173z" />
    <glyph glyph-name="backslash" unicode="\" horiz-adv-x="250" 
d="M186 0l-186 642h63l187 -642h-64z" />
    <glyph glyph-name="bracketright" unicode="]" horiz-adv-x="203" 
d="M15 -178v66h92v689h-92v65h173v-820h-173z" />
    <glyph glyph-name="asciicircum" unicode="^" horiz-adv-x="421" 
d="M306 371l-97 191l-97 -191h-79l145 271h63l146 -271h-81z" />
    <glyph glyph-name="underscore" unicode="_" horiz-adv-x="508" 
d="M-6 -141v44h508v-44h-508z" />
    <glyph glyph-name="grave" unicode="`" horiz-adv-x="236" 
d="M134 530l-97 122h104l58 -122h-65z" />
    <glyph glyph-name="a" unicode="a" horiz-adv-x="472" 
d="M357 0l0.000976562 48c-43.333 -39.333 -98.333 -59 -165 -59c-22.667 0 -43.667 3.16699 -63 9.5s-36 15.5 -50 27.5s-25 26.167 -33 42.5s-12 34.5 -12 54.5c0 109.333 93.667 164 281 164h42c0 26.667 -1.66699 48.167 -5 64.5s-9.33301 29 -18 38
s-20.334 15 -35.001 18s-33 4.5 -55 4.5c-73.333 0 -111.666 -26.667 -114.999 -80h-81c7.33301 95.333 73.666 143 198.999 143c36 0 66.167 -3.33301 90.5 -10s44 -17 59 -31s25.667 -32.167 32 -54.5s9.5 -48.833 9.5 -79.5v-300h-81zM357.001 225l-58 0.000976562
c-120 0 -180 -32.667 -180 -98c0 -48.667 32.333 -73 97 -73c31.333 0 58.333 5.66699 81 17s42.667 28.666 60 51.999v102z" />
    <glyph glyph-name="b" unicode="b" horiz-adv-x="529" 
d="M467 236c0 -37.333 -4.83301 -71.166 -14.5 -101.499s-23.167 -56.333 -40.5 -78s-38 -38.334 -62 -50.001s-50.333 -17.5 -79 -17.5c-51.333 0 -93.666 15.667 -126.999 47v-36h-82v642h82v-231c37.333 42.667 81.666 64 132.999 64c28.667 0 54.667 -5.5 78 -16.5
s43.333 -26.667 60 -47s29.5 -45.333 38.5 -75s13.5 -63.167 13.5 -100.5zM381 236c0 117.333 -37.333 175.999 -112 175.999c-45.333 0 -87 -27 -125 -81v-220c18 -19.333 37 -33.666 57 -42.999s42 -14 66 -14c76 0 114 60.667 114 182z" />
    <glyph glyph-name="c" unicode="c" horiz-adv-x="469" 
d="M438 139c-5.33301 -45.333 -24.998 -81.667 -58.998 -109s-77 -41 -129 -41c-34.667 0 -65.667 5.83301 -93 17.5s-50.333 28 -69 49s-32.834 46.5 -42.501 76.5s-14.5 63.333 -14.5 100c0 38.667 5.16699 73.167 15.5 103.5s25.166 55.833 44.499 76.5
s42.333 36.334 69 47.001s56.667 16 90 16c50.667 0 93.167 -12.833 127.5 -38.5s54.5 -62.5 60.5 -110.5h-86c-2 26.667 -12.5 47.667 -31.5 63s-42.5 23 -70.5 23c-40.667 0 -73 -14.833 -97 -44.5s-36 -74.834 -36 -135.501c0 -118.667 44.333 -178 133 -178
c64 0 98 28.333 102 85h86v0z" />
    <glyph glyph-name="d" unicode="d" horiz-adv-x="469" 
d="M357 0v55.002c-40 -44 -84.667 -66 -134 -66c-31.333 0 -59 5.83301 -83 17.5s-44 28 -60 49s-28.167 46.167 -36.5 75.5s-12.5 62 -12.5 98c0 37.333 4.83301 71.166 14.5 101.499s23.167 56.166 40.5 77.499s38 37.833 62 49.5s50.667 17.5 80 17.5
c49.333 0 92.333 -15.333 129 -46v213h81v-642h-81zM357 354.002c-19.333 20 -39.167 34.667 -59.5 44s-41.5 14 -63.5 14c-78 0 -117 -61 -117 -183c0 -116.667 37.333 -175 112 -175c45.333 0 88 26.667 128 80v220z" />
    <glyph glyph-name="e" unicode="e" horiz-adv-x="498" 
d="M118 213c3.33301 -51.333 16.8359 -90.666 40.5029 -117.999s57.5 -41 101.5 -41c14 0 27.667 1.83301 41 5.5s25.166 9.16699 35.499 16.5s18.666 16.166 24.999 26.499s10.166 22.5 11.499 36.5h86c-3.33301 -23.333 -10.666 -44.166 -21.999 -62.499
s-25.833 -34 -43.5 -47s-37.834 -23 -60.501 -30s-47 -10.5 -73 -10.5c-36 0 -68.167 5.66699 -96.5 17s-52.333 27.666 -72 48.999s-34.667 46.833 -45 76.5s-15.5 63.167 -15.5 100.5c0 36.667 5.16699 70 15.5 100s25 55.5 44 76.5s42 37.333 69 49
s57.167 17.5 90.5 17.5c34.667 0 65.5 -5.83301 92.5 -17.5s49.667 -28 68 -49s32.333 -46.5 42 -76.5s14.5 -63.333 14.5 -100v-19h-349zM380.003 278c-12 89.333 -55.333 134 -130 134c-73.333 0 -117 -44.667 -131 -134h261z" />
    <glyph glyph-name="f" unicode="f" horiz-adv-x="276" 
d="M268 576c-13.333 2 -30.667 3 -52 3c-38 0 -57 -24.333 -57 -73v-40h87v-66h-87v-400h-84v400h-68v66h68v40c0 97.333 43.333 146 130 146c30.667 0 51.667 -1.33301 63 -4v-72v0z" />
    <glyph glyph-name="g" unicode="g" horiz-adv-x="469" 
d="M438 36c0 -149.333 -67.666 -223.998 -202.999 -223.998c-56.667 0 -102.334 11.833 -137.001 35.5s-52 58.5 -52 104.5h87c0 -50.667 34 -76 102 -76c43.333 0 74.5 12.5 93.5 37.5s28.5 64.833 28.5 119.5v22c-40 -44 -84.667 -66 -134 -66
c-31.333 0 -59 5.83301 -83 17.5s-44 28 -60 49s-28.167 46.167 -36.5 75.5s-12.5 62 -12.5 98c0 37.333 4.83301 71.166 14.5 101.499s23.167 56.166 40.5 77.499s38 37.833 62 49.5s50.667 17.5 80 17.5c49.333 0 92.333 -15.333 129 -46v37h81v-430zM357.001 354.002
c-19.333 20 -39.167 34.667 -59.5 44s-41.5 14 -63.5 14c-78 0 -117 -61 -117 -183c0 -116.667 37.333 -175 112 -175c45.333 0 88 26.667 128 80v220z" />
    <glyph glyph-name="h" unicode="h" horiz-adv-x="502" 
d="M357 0l0.000976562 300c0 71.333 -29.333 107 -88 107c-20.667 0 -41.334 -6 -62.001 -18s-41.667 -30.667 -63 -56v-333h-82v642h82v-236c42.667 46 88.667 69 138 69c105.333 0 158 -56.667 158 -170v-305h-83z" />
    <glyph glyph-name="i" unicode="i" horiz-adv-x="205" 
d="M62 552v90h82v-90h-82zM62 0v466h82v-466h-82z" />
    <glyph glyph-name="j" unicode="j" horiz-adv-x="181" 
d="M62 552v90h82v-90h-82zM144 -26c0 -57.333 -8.66699 -98.668 -26 -124.001s-48.333 -38 -93 -38c-12.667 0 -23.5 0.333008 -32.5 1s-16.833 2.33398 -23.5 5.00098v70c14 -4.66699 29.333 -7 46 -7c17.333 0 29.5 7.5 36.5 22.5s10.5 38.833 10.5 71.5v491h82v-492z" />
    <glyph glyph-name="k" unicode="k" horiz-adv-x="507" 
d="M346 0l-150 236l-52 -50v-186h-82v642h82v-364l179 188h104l-176 -174l194 -292h-99z" />
    <glyph glyph-name="l" unicode="l" horiz-adv-x="205" 
d="M62 0v642h82v-642h-82z" />
    <glyph glyph-name="m" unicode="m" horiz-adv-x="750" 
d="M606 0v300c0 71.333 -24 107 -72 107c-20 0 -39.833 -6 -59.5 -18s-39.167 -30.667 -58.5 -56v-333h-83v300c0 71.333 -24 107 -72 107c-20.667 0 -40.5 -6 -59.5 -18s-38.167 -30.667 -57.5 -56v-333h-82v466h82v-60c38.667 46 81.667 69 129 69
c69.333 0 113.333 -28 132 -84c27.333 34 52 56.5 74 67.5s44.333 16.5 67 16.5c95.333 0 143 -56.667 143 -170v-305h-83z" />
    <glyph glyph-name="n" unicode="n" horiz-adv-x="502" 
d="M357 0l0.000976562 300c0 71.333 -29.333 107 -88 107c-20.667 0 -41.334 -6 -62.001 -18s-41.667 -30.667 -63 -56v-333h-82v466h82v-60c42.667 46 88.667 69 138 69c105.333 0 158 -56.667 158 -170v-305h-83z" />
    <glyph glyph-name="o" unicode="o" horiz-adv-x="498" 
d="M467 232c0 -38 -5.16406 -72.168 -15.4971 -102.501s-25 -55.833 -44 -76.5s-41.833 -36.5 -68.5 -47.5s-56.334 -16.5 -89.001 -16.5c-34.667 0 -65.667 5.83301 -93 17.5s-50.333 28 -69 49s-32.834 46.5 -42.501 76.5s-14.5 63.333 -14.5 100
c0 38.667 5.16699 73.167 15.5 103.5s25.166 55.833 44.499 76.5s42.333 36.334 69 47.001s56.667 16 90 16c34.667 0 65.5 -5.83301 92.5 -17.5s49.667 -28 68 -49s32.333 -46.5 42 -76.5s14.5 -63.333 14.5 -100zM381.003 231.999c0 60 -12 105.001 -36 135.001
s-55.667 45 -95 45c-40.667 0 -73 -14.833 -97 -44.5s-36 -74.834 -36 -135.501c0 -118.667 44.333 -178 133 -178c87.333 0 131 59.333 131 178z" />
    <glyph glyph-name="p" unicode="p" horiz-adv-x="529" 
d="M467 236c0 -37.333 -4.83301 -71.166 -14.5 -101.499s-23.167 -56.333 -40.5 -78s-38 -38.334 -62 -50.001s-50.333 -17.5 -79 -17.5c-51.333 0 -93.666 15.667 -126.999 47v-214h-82v644h82v-55c37.333 42.667 81.666 64 132.999 64c28.667 0 54.667 -5.5 78 -16.5
s43.333 -26.667 60 -47s29.5 -45.333 38.5 -75s13.5 -63.167 13.5 -100.5zM381 236c0 117.333 -37.333 175.999 -112 175.999c-45.333 0 -87 -27 -125 -81v-220c18 -19.333 37 -33.666 57 -42.999s42 -14 66 -14c76 0 114 60.667 114 182z" />
    <glyph glyph-name="q" unicode="q" horiz-adv-x="469" 
d="M357 -178v233.002c-40 -44 -84.667 -66 -134 -66c-31.333 0 -59 5.83301 -83 17.5s-44 28 -60 49s-28.167 46.167 -36.5 75.5s-12.5 62 -12.5 98c0 37.333 4.83301 71.166 14.5 101.499s23.167 56.166 40.5 77.499s38 37.833 62 49.5s50.667 17.5 80 17.5
c49.333 0 92.333 -15.333 129 -46v37h81v-644h-81zM357 354.002c-19.333 20 -39.167 34.667 -59.5 44s-41.5 14 -63.5 14c-78 0 -117 -61 -117 -183c0 -116.667 37.333 -175 112 -175c45.333 0 88 26.667 128 80v220z" />
    <glyph glyph-name="r" unicode="r" horiz-adv-x="363" 
d="M301 389c-6 2.66699 -13.167 4.33301 -21.5 5s-17.5 1 -27.5 1c-43.333 0 -79.333 -22.333 -108 -67v-328h-82v466h82v-66c32.667 50 72.667 75 120 75c7.33301 0 14 -0.5 20 -1.5s11.667 -1.83301 17 -2.5v-82v0z" />
    <glyph glyph-name="s" unicode="s" horiz-adv-x="443" 
d="M415 137c0 -20.667 -3.99902 -39.999 -11.999 -57.999s-20 -33.667 -36 -47s-35.833 -23.833 -59.5 -31.5s-50.834 -11.5 -81.501 -11.5c-127.333 0 -193.333 50 -198 150h83c0.666992 -56.667 39 -85 115 -85c70 0 105 24.667 105 74c0 13.333 -3.66699 23.833 -11 31.5
s-19.333 14.5 -36 20.5s-38 12.333 -64 19s-57.667 15.667 -95 27c-30 9.33301 -52 24 -66 44s-21 44 -21 72c0 38 15 69.667 45 95s73.333 38 130 38c121.333 0 183.333 -43.667 186 -131h-83c-2 45.333 -35.333 68 -100 68c-63.333 0 -95 -21 -95 -63
c0 -11.333 2 -20.333 6 -27s12.833 -12.667 26.5 -18s33.667 -11.5 60 -18.5l107.5 -29.5c62.667 -20.667 94 -60.334 94 -119.001z" />
    <glyph glyph-name="t" unicode="t" horiz-adv-x="257" 
d="M241 0c-18 -4 -37.668 -6.00195 -59.001 -6.00195c-22 0 -40.167 2 -54.5 6s-25.5 11.333 -33.5 22s-13.5 25.334 -16.5 44.001s-4.5 42.334 -4.5 71.001v263h-57v66h57v113h82v-113h76v-66h-76v-267c0 -15.333 1 -28 3 -38s4.83301 -17.667 8.5 -23
s8.33398 -9 14.001 -11s12.167 -3 19.5 -3c8 0 15.5 0.333008 22.5 1s13.167 1.66699 18.5 3v-62v0z" />
    <glyph glyph-name="u" unicode="u" horiz-adv-x="498" 
d="M357 0v60c-41.333 -47.333 -88.333 -71 -141 -71c-104 0 -156 57.333 -156 172v305h83v-302c0 -70.667 28.667 -106 86 -106c46 0 88.667 25 128 75v333h81v-466h-81z" />
    <glyph glyph-name="v" unicode="v" horiz-adv-x="449" 
d="M261 0h-74l-176 466h90l124 -365l123 365h90z" />
    <glyph glyph-name="w" unicode="w" horiz-adv-x="647" 
d="M504 0h-80l-99 342l-101 -342h-79l-141 466h92l85 -355l106 355h73l107 -355l85 355h91z" />
    <glyph glyph-name="x" unicode="x" horiz-adv-x="449" 
d="M341 0l-116 181l-117 -181h-102l172 241l-158 225h103l102 -165l101 165h103l-158 -224l172 -242h-102z" />
    <glyph glyph-name="y" unicode="y" horiz-adv-x="449" 
d="M261 0c-14.667 -36.667 -27.6641 -67.001 -38.9971 -91.001s-22.833 -43.167 -34.5 -57.5s-24.334 -24.5 -38.001 -30.5s-29.834 -9 -48.501 -9c-10.667 0 -20.334 0.333008 -29.001 1s-16.667 2.33398 -24 5.00098v75c7.33301 -2 14 -3.33301 20 -4s12.333 -1 19 -1
c40.667 0 74 37.333 100 112l-176 466h90l124 -365l123 365h90z" />
    <glyph glyph-name="z" unicode="z" horiz-adv-x="449" 
d="M18 0v70l290 325h-274v71h382v-71l-291 -325h306v-70h-413z" />
    <glyph glyph-name="braceleft" unicode="{" horiz-adv-x="304" 
d="M253 -188c-40.667 0 -71.166 7.49609 -91.499 22.4961s-34.5 41.167 -42.5 78.5c-0.666992 2.66699 -1 7.83398 -1 15.501v32.5c0 14 -0.5 31.667 -1.5 53s-2.5 47.333 -4.5 78c0 34 -7 59.833 -21 77.5s-35.667 26.834 -65 27.501v71c16 0 29.5 2.16699 40.5 6.5
s20 12 27 23s12.167 25.833 15.5 44.5s5.66602 42.334 6.99902 71.001c0 4 -0.333008 8 -1 12s-1 8.66699 -1 14c0 36.667 1.5 68.334 4.5 95.001s9.33301 48.667 19 66s23.667 30.333 42 39s42.833 13 73.5 13h25v-67h-14c-35.333 0 -57 -18 -65 -54v-99
c0 -61.333 -8.33301 -107.5 -25 -138.5s-42 -51.5 -76 -61.5c67.333 -21.333 101 -87.333 101 -198v-100c8 -35.333 29.667 -53 65 -53h14v-69h-25z" />
    <glyph glyph-name="bar" unicode="|" horiz-adv-x="234" 
d="M82 -188v830h69v-830h-69z" />
    <glyph glyph-name="braceright" unicode="}" horiz-adv-x="295" 
d="M274 197c-16.667 -0.666992 -30.667 -3.33203 -42 -7.99902s-20.333 -12.334 -27 -23.001s-11.5 -25.167 -14.5 -43.5s-4.5 -41.5 -4.5 -69.5c0 -41.333 -1.16699 -77 -3.5 -107s-8.16602 -55 -17.499 -75s-23.333 -34.833 -42 -44.5s-44.334 -14.5 -77.001 -14.5h-25v69
h13c14 0 25.333 1 34 3s15.5 7.16699 20.5 15.5s8.33301 21 10 38s2.5 40.833 2.5 71.5c0 35.333 1.66699 65.666 5 90.999s8.83301 46.833 16.5 64.5s18 31.834 31 42.501s29.167 19 48.5 25c-52 15.333 -83.667 55 -95 119c-6 50 -9 90.167 -9 120.5s-1 54 -3 71
s-7.16699 28.333 -15.5 34s-23.5 8.5 -45.5 8.5h-13v67h25c81.333 0 125.333 -33.333 132 -100l9 -165c2 -79.333 31 -119 87 -119v-71v0z" />
    <glyph glyph-name="asciitilde" unicode="~" horiz-adv-x="524" 
d="M486 554c-30 -34.667 -69.6641 -52 -118.997 -52c-13.333 0 -30.333 3 -51 9s-41.834 12.667 -63.501 20l-60.5 20c-18.667 6 -32.334 9 -41.001 9c-36.667 0 -74.334 -20.333 -113.001 -61v90c31.333 35.333 72 53 122 53c10.667 0 26.167 -3 46.5 -9
s41.333 -12.667 63 -20l61 -20c19 -6 33.167 -9 42.5 -9c38 0 75.667 19.667 113 59v-89v0z" />
    <glyph glyph-name="uni0964" unicode="&#x964;" horiz-adv-x="363" 
d="M323 669v-669l-73 30v669z" />
    <glyph glyph-name="uni0965" unicode="&#x965;" horiz-adv-x="540" 
d="M253 669v-669l-73 30v669zM450 669v-669l-73 30v669z" />
    <glyph glyph-name="uni0B01" unicode="&#xb01;" horiz-adv-x="0" 
d="M-58 822c0 -24.667 -11.333 -37 -34 -37c-22 0 -33 12.333 -33 37c0 22.667 11 34 33 34c22.667 0 34 -11.333 34 -34zM84 835c-0.666992 -22.667 -5 -43.834 -13 -63.501s-19.5 -36.667 -34.5 -51s-33.333 -25.666 -55 -33.999s-46.167 -12.5 -73.5 -12.5
c-58 0 -102.5 14.5 -133.5 43.5s-46.5 68.5 -46.5 118.5h59c0 -34 9.16699 -60.333 27.5 -79s46.833 -28 85.5 -28c37.333 0 67.5 7.83301 90.5 23.5s34.5 43.167 34.5 82.5h59z" />
    <glyph glyph-name="uni0B02" unicode="&#xb02;" horiz-adv-x="207" 
d="M63 645c17.333 -0.666992 33.834 -4.49902 49.501 -11.499s29.5 -16.333 41.5 -28s21.5 -25.334 28.5 -41.001s10.5 -32.5 10.5 -50.5s-3.33301 -35 -10 -51s-15.834 -30 -27.501 -42s-25.5 -21.5 -41.5 -28.5s-33 -10.833 -51 -11.5c-18.667 0 -36.167 3.33301 -52.5 10
s-30.666 16 -42.999 28s-22.166 26.167 -29.499 42.5s-11 33.5 -11 51.5s3.66699 35 11 51s17.166 30 29.499 42s26.666 21.5 42.999 28.5s33.833 10.5 52.5 10.5zM63.001 585.001c-21.333 0 -39 -6.83105 -53 -20.498s-21 -30.834 -21 -51.501c0 -21.333 6.5 -39 19.5 -53
s31.167 -20.667 54.5 -20c22.667 1.33301 40.167 8.5 52.5 21.5s18.5 30.167 18.5 51.5c0 19.333 -6.16699 36.166 -18.5 50.499s-29.833 21.5 -52.5 21.5z" />
    <glyph glyph-name="uni0B03" unicode="&#xb03;" horiz-adv-x="379" 
d="M279 141c-1.33301 30 -15.666 61.333 -42.999 94l-43 42c-6.66699 -2.66699 -14.834 -9 -24.501 -19s-19 -21.833 -28 -35.5s-16.667 -28.167 -23 -43.5s-9.5 -29 -9.5 -41c0 -24 7.33301 -44.167 22 -60.5s33.667 -24.5 57 -24.5c26.667 0 48.667 7.83301 66 23.5
s26 37.167 26 64.5zM277 485c-0.666992 59.333 -30.332 89.001 -88.999 89.001c-12 0 -23.167 -2.16699 -33.5 -6.5s-19.333 -10.5 -27 -18.5s-13.834 -17.167 -18.501 -27.5s-7 -21.5 -7 -33.5c0 -24.667 7.16699 -48.5 21.5 -71.5s37.5 -46.5 69.5 -70.5
c5.33301 2 12.833 8.33301 22.5 19s19 23.167 28 37.5s16.833 29.166 23.5 44.499s10 28 10 38zM341.002 144.001c0 -48 -13.3311 -86 -39.998 -114s-62.667 -42 -108 -42c-21.333 0 -41.166 3.66699 -59.499 11s-34.333 17.666 -48 30.999s-24.334 29.333 -32.001 48
s-11.5 39.334 -11.5 62.001c0 14 4.16699 30.333 12.5 49s18 36.667 29 54s22.167 32.333 33.5 45s20.333 20 27 22c-13.333 9.33301 -26.333 21.333 -39 36s-24 30 -34 46s-18 32 -24 48s-9 30 -9 42c0 21.333 3.83301 41.666 11.5 60.999s18.334 36.333 32.001 51
s29.5 26.334 47.5 35.001s37 13 57 13c46.667 0 84.167 -13.833 112.5 -41.5s42.5 -65.167 42.5 -112.5c0 -13.333 -3.33301 -29 -10 -47s-14.834 -35.833 -24.501 -53.5s-20 -33.5 -31 -47.5s-20.833 -24 -29.5 -30c5.33301 -1.33301 13.166 -8 23.499 -20
s20.666 -26.5 30.999 -43.5s19.5 -34.833 27.5 -53.5s12.333 -35 13 -49z" />
    <glyph glyph-name="uni0B05" unicode="&#xb05;" horiz-adv-x="649" 
d="M523 97c-52 -67.333 -124.67 -100.999 -218.003 -100.999c-32.667 0 -63.5 4.66699 -92.5 14s-54.5 22.333 -76.5 39s-39.5 36.667 -52.5 60s-19.5 48.666 -19.5 75.999c0 85.333 65.333 153.666 196 204.999c16 6 31.167 13.833 45.5 23.5s27 20.167 38 31.5
s19.667 23.5 26 36.5s9.5 25.833 9.5 38.5c0 20 -3.66699 35.167 -11 45.5s-17.666 15.5 -30.999 15.5c-32.667 0 -49 -12.333 -49 -37v-69h-79v65c0 10.667 -4.33301 19.5 -13 26.5s-18.667 10.5 -30 10.5c-14.667 0 -27.334 -4.16699 -38.001 -12.5
s-16 -20.166 -16 -35.499c0 -13.333 5.5 -24.5 16.5 -33.5s23.167 -13.5 36.5 -13.5v-67c-34.667 0 -64 9.66699 -88 29s-36 47.666 -36 84.999c0 16.667 3 32.334 9 47.001s14.5 27.5 25.5 38.5s23.667 19.5 38 25.5s30.166 9 47.499 9c18 0 34.167 -2.5 48.5 -7.5
s27.833 -13.5 40.5 -25.5c10.667 10 23.834 18 39.501 24s33.5 9 53.5 9c16.667 0 31.834 -3.5 45.501 -10.5s25.334 -16.333 35.001 -28s17 -25.334 22 -41.001s7.5 -32.167 7.5 -49.5c0 -47.333 -18 -88.333 -54 -123c-6.66699 -6.66699 -16.667 -14.5 -30 -23.5
s-28 -18.333 -44 -28l-49 -28.5l-45.5 -25l-33 -17.5c-8.33301 -4.33301 -12.166 -6.16602 -11.499 -5.49902c-31.333 -22.667 -47 -48.667 -47 -78c0 -18 4.5 -34.667 13.5 -50s21.167 -28.333 36.5 -39s33 -19 53 -25s40.667 -9 62 -9c28 0 55 5.5 81 16.5
s49.333 25.5 70 43.5s37.167 38.667 49.5 62s18.5 47.333 18.5 72v380h74v-642h-74v97z" />
    <glyph glyph-name="uni0B06" unicode="&#xb06;" horiz-adv-x="831" 
d="M523 97c-52 -67.333 -124.67 -100.999 -218.003 -100.999c-32.667 0 -63.5 4.66699 -92.5 14s-54.5 22.333 -76.5 39s-39.5 36.667 -52.5 60s-19.5 48.666 -19.5 75.999c0 85.333 65.333 153.666 196 204.999c16 6 31.167 13.833 45.5 23.5s27 20.167 38 31.5
s19.667 23.5 26 36.5s9.5 25.833 9.5 38.5c0 20 -3.66699 35.167 -11 45.5s-17.666 15.5 -30.999 15.5c-32.667 0 -49 -12.333 -49 -37v-69h-79v65c0 10.667 -4.33301 19.5 -13 26.5s-18.667 10.5 -30 10.5c-14.667 0 -27.334 -4.16699 -38.001 -12.5
s-16 -20.166 -16 -35.499c0 -13.333 5.5 -24.5 16.5 -33.5s23.167 -13.5 36.5 -13.5v-67c-34.667 0 -64 9.66699 -88 29s-36 47.666 -36 84.999c0 16.667 3 32.334 9 47.001s14.5 27.5 25.5 38.5s23.667 19.5 38 25.5s30.166 9 47.499 9c18 0 34.167 -2.5 48.5 -7.5
s27.833 -13.5 40.5 -25.5c10.667 10 23.834 18 39.501 24s33.5 9 53.5 9c16.667 0 31.834 -3.5 45.501 -10.5s25.334 -16.333 35.001 -28s17 -25.334 22 -41.001s7.5 -32.167 7.5 -49.5c0 -47.333 -18 -88.333 -54 -123c-6.66699 -6.66699 -16.667 -14.5 -30 -23.5
s-28 -18.333 -44 -28l-49 -28.5l-45.5 -25l-33 -17.5c-8.33301 -4.33301 -12.166 -6.16602 -11.499 -5.49902c-31.333 -22.667 -47 -48.667 -47 -78c0 -18 4.5 -34.667 13.5 -50s21.167 -28.333 36.5 -39s33 -19 53 -25s40.667 -9 62 -9c28 0 55 5.5 81 16.5
s49.333 25.5 70 43.5s37.167 38.667 49.5 62s18.5 47.333 18.5 72v380h74v-642h-74v97zM706.997 642.001h73v-642h-73v642z" />
    <glyph glyph-name="uni0B07" unicode="&#xb07;" horiz-adv-x="717" 
d="M232 148c0 30 -2.33203 53.499 -6.99902 70.499s-13.334 25.5 -26.001 25.5c-14 0 -24.167 -7.83301 -30.5 -23.5s-9.5 -37.5 -9.5 -65.5c0 -65.333 13.333 -98 40 -98c5.33301 0 10 1 14 3s7.33301 6.33301 10 13s4.66699 15.834 6 27.501s2.33301 27.5 3 47.5z
M370.001 147.999c0 30 -2.33105 53.499 -6.99805 70.499s-13.334 25.5 -26.001 25.5c-13.333 0 -23.5 -7.83301 -30.5 -23.5s-10.5 -37.5 -10.5 -65.5c0 -65.333 13.667 -98 41 -98c6 0 11 1 15 3s7.16699 6.33301 9.5 13s4.16602 15.834 5.49902 27.501
s2.33301 27.5 3 47.5zM504.003 143.998c48 48 71.9961 107.667 71.9961 179c0 33.333 -6.33301 65.333 -19 96s-30.334 57.667 -53.001 81s-49.167 42 -79.5 56s-63.166 21 -98.499 21c-28 0 -55.167 -5.5 -81.5 -16.5s-49.5 -25.667 -69.5 -44s-36 -39.333 -48 -63
s-18 -47.834 -18 -72.501c0 -13.333 1.16699 -25.666 3.5 -36.999s6.5 -21.333 12.5 -30l16 -24c12.667 12.667 32 19 58 19c30.667 0 52.334 -16.333 65.001 -49c14.667 32 39 48 73 48c33.333 0 58.833 -14.167 76.5 -42.5s26.5 -65.833 26.5 -112.5
c0 -50.667 -9.16699 -89.5 -27.5 -116.5s-45.5 -40.5 -81.5 -40.5c-17.333 0 -33 5 -47 15l-17 19c-22 -22.667 -47.333 -34 -76 -34c-13.333 0 -26 4.16699 -38 12.5s-22.833 19.5 -32.5 33.5s-17.334 30.167 -23.001 48.5s-8.5 37.5 -8.5 57.5c0 28 4.66699 50.333 14 67
c-43.333 48.667 -65 104 -65 166c0 38 7.83301 73.333 23.5 106s36.334 61 62.001 85s55.334 42.833 89.001 56.5s68.5 20.5 104.5 20.5c47.333 0 91.333 -7.83301 132 -23.5s75.834 -38 105.501 -67s52.834 -63.667 69.501 -104s25 -85.166 25 -134.499
c0 -64.667 -17.333 -124.334 -52 -179.001l91 -141h-91z" />
    <glyph glyph-name="uni0B08" unicode="&#xb08;" horiz-adv-x="711" 
d="M239 148c0 30 -3 53.499 -9 70.499s-14.667 25.5 -26 25.5c-13.333 0 -23.333 -7 -30 -21s-10 -33 -10 -57c0 -36.667 3.83301 -64 11.5 -82s17.5 -27 29.5 -27c6 0 11 1 15 3s7.33301 6.33301 10 13s4.66699 15.834 6 27.501s2.33301 27.5 3 47.5zM376 147.999
c0 30 -2.33301 53.5 -7 70.5s-13.334 25.5 -26.001 25.5c-13.333 0 -23.666 -7 -30.999 -21s-11 -33 -11 -57c0 -36.667 4 -64 12 -82s18 -27 30 -27c6 0 11 1 15 3s7.33301 6.16699 10 12.5s4.5 15.5 5.5 27.5s1.83301 28 2.5 48zM510 132.999
c10.667 17.333 19.833 33.0029 27.5 47.0029s14 27.667 19 41s8.83301 26.833 11.5 40.5s4 29.167 4 46.5c0 34 -6.5 67.167 -19.5 99.5s-29.833 61 -50.5 86s-44.167 45.167 -70.5 60.5s-52.5 23 -78.5 23c-51.333 0 -77 -21 -77 -63c0 -18 3.5 -32 10.5 -42
s18.167 -17.667 33.5 -23l70 -23l-20 -64l-147 44c-15.333 4 -29.333 6 -42 6c-42.667 0 -64 -23.333 -64 -70c0 -14 5 -28 15 -42l16 -16c16.667 16.667 35.667 25 57 25c30 0 52 -16.333 66 -49c14 32 38 48 72 48s59.667 -14.167 77 -42.5s26 -65.833 26 -112.5
c0 -50.667 -9 -89.5 -27 -116.5s-45.333 -40.5 -82 -40.5c-17.333 0 -33 5 -47 15l-17 19c-22 -22.667 -47.333 -34 -76 -34c-13.333 0 -25.833 4.33301 -37.5 13s-22 20 -31 34s-16 30.167 -21 48.5s-7.5 37.166 -7.5 56.499c0 12 0.833008 24.167 2.5 36.5
s4.83398 25.166 9.50098 38.499c-8 4 -16.167 10.833 -24.5 20.5s-15.833 20.667 -22.5 33s-12.167 25.333 -16.5 39s-6.5 26.834 -6.5 39.501c0 85.333 47.667 128 143 128h10.5c3 0 6.16699 -0.333008 9.5 -1v46c9.33301 80.667 55.333 121 138 121
c38.667 0 76.5 -9 113.5 -27s69.667 -42.333 98 -73s51.166 -65.834 68.499 -105.501s26 -80.834 26 -123.501c0 -70 -17.333 -132.333 -52 -187l82 -133h-82z" />
    <glyph glyph-name="uni0B09" unicode="&#xb09;" horiz-adv-x="734" 
d="M536 135c38 57.333 56.999 119.332 56.999 185.999c0 34.667 -6.83301 67.5 -20.5 98.5s-32.5 58.167 -56.5 81.5s-52 41.833 -84 55.5s-66 20.5 -102 20.5c-28 0 -55.333 -5.16699 -82 -15.5s-50.167 -24.333 -70.5 -42s-36.833 -38.5 -49.5 -62.5s-19 -50 -19 -78
s5 -48 15 -60l17 -10l71 70l50 -51l-57 -57c-29.333 -31.333 -44 -61.666 -44 -90.999c0 -16 3.33301 -31 10 -45s15.667 -26.167 27 -36.5s24.5 -18.5 39.5 -24.5s30.833 -9 47.5 -9s32.667 2.66699 48 8s28.666 12.5 39.999 21.5s20.333 19.333 27 31s10 23.834 10 36.501
c0 28.667 -9.66699 52 -29 70l-66 -65l-48 51l155 156l49 -51l-39 -38c16.667 -17.333 29.667 -35 39 -53s14 -36.667 14 -56c0 -26 -5.33301 -50.333 -16 -73s-25 -42.334 -43 -59.001s-38.5 -29.667 -61.5 -39s-46.833 -14 -71.5 -14c-30 0 -57.667 5 -83 15
s-47 23.833 -65 41.5s-32.167 38.5 -42.5 62.5s-15.5 50 -15.5 78c0 25.333 4.33301 46.666 13 63.999l-32 24c-20 22.667 -30 57.667 -30 105c0 38.667 7.33301 74.334 22 107.001s34.834 61 60.501 85s55.667 42.667 90 56s71.166 20 110.499 20
c48.667 0 94.334 -8.5 137.001 -25.5s79.834 -40.5 111.501 -70.5s56.667 -65.167 75 -105.5s27.5 -83.833 27.5 -130.5c0 -63.333 -17.333 -123 -52 -179l82 -138h-81z" />
    <glyph glyph-name="uni0B0A" unicode="&#xb0a;" horiz-adv-x="740" 
d="M707 218c-2 -44.667 -22.3291 -79.3311 -60.9961 -103.998l59 -114h-89l-72 150c1.33301 -0.666992 4 -1 8 -1c9.33301 0 18.666 1.83301 27.999 5.5s17.666 8.5 24.999 14.5s13.333 13 18 21s7 16.667 7 26c0 25.333 -6.16699 43.166 -18.5 53.499
s-30.166 15.5 -53.499 15.5c5.33301 13.333 9.66602 27.166 12.999 41.499s5 28.5 5 42.5c0 28.667 -6.16699 55.667 -18.5 81s-29.333 47.5 -51 66.5s-46.834 33.833 -75.501 44.5s-59.334 16 -92.001 16c-28.667 0 -56.834 -5.16699 -84.501 -15.5
s-52.167 -24.5 -73.5 -42.5s-38.666 -39 -51.999 -63s-20 -49.667 -20 -77c0 -28 5 -48 15 -60l17 -10l71 70l50 -51l-57 -57c-29.333 -31.333 -44 -61.666 -44 -90.999c0 -16 3.33301 -31 10 -45s15.667 -26.167 27 -36.5s24.5 -18.5 39.5 -24.5s30.833 -9 47.5 -9
c16 0 31.5 2.5 46.5 7.5s28.333 12.167 40 21.5s21 20.333 28 33s10.5 26.667 10.5 42c0 24 -8.33301 46 -25 66l-70 -68l-48 51l155 156l49 -51l-39 -38c16.667 -17.333 29.667 -35 39 -53s14 -36.667 14 -56c0 -26 -5.33301 -50.333 -16 -73s-25 -42.334 -43 -59.001
s-38.5 -29.667 -61.5 -39s-46.833 -14 -71.5 -14c-30 0 -57.667 5 -83 15s-47 23.833 -65 41.5s-32.167 38.5 -42.5 62.5s-15.5 50 -15.5 78c0 25.333 4.33301 46.666 13 63.999l-18 9c-14 7.33301 -24.833 21.666 -32.5 42.999s-11.5 47 -11.5 77c0 38 8 73.333 24 106
s37.333 61 64 85s57.5 42.833 92.5 56.5s71.5 20.5 109.5 20.5c44.667 0 86.5 -6.83301 125.5 -20.5s73 -32.667 102 -57s51.833 -53.166 68.5 -86.499s25 -69.666 25 -108.999c0 -3.33301 -0.5 -8.5 -1.5 -15.5s-2.83301 -15.5 -5.5 -25.5
c23.333 -13.333 40 -29.5 50 -48.5s15 -41.833 15 -68.5z" />
    <glyph glyph-name="uni0B0B" unicode="&#xb0b;" horiz-adv-x="695" 
d="M360 154c0 24 -8 44.5 -24 61.5s-35 25.5 -57 25.5s-40.833 -8.5 -56.5 -25.5s-23.5 -37.5 -23.5 -61.5s7.66699 -44.833 23 -62.5s34.333 -26.5 57 -26.5c11.333 0 22 2.5 32 7.5s18.667 11.667 26 20s13 17.833 17 28.5s6 21.667 6 33zM513 103l33.999 34.002
c22.667 26 34 50 34 72c0 7.33301 -2.16699 16.5 -6.5 27.5s-9.33301 21.833 -15 32.5s-11.5 20 -17.5 28s-10.333 12.667 -13 14c7.33301 23.333 11 43 11 59c0 30 -5.66699 57.667 -17 83s-26.833 47.166 -46.5 65.499s-42.5 32.5 -68.5 42.5s-53.667 15 -83 15
c-26.667 0 -52.834 -5.16699 -78.501 -15.5s-48.667 -24.5 -69 -42.5s-36.833 -39 -49.5 -63s-19 -49.333 -19 -76c0 -20.667 5.83301 -38.334 17.5 -53.001s28.167 -29.334 49.5 -44.001c28 22 60.333 33 97 33c22 0 43 -4.33301 63 -13s37.5 -20.167 52.5 -34.5
s27 -31.333 36 -51s13.5 -40.5 13.5 -62.5s-4.16699 -42.667 -12.5 -62s-19.666 -36 -33.999 -50s-31.166 -25.167 -50.499 -33.5s-40 -12.5 -62 -12.5s-42.5 4.16699 -61.5 12.5s-35.667 19.5 -50 33.5s-25.666 30.667 -33.999 50s-12.5 40 -12.5 62
c0 16.667 4.66699 38.667 14 66l-50 38c-31.333 32.667 -47 70.334 -47 113.001c0 39.333 7.66699 76 23 110s36.166 63.5 62.499 88.5s57 44.5 92 58.5s71.833 21 110.5 21s75.334 -6.66699 110.001 -20s65.167 -31.833 91.5 -55.5s47.166 -51.5 62.499 -83.5
s23 -67 23 -105c0 -33.333 -1.66699 -52.333 -5 -57c30.667 -30.667 46 -68 46 -112c0 -47.333 -16.333 -86 -49 -116l67 -100h-87z" />
    <glyph glyph-name="uni0B0C" unicode="&#xb0c;" horiz-adv-x="515" 
d="M406 133c0 12 -4.33301 22.5 -13 31.5s-19 13.5 -31 13.5s-22.5 -4.5 -31.5 -13.5s-13.5 -19.5 -13.5 -31.5s4.5 -22.333 13.5 -31s19.5 -13 31.5 -13s22.333 4.33301 31 13s13 19 13 31zM485 141c0 -23.333 -5.00391 -44.5049 -15.0039 -63.5049s-23.833 -35 -41.5 -48
s-38.5 -23 -62.5 -30s-50 -10.5 -78 -10.5c-33.333 0 -65 5 -95 15s-56.167 24 -78.5 42s-40.166 39.333 -53.499 64s-20 51.667 -20 81c0 23.333 1.83301 43.333 5.5 60s11.5 32.334 23.5 47.001s29 29.667 51 45s51.333 33 88 53l95 49c28.667 19.333 43 44.333 43 75
c0 18 -6.5 32.833 -19.5 44.5s-29.167 17.5 -48.5 17.5c-21.333 0 -39.5 -5.83301 -54.5 -17.5s-22.5 -26.5 -22.5 -44.5c0 -15.333 5.33301 -28.666 16 -39.999l-68 -36c-19.333 24 -29 50.333 -29 79c0 19.333 4.16699 37 12.5 53s19.5 29.833 33.5 41.5
s30.167 20.667 48.5 27s37.5 9.5 57.5 9.5c45.333 0 82.166 -12.167 110.499 -36.5s42.5 -57.166 42.5 -98.499c0 -47.333 -19.667 -86.666 -59 -117.999c-7.33301 -5.33301 -21.166 -14.166 -41.499 -26.499s-47.5 -27.166 -81.5 -44.499
c-25.333 -13.333 -46.166 -25.333 -62.499 -36s-29.166 -21 -38.499 -31s-15.833 -20.167 -19.5 -30.5s-5.5 -22.166 -5.5 -35.499c0 -17.333 4.16699 -34 12.5 -50s19.166 -30 32.499 -42s28.166 -21.5 44.499 -28.5s32.833 -10.5 49.5 -10.5c4 0 7.33301 0.666992 10 2
c-18.667 18 -28 38.667 -28 62c0 17.333 3 33.666 9 48.999s14.333 28.666 25 39.999s23.334 20.333 38.001 27s30.667 10 48 10c16.667 0 32.5 -3 47.5 -9s28.333 -14.167 40 -24.5s20.834 -22.5 27.501 -36.5s10.334 -29 11.001 -45z" />
    <glyph glyph-name="uni0B0F" unicode="&#xb0f;" horiz-adv-x="672" 
d="M0 458l108.003 -0.00195312l438 -367v440l-50 -32c-12.667 -8 -23 -15.333 -31 -22l-19 -16c7.33301 -6 13.166 -13 17.499 -21s6.5 -17 6.5 -27c0 -19.333 -7 -35.833 -21 -49.5s-31.667 -20.5 -53 -20.5c-18.667 0 -34.667 6.83301 -48 20.5s-20 30.167 -20 49.5
c0 27.333 10.333 51.333 31 72c1.33301 1.33301 6.16602 5.5 14.499 12.5s20.166 16 35.499 27s33.833 23.333 55.5 37s46.5 27.834 74.5 42.501l54 27c13.333 6.66699 22 10.334 26 11.001v-642h-75z" />
    <glyph glyph-name="uni0B10" unicode="&#xb10;" horiz-adv-x="916" 
d="M916 734c-1.33301 -41.333 -15.999 -76.0049 -43.999 -104.005v-630h-71v335c-8.66699 -9.33301 -18.5 -16 -29.5 -20s-22.167 -6 -33.5 -6c-16.667 0 -30.667 2.5 -42 7.5s-19.333 13.167 -24 24.5v-341h-75l-543 458h108l438 -367v438c-6 -2 -13.333 -5.66699 -22 -11
s-17.5 -11.166 -26.5 -17.499s-17.667 -13.166 -26 -20.499s-15.5 -14.333 -21.5 -21c13.333 -15.333 20 -30.666 20 -45.999c0 -17.333 -6.5 -32.833 -19.5 -46.5s-29.167 -20.5 -48.5 -20.5c-48.667 0 -73 23.667 -73 71c0 24 10 46 30 66
c0.666992 0.666992 5.5 4.83398 14.5 12.501s21.333 17.5 37 29.5s34.5 25.333 56.5 40s46 29.334 72 44.001l79 40v-135l30 -8c-6.66699 -15.333 -11.834 -29 -15.501 -41s-5.5 -22 -5.5 -30c0 -16 5.33301 -29 16 -39s27.667 -15 51 -15c20 0 37.667 9 53 27v221
c4.66699 3.33301 9.5 9 14.5 17s9.83301 16.5 14.5 25.5s8.5 17.667 11.5 26s4.5 14.833 4.5 19.5c0 36 -25 54 -75 54c-7.33301 0 -16.666 -1.33301 -27.999 -4s-24.333 -5.5 -39 -8.5s-30.834 -5.66699 -48.501 -8s-36.5 -3.5 -56.5 -3.5c-50 0 -81.667 6.33301 -95 19
l24 68l29 -10c20.667 -6.66699 41.667 -10 63 -10c12.667 0 28.167 1.33301 46.5 4s36.166 5.66699 53.499 9l46 9c13.333 2.66699 22 4 26 4c16 0 31.5 -2.33301 46.5 -7s28.333 -11.5 40 -20.5s20.834 -20 27.501 -33s10 -28.167 10 -45.5z" />
    <glyph glyph-name="uni0B13" unicode="&#xb13;" horiz-adv-x="588" 
d="M557 182c-0.666992 -28 -6.66797 -53.5049 -18.001 -76.5049s-26.833 -42.833 -46.5 -59.5s-42.834 -29.5 -69.501 -38.5s-55.334 -13.5 -86.001 -13.5c-94 0 -166.833 31.167 -218.5 93.5s-77.5 152.166 -77.5 269.499c0 52.667 7.66699 102.334 23 149.001
s40 92 74 136h97c-84 -84 -126 -177.333 -126 -280c0 -99.333 18.833 -173.666 56.5 -222.999s92.5 -74 164.5 -74c19.333 0 38.333 3.16699 57 9.5s35.167 14.833 49.5 25.5s26 23.334 35 38.001s13.5 30.334 13.5 47.001c0 14 -2.83301 27.833 -8.5 41.5
s-13.167 26 -22.5 37s-20.666 19.833 -33.999 26.5s-27.333 10 -42 10c-6.66699 0 -14.667 -1.83301 -24 -5.5s-18.666 -8.16699 -27.999 -13.5s-18 -11.333 -26 -18s-13.333 -13 -16 -19l-49 55l38 33c13.333 11.333 27.333 20.833 42 28.5s28.667 13.834 42 18.501
c38 11.333 67.667 26.166 89 44.499s32 41.5 32 69.5c0 21.333 -5.66699 40.5 -17 57.5s-26.666 25.5 -45.999 25.5c-21.333 0 -37.166 -5.66699 -47.499 -17s-15.5 -26 -15.5 -44c0 -6 1.16699 -12 3.5 -18s5.16602 -11.667 8.49902 -17l-65 -36
c-15.333 21.333 -23 46.333 -23 75c0 18 3.66699 35 11 51s17 29.833 29 41.5s26.167 20.834 42.5 27.501s33.5 10 51.5 10c19.333 0 37.5 -4 54.5 -12s31.667 -18.833 44 -32.5s22.166 -29.5 29.499 -47.5s11 -36.667 11 -56c0 -67.333 -27.667 -118.666 -83 -153.999
c12 -5.33301 23.333 -14 34 -26s20.334 -25.667 29.001 -41s15.5 -31.5 20.5 -48.5s7.5 -33.5 7.5 -49.5z" />
    <glyph glyph-name="uni0B14" unicode="&#xb14;" horiz-adv-x="758" 
d="M758 734c0 -39.333 -15.0039 -74.0029 -45.0039 -104.003v-630h-71v132c-16.667 -12 -31.667 -18 -45 -18c-7.33301 0 -15 1.66699 -23 5s-16.333 7.66602 -25 12.999l-19 -39c-19.333 -33.333 -45.5 -58.166 -78.5 -74.499s-71.167 -24.5 -114.5 -24.5
c-48 0 -90.5 8 -127.5 24s-68 39.167 -93 69.5s-43.833 67.333 -56.5 111s-19 93.5 -19 149.5c0 52.667 7.66699 103.167 23 151.5s40 95.833 74 142.5h97c-84 -84 -126 -177.333 -126 -280c0 -99.333 18.833 -173.666 56.5 -222.999s92.5 -74 164.5 -74
c19.333 0 38.333 3.16699 57 9.5s35.167 14.833 49.5 25.5s26 23.334 35 38.001s13.5 30.334 13.5 47.001c0 14 -2.83301 27.833 -8.5 41.5s-13.167 26 -22.5 37s-20.666 19.833 -33.999 26.5s-27.333 10 -42 10c-6.66699 0 -14.667 -1.83301 -24 -5.5
s-18.666 -8.16699 -27.999 -13.5s-18 -11.333 -26 -18s-13.333 -13 -16 -19l-49 55l38 33c13.333 11.333 27.333 20.833 42 28.5s28.667 13.834 42 18.501c38 11.333 67.667 26.166 89 44.499s32 41.5 32 69.5c0 21.333 -5.66699 40.5 -17 57.5s-26.666 25.5 -45.999 25.5
c-21.333 0 -37.166 -5.66699 -47.499 -17s-15.5 -26 -15.5 -44c0 -6 1.16699 -12 3.5 -18s5.16602 -11.667 8.49902 -17l-65 -36c-15.333 21.333 -23 46.333 -23 75c0 18 3.66699 35 11 51s17 29.833 29 41.5s26.167 20.834 42.5 27.501s33.5 10 51.5 10
c19.333 0 37.5 -4 54.5 -12s31.667 -18.833 44 -32.5s22.166 -29.5 29.499 -47.5s11 -36.667 11 -56c0 -67.333 -27.667 -118.666 -83 -153.999l42 -42l11 21l49 -21c-11.333 -22.667 -17 -42 -17 -58c0 -43.333 16.667 -65 50 -65c12.667 0 21.334 2.33301 26.001 7
s9.66699 10 15 16v437c30.667 26 46 51 46 75c0 36 -25.667 54 -77 54c-8 0 -17.833 -1.33301 -29.5 -4l-39 -8.5c-14.333 -3 -30 -5.66699 -47 -8s-35.5 -3.5 -55.5 -3.5c-25.333 0 -46.833 2.33301 -64.5 7s-35.167 12 -52.5 22l20 67l36 -16
c24.667 -9.33301 52.334 -14 83.001 -14c14 0 29 1.33301 45 4s32 5.66699 48 9s31.5 6.33301 46.5 9s28.5 4 40.5 4c14.667 0 29 -2.66699 43 -8s26.333 -12.833 37 -22.5s19.167 -20.834 25.5 -33.501s9.83301 -26.334 10.5 -41.001z" />
    <glyph glyph-name="uni0B15" unicode="&#xb15;" horiz-adv-x="672" 
d="M271 193c0 50 -18.666 74.999 -55.999 74.999c-16.667 0 -29.834 -7.66699 -39.501 -23s-14.5 -32.666 -14.5 -51.999c0 -20 5 -38.167 15 -54.5s23.333 -24.5 40 -24.5c36.667 0 55 26.333 55 79zM630.001 342.999c0 -20 -3.00195 -46.9971 -9.00195 -80.9971l-64 22
c0.666992 13.333 1.33398 25 2.00098 35s1 19 1 27c0 32 -6 62 -18 90s-28.5 52.333 -49.5 73s-45.833 37 -74.5 49s-59.334 18 -92.001 18c-28 0 -54.833 -4.83301 -80.5 -14.5s-48.334 -22.834 -68.001 -39.501s-35.167 -36.167 -46.5 -58.5s-17 -46.5 -17 -72.5
c0 -19.333 2 -34.5 6 -45.5s10.667 -22.5 20 -34.5c20 20 45 30 75 30c34.667 0 64.667 -12.667 90 -38c22 22.667 51.667 34 89 34c16.667 0 32.334 -2.83301 47.001 -8.5s27.334 -13.334 38.001 -23.001s19 -21 25 -34s9 -26.5 9 -40.5v-231h-73v214
c-2 33.333 -18.333 50 -49 50c-30 0 -45 -15.333 -45 -46v-218h-73v65l-22 -11c-15.333 -6.66699 -27.333 -10 -36 -10c-19.333 0 -37 3.83301 -53 11.5s-29.5 18.167 -40.5 31.5s-19.5 29 -25.5 47s-9 37.667 -9 59c0 20.667 3.33301 36.667 10 48
c-12.667 13.333 -22.834 25.166 -30.501 35.499s-13.667 20.666 -18 30.999s-7.16602 21.166 -8.49902 32.499s-2 24.333 -2 39c0 38 7.5 73.5 22.5 106.5s35.333 61.5 61 85.5s55.834 43 90.501 57s71.667 21 111 21c42 0 81.667 -7.83301 119 -23.5
s69.833 -37.167 97.5 -64.5s49.667 -59.666 66 -96.999s24.5 -77.666 24.5 -120.999z" />
    <glyph glyph-name="uni0B16" unicode="&#xb16;" horiz-adv-x="658" 
d="M531 467c-11.333 -14 -21.666 -26.1641 -30.999 -36.4971s-18.666 -18.833 -27.999 -25.5s-19.166 -11.667 -29.499 -15s-22.5 -5 -36.5 -5c-34.667 0 -63.5 10.667 -86.5 32s-34.5 50.333 -34.5 87c0 27.333 4.66699 50.333 14 69c-123.333 -26 -185 -90.667 -185 -194
c0 -11.333 0.666992 -20.833 2 -28.5s4.16602 -15 8.49902 -22s11 -14.333 20 -22s21.5 -16.834 37.5 -27.501l-2 3c36 22 68.333 33 97 33c20.667 0 40.167 -4 58.5 -12s34.5 -19 48.5 -33s25 -30.5 33 -49.5s12 -39.5 12 -61.5c0 -21.333 -3.83301 -41.833 -11.5 -61.5
s-18.167 -37.167 -31.5 -52.5s-28.833 -27.666 -46.5 -36.999s-36.834 -14 -57.501 -14c-22.667 0 -44 4.16699 -64 12.5s-37.333 19.666 -52 33.999s-26.334 31.333 -35.001 51s-13 40.5 -13 62.5c0 15.333 2.16699 29.833 6.5 43.5s7.83301 23.167 10.5 28.5
c-36 18 -61.167 38.5 -75.5 61.5s-21.5 52.5 -21.5 88.5c0 38 7.66699 73.667 23 107s36.166 62.166 62.499 86.499s57 43.666 92 57.999s71.833 21.5 110.5 21.5c20.667 0 38.5 -0.5 53.5 -1.5s28.833 -3.16699 41.5 -6.5c-4 -3.33301 -9.33301 -10.833 -16 -22.5
s-13.334 -24.5 -20.001 -38.5s-12.5 -28.167 -17.5 -42.5s-7.5 -26.166 -7.5 -35.499c0 -15.333 3.5 -26.5 10.5 -33.5s18.5 -10.5 34.5 -10.5c12.667 0 26.334 6.5 41.001 19.5s28.334 27.667 41.001 44s23.167 32.166 31.5 47.499s12.5 25.333 12.5 30v43h74v-642h-74v467
zM357 159.003c0 24 -7.16992 44.167 -21.5029 60.5s-33.833 24.5 -58.5 24.5c-11.333 0 -22.166 -2.33301 -32.499 -7s-19.166 -11 -26.499 -19s-13.166 -17.333 -17.499 -28s-6.5 -22 -6.5 -34c0 -24 7.83301 -44.667 23.5 -62s35.5 -26 59.5 -26s43.333 8.33301 58 25
s22 38.667 22 66z" />
    <glyph glyph-name="uni0B17" unicode="&#xb17;" horiz-adv-x="654" 
d="M355 159c0 24 -7.33398 44.167 -22.001 60.5s-33.667 24.5 -57 24.5c-11.333 0 -22 -2.5 -32 -7.5s-18.667 -11.5 -26 -19.5s-13.166 -17.333 -17.499 -28s-6.5 -21.667 -6.5 -33c0 -24.667 7.33301 -45.5 22 -62.5s34.667 -25.5 60 -25.5c23.333 0 42.333 8.33301 57 25
s22 38.667 22 66zM528.999 391c0 25.333 -15.333 57.665 -46 96.998c-44 59.333 -103.333 89 -178 89c-25.333 0 -49.666 -5.16699 -72.999 -15.5s-43.833 -24.333 -61.5 -42s-31.834 -38.167 -42.501 -61.5s-16 -47.666 -16 -72.999c0 -28 11 -53.333 33 -76l35 -27
c36 22 68.333 33 97 33c20.667 0 40.167 -4 58.5 -12s34.5 -19 48.5 -33s25 -30.5 33 -49.5s12 -39.5 12 -61.5c0 -21.333 -3.83301 -41.833 -11.5 -61.5s-18.167 -37.167 -31.5 -52.5s-28.833 -27.666 -46.5 -36.999s-36.834 -14 -57.501 -14
c-23.333 0 -44.666 4.33301 -63.999 13s-36 20.5 -50 35.5s-25 32.5 -33 52.5s-12 41.333 -12 64c0 20.667 4 43 12 67c-64.667 34 -97 85.667 -97 155c0 40 6.66699 76.667 20 110s32 61.833 56 85.5s52.5 42.167 85.5 55.5s69.5 20 109.5 20c58 0 111.667 -16 161 -48
l59 -52v90h72v-642h-72v391z" />
    <glyph glyph-name="uni0B18" unicode="&#xb18;" horiz-adv-x="664" 
d="M488 518c-34.667 36.667 -88 54.999 -160 54.999c-28 0 -54.667 -4.5 -80 -13.5s-47.666 -21.667 -66.999 -38s-34.666 -35.666 -45.999 -57.999s-17 -46.833 -17 -73.5s7.66699 -49.5 23 -68.5s34.666 -28.5 57.999 -28.5l9 7.5l22 18l28.5 22
c10.333 7.66699 20.166 14.167 29.499 19.5l50 -49c-90.667 -40 -136 -99 -136 -177c0 -17.333 5.66699 -33 17 -47s25 -21 41 -21c43.333 0 65 26 65 78v76h72v-77c0 -8.66699 1.5 -17.5 4.5 -26.5s7.33301 -17 13 -24s12.167 -12.667 19.5 -17s15.333 -6.5 24 -6.5
c11.333 0 22.333 3.33301 33 10s20.167 15.167 28.5 25.5s15 21.833 20 34.5s7.5 25 7.5 37v259zM547 47.999c-19.333 -31.333 -50.666 -47.001 -93.999 -47.001c-36 0 -64.333 20.333 -85 61l-33 -36c-21.333 -17.333 -47.333 -26 -78 -26
c-17.333 0 -33.833 3.66699 -49.5 11s-29.5 17.333 -41.5 30s-21.5 26.834 -28.5 42.501s-10.5 32.167 -10.5 49.5c0 53.333 8.66699 88.666 26 105.999c-33.333 0 -60.333 12.833 -81 38.5s-31 59.5 -31 101.5c0 37.333 7.5 72.333 22.5 105s35.333 61.334 61 86.001
s55.667 44 90 58s70.5 21 108.5 21c24.667 0 46.667 -1.33301 66 -4s37.5 -7.5 54.5 -14.5s33.667 -16.667 50 -29s34.166 -27.833 53.499 -46.5v87h73v-642h-73v48z" />
    <glyph glyph-name="uni0B19" unicode="&#xb19;" horiz-adv-x="712" 
d="M633 423c0 19.333 -4.99902 34.5 -14.999 45.5s-25.333 16.5 -46 16.5c-19.333 0 -34.833 -5.83301 -46.5 -17.5s-17.5 -26.834 -17.5 -45.501c0 -17.333 6.16699 -31.666 18.5 -42.999s27.166 -17 44.499 -17c18.667 0 33.667 5.83301 45 17.5s17 26.167 17 43.5z
M697.001 422c0 -17.333 -3.33496 -33.6689 -10.002 -49.002s-15.5 -28.666 -26.5 -39.999s-24 -20.333 -39 -27s-30.833 -10 -47.5 -10c-17.333 0 -33.833 3.33301 -49.5 10s-29.5 15.667 -41.5 27s-21.5 24.666 -28.5 39.999s-10.5 31.666 -10.5 48.999
c0 30 10.333 56.667 31 80c-50 50 -103 75 -159 75c-26 0 -51.333 -5 -76 -15s-46.834 -24 -66.501 -42s-35.334 -39 -47.001 -63s-17.5 -50 -17.5 -78c0 -27.333 11.333 -47.333 34 -60l35 -10l70 70l51 -51l-57 -57c-29.333 -31.333 -44 -61.666 -44 -90.999
c0 -16 2.83301 -30.833 8.5 -44.5s13.5 -25.834 23.5 -36.501s21.833 -19 35.5 -25s28.5 -9 44.5 -9s30.833 2.83301 44.5 8.5s25.5 13.334 35.5 23.001s17.833 21 23.5 34s8.5 27.167 8.5 42.5c0 19.333 -8.33301 40 -25 62l-64 -64l-55 47l146 144l51 -50l-32 -27
c35.333 -35.333 53 -71.666 53 -108.999c0 -26.667 -4.83301 -51.334 -14.5 -74.001s-22.667 -42.167 -39 -58.5s-35.333 -29.166 -57 -38.499s-44.5 -14 -68.5 -14c-29.333 0 -56 5 -80 15s-44.333 23.833 -61 41.5s-29.5 38.5 -38.5 62.5s-13.5 50 -13.5 78
c0 25.333 4.33301 46.666 13 63.999c-31.333 8.66699 -55.666 22.834 -72.999 42.501s-26 48.5 -26 86.5c0 38.667 7.16699 74.334 21.5 107.001s34 61 59 85s54.333 42.667 88 56s69.834 20 108.501 20c20.667 0 39.334 -1.5 56.001 -4.5s32.834 -8.5 48.501 -16.5
s32.167 -19.167 49.5 -33.5s37 -32.5 59 -54.5c8 6 23.333 9 46 9c18 0 34.5 -3.33301 49.5 -10s28 -15.834 39 -27.501s19.5 -25.167 25.5 -40.5s9 -31.666 9 -48.999z" />
    <glyph glyph-name="uni0B1A" unicode="&#xb1a;" horiz-adv-x="688" 
d="M422 156c0 22 -7.83301 40.833 -23.5 56.5s-34.5 23.5 -56.5 23.5s-40.833 -7.83301 -56.5 -23.5s-23.5 -34.5 -23.5 -56.5c0 -10.667 2.16699 -20.834 6.5 -30.501s10.166 -18 17.499 -25s15.833 -12.667 25.5 -17s19.834 -6.5 30.501 -6.5s20.834 2.16699 30.501 6.5
s18.167 10 25.5 17s13.166 15.333 17.499 25s6.5 19.834 6.5 30.501zM656 343c-1.33301 -20 -3.83398 -40 -7.50098 -60s-10.167 -39.333 -19.5 -58l-28 -50l-76 28l26 34c17.333 29.333 26 63 26 101c0 27.333 -6.83301 55 -20.5 83s-31.667 53.333 -54 76
s-48.166 41.167 -77.499 55.5s-59.333 21.5 -90 21.5c-28.667 0 -56.834 -5.5 -84.501 -16.5s-52.5 -25.667 -74.5 -44s-39.667 -39.5 -53 -63.5s-20 -49 -20 -75c0 -16 3.33301 -32 10 -48s14.834 -30.833 24.501 -44.5s20.167 -25.334 31.5 -35.001
s21.666 -15.834 30.999 -18.501c2.66699 12 8.66699 23.333 18 34s20.5 19.667 33.5 27s27.333 13.166 43 17.499s31.5 6.5 47.5 6.5c21.333 0 41.5 -4.16699 60.5 -12.5s35.667 -19.833 50 -34.5s25.666 -31.5 33.999 -50.5s12.5 -39.167 12.5 -60.5
s-4.16699 -41.5 -12.5 -60.5s-19.666 -35.5 -33.999 -49.5s-31 -25.167 -50 -33.5s-39.167 -12.5 -60.5 -12.5s-41.166 3.5 -59.499 10.5s-34.666 16.667 -48.999 29s-26 27.166 -35 44.499s-14.167 36.333 -15.5 57c-30 16.667 -55.5 33.834 -76.5 51.501
s-37.833 36 -50.5 55s-21.834 39.5 -27.501 61.5s-8.5 46 -8.5 72c0 36 8.66699 70.333 26 103s40.5 61.334 69.5 86.001s62.833 44.334 101.5 59.001s79 22 121 22c42.667 0 83.167 -8.33301 121.5 -25s72 -39 101 -67s52.167 -60.667 69.5 -98s26 -76.666 26 -117.999z
" />
    <glyph glyph-name="uni0B1B" unicode="&#xb1b;" horiz-adv-x="652" 
d="M274 103c-0.666992 4.66699 -3.5 9.5 -8.5 14.5s-11 9.66699 -18 14s-14.5 7.83301 -22.5 10.5s-15.667 4 -23 4c-30 0 -45 -13.333 -45 -40c0 -29.333 15.333 -44 46 -44c8 0 16.5 1.5 25.5 4.5s17.167 8.16699 24.5 15.5zM477 103
c0 28.667 -14.665 43.001 -43.998 43.001c-7.33301 0 -15.166 -1.5 -23.499 -4.5s-16 -6.83301 -23 -11.5s-13 -9.33398 -18 -14.001s-7.83301 -9 -8.5 -13c13.333 -13.333 25.666 -23.5 36.999 -30.5s21.666 -10.5 30.999 -10.5c15.333 0 27.166 3 35.499 9
s12.833 16.667 13.5 32zM397.002 260.001c0 24.667 -7.66699 46.333 -23 65s-34.666 28 -57.999 28c-22.667 0 -41.667 -9.16699 -57 -27.5s-23 -40.166 -23 -65.499c0 -11.333 2.16699 -22.333 6.5 -33s10 -20 17 -28s15.333 -14.333 25 -19s20.167 -7 31.5 -7
c10.667 0 21 2.5 31 7.5s18.667 11.5 26 19.5s13.166 17.167 17.499 27.5s6.5 21.166 6.5 32.499zM594.002 402c0 -14 -0.664062 -27.001 -1.99707 -39.001s-3.66602 -23.667 -6.99902 -35l-70 25c2 4 3 11 3 21c0 28.667 -4.5 55.5 -13.5 80.5s-21.667 46.5 -38 64.5
s-36.166 32.167 -59.499 42.5s-49 15.5 -77 15.5c-24.667 0 -47.5 -4.16699 -68.5 -12.5s-39 -20 -54 -35s-26.667 -32.667 -35 -53s-12.5 -42.5 -12.5 -66.5c0 -21.333 4.33301 -35.333 13 -42l18 -8l10 10c6.66699 6.66699 15.5 13.834 26.5 21.501
s23.833 14.834 38.5 21.501s30.667 10 48 10c104.667 0 157 -57.667 157 -173c0 -6.66699 -0.166992 -13 -0.5 -19s-0.833008 -11.667 -1.5 -17c54.667 -18.667 82 -54 82 -106c0 -37.333 -10.167 -66.5 -30.5 -87.5s-48.833 -31.5 -85.5 -31.5
c-8.66699 0 -19.334 1.83301 -32.001 5.5s-25.167 8.16699 -37.5 13.5s-23.5 10.666 -33.5 15.999s-16.667 10 -20 14c-4.66699 -5.33301 -11.5 -10.666 -20.5 -15.999s-18.5 -10.333 -28.5 -15s-19.833 -8.5 -29.5 -11.5s-17.834 -4.5 -24.501 -4.5
c-17.333 0 -33.833 3.16699 -49.5 9.5s-29.5 14.666 -41.5 24.999s-21.5 22.666 -28.5 36.999s-10.5 29.5 -10.5 45.5c0 38.667 15 65.334 45 80.001c-12 12.667 -28.333 19 -49 19l17 53c12.667 -1.33301 26 -6.33301 40 -15s24.667 -15.667 32 -21l-2 60
c-6.66699 0 -14.834 3.66699 -24.501 11s-18.834 17 -27.501 29s-16 25.667 -22 41s-9 31 -9 47c0 33.333 6.33301 64.333 19 93s30 53.5 52 74.5s47.5 37.667 76.5 50s59.833 18.833 92.5 19.5c36 0 70.333 -6.16699 103 -18.5s61.5 -29.5 86.5 -51.5s45.167 -48 60.5 -78
s23.666 -63 24.999 -99z" />
    <glyph glyph-name="uni0B1C" unicode="&#xb1c;" horiz-adv-x="664" 
d="M640 337c-2 -31.333 -7 -60.334 -15 -87.001l-71 14c3.33301 6.66699 6.33301 16.5 9 29.5s4 29.5 4 49.5c0 29.333 -6.5 58 -19.5 86s-30.667 52.833 -53 74.5s-48.833 39.167 -79.5 52.5s-63.667 20 -99 20c-29.333 0 -56.666 -5 -81.999 -15
s-47.666 -23.667 -66.999 -41s-34.5 -37.666 -45.5 -60.999s-16.5 -48.666 -16.5 -75.999c0 -10 0.666992 -18.833 2 -26.5s3.83301 -15 7.5 -22s9.16699 -14.333 16.5 -22s17 -16.834 29 -27.501c25.333 20.667 50.666 32.334 75.999 35.001v-68
c-42.667 -16 -64 -50 -64 -102c0 -25.333 6.5 -47.166 19.5 -65.499s29.167 -27.5 48.5 -27.5c24.667 0 44 11.333 58 34c-30.667 26.667 -46 58 -46 94c0 18 3.33301 34.667 10 50s16 28.666 28 39.999s26.5 20.166 43.5 26.499s35.5 9.5 55.5 9.5
c42.667 0 77.667 -11.333 105 -34v-277h-72v237c-6.66699 5.33301 -15.334 8 -26.001 8c-19.333 0 -36.833 -5.66699 -52.5 -17s-23.5 -25.333 -23.5 -42c0 -27.333 14.667 -45 44 -53c0 -96.667 -41.333 -145 -124 -145c-21.333 0 -40.833 4.33301 -58.5 13
s-33.167 20.5 -46.5 35.5s-23.666 32.167 -30.999 51.5s-11 40 -11 62c0 25.333 6.66699 52.333 20 81c-16 13.333 -29.167 25.5 -39.5 36.5s-18.5 22 -24.5 33s-10.333 22.5 -13 34.5s-4.33398 25.667 -5.00098 41c0 38 7.5 73.667 22.5 107s35.5 62.333 61.5 87
s56.167 44 90.5 58s71.166 21 110.499 21c44.667 0 86.834 -8.16699 126.501 -24.5s74 -38.5 103 -66.5s52 -61 69 -99s25.5 -78.667 25.5 -122z" />
    <glyph glyph-name="uni0B1D" unicode="&#xb1d;" horiz-adv-x="669" 
d="M360 154c0 24 -8 44.5 -24 61.5s-35 25.5 -57 25.5s-40.833 -8.5 -56.5 -25.5s-23.5 -37.5 -23.5 -61.5s7.66699 -44.833 23 -62.5s34.333 -26.5 57 -26.5c11.333 0 22 2.5 32 7.5s18.667 11.667 26 20s13 17.833 17 28.5s6 21.667 6 33zM646 486
c0 -22.667 -3.99707 -43.666 -11.9971 -62.999s-18.833 -36.166 -32.5 -50.499s-29.834 -25.666 -48.501 -33.999s-38.667 -12.5 -60 -12.5s-41.666 4 -60.999 12s-36.166 18.833 -50.499 32.5s-25.666 29.667 -33.999 48s-12.5 37.833 -12.5 58.5c0 27.333 2.33301 43 7 47
c-7.33301 10 -15 15 -23 15c-30 0 -57.5 -4 -82.5 -12s-46.667 -19.167 -65 -33.5s-32.5 -31.333 -42.5 -51s-15 -40.834 -15 -63.501c0 -46.667 24 -79 72 -97c29.333 22 60.333 33 93 33c21.333 0 41.666 -4 60.999 -12s36.166 -18.833 50.499 -32.5
s25.833 -29.834 34.5 -48.501s13 -39 13 -61l-4 -29l186 -67l-23 -69l-191 66c0 -5.33301 -3.66699 -11.666 -11 -18.999s-17 -14.5 -29 -21.5s-25.5 -13 -40.5 -18s-30.5 -7.5 -46.5 -7.5c-24 0 -45.833 4.16699 -65.5 12.5s-36.667 19.666 -51 33.999
s-25.333 31.5 -33 51.5s-11.5 41.667 -11.5 65c0 10.667 1.5 21.167 4.5 31.5s7.16699 21.166 12.5 32.499l-49 41c-14.667 17.333 -25.834 36 -33.501 56s-11.5 41.667 -11.5 65c0 34 7 64.833 21 92.5s33.5 51.334 58.5 71.001s55 35 90 46s73.5 16.5 115.5 16.5
c58 0 97 -22 117 -66c-20.667 -20.667 -31 -42.334 -31 -65.001c0 -21.333 7.66699 -39.5 23 -54.5s34.666 -22.5 57.999 -22.5c21.333 0 39.166 7.83301 53.499 23.5s21.5 35.5 21.5 59.5c0 31.333 -16.333 60.333 -49 87l-44 36l53 54
c78.667 -54.667 118 -113.667 118 -177z" />
    <glyph glyph-name="uni0B1E" unicode="&#xb1e;" horiz-adv-x="633" 
d="M509 218c0 14.667 -1.49902 28.8301 -4.49902 42.4971s-7.66699 25.667 -14 36s-14.166 18.5 -23.499 24.5s-20.333 9 -33 9c-32 0 -48 -13.333 -48 -40v-105h-67v94c0 4.66699 -4.5 11.167 -13.5 19.5s-22.167 12.5 -39.5 12.5
c-12.667 0 -23.334 -3.83301 -32.001 -11.5s-13 -20.167 -13 -37.5c0 -14 3 -26.167 9 -36.5s16.667 -19.166 32 -26.499l-49 -46c-39.333 22.667 -59 57 -59 103c0 21.333 3.33301 37.333 10 48l14 24l-32 15c-22 -22 -33 -54.333 -33 -97c0 -24.667 6 -48.167 18 -70.5
s27.667 -42.166 47 -59.499s41.666 -31.166 66.999 -41.499s51.333 -15.5 78 -15.5s51.167 3.83301 73.5 11.5s41.833 18.5 58.5 32.5s29.667 30.833 39 50.5s14.333 41.167 15 64.5zM581.001 208.996c-0.666992 -32 -7.50098 -61.334 -20.501 -88.001
s-30.833 -49.5 -53.5 -68.5s-49.334 -33.833 -80.001 -44.5s-64 -16.334 -100 -17.001c-37.333 0 -73.166 6.5 -107.499 19.5s-64.5 30.833 -90.5 53.5s-46.833 49.667 -62.5 81s-23.5 65.333 -23.5 102c0 54.667 16.667 105.334 50 152.001c-3.33301 0 -7.83301 4 -13.5 12
s-11.334 18 -17.001 30s-10.5 25.333 -14.5 40s-6 29 -6 43c0 45.333 12.667 84.666 38 117.999h82c-30.667 -32 -46 -69.667 -46 -113c0 -21.333 5 -41.5 15 -60.5s23.667 -35.5 41 -49.5s37.666 -25 60.999 -33s48.333 -12 75 -12c25.333 0 49.666 3.16699 72.999 9.5
s43.833 15.333 61.5 27s31.834 25.334 42.501 41.001s16 33.167 16 52.5c0 21.333 -5.5 39.666 -16.5 54.999s-26.167 23 -45.5 23c-11.333 0 -22.166 -3.66699 -32.499 -11s-15.5 -16.333 -15.5 -27v-82h-70v82c-7.33301 22 -23.666 33 -48.999 33
c-29.333 0 -44 -14.667 -44 -44c0 -16 6.66699 -31.333 20 -46l-48 -36c-12 10 -21.667 21.667 -29 35s-11 28.333 -11 45c0 14.667 2.83301 28.834 8.5 42.501s13.5 25.667 23.5 36s21.833 18.5 35.5 24.5s28.5 9 44.5 9c30 0 57 -9 81 -27c24.667 22 54.334 33 89.001 33
c42 0 74 -12 96 -36s33 -60.333 33 -109c0 -57.333 -19.333 -100.666 -58 -129.999c14.667 -14.667 26.5 -27.667 35.5 -39s16 -23 21 -35s8.16699 -25.167 9.5 -39.5s2 -31.5 2 -51.5z" />
    <glyph glyph-name="uni0B1F" unicode="&#xb1f;" horiz-adv-x="642" 
d="M394 159c-2 24 -9.83301 44.167 -23.5 60.5s-32.5 24.5 -56.5 24.5c-10.667 0 -20.834 -2.33301 -30.501 -7s-18.167 -11 -25.5 -19s-13.166 -17.333 -17.499 -28s-6.5 -22 -6.5 -34c0 -24 7 -44.667 21 -62s33.667 -26 59 -26c26.667 0 46.667 8.83301 60 26.5
s20 39.167 20 64.5zM528 426c0 18.667 -5 36.9961 -15 54.9961s-23.833 33.833 -41.5 47.5s-38.5 24.667 -62.5 33s-50.333 12.5 -79 12.5c-29.333 0 -57 -4.16699 -83 -12.5s-48.833 -19.833 -68.5 -34.5s-35.334 -32 -47.001 -52s-17.5 -41.667 -17.5 -65
c0 -35.333 17.667 -65.666 53 -90.999l54 -30c18.667 17.333 49.667 26 93 26c20.667 0 40.334 -4 59.001 -12s35.167 -19 49.5 -33s25.666 -30.5 33.999 -49.5s12.5 -39.5 12.5 -61.5c0 -21.333 -3.66699 -41.666 -11 -60.999s-17.666 -36.666 -30.999 -51.999
s-29.166 -27.666 -47.499 -36.999s-38.5 -14.333 -60.5 -15c-23.333 0 -45 4.16699 -65 12.5s-37.167 20 -51.5 35s-25.5 32.5 -33.5 52.5s-12 41.667 -12 65c0 20.667 5 43 15 67c-89.333 45.333 -134 105.333 -134 180c0 36 7 68.667 21 98s33.5 54.5 58.5 75.5
s54.833 37.167 89.5 48.5s72.667 17 114 17c79.333 0 148.666 -22 207.999 -66v88h70v-356h-71v115z" />
    <glyph glyph-name="uni0B20" unicode="&#xb20;" horiz-adv-x="651" 
d="M529 323c0 34 -5.33496 66.334 -16.002 97.001s-25.167 57.5 -43.5 80.5s-40.166 41.333 -65.499 55s-52.333 20.5 -81 20.5c-30 0 -57.5 -6.5 -82.5 -19.5s-46.5 -30.833 -64.5 -53.5s-32.167 -49.5 -42.5 -80.5s-15.5 -64.167 -15.5 -99.5
c0 -34.667 5 -67.167 15 -97.5s24 -56.833 42 -79.5s39.333 -40.834 64 -54.501s51.667 -20.834 81 -21.501c30 0 57.667 6.66699 83 20s47.333 31.5 66 54.5s33.334 49.833 44.001 80.5s16 63.334 16 98.001zM607.998 323.001c0 -44.667 -7.16113 -87 -21.4941 -127
s-34.333 -75.167 -60 -105.5s-55.834 -54.5 -90.501 -72.5s-72.334 -27 -113.001 -27s-78.334 8.66699 -113.001 26s-64.834 41 -90.501 71s-45.667 64.667 -60 104s-21.5 81 -21.5 125s7.16699 86 21.5 126s34.166 75.333 59.499 106s55.166 55 89.499 73s71.5 27 111.5 27
s77.333 -8.33301 112 -25s65 -39.667 91 -69s46.5 -63.833 61.5 -103.5s22.833 -82.5 23.5 -128.5z" />
    <glyph glyph-name="uni0B21" unicode="&#xb21;" horiz-adv-x="662" 
d="M630 343c0 -19.333 -1.33203 -38.166 -3.99902 -56.499s-7 -36.5 -13 -54.5l-69 28c11.333 26 17 53.333 17 82c0 31.333 -6.33301 61.166 -19 89.499s-30 53.333 -52 75s-47.833 38.834 -77.5 51.501s-61.5 19 -95.5 19c-26 0 -51.5 -5 -76.5 -15s-47.333 -24 -67 -42
s-35.334 -39 -47.001 -63s-17.5 -50 -17.5 -78c0 -20 6.66699 -36.167 20 -48.5s28.666 -18.5 45.999 -18.5h4c1.33301 0 2.66602 0.666992 3.99902 2c34 33.333 60 55.666 78 66.999l50 -53c-67.333 -45.333 -101 -94.666 -101 -147.999c0 -16 3.33301 -31 10 -45
s15.667 -26.167 27 -36.5s24.5 -18.5 39.5 -24.5s31.167 -9 48.5 -9c15.333 0 30.5 2.5 45.5 7.5s28.333 12.167 40 21.5s21 20.333 28 33s10.5 26.667 10.5 42c0 24 -8.33301 46 -25 66l-70 -68l-48 51l155 156l49 -51l-39 -38c16.667 -17.333 29.667 -35 39 -53
s14 -36.667 14 -56c0 -26 -5.33301 -50.333 -16 -73s-24.834 -42.334 -42.501 -59.001s-38.167 -29.667 -61.5 -39s-47.333 -14 -72 -14c-30 0 -57.5 5.16699 -82.5 15.5s-46.5 24.166 -64.5 41.499s-32.167 37.333 -42.5 60s-15.5 46.667 -15.5 72
c0 10 0.833008 21.167 2.5 33.5s4.83398 25.166 9.50098 38.499c-35.333 8.66699 -62.666 23.167 -81.999 43.5s-29 48.833 -29 85.5c0 38.667 7.16699 74.334 21.5 107.001s34 61 59 85s54.333 42.667 88 56s69.834 20 108.501 20c44.667 0 85.834 -7.5 123.501 -22.5
s70.5 -36 98.5 -63s50.167 -59.167 66.5 -96.5s25.166 -78.666 26.499 -123.999z" />
    <glyph glyph-name="uni0B22" unicode="&#xb22;" horiz-adv-x="678" 
d="M645 349c0 -22 -3.00391 -45.9932 -9.00391 -71.9932l-74 19c4 18.667 6 37.667 6 57c0 32 -6.16699 61.667 -18.5 89s-29.5 51 -51.5 71s-48 35.667 -78 47s-63 17 -99 17c-27.333 0 -53.666 -5 -78.999 -15s-47.833 -23.833 -67.5 -41.5s-35.5 -38.667 -47.5 -63
s-18 -50.5 -18 -78.5c0 -20.667 6.16699 -35.834 18.5 -45.501s29.833 -17.834 52.5 -24.501c4 9.33301 12.333 19.833 25 31.5s28.334 23.5 47.001 35.5l48 -50c-67.333 -47.333 -101 -96 -101 -146c0 -16 2.83301 -31.333 8.5 -46s13.5 -27.834 23.5 -39.501
s21.667 -20.834 35 -27.501s27.666 -10 42.999 -10c11.333 0 20 1.66699 26 5c-16 46 -24 80.333 -24 103c0 20.667 3 39.834 9 57.501s14.667 33.167 26 46.5s24.833 23.833 40.5 31.5s33.167 11.5 52.5 11.5c17.333 0 33.5 -3 48.5 -9s28 -14.167 39 -24.5
s19.5 -22.833 25.5 -37.5s9 -30.667 9 -48c0 -19.333 -4.16699 -39.166 -12.5 -59.499s-18.333 -38.833 -30 -55.5s-23.667 -30.334 -36 -41.001s-22.166 -16 -29.499 -16c7.33301 -7.33301 16.833 -13.833 28.5 -19.5s22.5 -10.167 32.5 -13.5l-53 -58
c-19.333 8.66699 -35.666 19.5 -48.999 32.5s-23 23.167 -29 30.5c-5.33301 -2 -16.666 -3 -33.999 -3c-32 0 -61.5 4.5 -88.5 13.5s-50.5 21.833 -70.5 38.5s-35.5 37.167 -46.5 61.5s-16.5 52.166 -16.5 83.499c0 20 4.66699 43 14 69l-27 7
c-48.667 19.333 -73 58.666 -73 117.999c0 38 7.16699 73.333 21.5 106s34 61 59 85s54.167 42.833 87.5 56.5s69 20.5 107 20.5c44 0 86 -7.33301 126 -22s75 -35.334 105 -62.001s53.833 -58.334 71.5 -95.001s26.5 -77 26.5 -121zM484.996 193.007
c0 32 -15.333 47.999 -46 47.999c-16.667 0 -29.667 -6.66699 -39 -20s-14 -33.333 -14 -60c0 -6.66699 0.666992 -14.667 2 -24s3 -18.166 5 -26.499s4.16699 -15.833 6.5 -22.5s4.5 -10.667 6.5 -12c6.66699 0 14.667 3.5 24 10.5s18 16.167 26 27.5s14.833 24 20.5 38
s8.5 27.667 8.5 41z" />
    <glyph glyph-name="uni0B23" unicode="&#xb23;" horiz-adv-x="658" 
d="M349 141c0 14 -4.33398 26.499 -13.001 37.499s-20.667 20.5 -36 28.5s-33.333 14 -54 18s-43.334 6 -68.001 6c0.666992 0 -1.66602 -0.333008 -6.99902 -1s-11.5 -1.66699 -18.5 -3s-13.333 -3.16602 -19 -5.49902s-8.5 -4.83301 -8.5 -7.5
c0 -1.33301 1.33301 -5 4 -11s7.33398 -14.333 14.001 -25c19.333 -33.333 40.833 -59 64.5 -77s48.5 -27 74.5 -27c44.667 0 67 22.333 67 67zM530.999 457.999c0 8.66699 -5 19.834 -15 33.501s-23.167 26.834 -39.5 39.501s-35 23.5 -56 32.5s-42.167 13.5 -63.5 13.5
c-34.667 0 -52 -27 -52 -81c0 -13.333 3.16699 -23.5 9.5 -30.5s13.166 -14.167 20.499 -21.5l56 -36l-48 -48l-102 63c-0.666992 0 -1.16699 0.166992 -1.5 0.5s-1.16602 0.5 -2.49902 0.5c-44 -8.66699 -74.833 -24 -92.5 -46s-26.5 -53.333 -26.5 -94
c15.333 4 29.5 7.5 42.5 10.5s24.167 4.5 33.5 4.5c74.667 -2 131.5 -18.333 170.5 -49s58.5 -73 58.5 -127c0 -18.667 -3.5 -35.834 -10.5 -51.501s-16.833 -29.334 -29.5 -41.001s-28 -20.667 -46 -27s-38 -9.5 -60 -9.5c-28 0 -56 8 -84 24s-53.333 36.5 -76 61.5
s-41 53 -55 84s-21 61.5 -21 91.5c0 64.667 16 117.5 48 158.5s79.667 66.833 143 77.5c0 52 10.333 91.333 31 118s52 40 94 40c67.333 0 125.333 -24.333 174 -73v66h74v-642h-74v458z" />
    <glyph glyph-name="uni0B24" unicode="&#xb24;" horiz-adv-x="679" 
d="M642 347c0 -18.667 -1.33008 -37.167 -3.99707 -55.5s-7 -36.5 -13 -54.5l-70 27c5.33301 12.667 9 25.334 11 38.001s3 25.667 3 39c0 31.333 -6.5 61.333 -19.5 90s-30.833 53.834 -53.5 75.501s-49.334 38.834 -80.001 51.501s-63.667 19 -99 19
c-26 0 -51.5 -5 -76.5 -15s-47.333 -24 -67 -42s-35.334 -39 -47.001 -63s-17.5 -50 -17.5 -78c0 -8.66699 2.16699 -16.834 6.5 -24.501s9.66602 -14.5 15.999 -20.5s13.166 -10.667 20.499 -14s14 -5 20 -5c2 0 6.33301 2.83301 13 8.5l22.5 19.5l24.5 22
c8 7.33301 14.667 12.666 20 15.999l59 -49c-70.667 -39.333 -106 -87.333 -106 -144c0 -14 3.83301 -28 11.5 -42s17.5 -26.667 29.5 -38s25.5 -20.5 40.5 -27.5s29.833 -10.5 44.5 -10.5c16 0 31.5 2.33301 46.5 7s28.167 11.167 39.5 19.5s20.5 18.5 27.5 30.5
s10.5 25.333 10.5 40s-1.33301 26.334 -4 35.001c-3.33301 -2.66699 -7.83301 -4.83398 -13.5 -6.50098s-12.5 -2.5 -20.5 -2.5c-9.33301 0 -18.5 1.66699 -27.5 5s-17 8 -24 14s-12.667 13 -17 21s-6.5 17 -6.5 27c0 19.333 7 35.5 21 48.5s30.667 19.5 50 19.5
c16.667 0 32 -4.5 46 -13.5s26.167 -20.5 36.5 -34.5s18.5 -29.833 24.5 -47.5s9.33301 -35.167 10 -52.5c0 -26.667 -5.33301 -51.334 -16 -74.001s-25 -42.334 -43 -59.001s-39 -29.667 -63 -39s-49.333 -14 -76 -14c-25.333 0 -50 5.33301 -74 16s-45.333 24.667 -64 42
s-33.667 37.5 -45 60.5s-17 47.167 -17 72.5c0 12.667 0.833008 24.834 2.5 36.501s4.5 23.167 8.5 34.5l-53 24c-34.667 24 -52 57.667 -52 101c0 39.333 7.16699 75.333 21.5 108s33.833 60.834 58.5 84.501s53.834 42.167 87.501 55.5s70.167 20 109.5 20
c44.667 0 86.667 -7.33301 126 -22s73.833 -35.334 103.5 -62.001s53.167 -58.5 70.5 -95.5s26.333 -77.833 27 -122.5z" />
    <glyph glyph-name="uni0B25" unicode="&#xb25;" horiz-adv-x="624" 
d="M497 97c-53.333 -67.333 -125.998 -101.002 -217.998 -101.002c-34 0 -65.667 5 -95 15s-54.833 24 -76.5 42s-38.667 39.667 -51 65s-18.5 53.333 -18.5 84c0 53.333 20.667 93 62 119c11.333 8 56.333 27.333 135 58c63.333 24 95 62 95 114c0 10 -2.66699 20 -8 30
s-12 19 -20 27s-17 14.333 -27 19s-20 7 -30 7s-20.167 -2 -30.5 -6s-19.5 -9.66699 -27.5 -17s-14.667 -15.833 -20 -25.5s-8 -20.167 -8 -31.5c0 -25.333 9 -49.333 27 -72l-63 -35c-25.333 22.667 -38 54.667 -38 96c0 23.333 4.16699 45 12.5 65s19.833 37.333 34.5 52
s31.5 26.167 50.5 34.5s39.5 12.5 61.5 12.5s42.5 -4.16699 61.5 -12.5s35.667 -19.666 50 -33.999s25.666 -30.666 33.999 -48.999s12.5 -37.5 12.5 -57.5c0 -71.333 -40 -128 -120 -170l-111 -48c-38 -21.333 -57 -50.333 -57 -87c0 -40 15.667 -70.5 47 -91.5
s73.666 -31.5 126.999 -31.5c26 0 51.5 5.66699 76.5 17s47.333 26 67 44s35.5 38.667 47.5 62s18 47 18 71v380h71v-642h-71v97z" />
    <glyph glyph-name="uni0B26" unicode="&#xb26;" horiz-adv-x="656" 
d="M627 352c0 -16 -1.00098 -32.3301 -3.00098 -48.9971s-6.66699 -32.334 -14 -47.001l-18 -41l-66 26c18.667 36.667 28 73.667 28 111c0 28.667 -5.83301 56.5 -17.5 83.5s-27.5 51 -47.5 72s-43.5 37.833 -70.5 50.5s-55.833 19 -86.5 19
c-25.333 0 -49.666 -5.33301 -72.999 -16s-43.833 -25 -61.5 -43s-31.667 -38.5 -42 -61.5s-15.5 -46.833 -15.5 -71.5c0 -26 10.333 -44.333 31 -55l41 -14c16.667 13.333 31 24.333 43 33s22 15.334 30 20.001l52 -66c-5.33301 0 -13.5 -3.33301 -24.5 -10
s-22 -14.667 -33 -24s-20.5 -19.5 -28.5 -30.5s-12 -20.833 -12 -29.5c0 -11.333 2.5 -22.833 7.5 -34.5s11.5 -22.334 19.5 -32.001s17 -17.667 27 -24s20 -9.5 30 -9.5s20.833 2.16699 32.5 6.5s22.5 10 32.5 17s18.5 15.167 25.5 24.5s10.5 19 10.5 29v140h73v-328h-73
v73c-34 -24.667 -72.333 -37 -115 -37c-19.333 0 -38.333 4.83301 -57 14.5s-35.334 22 -50.001 37s-26.5 31.667 -35.5 50s-13.5 35.833 -13.5 52.5c0 31.333 4.33301 53.666 13 66.999c-72.667 26.667 -109 68.667 -109 126c0 37.333 7.16699 72.166 21.5 104.499
s33.833 60.5 58.5 84.5s53.334 43 86.001 57s67.667 21.333 105 22c40.667 0 79 -7.83301 115 -23.5s67.5 -37 94.5 -64s48.5 -58.5 64.5 -94.5s24.333 -74.333 25 -115z" />
    <glyph glyph-name="uni0B27" unicode="&#xb27;" horiz-adv-x="597" 
d="M501 71c-50.667 -48.667 -119.661 -72.999 -206.994 -72.999c-37.333 0 -71.833 5 -103.5 15s-58.834 24.5 -81.501 43.5s-40.334 41.833 -53.001 68.5s-19 56.667 -19 90c0 24.667 4.83301 48.334 14.5 71.001s22.5 42.5 38.5 59.5s34.167 30.5 54.5 40.5
s41.166 15 62.499 15c3.33301 0 6.5 -0.166992 9.5 -0.5s6.16699 -0.833008 9.5 -1.5l-184 243h93l235 -312l-50 -46l-41 46c-7.33301 5.33301 -18.333 8 -33 8c-16.667 0 -33 -3.5 -49 -10.5s-30.333 -16.333 -43 -28s-22.834 -25.334 -30.501 -41.001
s-11.5 -32.167 -11.5 -49.5c0 -22 4.5 -41.5 13.5 -58.5s21.667 -31.5 38 -43.5s35.666 -21 57.999 -27s47.166 -9 74.499 -9c26 0 51.333 5.16699 76 15.5s46.5 24.166 65.5 41.499s34.333 37.333 46 60s17.5 46.667 17.5 72v382h71v-642h-71v71z" />
    <glyph glyph-name="uni0B28" unicode="&#xb28;" horiz-adv-x="664" 
d="M654 339c0 -20.667 -0.832031 -38.6699 -2.49902 -54.0029s-4.33398 -29.166 -8.00098 -41.499s-8.16699 -23.833 -13.5 -34.5s-12 -21.667 -20 -33l-72 26l16 37.5c4.66699 11 8.83398 22 12.501 33s6.33398 22.5 8.00098 34.5s2.5 25.333 2.5 40c0 30.667 -7 60 -21 88
s-32.667 52.667 -56 74s-50 38.333 -80 51s-61 19 -93 19c-25.333 0 -51.666 -5.83301 -78.999 -17.5s-52.333 -27 -75 -46s-41.334 -40.5 -56.001 -64.5s-22 -48.333 -22 -73c0 -58 25 -98.667 75 -122l29 -11c16 12.667 33.167 23.334 51.5 32.001s36 15.834 53 21.501
s32.333 9.83398 46 12.501s24.167 4 31.5 4c41.333 0 68.333 -5.66699 81 -17v-300h-71v246c-26.667 0 -50 -3.66699 -70 -11s-37 -17.5 -51 -30.5s-25.5 -28.5 -34.5 -46.5s-15.833 -37.667 -20.5 -59l6 2c2 0.666992 4.33301 1 7 1c6 0 12 -1.66699 18 -5
s11.333 -7.66602 16 -12.999s8.5 -11.333 11.5 -18s4.5 -13.334 4.5 -20.001c0 -19.333 -4.83301 -34 -14.5 -44s-23.167 -15 -40.5 -15c-27.333 0 -48.5 10.333 -63.5 31s-22.5 46.334 -22.5 77.001c0 54.667 5.33301 86.667 16 96
c-26.667 13.333 -48.834 26.333 -66.501 39s-31.667 26.167 -42 40.5s-17.666 30.5 -21.999 48.5s-6.5 38.667 -6.5 62c0 34.667 9.16699 68.667 27.5 102s42.166 62.666 71.499 87.999s62.666 45.833 99.999 61.5s74.666 23.5 111.999 23.5
c45.333 0 87.833 -8.33301 127.5 -25s74.334 -39.334 104.001 -68.001s53 -62.167 70 -100.5s25.5 -78.833 25.5 -121.5z" />
    <glyph glyph-name="uni0B2A" unicode="&#xb2a;" horiz-adv-x="663" 
d="M534 385c0 18.667 -6.00098 39.1689 -18.001 61.502s-28 43 -48 62s-43.167 35 -69.5 48s-53.833 19.5 -82.5 19.5c-27.333 0 -53.333 -5 -78 -15s-46.334 -23.5 -65.001 -40.5s-33.667 -37.333 -45 -61s-17 -48.834 -17 -75.501c0 -23.333 9.16699 -42.833 27.5 -58.5
s40.166 -24.5 65.499 -26.5c46.667 25.333 82 42.666 106 51.999l32 -66c-17.333 -4 -34.166 -10.167 -50.499 -18.5s-30.666 -18.5 -42.999 -30.5s-22.166 -25.167 -29.499 -39.5s-11 -29.5 -11 -45.5c0 -56.667 49 -85 147 -85c62 0 121.667 34.667 179 104v215z
M533.999 68.002c-10 -9.33301 -22.168 -18.332 -36.501 -26.999s-29.166 -16.334 -44.499 -23.001s-31 -12 -47 -16s-30.667 -6 -44 -6c-34.667 0 -66.167 3.5 -94.5 10.5s-52.5 17.167 -72.5 30.5s-35.333 29.333 -46 48s-16 40 -16 64c0 36.667 7.33301 67.667 22 93
c-80.667 26.667 -121 73 -121 139c0 37.333 7.5 72.333 22.5 105s35.167 61 60.5 85s55 43 89 57s70 21 108 21c24 0 45.833 -2.33301 65.5 -7s38.167 -11.5 55.5 -20.5s34 -20 50 -33s32.333 -27.833 49 -44.5v98h72v-642h-72v68z" />
    <glyph glyph-name="uni0B2B" unicode="&#xb2b;" horiz-adv-x="765" 
d="M685 647c17.333 0.666992 33.498 -2.3291 48.498 -8.99609s28 -15.834 39 -27.501s19.667 -25.334 26 -41.001s9.5 -32.167 9.5 -49.5s-3.33301 -33.5 -10 -48.5s-15.5 -28.167 -26.5 -39.5s-24 -20.333 -39 -27s-30.833 -10 -47.5 -10c-14.667 0 -28.667 2.33301 -42 7
s-25.666 11 -36.999 19v-421h-72v68c-10 -9.33301 -22.167 -18.333 -36.5 -27s-29.166 -16.334 -44.499 -23.001s-31 -12 -47 -16s-30.667 -6 -44 -6c-34.667 0 -66.167 3.5 -94.5 10.5s-52.5 17.167 -72.5 30.5s-35.333 29.333 -46 48s-16 40 -16 64
c0 36.667 7.33301 67.667 22 93c-80.667 26.667 -121 73 -121 139c0 37.333 7.5 72.333 22.5 105s35.167 61 60.5 85s55 43 89 57s70 21 108 21c24 0 45.833 -2.33301 65.5 -7s38.167 -11.5 55.5 -20.5s34 -20 50 -33s32.333 -27.833 49 -44.5v98h72v-23
c11.333 9.33301 23.333 16.166 36 20.499s27 6.83301 43 7.5zM533.998 385.004c0 18.667 -6.00098 39.1689 -18.001 61.502s-28 43 -48 62s-43.167 35 -69.5 48s-53.833 19.5 -82.5 19.5c-27.333 0 -53.333 -5 -78 -15s-46.334 -23.5 -65.001 -40.5s-33.667 -37.333 -45 -61
s-17 -48.834 -17 -75.501c0 -23.333 9.16699 -42.833 27.5 -58.5s40.166 -24.5 65.499 -26.5c46.667 25.333 82 42.666 106 51.999l32 -66c-17.333 -4 -34.166 -10.167 -50.499 -18.5s-30.666 -18.5 -42.999 -30.5s-22.166 -25.167 -29.499 -39.5s-11 -29.5 -11 -45.5
c0 -56.667 49 -85 147 -85c62 0 121.667 34.667 179 104v215zM743.997 522.006c0 19.333 -5.16797 34.333 -15.501 45s-25.5 16 -45.5 16s-35.667 -5.83301 -47 -17.5s-17 -26.834 -17 -45.501c0 -17.333 6 -31.666 18 -42.999s26.667 -17 44 -17
c18.667 0 33.834 6 45.501 18s17.5 26.667 17.5 44z" />
    <glyph glyph-name="uni0B2C" unicode="&#xb2c;" horiz-adv-x="664" 
d="M387 180c0 20 -7.16699 37.167 -21.5 51.5s-31.5 21.5 -51.5 21.5c-20.667 0 -38.167 -7.16699 -52.5 -21.5s-21.5 -31.5 -21.5 -51.5c0 -20.667 7.16699 -38.167 21.5 -52.5s31.833 -21.5 52.5 -21.5c20 0 37.167 7.16699 51.5 21.5s21.5 31.833 21.5 52.5zM647 343
c-0.666992 -20 -2.49609 -40.3359 -5.49609 -61.0029s-8.5 -41 -16.5 -61l-22 -54l-74 26c13.333 24 23.666 47.333 30.999 70s11 48.667 11 78c0 32 -6.83301 62.333 -20.5 91s-31.667 53.834 -54 75.501s-48.333 38.667 -78 51s-60.5 18.5 -92.5 18.5
c-27.333 0 -54.333 -5.5 -81 -16.5s-50.834 -26 -72.501 -45s-39.167 -40.833 -52.5 -65.5s-20 -50.334 -20 -77.001c0 -59.333 26 -101.666 78 -126.999c20.667 27.333 41 48.166 61 62.499s43.667 21.5 71 21.5c23.333 0 44.5 -4 63.5 -12s35.167 -19 48.5 -33
s23.666 -30.833 30.999 -50.5s11 -40.834 11 -63.501v-177h-74v58c-14 -14 -40.667 -21 -80 -21c-20.667 0 -39.667 3 -57 9s-32.333 14.333 -45 25s-22.667 23.167 -30 37.5s-11 29.833 -11 46.5c-48.667 26.667 -85.667 57.834 -111 93.501s-38 81.167 -38 136.5
c0 34.667 8.5 68.334 25.5 101.001s39.667 61.834 68 87.501s61.166 46.334 98.499 62.001s76.333 23.5 117 23.5c42.667 0 83.334 -8.33301 122.001 -25s72.667 -39.334 102 -68.001s52.666 -61.667 69.999 -99s26 -76.666 26 -117.999z" />
    <glyph glyph-name="uni0B2D" unicode="&#xb2d;" horiz-adv-x="748" 
d="M552 123c22.667 24.667 39.166 51.665 49.499 80.998s15.5 61.666 15.5 96.999c0 37.333 -7.66699 72.5 -23 105.5s-35.666 61.833 -60.999 86.5s-55 44.167 -89 58.5s-69.333 21.5 -106 21.5c-31.333 0 -61.333 -5.33301 -90 -16s-54 -25.334 -76 -44.001
s-39.5 -40.667 -52.5 -66s-19.5 -52.666 -19.5 -81.999c0 -12.667 1.16699 -23 3.5 -31s5.16602 -14.667 8.49902 -20s7.33301 -10.333 12 -15l15 -15c4 16 8.83301 30.5 14.5 43.5s11.167 24.167 16.5 33.5c6 11.333 12.333 21.333 19 30l66 -44
c-5.33301 -2 -11 -8.5 -17 -19.5s-11.667 -24 -17 -39s-9.83301 -31.167 -13.5 -48.5s-5.5 -33.666 -5.5 -48.999c0 -37.333 10.333 -67.833 31 -91.5s49.667 -35.5 87 -35.5c58 0 101 27.333 129 82c-2 -0.666992 -5.5 -2 -10.5 -4s-10.667 -4 -17 -6
s-13.166 -3.66699 -20.499 -5s-14 -2 -20 -2c-30.667 0 -54.5 10.333 -71.5 31s-25.5 47 -25.5 79c0 32.667 8.33301 68.334 25 107.001l74 -25c-1.33301 -1.33301 -3.16602 -5.5 -5.49902 -12.5s-4.5 -15 -6.5 -24s-3.83301 -18.333 -5.5 -28s-2.5 -17.834 -2.5 -24.501
c0 -34 10.333 -51 31 -51c12 0 29 11.667 51 35v106h75v-158c0 -50.667 -16.833 -91.667 -50.5 -123s-79.834 -47 -138.501 -47c-30.667 0 -58.667 5 -84 15s-47.166 23.833 -65.499 41.5s-32.5 38.834 -42.5 63.501s-15 52 -15 82v7.5c0 3 0.333008 6.16699 1 9.5
c-66.667 32.667 -100 89.667 -100 171c0 37.333 7.83301 72 23.5 104s37.5 59.667 65.5 83s61.167 41.833 99.5 55.5s80.166 20.834 125.499 21.501c46 0 90.333 -8.83301 133 -26.5s80.5 -41.667 113.5 -72s59.5 -66 79.5 -107s30 -84.5 30 -130.5
c0 -70.667 -19.667 -133.667 -59 -189l79 -123h-91z" />
    <glyph glyph-name="uni0B2E" unicode="&#xb2e;" horiz-adv-x="664" 
d="M540 434c-10.667 22.667 -24.333 43.001 -41 61.001s-35.334 33.333 -56.001 46s-42.667 22.5 -66 29.5s-47.333 10.5 -72 10.5c-24 0 -47.5 -5.16699 -70.5 -15.5s-43.333 -24.5 -61 -42.5s-32 -38.833 -43 -62.5s-16.5 -48.834 -16.5 -75.501
c0 -54 37.333 -93.333 112 -118l85 36l88 29l27 -56c-12 0 -75 -26.333 -189 -79c-50.667 -24 -76 -46.667 -76 -68c0 -8 3.16699 -13.833 9.5 -17.5l21.5 -12.5c8 -4.66699 15.167 -10.5 21.5 -17.5s9.5 -17.5 9.5 -31.5c0 -19.333 -5 -33.5 -15 -42.5
s-26.333 -13.5 -49 -13.5c-23.333 0 -42 9.5 -56 28.5s-21 42.5 -21 70.5s7 54 21 78s30.667 41.333 50 52c-12.667 2.66699 -25.834 9.33398 -39.501 20.001s-26 23.5 -37 38.5s-20.167 31.167 -27.5 48.5s-11 34.333 -11 51c0 36 7.16699 70.167 21.5 102.5
s33.5 60.666 57.5 84.999s51.333 43.833 82 58.5s62.334 22 95.001 22c43.333 0 83.333 -6.33301 120 -19s69.334 -30 98.001 -52l28 -26v90h71v-642h-71v434z" />
    <glyph glyph-name="uni0B2F" unicode="&#xb2f;" horiz-adv-x="661" 
d="M46 106c4.66699 -4.66699 8.83203 -11.165 12.499 -19.498s5.5 -18.833 5.5 -31.5c0 -14 -5.16699 -26 -15.5 -36s-24.5 -15 -42.5 -15c-16 0 -28.667 5.66699 -38 17s-14 28.666 -14 51.999c0 32.667 15.667 59.667 47 81l137 94c-69.333 28.667 -104 73 -104 133
c0 37.333 7.5 72.333 22.5 105s35.167 61 60.5 85s55 43 89 57s70 21 108 21c24 0 45.833 -2.33301 65.5 -7s38.167 -11.5 55.5 -20.5s34 -20 50 -33s32.333 -27.833 49 -44.5v98h72v-642h-72v68c-10 -9.33301 -22.167 -18.333 -36.5 -27s-29.166 -16.334 -44.499 -23.001
s-31 -12 -47 -16s-30.667 -6 -44 -6c-34.667 0 -66.167 3.5 -94.5 10.5s-52.5 17.167 -72.5 30.5s-35.333 29.333 -46 48s-16 40 -16 64v15zM533.998 385.002c0 18.667 -5.99902 39.1689 -17.999 61.502s-28 43 -48 62s-43.167 35 -69.5 48s-53.833 19.5 -82.5 19.5
c-27.333 0 -53.333 -5 -78 -15s-46.334 -23.5 -65.001 -40.5s-33.667 -37.333 -45 -61s-17 -48.834 -17 -75.501c0 -23.333 9.16699 -42.833 27.5 -58.5s40.166 -24.5 65.499 -26.5l43 26l1 -3c13.333 7.33301 25 13.166 35 17.499l27 11.5l32 -66l-32.5 -10
c-10.333 -3.33301 -20.166 -8 -29.499 -14l-17 -11c0 -0.666992 -0.333008 -1.33398 -1 -2.00098c-36 -25.333 -54 -57.666 -54 -96.999c0 -56.667 49 -85 147 -85c62 0 121.667 34.667 179 104v215z" />
    <glyph glyph-name="uni0B30" unicode="&#xb30;" horiz-adv-x="664" 
d="M346 154c-1.33301 24 -9.49805 44.502 -24.498 61.502s-33.5 25.5 -55.5 25.5c-10.667 0 -20.834 -2.33301 -30.501 -7s-18.334 -10.834 -26.001 -18.501s-13.667 -16.834 -18 -27.501s-6.5 -22 -6.5 -34c0 -11.333 2 -22.333 6 -33s9.66699 -20.167 17 -28.5
s15.833 -15 25.5 -20s20.5 -7.5 32.5 -7.5c11.333 0 21.833 2.5 31.5 7.5s18.167 11.667 25.5 20s13 17.833 17 28.5s6 21.667 6 33zM636.002 371.002c0 -86 -24.334 -155.998 -73.001 -209.998l53 -163h-88l-53 162c18 25.333 32.333 47 43 65s19 34.667 25 50
s10 30.666 12 45.999s3 33 3 53c0 28.667 -6.33301 55.334 -19 80.001s-30 46 -52 64s-48.167 32.167 -78.5 42.5s-62.833 15.5 -97.5 15.5c-26.667 0 -52.667 -5.16699 -78 -15.5s-47.833 -24.5 -67.5 -42.5s-35.5 -39 -47.5 -63s-18 -49.333 -18 -76
c0 -20.667 5.66699 -38.334 17 -53.001s27.666 -29.334 48.999 -44.001c28 22 60.333 33 97 33c22 0 43 -4.33301 63 -13s37.5 -20.167 52.5 -34.5s27 -31.333 36 -51s13.5 -40.5 13.5 -62.5c0 -21.333 -4.16699 -41.5 -12.5 -60.5s-19.666 -35.833 -33.999 -50.5
s-31.166 -26.167 -50.499 -34.5s-40 -12.5 -62 -12.5c-21.333 0 -41.833 4.16699 -61.5 12.5s-36.834 19.5 -51.501 33.5s-26.334 30.667 -35.001 50s-13 40 -13 62c0 30 3.66699 53.333 11 70c-60.667 32 -91 81.667 -91 149c0 38 7.66699 73.667 23 107
s35.833 62.5 61.5 87.5s55.5 44.833 89.5 59.5s70 22 108 22c44.667 0 86.834 -7.33301 126.501 -22s74.334 -34.667 104.001 -60s53 -54.833 70 -88.5s25.5 -69.5 25.5 -107.5z" />
    <glyph glyph-name="uni0B32" unicode="&#xb32;" horiz-adv-x="673" 
d="M550 162c14.667 14.667 26.3271 27.8291 34.9941 39.4961s15.334 23.834 20.001 36.501s7.83398 26.667 9.50098 42s2.5 33.666 2.5 54.999c0 31.333 -7.83301 61.333 -23.5 90s-36.167 53.834 -61.5 75.501s-54 39 -86 52s-64.333 19.5 -97 19.5
c-30.667 0 -60.334 -5.16699 -89.001 -15.5s-54 -24.333 -76 -42s-39.5 -38 -52.5 -61s-19.5 -47.167 -19.5 -72.5c0 -49.333 22.667 -92.333 68 -129c24.667 24.667 52.334 37 83.001 37c39.333 0 63.666 -9.33301 72.999 -28c18 18 44.333 27 79 27
c22.667 0 42.834 -7.16699 60.501 -21.5s30.834 -37.166 39.501 -68.499v-198h-76v178c0 10 -2.66699 18.167 -8 24.5s-13.333 9.5 -24 9.5c-10 0 -17.333 -2.66699 -22 -8s-7 -14.666 -7 -27.999v-176h-77v182c0 20.667 -11.667 31 -35 31c-15.333 0 -24 -10.333 -26 -31
v-182h-74v183l-33 17c-30 19.333 -52.833 44.333 -68.5 75s-23.5 67 -23.5 109c0 38.667 8.33301 74.334 25 107.001s39.334 60.667 68.001 84s61.834 41.5 99.501 54.5s77.167 19.5 118.5 19.5c46.667 0 90.834 -8.33301 132.501 -25s78 -39.5 109 -68.5
s55.5 -63.333 73.5 -103s27 -82.167 27 -127.5c0 -79.333 -17 -140 -51 -182l69 -143h-88z" />
    <glyph glyph-name="uni0B33" unicode="&#xb33;" horiz-adv-x="669" 
d="M648 352c0 -68.667 -16.3281 -124.334 -48.9951 -167.001l-63 49c10.667 17.333 18.667 34.833 24 52.5s8 39.167 8 64.5c0 30.667 -6.16699 59.5 -18.5 86.5s-29 50.5 -50 70.5s-45 35.667 -72 47s-55.5 17 -85.5 17c-28.667 0 -56.334 -5.83301 -83.001 -17.5
s-50.5 -27.334 -71.5 -47.001s-37.833 -42.334 -50.5 -68.001s-19 -52.167 -19 -79.5c0 -62 10.667 -103.667 32 -125c16 42 46.333 63 91 63c38 0 64.333 -11.333 79 -34c27.333 22.667 53 34 77 34c16 0 31.167 -2.66699 45.5 -8s26.833 -12.666 37.5 -21.999
s19 -20 25 -32s9 -25 9 -39v-197h-75v196c0 5.33301 -3.83301 11.666 -11.5 18.999s-16.5 11 -26.5 11c-22.667 0 -36.334 -11.333 -41.001 -34v-192h-77v193c-3.33301 22 -16 33 -38 33c-5.33301 0 -10.5 -1.33301 -15.5 -4s-9.5 -5.66699 -13.5 -9
s-7.16699 -6.66602 -9.5 -9.99902s-3.5 -5.66602 -3.5 -6.99902v-196h-73v133c-12.667 10.667 -24.334 24.334 -35.001 41.001s-20 34.667 -28 54s-14.333 39.5 -19 60.5s-7 41.167 -7 60.5c0 40 8 78.167 24 114.5s37.667 68.333 65 96s59.666 49.5 96.999 65.5
s77 24 119 24c39.333 0 77.166 -8 113.499 -24s68.5 -37.667 96.5 -65s50.333 -59 67 -95s25 -73.667 25 -113z" />
    <glyph glyph-name="uni0B35" unicode="&#xb35;" horiz-adv-x="664" 
d="M688 343l0.00683594 -17.9961c0 -8 -0.5 -16.5 -1.5 -25.5s-2.5 -18.167 -4.5 -27.5s-5 -18 -9 -26l-8 -25l-22 -54l-74 26c1.33301 3.33301 3 6.16602 5 8.49902s3.66699 5.16602 5 8.49902l11 24c4 8.66699 8.33301 21.167 13 37.5s7.33398 35.166 8.00098 56.499v20
v10c0 6 -0.333008 12.667 -1 20s-1.83398 14.5 -3.50098 21.5s-4.16699 12.167 -7.5 15.5l-9 20c-4.66699 12 -11 23.333 -19 34s-16.667 20.667 -26 30l-42 36l-17 10.5c-6 3.66699 -12.667 7.16699 -20 10.5l-7 4l-46 12c-6 1.33301 -12 2.33301 -18 3
s-12.333 1.33398 -19 2.00098h-9c-10.667 0 -22.167 -1.66699 -34.5 -5s-23.166 -5 -32.499 -5l-15 -6c-0.666992 0 -1.33398 -0.166992 -2.00098 -0.5s-1.66699 -0.5 -3 -0.5l-22 -11c-9.33301 -5.33301 -17.833 -11 -25.5 -17l-22.5 -18l-13 -12
c-10 -9.33301 -18 -18.5 -24 -27.5s-10.833 -18 -14.5 -27s-6.83398 -18.333 -9.50098 -28s-5.66699 -19.834 -9 -30.501v-25c0 -27.333 7 -50.666 21 -69.999s33.333 -35.333 58 -48c5.33301 7.33301 11 14.666 17 21.999s12.333 14.333 19 21l33 25
c10 4.66699 20.167 8.5 30.5 11.5s21.166 4.5 32.499 4.5h8c32 0 61.667 -10 89 -30l19 -21l6 -8c2 -2.66699 3.66699 -5.33398 5 -8.00098l3 -3c0 -1.33301 0.333008 -2.33301 1 -3l8 -15c0 -0.666992 0.166992 -1.16699 0.5 -1.5s0.5 -0.833008 0.5 -1.5l6 -15
c3.33301 -8 5.16602 -16.833 5.49902 -26.5s0.833008 -18.5 1.5 -26.5v-177h-73v58l-7 -5c-1.33301 -2 -4.66602 -4.33301 -9.99902 -7s-12 -4.66699 -20 -6l-11 -2c-2 0 -3.83301 -0.166992 -5.5 -0.5s-3.16699 -0.5 -4.5 -0.5h-22c-14.667 0 -26.834 0.666992 -36.501 2
s-18.834 4 -27.501 8c-11.333 0 -21.833 3.83301 -31.5 11.5s-18 17 -25 28s-12.5 22.333 -16.5 34s-6 21.167 -6 28.5v6c-0.666992 0 -1.33398 0.166992 -2.00098 0.5s-1.33398 0.5 -2.00098 0.5l-50 30c-20 16 -37.333 33.333 -52 52l-4 7c-6 6 -11.5 14.167 -16.5 24.5
s-9.16699 21.5 -12.5 33.5s-5.83301 24.167 -7.5 36.5s-2.5 23.5 -2.5 33.5v32c0.666992 6.66699 1.66699 13.334 3 20.001l4 20l4 10c6.66699 20 17 40.167 31 60.5s30.5 39.333 49.5 57s40 33.167 63 46.5s46.5 23 70.5 29l11 4c2 0 4.5 0.333008 7.5 1s6.16699 1 9.5 1
l13 3c6.66699 0.666992 13.667 1.16699 21 1.5s14.666 0.5 21.999 0.5h12c2.66699 0 5 -0.166992 7 -0.5s3.66699 -0.5 5 -0.5h8c3.33301 -0.666992 6.33301 -1.33398 9 -2.00098s5.66699 -1 9 -1l13 -2c6.66699 -1.33301 14.5 -3.66602 23.5 -6.99902s16.5 -5 22.5 -5
l11 -5c4 -0.666992 7.66699 -2.33398 11 -5.00098l23 -11c8.66699 -3.33301 18.834 -9.66602 30.501 -18.999s21.5 -18 29.5 -26l23 -23l28 -33l25 -42c9.33301 -16.667 16.666 -36.834 21.999 -60.501s8 -46.167 8 -67.5zM442.007 175.004
c0 24.667 -8.5 45.334 -25.5 62.001s-37.833 25 -62.5 25s-45.5 -8.33301 -62.5 -25s-25.5 -37.334 -25.5 -62.001c0 -24 8.66699 -44.333 26 -61s38 -25 62 -25c12 0 23.333 2.16699 34 6.5s20 10.5 28 18.5s14.333 17.167 19 27.5s7 21.5 7 33.5zM389.007 175.004
c0 -9.33301 -3.66699 -17.5 -11 -24.5s-15.333 -10.5 -24 -10.5c-9.33301 0 -17.5 3.5 -24.5 10.5s-10.5 15.167 -10.5 24.5s3.5 17.5 10.5 24.5s15.167 10.5 24.5 10.5s17.5 -3.5 24.5 -10.5s10.5 -15.167 10.5 -24.5z" />
    <glyph glyph-name="uni0B36" unicode="&#xb36;" horiz-adv-x="688" 
d="M387 140c0 11.333 -2.16504 22.166 -6.49805 32.499s-10 19.5 -17 27.5s-15.333 14.333 -25 19s-19.834 7 -30.501 7c-11.333 0 -21.833 -2.33301 -31.5 -7s-18.334 -11 -26.001 -19s-13.667 -17.167 -18 -27.5s-6.5 -21.166 -6.5 -32.499c0 -24 7.33301 -45 22 -63
s34.667 -27 60 -27c22.667 0 41.5 9 56.5 27s22.5 39 22.5 63zM563.002 399c0 7.33301 -7.67188 23.998 -23.0049 49.998c-24 40 -51.667 71.333 -83 94s-64.333 34 -99 34c-19.333 0 -36.5 -6.33301 -51.5 -19s-22.5 -30 -22.5 -52c0 -14.667 4.66699 -27.167 14 -37.5
s17.666 -16.166 24.999 -17.499l71 -24l-20 -67l-156 48c-38 0 -64.167 -4.83301 -78.5 -14.5s-21.5 -26.5 -21.5 -50.5c0 -10.667 2.83301 -20.667 8.5 -30s12.834 -17.333 21.501 -24s18 -12 28 -16s19 -6 27 -6c28.667 22 61.334 33 98.001 33c22 0 43 -4.16699 63 -12.5
s37.5 -19.666 52.5 -33.999s27 -31.333 36 -51s13.5 -40.5 13.5 -62.5s-4.16699 -42.667 -12.5 -62s-19.666 -36.333 -33.999 -51s-31.166 -26.167 -50.499 -34.5s-39.666 -12.5 -60.999 -12.5c-22 0 -42.667 4 -62 12s-36.166 19.167 -50.499 33.5
s-25.833 31.166 -34.5 50.499s-13 40 -13 62c0 28.667 3.66699 51.667 11 69c-80.667 23.333 -121 67.333 -121 132c0 46.667 13 82.334 39 107.001s62 37 108 37h12.5c3.66699 0 6.16699 -0.333008 7.5 -1c0 51.333 13.333 92 40 122s62.334 45 107.001 45
c75.333 0 145.666 -35 210.999 -105v98h72v-642h-72v399z" />
    <glyph glyph-name="uni0B37" unicode="&#xb37;" horiz-adv-x="663" 
d="M538 95l-26.002 -24.998c-27.333 -26 -57.5 -45.667 -90.5 -59s-68.167 -20 -105.5 -20c-24 0 -47.833 4.5 -71.5 13.5s-45 21 -64 36s-34.333 32.5 -46 52.5s-17.5 41 -17.5 63c0 42.667 9 72.667 27 90c-20 10 -36.833 19.667 -50.5 29s-24.667 19.166 -33 29.499
s-14.166 21.666 -17.499 33.999s-5 26.5 -5 42.5c0 37.333 7.5 72.333 22.5 105s35.167 61 60.5 85s54.833 43 88.5 57s69.5 21 107.5 21c24.667 0 46.834 -2.33301 66.501 -7s38.167 -11.5 55.5 -20.5s34 -20 50 -33s32.333 -27.833 49 -44.5v98h72v-642h-72v95z
M234.998 241.002c-11.333 -6.66699 -20.999 -18.666 -28.999 -35.999s-12 -35.666 -12 -54.999c0 -12 3.5 -23.167 10.5 -33.5s16.333 -19.333 28 -27s24.667 -13.834 39 -18.501s29.166 -7 44.499 -7c22.667 0 45.667 5 69 15s44.5 21.833 63.5 35.5s34.5 27.667 46.5 42
s18 26.166 18 35.499l-148 146zM537.999 385.003c-1.33301 20 -7.99902 41.332 -19.999 63.999s-28 43.334 -48 62.001s-42.833 34.167 -68.5 46.5s-52.834 18.5 -81.501 18.5c-12 0 -24.333 -1.16699 -37 -3.5s-26.667 -5.83301 -42 -10.5l297 -298v121zM182 523.002
c-20.667 -14.667 -37.166 -35.333 -49.499 -62s-18.5 -54 -18.5 -82c0 -23.333 7.16699 -41.833 21.5 -55.5s30.166 -20.5 47.499 -20.5c11.333 0 22 3 32 9l106 71z" />
    <glyph glyph-name="uni0B38" unicode="&#xb38;" horiz-adv-x="678" 
d="M552 412c0 3.33301 -1.66797 8.66602 -5.00098 15.999l-13 28c-20.667 38.667 -48 68.5 -82 89.5s-73 31.5 -117 31.5c-29.333 0 -57.166 -4.16699 -83.499 -12.5s-49.333 -20.166 -69 -35.499s-35.334 -33.5 -47.001 -54.5s-17.5 -43.833 -17.5 -68.5
c0 -16 3.16699 -31.333 9.5 -46s14.833 -27.5 25.5 -38.5s23.334 -19.833 38.001 -26.5s30.667 -10 48 -10c28.667 0 56 10 82 30l73 58l50 -53l-212 -159l320 -87v338zM75.999 123l115 92c-50 18 -88 42.833 -114 74.5s-39 70.5 -39 116.5c0 33.333 7.33301 64.833 22 94.5
s34.667 55.5 60 77.5s55.5 39.333 90.5 52s72.5 19 112.5 19c24.667 0 50.5 -3.66699 77.5 -11s51.667 -15.833 74 -25.5s40.833 -19.5 55.5 -29.5s22 -17.667 22 -23v82h73v-642h-73z" />
    <glyph glyph-name="uni0B39" unicode="&#xb39;" horiz-adv-x="626" 
d="M581 381c0 -6.66699 -0.833984 -16.0039 -2.50098 -28.0039s-3.66699 -24 -6 -36s-4.83301 -23.167 -7.5 -33.5s-5.33398 -17.5 -8.00098 -21.5l-64 37c0 1.33301 0.833008 5 2.5 11l5.5 20.5c2 7.66699 3.66699 15.5 5 23.5s2 14.667 2 20c0 28 -5.33301 54.5 -16 79.5
s-25.167 47 -43.5 66s-40 34 -65 45s-51.5 16.5 -79.5 16.5c-25.333 0 -49.666 -4 -72.999 -12s-43.833 -19.167 -61.5 -33.5s-31.667 -31.666 -42 -51.999s-15.5 -42.5 -15.5 -66.5s8.33301 -41.667 25 -53l28 -12l17 24c21.333 21.333 37 35 47 41l48 -49
c-3.33301 0 -8.5 -3.5 -15.5 -10.5s-14 -15.333 -21 -25s-13 -19.667 -18 -30s-7.5 -19.166 -7.5 -26.499c0 -37.333 22.333 -58 67 -62c6 0 13.167 1.66699 21.5 5s16.166 7.5 23.499 12.5s13.833 10.333 19.5 16s9.16699 10.5 10.5 14.5v123h72v-288h-69v83
c-9.33301 -10 -17.333 -17.5 -24 -22.5s-12.834 -8.5 -18.501 -10.5s-11.667 -3 -18 -3h-22.5l-75 -57l307 -49l-58 -50c-22 0 -153.333 20.667 -394 62l145 115c-10 4.66699 -19 10.334 -27 17.001s-14.833 14.667 -20.5 24s-9.83398 20.666 -12.501 33.999
s-4 29.333 -4 48l-27 10c-45.333 23.333 -69.666 63.333 -72.999 120c0 32.667 6.5 63 19.5 91s31 52.333 54 73s50 36.834 81 48.501s64.5 17.834 100.5 18.501c41.333 0 79.333 -6.83301 114 -20.5s64.834 -32.5 90.501 -56.5s45.834 -52.333 60.501 -85
s22.334 -68 23.001 -106z" />
    <glyph glyph-name="uni0B3C" unicode="&#xb3c;" horiz-adv-x="221" 
d="M183 -132c0 -19.333 -6.33301 -35.333 -19 -48s-28.667 -19 -48 -19s-35.5 6.33301 -48.5 19s-19.5 28.667 -19.5 48s6.5 35.5 19.5 48.5s29.167 19.5 48.5 19.5s35.333 -6.5 48 -19.5s19 -29.167 19 -48.5z" />
    <glyph glyph-name="uni0B3D" unicode="&#xb3d;" horiz-adv-x="462" 
d="M38 186l169 144l-166 136l227 176h117l-229 -176l174 -134l-168 -144l234 -188h-128z" />
    <glyph glyph-name="uni0B3E" unicode="&#xb3e;" horiz-adv-x="178" 
d="M53 642h72v-642h-72v642z" />
    <glyph glyph-name="uni0B3F" unicode="&#xb3f;" horiz-adv-x="15" 
d="M-153 668c-60 44 -124.666 66 -193.999 66c-78.667 0 -147 -24 -205 -72l-45 51c34.667 29.333 71.667 51.833 111 67.5s81.666 23.5 126.999 23.5c46.667 0 90.5 -7 131.5 -21s80.5 -36 118.5 -66l-44 -49v0z" />
    <glyph glyph-name="uni0B40" unicode="&#xb40;" horiz-adv-x="218" 
d="M92 528l-65 -41l-32 57l170 108v-652h-73v528z" />
    <glyph glyph-name="uni0B41" unicode="&#xb41;" horiz-adv-x="15" 
d="M-118 -154c-2.66699 3.33301 -7.16699 7.16699 -13.5 11.5s-13.5 8.33301 -21.5 12s-16.5 6.66699 -25.5 9s-17.167 3.5 -24.5 3.5c-14 0 -26.333 -5.33301 -37 -16s-16 -23 -16 -37c0 -16 5.16699 -28.833 15.5 -38.5s25.833 -14.5 46.5 -14.5
c10 0 19.5 1.83301 28.5 5.5s17 8.5 24 14.5s12.667 13.333 17 22s6.5 18 6.5 28zM188 -150.999c-25.333 -51.333 -63.667 -80.665 -115 -87.998c-6.66699 0 -16.667 2 -30 6s-27 8.83301 -41 14.5s-27 11.5 -39 17.5s-19.333 11 -22 15
c-3.33301 -10.667 -9.5 -21.834 -18.5 -33.501s-20 -22.334 -33 -32.001s-27.167 -17.667 -42.5 -24s-30.666 -9.5 -45.999 -9.5c-16 0 -31.667 2.66699 -47 8s-28.833 13 -40.5 23s-21.167 22 -28.5 36s-11 29.333 -11 46c0 15.333 3.5 30 10.5 44s16.333 26.5 28 37.5
s25 19.833 40 26.5s30.833 10 47.5 10c6 0 13 -1 21 -3s15.667 -4.5 23 -7.5s14.166 -6.33301 20.499 -10s11.166 -7.16699 14.499 -10.5v87h68v-120c0 -1.33301 4.83301 -5 14.5 -11s21 -12.667 34 -20s25.833 -13.833 38.5 -19.5s22.334 -8.5 29.001 -8.5
c33.333 0 60.333 20.333 81 61z" />
    <glyph glyph-name="uni0B42" unicode="&#xb42;" horiz-adv-x="15" 
d="M271 -134c-29.333 -49.333 -71.334 -73.999 -126.001 -73.999c-29.333 0 -57 8.33301 -83 25c-6.66699 -11.333 -16 -22.166 -28 -32.499s-25.167 -19.5 -39.5 -27.5s-29.5 -14.333 -45.5 -19s-31.333 -7 -46 -7c-18 0 -35.5 3 -52.5 9s-32 14.167 -45 24.5
s-23.333 22.666 -31 36.999s-11.5 30.166 -11.5 47.499c0 16 3.16699 31.167 9.5 45.5s14.833 26.833 25.5 37.5s23.167 19 37.5 25s29.5 9 45.5 9v40h66v-99c-5.33301 2 -10.666 3.66699 -15.999 5s-11 2 -17 2c-28.667 0 -49.834 -6 -63.501 -18s-20.5 -26.667 -20.5 -44
s6.66699 -32 20 -44s29.333 -18 48 -18c18 0 36 5 54 15s34 21.833 48 35.5s25.5 27.667 34.5 42s13.5 25.5 13.5 33.5c16 -40 45.667 -60 89 -60c38.667 0 67.334 16 86.001 48l48 -38v0z" />
    <glyph glyph-name="uni0B43" unicode="&#xb43;" horiz-adv-x="15" 
d="M87 -169c0 -32 -14.002 -57.8311 -42.002 -77.498s-64.667 -29.5 -110 -29.5c-21.333 0 -41.5 3.5 -60.5 10.5s-35.5 16.5 -49.5 28.5s-25.167 26.167 -33.5 42.5s-12.5 34.166 -12.5 53.499c0 14 4.5 30.5 13.5 49.5s19.5 37.333 31.5 55s24 32.834 36 45.501
s21 19.667 27 21l55 -28c-4 -0.666992 -11.167 -6.5 -21.5 -17.5s-21 -24 -32 -39s-20.833 -30.333 -29.5 -46s-13 -27.834 -13 -36.501c0 -24 7.66699 -43 23 -57s37 -22 65 -24c24.667 0 46.167 4.16699 64.5 12.5s27.5 19.166 27.5 32.499c0 28.667 -13.333 43 -40 43
c-33.333 0 -53.666 -3.66699 -60.999 -11l27 61c8.66699 2.66699 21.334 4 38.001 4c32 0 55.833 -8 71.5 -24s24.167 -39 25.5 -69z" />
    <glyph glyph-name="uni0B56.126" unicode="&#xb44;" horiz-adv-x="0" 
d="M-88 -215c-8.66699 -9.33301 -15.334 -17.8311 -20.001 -25.498s-8.16699 -14.5 -10.5 -20.5s-3.83301 -11.5 -4.5 -16.5s-1 -9.5 -1 -13.5c0 -24 7 -43 21 -57s35 -22 63 -24c24.667 0 43.667 4.16699 57 12.5s20 18.166 20 29.499c0 12 -3.16699 21.167 -9.5 27.5
s-13.833 10.5 -22.5 12.5s-17.667 2.33301 -27 1s-17 -3.33301 -23 -6l27 61c16.667 2.66699 32.334 2.66699 47.001 0s27.5 -8 38.5 -16s19.5 -18.167 25.5 -30.5s9 -26.5 9 -42.5c0 -32 -12.167 -57.833 -36.5 -77.5s-59.166 -29.5 -104.499 -29.5
c-21.333 0 -41.166 3.5 -59.499 10.5s-34.333 16.5 -48 28.5s-24.5 26.167 -32.5 42.5s-12 34.166 -12 53.499c0 8 1.16699 17.333 3.5 28s6.16602 21.667 11.499 33c-16.667 12 -28.334 25.167 -35.001 39.5s-10 32.166 -10 53.499c0 14 3 29 9 45s14 31.667 24 47
s21.5 30 34.5 44s26.5 25.667 40.5 35l55 -28c-13.333 -9.33301 -25.666 -20.166 -36.999 -32.499s-21.5 -24.833 -30.5 -37.5s-16 -25.167 -21 -37.5s-7.5 -22.833 -7.5 -31.5c0 -20.667 5.66699 -37.167 17 -49.5s27.666 -21.833 48.999 -28.5z" />
    <glyph glyph-name="uni0B47" unicode="&#xb47;" horiz-adv-x="514" 
d="M410 170c-2.66699 48.667 -24.832 85.0029 -66.499 109.003s-98.5 36 -170.5 36l-55 -4c0 -30.667 5 -60.834 15 -90.501s23.5 -56.334 40.5 -80.001s37.167 -42.667 60.5 -57s48 -21.5 74 -21.5c33.333 0 58.666 8.66699 75.999 26s26 44.666 26 81.999z
M482.002 159.003c0 -26.667 -4.50195 -50.5 -13.502 -71.5s-21.5 -38.833 -37.5 -53.5s-34.833 -25.834 -56.5 -33.501s-45.5 -11.5 -71.5 -11.5c-38 0 -73 8.83301 -105 26.5s-59.667 42 -83 73s-41.5 67.333 -54.5 109s-19.5 86.5 -19.5 134.5
c0 46.667 5.83301 89.167 17.5 127.5s28.334 71 50.001 98s48.167 48 79.5 63s66.666 22.5 105.999 22.5c93.333 0 155.333 -36 186 -108l-58 -38l-25 38c-24 24 -58.333 36 -103 36c-25.333 0 -48.666 -5.16699 -69.999 -15.5s-39.833 -24 -55.5 -41s-28 -36.833 -37 -59.5
s-13.5 -46 -13.5 -70c16.667 2.66699 30.834 4.16699 42.501 4.5s22.834 0.5 33.501 0.5c42.667 0 81.667 -5.5 117 -16.5s65.666 -26.5 90.999 -46.5s45 -44.167 59 -72.5s21 -60.166 21 -95.499z" />
    <glyph glyph-name="uni0B48" unicode="&#xb48;" horiz-adv-x="935" 
d="M410 170c-2.66699 48.667 -24.832 85.0029 -66.499 109.003s-98.5 36 -170.5 36l-55 -4c0 -30.667 5 -60.834 15 -90.501s23.5 -56.334 40.5 -80.001s37.167 -42.667 60.5 -57s48 -21.5 74 -21.5c33.333 0 58.666 8.66699 75.999 26s26 44.666 26 81.999z
M482.002 159.003c0 -26.667 -4.50195 -50.5 -13.502 -71.5s-21.5 -38.833 -37.5 -53.5s-34.833 -25.834 -56.5 -33.501s-45.5 -11.5 -71.5 -11.5c-38 0 -73 8.83301 -105 26.5s-59.667 42 -83 73s-41.5 67.333 -54.5 109s-19.5 86.5 -19.5 134.5
c0 46.667 5.83301 89.167 17.5 127.5s28.334 71 50.001 98s48.167 48 79.5 63s66.666 22.5 105.999 22.5c93.333 0 155.333 -36 186 -108l-58 -38l-25 38c-24 24 -58.333 36 -103 36c-25.333 0 -48.666 -5.16699 -69.999 -15.5s-39.833 -24 -55.5 -41s-28 -36.833 -37 -59.5
s-13.5 -46 -13.5 -70c16.667 2.66699 30.834 4.16699 42.501 4.5s22.834 0.5 33.501 0.5c42.667 0 81.667 -5.5 117 -16.5s65.666 -26.5 90.999 -46.5s45 -44.167 59 -72.5s21 -60.166 21 -95.499zM938 771.003c0 -1.33301 0.333984 -3.16504 1.00098 -5.49805
s1 -4.5 1 -6.5c0 -8 -2 -16.833 -6 -26.5s-8.33301 -19 -13 -28s-9 -17.833 -13 -26.5s-6 -16 -6 -22c0 -5.33301 1 -10 3 -14h-72c-1.33301 2 -2 4.16699 -2 6.5v5.5c0 8 2 15.667 6 23s8.5 14.666 13.5 21.999s9.5 14.666 13.5 21.999s6 14.666 6 21.999
c0 32.667 -19.333 49 -58 49c-13.333 0 -26.833 -1.33301 -40.5 -4s-27.5 -5.66699 -41.5 -9s-28.667 -6.33301 -44 -9s-31.333 -4 -48 -4c-12.667 0 -28.5 1.83301 -47.5 5.5s-37.833 8 -56.5 13s-35 10 -49 15s-22.333 8.83301 -25 11.5l23 61
c28 -13.333 54.167 -23.5 78.5 -30.5s48.166 -10.5 71.499 -10.5c9.33301 0 22.833 1.33301 40.5 4l54 8.5l52 8.5c16.333 2.66699 27.5 4.33398 33.5 5.00098c38 0 67.333 -6.5 88 -19.5s33 -35.167 37 -66.5z" />
    <glyph glyph-name="uni0B4B" unicode="&#xb4b;" horiz-adv-x="1021" 
d="M410 170c-2.66699 48.667 -24.832 85.0029 -66.499 109.003s-98.5 36 -170.5 36l-55 -4c0 -30.667 5 -60.834 15 -90.501s23.5 -56.334 40.5 -80.001s37.167 -42.667 60.5 -57s48 -21.5 74 -21.5c33.333 0 58.666 8.66699 75.999 26s26 44.666 26 81.999z
M482.002 159.003c0 -26.667 -4.50195 -50.5 -13.502 -71.5s-21.5 -38.833 -37.5 -53.5s-34.833 -25.834 -56.5 -33.501s-45.5 -11.5 -71.5 -11.5c-38 0 -73 8.83301 -105 26.5s-59.667 42 -83 73s-41.5 67.333 -54.5 109s-19.5 86.5 -19.5 134.5
c0 46.667 5.83301 89.167 17.5 127.5s28.334 71 50.001 98s48.167 48 79.5 63s66.666 22.5 105.999 22.5c93.333 0 155.333 -36 186 -108l-58 -38l-25 38c-24 24 -58.333 36 -103 36c-25.333 0 -48.666 -5.16699 -69.999 -15.5s-39.833 -24 -55.5 -41s-28 -36.833 -37 -59.5
s-13.5 -46 -13.5 -70c16.667 2.66699 30.834 4.16699 42.501 4.5s22.834 0.5 33.501 0.5c42.667 0 81.667 -5.5 117 -16.5s65.666 -26.5 90.999 -46.5s45 -44.167 59 -72.5s21 -60.166 21 -95.499zM914 642.003h72v-642h-72v642z" />
    <glyph glyph-name="uni0B4C" unicode="&#xb4c;" horiz-adv-x="1021" 
d="M410 170c-2.66699 48.667 -24.832 85.0029 -66.499 109.003s-98.5 36 -170.5 36l-55 -4c0 -30.667 5 -60.834 15 -90.501s23.5 -56.334 40.5 -80.001s37.167 -42.667 60.5 -57s48 -21.5 74 -21.5c33.333 0 58.666 8.66699 75.999 26s26 44.666 26 81.999z
M482.002 159.003c0 -26.667 -4.50195 -50.5 -13.502 -71.5s-21.5 -38.833 -37.5 -53.5s-34.833 -25.834 -56.5 -33.501s-45.5 -11.5 -71.5 -11.5c-38 0 -73 8.83301 -105 26.5s-59.667 42 -83 73s-41.5 67.333 -54.5 109s-19.5 86.5 -19.5 134.5
c0 46.667 5.83301 89.167 17.5 127.5s28.334 71 50.001 98s48.167 48 79.5 63s66.666 22.5 105.999 22.5c93.333 0 155.333 -36 186 -108l-58 -38l-25 38c-24 24 -58.333 36 -103 36c-25.333 0 -48.666 -5.16699 -69.999 -15.5s-39.833 -24 -55.5 -41s-28 -36.833 -37 -59.5
s-13.5 -46 -13.5 -70c16.667 2.66699 30.834 4.16699 42.501 4.5s22.834 0.5 33.501 0.5c42.667 0 81.667 -5.5 117 -16.5s65.666 -26.5 90.999 -46.5s45 -44.167 59 -72.5s21 -60.166 21 -95.499zM1017 771.003c0 -2.66699 0.164062 -4.83301 0.49707 -6.5
s0.5 -3.5 0.5 -5.5c0 -10.667 -1.66699 -20.667 -5 -30s-7 -18.5 -11 -27.5s-7.66699 -18.333 -11 -28s-5 -19.834 -5 -30.501v-643h-72v643c0 10.667 1.83301 20.334 5.5 29.001s7.83398 17 12.501 25s8.83398 16.167 12.501 24.5s5.5 17.166 5.5 26.499
c0 14 -5.33301 24.833 -16 32.5s-24.667 11.5 -42 11.5c-13.333 0 -26.833 -1.33301 -40.5 -4s-27.667 -5.66699 -42 -9s-29.166 -6.33301 -44.499 -9s-31.333 -4 -48 -4c-12 0 -27.5 1.83301 -46.5 5.5s-37.833 8 -56.5 13s-35 10 -49 15s-22.333 8.83301 -25 11.5l22 61
c54.667 -27.333 105 -41 151 -41c9.33301 0 22.833 1.33301 40.5 4l54 8.5l52 8.5c16.333 2.66699 27.5 4.33398 33.5 5.00098c37.333 0 66.333 -6.5 87 -19.5s33 -35.167 37 -66.5z" />
    <glyph glyph-name="uni0B4D" unicode="&#xb4d;" horiz-adv-x="15" 
d="M-194 -11h130l144 -218h-68z" />
    <glyph glyph-name="uni0B4E" unicode="&#xb4e;" horiz-adv-x="0" 
d="M-7 514v19h17v-19h-17z" />
    <glyph glyph-name="uni0B56" unicode="&#xb56;" horiz-adv-x="12" 
d="M-6 771c0 -2.66699 0.164062 -4.83301 0.49707 -6.5s0.5 -3.5 0.5 -5.5c0 -10.667 -1.66699 -20.667 -5 -30s-7 -18.5 -11 -27.5s-7.66699 -18.333 -11 -28s-5 -19.834 -5 -30.501h-72c0 10.667 1.83301 20.334 5.5 29.001s7.66699 17 12 25s8.33301 16.167 12 24.5
s5.5 17.166 5.5 26.499c0 14 -5.16699 24.833 -15.5 32.5s-24.5 11.5 -42.5 11.5c-13.333 0 -26.833 -1.33301 -40.5 -4s-27.667 -5.66699 -42 -9s-29 -6.33301 -44 -9s-30.833 -4 -47.5 -4c-12 0 -27.5 1.83301 -46.5 5.5s-37.667 8 -56 13s-34.666 10 -48.999 15
s-22.833 8.83301 -25.5 11.5l22 61c54.667 -27.333 105 -41 151 -41c9.33301 0 22.833 1.33301 40.5 4l54.5 8.5l52 8.5c16 2.66699 27 4.33398 33 5.00098c36.667 0 65.334 -6.5 86.001 -19.5s33.334 -35.167 38.001 -66.5z" />
    <glyph glyph-name="uni0B57" unicode="&#xb57;" horiz-adv-x="165" 
d="M156 771c0 -2.66699 0.163086 -4.83301 0.496094 -6.5s0.5 -3.5 0.5 -5.5c0 -10.667 -1.66699 -20.667 -5 -30s-7 -18.5 -11 -27.5s-7.66699 -18.333 -11 -28s-5 -19.834 -5 -30.501v-643h-72v643c0 10.667 1.83301 20.334 5.5 29.001s7.83398 17 12.501 25
s8.83398 16.167 12.501 24.5s5.5 17.166 5.5 26.499c0 14 -5.33301 24.833 -16 32.5s-24.667 11.5 -42 11.5c-13.333 0 -26.833 -1.33301 -40.5 -4s-27.667 -5.66699 -42 -9s-29.166 -6.33301 -44.499 -9s-31.333 -4 -48 -4c-12 0 -27.5 1.83301 -46.5 5.5s-37.667 8 -56 13
s-34.666 10 -48.999 15s-22.833 8.83301 -25.5 11.5l22 61c54.667 -27.333 105 -41 151 -41c9.33301 0 22.833 1.33301 40.5 4l54.5 8.5l52 8.5c16 2.66699 27 4.33398 33 5.00098c37.333 0 66.333 -6.5 87 -19.5s33 -35.167 37 -66.5z" />
    <glyph glyph-name="uni0B5C" unicode="&#xb5c;" horiz-adv-x="662" 
d="M405 -132c0 -19.333 -6.5 -35.333 -19.5 -48s-29.167 -19 -48.5 -19s-35.5 6.33301 -48.5 19s-19.5 28.667 -19.5 48s6.5 35.5 19.5 48.5s29.167 19.5 48.5 19.5s35.5 -6.5 48.5 -19.5s19.5 -29.167 19.5 -48.5zM630 343c0 -19.333 -1.33203 -38.166 -3.99902 -56.499
s-7 -36.5 -13 -54.5l-69 28c11.333 26 17 53.333 17 82c0 31.333 -6.33301 61.166 -19 89.499s-30 53.333 -52 75s-47.833 38.834 -77.5 51.501s-61.5 19 -95.5 19c-26 0 -51.5 -5 -76.5 -15s-47.333 -24 -67 -42s-35.334 -39 -47.001 -63s-17.5 -50 -17.5 -78
c0 -20 6.66699 -36.167 20 -48.5s28.666 -18.5 45.999 -18.5h4c1.33301 0 2.66602 0.666992 3.99902 2c34 33.333 60 55.666 78 66.999l50 -53c-67.333 -45.333 -101 -94.666 -101 -147.999c0 -16 3.33301 -31 10 -45s15.667 -26.167 27 -36.5s24.5 -18.5 39.5 -24.5
s31.167 -9 48.5 -9c15.333 0 30.5 2.5 45.5 7.5s28.333 12.167 40 21.5s21 20.333 28 33s10.5 26.667 10.5 42c0 24 -8.33301 46 -25 66l-70 -68l-48 51l155 156l49 -51l-39 -38c16.667 -17.333 29.667 -35 39 -53s14 -36.667 14 -56c0 -26 -5.33301 -50.333 -16 -73
s-24.834 -42.334 -42.501 -59.001s-38.167 -29.667 -61.5 -39s-47.333 -14 -72 -14c-30 0 -57.5 5.16699 -82.5 15.5s-46.5 24.166 -64.5 41.499s-32.167 37.333 -42.5 60s-15.5 46.667 -15.5 72c0 10 0.833008 21.167 2.5 33.5s4.83398 25.166 9.50098 38.499
c-35.333 8.66699 -62.666 23.167 -81.999 43.5s-29 48.833 -29 85.5c0 38.667 7.16699 74.334 21.5 107.001s34 61 59 85s54.333 42.667 88 56s69.834 20 108.501 20c44.667 0 85.834 -7.5 123.501 -22.5s70.5 -36 98.5 -63s50.167 -59.167 66.5 -96.5
s25.166 -78.666 26.499 -123.999z" />
    <glyph glyph-name="uni0B5D" unicode="&#xb5d;" horiz-adv-x="678" 
d="M645 349c0 -22 -3.00293 -45.999 -9.00293 -71.999l-74 19c4 18.667 6 37.334 6 56.001c0 34 -6.66699 64.833 -20 92.5s-31.333 51.334 -54 71.001s-49 34.834 -79 45.501s-61.667 16 -95 16c-26.667 0 -52.667 -5 -78 -15s-47.833 -23.833 -67.5 -41.5
s-35.5 -38.667 -47.5 -63s-18 -50.5 -18 -78.5c0 -20.667 6.16699 -35.834 18.5 -45.501s29.833 -17.834 52.5 -24.501c4 9.33301 12.333 19.833 25 31.5s28.334 23.5 47.001 35.5l48 -50c-67.333 -47.333 -101 -96 -101 -146c0 -16 2.83301 -31.333 8.5 -46
s13.5 -27.834 23.5 -39.501s21.667 -20.834 35 -27.501s27.666 -10 42.999 -10c11.333 0 20 1.66699 26 5c-16 46 -24 80.333 -24 103c0 20.667 3 39.834 9 57.501s14.667 33.167 26 46.5s24.833 23.833 40.5 31.5s33.167 11.5 52.5 11.5c17.333 0 33.5 -3 48.5 -9
s28 -14.167 39 -24.5s19.5 -22.833 25.5 -37.5s9 -30.667 9 -48c0 -19.333 -4.16699 -39.166 -12.5 -59.499s-18.333 -38.833 -30 -55.5s-23.667 -30.334 -36 -41.001s-22.166 -16 -29.499 -16c7.33301 -7.33301 16.833 -13.833 28.5 -19.5s22.5 -10.167 32.5 -13.5l-53 -58
c-19.333 8.66699 -35.666 19.5 -48.999 32.5s-23 23.167 -29 30.5c-5.33301 -2 -16.666 -3 -33.999 -3c-32 0 -61.5 4.5 -88.5 13.5s-50.5 21.833 -70.5 38.5s-35.5 37.167 -46.5 61.5s-16.5 52.166 -16.5 83.499c0 20 4.66699 43 14 69l-27 7
c-48.667 19.333 -73 58.666 -73 117.999c0 38.667 7.16699 74.334 21.5 107.001s34 61 59 85s54.167 42.667 87.5 56s69 20 107 20c43.333 0 84.833 -7.16699 124.5 -21.5s74.667 -34.5 105 -60.5s54.5 -57.5 72.5 -94.5s27 -78.167 27 -123.5zM404.997 -131.999
c0 -19.333 -6.5 -35.333 -19.5 -48s-29.167 -19 -48.5 -19s-35.5 6.33301 -48.5 19s-19.5 28.667 -19.5 48s6.5 35.5 19.5 48.5s29.167 19.5 48.5 19.5s35.5 -6.5 48.5 -19.5s19.5 -29.167 19.5 -48.5zM484.997 193.001c0 32 -15.333 47.999 -46 47.999
c-16.667 0 -29.667 -6.66699 -39 -20s-14 -33.333 -14 -60c0 -6.66699 0.666992 -14.667 2 -24s3 -18.166 5 -26.499s4.16699 -15.833 6.5 -22.5s4.5 -10.667 6.5 -12c6.66699 0 14.667 3.5 24 10.5s18 16.167 26 27.5s14.833 24 20.5 38s8.5 27.667 8.5 41z" />
    <glyph glyph-name="uni0B5F" unicode="&#xb5f;" horiz-adv-x="736" 
d="M595 385c0 18.667 -6 39.165 -18 61.498s-28 43 -48 62s-43 35 -69 48s-53.333 19.5 -82 19.5c-28 0 -54.333 -4.5 -79 -13.5s-46.5 -21.5 -65.5 -37.5s-34 -35 -45 -57s-16.5 -46 -16.5 -72c0 -22 7.33301 -39 22 -51s38.667 -19.333 72 -22
c46.667 26.667 81.667 44 105 52l32 -65c-89.333 -20 -134 -60.667 -134 -122c0 -50.667 30 -76 90 -76c18.667 0 39 3 61 9s43.667 14.333 65 25s41.5 23.334 60.5 38.001s35.5 30.334 49.5 47.001v154zM469 -68.002l21.9951 61l65 -20c1.33301 -0.666992 4.33301 -1 9 -1
c6 0 12.333 1.83301 19 5.5s12.5 8.5 17.5 14.5s9.16699 12.667 12.5 20s5 14.666 5 21.999c0 41.333 -15.333 62 -46 62c-3.33301 0 -7 -0.333008 -11 -1s-8.33301 -1.66699 -13 -3c-48 -30 -105 -45 -171 -45c-55.333 0 -99.833 12.333 -133.5 37s-50.5 58.667 -50.5 102
v14l-62 -33c4.66699 -4 8.83398 -10.333 12.501 -19s5.5 -19 5.5 -31c0 -14 -5.16699 -26.167 -15.5 -36.5s-24.5 -15.5 -42.5 -15.5c-34 0 -51 24 -51 72c0 35.333 15.333 61.333 46 78l112 58c-33.333 14 -58.833 31.167 -76.5 51.5s-26.5 43.5 -26.5 69.5
c0 36.667 7.33301 70.667 22 102s34.667 58.333 60 81s54.833 40.334 88.5 53.001s69.834 19 108.501 19c24 0 46 -2.33301 66 -7s38.667 -11.5 56 -20.5s33.833 -20 49.5 -33s31.834 -27.833 48.501 -44.5v98h73v-544c8 -14 13.833 -26.333 17.5 -37
s5.83398 -19.667 6.50098 -27c0 -19.333 -4.16699 -36.333 -12.5 -51s-23.166 -28 -44.499 -40l94 -35l-27 -59z" />
    <glyph glyph-name="uni0B60" unicode="&#xb60;" horiz-adv-x="695" 
d="M503 1l34.999 25.001c22 20 33 43 33 69c0 7.33301 -1.66699 15.833 -5 25.5s-7.33301 19 -12 28s-9.66699 17.167 -15 24.5s-10 12.666 -14 15.999l35 21c22 18 33 38.333 33 61c0 6.66699 -1.5 14 -4.5 22s-7 15.667 -12 23s-10.667 14.166 -17 20.499
s-12.5 11.5 -18.5 15.5l17 26c5.33301 8.66699 9.66602 17.667 12.999 27s5 18 5 26c0 96.667 -81.333 145 -244 145c-30.667 0 -58.834 -4.16699 -84.501 -12.5s-47.834 -20 -66.501 -35s-33.167 -33.167 -43.5 -54.5s-15.5 -45 -15.5 -71c0 -10 1.66699 -20.833 5 -32.5
s7.5 -23.167 12.5 -34.5s10.667 -21.833 17 -31.5s12.833 -17.167 19.5 -22.5c28 22 60.333 33 97 33c22 0 43 -4.33301 63 -13s37.5 -20.167 52.5 -34.5s27 -31.333 36 -51s13.5 -40.5 13.5 -62.5s-4.16699 -42.667 -12.5 -62s-19.666 -36 -33.999 -50
s-31.166 -25.167 -50.499 -33.5s-40 -12.5 -62 -12.5s-42.5 4.16699 -61.5 12.5s-35.667 19.5 -50 33.5s-25.666 30.667 -33.999 50s-12.5 40 -12.5 62c0 16.667 4.66699 38.667 14 66c-56.667 58 -85 117 -85 177c0 39.333 7 74.666 21 105.999s33.833 57.833 59.5 79.5
s56.167 38.167 91.5 49.5s74 17 116 17c46 0 88 -4.83301 126 -14.5s70.667 -23.334 98 -41.001s48.5 -39.167 63.5 -64.5s22.5 -53.333 22.5 -84c0 -40.667 -9.33301 -71 -28 -91l26 -15c14 -14 21 -34 21 -60c0 -23.333 -5 -41 -15 -53l-42 -35
c11.333 -12 20 -25.667 26 -41s9 -33 9 -53c0 -11.333 -0.833008 -21.166 -2.5 -29.499s-4.5 -16.166 -8.5 -23.499s-9.16699 -14.666 -15.5 -21.999s-14.166 -15.333 -23.499 -24l88 -138h-80zM359.999 154.001c0 24 -8 44.5 -24 61.5s-35 25.5 -57 25.5
s-40.833 -8.5 -56.5 -25.5s-23.5 -37.5 -23.5 -61.5s7.66699 -44.833 23 -62.5s34.333 -26.5 57 -26.5c11.333 0 22 2.5 32 7.5s18.667 11.667 26 20s13 17.833 17 28.5s6 21.667 6 33z" />
    <glyph glyph-name="uni0B61" unicode="&#xb61;" horiz-adv-x="515" 
d="M485 141c0 -12.667 -1.6709 -25.5049 -5.00391 -38.5049s-8.5 -25.333 -15.5 -37s-15.667 -22 -26 -31s-22.833 -15.833 -37.5 -20.5h2l168 -249h-68l-197 225c-3.33301 -0.666992 -6.33301 -1 -9 -1h-9c-33.333 0 -65 5 -95 15s-56.167 24 -78.5 42
s-40.166 39.333 -53.499 64s-20 51.667 -20 81c0 23.333 1.83301 43.333 5.5 60s11.5 32.334 23.5 47.001s29 29.667 51 45s51.333 33 88 53l95 49c28.667 19.333 43 44.333 43 75c0 18 -6.5 32.833 -19.5 44.5s-29.167 17.5 -48.5 17.5
c-21.333 0 -39.5 -5.83301 -54.5 -17.5s-22.5 -26.5 -22.5 -44.5c0 -15.333 5.33301 -28.666 16 -39.999l-68 -36c-19.333 24 -29 50.333 -29 79c0 19.333 4.16699 37 12.5 53s19.5 29.833 33.5 41.5s30.167 20.667 48.5 27s37.5 9.5 57.5 9.5
c45.333 0 82.166 -12.167 110.499 -36.5s42.5 -57.166 42.5 -98.499c0 -47.333 -19.667 -86.666 -59 -117.999c-7.33301 -5.33301 -21.166 -14.166 -41.499 -26.499s-47.5 -27.166 -81.5 -44.499c-25.333 -13.333 -46.166 -25.333 -62.499 -36s-29.166 -21 -38.499 -31
s-15.833 -20.167 -19.5 -30.5s-5.5 -22.166 -5.5 -35.499c0 -17.333 4.16699 -34 12.5 -50s19.166 -30 32.499 -42s28.166 -21.5 44.499 -28.5s32.833 -10.5 49.5 -10.5c4 0 7.33301 0.666992 10 2c-18.667 18 -28 38.667 -28 62c0 17.333 3 33.666 9 48.999
s14.333 28.666 25 39.999s23.334 20.333 38.001 27s30.667 10 48 10c16.667 0 32.5 -3 47.5 -9s28.333 -14.167 40 -24.5s20.834 -22.5 27.501 -36.5s10.334 -29 11.001 -45zM405.996 132.995c0 12 -4.33301 22.5 -13 31.5s-19 13.5 -31 13.5s-22.5 -4.5 -31.5 -13.5
s-13.5 -19.5 -13.5 -31.5s4.5 -22.333 13.5 -31s19.5 -13 31.5 -13s22.333 4.33301 31 13s13 19 13 31z" />
    <glyph glyph-name="uni0B66" unicode="&#xb66;" horiz-adv-x="740" 
d="M641 327c-0.666992 34.667 -8.33398 67.502 -23.001 98.502s-34 58 -58 81s-52 41.167 -84 54.5s-65.667 20 -101 20c-36 0 -70.167 -6.5 -102.5 -19.5s-60.5 -31 -84.5 -54s-43.167 -49.833 -57.5 -80.5s-21.833 -64 -22.5 -100
c0 -36.667 6.83301 -70.834 20.5 -102.501s32.334 -59.5 56.001 -83.5s51.5 -42.833 83.5 -56.5s66 -20.834 102 -21.501c38 0 73.5 7 106.5 21s61.667 33 86 57s43.5 52 57.5 84s21 66 21 102zM711 327.002c0 -45.333 -8.83496 -88.168 -26.502 -128.501
s-41.667 -75.666 -72 -105.999s-66 -54.333 -107 -72s-84.5 -26.5 -130.5 -26.5s-89.167 8.5 -129.5 25.5s-75.666 40.333 -105.999 70s-54.333 64.5 -72 104.5s-26.5 82.667 -26.5 128s8.66699 87.833 26 127.5s41 74.167 71 103.5s65 52.5 105 69.5
s82.333 25.833 127 26.5c45.333 0 88.5 -8.33301 129.5 -25s77 -39.5 108 -68.5s55.833 -63.167 74.5 -102.5s28.334 -81.333 29.001 -126z" />
    <glyph glyph-name="uni0B67" unicode="&#xb67;" horiz-adv-x="740" 
d="M497 482c0 17.333 -3.16699 33.5 -9.5 48.5s-15 28 -26 39s-24 19.667 -39 26s-31.167 9.5 -48.5 9.5s-33.333 -3.16699 -48 -9.5s-27.5 -15 -38.5 -26s-19.667 -24 -26 -39s-9.5 -31.167 -9.5 -48.5c0 -16.667 3.16699 -32.5 9.5 -47.5s15 -28 26 -39
s23.833 -19.667 38.5 -26s30.667 -9.5 48 -9.5s33.5 3.16699 48.5 9.5s28 15 39 26s19.667 24 26 39s9.5 30.833 9.5 47.5zM581 491c0 -28 -5.33398 -54.168 -16.001 -78.501s-25.167 -45.666 -43.5 -63.999s-39.833 -32.666 -64.5 -42.999s-51 -15.5 -79 -15.5
c-15.333 0 -30.5 1.66699 -45.5 5s-29.167 8.66602 -42.5 15.999c5.33301 -10.667 9.5 -21.5 12.5 -32.5s7.16699 -21.833 12.5 -32.5c10.667 -23.333 26.167 -46.333 46.5 -69s41.666 -43.5 63.999 -62.5s43.666 -35.5 63.999 -49.5s35.5 -23.667 45.5 -29l-42 -59
c-11.333 5.33301 -36.666 22 -75.999 50c-37.333 26.667 -71 56.667 -101 90s-55.833 68.5 -77.5 105.5s-38.334 75.333 -50.001 115s-17.5 79.167 -17.5 118.5c0 34 4.83301 64.833 14.5 92.5s23.334 51 41.001 70s39 33.667 64 44s52.833 15.5 83.5 15.5
c26.667 0 52.334 -4.66699 77.001 -14s46.5 -22.333 65.5 -39s34.333 -36.5 46 -59.5s17.834 -47.833 18.501 -74.5z" />
    <glyph glyph-name="uni0B68" unicode="&#xb68;" horiz-adv-x="740" 
d="M504 482c0 17.333 -3.16602 33.5 -9.49902 48.5s-15 28 -26 39s-24 19.667 -39 26s-31.167 9.5 -48.5 9.5s-33.5 -3.16699 -48.5 -9.5s-28 -15 -39 -26s-19.667 -24 -26 -39s-9.5 -31.167 -9.5 -48.5c0 -16.667 3.16699 -32.5 9.5 -47.5s15 -28 26 -39s24 -19.667 39 -26
s31.167 -9.5 48.5 -9.5c16.667 0 32.5 3.16699 47.5 9.5s28.167 15 39.5 26s20.166 24 26.499 39s9.5 30.833 9.5 47.5zM584.001 462c0 -27.333 -3.33496 -55.8301 -10.002 -85.4971s-16 -59.5 -28 -89.5s-26.667 -59.5 -44 -88.5s-36.666 -55.833 -57.999 -80.5
c-8 -9.33301 -21 -21.5 -39 -36.5l-56 -45c-19.333 -15 -37.333 -28.167 -54 -39.5s-27.667 -18 -33 -20l-42 59c0 0.666992 12 8 36 22c44 25.333 81.5 54.666 112.5 87.999s55.5 66.666 73.5 99.999l12 33l12 32c-13.333 -6 -26.666 -11 -39.999 -15s-27 -6 -41 -6
c-28 0 -54.667 4.83301 -80 14.5s-47.5 23 -66.5 40s-34.167 37.5 -45.5 61.5s-17 50.667 -17 80c0 26.667 5.33301 51.667 16 75s25.167 43.666 43.5 60.999s39.5 31 63.5 41s49.667 15 77 15c30 0 57.667 -4.83301 83 -14.5s47.333 -23.667 66 -42s33.167 -41 43.5 -68
s15.5 -57.5 15.5 -91.5z" />
    <glyph glyph-name="uni0B69" unicode="&#xb69;" horiz-adv-x="740" 
d="M611 520c0 11.333 -2.83105 22.4971 -8.49805 33.4971s-13.334 20.667 -23.001 29s-20.667 15.166 -33 20.499s-25.166 8 -38.499 8c-12.667 0 -25.334 -2.66699 -38.001 -8s-24.167 -12.5 -34.5 -21.5s-18.833 -19 -25.5 -30s-10 -21.833 -10 -32.5v-519h-72v519
c-16 60.667 -49 91 -99 91c-16 0 -31.333 -4.83301 -46 -14.5s-27.5 -22.667 -38.5 -39s-19.833 -35.166 -26.5 -56.499s-10 -43.333 -10 -66c0 -44 3.66699 -78 11 -102s19.666 -36 36.999 -36c10 0 18.333 2.5 25 7.5s10 14.167 10 27.5c0 12 -3 21.167 -9 27.5
s-13.667 9.5 -23 9.5l12 64c6.66699 0 15 -2.66699 25 -8s19.333 -12.333 28 -21s16.167 -18.667 22.5 -30s9.5 -23.333 9.5 -36c0 -13.333 -2.16699 -26.166 -6.5 -38.499s-10.5 -23.166 -18.5 -32.499s-17.833 -16.833 -29.5 -22.5s-24.834 -8.5 -39.501 -8.5
c-40 0 -70.167 16.167 -90.5 48.5s-30.5 78.833 -30.5 139.5c0 37.333 4.5 71.333 13.5 102s22 57 39 79s37.5 39 61.5 51s50.667 18 80 18c47.333 0 89.666 -20.667 126.999 -62l39 35c33.333 21.333 69 32 107 32c46.667 0 85.834 -13.667 117.501 -41
s50.834 -66.666 57.501 -117.999v-519h-72v520z" />
    <glyph glyph-name="uni0B6A" unicode="&#xb6a;" horiz-adv-x="740" 
d="M508 191c0 62 -45.001 117.333 -135.001 166c-10 0 -31.667 -15.667 -65 -47c-44.667 -40.667 -67 -84.667 -67 -132c0 -18 3.5 -34.5 10.5 -49.5s16.5 -27.667 28.5 -38s26 -18.5 42 -24.5s33 -9 51 -9c38.667 0 70.834 11.833 96.501 35.5s38.5 56.5 38.5 98.5z
M672.999 654c-12.667 -23.333 -27.8369 -46.999 -45.5039 -70.999s-37 -47 -58 -69s-43.167 -42.833 -66.5 -62.5s-47 -36.834 -71 -51.501c12 -4 26.167 -13.5 42.5 -28.5s31.833 -32.667 46.5 -53s27 -41.833 37 -64.5s15 -43.334 15 -62.001
c0 -30 -5.16699 -57.5 -15.5 -82.5s-24.333 -46.5 -42 -64.5s-38.667 -31.833 -63 -41.5s-50.5 -14.5 -78.5 -14.5c-26.667 0 -52 4.83301 -76 14.5s-45 23.167 -63 40.5s-32.333 38 -43 62s-16 50.333 -16 79c0 38 11.5 75.667 34.5 113s56.833 71.333 101.5 102l-50 38.5
l-50 36.5c-59.333 50 -110.333 108 -153 174l81 34c6 -17.333 16.5 -37.166 31.5 -59.499s33 -45 54 -68s44.167 -44.833 69.5 -65.5s51.333 -38 78 -52c24.667 13.333 47.334 28.5 68.001 45.5s39.334 34.667 56.001 53s31.334 37 44.001 56s23.334 36.833 32.001 53.5
l15 40z" />
    <glyph glyph-name="uni0B6B" unicode="&#xb6b;" horiz-adv-x="740" 
d="M446 171c0 33.333 -9.66699 65.002 -29 95.002l-32 39c-9.33301 0 -22.166 -4.33301 -38.499 -13s-32.5 -19.667 -48.5 -33s-29.833 -27.833 -41.5 -43.5s-17.5 -30.834 -17.5 -45.501c0 -30.667 9.66699 -56.334 29 -77.001s43.666 -31 72.999 -31
c68.667 0 103.667 36.333 105 109zM514 508.002c-0.666992 30 -10.333 54.499 -29 73.499s-42.667 28.5 -72 28.5c-14.667 0 -28.167 -2.83301 -40.5 -8.5s-23 -13.334 -32 -23.001s-16.167 -20.667 -21.5 -33s-8 -25.166 -8 -38.499c0 -14.667 2.33301 -29.667 7 -45
s10.5 -29.666 17.5 -42.999s14.5 -24.833 22.5 -34.5s15.667 -16.5 23 -20.5c10.667 0 23.5 4.33301 38.5 13s29.5 20 43.5 34s26 29.5 36 46.5s15 33.833 15 50.5zM643.001 141.001c-0.666992 1.33301 -3.33496 4.49805 -8.00195 9.49805l-19 20.5
c-30 32 -57.667 55.333 -83 70s-44.666 25.334 -57.999 32.001c11.333 -15.333 20.5 -31.833 27.5 -49.5s10.5 -36.5 10.5 -56.5c0 -50 -14.833 -90.333 -44.5 -121s-70.5 -46 -122.5 -46c-23.333 -0 -45.333 3.83301 -66 11.5s-38.667 18.834 -54 33.501
s-27.5 32.334 -36.5 53.001s-13.5 43.667 -13.5 69c0 14.667 2.83301 30 8.5 46s13.5 31.333 23.5 46s21.5 28 34.5 40s27.167 21.667 42.5 29l-71.5 31c-19.667 8.66699 -38 18.334 -55 29.001s-34.167 23.167 -51.5 37.5s-37.333 33.166 -60 56.499l59 49
c28 -28.667 55 -54.5 81 -77.5s49.667 -39.833 71 -50.5l27 -9c-12.667 15.333 -22.667 32.166 -30 50.499s-11 38.166 -11 59.499c0 22.667 4.16699 44.167 12.5 64.5s20 38.333 35 54s32.833 28.167 53.5 37.5s43.334 14 68.001 14c22 0 43 -4.16699 63 -12.5
s37.5 -19.833 52.5 -34.5s26.833 -31.667 35.5 -51s13 -40.333 13 -63c0 -87.333 -39.333 -142.666 -118 -165.999c22.667 -9.33301 46.167 -19.833 70.5 -31.5s47.333 -24 69 -37s40.667 -26.333 57 -40s27.833 -27.5 34.5 -41.5z" />
    <glyph glyph-name="uni0B6C" unicode="&#xb6c;" horiz-adv-x="740" 
d="M673 455c0 -70.667 -18.499 -134.831 -55.499 -192.498s-93.167 -110.834 -168.5 -159.501c-21.333 -13.333 -47.166 -26.333 -77.499 -39s-62 -23.667 -95 -33s-65.667 -16.833 -98 -22.5s-60.833 -8.5 -85.5 -8.5v68c13.333 0 29.166 0.833008 47.499 2.5
s39.166 5.16699 62.499 10.5c64 13.333 120.5 32.5 169.5 57.5s90.333 53.833 124 86.5s59.167 67.834 76.5 105.501s26.666 76.167 27.999 115.5c0 22.667 -4 44.334 -12 65.001s-19.167 39 -33.5 55s-31.333 28.833 -51 38.5s-41.167 14.5 -64.5 14.5
c-28 0 -52.167 -6.83301 -72.5 -20.5s-30.5 -31.834 -30.5 -54.501c0 -20 11 -34 33 -42c20.667 -8.66699 37.667 -16.667 51 -24s23.5 -15.166 30.5 -23.499s11.833 -18 14.5 -29s4 -24.5 4 -40.5c0 -19.333 -4 -37.333 -12 -54s-18.833 -31.167 -32.5 -43.5
s-29.5 -22.166 -47.5 -29.499s-37.333 -11 -58 -11c-18.667 0 -37.667 3.66699 -57 11s-37.166 16.166 -53.499 26.499s-30.333 21.666 -42 33.999s-18.834 23.5 -21.501 33.5l59 38c14.667 -22 30.834 -39 48.501 -51s37.167 -18 58.5 -18c10.667 0 21.167 1.5 31.5 4.5
s19.666 7.16699 27.999 12.5s15 12 20 20s7.5 16.667 7.5 26c0 8 -2.33301 15 -7 21s-10.5 11.167 -17.5 15.5s-14.833 8.33301 -23.5 12s-17 7.5 -25 11.5c-39.333 23.333 -59 54 -59 92c0 21.333 4.5 41.166 13.5 59.499s21.5 34.333 37.5 48s34.667 24.5 56 32.5
s44.333 12 69 12c32 0 61.833 -5.83301 89.5 -17.5s51.834 -27.834 72.501 -48.501s37 -45.167 49 -73.5s18.333 -59.5 19 -93.5z" />
    <glyph glyph-name="uni0B6D" unicode="&#xb6d;" horiz-adv-x="740" 
d="M368 343c0 13.333 -4.66797 25.5 -14.001 36.5s-21.666 16.5 -36.999 16.5c-14 0 -26.333 -4.66699 -37 -14s-16 -21.333 -16 -36c0 -15.333 5.16699 -27.833 15.5 -37.5s22.833 -14.5 37.5 -14.5c33.333 0 50.333 16.333 51 49zM648.999 405
c0 -33.333 -4.33496 -64.3262 -13.002 -92.9932s-22.167 -55.834 -40.5 -81.501s-42.166 -50.667 -71.499 -75s-65 -48.833 -107 -73.5c-18.667 -11.333 -42.334 -22.333 -71.001 -33s-57.834 -20.334 -87.501 -29.001s-57.334 -15.667 -83.001 -21s-44.834 -8 -57.501 -8
v68c5.33301 0 16.166 1.66699 32.499 5s37.833 8.66602 64.5 15.999c68.667 18.667 126.334 40.334 173.001 65.001s84.334 51.167 113.001 79.5s49.167 57.666 61.5 87.999s18.5 60.166 18.5 89.499c0 28 -5.66699 54.833 -17 80.5s-26.333 48.5 -45 68.5
s-40.167 35.833 -64.5 47.5s-49.166 17.5 -74.499 17.5c-24 0 -47.5 -5.33301 -70.5 -16s-43.5 -24.667 -61.5 -42s-32.5 -36.833 -43.5 -58.5s-16.5 -43.834 -16.5 -66.501c0 -5.33301 0.833008 -10.5 2.5 -15.5s3.83398 -10.167 6.50098 -15.5l10 -15l25 39
c24 24 54.333 36 91 36c16 0 30.833 -3 44.5 -9s25.834 -14.333 36.501 -25s19 -22.834 25 -36.501s9 -28.5 9 -44.5c0 -17.333 -3.33301 -33.166 -10 -47.499s-15.834 -26.666 -27.501 -36.999s-25.5 -18.5 -41.5 -24.5s-33 -9 -51 -9c-26.667 0 -51.5 5.66699 -74.5 17
s-43 26.666 -60 45.999s-30.5 41.666 -40.5 66.999s-15 51.666 -15 78.999c0 32 7.16699 62.667 21.5 92s33.5 55.166 57.5 77.499s51.667 40.333 83 54s64.333 20.834 99 21.501c36.667 0 71.334 -7.16699 104.001 -21.5s61.334 -34 86.001 -59s44.167 -54.5 58.5 -88.5
s21.5 -70.333 21.5 -109z" />
    <glyph glyph-name="uni0B6E" unicode="&#xb6e;" horiz-adv-x="740" 
d="M207 0h-72v683h442v-67h-370v-616z" />
    <glyph glyph-name="uni0B6F" unicode="&#xb6f;" horiz-adv-x="740" 
d="M330 601c-55.333 -54.667 -83.002 -127.333 -83.002 -218c0 -38 5.66699 -73.167 17 -105.5s28 -62.833 50 -91.5s49.333 -56 82 -82s70.334 -52 113.001 -78l-85 -35c-12 4 -34.333 19.667 -67 47c-62 50 -108.5 104.167 -139.5 162.5s-46.5 119.833 -46.5 184.5
c0 33.333 3.66699 65.333 11 96s18.333 59 33 85s32.834 49.333 54.501 70s47.167 38 76.5 52l155 -164v159h72v-330l-243 248v0z" />
    <glyph glyph-name="uni0B70" unicode="&#xb70;" horiz-adv-x="620" 
d="M282 357c-1.33301 -18 -8 -33.001 -20 -45.001s-26.667 -18 -44 -18c-16 0 -30.667 5.83301 -44 17.5s-20 26.167 -20 43.5c0 18 6 33.833 18 47.5s27.333 20.5 46 20.5s34 -6.16699 46 -18.5s18 -28.166 18 -47.499zM11 327.999h86l118 -210l299 524h83l-379 -665z" />
    <glyph glyph-name="uni0B71" unicode="&#xb71;" horiz-adv-x="609" 
d="M506 480c-3.33301 8.66699 -12.334 18.8359 -27.001 30.5029s-32 23 -52 34s-41.167 20.333 -63.5 28s-43.166 11.5 -62.499 11.5c-28 0 -53.667 -3.16699 -77 -9.5s-43.333 -15.333 -60 -27s-29.5 -25.5 -38.5 -41.5s-13.5 -33.667 -13.5 -53
c0 -20 5.33301 -38.667 16 -56s25.167 -32.166 43.5 -44.499s39.666 -22.166 63.999 -29.499s50.5 -11 78.5 -11c34.667 0 62.167 5.33301 82.5 16s30.5 24 30.5 40c0 9.33301 -3.5 17.166 -10.5 23.499s-14.167 9.5 -21.5 9.5c-6.66699 0 -13 -1.66699 -19 -5l-48 -36
l-34 42l38 30c4.66699 2.66699 7 9.66699 7 21c0 8.66699 -3.83301 16.5 -11.5 23.5s-15.5 10.5 -23.5 10.5s-16.167 -3.66699 -24.5 -11s-12.5 -16.666 -12.5 -27.999c0 -6 0.333008 -10.667 1 -14l-56 -8c-4.66699 4.66699 -7 13.667 -7 27s2.66699 25.5 8 36.5
s12.5 20.5 21.5 28.5s19.667 14.333 32 19s25.166 7 38.499 7c53.333 0 85 -28.667 95 -86c20 -2 36.5 -5.83301 49.5 -11.5s23.5 -12.834 31.5 -21.501s13.5 -17.834 16.5 -27.501s4.5 -19.5 4.5 -29.5v-368h-73v112c-34.667 -33.333 -77.334 -50 -128.001 -50
c-24.667 0 -48.167 3.5 -70.5 10.5s-42.166 17.333 -59.499 31s-31.166 30.167 -41.499 49.5s-15.5 41.333 -15.5 66c0 26 6.33301 51.667 19 77c-61.333 35.333 -92 91.333 -92 168c0 27.333 6.16699 52.333 18.5 75s29.833 42.167 52.5 58.5s49.667 29 81 38
s65.666 13.5 102.999 13.5c26.667 0 53.334 -3.33301 80.001 -10s52.334 -16.334 77.001 -29.001s47.5 -27.834 68.5 -45.501s39.167 -37.834 54.5 -60.501zM410.999 199.002c12 22 18 44.6689 18 68.002c-2 -0.666992 -7.33301 -2.16699 -16 -4.5
s-18.834 -4.66602 -30.501 -6.99902s-23.834 -4.5 -36.501 -6.5s-24 -3 -34 -3c-9.33301 0 -20 0.833008 -32 2.5s-23.667 3.66699 -35 6s-21.333 4.66602 -30 6.99902s-14 4.16602 -16 5.49902c-4 -8.66699 -7.16699 -16.834 -9.5 -24.501s-3.5 -15.167 -3.5 -22.5
c0 -12 3 -23.5 9 -34.5s13.833 -20.667 23.5 -29s20.834 -15 33.501 -20s26 -7.5 40 -7.5c54.667 0 94.334 23.333 119.001 70z" />
    <glyph glyph-name="uni0B56.134" unicode="&#xb77;" horiz-adv-x="0" 
 />
    <glyph glyph-name="uni0B78" unicode="&#xb78;" horiz-adv-x="695" 
d="M503 1l34.999 25.001c22 20 33 43 33 69c0 7.33301 -1.66699 15.833 -5 25.5s-7.33301 19 -12 28s-9.66699 17.167 -15 24.5s-10 12.666 -14 15.999l35 21c22 18 33 38.333 33 61c0 6.66699 -1.5 14 -4.5 22s-7 15.667 -12 23s-10.667 14.166 -17 20.499
s-12.5 11.5 -18.5 15.5l17 26c5.33301 8.66699 9.66602 17.667 12.999 27s5 18 5 26c0 96.667 -81.333 145 -244 145c-30.667 0 -58.834 -4.16699 -84.501 -12.5s-47.834 -20 -66.501 -35s-33.167 -33.167 -43.5 -54.5s-15.5 -45 -15.5 -71c0 -10 1.66699 -20.833 5 -32.5
s7.5 -23.167 12.5 -34.5s10.667 -21.833 17 -31.5s12.833 -17.167 19.5 -22.5c28 22 60.333 33 97 33c22 0 43 -4.33301 63 -13s37.5 -20.167 52.5 -34.5s27 -31.333 36 -51s13.5 -40.5 13.5 -62.5s-4.16699 -42.667 -12.5 -62s-19.666 -36 -33.999 -50
s-31.166 -25.167 -50.499 -33.5s-40 -12.5 -62 -12.5s-42.5 4.16699 -61.5 12.5s-35.667 19.5 -50 33.5s-25.666 30.667 -33.999 50s-12.5 40 -12.5 62c0 16.667 4.66699 38.667 14 66c-56.667 58 -85 117 -85 177c0 39.333 7 74.666 21 105.999s33.833 57.833 59.5 79.5
s56.167 38.167 91.5 49.5s74 17 116 17c46 0 88 -4.83301 126 -14.5s70.667 -23.334 98 -41.001s48.5 -39.167 63.5 -64.5s22.5 -53.333 22.5 -84c0 -40.667 -9.33301 -71 -28 -91l26 -15c14 -14 21 -34 21 -60c0 -23.333 -5 -41 -15 -53l-42 -35
c11.333 -12 20 -25.667 26 -41s9 -33 9 -53c0 -11.333 -0.833008 -21.166 -2.5 -29.499s-4.5 -16.166 -8.5 -23.499s-9.16699 -14.666 -15.5 -21.999s-14.166 -15.333 -23.499 -24l88 -138h-80zM359.999 154.001c0 24 -8 44.5 -24 61.5s-35 25.5 -57 25.5
s-40.833 -8.5 -56.5 -25.5s-23.5 -37.5 -23.5 -61.5s7.66699 -44.833 23 -62.5s34.333 -26.5 57 -26.5c11.333 0 22 2.5 32 7.5s18.667 11.667 26 20s13 17.833 17 28.5s6 21.667 6 33zM665.999 881.001l-281 -91l147 -79l-65 -38l-176 93v57l340 114z" />
    <glyph glyph-name="uni200B" unicode="&#x200b;" horiz-adv-x="0" 
d="M-22 -165v1116h44v-1116h-44z" />
    <glyph glyph-name="afii61664" unicode="&#x200c;" horiz-adv-x="0" 
d="M-22 -165v1116h44v-1116h-44z" />
    <glyph glyph-name="afii301" unicode="&#x200d;" horiz-adv-x="0" 
d="M102 793l-80 82v-1040h-44v1040l-80 -82l-30 29l104 102l-104 101l30 29l102 -103l102 103l30 -29l-104 -101l104 -102z" />
    <glyph glyph-name="endash" unicode="&#x2013;" horiz-adv-x="546" 
d="M45 303v61h457v-61h-457z" />
    <glyph glyph-name="emdash" unicode="&#x2014;" horiz-adv-x="746" 
d="M45 303v61h656v-61h-656z" />
    <glyph glyph-name="quoteleft" unicode="&#x2018;" horiz-adv-x="288" 
d="M240 748c-19.333 -13.333 -36.167 -29.668 -50.5 -49.001s-22.833 -43.666 -25.5 -72.999c21.333 0 38 -3 50 -9s18 -17 18 -33c0 -18.667 -4.33301 -33.167 -13 -43.5s-21.667 -15.5 -39 -15.5c-46 0 -69 26.333 -69 79c0 55.333 35 111 105 167l24 -23v0z" />
    <glyph glyph-name="quoteright" unicode="&#x2019;" horiz-adv-x="288" 
d="M203 702c-1.33301 -58 -35.666 -113.665 -102.999 -166.998c-2 2 -4.66699 4.5 -8 7.5s-7.33301 7.16699 -12 12.5c7.33301 4.66699 15 11.167 23 19.5s15.667 17.666 23 27.999s13.833 21.333 19.5 33s9.5 23.167 11.5 34.5c-48.667 0 -74.667 17 -78 51
c0 19.333 4.5 34.166 13.5 44.499s22.833 15.5 41.5 15.5c21.333 0 38.166 -6.83301 50.499 -20.5s18.5 -33.167 18.5 -58.5z" />
    <glyph glyph-name="quotedblleft" unicode="&#x201c;" horiz-adv-x="529" 
d="M481 748c-19.333 -13.333 -36.166 -29.668 -50.499 -49.001s-22.833 -43.666 -25.5 -72.999c21.333 0 38.166 -3 50.499 -9s18.5 -17 18.5 -33c0 -18.667 -4.5 -33.167 -13.5 -43.5s-22.167 -15.5 -39.5 -15.5c-46 0 -69 26.333 -69 79c0 55.333 35.333 111 106 167z
M240 747.998c-19.333 -13.333 -36.167 -29.668 -50.5 -49.001s-22.833 -43.666 -25.5 -72.999c21.333 0 38 -3 50 -9s18 -17 18 -33c0 -18.667 -4.33301 -33.167 -13 -43.5s-21.667 -15.5 -39 -15.5c-46 0 -69 26.333 -69 79c0 55.333 35 111 105 167z" />
    <glyph glyph-name="quotedblright" unicode="&#x201d;" horiz-adv-x="525" 
d="M481 692c0 -54 -35.3311 -109.669 -105.998 -167.002l-23 24c19.333 12.667 36.166 28.834 50.499 48.501s22.833 43.834 25.5 72.501c-2.66699 0 -5 -0.166992 -7 -0.5s-4 -0.5 -6 -0.5c-37.333 0 -56 14.333 -56 43c0 18.667 4.16699 33.167 12.5 43.5
s21.833 15.5 40.5 15.5c23.333 0 40.666 -6.16699 51.999 -18.5s17 -32.5 17 -60.5zM240.002 691.998c0 -54 -35.333 -109.669 -106 -167.002l-23 24c19.333 12.667 36.166 28.834 50.499 48.501s22.833 43.834 25.5 72.501c-2.66699 0 -5 -0.166992 -7 -0.5
s-4.33301 -0.5 -7 -0.5c-36.667 0 -55 14.333 -55 43c0 18.667 4.16699 33.167 12.5 43.5s21.833 15.5 40.5 15.5c22.667 0 39.834 -6.16699 51.501 -18.5s17.5 -32.5 17.5 -60.5z" />
    <glyph glyph-name="bullet" unicode="&#x2022;" horiz-adv-x="523" 
d="M442 253c0 -25.333 -4.83887 -48.9941 -14.5059 -70.9941s-22.667 -41.333 -39 -58s-35.666 -29.834 -57.999 -39.501s-46.166 -14.5 -71.499 -14.5s-49.166 4.83301 -71.499 14.5s-41.666 22.667 -57.999 39s-29.333 35.666 -39 57.999s-14.5 46.166 -14.5 71.499
s4.83301 49.166 14.5 71.499s22.834 41.666 39.501 57.999s36 29.333 58 39s45.667 14.5 71 14.5c24.667 0 48.167 -4.83301 70.5 -14.5s41.833 -22.834 58.5 -39.501s29.834 -36.167 39.501 -58.5s14.5 -45.833 14.5 -70.5z" />
    <glyph glyph-name="uni0B39.004" unicode="&#x20b9;" horiz-adv-x="520" 
d="M451 602l-117.004 0.000976562c10.667 -10.667 19.167 -22.334 25.5 -35.001s10.5 -25 12.5 -37h124l-45 -67h-75c-2 -22.667 -8.83301 -44.5 -20.5 -65.5s-27.167 -40 -46.5 -57s-42.666 -30.5 -69.999 -40.5s-58 -15 -92 -15l259 -285h-114l-246 277v74h71
c24.667 0 47.334 2.5 68.001 7.5s38.167 12.333 52.5 22s25.5 21.5 33.5 35.5s12.667 29.667 14 47h-261l43 67h210c-5.33301 10 -11.666 19.333 -18.999 28s-16.333 16.167 -27 22.5s-23.667 11.5 -39 15.5s-33.666 6 -54.999 6h-113l43 67h429z" />
    <glyph glyph-name="Dotted_Circle" unicode="&#x25cc;" horiz-adv-x="520" 
d="M433 426c-16.667 26.667 -38.667 48.667 -66 66l36 50c34 -21.333 61.667 -48.333 83 -81zM305 520c-12 3.33301 -27.667 5 -47 5c-18.667 0 -34 -1.66699 -46 -5l-12 62l30 4c10 1.33301 19.333 2 28 2c9.33301 0 18.833 -0.666992 28.5 -2l29.5 -4zM522 326
c0 -18.667 -2.66699 -38 -8 -58l-61 10c3.33301 12 5 27.667 5 47s-1.66699 35.333 -5 48l61 10c5.33301 -20 8 -39 8 -57zM486 189c-21.333 -33.333 -49 -60.666 -83 -81.999l-36 52c28.667 17.333 50.667 39.666 66 66.999zM150 492
c-28.667 -17.333 -50.667 -39.333 -66 -66l-52 35c20.667 32.667 47.667 59.667 81 81zM2 268l-4 28c-1.33301 9.33301 -2 19.333 -2 30c0 10 0.666992 19.667 2 29l4 28l62 -10c-3.33301 -12.667 -5 -28.667 -5 -48s1.66699 -35 5 -47zM316 69
c-10 -2 -19.833 -3.5 -29.5 -4.5s-19.167 -1.5 -28.5 -1.5c-8.66699 0 -18 0.5 -28 1.5s-20 2.5 -30 4.5l12 63c18 -4.66699 33.333 -7 46 -7c13.333 0 29 2.33301 47 7zM113 107c-32.667 21.333 -59.667 48.666 -81 81.999l52 37c15.333 -27.333 37.333 -49.666 66 -66.999
z" />
    <glyph glyph-name="NULL" horiz-adv-x="0" 
 />
    <glyph glyph-name="nonmarkingreturn" horiz-adv-x="615" 
 />
    <glyph glyph-name="parenleft" horiz-adv-x="26" 
d="M0 383h26v-29h-26v29z" />
    <glyph glyph-name="parenright" horiz-adv-x="26" 
d="M0 383h26v-29h-26v29z" />
    <glyph glyph-name="asterisk" horiz-adv-x="26" 
d="M0 383h26v-29h-26v29z" />
    <glyph glyph-name="plus" horiz-adv-x="26" 
d="M0 383h26v-29h-26v29z" />
    <glyph glyph-name="hyphen" horiz-adv-x="26" 
d="M0 383h26v-29h-26v29z" />
    <glyph glyph-name="slash" horiz-adv-x="26" 
d="M0 383h26v-29h-26v29z" />
    <glyph glyph-name="glyph98" 
d="M-7 514v19h17v-19h-17z" />
    <glyph glyph-name="Adieresis" 
d="M-7 514v19h17v-19h-17z" />
    <glyph glyph-name="Aring" 
d="M-7 514v19h17v-19h-17z" />
    <glyph glyph-name="Ccedilla" 
d="M-7 514v19h17v-19h-17z" />
    <glyph glyph-name="Eacute" 
d="M-7 514v19h17v-19h-17z" />
    <glyph glyph-name="Ntilde" 
d="M-7 514v19h17v-19h-17z" />
    <glyph glyph-name="Odieresis" 
d="M-7 514v19h17v-19h-17z" />
    <glyph glyph-name="Udieresis" 
d="M-7 514v19h17v-19h-17z" />
    <glyph glyph-name="aacute" 
d="M-7 514v19h17v-19h-17z" />
    <glyph glyph-name="agrave" 
d="M-7 514v19h17v-19h-17z" />
    <glyph glyph-name="acircumflex" 
d="M-7 514v19h17v-19h-17z" />
    <glyph glyph-name="adieresis" 
d="M-7 514v19h17v-19h-17z" />
    <glyph glyph-name="atilde" 
d="M-7 514v19h17v-19h-17z" />
    <glyph glyph-name="aring" 
d="M-7 514v19h17v-19h-17z" />
    <glyph glyph-name="ccedilla" 
d="M-7 514v19h17v-19h-17z" />
    <glyph glyph-name="eacute" 
d="M-7 514v19h17v-19h-17z" />
    <glyph glyph-name="egrave" 
d="M-7 514v19h17v-19h-17z" />
    <glyph glyph-name="ecircumflex" 
d="M-7 514v19h17v-19h-17z" />
    <glyph glyph-name="edieresis" 
d="M-7 514v19h17v-19h-17z" />
    <glyph glyph-name="iacute" 
d="M-7 514v19h17v-19h-17z" />
    <glyph glyph-name="igrave" 
d="M-7 514v19h17v-19h-17z" />
    <glyph glyph-name="icircumflex" 
d="M-7 514v19h17v-19h-17z" />
    <glyph glyph-name="idieresis" 
d="M-7 514v19h17v-19h-17z" />
    <glyph glyph-name="ntilde" 
d="M-7 514v19h17v-19h-17z" />
    <glyph glyph-name="oacute" 
d="M-7 514v19h17v-19h-17z" />
    <glyph glyph-name="ograve" 
d="M-7 514v19h17v-19h-17z" />
    <glyph glyph-name="ocircumflex" 
d="M-7 514v19h17v-19h-17z" />
    <glyph glyph-name="odieresis" 
d="M-7 514v19h17v-19h-17z" />
    <glyph glyph-name="otilde" 
d="M-7 514v19h17v-19h-17z" />
    <glyph glyph-name="uacute" 
d="M-7 514v19h17v-19h-17z" />
    <glyph glyph-name="ugrave" 
d="M-7 514v19h17v-19h-17z" />
    <glyph glyph-name="ucircumflex" 
d="M-7 514v19h17v-19h-17z" />
    <glyph glyph-name="udieresis" 
d="M-7 514v19h17v-19h-17z" />
    <glyph glyph-name="dagger" horiz-adv-x="387" 
 />
    <glyph glyph-name="degree" horiz-adv-x="215" 
d="M69 323v79h77v-79h-77zM75 -154v416h63v-416h-63z" />
    <glyph glyph-name="cent" horiz-adv-x="432" 
d="M392 121c-5.33301 -42.667 -22.833 -75.168 -52.5 -97.501s-65.834 -33.5 -108.501 -33.5c-5.33301 0 -11.333 0.333008 -18 1s-14.667 2 -24 4l-24 -90l-40 11l25 90c-71.333 32 -107 96.667 -107 194c0 66.667 16.667 118.334 50 155.001s79.333 55 138 55h17
c4.66699 0 9.33398 -0.666992 14.001 -2l23 88l41 -10l-25 -87c54.667 -20.667 85 -59.667 91 -117h-72c-0.666992 26 -12.334 45.667 -35.001 59l-80 -291c6.66699 -2 15.334 -3 26.001 -3c55.333 0 85 24.667 89 74h72zM246 353.999c-2.66699 0.666992 -7.66699 1 -15 1
c-35.333 0 -63.333 -12.833 -84 -38.5s-31 -64.5 -31 -116.5c0 -64.667 16.667 -108.667 50 -132z" />
    <glyph glyph-name="sterling" horiz-adv-x="432" 
d="M400 7c-26.667 -11.333 -53.334 -17.002 -80.001 -17.002c-0.666992 0 -5.16699 0.833008 -13.5 2.5s-18.5 3.83398 -30.5 6.50098l-39 8.5l-39 8.5c-12 2.66699 -22.167 4.83398 -30.5 6.50098s-13.166 2.5 -14.499 2.5c-20.667 0 -42.334 -2.83301 -65.001 -8.5
s-46 -14.5 -70 -26.5v69c53.333 28 80 76 80 144c0 16 -2 32 -6 48h-74v55h59c-12.667 40 -19 73.333 -19 100c0 48 15.5 86.167 46.5 114.5s72.833 42.5 125.5 42.5c48 0 86.833 -12.167 116.5 -36.5s46.5 -59.5 50.5 -105.5h-74c-4 58 -35.667 87 -95 87
c-28 0 -51.333 -9 -70 -27s-28 -41 -28 -69c0 -26.667 7.66699 -62 23 -106h118v-55h-106c4 -11.333 6 -23 6 -35c0 -57.333 -23 -104.333 -69 -141c16 6 34.333 9 55 9c14 0 42.333 -4.33301 85 -13l45 -8c6.66699 -1.33301 12.334 -2.33301 17.001 -3s8.66699 -1 12 -1
c28.667 0 56.667 7 84 21v-73v0z" />
    <glyph glyph-name="section" horiz-adv-x="432" 
d="M358 89l-53 52c-26 -18 -56 -27 -90 -27c-32 0 -62 9 -90 27l-51 -52l-46 44l53 53c-18 28 -27 57.333 -27 88c0 29.333 9 58.666 27 87.999l-53 54l46 44l51 -53c27.333 18.667 57.333 28 90 28c33.333 0 63.333 -9.33301 90 -28l53 53l44 -44l-53 -54
c9.33301 -14.667 16.166 -29.167 20.499 -43.5s6.5 -29.166 6.5 -44.499s-2.16699 -30.333 -6.5 -45s-11.166 -29 -20.499 -43l53 -53zM314 274c0 13.333 -2.66699 26 -8 38s-12.5 22.5 -21.5 31.5s-19.5 16.167 -31.5 21.5s-24.667 8 -38 8s-26 -2.66699 -38 -8
s-22.5 -12.5 -31.5 -21.5s-16 -19.5 -21 -31.5s-7.5 -24.667 -7.5 -38c0 -27.333 9.5 -50.5 28.5 -69.5s42.167 -28.5 69.5 -28.5c13.333 0 26 2.5 38 7.5s22.5 12 31.5 21s16.167 19.5 21.5 31.5s8 24.667 8 38z" />
    <glyph glyph-name="paragraph" horiz-adv-x="202" 
d="M71 264v291h59v-291h-59zM71 -162v289h59v-289h-59z" />
    <glyph glyph-name="germandbls" horiz-adv-x="432" 
d="M397 176c0 -44.667 -28.6689 -81.3291 -86.002 -109.996c40 -24.667 60 -59.334 60 -104.001c0 -18 -3.83301 -34.667 -11.5 -50s-18.167 -28.5 -31.5 -39.5s-29.166 -19.5 -47.499 -25.5s-38.166 -9 -59.499 -9c-46 0 -83.833 11.667 -113.5 35s-47.167 57 -52.5 101h74
c5.33301 -53.333 36 -80 92 -80c23.333 0 42.333 5.5 57 16.5s22 27.833 22 50.5c0 8 -1 15.167 -3 21.5s-7.66699 13.833 -17 22.5s-23.5 19.167 -42.5 31.5s-45.833 28.5 -80.5 48.5c-24.667 14.667 -45 28 -61 40s-28.833 24 -38.5 36s-16.334 24.667 -20.001 38
s-5.5 28.333 -5.5 45c0 45.333 28.667 81 86 107c-33.333 29.333 -50 60.666 -50 93.999c0 15.333 3 30.166 9 44.499s14.833 27 26.5 38s26.167 19.667 43.5 26s37.333 9.5 60 9.5c97.333 0 150 -43.333 158 -130h-73c-5.33301 50 -32.666 75 -81.999 75
c-47.333 0 -71 -20 -71 -60c0 -12.667 3.66699 -23.834 11 -33.501s19 -20.334 35 -32.001s36.5 -25 61.5 -40s55.167 -34.5 90.5 -58.5c24 -19.333 40 -37.166 48 -53.499s12 -34.5 12 -54.5zM329.998 162.005c0 16.667 -3.49902 29.5 -10.499 38.5
s-17.833 18.333 -32.5 28l-56 35.5c-22.667 14 -49.334 34.333 -80.001 61c-33.333 -16 -50 -40.333 -50 -73c0 -12 1.83301 -22.667 5.5 -32s10.834 -19 21.501 -29s25.5 -21 44.5 -33l73.5 -45l19 -10.5c5.33301 -3 9.66602 -6.16699 12.999 -9.5c34.667 16 52 39 52 69z
" />
    <glyph glyph-name="registered" horiz-adv-x="258" 
d="M165 474v77h69v-77h-69zM25 474v77h68v-77h-68z" />
    <glyph glyph-name="copyright" horiz-adv-x="571" 
d="M571 279c0 -38.667 -7.66406 -75.334 -22.9971 -110.001s-36 -65 -62 -91s-56.333 -46.5 -91 -61.5s-71.334 -22.5 -110.001 -22.5s-75.334 7.5 -110.001 22.5s-65 35.5 -91 61.5s-46.5 56.333 -61.5 91s-22.5 71.334 -22.5 110.001s7.66699 75.167 23 109.5
s36 64.5 62 90.5s56.333 46.5 91 61.5s71 22.5 109 22.5s74.333 -7.66699 109 -23s65.167 -36 91.5 -62s47.166 -56.167 62.499 -90.5s23 -70.5 23 -108.5zM524.003 279c0 32 -6.33496 62.334 -19.002 91.001s-29.834 54 -51.501 76s-47 39.333 -76 52s-59.833 19 -92.5 19
c-32 0 -62.5 -6.33301 -91.5 -19s-54.333 -29.834 -76 -51.501s-38.834 -47 -51.501 -76s-19 -59.5 -19 -91.5c0 -32.667 6.33301 -63.5 19 -92.5s29.834 -54.5 51.501 -76.5s46.834 -39.333 75.501 -52s59.334 -19 92.001 -19s63.5 6.5 92.5 19.5s54.333 30.5 76 52.5
s38.834 47.5 51.501 76.5s19 59.5 19 91.5zM422.001 219.001c-19.333 -70 -64.333 -104.999 -135 -104.999c-24 0 -45.167 4.16699 -63.5 12.5s-34 19.833 -47 34.5s-22.833 32 -29.5 52s-10 41.667 -10 65c0 49.333 13.333 88.333 40 117s64 43 112 43
c32.667 0 61 -8.33301 85 -25s38.667 -40 44 -70h-53c-7.33301 36 -33 54 -77 54c-66.667 0 -100 -40 -100 -120c0 -34.667 8.66699 -62.834 26 -84.501s41 -32.5 71 -32.5c46.667 0 74.667 19.667 84 59h53z" />
    <glyph glyph-name="trademark" horiz-adv-x="287" 
d="M204 289l-0.00195312 27c-24 -22 -56 -33 -96 -33c-24.667 0 -46.167 6.83301 -64.5 20.5s-27.5 32.5 -27.5 56.5c0 63.333 54.667 95 164 95h24c0 26 -5.16699 43.167 -15.5 51.5s-26.166 12.5 -47.499 12.5c-40 0 -60.333 -12.333 -61 -37h-55
c4.66699 54 44.334 81 119.001 81c76 0 114 -33.667 114 -101v-173h-54zM29.998 196v44h223v-44h-223zM203.998 415h-33.999c-64 0 -96 -17.667 -96 -53c0 -23.333 16.333 -35 49 -35c13.333 0 28.166 4.16699 44.499 12.5s28.5 17.833 36.5 28.5v47z" />
    <glyph glyph-name="acute" horiz-adv-x="432" 
d="M321 27l-119 173l119 173h57l-99 -173l99 -173h-57zM173 27l-120 173l120 173h57l-100 -173l100 -173h-57z" />
    <glyph glyph-name="dieresis" horiz-adv-x="453" 
d="M346 157v169h-303v64h367v-233h-64z" />
    <glyph glyph-name="notequal" horiz-adv-x="37" 
d="M-5 173v56h42v-56h-42z" />
    <glyph glyph-name="AE" horiz-adv-x="571" 
d="M571 279c0 -38.667 -7.66406 -75.334 -22.9971 -110.001s-36 -65 -62 -91s-56.333 -46.5 -91 -61.5s-71.334 -22.5 -110.001 -22.5s-75.334 7.5 -110.001 22.5s-65 35.5 -91 61.5s-46.5 56.333 -61.5 91s-22.5 71.334 -22.5 110.001s7.66699 75.167 23 109.5
s36 64.5 62 90.5s56.333 46.5 91 61.5s71 22.5 109 22.5s74.333 -7.66699 109 -23s65.167 -36 91.5 -62s47.166 -56.167 62.499 -90.5s23 -70.5 23 -108.5zM524.003 279c0 32 -6.33496 62.334 -19.002 91.001s-29.834 54 -51.501 76s-47 39.333 -76 52s-59.833 19 -92.5 19
c-32 0 -62.5 -6.33301 -91.5 -19s-54.333 -29.834 -76 -51.501s-38.834 -47 -51.501 -76s-19 -59.5 -19 -91.5c0 -32.667 6.33301 -63.5 19 -92.5s29.834 -54.5 51.501 -76.5s46.834 -39.333 75.501 -52s59.334 -19 92.001 -19s63.5 6.5 92.5 19.5s54.333 30.5 76 52.5
s38.834 47.5 51.501 76.5s19 59.5 19 91.5zM358.001 121.001l-25 65.999c-13.333 40 -40.333 60 -81 60h-39v-126h-49v307h115c81.333 0 122 -28.333 122 -85c0 -54 -26.667 -83 -80 -87c27.333 -9.33301 47.333 -28.666 60 -57.999l34 -77h-57zM348.001 338
c0 32 -25 48 -75 48h-60v-96h63c48 0 72 16 72 48z" />
    <glyph glyph-name="Oslash" horiz-adv-x="258" 
d="M11 483v57h236v-57h-236z" />
    <glyph glyph-name="infinity" horiz-adv-x="310" 
d="M260 458c0 -14.667 -2.83301 -28.5029 -8.5 -41.5029s-13.167 -24.167 -22.5 -33.5s-20.333 -16.833 -33 -22.5s-26.334 -8.5 -41.001 -8.5s-28.334 2.83301 -41.001 8.5s-23.834 13.334 -33.501 23.001s-17.167 20.834 -22.5 33.501s-8 26.334 -8 41.001
c0 14 2.66699 27.333 8 40s12.833 23.834 22.5 33.501s20.834 17.167 33.501 22.5s26.334 8 41.001 8s28.334 -2.83301 41.001 -8.5s23.667 -13.334 33 -23.001s16.833 -20.667 22.5 -33s8.5 -25.5 8.5 -39.5zM219 457.997c0 17.333 -6.33301 31.999 -19 43.999
s-27.667 18 -45 18c-18 0 -33 -6 -45 -18s-18 -26.667 -18 -44c0 -19.333 6 -35.166 18 -47.499s27 -18.5 45 -18.5c17.333 0 32.333 6.5 45 19.5s19 28.5 19 46.5z" />
    <glyph glyph-name="glyph148" horiz-adv-x="453" 
d="M258 258v-152h-64v152h-151v63h151v153h64v-153h152v-63h-152zM43 0v64h367v-64h-367z" />
    <glyph glyph-name="lessequal" horiz-adv-x="258" 
d="M9 278c3.33301 19.333 13.001 39.1689 29.001 59.502s39 39.166 69 56.499c16.667 9.33301 30 17.666 40 24.999s17.667 14 23 20s8.83301 11.833 10.5 17.5s2.5 11.834 2.5 18.501c0 28 -17 42 -51 42c-32.667 0 -51.667 -12.333 -57 -37h-58
c10.667 54.667 49.334 82 116.001 82c33.333 0 60.166 -7.5 80.499 -22.5s30.5 -35.5 30.5 -61.5c0 -38.667 -26.333 -73.334 -79 -104.001c-28.667 -16.667 -51.334 -33.667 -68.001 -51h148v-45h-236z" />
    <glyph glyph-name="greaterequal" horiz-adv-x="258" 
d="M244 358c0 -24.667 -9.66699 -45.3311 -29 -61.998s-48 -25 -86 -25c-70 0 -109 27 -117 81h59c4 -24.667 22.667 -37 56 -37c38.667 0 58 16.667 58 50c0 25.333 -20 38 -60 38h-20v42c44.667 0 67 13.667 67 41c0 21.333 -15 32 -45 32c-29.333 0 -46 -10.333 -50 -31
h-59c10 50 46.333 75 109 75c69.333 0 104 -23.667 104 -71c0 -34.667 -17 -56.334 -51 -65.001c42.667 -8.66699 64 -31.334 64 -68.001z" />
    <glyph glyph-name="yen" horiz-adv-x="258" 
d="M141 458h-55l51 105h88z" />
    <glyph glyph-name="mu" horiz-adv-x="432" 
d="M422 -7c-4 -2 -10.667 -3 -20 -3c-50 0 -81 21.333 -93 64c-34.667 -42.667 -75 -64 -121 -64c-24 0 -45.667 6.33301 -65 19l1 -163h-71v556h71v-274c0 -52 26.333 -78 79 -78c39.333 0 74.333 21.333 105 64v288h70v-311c0 -27.333 10.667 -41 32 -41
c6 0 10 0.666992 12 2v-59v0z" />
    <glyph glyph-name="partialdiff" horiz-adv-x="416" 
d="M364 499l0.000976562 -653h-64v653h-85v-653h-62v395c-46.667 3.33301 -83.834 18 -111.501 44s-41.5 62.667 -41.5 110c-0 51.333 15.833 90.833 47.5 118.5s75.167 41.5 130.5 41.5h240v-56h-54z" />
    <glyph glyph-name="summation" horiz-adv-x="215" 
d="M69 234v77h77v-77h-77z" />
    <glyph glyph-name="product" horiz-adv-x="258" 
d="M204 -89c0 -48.667 -38.334 -73 -115.001 -73h-18.5c-6.33301 0 -13.166 0.333008 -20.499 1v44c7.33301 -0.666992 14.5 -1.16699 21.5 -1.5s13.833 -0.5 20.5 -0.5c32 0 48 10 48 30s-17.667 30 -53 30v59h53v-28c42.667 -6 64 -26.333 64 -61z" />
    <glyph glyph-name="pi" horiz-adv-x="258" 
d="M125 278v184c-17.333 -12 -46 -18 -86 -18v47c66.667 0 100 23.667 100 71h41v-284h-55z" />
    <glyph glyph-name="integral" horiz-adv-x="283" 
d="M267 422c0 -42.667 -10.5 -77.002 -31.5 -103.002s-52.5 -39 -94.5 -39c-39.333 0 -69.833 12.833 -91.5 38.5s-32.5 60.167 -32.5 103.5c0 42.667 10.333 76.834 31 102.501s51.667 38.5 93 38.5c42 0 73.5 -13.167 94.5 -39.5s31.5 -60.166 31.5 -101.499zM30 195.998
v44h223v-44h-223zM209 421.998c0 60.667 -22.667 91 -68 91c-44.667 0 -67 -30.333 -67 -91c0 -61.333 22.333 -92 67 -92c45.333 0 68 30.667 68 92z" />
    <glyph glyph-name="ordfeminine" horiz-adv-x="432" 
d="M257 27h-55l98 173l-98 173h55l121 -173zM109 27h-56l100 173l-100 173h56l121 -173z" />
    <glyph glyph-name="ordmasculine" horiz-adv-x="646" 
d="M572 58v-58h-54v58h-145v47l152 179h47v-177h39v-49h-39zM148 0h-59l393 555h60zM133 278l-0.000976562 184c-17.333 -12 -45.666 -18 -84.999 -18v47c65.333 0 98 23.667 98 71h41v-284h-54zM517.999 214l-92 -107h92v107z" />
    <glyph glyph-name="Omega" horiz-adv-x="646" 
d="M389 0c6 42 38.668 80.666 98.001 115.999l42 27c14 9.33301 23.167 18.333 27.5 27s6.5 18 6.5 28c0 28 -17 42 -51 42c-32.667 0 -52 -12.333 -58 -37h-58c10.667 54 49.667 81 117 81c32 0 58.167 -7.33301 78.5 -22s30.5 -34.667 30.5 -60
c0 -20.667 -4.83301 -37.5 -14.5 -50.5s-21.834 -24.833 -36.501 -35.5s-30.5 -21.167 -47.5 -31.5s-32.833 -23.166 -47.5 -38.499h148v-46h-235zM148.001 -0.000976562h-59l393 555h60zM133.001 277.999l-0.000976562 184c-17.333 -12 -45.666 -18 -84.999 -18v47
c65.333 0 98 23.667 98 71h41v-284h-54z" />
    <glyph glyph-name="ae" horiz-adv-x="646" 
d="M572 58v-58h-54v58h-145v47l152 179h47v-177h39v-49h-39zM169 0h-60l395 555h59zM252 358c0 -26 -10.667 -47 -32 -63s-49 -24 -83 -24c-71.333 0 -110 27 -116 81h58c2.66699 -24.667 21 -37 55 -37c39.333 0 59 16.667 59 50c0 25.333 -20 38 -60 38h-21v42
c45.333 0 68 13.667 68 41c0 21.333 -15.333 32 -46 32c-28.667 0 -45 -10.333 -49 -31h-59c10.667 50 46.667 75 108 75c30 0 55 -6.33301 75 -19s30 -30 30 -52c0 -34 -17.333 -55.667 -52 -65c43.333 -9.33301 65 -32 65 -68zM518 214l-92 -107h92v107z" />
    <glyph glyph-name="oslash" horiz-adv-x="432" 
d="M177 323v79h79v-79h-79zM395 -2c-4.66699 -50 -23.3311 -89.168 -55.998 -117.501s-74 -42.5 -124 -42.5c-24.667 0 -47.834 3.16699 -69.501 9.5s-40.5 15.833 -56.5 28.5s-28.667 28.334 -38 47.001s-14 40.334 -14 65.001s6.66699 48.167 20 70.5
s33.666 45.5 60.999 69.5l32 28c6.66699 6 12.167 11.667 16.5 17s7.83301 11.666 10.5 18.999s4.66699 16.666 6 27.999s2 26 2 44h67c0 -24.667 -1.16699 -45 -3.5 -61s-6.33301 -30 -12 -42s-13.334 -23.167 -23.001 -33.5s-22.167 -22.166 -37.5 -35.499
c-15.333 -12.667 -27.166 -23.5 -35.499 -32.5s-14.833 -17 -19.5 -24s-7.5 -13.667 -8.5 -20s-1.5 -13.5 -1.5 -21.5c0 -30 9.83301 -54.333 29.5 -73s44.167 -28 73.5 -28c61.333 0 97 35 107 105h74z" />
    <glyph glyph-name="questiondown" horiz-adv-x="517" 
d="M505 0l-75 196h-269l-71 -196h-89l246 642h91l263 -642h-96zM292 561l-109 -298h222zM255 686l-97 122h104l58 -122h-65z" />
    <glyph glyph-name="exclamdown" horiz-adv-x="517" 
d="M505 0l-75 196h-269l-71 -196h-89l246 642h91l263 -642h-96zM292 561l-109 -298h222zM263 614h-55l51 105h88z" />
    <glyph glyph-name="logicalnot" horiz-adv-x="517" 
d="M505 0l-75 196h-269l-71 -196h-89l246 642h91l263 -642h-96zM292 561l-109 -298h222zM296 614l-43 64l-44 -64h-76l84 105h72l84 -105h-77z" />
    <glyph glyph-name="radical" horiz-adv-x="517" 
d="M505 0l-75 196h-269l-71 -196h-89l246 642h91l263 -642h-96zM292 561l-109 -298h222zM383 688c0 -58 -25.666 -87 -76.999 -87c-6.66699 0 -24.667 5.33301 -54 16c-28 10.667 -43.667 16 -47 16c-15.333 0 -24.333 -11.333 -27 -34h-49c0 25.333 6.83301 46.333 20.5 63
s32.167 25 55.5 25c10.667 0 29.667 -5.33301 57 -16l28 -11c7.33301 -3.33301 12.666 -5 15.999 -5c16 0 25 11 27 33h50v0z" />
    <glyph glyph-name="florin" horiz-adv-x="517" 
d="M505 0l-75 196h-269l-71 -196h-89l246 642h91l263 -642h-96zM292 561l-109 -298h222zM288 630v77h69v-77h-69zM148 630v77h68v-77h-68z" />
    <glyph glyph-name="approxequal" horiz-adv-x="517" 
d="M435 0l-65.001 168.999h-232l-61 -169h-77l213 555h31c-17.333 1.33301 -31.5 8.5 -42.5 21.5s-16.5 28.167 -16.5 45.5c0 19.333 6.33301 35.666 19 48.999s28.667 20 48 20s35.5 -6.66699 48.5 -20s19.5 -29.666 19.5 -48.999c0 -18.667 -5.66699 -34.167 -17 -46.5
s-25.666 -19.166 -42.999 -20.499h32l226 -555h-83zM251.999 484.999l-95 -257h192zM292.999 621.999c0 12 -4.16699 22 -12.5 30s-17.833 12 -28.5 12c-26 0 -39 -14 -39 -42c0 -26.667 13 -40 39 -40c12 0 21.833 4 29.5 12s11.5 17.333 11.5 28z" />
    <glyph glyph-name="Delta" horiz-adv-x="775" 
d="M369 0v160h-196l-88 -160h-85l320 555h400v-67h-277v-168h254v-67h-254v-187h289v-66h-363zM369 488h-15l-145 -263h160v263z" />
    <glyph glyph-name="guillemotleft" horiz-adv-x="560" 
d="M603 204c-4 -34 -13.001 -64.166 -27.001 -90.499s-32.333 -48.833 -55 -67.5s-49.167 -32.834 -79.5 -42.501s-63.833 -14.5 -100.5 -14.5c-45.333 0 -86.5 7.83301 -123.5 23.5s-68.5 38 -94.5 67s-46 64 -60 105s-21 86.833 -21 137.5s7.16699 96.334 21.5 137.001
s34.5 75.334 60.5 104.001s57.333 50.667 94 66s77.667 23 123 23c68.667 0 126.667 -16.833 174 -50.5s76.666 -84.834 87.999 -153.501h-89c-2 21.333 -7.66699 40.166 -17 56.499s-21.666 30 -36.999 41s-33.166 19.333 -53.499 25s-41.833 8.5 -64.5 8.5
c-34 0 -64.167 -6.16699 -90.5 -18.5s-48.5 -29.833 -66.5 -52.5s-31.833 -49.667 -41.5 -81s-14.5 -66.333 -14.5 -105c0 -84 18.667 -148.333 56 -193s89.333 -67 156 -67c107.333 0 165 47.333 173 142h89v0zM373.999 -88.999c0 -48.667 -38.334 -73 -115.001 -73h-18.5
c-6.33301 0 -13.166 0.333008 -20.499 1v44c7.33301 -0.666992 14.5 -1.16699 21.5 -1.5s13.833 -0.5 20.5 -0.5c32 0 48 10 48 30s-17.667 30 -53 30v59h53v-28c42.667 -6 64 -26.333 64 -61z" />
    <glyph glyph-name="guillemotright" horiz-adv-x="517" 
d="M73 0v642h462v-76h-379v-196h356v-76h-356v-217h395v-77h-478zM269 686l-97 122h104l58 -122h-65z" />
    <glyph glyph-name="ellipsis" horiz-adv-x="517" 
d="M73 0v642h462v-76h-379v-196h356v-76h-356v-217h395v-77h-478zM270 614h-55l51 105h88z" />
    <glyph glyph-name="uni00A0" horiz-adv-x="517" 
d="M73 0v642h462v-76h-379v-196h356v-76h-356v-217h395v-77h-478zM310 614l-43 64l-44 -64h-76l84 105h72l84 -105h-77z" />
    <glyph glyph-name="Agrave" horiz-adv-x="517" 
d="M73 0v642h462v-76h-379v-196h356v-76h-356v-217h395v-77h-478zM303 630v77h69v-77h-69zM163 630v77h68v-77h-68z" />
    <glyph glyph-name="Atilde" horiz-adv-x="215" 
d="M82 0v642h87v-642h-87zM117 686l-97 122h104l58 -122h-65z" />
    <glyph glyph-name="Otilde" horiz-adv-x="215" 
d="M82 0v642h87v-642h-87zM114 614h-55l51 105h88z" />
    <glyph glyph-name="OE" horiz-adv-x="215" 
d="M82 0v642h87v-642h-87zM154 614l-43 64l-44 -64h-76l84 105h72l84 -105h-77z" />
    <glyph glyph-name="oe" horiz-adv-x="215" 
d="M146 630v77h69v-77h-69zM6 630v77h68v-77h-68zM82 0v642h87v-642h-87z" />
    <glyph glyph-name="glyph181" horiz-adv-x="603" 
d="M657 322c0 -49.333 -7.50098 -94.5039 -22.501 -135.504s-36 -76.167 -63 -105.5s-59.333 -52 -97 -68s-78.834 -24 -123.501 -24c-46.667 0 -89 8.33301 -127 25s-70.5 39.834 -97.5 69.501s-47.833 64.834 -62.5 105.501s-22 85 -22 133s7.5 92.333 22.5 133
s36 75.5 63 104.5s59.5 51.667 97.5 68s80 24.5 126 24.5c46.667 0 88.834 -8.16699 126.501 -24.5s69.834 -39.166 96.501 -68.499s47.167 -64.166 61.5 -104.499s21.5 -84.5 21.5 -132.5zM567.999 321.996c0 39.333 -5.16504 74.833 -15.498 106.5s-25 58.667 -44 81
s-41.833 39.5 -68.5 51.5s-56 18 -88 18c-34.667 0 -65.834 -6.33301 -93.501 -19s-51 -30.167 -70 -52.5s-33.667 -49.333 -44 -81s-15.5 -66.5 -15.5 -104.5s5.16699 -73 15.5 -105s25.166 -59.5 44.499 -82.5s42.5 -40.833 69.5 -53.5s57.167 -19 90.5 -19
c34 0 64.5 6.33301 91.5 19s50 30.5 69 53.5s33.5 50.5 43.5 82.5s15 67 15 105zM316.001 685.996l-97 122h104l58 -122h-65z" />
    <glyph glyph-name="glyph182" horiz-adv-x="603" 
d="M657 322c0 -49.333 -7.50098 -94.5039 -22.501 -135.504s-36 -76.167 -63 -105.5s-59.333 -52 -97 -68s-78.834 -24 -123.501 -24c-46.667 0 -89 8.33301 -127 25s-70.5 39.834 -97.5 69.501s-47.833 64.834 -62.5 105.501s-22 85 -22 133s7.5 92.333 22.5 133
s36 75.5 63 104.5s59.5 51.667 97.5 68s80 24.5 126 24.5c46.667 0 88.834 -8.16699 126.501 -24.5s69.834 -39.166 96.501 -68.499s47.167 -64.166 61.5 -104.499s21.5 -84.5 21.5 -132.5zM567.999 321.996c0 39.333 -5.16504 74.833 -15.498 106.5s-25 58.667 -44 81
s-41.833 39.5 -68.5 51.5s-56 18 -88 18c-34.667 0 -65.834 -6.33301 -93.501 -19s-51 -30.167 -70 -52.5s-33.667 -49.333 -44 -81s-15.5 -66.5 -15.5 -104.5s5.16699 -73 15.5 -105s25.166 -59.5 44.499 -82.5s42.5 -40.833 69.5 -53.5s57.167 -19 90.5 -19
c34 0 64.5 6.33301 91.5 19s50 30.5 69 53.5s33.5 50.5 43.5 82.5s15 67 15 105zM314.001 613.996h-55l51 105h88z" />
    <glyph glyph-name="glyph183" horiz-adv-x="603" 
d="M657 322c0 -49.333 -7.50098 -94.5039 -22.501 -135.504s-36 -76.167 -63 -105.5s-59.333 -52 -97 -68s-78.834 -24 -123.501 -24c-46.667 0 -89 8.33301 -127 25s-70.5 39.834 -97.5 69.501s-47.833 64.834 -62.5 105.501s-22 85 -22 133s7.5 92.333 22.5 133
s36 75.5 63 104.5s59.5 51.667 97.5 68s80 24.5 126 24.5c46.667 0 88.834 -8.16699 126.501 -24.5s69.834 -39.166 96.501 -68.499s47.167 -64.166 61.5 -104.499s21.5 -84.5 21.5 -132.5zM567.999 321.996c0 39.333 -5.16504 74.833 -15.498 106.5s-25 58.667 -44 81
s-41.833 39.5 -68.5 51.5s-56 18 -88 18c-34.667 0 -65.834 -6.33301 -93.501 -19s-51 -30.167 -70 -52.5s-33.667 -49.333 -44 -81s-15.5 -66.5 -15.5 -104.5s5.16699 -73 15.5 -105s25.166 -59.5 44.499 -82.5s42.5 -40.833 69.5 -53.5s57.167 -19 90.5 -19
c34 0 64.5 6.33301 91.5 19s50 30.5 69 53.5s33.5 50.5 43.5 82.5s15 67 15 105zM345.001 613.996l-43 64l-44 -64h-76l84 105h72l84 -105h-77z" />
    <glyph glyph-name="glyph184" horiz-adv-x="603" 
d="M657 322c0 -49.333 -7.50098 -94.5039 -22.501 -135.504s-36 -76.167 -63 -105.5s-59.333 -52 -97 -68s-78.834 -24 -123.501 -24c-46.667 0 -89 8.33301 -127 25s-70.5 39.834 -97.5 69.501s-47.833 64.834 -62.5 105.501s-22 85 -22 133s7.5 92.333 22.5 133
s36 75.5 63 104.5s59.5 51.667 97.5 68s80 24.5 126 24.5c46.667 0 88.834 -8.16699 126.501 -24.5s69.834 -39.166 96.501 -68.499s47.167 -64.166 61.5 -104.499s21.5 -84.5 21.5 -132.5zM567.999 321.996c0 39.333 -5.16504 74.833 -15.498 106.5s-25 58.667 -44 81
s-41.833 39.5 -68.5 51.5s-56 18 -88 18c-34.667 0 -65.834 -6.33301 -93.501 -19s-51 -30.167 -70 -52.5s-33.667 -49.333 -44 -81s-15.5 -66.5 -15.5 -104.5s5.16699 -73 15.5 -105s25.166 -59.5 44.499 -82.5s42.5 -40.833 69.5 -53.5s57.167 -19 90.5 -19
c34 0 64.5 6.33301 91.5 19s50 30.5 69 53.5s33.5 50.5 43.5 82.5s15 67 15 105zM428.001 711.996c0 -58 -25.666 -87 -76.999 -87c-6.66699 0 -24.667 5.33301 -54 16c-28 10.667 -43.667 16 -47 16c-15.333 0 -24.333 -11.333 -27 -34h-49
c0 25.333 6.83301 46.333 20.5 63s32.167 25 55.5 25c10.667 0 29.667 -5.33301 57 -16l28 -11c7.33301 -3.33301 12.666 -5 15.999 -5c16 0 25 11 27 33h50v0z" />
    <glyph glyph-name="divide" horiz-adv-x="603" 
d="M657 322c0 -49.333 -7.50098 -94.5039 -22.501 -135.504s-36 -76.167 -63 -105.5s-59.333 -52 -97 -68s-78.834 -24 -123.501 -24c-46.667 0 -89 8.33301 -127 25s-70.5 39.834 -97.5 69.501s-47.833 64.834 -62.5 105.501s-22 85 -22 133s7.5 92.333 22.5 133
s36 75.5 63 104.5s59.5 51.667 97.5 68s80 24.5 126 24.5c46.667 0 88.834 -8.16699 126.501 -24.5s69.834 -39.166 96.501 -68.499s47.167 -64.166 61.5 -104.499s21.5 -84.5 21.5 -132.5zM567.999 321.996c0 39.333 -5.16504 74.833 -15.498 106.5s-25 58.667 -44 81
s-41.833 39.5 -68.5 51.5s-56 18 -88 18c-34.667 0 -65.834 -6.33301 -93.501 -19s-51 -30.167 -70 -52.5s-33.667 -49.333 -44 -81s-15.5 -66.5 -15.5 -104.5s5.16699 -73 15.5 -105s25.166 -59.5 44.499 -82.5s42.5 -40.833 69.5 -53.5s57.167 -19 90.5 -19
c34 0 64.5 6.33301 91.5 19s50 30.5 69 53.5s33.5 50.5 43.5 82.5s15 67 15 105zM338.001 629.996v77h69v-77h-69zM198.001 629.996v77h68v-77h-68z" />
    <glyph glyph-name="lozenge" horiz-adv-x="453" 
d="M344 109l-118 120l-119 -120l-44 46l118 119l-118 117l44 46l119 -118l118 118l46 -46l-118 -117l118 -119z" />
    <glyph glyph-name="ydieresis" horiz-adv-x="603" 
d="M507 470c40 -51.333 59.999 -115.334 59.999 -192.001c0 -43.333 -6.5 -82.666 -19.5 -117.999s-31.167 -65.5 -54.5 -90.5s-51.166 -44.5 -83.499 -58.5s-67.833 -21 -106.5 -21c-66 0 -123 20 -171 60l-64 -71l-38 32l67 74c-40.667 54 -61 118.333 -61 193
c0 42 6.5 80.333 19.5 115s31.167 64.667 54.5 90s51.333 45 84 59s69 21 109 21c66.667 0 122.667 -19 168 -57l64 70l38 -32zM425.999 453.999c-32.667 31.333 -73.332 47.001 -121.999 47.001c-29.333 0 -55.833 -5.5 -79.5 -16.5s-43.834 -26.167 -60.501 -45.5
s-29.5 -42.833 -38.5 -70.5s-13.5 -57.834 -13.5 -90.501c0 -56 11 -102.333 33 -139zM491.001 278c0 54 -11.001 99.999 -33.001 137.999l-281 -315c34.667 -32 76 -48 124 -48c28.667 0 54.834 5.5 78.501 16.5s43.667 26.333 60 46s29 43.334 38 71.001
s13.5 58.167 13.5 91.5z" />
    <glyph glyph-name="Ydieresis" horiz-adv-x="560" 
d="M576 271c0 -50.667 -4.66699 -93.8311 -14 -129.498s-24.166 -64.834 -44.499 -87.501s-46.333 -39.167 -78 -49.5s-69.834 -15.5 -114.501 -15.5c-47.333 0 -87.166 5.5 -119.499 16.5s-58.333 28 -78 51s-33.667 52.167 -42 87.5s-12.5 77.666 -12.5 126.999v371h83
v-370c0 -38.667 2.83301 -71.167 8.5 -97.5s15.167 -47.666 28.5 -63.999s30.666 -28 51.999 -35s48 -10.5 80 -10.5c30.667 0 56.667 3.5 78 10.5s38.5 18.667 51.5 35s22.5 37.666 28.5 63.999s9 58.833 9 97.5v370h84v-371v0zM288 686.003l-97 122h104l58 -122h-65z" />
    <glyph glyph-name="fraction" horiz-adv-x="560" 
d="M576 271c0 -50.667 -4.66699 -93.8311 -14 -129.498s-24.166 -64.834 -44.499 -87.501s-46.333 -39.167 -78 -49.5s-69.834 -15.5 -114.501 -15.5c-47.333 0 -87.166 5.5 -119.499 16.5s-58.333 28 -78 51s-33.667 52.167 -42 87.5s-12.5 77.666 -12.5 126.999v371h83
v-370c0 -38.667 2.83301 -71.167 8.5 -97.5s15.167 -47.666 28.5 -63.999s30.666 -28 51.999 -35s48 -10.5 80 -10.5c30.667 0 56.667 3.5 78 10.5s38.5 18.667 51.5 35s22.5 37.666 28.5 63.999s9 58.833 9 97.5v370h84v-371v0zM292 614.003h-55l51 105h88z" />
    <glyph glyph-name="Euro" horiz-adv-x="560" 
d="M576 271c0 -50.667 -4.66699 -93.8311 -14 -129.498s-24.166 -64.834 -44.499 -87.501s-46.333 -39.167 -78 -49.5s-69.834 -15.5 -114.501 -15.5c-47.333 0 -87.166 5.5 -119.499 16.5s-58.333 28 -78 51s-33.667 52.167 -42 87.5s-12.5 77.666 -12.5 126.999v371h83
v-370c0 -38.667 2.83301 -71.167 8.5 -97.5s15.167 -47.666 28.5 -63.999s30.666 -28 51.999 -35s48 -10.5 80 -10.5c30.667 0 56.667 3.5 78 10.5s38.5 18.667 51.5 35s22.5 37.666 28.5 63.999s9 58.833 9 97.5v370h84v-371v0zM323 614.003l-43 64l-44 -64h-76l84 105h72
l84 -105h-77z" />
    <glyph glyph-name="guilsinglleft" horiz-adv-x="560" 
d="M576 271c0 -50.667 -4.66699 -93.8311 -14 -129.498s-24.166 -64.834 -44.499 -87.501s-46.333 -39.167 -78 -49.5s-69.834 -15.5 -114.501 -15.5c-47.333 0 -87.166 5.5 -119.499 16.5s-58.333 28 -78 51s-33.667 52.167 -42 87.5s-12.5 77.666 -12.5 126.999v371h83
v-370c0 -38.667 2.83301 -71.167 8.5 -97.5s15.167 -47.666 28.5 -63.999s30.666 -28 51.999 -35s48 -10.5 80 -10.5c30.667 0 56.667 3.5 78 10.5s38.5 18.667 51.5 35s22.5 37.666 28.5 63.999s9 58.833 9 97.5v370h84v-371v0zM286 630.003v77h69v-77h-69zM146 630.003v77
h68v-77h-68z" />
    <glyph glyph-name="guilsinglright" horiz-adv-x="517" 
d="M342 272v-272h-86v272l-252 370h104l191 -296l193 296h102zM270 590h-55l51 105h88z" />
    <glyph glyph-name="fi" horiz-adv-x="517" 
d="M483 284c0 -114.667 -69 -172 -207 -172h-141v-112h-72v555h72v-110h134c76.667 0 131.5 -13.667 164.5 -41s49.5 -67.333 49.5 -120zM407 282c0 36 -10.833 61.333 -32.5 76s-55.167 22 -100.5 22h-139v-202h141c87.333 0 131 34.667 131 104z" />
    <glyph glyph-name="fl" horiz-adv-x="474" 
d="M448 118c0 -19.333 -3.66895 -36.832 -11.002 -52.499s-17.333 -29.167 -30 -40.5s-27.5 -20 -44.5 -26s-34.833 -9 -53.5 -9c-17.333 0 -34 2.33301 -50 7s-30.167 11.5 -42.5 20.5s-22.166 19.833 -29.499 32.5s-11.333 27 -12 43h67c4 -30.667 26 -46 66 -46
c19.333 0 35.5 6 48.5 18s19.5 27.667 19.5 47c0 18 -7 34 -21 48c-19.333 15.333 -36.666 28.333 -51.999 39s-28.5 20.667 -39.5 30s-19.333 18.666 -25 27.999s-8.5 20.333 -8.5 33c0 8 3.16699 19.667 9.5 35s13.5 31.333 21.5 48l21.5 46.5
c6.33301 14.333 9.5 24.166 9.5 29.499c0 19.333 -7.83301 34 -23.5 44s-33.5 15 -53.5 15c-33.333 0 -56.833 -10.833 -70.5 -32.5s-20.5 -55.167 -20.5 -100.5v-375h-71v378c0 123.333 54.333 185 163 185c42 0 76.333 -9.33301 103 -28s40 -45 40 -79
c0 -25.333 -13 -61 -39 -107c-12.667 -23.333 -19 -39.333 -19 -48c0 -15.333 11.333 -30.333 34 -45c26 -18 46.5 -32.667 61.5 -44s26.333 -21.833 34 -31.5s12.5 -19.167 14.5 -28.5s3 -20.666 3 -33.999z" />
    <glyph glyph-name="daggerdbl" horiz-adv-x="432" 
d="M357 0l0.000976562 48c-43.333 -39.333 -98.333 -59 -165 -59c-22.667 0 -43.667 3.16699 -63 9.5s-36 15.5 -50 27.5s-25 26.167 -33 42.5s-12 34.5 -12 54.5c0 109.333 93.667 164 281 164h42c0 26.667 -1.66699 48.167 -5 64.5s-9.33301 29 -18 38
s-20.334 15 -35.001 18s-33 4.5 -55 4.5c-73.333 0 -111.666 -26.667 -114.999 -80h-81c7.33301 95.333 73.666 143 198.999 143c36 0 66.167 -3.33301 90.5 -10s44 -17 59 -31s25.667 -32.167 32 -54.5s9.5 -48.833 9.5 -79.5v-300h-81zM357.001 225l-58 0.000976562
c-120 0 -180 -32.667 -180 -98c0 -48.667 32.333 -73 97 -73c31.333 0 58.333 5.66699 81 17s42.667 28.666 60 51.999v102zM218.001 530.001l-97 122h104l58 -122h-65z" />
    <glyph glyph-name="periodcentered" horiz-adv-x="432" 
d="M357 0l0.000976562 48c-43.333 -39.333 -98.333 -59 -165 -59c-22.667 0 -43.667 3.16699 -63 9.5s-36 15.5 -50 27.5s-25 26.167 -33 42.5s-12 34.5 -12 54.5c0 109.333 93.667 164 281 164h42c0 26.667 -1.66699 48.167 -5 64.5s-9.33301 29 -18 38
s-20.334 15 -35.001 18s-33 4.5 -55 4.5c-73.333 0 -111.666 -26.667 -114.999 -80h-81c7.33301 95.333 73.666 143 198.999 143c36 0 66.167 -3.33301 90.5 -10s44 -17 59 -31s25.667 -32.167 32 -54.5s9.5 -48.833 9.5 -79.5v-300h-81zM357.001 225l-58 0.000976562
c-120 0 -180 -32.667 -180 -98c0 -48.667 32.333 -73 97 -73c31.333 0 58.333 5.66699 81 17s42.667 28.666 60 51.999v102zM228.001 458.001h-55l51 105h88z" />
    <glyph glyph-name="quotesinglbase" horiz-adv-x="432" 
d="M357 0l0.000976562 48c-43.333 -39.333 -98.333 -59 -165 -59c-22.667 0 -43.667 3.16699 -63 9.5s-36 15.5 -50 27.5s-25 26.167 -33 42.5s-12 34.5 -12 54.5c0 109.333 93.667 164 281 164h42c0 26.667 -1.66699 48.167 -5 64.5s-9.33301 29 -18 38
s-20.334 15 -35.001 18s-33 4.5 -55 4.5c-73.333 0 -111.666 -26.667 -114.999 -80h-81c7.33301 95.333 73.666 143 198.999 143c36 0 66.167 -3.33301 90.5 -10s44 -17 59 -31s25.667 -32.167 32 -54.5s9.5 -48.833 9.5 -79.5v-300h-81zM357.001 225l-58 0.000976562
c-120 0 -180 -32.667 -180 -98c0 -48.667 32.333 -73 97 -73c31.333 0 58.333 5.66699 81 17s42.667 28.666 60 51.999v102zM259.001 458.001l-43 64l-44 -64h-76l84 105h72l84 -105h-77z" />
    <glyph glyph-name="quotedblbase" horiz-adv-x="432" 
d="M357 0l0.000976562 48c-43.333 -39.333 -98.333 -59 -165 -59c-22.667 0 -43.667 3.16699 -63 9.5s-36 15.5 -50 27.5s-25 26.167 -33 42.5s-12 34.5 -12 54.5c0 109.333 93.667 164 281 164h42c0 26.667 -1.66699 48.167 -5 64.5s-9.33301 29 -18 38
s-20.334 15 -35.001 18s-33 4.5 -55 4.5c-73.333 0 -111.666 -26.667 -114.999 -80h-81c7.33301 95.333 73.666 143 198.999 143c36 0 66.167 -3.33301 90.5 -10s44 -17 59 -31s25.667 -32.167 32 -54.5s9.5 -48.833 9.5 -79.5v-300h-81zM357.001 225l-58 0.000976562
c-120 0 -180 -32.667 -180 -98c0 -48.667 32.333 -73 97 -73c31.333 0 58.333 5.66699 81 17s42.667 28.666 60 51.999v102zM341.001 556.001c0 -58 -25.666 -87 -76.999 -87c-6.66699 0 -24.667 5.33301 -54 16c-28 10.667 -43.667 16 -47 16
c-15.333 0 -24.333 -11.333 -27 -34h-49c0 25.333 6.83301 46.333 20.5 63s32.167 25 55.5 25c10.667 0 29.667 -5.33301 57 -16l28 -11c7.33301 -3.33301 12.666 -5 15.999 -5c16 0 25 11 27 33h50v0z" />
    <glyph glyph-name="perthousand" horiz-adv-x="432" 
d="M357 0l0.000976562 48c-43.333 -39.333 -98.333 -59 -165 -59c-22.667 0 -43.667 3.16699 -63 9.5s-36 15.5 -50 27.5s-25 26.167 -33 42.5s-12 34.5 -12 54.5c0 109.333 93.667 164 281 164h42c0 26.667 -1.66699 48.167 -5 64.5s-9.33301 29 -18 38
s-20.334 15 -35.001 18s-33 4.5 -55 4.5c-73.333 0 -111.666 -26.667 -114.999 -80h-81c7.33301 95.333 73.666 143 198.999 143c36 0 66.167 -3.33301 90.5 -10s44 -17 59 -31s25.667 -32.167 32 -54.5s9.5 -48.833 9.5 -79.5v-300h-81zM357.001 225l-58 0.000976562
c-120 0 -180 -32.667 -180 -98c0 -48.667 32.333 -73 97 -73c31.333 0 58.333 5.66699 81 17s42.667 28.666 60 51.999v102zM252.001 474.001v77h69v-77h-69zM112.001 474.001v77h68v-77h-68z" />
    <glyph glyph-name="Acircumflex" horiz-adv-x="432" 
d="M284 513c0 -18 -6.83301 -33.833 -20.5 -47.5s-29.5 -20.5 -47.5 -20.5c-19.333 0 -35.5 6.83301 -48.5 20.5s-19.5 29.5 -19.5 47.5c0 19.333 6.5 35.833 19.5 49.5s29.167 20.5 48.5 20.5s35.5 -6.83301 48.5 -20.5s19.5 -30.167 19.5 -49.5zM308 0l-0.000976562 42
c-36.667 -34.667 -84 -52 -142 -52c-40 0 -72.667 10.833 -98 32.5s-38 49.5 -38 83.5c0 94 80.667 141 242 141h36c0 22.667 -1.33301 41 -4 55s-7.66699 25 -15 33s-17.333 13.333 -30 16s-29 4 -49 4c-64 0 -96.667 -22.667 -98 -68h-70c6 82 63.333 123 172 123
c30.667 0 56.334 -2.83301 77.001 -8.5s37.5 -14.5 50.5 -26.5s22.333 -27.5 28 -46.5s8.5 -41.833 8.5 -68.5v-260h-70zM255.999 513c0 11.333 -4 21.167 -12 29.5s-17.333 12.5 -28 12.5c-26.667 0 -40 -14 -40 -42c0 -27.333 13.333 -41 40 -41
c10.667 0 20 4.16699 28 12.5s12 17.833 12 28.5zM307.999 194.001h-50c-103.333 0 -155 -28.333 -155 -85c0 -41.333 28 -62 84 -62c52 0 92.333 19.667 121 59v88z" />
    <glyph glyph-name="Ecircumflex" horiz-adv-x="689" 
d="M370 183c4.66699 -90.667 43.333 -136.003 116 -136.003c24.667 0 46.167 6.33301 64.5 19s28.5 31 30.5 55h73c-2.66699 -20 -8.66699 -38 -18 -54s-21.333 -29.833 -36 -41.5s-31.667 -20.5 -51 -26.5s-40.333 -9 -63 -9c-70 0 -122 26 -156 78
c-32 -52 -88 -78 -168 -78c-18.667 0 -36 2.66699 -52 8s-30 13 -42 23s-21.333 22.167 -28 36.5s-10 30.5 -10 48.5c0 94 78 141 234 141h35c0 20 -1.33301 36.833 -4 50.5s-7.33398 24.834 -14.001 33.501s-16 14.834 -28 18.501s-27.333 5.5 -46 5.5
c-59.333 0 -91 -22.667 -95 -68h-70c6 82 62 123 168 123c68.667 0 115 -17 139 -51c17.333 16.667 36.333 29.334 57 38.001s44.334 13 71.001 13c58.667 0 104.167 -18.5 136.5 -55.5s48.5 -88.5 48.5 -154.5v-17h-292zM586.999 239.997
c-12.667 76.667 -49.333 115 -110 115c-59.333 0 -94 -38.333 -104 -115h214zM299 193.997h-48c-98.667 0 -148 -28.333 -148 -85c0 -41.333 26.667 -62 80 -62c77.333 0 116 39.667 116 119v28z" />
    <glyph glyph-name="Aacute" horiz-adv-x="387" 
d="M438 139c-5.33301 -45.333 -24.998 -81.667 -58.998 -109s-77 -41 -129 -41c-34.667 0 -65.667 5.83301 -93 17.5s-50.333 28 -69 49s-32.834 46.5 -42.501 76.5s-14.5 63.333 -14.5 100c0 38.667 5.16699 73.167 15.5 103.5s25.166 55.833 44.499 76.5
s42.333 36.334 69 47.001s56.667 16 90 16c50.667 0 93.167 -12.833 127.5 -38.5s54.5 -62.5 60.5 -110.5h-86c-2 26.667 -12.5 47.667 -31.5 63s-42.5 23 -70.5 23c-40.667 0 -73 -14.833 -97 -44.5s-36 -74.834 -36 -135.501c0 -118.667 44.333 -178 133 -178
c64 0 98 28.333 102 85h86v0zM300.002 -89.001c0 -48.667 -38.334 -73 -115.001 -73h-18.5c-6.33301 0 -13.166 0.333008 -20.499 1v44c7.33301 -0.666992 14.5 -1.16699 21.5 -1.5s13.833 -0.5 20.5 -0.5c32 0 48 10 48 30s-17.667 30 -53 30v59h53v-28
c42.667 -6 64 -26.333 64 -61z" />
    <glyph glyph-name="Edieresis" horiz-adv-x="432" 
d="M118 213c3.33301 -51.333 16.8359 -90.666 40.5029 -117.999s57.5 -41 101.5 -41c14 0 27.667 1.83301 41 5.5s25.166 9.16699 35.499 16.5s18.666 16.166 24.999 26.499s10.166 22.5 11.499 36.5h86c-3.33301 -23.333 -10.666 -44.166 -21.999 -62.499
s-25.833 -34 -43.5 -47s-37.834 -23 -60.501 -30s-47 -10.5 -73 -10.5c-36 0 -68.167 5.66699 -96.5 17s-52.333 27.666 -72 48.999s-34.667 46.833 -45 76.5s-15.5 63.167 -15.5 100.5c0 36.667 5.16699 70 15.5 100s25 55.5 44 76.5s42 37.333 69 49
s57.167 17.5 90.5 17.5c34.667 0 65.5 -5.83301 92.5 -17.5s49.667 -28 68 -49s32.333 -46.5 42 -76.5s14.5 -63.333 14.5 -100v-19h-349zM380.003 278c-12 89.333 -55.333 134 -130 134c-73.333 0 -117 -44.667 -131 -134h261zM221.003 530l-97 122h104l58 -122h-65z" />
    <glyph glyph-name="Egrave" horiz-adv-x="432" 
d="M118 213c3.33301 -51.333 16.8359 -90.666 40.5029 -117.999s57.5 -41 101.5 -41c14 0 27.667 1.83301 41 5.5s25.166 9.16699 35.499 16.5s18.666 16.166 24.999 26.499s10.166 22.5 11.499 36.5h86c-3.33301 -23.333 -10.666 -44.166 -21.999 -62.499
s-25.833 -34 -43.5 -47s-37.834 -23 -60.501 -30s-47 -10.5 -73 -10.5c-36 0 -68.167 5.66699 -96.5 17s-52.333 27.666 -72 48.999s-34.667 46.833 -45 76.5s-15.5 63.167 -15.5 100.5c0 36.667 5.16699 70 15.5 100s25 55.5 44 76.5s42 37.333 69 49
s57.167 17.5 90.5 17.5c34.667 0 65.5 -5.83301 92.5 -17.5s49.667 -28 68 -49s32.333 -46.5 42 -76.5s14.5 -63.333 14.5 -100v-19h-349zM380.003 278c-12 89.333 -55.333 134 -130 134c-73.333 0 -117 -44.667 -131 -134h261zM228.003 458h-55l51 105h88z" />
    <glyph glyph-name="Iacute" horiz-adv-x="432" 
d="M118 213c3.33301 -51.333 16.8359 -90.666 40.5029 -117.999s57.5 -41 101.5 -41c14 0 27.667 1.83301 41 5.5s25.166 9.16699 35.499 16.5s18.666 16.166 24.999 26.499s10.166 22.5 11.499 36.5h86c-3.33301 -23.333 -10.666 -44.166 -21.999 -62.499
s-25.833 -34 -43.5 -47s-37.834 -23 -60.501 -30s-47 -10.5 -73 -10.5c-36 0 -68.167 5.66699 -96.5 17s-52.333 27.666 -72 48.999s-34.667 46.833 -45 76.5s-15.5 63.167 -15.5 100.5c0 36.667 5.16699 70 15.5 100s25 55.5 44 76.5s42 37.333 69 49
s57.167 17.5 90.5 17.5c34.667 0 65.5 -5.83301 92.5 -17.5s49.667 -28 68 -49s32.333 -46.5 42 -76.5s14.5 -63.333 14.5 -100v-19h-349zM380.003 278c-12 89.333 -55.333 134 -130 134c-73.333 0 -117 -44.667 -131 -134h261zM259.003 458l-43 64l-44 -64h-76l84 105h72
l84 -105h-77z" />
    <glyph glyph-name="Icircumflex" horiz-adv-x="432" 
d="M118 213c3.33301 -51.333 16.8359 -90.666 40.5029 -117.999s57.5 -41 101.5 -41c14 0 27.667 1.83301 41 5.5s25.166 9.16699 35.499 16.5s18.666 16.166 24.999 26.499s10.166 22.5 11.499 36.5h86c-3.33301 -23.333 -10.666 -44.166 -21.999 -62.499
s-25.833 -34 -43.5 -47s-37.834 -23 -60.501 -30s-47 -10.5 -73 -10.5c-36 0 -68.167 5.66699 -96.5 17s-52.333 27.666 -72 48.999s-34.667 46.833 -45 76.5s-15.5 63.167 -15.5 100.5c0 36.667 5.16699 70 15.5 100s25 55.5 44 76.5s42 37.333 69 49
s57.167 17.5 90.5 17.5c34.667 0 65.5 -5.83301 92.5 -17.5s49.667 -28 68 -49s32.333 -46.5 42 -76.5s14.5 -63.333 14.5 -100v-19h-349zM380.003 278c-12 89.333 -55.333 134 -130 134c-73.333 0 -117 -44.667 -131 -134h261zM252.003 474v77h69v-77h-69zM112.003 474v77
h68v-77h-68z" />
    <glyph glyph-name="Idieresis" horiz-adv-x="177" 
d="M76 458l-83 105h88l51 -105h-56zM53 0v402h71v-402h-71z" />
    <glyph glyph-name="Igrave" horiz-adv-x="177" 
d="M102 458h-56l50 105h90zM53 0v402h71v-402h-71z" />
    <glyph glyph-name="Oacute" horiz-adv-x="177" 
d="M130 458l-41 64l-43 -64h-78l84 105h72l84 -105h-78zM53 0v402h71v-402h-71z" />
    <glyph glyph-name="Ocircumflex" horiz-adv-x="177" 
d="M124 474v77h70v-77h-70zM-16 474v77h70v-77h-70zM53 0v402h71v-402h-71z" />
    <glyph glyph-name="uniF8FF" horiz-adv-x="432" 
d="M403 196c0 -65.333 -17.167 -115.999 -51.5 -151.999s-79.833 -54 -136.5 -54c-58 0 -103.833 18.333 -137.5 55s-50.5 87 -50.5 151s16.833 114.333 50.5 151s79.5 55 137.5 55c22.667 0 43 -5 61 -15c-14 28 -30.667 52.667 -50 74l-92 -42l-20 37l82 37
c-11.333 10.667 -23.333 21.167 -36 31.5s-26.667 20.5 -42 30.5h82l47 -38l81 38l20 -37l-68 -32c82 -94.667 123 -191.334 123 -290.001zM330 196.001c0 49.333 -10.5 86.667 -31.5 112s-48.833 38 -83.5 38c-35.333 0 -63.166 -12.5 -83.499 -37.5
s-30.5 -62.5 -30.5 -112.5c0 -46.667 9.66699 -83.167 29 -109.5s47.666 -39.5 84.999 -39.5s65.833 13.167 85.5 39.5s29.5 62.833 29.5 109.5z" />
    <glyph glyph-name="Ograve" horiz-adv-x="432" 
d="M357 0l0.000976562 300c0 71.333 -29.333 107 -88 107c-20.667 0 -41.334 -6 -62.001 -18s-41.667 -30.667 -63 -56v-333h-82v466h82v-60c42.667 46 88.667 69 138 69c105.333 0 158 -56.667 158 -170v-305h-83zM341.001 556c0 -58 -25.666 -87 -76.999 -87
c-6.66699 0 -24.667 5.33301 -54 16c-28 10.667 -43.667 16 -47 16c-15.333 0 -24.333 -11.333 -27 -34h-49c0 25.333 6.83301 46.333 20.5 63s32.167 25 55.5 25c10.667 0 29.667 -5.33301 57 -16l28 -11c7.33301 -3.33301 12.666 -5 15.999 -5c16 0 25 11 27 33h50v0z" />
    <glyph glyph-name="Uacute" horiz-adv-x="432" 
d="M467 232c0 -38 -5.16406 -72.168 -15.4971 -102.501s-25 -55.833 -44 -76.5s-41.833 -36.5 -68.5 -47.5s-56.334 -16.5 -89.001 -16.5c-34.667 0 -65.667 5.83301 -93 17.5s-50.333 28 -69 49s-32.834 46.5 -42.501 76.5s-14.5 63.333 -14.5 100
c0 38.667 5.16699 73.167 15.5 103.5s25.166 55.833 44.499 76.5s42.333 36.334 69 47.001s56.667 16 90 16c34.667 0 65.5 -5.83301 92.5 -17.5s49.667 -28 68 -49s32.333 -46.5 42 -76.5s14.5 -63.333 14.5 -100zM381.003 231.999c0 60 -12 105.001 -36 135.001
s-55.667 45 -95 45c-40.667 0 -73 -14.833 -97 -44.5s-36 -74.834 -36 -135.501c0 -118.667 44.333 -178 133 -178c87.333 0 131 59.333 131 178zM220.003 530l-97 122h104l58 -122h-65z" />
    <glyph glyph-name="Ucircumflex" horiz-adv-x="432" 
d="M467 232c0 -38 -5.16406 -72.168 -15.4971 -102.501s-25 -55.833 -44 -76.5s-41.833 -36.5 -68.5 -47.5s-56.334 -16.5 -89.001 -16.5c-34.667 0 -65.667 5.83301 -93 17.5s-50.333 28 -69 49s-32.834 46.5 -42.501 76.5s-14.5 63.333 -14.5 100
c0 38.667 5.16699 73.167 15.5 103.5s25.166 55.833 44.499 76.5s42.333 36.334 69 47.001s56.667 16 90 16c34.667 0 65.5 -5.83301 92.5 -17.5s49.667 -28 68 -49s32.333 -46.5 42 -76.5s14.5 -63.333 14.5 -100zM381.003 231.999c0 60 -12 105.001 -36 135.001
s-55.667 45 -95 45c-40.667 0 -73 -14.833 -97 -44.5s-36 -74.834 -36 -135.501c0 -118.667 44.333 -178 133 -178c87.333 0 131 59.333 131 178zM228.003 458h-55l51 105h88z" />
    <glyph glyph-name="Ugrave" horiz-adv-x="432" 
d="M467 232c0 -38 -5.16406 -72.168 -15.4971 -102.501s-25 -55.833 -44 -76.5s-41.833 -36.5 -68.5 -47.5s-56.334 -16.5 -89.001 -16.5c-34.667 0 -65.667 5.83301 -93 17.5s-50.333 28 -69 49s-32.834 46.5 -42.501 76.5s-14.5 63.333 -14.5 100
c0 38.667 5.16699 73.167 15.5 103.5s25.166 55.833 44.499 76.5s42.333 36.334 69 47.001s56.667 16 90 16c34.667 0 65.5 -5.83301 92.5 -17.5s49.667 -28 68 -49s32.333 -46.5 42 -76.5s14.5 -63.333 14.5 -100zM381.003 231.999c0 60 -12 105.001 -36 135.001
s-55.667 45 -95 45c-40.667 0 -73 -14.833 -97 -44.5s-36 -74.834 -36 -135.501c0 -118.667 44.333 -178 133 -178c87.333 0 131 59.333 131 178zM260.003 458l-43 64l-44 -64h-76l84 105h72l84 -105h-77z" />
    <glyph glyph-name="dotlessi" horiz-adv-x="432" 
d="M467 232c0 -38 -5.16406 -72.168 -15.4971 -102.501s-25 -55.833 -44 -76.5s-41.833 -36.5 -68.5 -47.5s-56.334 -16.5 -89.001 -16.5c-34.667 0 -65.667 5.83301 -93 17.5s-50.333 28 -69 49s-32.834 46.5 -42.501 76.5s-14.5 63.333 -14.5 100
c0 38.667 5.16699 73.167 15.5 103.5s25.166 55.833 44.499 76.5s42.333 36.334 69 47.001s56.667 16 90 16c34.667 0 65.5 -5.83301 92.5 -17.5s49.667 -28 68 -49s32.333 -46.5 42 -76.5s14.5 -63.333 14.5 -100zM381.003 231.999c0 60 -12 105.001 -36 135.001
s-55.667 45 -95 45c-40.667 0 -73 -14.833 -97 -44.5s-36 -74.834 -36 -135.501c0 -118.667 44.333 -178 133 -178c87.333 0 131 59.333 131 178zM342.003 556c0 -58 -25.666 -87 -76.999 -87c-6.66699 0 -24.667 5.33301 -54 16c-28 10.667 -43.667 16 -47 16
c-15.333 0 -24.333 -11.333 -27 -34h-49c0 25.333 6.83301 46.333 20.5 63s32.167 25 55.5 25c10.667 0 29.667 -5.33301 57 -16l28 -11c7.33301 -3.33301 12.666 -5 15.999 -5c16 0 25 11 27 33h50v0z" />
    <glyph glyph-name="circumflex" horiz-adv-x="432" 
d="M467 232c0 -38 -5.16406 -72.168 -15.4971 -102.501s-25 -55.833 -44 -76.5s-41.833 -36.5 -68.5 -47.5s-56.334 -16.5 -89.001 -16.5c-34.667 0 -65.667 5.83301 -93 17.5s-50.333 28 -69 49s-32.834 46.5 -42.501 76.5s-14.5 63.333 -14.5 100
c0 38.667 5.16699 73.167 15.5 103.5s25.166 55.833 44.499 76.5s42.333 36.334 69 47.001s56.667 16 90 16c34.667 0 65.5 -5.83301 92.5 -17.5s49.667 -28 68 -49s32.333 -46.5 42 -76.5s14.5 -63.333 14.5 -100zM381.003 231.999c0 60 -12 105.001 -36 135.001
s-55.667 45 -95 45c-40.667 0 -73 -14.833 -97 -44.5s-36 -74.834 -36 -135.501c0 -118.667 44.333 -178 133 -178c87.333 0 131 59.333 131 178zM252.003 474v77h69v-77h-69zM112.003 474v77h68v-77h-68z" />
    <glyph glyph-name="tilde" horiz-adv-x="453" 
d="M187 357v77h77v-77h-77zM43 242v63h367v-63h-367zM187 113v78h77v-78h-77z" />
    <glyph glyph-name="macron" horiz-adv-x="432" 
d="M403 200c0 -66.667 -16.833 -118.332 -50.5 -154.999s-79.5 -55 -137.5 -55c-41.333 0 -77.666 10.667 -108.999 32l-38 -49l-36 27c5.33301 5.33301 11.166 12.333 17.499 21l23.5 31c-30.667 36.667 -46 86 -46 148c0 68 17.167 120 51.5 156s79.833 54 136.5 54
c42 0 78.667 -10 110 -30l37 49l37 -27l-41 -53c30 -36.667 45 -86.334 45 -149.001zM285 330.002c-18.667 16.667 -42.001 24.999 -70.001 24.999c-35.333 0 -63.166 -12.833 -83.499 -38.5s-30.5 -64.5 -30.5 -116.5c0 -37.333 5.33301 -67.666 16 -90.999z
M329.999 200.001c0 19.333 -1.66797 36.668 -5.00098 52.001s-7.66602 28.666 -12.999 39.999l-168 -219c19.333 -17.333 43 -26 71 -26c76.667 0 115 51 115 153z" />
    <glyph glyph-name="breve" horiz-adv-x="432" 
d="M357 0v60c-41.333 -47.333 -88.333 -71 -141 -71c-104 0 -156 57.333 -156 172v305h83v-302c0 -70.667 28.667 -106 86 -106c46 0 88.667 25 128 75v333h81v-466h-81zM223 530l-97 122h104l58 -122h-65z" />
    <glyph glyph-name="dotaccent" horiz-adv-x="432" 
d="M357 0v60c-41.333 -47.333 -88.333 -71 -141 -71c-104 0 -156 57.333 -156 172v305h83v-302c0 -70.667 28.667 -106 86 -106c46 0 88.667 25 128 75v333h81v-466h-81zM228 458h-55l51 105h88z" />
    <glyph glyph-name="ring" horiz-adv-x="432" 
d="M357 0v60c-41.333 -47.333 -88.333 -71 -141 -71c-104 0 -156 57.333 -156 172v305h83v-302c0 -70.667 28.667 -106 86 -106c46 0 88.667 25 128 75v333h81v-466h-81zM259 458l-43 64l-44 -64h-76l84 105h72l84 -105h-77z" />
    <glyph glyph-name="cedilla" horiz-adv-x="432" 
d="M357 0v60c-41.333 -47.333 -88.333 -71 -141 -71c-104 0 -156 57.333 -156 172v305h83v-302c0 -70.667 28.667 -106 86 -106c46 0 88.667 25 128 75v333h81v-466h-81zM252 474v77h69v-77h-69zM112 474v77h68v-77h-68z" />
    <glyph glyph-name="hungarumlaut" horiz-adv-x="387" 
d="M261 0c-14.667 -36.667 -27.6641 -67.001 -38.9971 -91.001s-22.833 -43.167 -34.5 -57.5s-24.334 -24.5 -38.001 -30.5s-29.834 -9 -48.501 -9c-10.667 0 -20.334 0.333008 -29.001 1s-16.667 2.33398 -24 5.00098v75c7.33301 -2 14 -3.33301 20 -4s12.333 -1 19 -1
c40.667 0 74 37.333 100 112l-176 466h90l124 -365l123 365h90zM206.003 457.999h-55l51 105h88z" />
    <glyph glyph-name="ogonek" horiz-adv-x="432" 
d="M403 204c0 -32 -4.16504 -61.167 -12.498 -87.5s-20 -48.833 -35 -67.5s-32.833 -33.167 -53.5 -43.5s-43.334 -15.5 -68.001 -15.5c-42.667 0 -79.334 13.667 -110.001 41v-185h-71v709h71v-201c32 37.333 70.333 56 115 56c51.333 0 91.5 -18.333 120.5 -55
s43.5 -87 43.5 -151zM330.002 204c0 100.667 -32.667 151 -98 151c-39.333 0 -75.333 -23.333 -108 -70v-189c30.667 -32.667 66 -49 106 -49c66.667 0 100 52.333 100 157z" />
    <glyph glyph-name="caron" horiz-adv-x="387" 
d="M261 0c-14.667 -36.667 -27.6641 -67.001 -38.9971 -91.001s-22.833 -43.167 -34.5 -57.5s-24.334 -24.5 -38.001 -30.5s-29.834 -9 -48.501 -9c-10.667 0 -20.334 0.333008 -29.001 1s-16.667 2.33398 -24 5.00098v75c7.33301 -2 14 -3.33301 20 -4s12.333 -1 19 -1
c40.667 0 74 37.333 100 112l-176 466h90l124 -365l123 365h90zM230.003 473.999v77h69v-77h-69zM90.0029 473.999v77h68v-77h-68z" />
    <glyph glyph-name="glyph227" horiz-adv-x="775" 
d="M423 0v74.002c-16.667 -25.333 -39.167 -45.666 -67.5 -60.999s-57.5 -23 -87.5 -23c-36 0 -68.333 6.66699 -97 20s-53 32.5 -73 57.5s-35.333 55.333 -46 91s-16 75.5 -16 119.5s5.33301 83.667 16 119s26 65.166 46 89.499s44.333 43.166 73 56.499s61 20 97 20
c30 0 59.167 -7.33301 87.5 -22s50.833 -34.334 67.5 -59.001v73h298v-67h-224v-168h203v-67h-203v-187h237v-66h-311zM423 278.002c0 148.667 -51.333 222.999 -154 222.999c-49.333 0 -87.833 -18.833 -115.5 -56.5s-41.5 -93.167 -41.5 -166.5
s13.833 -129.166 41.5 -167.499s65.5 -57.5 113.5 -57.5c104 0 156 75 156 225z" />
    <glyph glyph-name="glyph228" horiz-adv-x="732" 
d="M402 183c2.66699 -42 14.167 -75.168 34.5 -99.501s49.5 -36.5 87.5 -36.5c28 0 51 6.66699 69 20s27.667 31.333 29 54h74c-2 -20 -7.83301 -38 -17.5 -54s-22 -29.667 -37 -41s-32.667 -20.166 -53 -26.499s-41.833 -9.5 -64.5 -9.5c-68.667 0 -121 24.667 -157 74
c-34 -49.333 -84.667 -74 -152 -74c-30 0 -56.667 5 -80 15s-43 24.167 -59 42.5s-28.167 40.5 -36.5 66.5s-12.5 54.667 -12.5 86c0 68 17.167 120 51.5 156s79.833 54 136.5 54c67.333 0 118 -24 152 -72c34 48 84 72 150 72c58.667 0 104.667 -19 138 -57s50 -89 50 -153
v-17h-303zM630 239.999c-12.667 76.667 -50.333 115 -113 115c-62 0 -100 -38.333 -114 -115h227zM330.001 199.999c0 52 -10.501 90.833 -31.501 116.5s-48.833 38.5 -83.5 38.5c-35.333 0 -63.166 -12.833 -83.499 -38.5s-30.5 -64.5 -30.5 -116.5
c0 -102 38 -153 114 -153c76.667 0 115 51 115 153z" />
    <glyph glyph-name="glyph229" horiz-adv-x="517" 
d="M287 589h-73l-84 107h77l44 -64l42 64h77zM477 156c0 -22.667 -4.33203 -43.999 -12.999 -63.999s-21.667 -37.5 -39 -52.5s-38.666 -27 -63.999 -36s-55 -13.5 -89 -13.5c-74.667 0 -132.667 16.833 -174 50.5s-62.666 79.5 -63.999 137.5h72
c3.33301 -39.333 19.166 -69.333 47.499 -90s66.5 -31 114.5 -31c20 0 38.333 2 55 6s31.167 10 43.5 18s22 17.833 29 29.5s10.5 25.167 10.5 40.5c0 19.333 -4.5 34.333 -13.5 45s-23.833 20 -44.5 28s-47.334 16.167 -80.001 24.5s-72.334 19.833 -119.001 34.5
c-34 14 -58.333 31.333 -73 52s-22 45.667 -22 75c0 44 16.5 80.5 49.5 109.5s82.5 43.5 148.5 43.5c62 0 112 -13.833 150 -41.5s58 -69.167 60 -124.5h-71c-6 67.333 -51.333 101 -136 101c-39.333 0 -70.833 -6.83301 -94.5 -20.5s-35.5 -34.5 -35.5 -62.5
c0 -33.333 22 -57 66 -71l129 -33c53.333 -13.333 92.833 -32.333 118.5 -57s38.5 -57.334 38.5 -98.001z" />
    <glyph glyph-name="glyph230" horiz-adv-x="387" 
d="M214 458h-73l-83 105h77l43 -64l43 64h77zM358 118c0 -18 -3.5 -34.6621 -10.5 -49.9951s-17.333 -28.833 -31 -40.5s-30.667 -20.834 -51 -27.501s-43.5 -10 -69.5 -10c-111.333 0 -168.333 43.667 -171 131h71c0.666992 -49.333 34 -74 100 -74
c59.333 0 89 21.333 89 64c0 11.333 -3.33301 20.333 -10 27s-17 12.667 -31 18s-32.167 10.833 -54.5 16.5s-49.5 13.5 -81.5 23.5c-25.333 8 -44.166 20.5 -56.499 37.5s-18.5 37.5 -18.5 61.5c0 32.667 12.667 60 38 82s62.666 33 111.999 33
c105.333 0 159 -37.333 161 -112h-71c-2 38 -30.667 57 -86 57c-54.667 0 -82 -18 -82 -54c0 -10.667 2.16699 -18.834 6.5 -24.501s12.833 -10.834 25.5 -15.501s30.167 -9.83398 52.5 -15.501s51.5 -13.834 87.5 -24.501c54 -18 81 -52.333 81 -103z" />
    <glyph glyph-name="glyph231" horiz-adv-x="517" 
d="M342 272v-272h-86v272l-252 370h104l191 -296l193 296h102zM293 606v77h69v-77h-69zM153 606v77h68v-77h-68z" />
    <glyph glyph-name="glyph232" horiz-adv-x="432" 
d="M399 486c-19.333 4.66699 -38.667 7 -58 7c-13.333 0 -23.5 -3.83301 -30.5 -11.5s-12.833 -23.834 -17.5 -48.501l-8 -39h77l-8 -53h-78l-72 -405c-11.333 -65.333 -45.333 -98 -102 -98c-28.667 0 -54.334 2.33301 -77.001 7v60c14 -3.33301 26.333 -5.5 37 -6.5
s19.667 -1.5 27 -1.5c14.667 0 25.167 3.33301 31.5 10s11.833 22.334 16.5 47.001l67 387h-76l9 53h76l8 51c3.33301 20.667 7.83301 38.167 13.5 52.5s12.834 25.833 21.501 34.5s19 15 31 19s26.333 6 43 6c26 0 49 -2 69 -6v-65v0z" />
    <glyph glyph-name="glyph233" horiz-adv-x="306" 
d="M196 458l-43 64l-44 -64h-76l84 105h72l84 -105h-77z" />
    <glyph glyph-name="glyph234" horiz-adv-x="320" 
d="M287 556c0 -58 -25.666 -87 -76.999 -87c-6.66699 0 -24.667 5.33301 -54 16c-28 10.667 -43.667 16 -47 16c-15.333 0 -24.333 -11.333 -27 -34h-49c0 25.333 6.83301 46.333 20.5 63s32.167 25 55.5 25c10.667 0 29.667 -5.33301 57 -16l28 -11
c7.33301 -3.33301 12.666 -5 15.999 -5c16 0 25 11 27 33h50v0z" />
    <glyph glyph-name="glyph235" 
d="M-7 514v19h17v-19h-17z" />
    <glyph glyph-name="glyph239" 
d="M-7 514v19h17v-19h-17z" />
    <glyph glyph-name="glyph248" 
d="M-7 514v19h17v-19h-17z" />
    <glyph glyph-name="glyph249" 
d="M-7 514v19h17v-19h-17z" />
    <glyph glyph-name="glyph252" 
d="M-7 514v19h17v-19h-17z" />
    <glyph glyph-name="glyph253" 
d="M-7 514v19h17v-19h-17z" />
    <glyph glyph-name="glyph276" 
d="M-7 514v19h17v-19h-17z" />
    <glyph glyph-name="glyph284" 
d="M-7 514v19h17v-19h-17z" />
    <glyph glyph-name="glyph287" 
d="M-7 514v19h17v-19h-17z" />
    <glyph glyph-name="glyph293" 
d="M-7 514v19h17v-19h-17z" />
    <glyph glyph-name="glyph294" 
d="M-7 514v19h17v-19h-17z" />
    <glyph glyph-name="glyph303" horiz-adv-x="15" 
d="M-116 668c-60 44 -124.667 66 -194 66c-80 0 -148.333 -24 -205 -72l-45 51c34.667 29.333 71.667 51.833 111 67.5s81.666 23.5 126.999 23.5c46.667 0 90.334 -7 131.001 -21s80 -36 118 -66l-43 -49v0z" />
    <glyph glyph-name="glyph304" 
d="M-7 514v19h17v-19h-17z" />
    <glyph glyph-name="glyph305" 
d="M-7 514v19h17v-19h-17z" />
    <glyph glyph-name="glyph308" horiz-adv-x="514" 
d="M410 170c-2.66699 48.667 -24.832 85.0029 -66.499 109.003s-98.5 36 -170.5 36l-55 -4c0 -30.667 5 -60.834 15 -90.501s23.5 -56.334 40.5 -80.001s37.167 -42.667 60.5 -57s48 -21.5 74 -21.5c33.333 0 58.666 8.66699 75.999 26s26 44.666 26 81.999z
M482.002 159.003c0 -26.667 -4.50195 -50.5 -13.502 -71.5s-21.5 -38.833 -37.5 -53.5s-34.833 -25.834 -56.5 -33.501s-45.5 -11.5 -71.5 -11.5c-38 0 -73 8.83301 -105 26.5s-59.667 42 -83 73s-41.5 67.333 -54.5 109s-19.5 86.5 -19.5 134.5
c0 46.667 5.83301 89.167 17.5 127.5s28.334 71 50.001 98s48.167 48 79.5 63s66.666 22.5 105.999 22.5c93.333 0 155.333 -36 186 -108l-58 -38l-25 38c-24 24 -58.333 36 -103 36c-25.333 0 -48.666 -5.16699 -69.999 -15.5s-39.833 -24 -55.5 -41s-28 -36.833 -37 -59.5
s-13.5 -46 -13.5 -70c16.667 2.66699 30.834 4.16699 42.501 4.5s22.834 0.5 33.501 0.5c42.667 0 81.667 -5.5 117 -16.5s65.666 -26.5 90.999 -46.5s45 -44.167 59 -72.5s21 -60.166 21 -95.499z" />
    <glyph glyph-name="glyph309" 
d="M-7 514v19h17v-19h-17z" />
    <glyph glyph-name="glyph314" 
d="M-7 514v19h17v-19h-17z" />
    <glyph glyph-name="glyph315" 
d="M-7 514v19h17v-19h-17z" />
    <glyph glyph-name="glyph316" 
d="M-7 514v19h17v-19h-17z" />
    <glyph glyph-name="glyph317" 
d="M-7 514v19h17v-19h-17z" />
    <glyph glyph-name="glyph318" 
d="M-7 514v19h17v-19h-17z" />
    <glyph glyph-name="glyph319" 
d="M-7 514v19h17v-19h-17z" />
    <glyph glyph-name="glyph320" 
d="M-7 514v19h17v-19h-17z" />
    <glyph glyph-name="glyph323" 
d="M-7 514v19h17v-19h-17z" />
    <glyph glyph-name="glyph324" 
d="M-7 514v19h17v-19h-17z" />
    <glyph glyph-name="glyph325" 
d="M-7 514v19h17v-19h-17z" />
    <glyph glyph-name="glyph326" 
d="M-7 514v19h17v-19h-17z" />
    <glyph glyph-name="glyph327" 
d="M-7 514v19h17v-19h-17z" />
    <glyph glyph-name="glyph330" 
d="M-7 514v19h17v-19h-17z" />
    <glyph glyph-name="uni0B4B_uni0B01.abvs" horiz-adv-x="171" 
d="M53 642h72v-642h-72v642zM277 895c0 -24 -11.667 -36 -35 -36c-22 0 -33 12 -33 36c0 23.333 11 35 33 35c23.333 0 35 -11.667 35 -35zM418 909c0 -22.667 -4 -43.834 -12 -63.501s-19.5 -36.667 -34.5 -51s-33.333 -25.666 -55 -33.999s-46.5 -12.5 -74.5 -12.5
c-57.333 0 -101.5 14.5 -132.5 43.5s-46.5 68.5 -46.5 118.5h59c0 -34 9 -60.333 27 -79s46.667 -28 86 -28c37.333 0 67.333 7.83301 90 23.5s34 43.167 34 82.5h59z" />
    <glyph glyph-name="glyph335" 
d="M-7 514v19h17v-19h-17z" />
    <glyph glyph-name="glyph336" 
d="M-7 514v19h17v-19h-17z" />
    <glyph glyph-name="glyph337" 
d="M-7 514v19h17v-19h-17z" />
    <glyph glyph-name="glyph350" horiz-adv-x="15" 
d="M-437 -156h323v156h61v-216h-384v60z" />
    <glyph glyph-name="reph_uni0B01.abvs" horiz-adv-x="0" 
d="M-123 954l-282 -91l276 -148l-65 -38l-304 163v57l339 114zM16 859c0 -24.667 -11.333 -37 -34 -37s-34 12.333 -34 37c0 22.667 11.333 34 34 34s34 -11.333 34 -34zM157 872c0 -22.667 -4 -43.834 -12 -63.501s-19.5 -36.667 -34.5 -51s-33.333 -25.666 -55 -33.999
s-46.167 -12.5 -73.5 -12.5c-58 0 -102.5 14.5 -133.5 43.5s-46.5 68.5 -46.5 118.5h59c0 -34 9.16699 -60.333 27.5 -79s46.833 -28 85.5 -28c37.333 0 67.333 7.83301 90 23.5s34 43.167 34 82.5h59z" />
    <glyph glyph-name="uni0B3F_uni0B01.abvs" horiz-adv-x="15" 
d="M-159 643c-59.333 44.667 -123.998 67 -193.998 67c-78.667 0 -147 -24.333 -205 -73l-45 52c34.667 29.333 71.667 51.833 111 67.5s81.666 23.5 126.999 23.5c16.667 0 32.667 -0.833008 48 -2.5s30.666 -4.16699 45.999 -7.5c-8 20 -12 42 -12 66h59
c0 -34 9.16699 -60.333 27.5 -79s46.833 -28 85.5 -28c37.333 0 67.5 7.83301 90.5 23.5s34.5 43.167 34.5 82.5h59c-0.666992 -22.667 -5 -43.834 -13 -63.501s-19.5 -36.667 -34.5 -51s-33.333 -25.666 -55 -33.999s-46.167 -12.5 -73.5 -12.5h-14
c-4 0 -8.33301 0.333008 -13 1zM-68.998 822c0 -24.667 -11.333 -37 -34 -37s-34 12.333 -34 37c0 22.667 11.333 34 34 34s34 -11.333 34 -34z" />
    <glyph glyph-name="uni0B3F_reph.abvs" horiz-adv-x="15" 
d="M-134 954l-282 -91l212 -114c10.667 -4.66699 20.834 -9.66699 30.501 -15s19.167 -11 28.5 -17l5 -4c8.66699 -5.33301 18 -12.333 28 -21l-43 -49c-59.333 44.667 -124 67 -194 67c-78.667 0 -147.334 -24.333 -206.001 -73l-44 52c60.667 52 129 81.333 205 88
l-115 63v57l339 114z" />
    <glyph glyph-name="uni0B56_reph.abvs" horiz-adv-x="12" 
d="M167 963l-281.002 -90.999l38 -20c21.333 -5.33301 38.5 -16 51.5 -32s19.5 -36.333 19.5 -61c0 -10.667 -1.66699 -20.667 -5 -30s-7 -18.5 -11 -27.5s-7.66699 -18.333 -11 -28s-5 -19.834 -5 -30.501h-72c0 10.667 1.83301 20.334 5.5 29.001s7.66699 17 12 25
s8.33301 16.167 12 24.5s5.5 17.166 5.5 26.499c0 14 -5.16699 24.833 -15.5 32.5s-24.5 11.5 -42.5 11.5c-13.333 0 -26.833 -1.33301 -40.5 -4s-27.667 -5.66699 -42 -9s-29 -6.33301 -44 -9s-30.833 -4 -47.5 -4c-12 0 -27.5 1.83301 -46.5 5.5s-37.667 8 -56 13
s-34.666 10 -48.999 15s-22.833 8.83301 -25.5 11.5l22 61c54.667 -27.333 105 -41 151 -41c26.667 0 60.334 4.33301 101.001 13c1.33301 0 2.5 0.166992 3.5 0.5s2.16699 0.5 3.5 0.5l-6 4v56l340 115z" />
    <glyph glyph-name="uni0B3F_reph.abvs_uni0B01.abvs" horiz-adv-x="15" 
d="M-123 954l-282 -91.001l212 -114c10.667 -4.66699 20.834 -9.66699 30.501 -15s19.167 -11 28.5 -17l5 -4c5.33301 -3.33301 10.333 -6.66602 15 -9.99902s9 -7 13 -11l-43 -49c-59.333 44.667 -124 67 -194 67c-78.667 0 -147.334 -24.333 -206.001 -73l-44 52
c60.667 52 129 81.333 205 88l-115 63v57l339 114zM157 871.999c0 -22.667 -4 -43.834 -12 -63.501s-19.5 -36.667 -34.5 -51s-33.333 -25.666 -55 -33.999s-46.167 -12.5 -73.5 -12.5c-58 0 -102.5 14.5 -133.5 43.5s-46.5 68.5 -46.5 118.5h59
c0 -34 9.16699 -60.333 27.5 -79s46.833 -28 85.5 -28c37.333 0 67.333 7.83301 90 23.5s34 43.167 34 82.5h59zM16 858.999c0 -24.667 -11.333 -37 -34 -37s-34 12.333 -34 37c0 22.667 11.333 34 34 34s34 -11.333 34 -34z" />
    </font>
</defs>
</svg>
